<?xml version="1.0" encoding="UTF-8"?>
<svg id="_レイヤー_1" data-name=" レイヤー 1" xmlns="http://www.w3.org/2000/svg" viewBox="0 0 193.79 62.07">
  <defs>
    <style>
      .cls-1 {
        fill: #231815;
      }

      .cls-1, .cls-2, .cls-3 {
        stroke: #231815;
        stroke-miterlimit: 10;
      }

      .cls-2, .cls-3 {
        fill: #fff;
      }

      .cls-3 {
        stroke-width: .5px;
      }
    </style>
  </defs>
  <rect class="cls-2" x="13.94" y="14.56" width="174.89" height="39.5"/>
  <rect class="cls-2" x="21.33" y="30.11" width="160.48" height="23.95"/>
  <rect class="cls-1" x="66.29" y="30.25" width=".6" height="11.91"/>
  <rect class="cls-1" x="69.9" y="30.25" width=".6" height="11.91"/>
  <rect class="cls-1" x="76.07" y="30.25" width=".6" height="11.91"/>
  <rect class="cls-1" x="80.04" y="30.25" width=".6" height="11.91"/>
  <rect class="cls-1" x="83.93" y="30.25" width=".6" height="11.91"/>
  <line class="cls-3" x1="66.59" y1="53.79" x2="66.59" y2="42.5"/>
  <line class="cls-3" x1="70.2" y1="54.06" x2="70.2" y2="42.5"/>
  <line class="cls-3" x1="73.28" y1="54.06" x2="73.28" y2="30.25"/>
  <line class="cls-3" x1="87.78" y1="54.41" x2="87.78" y2="30.6"/>
  <line class="cls-3" x1="76.37" y1="54.06" x2="76.37" y2="42.5"/>
  <line class="cls-3" x1="80.34" y1="54.06" x2="80.34" y2="42.5"/>
  <line class="cls-3" x1="84.23" y1="54.06" x2="84.23" y2="42.5"/>
  <rect class="cls-1" x="91.12" y="30.25" width=".6" height="11.91"/>
  <rect class="cls-1" x="94.73" y="30.25" width=".6" height="11.91"/>
  <rect class="cls-1" x="100.9" y="30.25" width=".6" height="11.91"/>
  <rect class="cls-1" x="104.87" y="30.25" width=".6" height="11.91"/>
  <rect class="cls-1" x="108.76" y="30.25" width=".6" height="11.91"/>
  <line class="cls-3" x1="91.42" y1="53.79" x2="91.42" y2="42.5"/>
  <line class="cls-3" x1="95.03" y1="54.06" x2="95.03" y2="42.5"/>
  <line class="cls-3" x1="98.11" y1="54.06" x2="98.11" y2="30.25"/>
  <line class="cls-3" x1="112.61" y1="54.41" x2="112.61" y2="30.6"/>
  <line class="cls-3" x1="101.2" y1="54.06" x2="101.2" y2="42.5"/>
  <line class="cls-3" x1="105.17" y1="54.06" x2="105.17" y2="42.5"/>
  <line class="cls-3" x1="109.06" y1="54.06" x2="109.06" y2="42.5"/>
  <rect class="cls-1" x="115.87" y="30.25" width=".6" height="11.91"/>
  <rect class="cls-1" x="119.48" y="30.25" width=".6" height="11.91"/>
  <rect class="cls-1" x="125.65" y="30.25" width=".6" height="11.91"/>
  <rect class="cls-1" x="129.62" y="30.25" width=".6" height="11.91"/>
  <rect class="cls-1" x="133.51" y="30.25" width=".6" height="11.91"/>
  <line class="cls-3" x1="116.17" y1="53.79" x2="116.17" y2="42.5"/>
  <line class="cls-3" x1="119.78" y1="54.06" x2="119.78" y2="42.5"/>
  <line class="cls-3" x1="122.86" y1="54.06" x2="122.86" y2="30.25"/>
  <line class="cls-3" x1="137.36" y1="54.41" x2="137.36" y2="30.6"/>
  <line class="cls-3" x1="125.95" y1="54.06" x2="125.95" y2="42.5"/>
  <line class="cls-3" x1="129.92" y1="54.06" x2="129.92" y2="42.5"/>
  <line class="cls-3" x1="133.81" y1="54.06" x2="133.81" y2="42.5"/>
  <rect class="cls-1" x="140.66" y="30.25" width=".6" height="11.91"/>
  <rect class="cls-1" x="144.27" y="30.25" width=".6" height="11.91"/>
  <rect class="cls-1" x="150.44" y="30.25" width=".6" height="11.91"/>
  <rect class="cls-1" x="154.41" y="30.25" width=".6" height="11.91"/>
  <rect class="cls-1" x="158.3" y="30.25" width=".6" height="11.91"/>
  <line class="cls-3" x1="140.96" y1="53.79" x2="140.96" y2="42.5"/>
  <line class="cls-3" x1="144.57" y1="54.06" x2="144.57" y2="42.5"/>
  <line class="cls-3" x1="147.66" y1="54.06" x2="147.66" y2="30.25"/>
  <line class="cls-3" x1="162.16" y1="54.41" x2="162.16" y2="30.6"/>
  <line class="cls-3" x1="150.74" y1="54.06" x2="150.74" y2="42.5"/>
  <line class="cls-3" x1="154.71" y1="54.06" x2="154.71" y2="42.5"/>
  <line class="cls-3" x1="158.6" y1="54.06" x2="158.6" y2="42.5"/>
  <rect class="cls-1" x="165.54" y="30.25" width=".6" height="11.91"/>
  <rect class="cls-1" x="169.15" y="30.25" width=".6" height="11.91"/>
  <rect class="cls-1" x="175.32" y="30.25" width=".6" height="11.91"/>
  <rect class="cls-1" x="179.29" y="30.25" width=".6" height="11.91"/>
  <line class="cls-3" x1="165.84" y1="53.79" x2="165.84" y2="42.5"/>
  <line class="cls-3" x1="169.45" y1="54.06" x2="169.45" y2="42.5"/>
  <line class="cls-3" x1="172.53" y1="54.06" x2="172.53" y2="30.25"/>
  <line class="cls-3" x1="175.62" y1="54.06" x2="175.62" y2="42.5"/>
  <line class="cls-3" x1="179.59" y1="54.06" x2="179.59" y2="42.5"/>
  <rect class="cls-1" x="41.25" y="30.07" width=".6" height="11.91"/>
  <rect class="cls-1" x="44.86" y="30.07" width=".6" height="11.91"/>
  <rect class="cls-1" x="51.03" y="30.07" width=".6" height="11.91"/>
  <rect class="cls-1" x="55" y="30.07" width=".6" height="11.91"/>
  <rect class="cls-1" x="58.89" y="30.07" width=".6" height="11.91"/>
  <line class="cls-3" x1="41.55" y1="53.62" x2="41.55" y2="42.33"/>
  <line class="cls-3" x1="45.16" y1="53.89" x2="45.16" y2="42.33"/>
  <line class="cls-3" x1="48.24" y1="53.89" x2="48.24" y2="30.07"/>
  <line class="cls-3" x1="62.74" y1="54.23" x2="62.74" y2="30.42"/>
  <line class="cls-3" x1="51.33" y1="53.89" x2="51.33" y2="42.33"/>
  <line class="cls-3" x1="55.3" y1="53.89" x2="55.3" y2="42.33"/>
  <line class="cls-3" x1="59.19" y1="53.89" x2="59.19" y2="42.33"/>
  <rect class="cls-1" x="25.78" y="30.42" width=".6" height="11.91"/>
  <rect class="cls-1" x="29.75" y="30.42" width=".6" height="11.91"/>
  <rect class="cls-1" x="33.64" y="30.42" width=".6" height="11.91"/>
  <line class="cls-3" x1="37.49" y1="54.58" x2="37.49" y2="30.77"/>
  <line class="cls-3" x1="26.08" y1="54.23" x2="26.08" y2="42.68"/>
  <line class="cls-3" x1="30.05" y1="54.23" x2="30.05" y2="42.68"/>
  <line class="cls-3" x1="33.94" y1="54.23" x2="33.94" y2="42.68"/>
  <rect class="cls-2" x="64.8" y="16.81" width="66.63" height="10.67"/>
</svg>