<?xml version="1.0" encoding="UTF-8"?>
<svg id="_レイヤー_1" data-name=" レイヤー 1" xmlns="http://www.w3.org/2000/svg" viewBox="0 0 193.79 173.12">
  <defs>
    <style>
      .cls-1 {
        fill: #231815;
      }

      .cls-1, .cls-2, .cls-3 {
        stroke: #231815;
        stroke-miterlimit: 10;
      }

      .cls-2, .cls-3 {
        fill: #fff;
      }

      .cls-3 {
        stroke-width: .5px;
      }
    </style>
  </defs>
  <path class="cls-2" d="M13.94,36.67v128.45h174.89s.05-41.32,0-44.97c-.36-11.74-51.46-24.64-51.46-24.64-28.6-6.44-31.89-28.94-31.89-34.72,0-12.44,0-17.56,0-17.56,0-12.75-26.18-34.01-44.14-34.59l-8.28.03c-16-.05-39.86,17.84-39.11,28.01Z"/>
  <rect class="cls-2" x="21.33" y="141.16" width="160.48" height="23.95"/>
  <rect class="cls-1" x="66.29" y="141.3" width=".6" height="11.91"/>
  <rect class="cls-1" x="69.9" y="141.3" width=".6" height="11.91"/>
  <rect class="cls-1" x="76.07" y="141.3" width=".6" height="11.91"/>
  <rect class="cls-1" x="80.04" y="141.3" width=".6" height="11.91"/>
  <rect class="cls-1" x="83.93" y="141.3" width=".6" height="11.91"/>
  <line class="cls-3" x1="66.59" y1="164.85" x2="66.59" y2="153.56"/>
  <line class="cls-3" x1="70.2" y1="165.11" x2="70.2" y2="153.56"/>
  <line class="cls-3" x1="73.28" y1="165.11" x2="73.28" y2="141.3"/>
  <line class="cls-3" x1="87.78" y1="165.46" x2="87.78" y2="141.65"/>
  <line class="cls-3" x1="76.37" y1="165.11" x2="76.37" y2="153.56"/>
  <line class="cls-3" x1="80.34" y1="165.11" x2="80.34" y2="153.56"/>
  <line class="cls-3" x1="84.23" y1="165.11" x2="84.23" y2="153.56"/>
  <rect class="cls-1" x="91.12" y="141.3" width=".6" height="11.91"/>
  <rect class="cls-1" x="94.73" y="141.3" width=".6" height="11.91"/>
  <rect class="cls-1" x="100.9" y="141.3" width=".6" height="11.91"/>
  <rect class="cls-1" x="104.87" y="141.3" width=".6" height="11.91"/>
  <rect class="cls-1" x="108.76" y="141.3" width=".6" height="11.91"/>
  <line class="cls-3" x1="91.42" y1="164.85" x2="91.42" y2="153.56"/>
  <line class="cls-3" x1="95.03" y1="165.11" x2="95.03" y2="153.56"/>
  <line class="cls-3" x1="98.11" y1="165.11" x2="98.11" y2="141.3"/>
  <line class="cls-3" x1="112.61" y1="165.46" x2="112.61" y2="141.65"/>
  <line class="cls-3" x1="101.2" y1="165.11" x2="101.2" y2="153.56"/>
  <line class="cls-3" x1="105.17" y1="165.11" x2="105.17" y2="153.56"/>
  <line class="cls-3" x1="109.06" y1="165.11" x2="109.06" y2="153.56"/>
  <rect class="cls-1" x="115.87" y="141.3" width=".6" height="11.91"/>
  <rect class="cls-1" x="119.48" y="141.3" width=".6" height="11.91"/>
  <rect class="cls-1" x="125.65" y="141.3" width=".6" height="11.91"/>
  <rect class="cls-1" x="129.62" y="141.3" width=".6" height="11.91"/>
  <rect class="cls-1" x="133.51" y="141.3" width=".6" height="11.91"/>
  <line class="cls-3" x1="116.17" y1="164.85" x2="116.17" y2="153.56"/>
  <line class="cls-3" x1="119.78" y1="165.11" x2="119.78" y2="153.56"/>
  <line class="cls-3" x1="122.86" y1="165.11" x2="122.86" y2="141.3"/>
  <line class="cls-3" x1="137.36" y1="165.46" x2="137.36" y2="141.65"/>
  <line class="cls-3" x1="125.95" y1="165.11" x2="125.95" y2="153.56"/>
  <line class="cls-3" x1="129.92" y1="165.11" x2="129.92" y2="153.56"/>
  <line class="cls-3" x1="133.81" y1="165.11" x2="133.81" y2="153.56"/>
  <rect class="cls-1" x="140.66" y="141.3" width=".6" height="11.91"/>
  <rect class="cls-1" x="144.27" y="141.3" width=".6" height="11.91"/>
  <rect class="cls-1" x="150.44" y="141.3" width=".6" height="11.91"/>
  <rect class="cls-1" x="154.41" y="141.3" width=".6" height="11.91"/>
  <rect class="cls-1" x="158.3" y="141.3" width=".6" height="11.91"/>
  <line class="cls-3" x1="140.96" y1="164.85" x2="140.96" y2="153.56"/>
  <line class="cls-3" x1="144.57" y1="165.11" x2="144.57" y2="153.56"/>
  <line class="cls-3" x1="147.66" y1="165.11" x2="147.66" y2="141.3"/>
  <line class="cls-3" x1="162.16" y1="165.46" x2="162.16" y2="141.65"/>
  <line class="cls-3" x1="150.74" y1="165.11" x2="150.74" y2="153.56"/>
  <line class="cls-3" x1="154.71" y1="165.11" x2="154.71" y2="153.56"/>
  <line class="cls-3" x1="158.6" y1="165.11" x2="158.6" y2="153.56"/>
  <rect class="cls-1" x="165.54" y="141.3" width=".6" height="11.91"/>
  <rect class="cls-1" x="169.15" y="141.3" width=".6" height="11.91"/>
  <rect class="cls-1" x="175.32" y="141.3" width=".6" height="11.91"/>
  <rect class="cls-1" x="179.29" y="141.3" width=".6" height="11.91"/>
  <line class="cls-3" x1="165.84" y1="164.85" x2="165.84" y2="153.56"/>
  <line class="cls-3" x1="169.45" y1="165.11" x2="169.45" y2="153.56"/>
  <line class="cls-3" x1="172.53" y1="165.11" x2="172.53" y2="141.3"/>
  <line class="cls-3" x1="175.62" y1="165.11" x2="175.62" y2="153.56"/>
  <line class="cls-3" x1="179.59" y1="165.11" x2="179.59" y2="153.56"/>
  <rect class="cls-1" x="41.25" y="141.12" width=".6" height="11.91"/>
  <rect class="cls-1" x="44.86" y="141.12" width=".6" height="11.91"/>
  <rect class="cls-1" x="51.03" y="141.12" width=".6" height="11.91"/>
  <rect class="cls-1" x="55" y="141.12" width=".6" height="11.91"/>
  <rect class="cls-1" x="58.89" y="141.12" width=".6" height="11.91"/>
  <line class="cls-3" x1="41.55" y1="164.67" x2="41.55" y2="153.38"/>
  <line class="cls-3" x1="45.16" y1="164.94" x2="45.16" y2="153.38"/>
  <line class="cls-3" x1="48.24" y1="164.94" x2="48.24" y2="141.12"/>
  <line class="cls-3" x1="62.74" y1="165.29" x2="62.74" y2="141.47"/>
  <line class="cls-3" x1="51.33" y1="164.94" x2="51.33" y2="153.38"/>
  <line class="cls-3" x1="55.3" y1="164.94" x2="55.3" y2="153.38"/>
  <line class="cls-3" x1="59.19" y1="164.94" x2="59.19" y2="153.38"/>
  <rect class="cls-1" x="25.78" y="141.47" width=".6" height="11.91"/>
  <rect class="cls-1" x="29.75" y="141.47" width=".6" height="11.91"/>
  <rect class="cls-1" x="33.64" y="141.47" width=".6" height="11.91"/>
  <line class="cls-3" x1="37.49" y1="165.64" x2="37.49" y2="141.82"/>
  <line class="cls-3" x1="26.08" y1="165.29" x2="26.08" y2="153.73"/>
  <line class="cls-3" x1="30.05" y1="165.29" x2="30.05" y2="153.73"/>
  <line class="cls-3" x1="33.94" y1="165.29" x2="33.94" y2="153.73"/>
</svg>