<?xml version="1.0" encoding="UTF-8"?>
<svg id="_レイヤー_1" data-name=" レイヤー 1" xmlns="http://www.w3.org/2000/svg" viewBox="0 0 147.25 62.07">
  <defs>
    <style>
      .cls-1, .cls-2 {
        fill: #231815;
      }

      .cls-1, .cls-3, .cls-4, .cls-5 {
        stroke: #231815;
        stroke-miterlimit: 10;
      }

      .cls-3, .cls-4, .cls-5 {
        fill: #fff;
      }

      .cls-4 {
        stroke-width: .25px;
      }

      .cls-5 {
        stroke-width: .5px;
      }
    </style>
  </defs>
  <rect class="cls-3" x="8.92" y="14.56" width="133.37" height="39.5"/>
  <rect class="cls-3" x="15.94" y="30.11" width="119.33" height="23.95"/>
  <rect class="cls-1" x="19.75" y="30.25" width=".6" height="11.91"/>
  <rect class="cls-1" x="23.36" y="30.25" width=".6" height="11.91"/>
  <rect class="cls-1" x="29.53" y="30.25" width=".6" height="11.91"/>
  <rect class="cls-1" x="33.5" y="30.25" width=".6" height="11.91"/>
  <rect class="cls-1" x="37.39" y="30.25" width=".6" height="11.91"/>
  <line class="cls-5" x1="20.05" y1="53.79" x2="20.05" y2="42.5"/>
  <line class="cls-5" x1="23.66" y1="54.06" x2="23.66" y2="42.5"/>
  <line class="cls-5" x1="26.74" y1="54.06" x2="26.74" y2="30.25"/>
  <line class="cls-5" x1="41.24" y1="54.41" x2="41.24" y2="30.6"/>
  <line class="cls-5" x1="29.83" y1="54.06" x2="29.83" y2="42.5"/>
  <line class="cls-5" x1="33.8" y1="54.06" x2="33.8" y2="42.5"/>
  <line class="cls-5" x1="37.69" y1="54.06" x2="37.69" y2="42.5"/>
  <rect class="cls-1" x="44.58" y="30.25" width=".6" height="11.91"/>
  <rect class="cls-1" x="48.19" y="30.25" width=".6" height="11.91"/>
  <rect class="cls-1" x="54.36" y="30.25" width=".6" height="11.91"/>
  <rect class="cls-1" x="58.33" y="30.25" width=".6" height="11.91"/>
  <rect class="cls-1" x="62.22" y="30.25" width=".6" height="11.91"/>
  <line class="cls-5" x1="44.88" y1="53.79" x2="44.88" y2="42.5"/>
  <line class="cls-5" x1="48.49" y1="54.06" x2="48.49" y2="42.5"/>
  <line class="cls-5" x1="51.58" y1="54.06" x2="51.58" y2="30.25"/>
  <line class="cls-5" x1="66.08" y1="54.41" x2="66.08" y2="30.6"/>
  <line class="cls-5" x1="54.66" y1="54.06" x2="54.66" y2="42.5"/>
  <line class="cls-5" x1="58.63" y1="54.06" x2="58.63" y2="42.5"/>
  <line class="cls-5" x1="62.52" y1="54.06" x2="62.52" y2="42.5"/>
  <rect class="cls-1" x="69.33" y="30.25" width=".6" height="11.91"/>
  <rect class="cls-1" x="72.94" y="30.25" width=".6" height="11.91"/>
  <rect class="cls-1" x="79.11" y="30.25" width=".6" height="11.91"/>
  <rect class="cls-1" x="83.08" y="30.25" width=".6" height="11.91"/>
  <rect class="cls-1" x="86.97" y="30.25" width=".6" height="11.91"/>
  <line class="cls-5" x1="69.63" y1="53.79" x2="69.63" y2="42.5"/>
  <line class="cls-5" x1="73.24" y1="54.06" x2="73.24" y2="42.5"/>
  <line class="cls-5" x1="76.33" y1="54.06" x2="76.33" y2="30.25"/>
  <line class="cls-5" x1="90.83" y1="54.41" x2="90.83" y2="30.6"/>
  <line class="cls-5" x1="79.41" y1="54.06" x2="79.41" y2="42.5"/>
  <line class="cls-5" x1="83.38" y1="54.06" x2="83.38" y2="42.5"/>
  <line class="cls-5" x1="87.27" y1="54.06" x2="87.27" y2="42.5"/>
  <rect class="cls-1" x="94.12" y="30.25" width=".6" height="11.91"/>
  <rect class="cls-1" x="97.74" y="30.25" width=".6" height="11.91"/>
  <rect class="cls-1" x="103.9" y="30.25" width=".6" height="11.91"/>
  <rect class="cls-1" x="107.87" y="30.25" width=".6" height="11.91"/>
  <rect class="cls-1" x="111.76" y="30.25" width=".6" height="11.91"/>
  <line class="cls-5" x1="94.42" y1="53.79" x2="94.42" y2="42.5"/>
  <line class="cls-5" x1="98.04" y1="54.06" x2="98.04" y2="42.5"/>
  <line class="cls-5" x1="101.12" y1="54.06" x2="101.12" y2="30.25"/>
  <line class="cls-5" x1="115.62" y1="54.41" x2="115.62" y2="30.6"/>
  <line class="cls-5" x1="104.2" y1="54.06" x2="104.2" y2="42.5"/>
  <line class="cls-5" x1="108.17" y1="54.06" x2="108.17" y2="42.5"/>
  <line class="cls-5" x1="112.06" y1="54.06" x2="112.06" y2="42.5"/>
  <rect class="cls-1" x="119" y="30.25" width=".6" height="11.91"/>
  <rect class="cls-1" x="122.61" y="30.25" width=".6" height="11.91"/>
  <rect class="cls-1" x="128.78" y="30.25" width=".6" height="11.91"/>
  <rect class="cls-1" x="132.75" y="30.25" width=".6" height="11.91"/>
  <line class="cls-5" x1="119.3" y1="53.79" x2="119.3" y2="42.5"/>
  <line class="cls-5" x1="122.91" y1="54.06" x2="122.91" y2="42.5"/>
  <line class="cls-5" x1="125.99" y1="54.06" x2="125.99" y2="30.25"/>
  <line class="cls-5" x1="129.08" y1="54.06" x2="129.08" y2="42.5"/>
  <line class="cls-5" x1="133.05" y1="54.06" x2="133.05" y2="42.5"/>
  <rect class="cls-3" x="21.49" y="16.21" width="33" height="12.23"/>
  <rect class="cls-3" x="58.33" y="16.21" width="33" height="12.23"/>
  <rect class="cls-3" x="95.86" y="16.1" width="33" height="12.23"/>
  <line class="cls-5" x1="25.45" y1="27.05" x2="25.45" y2="17.38"/>
  <line class="cls-5" x1="28.59" y1="27.05" x2="28.59" y2="17.38"/>
  <line class="cls-5" x1="31.73" y1="27.05" x2="31.73" y2="17.38"/>
  <line class="cls-5" x1="34.87" y1="27.05" x2="34.87" y2="17.38"/>
  <line class="cls-5" x1="38.01" y1="27.05" x2="38.01" y2="17.38"/>
  <line class="cls-5" x1="41.15" y1="27.05" x2="41.15" y2="17.38"/>
  <line class="cls-5" x1="44.3" y1="27.05" x2="44.3" y2="17.38"/>
  <line class="cls-5" x1="47.44" y1="27.05" x2="47.44" y2="17.38"/>
  <line class="cls-5" x1="50.58" y1="27.05" x2="50.58" y2="17.38"/>
  <rect class="cls-2" x="24.17" y="21.35" width="2.38" height="1.58"/>
  <rect class="cls-2" x="27.4" y="23.29" width="2.38" height="1.58"/>
  <rect class="cls-4" x="30.54" y="19.98" width="2.38" height="1.58"/>
  <rect class="cls-4" x="33.68" y="21.89" width="2.38" height="1.58"/>
  <rect class="cls-2" x="36.82" y="25.06" width="2.38" height="1.58"/>
  <rect class="cls-4" x="39.96" y="24.18" width="2.38" height="1.58"/>
  <rect class="cls-2" x="43.11" y="21.89" width="2.38" height="1.58"/>
  <rect class="cls-2" x="46.25" y="20.1" width="2.38" height="1.58"/>
  <rect class="cls-4" x="49.39" y="21.89" width="2.38" height="1.58"/>
  <circle class="cls-4" cx="99.58" cy="19.58" r="1.55"/>
  <circle class="cls-4" cx="104.69" cy="19.58" r="1.55"/>
  <circle class="cls-4" cx="109.79" cy="19.58" r="1.55"/>
  <circle class="cls-4" cx="114.9" cy="19.58" r="1.55"/>
  <circle class="cls-4" cx="120" cy="19.58" r="1.55"/>
  <circle class="cls-4" cx="125.11" cy="19.58" r="1.55"/>
  <circle class="cls-4" cx="99.6" cy="24.87" r="1.55"/>
  <circle class="cls-4" cx="104.7" cy="24.87" r="1.55"/>
  <circle class="cls-4" cx="109.81" cy="24.87" r="1.55"/>
  <circle class="cls-4" cx="114.92" cy="24.87" r="1.55"/>
  <circle class="cls-4" cx="120.02" cy="24.87" r="1.55"/>
  <circle class="cls-4" cx="125.13" cy="24.87" r="1.55"/>
  <line class="cls-4" x1="99.58" y1="18.04" x2="99.58" y2="19.58"/>
  <line class="cls-4" x1="105.83" y1="18.55" x2="104.65" y2="19.73"/>
  <line class="cls-4" x1="108.25" y1="19.58" x2="109.79" y2="19.58"/>
  <line class="cls-4" x1="115.97" y1="20.7" x2="114.87" y2="19.61"/>
  <line class="cls-4" x1="120" y1="18.04" x2="120" y2="19.58"/>
  <line class="cls-4" x1="125.58" y1="18.12" x2="125.11" y2="19.58"/>
  <line class="cls-4" x1="101.02" y1="25.48" x2="99.6" y2="24.87"/>
  <line class="cls-4" x1="106.25" y1="24.87" x2="104.7" y2="24.87"/>
  <line class="cls-4" x1="109.81" y1="26.42" x2="109.81" y2="24.87"/>
  <line class="cls-4" x1="113.89" y1="26.03" x2="114.92" y2="24.87"/>
  <line class="cls-4" x1="121.36" y1="25.65" x2="120.02" y2="24.87"/>
  <path class="cls-4" d="M126.52,24.2c-.15.01-1.41.97-1.41.97"/>
</svg>