<?xml version="1.0" encoding="UTF-8" standalone="no"?>
<!-- This file was created by the DynamicDraw's "SVG Export" plug-in version 1.1.2.-->

<svg
   xmlns:dc="http://purl.org/dc/elements/1.1/"
   xmlns:cc="http://creativecommons.org/ns#"
   xmlns:rdf="http://www.w3.org/1999/02/22-rdf-syntax-ns#"
   xmlns:svg="http://www.w3.org/2000/svg"
   xmlns="http://www.w3.org/2000/svg"
   xmlns:sodipodi="http://sodipodi.sourceforge.net/DTD/sodipodi-0.dtd"
   xmlns:inkscape="http://www.inkscape.org/namespaces/inkscape"
   width="10.224999mm"
   height="6.7918963mm"
   viewBox="0 0 10.225 6.7918966"
   version="1.1"
   id="svg22"
   sodipodi:docname="PC_G.svg"
   inkscape:version="0.92.4 (5da689c313, 2019-01-14)">
  <metadata
     id="metadata28">
    <rdf:RDF>
      <cc:Work
         rdf:about="">
        <dc:format>image/svg+xml</dc:format>
        <dc:type
           rdf:resource="http://purl.org/dc/dcmitype/StillImage" />
        <dc:title></dc:title>
      </cc:Work>
    </rdf:RDF>
  </metadata>
  <defs
     id="defs26" />
  <sodipodi:namedview
     pagecolor="#ffffff"
     bordercolor="#666666"
     borderopacity="1"
     objecttolerance="10"
     gridtolerance="10"
     guidetolerance="10"
     inkscape:pageopacity="0"
     inkscape:pageshadow="2"
     inkscape:window-width="784"
     inkscape:window-height="480"
     id="namedview24"
     showgrid="false"
     fit-margin-top="0"
     fit-margin-left="0"
     fit-margin-right="0"
     fit-margin-bottom="0"
     inkscape:zoom="8.735544"
     inkscape:cx="19.322415"
     inkscape:cy="12.83717"
     inkscape:window-x="0"
     inkscape:window-y="0"
     inkscape:window-maximized="0"
     inkscape:current-layer="svg22" />
  <g
     style="stroke-linecap:round;stroke-linejoin:round"
     id="g20"
     transform="translate(-0.178611,-0.17860475)">
    <!-- start DynamicDraw object [1], type : FDOJ_GROUP -->
    <g
       id="g18">
      <!-- group -->
      <!-- start DynamicDraw object [1], type : FDOJ_GROUP -->
      <g
         id="g8">
        <!-- group -->
        <!-- start DynamicDraw object [1], type : FDOJ_RECT -->
        <rect
           x="0.241111"
           y="1.049111"
           width="3.434"
           height="5.8579998"
           style="fill:#ffffff;stroke:#000000;stroke-width:0.125"
           id="rect2" />
        <!-- end DynamicDraw object [1], type : FDOJ_RECT -->
        <!-- start DynamicDraw object [2], type : FDOJ_RECT -->
        <rect
           x="0.84711099"
           y="1.857111"
           width="2.2219999"
           height="0.40400001"
           style="fill:#ffffff;stroke:#000000;stroke-width:0.125"
           id="rect4" />
        <!-- end DynamicDraw object [2], type : FDOJ_RECT -->
        <!-- start DynamicDraw object [3], type : FDOJ_LINE -->
        <line
           x1="0.84711099"
           y1="3.6751111"
           x2="3.0691111"
           y2="3.6751111"
           style="fill:#ffffff;stroke:#000000;stroke-width:0.125"
           id="line6" />
        <!-- end DynamicDraw object [3], type : FDOJ_LINE -->
      </g>
      <!-- group -->
      <!-- end DynamicDraw object [1], type : FDOJ_GROUP -->
      <!-- start DynamicDraw object [2], type : FDOJ_GROUP -->
      <g
         id="g16">
        <!-- group -->
        <!-- start DynamicDraw object [2], type : FDOJ_POLY -->
        <path
           d="m 5.505802,0.241111 c 0,0 3.46467,0 4.37843,0 0.304586,0 0.456879,0.1616 0.456879,0.4848 0,1.791587 0,2.7472 0,3.8784 0,0.3232 -0.152293,0.4848 -0.456879,0.4848 -0.761466,0 -5.139896,0 -6.358241,0 -0.304587,0 -0.45688,-0.1616 -0.45688,-0.4848 0,-1.4544 0,-2.7472 0,-3.8784 0,-0.3232 0.152293,-0.4848 0.45688,-0.4848 0.913759,0 1.979811,0 1.979811,0"
           style="fill:#ffffff;stroke:#000000;stroke-width:0.125"
           id="path10"
           inkscape:connector-curvature="0" />
        <!-- end DynamicDraw object [2], type : FDOJ_POLY -->
        <!-- start DynamicDraw object [3], type : FDOJ_POLY -->
        <path
           d="m 5.705687,0.847111 c 0,0 2.887225,0 3.648691,0 0.253822,0 0.380733,0.114467 0.380733,0.3434 0,1.269041 0,1.945933 0,2.7472 0,0.228933 -0.126911,0.3434 -0.380733,0.3434 -0.634555,0 -4.283246,0 -5.298534,0 -0.253822,0 -0.380733,-0.114467 -0.380733,-0.3434 0,-1.0302 0,-1.945933 0,-2.7472 0,-0.228933 0.126911,-0.3434 0.380733,-0.3434 0.761466,0 1.649843,0 1.649843,0"
           style="fill:#ffffff;stroke:#000000;stroke-width:0.125"
           id="path12"
           inkscape:connector-curvature="0" />
        <!-- end DynamicDraw object [3], type : FDOJ_POLY -->
        <!-- start DynamicDraw object [4], type : FDOJ_POLY -->
        <polyline
           points="4.281111,6.907111 9.129111,6.907111 9.129111,6.301111 7.109111,6.301111 7.109111,5.089111 6.301111,5.089111 6.301111,6.301111 4.281111,6.301111 4.281111,6.907111 "
           style="fill:#ffffff;stroke:#000000;stroke-width:0.125"
           id="polyline14" />
        <!-- end DynamicDraw object [4], type : FDOJ_POLY -->
      </g>
      <!-- group -->
      <!-- end DynamicDraw object [2], type : FDOJ_GROUP -->
    </g>
    <!-- group -->
    <!-- end DynamicDraw object [1], type : FDOJ_GROUP -->
  </g>
  <!-- stroke-linecap, etc -->
</svg>
