<?xml version="1.0" encoding="UTF-8" standalone="no"?>
<!-- This file was created by the DynamicDraw's "SVG Export" plug-in version 1.1.2.-->

<svg
   xmlns:dc="http://purl.org/dc/elements/1.1/"
   xmlns:cc="http://creativecommons.org/ns#"
   xmlns:rdf="http://www.w3.org/1999/02/22-rdf-syntax-ns#"
   xmlns:svg="http://www.w3.org/2000/svg"
   xmlns="http://www.w3.org/2000/svg"
   xmlns:sodipodi="http://sodipodi.sourceforge.net/DTD/sodipodi-0.dtd"
   xmlns:inkscape="http://www.inkscape.org/namespaces/inkscape"
   width="4.67589mm"
   height="3.4758577mm"
   viewBox="0 0 4.6758898 3.4758576"
   version="1.1"
   id="svg10"
   sodipodi:docname="エフェクトA.svg"
   inkscape:version="0.92.4 (5da689c313, 2019-01-14)">
  <metadata
     id="metadata16">
    <rdf:RDF>
      <cc:Work
         rdf:about="">
        <dc:format>image/svg+xml</dc:format>
        <dc:type
           rdf:resource="http://purl.org/dc/dcmitype/StillImage" />
      </cc:Work>
    </rdf:RDF>
  </metadata>
  <defs
     id="defs14" />
  <sodipodi:namedview
     pagecolor="#ffffff"
     bordercolor="#666666"
     borderopacity="1"
     objecttolerance="10"
     gridtolerance="10"
     guidetolerance="10"
     inkscape:pageopacity="0"
     inkscape:pageshadow="2"
     inkscape:window-width="780"
     inkscape:window-height="480"
     id="namedview12"
     showgrid="false"
     inkscape:zoom="15.998377"
     inkscape:cx="8.8379952"
     inkscape:cy="6.5701859"
     inkscape:window-x="0"
     inkscape:window-y="0"
     inkscape:window-maximized="0"
     inkscape:current-layer="svg10" />
  <g
     style="stroke-linecap:round;stroke-linejoin:round"
     id="g8"
     transform="translate(-0.21311384,-0.214004)">
    <!-- start DynamicDraw object [1], type : FDOJ_GROUP -->
    <g
       id="g6">
      <!-- group -->
      <!-- start DynamicDraw object [1], type : FDOJ_POLY -->
      <path
         d="m 0.876504,3.626504 c 0,0 3.35,0 3.35,0 0,0 0.6,-2.15 0.6,-2.15 0,0 -0.699194,-1.2 -2.25,-1.2 -1.7,0 -2.3,1.2 -2.3,1.2 0,0 0.6,2.15 0.6,2.15"
         style="fill:#ffffff;stroke:#000000;stroke-width:0.125"
         id="path2"
         inkscape:connector-curvature="0" />
      <!-- end DynamicDraw object [1], type : FDOJ_POLY -->
      <!-- start DynamicDraw object [2], type : FDOJ_POLY -->
      <path
         d="m 0.276504,1.488504 c 0,0 0.606,-1.212 2.2725,-1.212 1.6665,0 2.2725,1.212 2.2725,1.212 0,0 -0.909,0 -0.909,0 0,0 -0.303,-0.606 -1.3635,-0.606 -1.0605,0 -1.3635,0.606 -1.3635,0.606 0,0 -0.909,0 -0.909,0"
         style="fill:#ffffff;stroke:#000000;stroke-width:0.125"
         id="path4"
         inkscape:connector-curvature="0" />
      <!-- end DynamicDraw object [2], type : FDOJ_POLY -->
    </g>
    <!-- group -->
    <!-- end DynamicDraw object [1], type : FDOJ_GROUP -->
  </g>
  <!-- stroke-linecap, etc -->
</svg>
