<?xml version="1.0" encoding="UTF-8" standalone="no"?>
<svg
   xmlns:dc="http://purl.org/dc/elements/1.1/"
   xmlns:cc="http://creativecommons.org/ns#"
   xmlns:rdf="http://www.w3.org/1999/02/22-rdf-syntax-ns#"
   xmlns:svg="http://www.w3.org/2000/svg"
   xmlns="http://www.w3.org/2000/svg"
   width="4.6700001mm"
   height="7.7000003mm"
   viewBox="0 0 4.67 7.7"
   version="1.1"
   id="svg6">
  <metadata
     id="metadata12">
    <rdf:RDF>
      <cc:Work
         rdf:about="">
        <dc:format>image/svg+xml</dc:format>
        <dc:type
           rdf:resource="http://purl.org/dc/dcmitype/StillImage" />
        <dc:title></dc:title>
      </cc:Work>
    </rdf:RDF>
  </metadata>
  <defs
     id="defs10" />
  <g
     style="stroke-linecap:round;stroke-linejoin:round"
     id="g4"
     transform="translate(-0.213889,-0.213889)">
    <!-- start DynamicDraw object [1], type : FTObjectType::POLY -->
    <path
       d="m 0.579389,0.276389 c 0,0 0,0.303 0,0.303 0,0 0.303,0 0.303,0 0,0 0,3.636 0,3.636 0,0 -0.303,0 -0.303,0 0,0 0,0.606 0,0.606 0,0 -0.303,0 -0.303,0 0,0 0,1.212 0,1.212 0,0 0.606,0 0.606,0 0,0.909 0.303,1.818 1.515,1.818 0,0 0.303,0 0.303,0 1.212,0 1.515,-0.909 1.515,-1.818 0,0 0.606,0 0.606,0 0,0 0,-1.212 0,-1.212 0,0 -0.303,0 -0.303,0 0,0 0,-0.606 0,-0.606 0,0 -0.303,0 -0.303,0 0,0 0,-3.636 0,-3.636 0,0 0.303,0 0.303,0 0,0 0,-0.303 0,-0.303 0,0 -3.939,0 -3.939,0"
       style="fill:#ffffff;stroke:#000000;stroke-width:0.125"
       id="path2" />
    <!-- end DynamicDraw object [1], type : FTObjectType::POLY -->
  </g>
  <!-- stroke-linecap, etc -->
</svg>
