<?xml version="1.0" encoding="UTF-8" standalone="no"?>
<svg
   xmlns:dc="http://purl.org/dc/elements/1.1/"
   xmlns:cc="http://creativecommons.org/ns#"
   xmlns:rdf="http://www.w3.org/1999/02/22-rdf-syntax-ns#"
   xmlns:svg="http://www.w3.org/2000/svg"
   xmlns="http://www.w3.org/2000/svg"
   width="4.6700001mm"
   height="5.579mm"
   viewBox="0 0 4.67 5.579"
   version="1.1"
   id="svg16">
  <metadata
     id="metadata22">
    <rdf:RDF>
      <cc:Work
         rdf:about="">
        <dc:format>image/svg+xml</dc:format>
        <dc:type
           rdf:resource="http://purl.org/dc/dcmitype/StillImage" />
        <dc:title></dc:title>
      </cc:Work>
    </rdf:RDF>
  </metadata>
  <defs
     id="defs20" />
  <g
     style="stroke-linecap:round;stroke-linejoin:round"
     id="g14"
     transform="translate(-0.213889,-0.213889)">
    <!-- start DynamicDraw object [1], type : FTObjectType::GROUP -->
    <g
       id="g12">
      <!-- group -->
      <!-- start DynamicDraw object [1], type : FTObjectType::POLY -->
      <path
         d="m 0.579389,0.276389 c 0,0 0,0.303 0,0.303 0,0 0.303,0 0.303,0 0,0 0,1.515 0,1.515 0,0 -0.303,0 -0.303,0 0,0 0,0.606 0,0.606 0,0 -0.303,0 -0.303,0 0,0 0,1.212 0,1.212 0,0 0.606,0 0.606,0 0,0.909 0.303,1.818 1.515,1.818 0,0 0.303,0 0.303,0 1.212,0 1.515,-0.909 1.515,-1.818 0,0 0.606,0 0.606,0 0,0 0,-1.212 0,-1.212 0,0 -0.303,0 -0.303,0 0,0 0,-0.606 0,-0.606 0,0 -0.303,0 -0.303,0 0,0 0,-1.515 0,-1.515 0,0 0.303,0 0.303,0 0,0 0,-0.303 0,-0.303 0,0 -3.939,0 -3.939,0"
         style="fill:#ffffff;stroke:#000000;stroke-width:0.125"
         id="path2" />
      <!-- end DynamicDraw object [1], type : FTObjectType::POLY -->
      <!-- start DynamicDraw object [2], type : FTObjectType::LINE -->
      <line
         x1="0.88238901"
         y1="0.57938898"
         x2="4.2153888"
         y2="0.57938898"
         style="fill:#ffffff;stroke:#000000;stroke-width:0.125"
         id="line4" />
      <!-- end DynamicDraw object [2], type : FTObjectType::LINE -->
      <!-- start DynamicDraw object [3], type : FTObjectType::LINE -->
      <line
         x1="0.88238901"
         y1="2.094389"
         x2="4.2153888"
         y2="2.094389"
         style="fill:#ffffff;stroke:#000000;stroke-width:0.125"
         id="line6" />
      <!-- end DynamicDraw object [3], type : FTObjectType::LINE -->
      <!-- start DynamicDraw object [4], type : FTObjectType::LINE -->
      <line
         x1="0.57938898"
         y1="2.7003889"
         x2="4.5183892"
         y2="2.7003889"
         style="fill:#ffffff;stroke:#000000;stroke-width:0.125"
         id="line8" />
      <!-- end DynamicDraw object [4], type : FTObjectType::LINE -->
      <!-- start DynamicDraw object [5], type : FTObjectType::LINE -->
      <line
         x1="0.88238901"
         y1="3.912389"
         x2="4.2153888"
         y2="3.912389"
         style="fill:#ffffff;stroke:#000000;stroke-width:0.125"
         id="line10" />
      <!-- end DynamicDraw object [5], type : FTObjectType::LINE -->
    </g>
    <!-- group -->
    <!-- end DynamicDraw object [1], type : FTObjectType::GROUP -->
  </g>
  <!-- stroke-linecap, etc -->
</svg>
