<?xml version="1.0" encoding="UTF-8" standalone="no"?>
<svg
   xmlns:dc="http://purl.org/dc/elements/1.1/"
   xmlns:cc="http://creativecommons.org/ns#"
   xmlns:rdf="http://www.w3.org/1999/02/22-rdf-syntax-ns#"
   xmlns:svg="http://www.w3.org/2000/svg"
   xmlns="http://www.w3.org/2000/svg"
   width="5.276mm"
   height="4.6700006mm"
   viewBox="0 0 5.276 4.6700005"
   version="1.1"
   id="svg14">
  <metadata
     id="metadata20">
    <rdf:RDF>
      <cc:Work
         rdf:about="">
        <dc:format>image/svg+xml</dc:format>
        <dc:type
           rdf:resource="http://purl.org/dc/dcmitype/StillImage" />
        <dc:title></dc:title>
      </cc:Work>
    </rdf:RDF>
  </metadata>
  <defs
     id="defs18" />
  <g
     style="stroke-linecap:round;stroke-linejoin:round"
     id="g12"
     transform="translate(-0.21388901,-0.21388892)">
    <!-- start DynamicDraw object [1], type : FTObjectType::GROUP -->
    <g
       id="g10">
      <!-- group -->
      <!-- start DynamicDraw object [1], type : FTObjectType::POLY -->
      <path
         d="m 0.579389,1.488389 c 0,0 0,1.212 0.303,2.121 0.303,0.909 0.909,1.212 0.909,1.212 0,0 2.121,0 2.121,0 0,0 0.606,-0.303 0.909,-1.212 0.303,-0.909 0.303,-2.121 0.303,-2.121 0,0 0,-0.606 0,-1.212 0,0 -4.545,0 -4.545,0 0,0.606 0,1.212 0,1.212"
         style="fill:#ffffff;stroke:#000000;stroke-width:0.125"
         id="path2" />
      <!-- end DynamicDraw object [1], type : FTObjectType::POLY -->
      <!-- start DynamicDraw object [2], type : FTObjectType::RECT -->
      <rect
         x="2.5488889"
         y="-1.996111"
         width="0.60600001"
         height="5.151"
         style="fill:#ffffff;stroke:#000000;stroke-width:0.125"
         transform="rotate(90,2.851889,0.579389)"
         id="rect4" />
      <!-- end DynamicDraw object [2], type : FTObjectType::RECT -->
      <!-- start DynamicDraw object [3], type : FTObjectType::LINE -->
      <line
         x1="1.791389"
         y1="3.0033889"
         x2="2.094389"
         y2="4.8213892"
         style="fill:#ffffff;stroke:#000000;stroke-width:0.125"
         id="line6" />
      <!-- end DynamicDraw object [3], type : FTObjectType::LINE -->
      <!-- start DynamicDraw object [4], type : FTObjectType::LINE -->
      <line
         x1="3.912389"
         y1="3.0033889"
         x2="3.6093891"
         y2="4.8213892"
         style="fill:#ffffff;stroke:#000000;stroke-width:0.125"
         id="line8" />
      <!-- end DynamicDraw object [4], type : FTObjectType::LINE -->
    </g>
    <!-- group -->
    <!-- end DynamicDraw object [1], type : FTObjectType::GROUP -->
  </g>
  <!-- stroke-linecap, etc -->
</svg>
