<?xml version="1.0" encoding="UTF-8" standalone="no"?>
<!-- This file was created by the DynamicDraw's "SVG Export" plug-in version 1.1.2.-->

<svg
   xmlns:dc="http://purl.org/dc/elements/1.1/"
   xmlns:cc="http://creativecommons.org/ns#"
   xmlns:rdf="http://www.w3.org/1999/02/22-rdf-syntax-ns#"
   xmlns:svg="http://www.w3.org/2000/svg"
   xmlns="http://www.w3.org/2000/svg"
   xmlns:sodipodi="http://sodipodi.sourceforge.net/DTD/sodipodi-0.dtd"
   xmlns:inkscape="http://www.inkscape.org/namespaces/inkscape"
   width="9.2158928mm"
   height="4.0648813mm"
   viewBox="0 0 9.2158931 4.0648812"
   version="1.1"
   id="svg38"
   sodipodi:docname="カメラK横.svg"
   inkscape:version="0.92.4 (5da689c313, 2019-01-14)">
  <metadata
     id="metadata44">
    <rdf:RDF>
      <cc:Work
         rdf:about="">
        <dc:format>image/svg+xml</dc:format>
        <dc:type
           rdf:resource="http://purl.org/dc/dcmitype/StillImage" />
        <dc:title></dc:title>
      </cc:Work>
    </rdf:RDF>
  </metadata>
  <defs
     id="defs42" />
  <sodipodi:namedview
     pagecolor="#ffffff"
     bordercolor="#666666"
     borderopacity="1"
     objecttolerance="10"
     gridtolerance="10"
     guidetolerance="10"
     inkscape:pageopacity="0"
     inkscape:pageshadow="2"
     inkscape:window-width="784"
     inkscape:window-height="480"
     id="namedview40"
     showgrid="false"
     fit-margin-top="0"
     fit-margin-left="0"
     fit-margin-right="0"
     fit-margin-bottom="0"
     inkscape:zoom="13.900638"
     inkscape:cx="17.417522"
     inkscape:cy="7.6833794"
     inkscape:window-x="0"
     inkscape:window-y="0"
     inkscape:window-maximized="0"
     inkscape:current-layer="svg38" />
  <g
     style="stroke-linecap:round;stroke-linejoin:round"
     id="g36"
     transform="translate(-0.21311384,-0.21401283)">
    <!-- start DynamicDraw object [1], type : FDOJ_GROUP -->
    <g
       id="g34">
      <!-- group -->
      <!-- start DynamicDraw object [1], type : FDOJ_RECT -->
      <rect
         x="0.88250399"
         y="2.3975041"
         width="1.818"
         height="0.60600001"
         style="fill:#ffffff;stroke:#000000;stroke-width:0.125"
         transform="rotate(90,1.791504,2.700504)"
         id="rect2" />
      <g
         transform="rotate(-90,1.791504,2.700504)"
         id="g4">
        <!-- rotation -->
      </g>
      <!-- rotation -->
      <!-- end DynamicDraw object [1], type : FDOJ_RECT -->
      <!-- start DynamicDraw object [2], type : FDOJ_POLY -->
      <path
         d="m 3.306504,3.912504 c 0,-0.303 0,-2.424 0,-2.424 0,-0.303 0,-0.303 0.303,-0.303 0,0 4.242,0 4.242,0 0.303,0 0.303,0 0.303,0.303 0,0 0,2.424 0,2.424 0,0.303 0,0.303 -0.303,0.303 0,0 -3.939,0 -4.242,0 -0.303,0 -0.303,0 -0.303,-0.303"
         style="fill:#ffffff;stroke:#000000;stroke-width:0.125"
         id="path6"
         inkscape:connector-curvature="0" />
      <!-- end DynamicDraw object [2], type : FDOJ_POLY -->
      <!-- start DynamicDraw object [3], type : FDOJ_POLY -->
      <path
         d="m 0.276504,4.215504 c 0,0 0,-3.03 0,-3.03 0,0 0.909,0 0.909,0 0.303,0 0.303,0 0.303,0.303 0,0 0,2.424 0,2.424 0,0.303 0,0.303 -0.303,0.303 0,0 -0.909,0 -0.909,0"
         style="fill:#ffffff;stroke:#000000;stroke-width:0.125"
         id="path8"
         inkscape:connector-curvature="0" />
      <!-- end DynamicDraw object [3], type : FDOJ_POLY -->
      <!-- start DynamicDraw object [4], type : FDOJ_RECT -->
      <rect
         x="1.791504"
         y="2.0945041"
         width="1.818"
         height="1.212"
         style="fill:#ffffff;stroke:#000000;stroke-width:0.125"
         transform="rotate(90,2.700504,2.700504)"
         id="rect10" />
      <g
         transform="rotate(-90,2.700504,2.700504)"
         id="g12">
        <!-- rotation -->
      </g>
      <!-- rotation -->
      <!-- end DynamicDraw object [4], type : FDOJ_RECT -->
      <!-- start DynamicDraw object [5], type : FDOJ_POLY -->
      <path
         d="m 8.154504,4.215504 c 0,0 0,-2.424 0,-2.424 0,0 0.909,0 0.909,0 0.303,0 0.303,0 0.303,0.303 0,0 0,1.818 0,1.818 0,0.303 0,0.303 -0.303,0.303 0,0 -0.909,0 -0.909,0"
         style="fill:#ffffff;stroke:#000000;stroke-width:0.125"
         id="path14"
         inkscape:connector-curvature="0" />
      <!-- end DynamicDraw object [5], type : FDOJ_POLY -->
      <!-- start DynamicDraw object [6], type : FDOJ_RECT -->
      <rect
         x="4.8215041"
         y="0.57950401"
         width="1.818"
         height="4.848"
         style="fill:#ffffff;stroke:#000000;stroke-width:0.125"
         transform="rotate(90,5.730504,3.003504)"
         id="rect16" />
      <g
         transform="rotate(-90,5.730504,3.003504)"
         id="g24">
        <!-- rotation -->
        <text
           style="font-size:2.46944404px"
           id="text22">
          <tspan
             style="font-weight:400;font-size:2.46944404px;font-family:'メイリオ'"
             id="tspan20">
            <tspan
               style="fill:#000000"
               id="tspan18" />
          </tspan>
        </text>
      </g>
      <!-- rotation -->
      <!-- end DynamicDraw object [6], type : FDOJ_RECT -->
      <!-- start DynamicDraw object [7], type : FDOJ_RECT -->
      <rect
         x="7.2455039"
         y="0.27650401"
         width="0.60600001"
         height="1.212"
         style="fill:#ffffff;stroke:#000000;stroke-width:0.125"
         transform="rotate(90,7.548504,0.882504)"
         id="rect26" />
      <g
         transform="rotate(-90,7.548504,0.882504)"
         id="g28">
        <!-- rotation -->
      </g>
      <!-- rotation -->
      <!-- end DynamicDraw object [7], type : FDOJ_RECT -->
      <!-- start DynamicDraw object [8], type : FDOJ_POLY -->
      <path
         d="m 3.791304,0.579504 c 0.4848,0 2.727,0 2.727,0 0.4848,0 0.4848,0 0.4848,0.303 0,0 0,-0.303 0,0 0,0.303 0,0.303 -0.4848,0.303 0,0 -2.727,0 -2.727,0 -0.4848,0 -0.4848,0 -0.4848,-0.303 0,-0.303 0,0 0,0 0,-0.303 0,-0.303 0.4848,-0.303"
         style="fill:#ffffff;stroke:#000000;stroke-width:0.125"
         id="path30"
         inkscape:connector-curvature="0" />
      <!-- end DynamicDraw object [8], type : FDOJ_POLY -->
      <!-- start DynamicDraw object [9], type : FDOJ_POLY -->
      <polyline
         points="8.457504,1.488504 8.457504,0.276504 8.154504,0.579504 8.154504,1.185504 8.457504,1.488504 "
         style="fill:#ffffff;stroke:#000000;stroke-width:0.125"
         id="polyline32" />
      <!-- end DynamicDraw object [9], type : FDOJ_POLY -->
    </g>
    <!-- group -->
    <!-- end DynamicDraw object [1], type : FDOJ_GROUP -->
  </g>
  <!-- stroke-linecap, etc -->
</svg>
