<?xml version="1.0" encoding="UTF-8" standalone="no"?>
<!-- This file was created by the DynamicDraw's "SVG Export" plug-in version 1.1.2.-->

<svg
   xmlns:dc="http://purl.org/dc/elements/1.1/"
   xmlns:cc="http://creativecommons.org/ns#"
   xmlns:rdf="http://www.w3.org/1999/02/22-rdf-syntax-ns#"
   xmlns:svg="http://www.w3.org/2000/svg"
   xmlns="http://www.w3.org/2000/svg"
   xmlns:sodipodi="http://sodipodi.sourceforge.net/DTD/sodipodi-0.dtd"
   xmlns:inkscape="http://www.inkscape.org/namespaces/inkscape"
   width="9.2158957mm"
   height="5.5807805mm"
   viewBox="0 0 9.215896 5.5807805"
   version="1.1"
   id="svg50"
   sodipodi:docname="カメラL横.svg"
   inkscape:version="0.92.4 (5da689c313, 2019-01-14)">
  <metadata
     id="metadata56">
    <rdf:RDF>
      <cc:Work
         rdf:about="">
        <dc:format>image/svg+xml</dc:format>
        <dc:type
           rdf:resource="http://purl.org/dc/dcmitype/StillImage" />
        <dc:title></dc:title>
      </cc:Work>
    </rdf:RDF>
  </metadata>
  <defs
     id="defs54" />
  <sodipodi:namedview
     pagecolor="#ffffff"
     bordercolor="#666666"
     borderopacity="1"
     objecttolerance="10"
     gridtolerance="10"
     guidetolerance="10"
     inkscape:pageopacity="0"
     inkscape:pageshadow="2"
     inkscape:window-width="784"
     inkscape:window-height="480"
     id="namedview52"
     showgrid="false"
     fit-margin-top="0"
     fit-margin-left="0"
     fit-margin-right="0"
     fit-margin-bottom="0"
     inkscape:zoom="10.394817"
     inkscape:cx="17.417522"
     inkscape:cy="10.546372"
     inkscape:window-x="0"
     inkscape:window-y="0"
     inkscape:window-maximized="0"
     inkscape:current-layer="svg50" />
  <g
     style="stroke-linecap:round;stroke-linejoin:round"
     id="g48"
     transform="translate(-0.21311384,-0.21311384)">
    <!-- start DynamicDraw object [1], type : FDOJ_GROUP -->
    <g
       id="g46">
      <!-- group -->
      <!-- start DynamicDraw object [1], type : FDOJ_RECT -->
      <rect
         x="4.2155042"
         y="0.88250399"
         width="0.60600001"
         height="1.515"
         style="fill:#ffffff;stroke:#000000;stroke-width:0.125"
         transform="rotate(180,4.518504,1.640004)"
         id="rect2" />
      <!-- end DynamicDraw object [1], type : FDOJ_RECT -->
      <!-- start DynamicDraw object [2], type : FDOJ_RECT -->
      <rect
         x="3.003504"
         y="3.912504"
         width="1.212"
         height="0.60600001"
         style="fill:#ffffff;stroke:#000000;stroke-width:0.125"
         transform="rotate(90,3.609504,4.215504)"
         id="rect4" />
      <g
         transform="rotate(-90,3.609504,4.215504)"
         id="g6">
        <!-- rotation -->
      </g>
      <!-- rotation -->
      <!-- end DynamicDraw object [2], type : FDOJ_RECT -->
      <!-- start DynamicDraw object [3], type : FDOJ_RECT -->
      <rect
         x="1.791504"
         y="3.609504"
         width="1.818"
         height="1.212"
         style="fill:#ffffff;stroke:#000000;stroke-width:0.125"
         transform="rotate(90,2.700504,4.215504)"
         id="rect8" />
      <g
         transform="rotate(-90,2.700504,4.215504)"
         id="g10">
        <!-- rotation -->
      </g>
      <!-- rotation -->
      <!-- end DynamicDraw object [3], type : FDOJ_RECT -->
      <!-- start DynamicDraw object [4], type : FDOJ_POLY -->
      <path
         d="m 3.912504,5.397204 c 0,-0.3333 0,-2.6664 0,-2.6664 0,-0.3333 0,-0.3333 0.265125,-0.3333 0,0 3.71175,0 3.71175,0 0.265125,0 0.265125,0 0.265125,0.3333 0,0 0,2.6664 0,2.6664 0,0.3333 0,0.3333 -0.265125,0.3333 0,0 -3.446625,0 -3.71175,0 -0.265125,0 -0.265125,0 -0.265125,-0.3333"
         style="fill:#ffffff;stroke:#000000;stroke-width:0.125"
         id="path12"
         inkscape:connector-curvature="0" />
      <!-- end DynamicDraw object [4], type : FDOJ_POLY -->
      <!-- start DynamicDraw object [5], type : FDOJ_POLY -->
      <path
         d="m 0.276504,5.730504 c 0,0 0,-3.03 0,-3.03 0,0 0.909,0 0.909,0 0.303,0 0.303,0 0.303,0.303 0,0 0,2.424 0,2.424 0,0.303 0,0.303 -0.303,0.303 0,0 -0.909,0 -0.909,0"
         style="fill:#ffffff;stroke:#000000;stroke-width:0.125"
         id="path14"
         inkscape:connector-curvature="0" />
      <!-- end DynamicDraw object [5], type : FDOJ_POLY -->
      <!-- start DynamicDraw object [6], type : FDOJ_RECT -->
      <rect
         x="0.57950401"
         y="3.912504"
         width="2.424"
         height="0.60600001"
         style="fill:#ffffff;stroke:#000000;stroke-width:0.125"
         transform="rotate(90,1.791504,4.215504)"
         id="rect16" />
      <g
         transform="rotate(-90,1.791504,4.215504)"
         id="g18">
        <!-- rotation -->
      </g>
      <!-- rotation -->
      <!-- end DynamicDraw object [6], type : FDOJ_RECT -->
      <!-- start DynamicDraw object [7], type : FDOJ_POLY -->
      <path
         d="m 8.154504,5.730504 c 0,0 0,-2.121 0,-2.121 0,0 0.909,0 0.909,0 0.303,0 0.303,0 0.303,0.265125 0,0 0,1.59075 0,1.59075 0,0.265125 0,0.265125 -0.303,0.265125 0,0 -0.909,0 -0.909,0"
         style="fill:#ffffff;stroke:#000000;stroke-width:0.125"
         id="path20"
         inkscape:connector-curvature="0" />
      <!-- end DynamicDraw object [7], type : FDOJ_POLY -->
      <!-- start DynamicDraw object [8], type : FDOJ_RECT -->
      <rect
         x="5.1245041"
         y="2.3975041"
         width="1.818"
         height="4.2420001"
         style="fill:#ffffff;stroke:#000000;stroke-width:0.125"
         transform="rotate(90,6.033504,4.518504)"
         id="rect22" />
      <g
         transform="rotate(-90,6.033504,4.518504)"
         id="g30">
        <!-- rotation -->
        <text
           style="font-size:2.46944404px"
           id="text28">
          <tspan
             style="font-weight:400;font-size:2.46944404px;font-family:'メイリオ'"
             id="tspan26">
            <tspan
               style="fill:#000000"
               id="tspan24" />
          </tspan>
        </text>
      </g>
      <!-- rotation -->
      <!-- end DynamicDraw object [8], type : FDOJ_RECT -->
      <!-- start DynamicDraw object [9], type : FDOJ_POLY -->
      <polyline
         points="8.457504,3.306504 8.457504,2.094504 8.154504,2.397504 8.154504,3.003504 8.457504,3.306504 "
         style="fill:#ffffff;stroke:#000000;stroke-width:0.125"
         id="polyline32" />
      <!-- end DynamicDraw object [9], type : FDOJ_POLY -->
      <!-- start DynamicDraw object [10], type : FDOJ_RECT -->
      <rect
         x="4.8215041"
         y="3.609504"
         width="1.515"
         height="1.818"
         style="fill:#ffffff;stroke:#000000;stroke-width:0.125"
         transform="rotate(180,5.579004,4.518504)"
         id="rect34" />
      <!-- end DynamicDraw object [10], type : FDOJ_RECT -->
      <!-- start DynamicDraw object [11], type : FDOJ_RECT -->
      <rect
         x="3.912504"
         y="1.185504"
         width="1.212"
         height="1.212"
         style="fill:#ffffff;stroke:#000000;stroke-width:0.125"
         transform="rotate(-90,4.518504,1.791504)"
         id="rect36" />
      <g
         transform="rotate(90,4.518504,1.791504)"
         id="g38">
        <!-- rotation -->
      </g>
      <!-- rotation -->
      <!-- end DynamicDraw object [11], type : FDOJ_RECT -->
      <!-- start DynamicDraw object [12], type : FDOJ_POLY -->
      <polyline
         points="7.245504,2.397504 7.851504,2.397504 7.548504,1.185504 4.821504,1.185504 4.821504,1.791504 6.942504,1.791504 7.245504,2.397504 "
         style="fill:#ffffff;stroke:#000000;stroke-width:0.125"
         id="polyline40" />
      <!-- end DynamicDraw object [12], type : FDOJ_POLY -->
      <!-- start DynamicDraw object [13], type : FDOJ_POLY -->
      <path
         d="m 5.427504,0.276504 c 0,0 0,2.121 0,2.121 0,0 0,0 -0.303,0 0,0 0,0 0,0 0,0 -0.303,0 -0.303,-0.192818 0,0 0,-1.735364 0,-1.735364 0,-0.192818 0.303,-0.192818 0.303,-0.192818 0,0 0.303,0 0.303,0"
         style="fill:#ffffff;stroke:#000000;stroke-width:0.125"
         id="path42"
         inkscape:connector-curvature="0" />
      <!-- end DynamicDraw object [13], type : FDOJ_POLY -->
      <!-- start DynamicDraw object [14], type : FDOJ_RECT -->
      <rect
         x="4.8215041"
         y="2.7005041"
         width="1.515"
         height="0.90899998"
         style="fill:#ffffff;stroke:#000000;stroke-width:0.125"
         transform="rotate(180,5.579004,3.155004)"
         id="rect44" />
      <!-- end DynamicDraw object [14], type : FDOJ_RECT -->
    </g>
    <!-- group -->
    <!-- end DynamicDraw object [1], type : FDOJ_GROUP -->
  </g>
  <!-- stroke-linecap, etc -->
</svg>
