<?xml version="1.0" encoding="UTF-8" standalone="no"?>
<!-- This file was created by the DynamicDraw's "SVG Export" plug-in version 1.1.2.-->

<svg
   xmlns:dc="http://purl.org/dc/elements/1.1/"
   xmlns:cc="http://creativecommons.org/ns#"
   xmlns:rdf="http://www.w3.org/1999/02/22-rdf-syntax-ns#"
   xmlns:svg="http://www.w3.org/2000/svg"
   xmlns="http://www.w3.org/2000/svg"
   xmlns:sodipodi="http://sodipodi.sourceforge.net/DTD/sodipodi-0.dtd"
   xmlns:inkscape="http://www.inkscape.org/namespaces/inkscape"
   width="5.882009mm"
   height="2.5507803mm"
   viewBox="0 0 5.8820091 2.5507803"
   version="1.1"
   id="svg14"
   sodipodi:docname="カメラH横.svg"
   inkscape:version="0.92.4 (5da689c313, 2019-01-14)">
  <metadata
     id="metadata20">
    <rdf:RDF>
      <cc:Work
         rdf:about="">
        <dc:format>image/svg+xml</dc:format>
        <dc:type
           rdf:resource="http://purl.org/dc/dcmitype/StillImage" />
        <dc:title></dc:title>
      </cc:Work>
    </rdf:RDF>
  </metadata>
  <defs
     id="defs18" />
  <sodipodi:namedview
     pagecolor="#ffffff"
     bordercolor="#666666"
     borderopacity="1"
     objecttolerance="10"
     gridtolerance="10"
     guidetolerance="10"
     inkscape:pageopacity="0"
     inkscape:pageshadow="2"
     inkscape:window-width="784"
     inkscape:window-height="480"
     id="namedview16"
     showgrid="false"
     fit-margin-top="0"
     fit-margin-left="0"
     fit-margin-right="0"
     fit-margin-bottom="0"
     inkscape:zoom="20.974695"
     inkscape:cx="11.115599"
     inkscape:cy="4.8203874"
     inkscape:window-x="0"
     inkscape:window-y="0"
     inkscape:window-maximized="0"
     inkscape:current-layer="svg14" />
  <g
     style="stroke-linecap:round;stroke-linejoin:round"
     id="g12"
     transform="translate(-0.21399775,-0.21311385)">
    <!-- start DynamicDraw object [1], type : FDOJ_GROUP -->
    <g
       id="g10">
      <!-- group -->
      <!-- start DynamicDraw object [1], type : FDOJ_POLY -->
      <path
         d="m 4.821504,2.549004 c 0,0 0,-1.818 0,-1.818 0,0 0.909,0 0.909,0 0.303,0 0.303,0 0.303,0.303 0,0 0,1.212 0,1.212 0,0.303 0,0.303 -0.303,0.303 0,0 -0.909,0 -0.909,0"
         style="fill:#ffffff;stroke:#000000;stroke-width:0.125"
         id="path2"
         inkscape:connector-curvature="0" />
      <!-- end DynamicDraw object [1], type : FDOJ_POLY -->
      <!-- start DynamicDraw object [2], type : FDOJ_POLY -->
      <path
         d="m 0.276504,2.397504 c 0,-0.303 0,-1.818 0,-1.818 0,-0.303 0,-0.303 0.303,-0.303 0,0 3.939,0 3.939,0 0.303,0 0.303,0 0.303,0.303 0,0 0,1.818 0,1.818 0,0.303 0,0.303 -0.303,0.303 0,0 -3.636,0 -3.939,0 -0.303,0 -0.303,0 -0.303,-0.303"
         style="fill:#ffffff;stroke:#000000;stroke-width:0.125"
         id="path4"
         inkscape:connector-curvature="0" />
      <!-- end DynamicDraw object [2], type : FDOJ_POLY -->
      <!-- start DynamicDraw object [3], type : FDOJ_LINE -->
      <line
         x1="0.88250399"
         y1="2.7005041"
         x2="0.88250399"
         y2="0.27650401"
         style="fill:#ffffff;stroke:#000000;stroke-width:0.125"
         id="line6" />
      <!-- end DynamicDraw object [3], type : FDOJ_LINE -->
      <!-- start DynamicDraw object [4], type : FDOJ_POLY -->
      <path
         d="m 1.791504,0.428004 c 0,0 0,2.121 0,2.121 0,0 0,0 -0.303,0 0,0 0,0 0,0 0,0 -0.303,0 -0.303,-0.192818 0,0 0,-1.735364 0,-1.735364 0,-0.192818 0.303,-0.192818 0.303,-0.192818 0,0 0.303,0 0.303,0"
         style="fill:#ffffff;stroke:#000000;stroke-width:0.125"
         id="path8"
         inkscape:connector-curvature="0" />
      <!-- end DynamicDraw object [4], type : FDOJ_POLY -->
    </g>
    <!-- group -->
    <!-- end DynamicDraw object [1], type : FDOJ_GROUP -->
  </g>
  <!-- stroke-linecap, etc -->
</svg>
