<?xml version="1.0" encoding="UTF-8" standalone="no"?>
<!-- This file was created by the DynamicDraw's "SVG Export" plug-in version 1.1.2.-->

<svg
   xmlns:dc="http://purl.org/dc/elements/1.1/"
   xmlns:cc="http://creativecommons.org/ns#"
   xmlns:rdf="http://www.w3.org/1999/02/22-rdf-syntax-ns#"
   xmlns:svg="http://www.w3.org/2000/svg"
   xmlns="http://www.w3.org/2000/svg"
   xmlns:sodipodi="http://sodipodi.sourceforge.net/DTD/sodipodi-0.dtd"
   xmlns:inkscape="http://www.inkscape.org/namespaces/inkscape"
   width="6.1850009mm"
   height="9.2158957mm"
   viewBox="0 0 6.185001 9.215896"
   version="1.1"
   id="svg42"
   sodipodi:docname="カメラL上.svg"
   inkscape:version="0.92.4 (5da689c313, 2019-01-14)">
  <metadata
     id="metadata48">
    <rdf:RDF>
      <cc:Work
         rdf:about="">
        <dc:format>image/svg+xml</dc:format>
        <dc:type
           rdf:resource="http://purl.org/dc/dcmitype/StillImage" />
        <dc:title></dc:title>
      </cc:Work>
    </rdf:RDF>
  </metadata>
  <defs
     id="defs46" />
  <sodipodi:namedview
     pagecolor="#ffffff"
     bordercolor="#666666"
     borderopacity="1"
     objecttolerance="10"
     gridtolerance="10"
     guidetolerance="10"
     inkscape:pageopacity="0"
     inkscape:pageshadow="2"
     inkscape:window-width="784"
     inkscape:window-height="480"
     id="namedview44"
     showgrid="false"
     fit-margin-top="0"
     fit-margin-left="0"
     fit-margin-right="0"
     fit-margin-bottom="0"
     inkscape:zoom="6.4753364"
     inkscape:cx="11.688178"
     inkscape:cy="17.414208"
     inkscape:window-x="0"
     inkscape:window-y="0"
     inkscape:window-maximized="0"
     inkscape:current-layer="svg42" />
  <g
     style="stroke-linecap:round;stroke-linejoin:round"
     id="g40"
     transform="translate(-0.21400287,-0.21311384)">
    <!-- start DynamicDraw object [1], type : FDOJ_GROUP -->
    <g
       id="g38">
      <!-- group -->
      <!-- start DynamicDraw object [1], type : FDOJ_RECT -->
      <rect
         x="3.458004"
         y="3.306504"
         width="1.212"
         height="0.60600001"
         style="fill:#ffffff;stroke:#000000;stroke-width:0.125"
         transform="rotate(180,4.064004,3.609504)"
         id="rect2" />
      <!-- end DynamicDraw object [1], type : FDOJ_RECT -->
      <!-- start DynamicDraw object [2], type : FDOJ_RECT -->
      <rect
         x="3.155004"
         y="2.0945041"
         width="1.818"
         height="1.212"
         style="fill:#ffffff;stroke:#000000;stroke-width:0.125"
         transform="rotate(180,4.064004,2.700504)"
         id="rect4" />
      <!-- end DynamicDraw object [2], type : FDOJ_RECT -->
      <!-- start DynamicDraw object [3], type : FDOJ_POLY -->
      <path
         d="m 2.852004,3.912504 c 0.303,0 2.424,0 2.424,0 0.303,0 0.303,0 0.303,0.265125 0,0 0,3.71175 0,3.71175 0,0.265125 0,0.265125 -0.303,0.265125 0,0 -2.424,0 -2.424,0 -0.303,0 -0.303,0 -0.303,-0.265125 0,0 0,-3.446625 0,-3.71175 0,-0.265125 0,-0.265125 0.303,-0.265125"
         style="fill:#ffffff;stroke:#000000;stroke-width:0.125"
         id="path6"
         inkscape:connector-curvature="0" />
      <!-- end DynamicDraw object [3], type : FDOJ_POLY -->
      <!-- start DynamicDraw object [4], type : FDOJ_POLY -->
      <path
         d="m 2.549004,0.276504 c 0,0 3.03,0 3.03,0 0,0 0,0.909 0,0.909 0,0.303 0,0.303 -0.303,0.303 0,0 -2.424,0 -2.424,0 -0.303,0 -0.303,0 -0.303,-0.303 0,0 0,-0.909 0,-0.909"
         style="fill:#ffffff;stroke:#000000;stroke-width:0.125"
         id="path8"
         inkscape:connector-curvature="0" />
      <!-- end DynamicDraw object [4], type : FDOJ_POLY -->
      <!-- start DynamicDraw object [5], type : FDOJ_RECT -->
      <rect
         x="2.8520041"
         y="1.4885041"
         width="2.424"
         height="0.60600001"
         style="fill:#ffffff;stroke:#000000;stroke-width:0.125"
         transform="rotate(180,4.064004,1.791504)"
         id="rect10" />
      <!-- end DynamicDraw object [5], type : FDOJ_RECT -->
      <!-- start DynamicDraw object [6], type : FDOJ_POLY -->
      <path
         d="m 3.003504,8.154504 c 0,0 2.121,0 2.121,0 0,0 0,0.909 0,0.909 0,0.303 0,0.303 -0.265125,0.303 0,0 -1.59075,0 -1.59075,0 -0.265125,0 -0.265125,0 -0.265125,-0.303 0,0 0,-0.909 0,-0.909"
         style="fill:#ffffff;stroke:#000000;stroke-width:0.125"
         id="path12"
         inkscape:connector-curvature="0" />
      <!-- end DynamicDraw object [6], type : FDOJ_POLY -->
      <!-- start DynamicDraw object [7], type : FDOJ_RECT -->
      <rect
         x="2.8520041"
         y="3.912504"
         width="2.424"
         height="4.2420001"
         style="fill:#ffffff;stroke:#000000;stroke-width:0.125"
         transform="rotate(180,4.064004,6.033504)"
         id="rect14" />
      <text
         style="font-size:2.46944404px"
         id="text20">
        <tspan
           style="font-weight:400;font-size:2.46944404px;font-family:'メイリオ'"
           id="tspan18">
          <tspan
             style="fill:#000000"
             id="tspan16" />
        </tspan>
      </text>
      <!-- end DynamicDraw object [7], type : FDOJ_RECT -->
      <!-- start DynamicDraw object [8], type : FDOJ_RECT -->
      <rect
         x="3.306504"
         y="3.912504"
         width="1.515"
         height="1.212"
         style="fill:#ffffff;stroke:#000000;stroke-width:0.125"
         transform="rotate(180,4.064004,4.518504)"
         id="rect22" />
      <!-- end DynamicDraw object [8], type : FDOJ_RECT -->
      <!-- start DynamicDraw object [9], type : FDOJ_POLY -->
      <polyline
         points="3.458004,8.457504 4.670004,8.457504 4.367004,8.154504 3.761004,8.154504 3.458004,8.457504 "
         style="fill:#ffffff;stroke:#000000;stroke-width:0.125"
         id="polyline24" />
      <!-- end DynamicDraw object [9], type : FDOJ_POLY -->
      <!-- start DynamicDraw object [10], type : FDOJ_RECT -->
      <rect
         x="5.2760038"
         y="3.761004"
         width="0.60600001"
         height="1.515"
         style="fill:#ffffff;stroke:#000000;stroke-width:0.125"
         transform="rotate(-90,5.579004,4.518504)"
         id="rect26" />
      <g
         transform="rotate(90,5.579004,4.518504)"
         id="g28">
        <!-- rotation -->
      </g>
      <!-- rotation -->
      <!-- end DynamicDraw object [10], type : FDOJ_RECT -->
      <!-- start DynamicDraw object [11], type : FDOJ_POLY -->
      <path
         d="m 3.306504,5.124504 c 0,0 -3.03,0 -3.03,0 0,0 0,0 0,-0.303 0,0 0,0 0,0 0,0 0,-0.303 0.303,-0.303 0,0 2.727,0 2.727,0 0,0 0,0 0,0 0,0 0,0.606 0,0.606"
         style="fill:#ffffff;stroke:#000000;stroke-width:0.125"
         id="path30"
         inkscape:connector-curvature="0" />
      <!-- end DynamicDraw object [11], type : FDOJ_POLY -->
      <!-- start DynamicDraw object [12], type : FDOJ_RECT -->
      <rect
         x="3.761004"
         y="5.1245041"
         width="0.60600001"
         height="2.424"
         style="fill:#ffffff;stroke:#000000;stroke-width:0.125"
         id="rect32" />
      <g
         transform="rotate(180,4.064004,6.336504)"
         id="g34">
        <!-- rotation -->
      </g>
      <!-- rotation -->
      <!-- end DynamicDraw object [12], type : FDOJ_RECT -->
      <!-- start DynamicDraw object [13], type : FDOJ_RECT -->
      <rect
         x="3.761004"
         y="7.5485039"
         width="0.60600001"
         height="0.60600001"
         style="fill:#ffffff;stroke:#000000;stroke-width:0.125"
         transform="rotate(180,4.064004,7.851504)"
         id="rect36" />
      <!-- end DynamicDraw object [13], type : FDOJ_RECT -->
    </g>
    <!-- group -->
    <!-- end DynamicDraw object [1], type : FDOJ_GROUP -->
  </g>
  <!-- stroke-linecap, etc -->
</svg>
