<?xml version="1.0" encoding="UTF-8" standalone="no"?>
<!-- This file was created by the DynamicDraw's "SVG Export" plug-in version 1.1.2.-->

<svg
   xmlns:dc="http://purl.org/dc/elements/1.1/"
   xmlns:cc="http://creativecommons.org/ns#"
   xmlns:rdf="http://www.w3.org/1999/02/22-rdf-syntax-ns#"
   xmlns:svg="http://www.w3.org/2000/svg"
   xmlns="http://www.w3.org/2000/svg"
   xmlns:sodipodi="http://sodipodi.sourceforge.net/DTD/sodipodi-0.dtd"
   xmlns:inkscape="http://www.inkscape.org/namespaces/inkscape"
   width="2.5498929mm"
   height="5.5798931mm"
   viewBox="0 0 2.5498929 5.5798931"
   version="1.1"
   id="svg12"
   sodipodi:docname="カメラB.svg"
   inkscape:version="0.92.4 (5da689c313, 2019-01-14)">
  <metadata
     id="metadata18">
    <rdf:RDF>
      <cc:Work
         rdf:about="">
        <dc:format>image/svg+xml</dc:format>
        <dc:type
           rdf:resource="http://purl.org/dc/dcmitype/StillImage" />
        <dc:title></dc:title>
      </cc:Work>
    </rdf:RDF>
  </metadata>
  <defs
     id="defs16" />
  <sodipodi:namedview
     pagecolor="#ffffff"
     bordercolor="#666666"
     borderopacity="1"
     objecttolerance="10"
     gridtolerance="10"
     guidetolerance="10"
     inkscape:pageopacity="0"
     inkscape:pageshadow="2"
     inkscape:window-width="784"
     inkscape:window-height="480"
     id="namedview14"
     showgrid="false"
     fit-margin-top="0"
     fit-margin-left="0"
     fit-margin-right="0"
     fit-margin-bottom="0"
     inkscape:zoom="10.394817"
     inkscape:cx="4.8203571"
     inkscape:cy="10.543018"
     inkscape:window-x="0"
     inkscape:window-y="0"
     inkscape:window-maximized="0"
     inkscape:current-layer="svg12" />
  <g
     style="stroke-linecap:round;stroke-linejoin:round"
     id="g10"
     transform="translate(-0.21311384,-0.21311384)">
    <!-- start DynamicDraw object [1], type : FDOJ_GROUP -->
    <g
       id="g8">
      <!-- group -->
      <!-- start DynamicDraw object [1], type : FDOJ_POLY -->
      <path
         d="m 0.579504,1.791504 c 0.303,0 1.818,0 1.818,0 0.303,0 0.303,0 0.303,0.303 0,0 0,3.333 0,3.333 0,0.303 0,0.303 -0.303,0.303 0,0 -1.818,0 -1.818,0 -0.303,0 -0.303,0 -0.303,-0.303 0,0 0,-3.03 0,-3.333 0,-0.303 0,-0.303 0.303,-0.303"
         style="fill:#ffffff;stroke:#000000;stroke-width:0.125"
         id="path2"
         inkscape:connector-curvature="0" />
      <!-- end DynamicDraw object [1], type : FDOJ_POLY -->
      <!-- start DynamicDraw object [2], type : FDOJ_POLY -->
      <polyline
         points="0.579504,1.185504 2.397504,1.185504 2.094504,1.791504 0.882504,1.791504 0.579504,1.185504 "
         style="fill:#ffffff;stroke:#000000;stroke-width:0.125"
         id="polyline4" />
      <!-- end DynamicDraw object [2], type : FDOJ_POLY -->
      <!-- start DynamicDraw object [3], type : FDOJ_POLY -->
      <path
         d="m 0.276504,0.276504 c 0,0 2.424,0 2.424,0 0,0 0,0.606 0,0.606 0,0.303 0,0.303 -0.303,0.303 0,0 -1.818,0 -1.818,0 -0.303,0 -0.303,0 -0.303,-0.303 0,0 0,-0.606 0,-0.606"
         style="fill:#ffffff;stroke:#000000;stroke-width:0.125"
         id="path6"
         inkscape:connector-curvature="0" />
      <!-- end DynamicDraw object [3], type : FDOJ_POLY -->
    </g>
    <!-- group -->
    <!-- end DynamicDraw object [1], type : FDOJ_GROUP -->
  </g>
  <!-- stroke-linecap, etc -->
</svg>
