<?xml version="1.0" encoding="UTF-8" standalone="no"?>
<!-- This file was created by the DynamicDraw's "SVG Export" plug-in version 1.1.2.-->

<svg
   xmlns:dc="http://purl.org/dc/elements/1.1/"
   xmlns:cc="http://creativecommons.org/ns#"
   xmlns:rdf="http://www.w3.org/1999/02/22-rdf-syntax-ns#"
   xmlns:svg="http://www.w3.org/2000/svg"
   xmlns="http://www.w3.org/2000/svg"
   xmlns:sodipodi="http://sodipodi.sourceforge.net/DTD/sodipodi-0.dtd"
   xmlns:inkscape="http://www.inkscape.org/namespaces/inkscape"
   width="3.4580193mm"
   height="3.0045896mm"
   viewBox="0 0 3.4580193 3.0045896"
   version="1.1"
   id="svg18"
   sodipodi:docname="カメラT横.svg"
   inkscape:version="0.92.4 (5da689c313, 2019-01-14)">
  <metadata
     id="metadata24">
    <rdf:RDF>
      <cc:Work
         rdf:about="">
        <dc:format>image/svg+xml</dc:format>
        <dc:type
           rdf:resource="http://purl.org/dc/dcmitype/StillImage" />
        <dc:title></dc:title>
      </cc:Work>
    </rdf:RDF>
  </metadata>
  <defs
     id="defs22" />
  <sodipodi:namedview
     pagecolor="#ffffff"
     bordercolor="#666666"
     borderopacity="1"
     objecttolerance="10"
     gridtolerance="10"
     guidetolerance="10"
     inkscape:pageopacity="0"
     inkscape:pageshadow="2"
     inkscape:window-width="784"
     inkscape:window-height="480"
     id="namedview20"
     showgrid="false"
     fit-margin-top="0"
     fit-margin-left="0"
     fit-margin-right="0"
     fit-margin-bottom="0"
     inkscape:zoom="18.193959"
     inkscape:cx="6.5347879"
     inkscape:cy="5.6790935"
     inkscape:window-x="0"
     inkscape:window-y="0"
     inkscape:window-maximized="0"
     inkscape:current-layer="svg18" />
  <g
     style="stroke-linecap:round;stroke-linejoin:round"
     id="g16"
     transform="translate(-0.214004,-0.21400399)">
    <!-- start DynamicDraw object [1], type : FDOJ_GROUP -->
    <g
       id="g14">
      <!-- group -->
      <!-- start DynamicDraw object [1], type : FDOJ_POLY -->
      <path
         d="m 3.609504,0.777619 c 0,0.198116 0,2.179269 0,2.179269 0,0.198116 0,0.198116 -0.303,0.198116 0,0 -1.212,0 -1.212,0 -0.303,0 -0.303,0 -0.303,-0.198116 0,0 0,-2.179269 0,-2.179269 0,-0.198115 0,-0.198115 0.303,-0.198115 0,0 0.909,0 1.212,0 0.303,0 0.303,0 0.303,0.198115"
         style="fill:#ffffff;stroke:#000000;stroke-width:0.125"
         id="path2"
         inkscape:connector-curvature="0" />
      <!-- end DynamicDraw object [1], type : FDOJ_POLY -->
      <!-- start DynamicDraw object [2], type : FDOJ_POLY -->
      <path
         d="m 3.609504,0.777619 c 0,0.198116 0,2.179269 0,2.179269 0,0.198116 0,0.198116 -0.2525,0.198116 0,0 -1.01,0 -1.01,0 -0.2525,0 -0.2525,0 -0.2525,-0.198116 0,0 0,-2.179269 0,-2.179269 0,-0.198115 0,-0.198115 0.2525,-0.198115 0,0 0.7575,0 1.01,0 0.2525,0 0.2525,0 0.2525,0.198115"
         style="fill:#ffffff;stroke:#000000;stroke-width:0.125"
         id="path4"
         inkscape:connector-curvature="0" />
      <!-- end DynamicDraw object [2], type : FDOJ_POLY -->
      <!-- start DynamicDraw object [3], type : FDOJ_RECT -->
      <rect
         x="2.7005041"
         y="0.27650401"
         width="0.90899998"
         height="0.303"
         style="fill:#ffffff;stroke:#000000;stroke-width:0.125"
         transform="rotate(180,3.155004,0.428004)"
         id="rect6" />
      <!-- end DynamicDraw object [3], type : FDOJ_RECT -->
      <!-- start DynamicDraw object [4], type : FDOJ_GROUP -->
      <g
         id="g12">
        <!-- group -->
        <!-- start DynamicDraw object [4], type : FDOJ_POLY -->
        <polyline
           points="2.094504,0.882504 2.094504,3.003504 0.276504,3.003504 0.276504,0.882504 2.094504,0.882504 "
           style="fill:#ffffff;stroke:#000000;stroke-width:0.125"
           id="polyline8" />
        <!-- end DynamicDraw object [4], type : FDOJ_POLY -->
        <!-- start DynamicDraw object [5], type : FDOJ_POLY -->
        <polyline
           points="1.488504,0.882504 1.488504,3.003504 0.882504,3.003504 0.882504,0.882504 1.488504,0.882504 "
           style="fill:#ffffff;stroke:#000000;stroke-width:0.125"
           id="polyline10" />
        <!-- end DynamicDraw object [5], type : FDOJ_POLY -->
      </g>
      <!-- group -->
      <!-- end DynamicDraw object [4], type : FDOJ_GROUP -->
    </g>
    <!-- group -->
    <!-- end DynamicDraw object [1], type : FDOJ_GROUP -->
  </g>
  <!-- stroke-linecap, etc -->
</svg>
