<?xml version="1.0" encoding="UTF-8" standalone="no"?>
<!-- This file was created by the DynamicDraw's "SVG Export" plug-in version 1.1.2.-->

<svg
   xmlns:dc="http://purl.org/dc/elements/1.1/"
   xmlns:cc="http://creativecommons.org/ns#"
   xmlns:rdf="http://www.w3.org/1999/02/22-rdf-syntax-ns#"
   xmlns:svg="http://www.w3.org/2000/svg"
   xmlns="http://www.w3.org/2000/svg"
   xmlns:sodipodi="http://sodipodi.sourceforge.net/DTD/sodipodi-0.dtd"
   xmlns:inkscape="http://www.inkscape.org/namespaces/inkscape"
   width="5.5790038mm"
   height="6.791893mm"
   viewBox="0 0 5.5790038 6.7918931"
   version="1.1"
   id="svg18"
   sodipodi:docname="カメラG上.svg"
   inkscape:version="0.92.4 (5da689c313, 2019-01-14)">
  <metadata
     id="metadata24">
    <rdf:RDF>
      <cc:Work
         rdf:about="">
        <dc:format>image/svg+xml</dc:format>
        <dc:type
           rdf:resource="http://purl.org/dc/dcmitype/StillImage" />
        <dc:title></dc:title>
      </cc:Work>
    </rdf:RDF>
  </metadata>
  <defs
     id="defs22" />
  <sodipodi:namedview
     pagecolor="#ffffff"
     bordercolor="#666666"
     borderopacity="1"
     objecttolerance="10"
     gridtolerance="10"
     guidetolerance="10"
     inkscape:pageopacity="0"
     inkscape:pageshadow="2"
     inkscape:window-width="784"
     inkscape:window-height="480"
     id="namedview20"
     showgrid="false"
     fit-margin-top="0"
     fit-margin-left="0"
     fit-margin-right="0"
     fit-margin-bottom="0"
     inkscape:zoom="8.6496285"
     inkscape:cx="10.542981"
     inkscape:cy="12.833412"
     inkscape:window-x="0"
     inkscape:window-y="0"
     inkscape:window-maximized="0"
     inkscape:current-layer="svg18" />
  <g
     style="stroke-linecap:round;stroke-linejoin:round"
     id="g16"
     transform="translate(-0.21400287,-0.21311384)">
    <!-- start DynamicDraw object [1], type : FDOJ_GROUP -->
    <g
       id="g14">
      <!-- group -->
      <!-- start DynamicDraw object [1], type : FDOJ_POLY -->
      <path
         d="m 3.609504,1.791504 c 0.303,0 1.818,0 1.818,0 0.303,0 0.303,0 0.303,0.303 0,0 0,3.333 0,3.333 0,0.303 0,0.303 -0.303,0.303 0,0 -1.818,0 -1.818,0 -0.303,0 -0.303,0 -0.303,-0.303 0,0 0,-3.03 0,-3.333 0,-0.303 0,-0.303 0.303,-0.303"
         style="fill:#ffffff;stroke:#000000;stroke-width:0.125"
         id="path2"
         inkscape:connector-curvature="0" />
      <!-- end DynamicDraw object [1], type : FDOJ_POLY -->
      <!-- start DynamicDraw object [2], type : FDOJ_POLY -->
      <polyline
         points="3.609504,1.185504 5.427504,1.185504 5.124504,1.791504 3.912504,1.791504 3.609504,1.185504 "
         style="fill:#ffffff;stroke:#000000;stroke-width:0.125"
         id="polyline4" />
      <!-- end DynamicDraw object [2], type : FDOJ_POLY -->
      <!-- start DynamicDraw object [3], type : FDOJ_POLY -->
      <path
         d="m 3.306504,0.276504 c 0,0 2.424,0 2.424,0 0,0 0,0.606 0,0.606 0,0.303 0,0.303 -0.303,0.303 0,0 -1.818,0 -1.818,0 -0.303,0 -0.303,0 -0.303,-0.303 0,0 0,-0.606 0,-0.606"
         style="fill:#ffffff;stroke:#000000;stroke-width:0.125"
         id="path6"
         inkscape:connector-curvature="0" />
      <!-- end DynamicDraw object [3], type : FDOJ_POLY -->
      <!-- start DynamicDraw object [4], type : FDOJ_POLY -->
      <path
         d="m 3.306504,5.730504 c 0,0 2.424,0 2.424,0 0,0 0,0.909 0,0.909 0,0.303 0,0.303 -0.303,0.303 0,0 -1.818,0 -1.818,0 -0.303,0 -0.303,0 -0.303,-0.303 0,0 0,-0.909 0,-0.909"
         style="fill:#ffffff;stroke:#000000;stroke-width:0.125"
         id="path8"
         inkscape:connector-curvature="0" />
      <!-- end DynamicDraw object [4], type : FDOJ_POLY -->
      <!-- start DynamicDraw object [5], type : FDOJ_POLY -->
      <path
         d="m 3.306504,2.700504 c 0,0 -3.03,0 -3.03,0 0,0 0,0 0,-0.303 0,0 0,0 0,0 0,0 0,-0.303 0.303,-0.303 0,0 2.727,0 2.727,0 0,0 0,0 0,0 0,0 0,0.606 0,0.606"
         style="fill:#ffffff;stroke:#000000;stroke-width:0.125"
         id="path10"
         inkscape:connector-curvature="0" />
      <!-- end DynamicDraw object [5], type : FDOJ_POLY -->
      <!-- start DynamicDraw object [6], type : FDOJ_RECT -->
      <rect
         x="3.912504"
         y="5.730504"
         width="1.212"
         height="0.60600001"
         style="fill:#ffffff;stroke:#000000;stroke-width:0.125"
         transform="rotate(180,4.518504,6.033504)"
         id="rect12" />
      <!-- end DynamicDraw object [6], type : FDOJ_RECT -->
    </g>
    <!-- group -->
    <!-- end DynamicDraw object [1], type : FDOJ_GROUP -->
  </g>
  <!-- stroke-linecap, etc -->
</svg>
