<?xml version="1.0" encoding="UTF-8" standalone="no"?>
<!-- This file was created by the DynamicDraw's "SVG Export" plug-in version 1.1.2.-->

<svg
   xmlns:dc="http://purl.org/dc/elements/1.1/"
   xmlns:cc="http://creativecommons.org/ns#"
   xmlns:rdf="http://www.w3.org/1999/02/22-rdf-syntax-ns#"
   xmlns:svg="http://www.w3.org/2000/svg"
   xmlns="http://www.w3.org/2000/svg"
   xmlns:sodipodi="http://sodipodi.sourceforge.net/DTD/sodipodi-0.dtd"
   xmlns:inkscape="http://www.inkscape.org/namespaces/inkscape"
   width="7.3969998mm"
   height="6.7918963mm"
   viewBox="0 0 7.3969997 6.7918966"
   version="1.1"
   id="svg12"
   sodipodi:docname="モニターA正面.svg"
   inkscape:version="0.92.4 (5da689c313, 2019-01-14)">
  <metadata
     id="metadata18">
    <rdf:RDF>
      <cc:Work
         rdf:about="">
        <dc:format>image/svg+xml</dc:format>
        <dc:type
           rdf:resource="http://purl.org/dc/dcmitype/StillImage" />
        <dc:title></dc:title>
      </cc:Work>
    </rdf:RDF>
  </metadata>
  <defs
     id="defs16" />
  <sodipodi:namedview
     pagecolor="#ffffff"
     bordercolor="#666666"
     borderopacity="1"
     objecttolerance="10"
     gridtolerance="10"
     guidetolerance="10"
     inkscape:pageopacity="0"
     inkscape:pageshadow="2"
     inkscape:window-width="784"
     inkscape:window-height="480"
     id="namedview14"
     showgrid="false"
     fit-margin-top="0"
     fit-margin-left="0"
     fit-margin-right="0"
     fit-margin-bottom="0"
     inkscape:zoom="8.735544"
     inkscape:cx="13.978164"
     inkscape:cy="12.83717"
     inkscape:window-x="0"
     inkscape:window-y="0"
     inkscape:window-maximized="0"
     inkscape:current-layer="svg12" />
  <g
     style="stroke-linecap:round;stroke-linejoin:round"
     id="g10"
     transform="translate(-0.178611,-0.17860475)">
    <!-- start DynamicDraw object [1], type : FDOJ_GROUP -->
    <g
       id="g8">
      <!-- group -->
      <!-- start DynamicDraw object [1], type : FDOJ_POLY -->
      <path
         d="m 2.677802,0.241111 c 0,0 3.46467,0 4.37843,0 0.304586,0 0.456879,0.1616 0.456879,0.4848 0,1.791587 0,2.7472 0,3.8784 0,0.3232 -0.152293,0.4848 -0.456879,0.4848 -0.761466,0 -5.139896,0 -6.358241,0 -0.304587,0 -0.45688,-0.1616 -0.45688,-0.4848 0,-1.4544 0,-2.7472 0,-3.8784 0,-0.3232 0.152293,-0.4848 0.45688,-0.4848 0.913759,0 1.979811,0 1.979811,0"
         style="fill:#ffffff;stroke:#000000;stroke-width:0.125"
         id="path2"
         inkscape:connector-curvature="0" />
      <!-- end DynamicDraw object [1], type : FDOJ_POLY -->
      <!-- start DynamicDraw object [2], type : FDOJ_POLY -->
      <path
         d="m 2.877687,0.847111 c 0,0 2.887225,0 3.648691,0 0.253822,0 0.380733,0.114467 0.380733,0.3434 0,1.269041 0,1.945933 0,2.7472 0,0.228933 -0.126911,0.3434 -0.380733,0.3434 -0.634555,0 -4.283246,0 -5.298534,0 -0.253822,0 -0.380733,-0.114467 -0.380733,-0.3434 0,-1.0302 0,-1.945933 0,-2.7472 0,-0.228933 0.126911,-0.3434 0.380733,-0.3434 0.761466,0 1.649843,0 1.649843,0"
         style="fill:#ffffff;stroke:#000000;stroke-width:0.125"
         id="path4"
         inkscape:connector-curvature="0" />
      <!-- end DynamicDraw object [2], type : FDOJ_POLY -->
      <!-- start DynamicDraw object [3], type : FDOJ_POLY -->
      <polyline
         points="1.453111,6.907111 6.301111,6.907111 6.301111,6.301111 4.281111,6.301111 4.281111,5.089111 3.473111,5.089111 3.473111,6.301111 1.453111,6.301111 1.453111,6.907111 "
         style="fill:#ffffff;stroke:#000000;stroke-width:0.125"
         id="polyline6" />
      <!-- end DynamicDraw object [3], type : FDOJ_POLY -->
    </g>
    <!-- group -->
    <!-- end DynamicDraw object [1], type : FDOJ_GROUP -->
  </g>
  <!-- stroke-linecap, etc -->
</svg>
