<?xml version="1.0" encoding="UTF-8" standalone="no"?>
<!-- This file was created by the DynamicDraw's "SVG Export" plug-in version 1.1.2.-->

<svg
   xmlns:dc="http://purl.org/dc/elements/1.1/"
   xmlns:cc="http://creativecommons.org/ns#"
   xmlns:rdf="http://www.w3.org/1999/02/22-rdf-syntax-ns#"
   xmlns:svg="http://www.w3.org/2000/svg"
   xmlns="http://www.w3.org/2000/svg"
   xmlns:sodipodi="http://sodipodi.sourceforge.net/DTD/sodipodi-0.dtd"
   xmlns:inkscape="http://www.inkscape.org/namespaces/inkscape"
   width="54.792442mm"
   height="0.85599995mm"
   viewBox="0 0 54.792443 0.85599994"
   version="1.1"
   id="svg48"
   sodipodi:docname="幕3間密.svg"
   inkscape:version="0.92.4 (5da689c313, 2019-01-14)">
  <metadata
     id="metadata54">
    <rdf:RDF>
      <cc:Work
         rdf:about="">
        <dc:format>image/svg+xml</dc:format>
        <dc:type
           rdf:resource="http://purl.org/dc/dcmitype/StillImage" />
      </cc:Work>
    </rdf:RDF>
  </metadata>
  <defs
     id="defs52" />
  <sodipodi:namedview
     pagecolor="#ffffff"
     bordercolor="#666666"
     borderopacity="1"
     objecttolerance="10"
     gridtolerance="10"
     guidetolerance="10"
     inkscape:pageopacity="0"
     inkscape:pageshadow="2"
     inkscape:window-width="780"
     inkscape:window-height="480"
     id="namedview50"
     showgrid="false"
     inkscape:zoom="2.9731697"
     inkscape:cx="103.5442"
     inkscape:cy="1.6182084"
     inkscape:window-x="0"
     inkscape:window-y="0"
     inkscape:window-maximized="0"
     inkscape:current-layer="svg48" />
  <g
     style="stroke-linecap:round;stroke-linejoin:round"
     id="g46"
     transform="translate(-0.19092942,-0.192151)">
    <!-- start DynamicDraw object [1], type : FDOJ_GROUP -->
    <g
       id="g44">
      <!-- group -->
      <!-- start DynamicDraw object [1], type : FDOJ_GROUP -->
      <g
         id="g14">
        <!-- group -->
        <!-- start DynamicDraw object [1], type : FDOJ_GROUP -->
        <g
           id="g6">
          <!-- group -->
          <!-- start DynamicDraw object [1], type : FDOJ_POLY -->
          <path
             d="m 4.862151,0.620151 c 0,0 0.284063,-0.303 0.568125,-0.303 0.284063,0 0.568125,0.303 0.568125,0.303 0,0 0.284063,0.303 0.568125,0.303 0.284063,0 0.568125,-0.303 0.568125,-0.303 0,0 0.284063,-0.303 0.568125,-0.303 0.284063,0 0.568125,0.303 0.568125,0.303 0,0 0.284063,0.303 0.568125,0.303 0.284063,0 0.568125,-0.303 0.568125,-0.303"
             style="fill:none;stroke:#000000;stroke-width:0.25"
             id="path2"
             inkscape:connector-curvature="0" />
          <!-- end DynamicDraw object [1], type : FDOJ_POLY -->
          <!-- start DynamicDraw object [2], type : FDOJ_POLY -->
          <path
             d="m 0.317151,0.620151 c 0,0 0.284063,-0.303 0.568125,-0.303 0.284063,0 0.568125,0.303 0.568125,0.303 0,0 0.284063,0.303 0.568125,0.303 0.284063,0 0.568125,-0.303 0.568125,-0.303 0,0 0.284063,-0.303 0.568125,-0.303 0.284063,0 0.568125,0.303 0.568125,0.303 0,0 0.284063,0.303 0.568125,0.303 0.284063,0 0.568125,-0.303 0.568125,-0.303"
             style="fill:none;stroke:#000000;stroke-width:0.25"
             id="path4"
             inkscape:connector-curvature="0" />
          <!-- end DynamicDraw object [2], type : FDOJ_POLY -->
        </g>
        <!-- group -->
        <!-- end DynamicDraw object [1], type : FDOJ_GROUP -->
        <!-- start DynamicDraw object [2], type : FDOJ_GROUP -->
        <g
           id="g12">
          <!-- group -->
          <!-- start DynamicDraw object [2], type : FDOJ_POLY -->
          <path
             d="m 13.952151,0.620151 c 0,0 0.284063,-0.303 0.568125,-0.303 0.284063,0 0.568125,0.303 0.568125,0.303 0,0 0.284063,0.303 0.568125,0.303 0.284063,0 0.568125,-0.303 0.568125,-0.303 0,0 0.284063,-0.303 0.568125,-0.303 0.284063,0 0.568125,0.303 0.568125,0.303 0,0 0.284063,0.303 0.568125,0.303 0.284063,0 0.568125,-0.303 0.568125,-0.303"
             style="fill:none;stroke:#000000;stroke-width:0.25"
             id="path8"
             inkscape:connector-curvature="0" />
          <!-- end DynamicDraw object [2], type : FDOJ_POLY -->
          <!-- start DynamicDraw object [3], type : FDOJ_POLY -->
          <path
             d="m 9.407151,0.620151 c 0,0 0.284063,-0.303 0.568125,-0.303 0.284063,0 0.568125,0.303 0.568125,0.303 0,0 0.284063,0.303 0.568125,0.303 0.284063,0 0.568125,-0.303 0.568125,-0.303 0,0 0.284063,-0.303 0.568125,-0.303 0.284063,0 0.568125,0.303 0.568125,0.303 0,0 0.284063,0.303 0.568125,0.303 0.284063,0 0.568125,-0.303 0.568125,-0.303"
             style="fill:none;stroke:#000000;stroke-width:0.25"
             id="path10"
             inkscape:connector-curvature="0" />
          <!-- end DynamicDraw object [3], type : FDOJ_POLY -->
        </g>
        <!-- group -->
        <!-- end DynamicDraw object [2], type : FDOJ_GROUP -->
      </g>
      <!-- group -->
      <!-- end DynamicDraw object [1], type : FDOJ_GROUP -->
      <!-- start DynamicDraw object [2], type : FDOJ_GROUP -->
      <g
         id="g28">
        <!-- group -->
        <!-- start DynamicDraw object [2], type : FDOJ_GROUP -->
        <g
           id="g20">
          <!-- group -->
          <!-- start DynamicDraw object [2], type : FDOJ_POLY -->
          <path
             d="m 23.042151,0.620151 c 0,0 0.284063,-0.303 0.568125,-0.303 0.284063,0 0.568125,0.303 0.568125,0.303 0,0 0.284063,0.303 0.568125,0.303 0.284063,0 0.568125,-0.303 0.568125,-0.303 0,0 0.284063,-0.303 0.568125,-0.303 0.284063,0 0.568125,0.303 0.568125,0.303 0,0 0.284063,0.303 0.568125,0.303 0.284063,0 0.568125,-0.303 0.568125,-0.303"
             style="fill:none;stroke:#000000;stroke-width:0.25"
             id="path16"
             inkscape:connector-curvature="0" />
          <!-- end DynamicDraw object [2], type : FDOJ_POLY -->
          <!-- start DynamicDraw object [3], type : FDOJ_POLY -->
          <path
             d="m 18.497151,0.620151 c 0,0 0.284063,-0.303 0.568125,-0.303 0.284063,0 0.568125,0.303 0.568125,0.303 0,0 0.284063,0.303 0.568125,0.303 0.284063,0 0.568125,-0.303 0.568125,-0.303 0,0 0.284063,-0.303 0.568125,-0.303 0.284063,0 0.568125,0.303 0.568125,0.303 0,0 0.284063,0.303 0.568125,0.303 0.284063,0 0.568125,-0.303 0.568125,-0.303"
             style="fill:none;stroke:#000000;stroke-width:0.25"
             id="path18"
             inkscape:connector-curvature="0" />
          <!-- end DynamicDraw object [3], type : FDOJ_POLY -->
        </g>
        <!-- group -->
        <!-- end DynamicDraw object [2], type : FDOJ_GROUP -->
        <!-- start DynamicDraw object [3], type : FDOJ_GROUP -->
        <g
           id="g26">
          <!-- group -->
          <!-- start DynamicDraw object [3], type : FDOJ_POLY -->
          <path
             d="m 32.132151,0.620151 c 0,0 0.284063,-0.303 0.568125,-0.303 0.284063,0 0.568125,0.303 0.568125,0.303 0,0 0.284063,0.303 0.568125,0.303 0.284063,0 0.568125,-0.303 0.568125,-0.303 0,0 0.284063,-0.303 0.568125,-0.303 0.284063,0 0.568125,0.303 0.568125,0.303 0,0 0.284063,0.303 0.568125,0.303 0.284063,0 0.568125,-0.303 0.568125,-0.303"
             style="fill:none;stroke:#000000;stroke-width:0.25"
             id="path22"
             inkscape:connector-curvature="0" />
          <!-- end DynamicDraw object [3], type : FDOJ_POLY -->
          <!-- start DynamicDraw object [4], type : FDOJ_POLY -->
          <path
             d="m 27.587151,0.620151 c 0,0 0.284063,-0.303 0.568125,-0.303 0.284063,0 0.568125,0.303 0.568125,0.303 0,0 0.284063,0.303 0.568125,0.303 0.284063,0 0.568125,-0.303 0.568125,-0.303 0,0 0.284063,-0.303 0.568125,-0.303 0.284063,0 0.568125,0.303 0.568125,0.303 0,0 0.284063,0.303 0.568125,0.303 0.284063,0 0.568125,-0.303 0.568125,-0.303"
             style="fill:none;stroke:#000000;stroke-width:0.25"
             id="path24"
             inkscape:connector-curvature="0" />
          <!-- end DynamicDraw object [4], type : FDOJ_POLY -->
        </g>
        <!-- group -->
        <!-- end DynamicDraw object [3], type : FDOJ_GROUP -->
      </g>
      <!-- group -->
      <!-- end DynamicDraw object [2], type : FDOJ_GROUP -->
      <!-- start DynamicDraw object [3], type : FDOJ_GROUP -->
      <g
         id="g42">
        <!-- group -->
        <!-- start DynamicDraw object [3], type : FDOJ_GROUP -->
        <g
           id="g34">
          <!-- group -->
          <!-- start DynamicDraw object [3], type : FDOJ_POLY -->
          <path
             d="m 41.222151,0.620151 c 0,0 0.284063,-0.303 0.568125,-0.303 0.284063,0 0.568125,0.303 0.568125,0.303 0,0 0.284063,0.303 0.568125,0.303 0.284063,0 0.568125,-0.303 0.568125,-0.303 0,0 0.284063,-0.303 0.568125,-0.303 0.284063,0 0.568125,0.303 0.568125,0.303 0,0 0.284063,0.303 0.568125,0.303 0.284063,0 0.568125,-0.303 0.568125,-0.303"
             style="fill:none;stroke:#000000;stroke-width:0.25"
             id="path30"
             inkscape:connector-curvature="0" />
          <!-- end DynamicDraw object [3], type : FDOJ_POLY -->
          <!-- start DynamicDraw object [4], type : FDOJ_POLY -->
          <path
             d="m 36.677151,0.620151 c 0,0 0.284063,-0.303 0.568125,-0.303 0.284063,0 0.568125,0.303 0.568125,0.303 0,0 0.284063,0.303 0.568125,0.303 0.284063,0 0.568125,-0.303 0.568125,-0.303 0,0 0.284063,-0.303 0.568125,-0.303 0.284063,0 0.568125,0.303 0.568125,0.303 0,0 0.284063,0.303 0.568125,0.303 0.284063,0 0.568125,-0.303 0.568125,-0.303"
             style="fill:none;stroke:#000000;stroke-width:0.25"
             id="path32"
             inkscape:connector-curvature="0" />
          <!-- end DynamicDraw object [4], type : FDOJ_POLY -->
        </g>
        <!-- group -->
        <!-- end DynamicDraw object [3], type : FDOJ_GROUP -->
        <!-- start DynamicDraw object [4], type : FDOJ_GROUP -->
        <g
           id="g40">
          <!-- group -->
          <!-- start DynamicDraw object [4], type : FDOJ_POLY -->
          <path
             d="m 50.312151,0.620151 c 0,0 0.284063,-0.303 0.568125,-0.303 0.284063,0 0.568125,0.303 0.568125,0.303 0,0 0.284063,0.303 0.568125,0.303 0.284063,0 0.568125,-0.303 0.568125,-0.303 0,0 0.284063,-0.303 0.568125,-0.303 0.284063,0 0.568125,0.303 0.568125,0.303 0,0 0.284063,0.303 0.568125,0.303 0.284063,0 0.568125,-0.303 0.568125,-0.303"
             style="fill:none;stroke:#000000;stroke-width:0.25"
             id="path36"
             inkscape:connector-curvature="0" />
          <!-- end DynamicDraw object [4], type : FDOJ_POLY -->
          <!-- start DynamicDraw object [5], type : FDOJ_POLY -->
          <path
             d="m 45.767151,0.620151 c 0,0 0.284063,-0.303 0.568125,-0.303 0.284063,0 0.568125,0.303 0.568125,0.303 0,0 0.284063,0.303 0.568125,0.303 0.284063,0 0.568125,-0.303 0.568125,-0.303 0,0 0.284063,-0.303 0.568125,-0.303 0.284063,0 0.568125,0.303 0.568125,0.303 0,0 0.284063,0.303 0.568125,0.303 0.284063,0 0.568125,-0.303 0.568125,-0.303"
             style="fill:none;stroke:#000000;stroke-width:0.25"
             id="path38"
             inkscape:connector-curvature="0" />
          <!-- end DynamicDraw object [5], type : FDOJ_POLY -->
        </g>
        <!-- group -->
        <!-- end DynamicDraw object [4], type : FDOJ_GROUP -->
      </g>
      <!-- group -->
      <!-- end DynamicDraw object [3], type : FDOJ_GROUP -->
    </g>
    <!-- group -->
    <!-- end DynamicDraw object [1], type : FDOJ_GROUP -->
  </g>
  <!-- stroke-linecap, etc -->
</svg>
