<?xml version="1.0" encoding="UTF-8" standalone="no"?>
<!-- This file was created by the DynamicDraw's "SVG Export" plug-in version 1.1.2.-->

<svg
   xmlns:dc="http://purl.org/dc/elements/1.1/"
   xmlns:cc="http://creativecommons.org/ns#"
   xmlns:rdf="http://www.w3.org/1999/02/22-rdf-syntax-ns#"
   xmlns:svg="http://www.w3.org/2000/svg"
   xmlns="http://www.w3.org/2000/svg"
   xmlns:sodipodi="http://sodipodi.sourceforge.net/DTD/sodipodi-0.dtd"
   xmlns:inkscape="http://www.inkscape.org/namespaces/inkscape"
   width="54.785587mm"
   height="1.159mm"
   viewBox="0 0 54.785587 1.1590001"
   version="1.1"
   id="svg24"
   sodipodi:docname="幕3間.svg"
   inkscape:version="0.92.4 (5da689c313, 2019-01-14)">
  <metadata
     id="metadata30">
    <rdf:RDF>
      <cc:Work
         rdf:about="">
        <dc:format>image/svg+xml</dc:format>
        <dc:type
           rdf:resource="http://purl.org/dc/dcmitype/StillImage" />
      </cc:Work>
    </rdf:RDF>
  </metadata>
  <defs
     id="defs28" />
  <sodipodi:namedview
     pagecolor="#ffffff"
     bordercolor="#666666"
     borderopacity="1"
     objecttolerance="10"
     gridtolerance="10"
     guidetolerance="10"
     inkscape:pageopacity="0"
     inkscape:pageshadow="2"
     inkscape:window-width="780"
     inkscape:window-height="480"
     id="namedview26"
     showgrid="false"
     inkscape:zoom="2.973547"
     inkscape:cx="103.53162"
     inkscape:cy="2.190807"
     inkscape:window-x="0"
     inkscape:window-y="0"
     inkscape:window-maximized="0"
     inkscape:current-layer="svg24" />
  <g
     style="stroke-linecap:round;stroke-linejoin:round"
     id="g22"
     transform="translate(-0.19075814,-0.192151)">
    <!-- start DynamicDraw object [1], type : FDOJ_GROUP -->
    <g
       id="g20">
      <!-- group -->
      <!-- start DynamicDraw object [1], type : FDOJ_GROUP -->
      <g
         id="g6">
        <!-- group -->
        <!-- start DynamicDraw object [1], type : FDOJ_POLY -->
        <path
           d="m 9.405951,0.771651 c 0,0 0.56805,-0.4545 1.1361,-0.4545 0.56805,0 1.1361,0.4545 1.1361,0.4545 0,0 0.56805,0.4545 1.1361,0.4545 0.56805,0 1.1361,-0.4545 1.1361,-0.4545 0,0 0.56805,-0.4545 1.1361,-0.4545 0.56805,0 1.1361,0.4545 1.1361,0.4545 0,0 0.56805,0.4545 1.1361,0.4545 0.56805,0 1.1361,-0.4545 1.1361,-0.4545"
           style="fill:none;stroke:#000000;stroke-width:0.25"
           id="path2"
           inkscape:connector-curvature="0" />
        <!-- end DynamicDraw object [1], type : FDOJ_POLY -->
        <!-- start DynamicDraw object [2], type : FDOJ_POLY -->
        <path
           d="m 0.317151,0.771651 c 0,0 0.56805,-0.4545 1.1361,-0.4545 0.56805,0 1.1361,0.4545 1.1361,0.4545 0,0 0.56805,0.4545 1.1361,0.4545 0.56805,0 1.1361,-0.4545 1.1361,-0.4545 0,0 0.56805,-0.4545 1.1361,-0.4545 0.56805,0 1.1361,0.4545 1.1361,0.4545 0,0 0.56805,0.4545 1.1361,0.4545 0.56805,0 1.1361,-0.4545 1.1361,-0.4545"
           style="fill:none;stroke:#000000;stroke-width:0.25"
           id="path4"
           inkscape:connector-curvature="0" />
        <!-- end DynamicDraw object [2], type : FDOJ_POLY -->
      </g>
      <!-- group -->
      <!-- end DynamicDraw object [1], type : FDOJ_GROUP -->
      <!-- start DynamicDraw object [2], type : FDOJ_GROUP -->
      <g
         id="g12">
        <!-- group -->
        <!-- start DynamicDraw object [2], type : FDOJ_POLY -->
        <path
           d="m 27.583551,0.771651 c 0,0 0.56805,-0.4545 1.1361,-0.4545 0.56805,0 1.1361,0.4545 1.1361,0.4545 0,0 0.56805,0.4545 1.1361,0.4545 0.56805,0 1.1361,-0.4545 1.1361,-0.4545 0,0 0.56805,-0.4545 1.1361,-0.4545 0.56805,0 1.1361,0.4545 1.1361,0.4545 0,0 0.56805,0.4545 1.1361,0.4545 0.56805,0 1.1361,-0.4545 1.1361,-0.4545"
           style="fill:none;stroke:#000000;stroke-width:0.25"
           id="path8"
           inkscape:connector-curvature="0" />
        <!-- end DynamicDraw object [2], type : FDOJ_POLY -->
        <!-- start DynamicDraw object [3], type : FDOJ_POLY -->
        <path
           d="m 18.494751,0.771651 c 0,0 0.56805,-0.4545 1.1361,-0.4545 0.56805,0 1.1361,0.4545 1.1361,0.4545 0,0 0.56805,0.4545 1.1361,0.4545 0.56805,0 1.1361,-0.4545 1.1361,-0.4545 0,0 0.56805,-0.4545 1.1361,-0.4545 0.56805,0 1.1361,0.4545 1.1361,0.4545 0,0 0.56805,0.4545 1.1361,0.4545 0.56805,0 1.1361,-0.4545 1.1361,-0.4545"
           style="fill:none;stroke:#000000;stroke-width:0.25"
           id="path10"
           inkscape:connector-curvature="0" />
        <!-- end DynamicDraw object [3], type : FDOJ_POLY -->
      </g>
      <!-- group -->
      <!-- end DynamicDraw object [2], type : FDOJ_GROUP -->
      <!-- start DynamicDraw object [3], type : FDOJ_GROUP -->
      <g
         id="g18">
        <!-- group -->
        <!-- start DynamicDraw object [3], type : FDOJ_POLY -->
        <path
           d="m 45.761151,0.771651 c 0,0 0.56805,-0.4545 1.1361,-0.4545 0.56805,0 1.1361,0.4545 1.1361,0.4545 0,0 0.56805,0.4545 1.1361,0.4545 0.56805,0 1.1361,-0.4545 1.1361,-0.4545 0,0 0.56805,-0.4545 1.1361,-0.4545 0.56805,0 1.1361,0.4545 1.1361,0.4545 0,0 0.56805,0.4545 1.1361,0.4545 0.56805,0 1.1361,-0.4545 1.1361,-0.4545"
           style="fill:none;stroke:#000000;stroke-width:0.25"
           id="path14"
           inkscape:connector-curvature="0" />
        <!-- end DynamicDraw object [3], type : FDOJ_POLY -->
        <!-- start DynamicDraw object [4], type : FDOJ_POLY -->
        <path
           d="m 36.672351,0.771651 c 0,0 0.56805,-0.4545 1.1361,-0.4545 0.56805,0 1.1361,0.4545 1.1361,0.4545 0,0 0.56805,0.4545 1.1361,0.4545 0.56805,0 1.1361,-0.4545 1.1361,-0.4545 0,0 0.56805,-0.4545 1.1361,-0.4545 0.56805,0 1.1361,0.4545 1.1361,0.4545 0,0 0.56805,0.4545 1.1361,0.4545 0.56805,0 1.1361,-0.4545 1.1361,-0.4545"
           style="fill:none;stroke:#000000;stroke-width:0.25"
           id="path16"
           inkscape:connector-curvature="0" />
        <!-- end DynamicDraw object [4], type : FDOJ_POLY -->
      </g>
      <!-- group -->
      <!-- end DynamicDraw object [3], type : FDOJ_GROUP -->
    </g>
    <!-- group -->
    <!-- end DynamicDraw object [1], type : FDOJ_GROUP -->
  </g>
  <!-- stroke-linecap, etc -->
</svg>
