<?xml version="1.0" encoding="UTF-8" standalone="no"?>
<!-- This file was created by the DynamicDraw's "SVG Export" plug-in version 1.1.2.-->

<svg
   xmlns:dc="http://purl.org/dc/elements/1.1/"
   xmlns:cc="http://creativecommons.org/ns#"
   xmlns:rdf="http://www.w3.org/1999/02/22-rdf-syntax-ns#"
   xmlns:svg="http://www.w3.org/2000/svg"
   xmlns="http://www.w3.org/2000/svg"
   xmlns:sodipodi="http://sodipodi.sourceforge.net/DTD/sodipodi-0.dtd"
   xmlns:inkscape="http://www.inkscape.org/namespaces/inkscape"
   width="9.3424425mm"
   height="0.85599995mm"
   viewBox="0 0 9.3424425 0.85599994"
   version="1.1"
   id="svg10"
   sodipodi:docname="幕半間密.svg"
   inkscape:version="0.92.4 (5da689c313, 2019-01-14)">
  <metadata
     id="metadata16">
    <rdf:RDF>
      <cc:Work
         rdf:about="">
        <dc:format>image/svg+xml</dc:format>
        <dc:type
           rdf:resource="http://purl.org/dc/dcmitype/StillImage" />
      </cc:Work>
    </rdf:RDF>
  </metadata>
  <defs
     id="defs14" />
  <sodipodi:namedview
     pagecolor="#ffffff"
     bordercolor="#666666"
     borderopacity="1"
     objecttolerance="10"
     gridtolerance="10"
     guidetolerance="10"
     inkscape:pageopacity="0"
     inkscape:pageshadow="2"
     inkscape:window-width="780"
     inkscape:window-height="480"
     id="namedview12"
     showgrid="false"
     inkscape:zoom="16.869772"
     inkscape:cx="17.65444"
     inkscape:cy="1.6182084"
     inkscape:window-x="0"
     inkscape:window-y="0"
     inkscape:window-maximized="0"
     inkscape:current-layer="svg10" />
  <g
     style="stroke-linecap:round;stroke-linejoin:round"
     id="g8"
     transform="translate(-0.19092942,-0.192151)">
    <!-- start DynamicDraw object [1], type : FDOJ_GROUP -->
    <g
       id="g6">
      <!-- group -->
      <!-- start DynamicDraw object [1], type : FDOJ_POLY -->
      <path
         d="m 4.862151,0.620151 c 0,0 0.284063,-0.303 0.568125,-0.303 0.284063,0 0.568125,0.303 0.568125,0.303 0,0 0.284063,0.303 0.568125,0.303 0.284063,0 0.568125,-0.303 0.568125,-0.303 0,0 0.284063,-0.303 0.568125,-0.303 0.284063,0 0.568125,0.303 0.568125,0.303 0,0 0.284063,0.303 0.568125,0.303 0.284063,0 0.568125,-0.303 0.568125,-0.303"
         style="fill:none;stroke:#000000;stroke-width:0.25"
         id="path2"
         inkscape:connector-curvature="0" />
      <!-- end DynamicDraw object [1], type : FDOJ_POLY -->
      <!-- start DynamicDraw object [2], type : FDOJ_POLY -->
      <path
         d="m 0.317151,0.620151 c 0,0 0.284063,-0.303 0.568125,-0.303 0.284063,0 0.568125,0.303 0.568125,0.303 0,0 0.284063,0.303 0.568125,0.303 0.284063,0 0.568125,-0.303 0.568125,-0.303 0,0 0.284063,-0.303 0.568125,-0.303 0.284063,0 0.568125,0.303 0.568125,0.303 0,0 0.284063,0.303 0.568125,0.303 0.284063,0 0.568125,-0.303 0.568125,-0.303"
         style="fill:none;stroke:#000000;stroke-width:0.25"
         id="path4"
         inkscape:connector-curvature="0" />
      <!-- end DynamicDraw object [2], type : FDOJ_POLY -->
    </g>
    <!-- group -->
    <!-- end DynamicDraw object [1], type : FDOJ_GROUP -->
  </g>
  <!-- stroke-linecap, etc -->
</svg>
