<?xml version="1.0" encoding="UTF-8" standalone="no"?>
<svg
   xmlns:dc="http://purl.org/dc/elements/1.1/"
   xmlns:cc="http://creativecommons.org/ns#"
   xmlns:rdf="http://www.w3.org/1999/02/22-rdf-syntax-ns#"
   xmlns:svg="http://www.w3.org/2000/svg"
   xmlns="http://www.w3.org/2000/svg"
   width="9.2150011mm"
   height="4.6700006mm"
   viewBox="0 0 9.2150008 4.6700003"
   version="1.1"
   id="svg216">
  <metadata
     id="metadata222">
    <rdf:RDF>
      <cc:Work
         rdf:about="">
        <dc:format>image/svg+xml</dc:format>
        <dc:type
           rdf:resource="http://purl.org/dc/dcmitype/StillImage" />
        <dc:title></dc:title>
      </cc:Work>
    </rdf:RDF>
  </metadata>
  <defs
     id="defs220" />
  <g
     style="stroke-linecap:round;stroke-linejoin:round"
     id="g214"
     transform="translate(-0.169792,-0.169792)">
    <!-- start DynamicDraw object [1], type : FTObjectType::GROUP -->
    <g
       id="g212">
      <!-- group -->
      <!-- start DynamicDraw object [1], type : FTObjectType::RECT -->
      <rect
         x="0.232292"
         y="0.232292"
         width="9.0900002"
         height="4.5450001"
         style="fill:#ffffff;stroke:#000000;stroke-width:0.125"
         id="rect2" />
      <!-- end DynamicDraw object [1], type : FTObjectType::RECT -->
      <!-- start DynamicDraw object [2], type : FTObjectType::RECT -->
      <rect
         x="0.45954201"
         y="0.45954201"
         width="8.6355"
         height="4.0904999"
         style="fill:#ffffff;stroke:#000000;stroke-width:0.125"
         id="rect4" />
      <!-- end DynamicDraw object [2], type : FTObjectType::RECT -->
      <!-- start DynamicDraw object [3], type : FTObjectType::GROUP -->
      <g
         id="g50">
        <!-- group -->
        <!-- start DynamicDraw object [3], type : FTObjectType::ARC -->
        <circle
           cx="1.4442919"
           cy="3.338042"
           style="fill:#ffffff;stroke:#000000;stroke-width:0.125"
           id="ellipse6"
           r="0.75749999" />
        <!-- end DynamicDraw object [3], type : FTObjectType::ARC -->
        <!-- start DynamicDraw object [4], type : FTObjectType::GROUP -->
        <g
           id="g48">
          <!-- group -->
          <!-- start DynamicDraw object [4], type : FTObjectType::ARC -->
          <circle
             cx="1.4442919"
             cy="3.338042"
             style="fill:#ffffff;stroke:#000000;stroke-width:0.125"
             id="ellipse8"
             r="0.22724999" />
          <!-- end DynamicDraw object [4], type : FTObjectType::ARC -->
          <!-- start DynamicDraw object [5], type : FTObjectType::GROUP -->
          <g
             id="g46">
            <!-- group -->
            <!-- start DynamicDraw object [5], type : FTObjectType::POLY -->
            <path
               d="m 1.254917,3.085542 c 0,0 0.12625,-0.063125 0.12625,-0.12625 0,0 0.12625,0 0.12625,0 0,0.063125 0.12625,0.12625 0.12625,0.12625"
               style="fill:#ffffff;stroke:#000000;stroke-width:0.125"
               id="path10" />
            <!-- end DynamicDraw object [5], type : FTObjectType::POLY -->
            <!-- start DynamicDraw object [6], type : FTObjectType::POLY -->
            <path
               d="m 1.633667,3.590542 c 0,0 -0.12625,0.063125 -0.12625,0.12625 0,0 -0.12625,0 -0.12625,0 0,-0.063125 -0.12625,-0.12625 -0.12625,-0.12625"
               style="fill:#ffffff;stroke:#000000;stroke-width:0.125"
               id="path12" />
            <!-- end DynamicDraw object [6], type : FTObjectType::POLY -->
            <!-- start DynamicDraw object [7], type : FTObjectType::GROUP -->
            <g
               id="g18">
              <!-- group -->
              <!-- start DynamicDraw object [7], type : FTObjectType::POLY -->
              <path
                 d="m 1.696792,3.148667 c 0,0 0.063125,0.12625 0.12625,0.12625 0,0 0,0.12625 0,0.12625 -0.063125,0 -0.12625,0.12625 -0.12625,0.12625"
                 style="fill:#ffffff;stroke:#000000;stroke-width:0.125"
                 id="path14" />
              <!-- end DynamicDraw object [7], type : FTObjectType::POLY -->
              <!-- start DynamicDraw object [8], type : FTObjectType::POLY -->
              <path
                 d="m 1.191792,3.527417 c 0,0 -0.063125,-0.12625 -0.12625,-0.12625 0,0 0,-0.12625 0,-0.12625 0.063125,0 0.12625,-0.12625 0.12625,-0.12625"
                 style="fill:#ffffff;stroke:#000000;stroke-width:0.125"
                 id="path16" />
              <!-- end DynamicDraw object [8], type : FTObjectType::POLY -->
            </g>
            <!-- group -->
            <!-- end DynamicDraw object [7], type : FTObjectType::GROUP -->
            <!-- start DynamicDraw object [8], type : FTObjectType::GROUP -->
            <g
               id="g30">
              <!-- group -->
              <!-- start DynamicDraw object [8], type : FTObjectType::POLY -->
              <path
                 d="m 1.488928,3.025589 c 0,0 0.133908,0.044636 0.178544,0 0,0 0.089272,0.089272 0.089272,0.089272 -0.044636,0.044636 0,0.178545 0,0.178545"
                 style="fill:#ffffff;stroke:#000000;stroke-width:0.125"
                 id="path20" />
              <!-- end DynamicDraw object [8], type : FTObjectType::POLY -->
              <!-- start DynamicDraw object [9], type : FTObjectType::POLY -->
              <path
                 d="m 1.399656,3.650494 c 0,0 -0.133909,-0.044636 -0.178545,0 0,0 -0.089272,-0.089272 -0.089272,-0.089272 0.044636,-0.044636 0,-0.178544 0,-0.178544"
                 style="fill:#ffffff;stroke:#000000;stroke-width:0.125"
                 id="path22" />
              <!-- end DynamicDraw object [9], type : FTObjectType::POLY -->
              <!-- start DynamicDraw object [10], type : FTObjectType::GROUP -->
              <g
                 id="g28">
                <!-- group -->
                <!-- start DynamicDraw object [10], type : FTObjectType::POLY -->
                <path
                   d="m 1.756744,3.382678 c 0,0 -0.044636,0.133908 0,0.178544 0,0 -0.089272,0.089272 -0.089272,0.089272 -0.044636,-0.044636 -0.178544,0 -0.178544,0"
                   style="fill:#ffffff;stroke:#000000;stroke-width:0.125"
                   id="path24" />
                <!-- end DynamicDraw object [10], type : FTObjectType::POLY -->
                <!-- start DynamicDraw object [11], type : FTObjectType::POLY -->
                <path
                   d="m 1.131839,3.293406 c 0,0 0.044636,-0.133909 0,-0.178545 0,0 0.089272,-0.089272 0.089272,-0.089272 0.044636,0.044636 0.178545,0 0.178545,0"
                   style="fill:#ffffff;stroke:#000000;stroke-width:0.125"
                   id="path26" />
                <!-- end DynamicDraw object [11], type : FTObjectType::POLY -->
              </g>
              <!-- group -->
              <!-- end DynamicDraw object [10], type : FTObjectType::GROUP -->
            </g>
            <!-- group -->
            <!-- end DynamicDraw object [8], type : FTObjectType::GROUP -->
            <!-- start DynamicDraw object [9], type : FTObjectType::POLY -->
            <path
               d="m 1.488928,3.025589 c 0,0 0.133908,0.044636 0.178544,0 0,0 0.089272,0.089272 0.089272,0.089272 -0.044636,0.044636 0,0.178545 0,0.178545"
               style="fill:#ffffff;stroke:#000000;stroke-width:0.125"
               id="path32" />
            <!-- end DynamicDraw object [9], type : FTObjectType::POLY -->
            <!-- start DynamicDraw object [10], type : FTObjectType::POLY -->
            <path
               d="m 1.399656,3.650494 c 0,0 -0.133909,-0.044636 -0.178545,0 0,0 -0.089272,-0.089272 -0.089272,-0.089272 0.044636,-0.044636 0,-0.178544 0,-0.178544"
               style="fill:#ffffff;stroke:#000000;stroke-width:0.125"
               id="path34" />
            <!-- end DynamicDraw object [10], type : FTObjectType::POLY -->
            <!-- start DynamicDraw object [11], type : FTObjectType::GROUP -->
            <g
               id="g40">
              <!-- group -->
              <!-- start DynamicDraw object [11], type : FTObjectType::POLY -->
              <path
                 d="m 1.756744,3.382678 c 0,0 -0.044636,0.133908 0,0.178544 0,0 -0.089272,0.089272 -0.089272,0.089272 -0.044636,-0.044636 -0.178544,0 -0.178544,0"
                 style="fill:#ffffff;stroke:#000000;stroke-width:0.125"
                 id="path36" />
              <!-- end DynamicDraw object [11], type : FTObjectType::POLY -->
              <!-- start DynamicDraw object [12], type : FTObjectType::POLY -->
              <path
                 d="m 1.131839,3.293406 c 0,0 0.044636,-0.133909 0,-0.178545 0,0 0.089272,-0.089272 0.089272,-0.089272 0.044636,0.044636 0.178545,0 0.178545,0"
                 style="fill:#ffffff;stroke:#000000;stroke-width:0.125"
                 id="path38" />
              <!-- end DynamicDraw object [12], type : FTObjectType::POLY -->
            </g>
            <!-- group -->
            <!-- end DynamicDraw object [11], type : FTObjectType::GROUP -->
            <!-- start DynamicDraw object [12], type : FTObjectType::ARC -->
            <circle
               cx="1.4442919"
               cy="3.338042"
               style="fill:#ffffff;stroke:#000000;stroke-width:0.125"
               transform="rotate(-108,1.444292,3.338042)"
               id="ellipse42"
               r="0.31562501" />
            <!-- end DynamicDraw object [12], type : FTObjectType::ARC -->
            <!-- start DynamicDraw object [13], type : FTObjectType::ARC -->
            <circle
               cx="1.4442919"
               cy="3.338042"
               style="fill:#ffffff;stroke:#000000;stroke-width:0.125"
               transform="rotate(-108,1.444292,3.338042)"
               id="ellipse44"
               r="0.063124999" />
            <!-- end DynamicDraw object [13], type : FTObjectType::ARC -->
          </g>
          <!-- group -->
          <!-- end DynamicDraw object [5], type : FTObjectType::GROUP -->
        </g>
        <!-- group -->
        <!-- end DynamicDraw object [4], type : FTObjectType::GROUP -->
      </g>
      <!-- group -->
      <!-- end DynamicDraw object [3], type : FTObjectType::GROUP -->
      <!-- start DynamicDraw object [4], type : FTObjectType::POLY -->
      <path
         d="m 3.338042,1.368542 c 0,0 0.310064,-0.293681 0.4545,-0.22725 0.266326,0.122493 -0.06062,0.64324 0.22725,0.909 0.141563,0.13069 0.4545,0.07575 0.4545,0.07575"
         style="fill:#ffffff;stroke:#000000;stroke-width:0.125"
         id="path52" />
      <!-- end DynamicDraw object [4], type : FTObjectType::POLY -->
      <!-- start DynamicDraw object [5], type : FTObjectType::GROUP -->
      <g
         id="g152">
        <!-- group -->
        <!-- start DynamicDraw object [5], type : FTObjectType::ARC -->
        <circle
           cx="1.4442919"
           cy="1.4442919"
           style="fill:#ffffff;stroke:#000000;stroke-width:0.125"
           id="ellipse54"
           r="0.75749999" />
        <!-- end DynamicDraw object [5], type : FTObjectType::ARC -->
        <!-- start DynamicDraw object [6], type : FTObjectType::RECT -->
        <rect
           x="2.936377"
           y="1.106002"
           width="0.22724999"
           height="0.98474997"
           style="fill:#ffffff;stroke:#000000;stroke-width:0.125"
           transform="rotate(54,3.050002,1.598377)"
           id="rect56" />
        <g
           transform="rotate(-126,3.050002,1.598377)"
           id="g58">
          <!-- rotation -->
        </g>
        <!-- rotation -->
        <!-- end DynamicDraw object [6], type : FTObjectType::RECT -->
        <!-- start DynamicDraw object [7], type : FTObjectType::RECT -->
        <rect
           x="1.724543"
           y="1.091482"
           width="0.37875"
           height="0.98474997"
           style="fill:#ffffff;stroke:#000000;stroke-width:0.125"
           transform="rotate(99,1.913918,1.583857)"
           id="rect60" />
        <g
           transform="rotate(-81,1.913918,1.583857)"
           id="g62">
          <!-- rotation -->
        </g>
        <!-- rotation -->
        <!-- end DynamicDraw object [7], type : FTObjectType::RECT -->
        <!-- start DynamicDraw object [8], type : FTObjectType::POLY -->
        <polyline
           points="3.111888,2.655581 1.740236,2.438332 2.606909,1.808657 3.236584,2.675331 2.987192,2.635831 "
           style="fill:#ffffff;stroke:#000000;stroke-width:0.125"
           id="polyline64" />
        <!-- end DynamicDraw object [8], type : FTObjectType::POLY -->
        <!-- start DynamicDraw object [9], type : FTObjectType::ARC -->
        <circle
           cx="1.90172"
           cy="2.3872149"
           style="fill:#ffffff;stroke:#000000;stroke-width:0.125"
           transform="rotate(81,1.90172,2.387215)"
           id="ellipse66"
           r="0.37875" />
        <!-- end DynamicDraw object [9], type : FTObjectType::ARC -->
        <!-- start DynamicDraw object [10], type : FTObjectType::POLY -->
        <polyline
           points="2.151112,2.347715 2.151112,2.347715 1.632579,2.302019 1.672079,2.551410 2.151112,2.347715 "
           style="fill:#ffffff;stroke:#000000;stroke-width:0.125"
           id="polyline68" />
        <!-- end DynamicDraw object [10], type : FTObjectType::POLY -->
        <!-- start DynamicDraw object [11], type : FTObjectType::ARC -->
        <circle
           cx="3.098799"
           cy="2.576813"
           style="fill:#ffffff;stroke:#000000;stroke-width:0.125"
           transform="rotate(81,3.098799,2.576813)"
           id="ellipse70"
           r="0.37875" />
        <!-- end DynamicDraw object [11], type : FTObjectType::ARC -->
        <!-- start DynamicDraw object [12], type : FTObjectType::POLY -->
        <polyline
           points="3.348190,2.537314 3.348190,2.537314 2.829658,2.491617 2.869157,2.741009 3.348190,2.537314 "
           style="fill:#ffffff;stroke:#000000;stroke-width:0.125"
           id="polyline72" />
        <!-- end DynamicDraw object [12], type : FTObjectType::POLY -->
        <!-- start DynamicDraw object [13], type : FTObjectType::GROUP -->
        <g
           id="g110">
          <!-- group -->
          <!-- start DynamicDraw object [13], type : FTObjectType::POLY -->
          <path
             d="m 2.81347,2.19928 c 0,0 -0.188399,0.059637 -0.202224,0.146924 0,0 -0.174574,-0.02765 -0.174574,-0.02765 C 2.450497,2.231267 2.289748,2.116331 2.289748,2.116331"
             style="fill:#ffffff;stroke:#000000;stroke-width:0.125"
             id="path74" />
          <!-- end DynamicDraw object [13], type : FTObjectType::POLY -->
          <!-- start DynamicDraw object [14], type : FTObjectType::POLY -->
          <path
             d="m 2.400348,1.418035 c 0,0 0.188398,-0.059637 0.202223,-0.146924 0,0 0.174574,0.02765 0.174574,0.02765 -0.013825,0.087287 0.146924,0.202223 0.146924,0.202223"
             style="fill:#ffffff;stroke:#000000;stroke-width:0.125"
             id="path76" />
          <!-- end DynamicDraw object [14], type : FTObjectType::POLY -->
          <!-- start DynamicDraw object [15], type : FTObjectType::GROUP -->
          <g
             id="g82">
            <!-- group -->
            <!-- start DynamicDraw object [15], type : FTObjectType::POLY -->
            <path
               d="m 2.216286,2.015219 c 0,0 -0.059637,-0.188399 -0.146924,-0.202224 0,0 0.02765,-0.174574 0.02765,-0.174574 0.087287,0.013825 0.202224,-0.146924 0.202224,-0.146924"
               style="fill:#ffffff;stroke:#000000;stroke-width:0.125"
               id="path78" />
            <!-- end DynamicDraw object [15], type : FTObjectType::POLY -->
            <!-- start DynamicDraw object [16], type : FTObjectType::POLY -->
            <path
               d="m 2.997531,1.602096 c 0,0 0.059638,0.188399 0.146924,0.202224 0,0 -0.027649,0.174574 -0.027649,0.174574 C 3.029519,1.965069 2.914582,2.125818 2.914582,2.125818"
               style="fill:#ffffff;stroke:#000000;stroke-width:0.125"
               id="path80" />
            <!-- end DynamicDraw object [16], type : FTObjectType::POLY -->
          </g>
          <!-- group -->
          <!-- end DynamicDraw object [15], type : FTObjectType::GROUP -->
          <!-- start DynamicDraw object [16], type : FTObjectType::GROUP -->
          <g
             id="g94">
            <!-- group -->
            <!-- start DynamicDraw object [16], type : FTObjectType::POLY -->
            <path
               d="m 2.476758,2.23093 c 0,0 -0.175388,-0.091048 -0.246885,-0.039103 0,0 -0.103891,-0.142993 -0.103891,-0.142993 C 2.197479,1.996888 2.165085,1.801949 2.165085,1.801949"
               style="fill:#ffffff;stroke:#000000;stroke-width:0.125"
               id="path84" />
            <!-- end DynamicDraw object [16], type : FTObjectType::POLY -->
            <!-- start DynamicDraw object [17], type : FTObjectType::POLY -->
            <path
               d="m 2.73706,1.386385 c 0,0 0.175388,0.091048 0.246885,0.039102 0,0 0.103891,0.142994 0.103891,0.142994 C 3.016339,1.620427 3.048733,1.815366 3.048733,1.815366"
               style="fill:#ffffff;stroke:#000000;stroke-width:0.125"
               id="path86" />
            <!-- end DynamicDraw object [17], type : FTObjectType::POLY -->
            <!-- start DynamicDraw object [18], type : FTObjectType::GROUP -->
            <g
               id="g92">
              <!-- group -->
              <!-- start DynamicDraw object [18], type : FTObjectType::POLY -->
              <path
                 d="m 2.184636,1.678507 c 0,0 0.091048,-0.175388 0.039103,-0.246885 0,0 0.142994,-0.103891 0.142994,-0.103891 0.051945,0.071497 0.246884,0.039102 0.246884,0.039102"
                 style="fill:#ffffff;stroke:#000000;stroke-width:0.125"
                 id="path88" />
              <!-- end DynamicDraw object [18], type : FTObjectType::POLY -->
              <!-- start DynamicDraw object [19], type : FTObjectType::POLY -->
              <path
                 d="m 3.029182,1.938808 c 0,0 -0.091049,0.175388 -0.039103,0.246885 0,0 -0.142994,0.103891 -0.142994,0.103891 C 2.79514,2.218087 2.6002,2.250482 2.6002,2.250482"
                 style="fill:#ffffff;stroke:#000000;stroke-width:0.125"
                 id="path90" />
              <!-- end DynamicDraw object [19], type : FTObjectType::POLY -->
            </g>
            <!-- group -->
            <!-- end DynamicDraw object [18], type : FTObjectType::GROUP -->
          </g>
          <!-- group -->
          <!-- end DynamicDraw object [16], type : FTObjectType::GROUP -->
          <!-- start DynamicDraw object [17], type : FTObjectType::POLY -->
          <path
             d="m 2.476758,2.23093 c 0,0 -0.175388,-0.091048 -0.246885,-0.039103 0,0 -0.103891,-0.142993 -0.103891,-0.142993 C 2.197479,1.996888 2.165085,1.801949 2.165085,1.801949"
             style="fill:#ffffff;stroke:#000000;stroke-width:0.125"
             id="path96" />
          <!-- end DynamicDraw object [17], type : FTObjectType::POLY -->
          <!-- start DynamicDraw object [18], type : FTObjectType::POLY -->
          <path
             d="m 2.73706,1.386385 c 0,0 0.175388,0.091048 0.246885,0.039102 0,0 0.103891,0.142994 0.103891,0.142994 C 3.016339,1.620427 3.048733,1.815366 3.048733,1.815366"
             style="fill:#ffffff;stroke:#000000;stroke-width:0.125"
             id="path98" />
          <!-- end DynamicDraw object [18], type : FTObjectType::POLY -->
          <!-- start DynamicDraw object [19], type : FTObjectType::GROUP -->
          <g
             id="g104">
            <!-- group -->
            <!-- start DynamicDraw object [19], type : FTObjectType::POLY -->
            <path
               d="m 2.184636,1.678507 c 0,0 0.091048,-0.175388 0.039103,-0.246885 0,0 0.142994,-0.103891 0.142994,-0.103891 0.051945,0.071497 0.246884,0.039102 0.246884,0.039102"
               style="fill:#ffffff;stroke:#000000;stroke-width:0.125"
               id="path100" />
            <!-- end DynamicDraw object [19], type : FTObjectType::POLY -->
            <!-- start DynamicDraw object [20], type : FTObjectType::POLY -->
            <path
               d="m 3.029182,1.938808 c 0,0 -0.091049,0.175388 -0.039103,0.246885 0,0 -0.142994,0.103891 -0.142994,0.103891 C 2.79514,2.218087 2.6002,2.250482 2.6002,2.250482"
               style="fill:#ffffff;stroke:#000000;stroke-width:0.125"
               id="path102" />
            <!-- end DynamicDraw object [20], type : FTObjectType::POLY -->
          </g>
          <!-- group -->
          <!-- end DynamicDraw object [19], type : FTObjectType::GROUP -->
          <!-- start DynamicDraw object [20], type : FTObjectType::ARC -->
          <circle
             cx="2.606909"
             cy="1.8086571"
             style="fill:#ffffff;stroke:#000000;stroke-width:0.125"
             transform="rotate(81,2.606909,1.808657)"
             id="ellipse106"
             r="0.44187501" />
          <!-- end DynamicDraw object [20], type : FTObjectType::ARC -->
          <!-- start DynamicDraw object [21], type : FTObjectType::ARC -->
          <circle
             cx="2.606909"
             cy="1.8086571"
             style="fill:#ffffff;stroke:#000000;stroke-width:0.125"
             transform="rotate(81,2.606909,1.808657)"
             id="ellipse108"
             r="0.088375002" />
          <!-- end DynamicDraw object [21], type : FTObjectType::ARC -->
        </g>
        <!-- group -->
        <!-- end DynamicDraw object [13], type : FTObjectType::GROUP -->
        <!-- start DynamicDraw object [14], type : FTObjectType::ARC -->
        <circle
           cx="1.4442919"
           cy="1.4442919"
           style="fill:#ffffff;stroke:#000000;stroke-width:0.125"
           id="ellipse112"
           r="0.22724999" />
        <!-- end DynamicDraw object [14], type : FTObjectType::ARC -->
        <!-- start DynamicDraw object [15], type : FTObjectType::GROUP -->
        <g
           id="g150">
          <!-- group -->
          <!-- start DynamicDraw object [15], type : FTObjectType::POLY -->
          <path
             d="m 1.254917,1.191792 c 0,0 0.12625,-0.063125 0.12625,-0.12625 0,0 0.12625,0 0.12625,0 0,0.063125 0.12625,0.12625 0.12625,0.12625"
             style="fill:#ffffff;stroke:#000000;stroke-width:0.125"
             id="path114" />
          <!-- end DynamicDraw object [15], type : FTObjectType::POLY -->
          <!-- start DynamicDraw object [16], type : FTObjectType::POLY -->
          <path
             d="m 1.633667,1.696792 c 0,0 -0.12625,0.063125 -0.12625,0.12625 0,0 -0.12625,0 -0.12625,0 0,-0.063125 -0.12625,-0.12625 -0.12625,-0.12625"
             style="fill:#ffffff;stroke:#000000;stroke-width:0.125"
             id="path116" />
          <!-- end DynamicDraw object [16], type : FTObjectType::POLY -->
          <!-- start DynamicDraw object [17], type : FTObjectType::GROUP -->
          <g
             id="g122">
            <!-- group -->
            <!-- start DynamicDraw object [17], type : FTObjectType::POLY -->
            <path
               d="m 1.696792,1.254917 c 0,0 0.063125,0.12625 0.12625,0.12625 0,0 0,0.12625 0,0.12625 -0.063125,0 -0.12625,0.12625 -0.12625,0.12625"
               style="fill:#ffffff;stroke:#000000;stroke-width:0.125"
               id="path118" />
            <!-- end DynamicDraw object [17], type : FTObjectType::POLY -->
            <!-- start DynamicDraw object [18], type : FTObjectType::POLY -->
            <path
               d="m 1.191792,1.633667 c 0,0 -0.063125,-0.12625 -0.12625,-0.12625 0,0 0,-0.12625 0,-0.12625 0.063125,0 0.12625,-0.12625 0.12625,-0.12625"
               style="fill:#ffffff;stroke:#000000;stroke-width:0.125"
               id="path120" />
            <!-- end DynamicDraw object [18], type : FTObjectType::POLY -->
          </g>
          <!-- group -->
          <!-- end DynamicDraw object [17], type : FTObjectType::GROUP -->
          <!-- start DynamicDraw object [18], type : FTObjectType::GROUP -->
          <g
             id="g134">
            <!-- group -->
            <!-- start DynamicDraw object [18], type : FTObjectType::POLY -->
            <path
               d="m 1.488928,1.131839 c 0,0 0.133908,0.044636 0.178544,0 0,0 0.089272,0.089272 0.089272,0.089272 -0.044636,0.044636 0,0.178545 0,0.178545"
               style="fill:#ffffff;stroke:#000000;stroke-width:0.125"
               id="path124" />
            <!-- end DynamicDraw object [18], type : FTObjectType::POLY -->
            <!-- start DynamicDraw object [19], type : FTObjectType::POLY -->
            <path
               d="m 1.399656,1.756744 c 0,0 -0.133909,-0.044636 -0.178545,0 0,0 -0.089272,-0.089272 -0.089272,-0.089272 0.044636,-0.044636 0,-0.178544 0,-0.178544"
               style="fill:#ffffff;stroke:#000000;stroke-width:0.125"
               id="path126" />
            <!-- end DynamicDraw object [19], type : FTObjectType::POLY -->
            <!-- start DynamicDraw object [20], type : FTObjectType::GROUP -->
            <g
               id="g132">
              <!-- group -->
              <!-- start DynamicDraw object [20], type : FTObjectType::POLY -->
              <path
                 d="m 1.756744,1.488928 c 0,0 -0.044636,0.133908 0,0.178544 0,0 -0.089272,0.089272 -0.089272,0.089272 -0.044636,-0.044636 -0.178544,0 -0.178544,0"
                 style="fill:#ffffff;stroke:#000000;stroke-width:0.125"
                 id="path128" />
              <!-- end DynamicDraw object [20], type : FTObjectType::POLY -->
              <!-- start DynamicDraw object [21], type : FTObjectType::POLY -->
              <path
                 d="m 1.131839,1.399656 c 0,0 0.044636,-0.133909 0,-0.178545 0,0 0.089272,-0.089272 0.089272,-0.089272 0.044636,0.044636 0.178545,0 0.178545,0"
                 style="fill:#ffffff;stroke:#000000;stroke-width:0.125"
                 id="path130" />
              <!-- end DynamicDraw object [21], type : FTObjectType::POLY -->
            </g>
            <!-- group -->
            <!-- end DynamicDraw object [20], type : FTObjectType::GROUP -->
          </g>
          <!-- group -->
          <!-- end DynamicDraw object [18], type : FTObjectType::GROUP -->
          <!-- start DynamicDraw object [19], type : FTObjectType::POLY -->
          <path
             d="m 1.488928,1.131839 c 0,0 0.133908,0.044636 0.178544,0 0,0 0.089272,0.089272 0.089272,0.089272 -0.044636,0.044636 0,0.178545 0,0.178545"
             style="fill:#ffffff;stroke:#000000;stroke-width:0.125"
             id="path136" />
          <!-- end DynamicDraw object [19], type : FTObjectType::POLY -->
          <!-- start DynamicDraw object [20], type : FTObjectType::POLY -->
          <path
             d="m 1.399656,1.756744 c 0,0 -0.133909,-0.044636 -0.178545,0 0,0 -0.089272,-0.089272 -0.089272,-0.089272 0.044636,-0.044636 0,-0.178544 0,-0.178544"
             style="fill:#ffffff;stroke:#000000;stroke-width:0.125"
             id="path138" />
          <!-- end DynamicDraw object [20], type : FTObjectType::POLY -->
          <!-- start DynamicDraw object [21], type : FTObjectType::GROUP -->
          <g
             id="g144">
            <!-- group -->
            <!-- start DynamicDraw object [21], type : FTObjectType::POLY -->
            <path
               d="m 1.756744,1.488928 c 0,0 -0.044636,0.133908 0,0.178544 0,0 -0.089272,0.089272 -0.089272,0.089272 -0.044636,-0.044636 -0.178544,0 -0.178544,0"
               style="fill:#ffffff;stroke:#000000;stroke-width:0.125"
               id="path140" />
            <!-- end DynamicDraw object [21], type : FTObjectType::POLY -->
            <!-- start DynamicDraw object [22], type : FTObjectType::POLY -->
            <path
               d="m 1.131839,1.399656 c 0,0 0.044636,-0.133909 0,-0.178545 0,0 0.089272,-0.089272 0.089272,-0.089272 0.044636,0.044636 0.178545,0 0.178545,0"
               style="fill:#ffffff;stroke:#000000;stroke-width:0.125"
               id="path142" />
            <!-- end DynamicDraw object [22], type : FTObjectType::POLY -->
          </g>
          <!-- group -->
          <!-- end DynamicDraw object [21], type : FTObjectType::GROUP -->
          <!-- start DynamicDraw object [22], type : FTObjectType::ARC -->
          <circle
             cx="1.4442919"
             cy="1.4442919"
             style="fill:#ffffff;stroke:#000000;stroke-width:0.125"
             transform="rotate(-108,1.444292,1.444292)"
             id="ellipse146"
             r="0.31562501" />
          <!-- end DynamicDraw object [22], type : FTObjectType::ARC -->
          <!-- start DynamicDraw object [23], type : FTObjectType::ARC -->
          <circle
             cx="1.4442919"
             cy="1.4442919"
             style="fill:#ffffff;stroke:#000000;stroke-width:0.125"
             transform="rotate(-108,1.444292,1.444292)"
             id="ellipse148"
             r="0.063124999" />
          <!-- end DynamicDraw object [23], type : FTObjectType::ARC -->
        </g>
        <!-- group -->
        <!-- end DynamicDraw object [15], type : FTObjectType::GROUP -->
      </g>
      <!-- group -->
      <!-- end DynamicDraw object [5], type : FTObjectType::GROUP -->
      <!-- start DynamicDraw object [6], type : FTObjectType::RECT -->
      <rect
         x="4.1059222"
         y="1.1892101"
         width="1.0605"
         height="0.37875"
         style="fill:#ffffff;stroke:#000000;stroke-width:0.125"
         transform="rotate(-54,4.636172,1.378585)"
         id="rect154" />
      <!-- end DynamicDraw object [6], type : FTObjectType::RECT -->
      <!-- start DynamicDraw object [7], type : FTObjectType::RECT -->
      <rect
         x="8.0637503"
         y="2.096833"
         width="0.45449999"
         height="0.81591702"
         style="fill:#ffffff;stroke:#000000;stroke-width:0.125"
         transform="rotate(-90,8.291,2.504792)"
         id="rect156" />
      <g
         transform="rotate(90,8.291,2.504792)"
         id="g158">
        <!-- rotation -->
      </g>
      <!-- rotation -->
      <!-- end DynamicDraw object [7], type : FTObjectType::RECT -->
      <!-- start DynamicDraw object [8], type : FTObjectType::ARC -->
      <circle
         cx="6.2165418"
         cy="2.504792"
         style="fill:#ffffff;stroke:#000000;stroke-width:0.125"
         id="ellipse160"
         r="1.74225" />
      <!-- end DynamicDraw object [8], type : FTObjectType::ARC -->
      <!-- start DynamicDraw object [9], type : FTObjectType::ARC -->
      <path
         d="m 5.192473,1.095282 v 2.81902 a 1.74225,1.74225 0 0 1 0,-2.81902"
         style="fill:#ffffff;stroke:#000000;stroke-width:0.125"
         id="path162" />
      <!-- end DynamicDraw object [9], type : FTObjectType::ARC -->
      <!-- start DynamicDraw object [10], type : FTObjectType::GROUP -->
      <g
         id="g204">
        <!-- group -->
        <!-- start DynamicDraw object [10], type : FTObjectType::LINE -->
        <line
           x1="7.4664168"
           y1="1.747292"
           x2="7.4664168"
           y2="3.338042"
           style="fill:#ffffff;stroke:#000000;stroke-width:0.125"
           id="line164" />
        <!-- end DynamicDraw object [10], type : FTObjectType::LINE -->
        <!-- start DynamicDraw object [11], type : FTObjectType::LINE -->
        <line
           x1="7.0119171"
           y1="1.747292"
           x2="7.0119171"
           y2="3.338042"
           style="fill:#ffffff;stroke:#000000;stroke-width:0.125"
           id="line166" />
        <!-- end DynamicDraw object [11], type : FTObjectType::LINE -->
        <!-- start DynamicDraw object [12], type : FTObjectType::LINE -->
        <line
           x1="6.5574169"
           y1="1.747292"
           x2="6.5574169"
           y2="3.338042"
           style="fill:#ffffff;stroke:#000000;stroke-width:0.125"
           id="line168" />
        <!-- end DynamicDraw object [12], type : FTObjectType::LINE -->
        <!-- start DynamicDraw object [13], type : FTObjectType::LINE -->
        <line
           x1="6.1029172"
           y1="1.747292"
           x2="6.1029172"
           y2="3.338042"
           style="fill:#ffffff;stroke:#000000;stroke-width:0.125"
           id="line170" />
        <!-- end DynamicDraw object [13], type : FTObjectType::LINE -->
        <!-- start DynamicDraw object [14], type : FTObjectType::LINE -->
        <line
           x1="5.648417"
           y1="1.747292"
           x2="5.648417"
           y2="3.338042"
           style="fill:#ffffff;stroke:#000000;stroke-width:0.125"
           id="line172" />
        <!-- end DynamicDraw object [14], type : FTObjectType::LINE -->
        <!-- start DynamicDraw object [15], type : FTObjectType::ARC -->
        <path
           d="M 7.466417,2.429042 V 2.088167 H 7.807292 A 0.340875,0.340875 0 0 1 7.466417,2.429042"
           style="fill:#ffffff;stroke:#000000;stroke-width:0.125"
           transform="rotate(180,7.466417,2.088167)"
           id="path174" />
        <!-- end DynamicDraw object [15], type : FTObjectType::ARC -->
        <!-- start DynamicDraw object [16], type : FTObjectType::RECT -->
        <rect
           x="7.1255422"
           y="2.088167"
           width="0.340875"
           height="0.90899998"
           style="fill:#ffffff;stroke:#000000;stroke-width:0.125"
           id="rect176" />
        <!-- end DynamicDraw object [16], type : FTObjectType::RECT -->
        <!-- start DynamicDraw object [17], type : FTObjectType::ARC -->
        <path
           d="M 7.807292,2.997167 H 7.466417 V 2.656292 a 0.340875,0.340875 0 0 1 0.340875,0.340875"
           style="fill:#ffffff;stroke:#000000;stroke-width:0.125"
           transform="rotate(180,7.466417,2.997167)"
           id="path178" />
        <!-- end DynamicDraw object [17], type : FTObjectType::ARC -->
        <!-- start DynamicDraw object [18], type : FTObjectType::ARC -->
        <path
           d="M 7.011917,2.429042 V 2.088167 H 7.352792 A 0.340875,0.340875 0 0 1 7.011917,2.429042"
           style="fill:#ffffff;stroke:#000000;stroke-width:0.125"
           transform="rotate(180,7.011917,2.088167)"
           id="path180" />
        <!-- end DynamicDraw object [18], type : FTObjectType::ARC -->
        <!-- start DynamicDraw object [19], type : FTObjectType::RECT -->
        <rect
           x="6.671042"
           y="2.088167"
           width="0.340875"
           height="0.90899998"
           style="fill:#ffffff;stroke:#000000;stroke-width:0.125"
           id="rect182" />
        <!-- end DynamicDraw object [19], type : FTObjectType::RECT -->
        <!-- start DynamicDraw object [20], type : FTObjectType::ARC -->
        <path
           d="M 7.352792,2.997167 H 7.011917 V 2.656292 a 0.340875,0.340875 0 0 1 0.340875,0.340875"
           style="fill:#ffffff;stroke:#000000;stroke-width:0.125"
           transform="rotate(180,7.011917,2.997167)"
           id="path184" />
        <!-- end DynamicDraw object [20], type : FTObjectType::ARC -->
        <!-- start DynamicDraw object [21], type : FTObjectType::ARC -->
        <path
           d="M 6.557417,2.429042 V 2.088167 H 6.898292 A 0.340875,0.340875 0 0 1 6.557417,2.429042"
           style="fill:#ffffff;stroke:#000000;stroke-width:0.125"
           transform="rotate(180,6.557417,2.088167)"
           id="path186" />
        <!-- end DynamicDraw object [21], type : FTObjectType::ARC -->
        <!-- start DynamicDraw object [22], type : FTObjectType::RECT -->
        <rect
           x="6.2165418"
           y="2.088167"
           width="0.340875"
           height="0.90899998"
           style="fill:#ffffff;stroke:#000000;stroke-width:0.125"
           id="rect188" />
        <!-- end DynamicDraw object [22], type : FTObjectType::RECT -->
        <!-- start DynamicDraw object [23], type : FTObjectType::ARC -->
        <path
           d="M 6.898292,2.997167 H 6.557417 V 2.656292 a 0.340875,0.340875 0 0 1 0.340875,0.340875"
           style="fill:#ffffff;stroke:#000000;stroke-width:0.125"
           transform="rotate(180,6.557417,2.997167)"
           id="path190" />
        <!-- end DynamicDraw object [23], type : FTObjectType::ARC -->
        <!-- start DynamicDraw object [24], type : FTObjectType::ARC -->
        <path
           d="M 6.102917,2.429042 V 2.088167 H 6.443792 A 0.340875,0.340875 0 0 1 6.102917,2.429042"
           style="fill:#ffffff;stroke:#000000;stroke-width:0.125"
           transform="rotate(180,6.102917,2.088167)"
           id="path192" />
        <!-- end DynamicDraw object [24], type : FTObjectType::ARC -->
        <!-- start DynamicDraw object [25], type : FTObjectType::RECT -->
        <rect
           x="5.762042"
           y="2.088167"
           width="0.340875"
           height="0.90899998"
           style="fill:#ffffff;stroke:#000000;stroke-width:0.125"
           id="rect194" />
        <!-- end DynamicDraw object [25], type : FTObjectType::RECT -->
        <!-- start DynamicDraw object [26], type : FTObjectType::ARC -->
        <path
           d="M 6.443792,2.997167 H 6.102917 V 2.656292 a 0.340875,0.340875 0 0 1 0.340875,0.340875"
           style="fill:#ffffff;stroke:#000000;stroke-width:0.125"
           transform="rotate(180,6.102917,2.997167)"
           id="path196" />
        <!-- end DynamicDraw object [26], type : FTObjectType::ARC -->
        <!-- start DynamicDraw object [27], type : FTObjectType::ARC -->
        <path
           d="M 5.648417,2.429042 V 2.088167 H 5.989292 A 0.340875,0.340875 0 0 1 5.648417,2.429042"
           style="fill:#ffffff;stroke:#000000;stroke-width:0.125"
           transform="rotate(180,5.648417,2.088167)"
           id="path198" />
        <!-- end DynamicDraw object [27], type : FTObjectType::ARC -->
        <!-- start DynamicDraw object [28], type : FTObjectType::RECT -->
        <rect
           x="5.3075418"
           y="2.088167"
           width="0.340875"
           height="0.90899998"
           style="fill:#ffffff;stroke:#000000;stroke-width:0.125"
           id="rect200" />
        <!-- end DynamicDraw object [28], type : FTObjectType::RECT -->
        <!-- start DynamicDraw object [29], type : FTObjectType::ARC -->
        <path
           d="M 5.989292,2.997167 H 5.648417 V 2.656292 a 0.340875,0.340875 0 0 1 0.340875,0.340875"
           style="fill:#ffffff;stroke:#000000;stroke-width:0.125"
           transform="rotate(180,5.648417,2.997167)"
           id="path202" />
        <!-- end DynamicDraw object [29], type : FTObjectType::ARC -->
      </g>
      <!-- group -->
      <!-- end DynamicDraw object [10], type : FTObjectType::GROUP -->
      <!-- start DynamicDraw object [11], type : FTObjectType::ROUND_RECT -->
      <rect
         x="4.2470422"
         y="2.353292"
         width="2.424"
         height="0.303"
         rx="0.050000001"
         ry="0.050000001"
         style="fill:#ffffff;stroke:#000000;stroke-width:0.125"
         id="rect206" />
      <!-- end DynamicDraw object [11], type : FTObjectType::ROUND_RECT -->
      <!-- start DynamicDraw object [12], type : FTObjectType::ARC -->
      <circle
         cx="4.6889172"
         cy="2.1134169"
         style="fill:#ffffff;stroke:#000000;stroke-width:0.125"
         transform="rotate(-108,4.688917,2.113417)"
         id="ellipse208"
         r="0.063124999" />
      <!-- end DynamicDraw object [12], type : FTObjectType::ARC -->
      <!-- start DynamicDraw object [13], type : FTObjectType::ARC -->
      <circle
         cx="4.6889172"
         cy="2.8709171"
         style="fill:#ffffff;stroke:#000000;stroke-width:0.125"
         transform="rotate(-108,4.688917,2.870917)"
         id="ellipse210"
         r="0.063124999" />
      <!-- end DynamicDraw object [13], type : FTObjectType::ARC -->
    </g>
    <!-- group -->
    <!-- end DynamicDraw object [1], type : FTObjectType::GROUP -->
  </g>
  <!-- stroke-linecap, etc -->
</svg>
