<?xml version="1.0" encoding="UTF-8" standalone="no"?>
<svg
   version="1.0"
   width="12.254288mm"
   height="12.254288mm"
   id="svg6"
   xmlns="http://www.w3.org/2000/svg"
   xmlns:svg="http://www.w3.org/2000/svg">
  <defs
     id="defs1">
    <pattern
       id="EMFhbasepattern"
       patternUnits="userSpaceOnUse"
       width="6"
       height="6"
       x="0"
       y="0" />
  </defs>
  <path
     style="fill:#ffffff;fill-opacity:1;fill-rule:evenodd;stroke:none"
     d="m 0.25001574,4.0627558 c 0,-2.1251338 1.68760626,-3.81274006 3.75023616,-3.81274006 0,0 38.2524091,0 38.2524091,0 2.125134,0 3.81274,1.68760626 3.81274,3.81274006 0,0 0,38.2524092 0,38.2524092 0,2.06263 -1.687606,3.750236 -3.81274,3.750236 0,0 -38.2524091,0 -38.2524091,0 -2.0626299,0 -3.75023616,-1.687606 -3.75023616,-3.750236 z"
     id="path1" />
  <path
     style="fill:none;stroke:#000000;stroke-width:0.500031px;stroke-linecap:round;stroke-linejoin:round;stroke-miterlimit:4;stroke-dasharray:none;stroke-opacity:1"
     d="m 0.25001574,4.0627558 c 0,-2.1251338 1.68760626,-3.81274006 3.75023616,-3.81274006 0,0 38.2524091,0 38.2524091,0 2.125134,0 3.81274,1.68760626 3.81274,3.81274006 0,0 0,38.2524092 0,38.2524092 0,2.06263 -1.687606,3.750236 -3.81274,3.750236 0,0 -38.2524091,0 -38.2524091,0 -2.0626299,0 -3.75023616,-1.687606 -3.75023616,-3.750236 0,0 0,-38.2524092 0,-38.2524092"
     id="path2" />
  <path
     style="fill:#000000;fill-opacity:1;fill-rule:evenodd;stroke:none"
     d="m 18.251149,11.250708 c 0,0 0.500032,7.750489 0.500032,7.687985 0,0 8.000504,0 8.000504,0 0,0 0,2.125134 0,2.06263 0,0 -7.812992,0.0625 -7.812992,0.0625 0,0 0.187511,2.625165 0.187511,2.625165 0,0 10.938189,0 10.938189,0 0,0 4.875308,11.125701 4.875308,11.125701 0,0 3.875244,-1.687607 3.875244,-1.687607 0,0 0.875055,1.875119 0.812551,1.937622 0,0 -5.750362,2.437654 -5.750362,2.437654 -0.0625,0.0625 -5.187827,-11.75074 -5.187827,-11.75074 0,0 -11.500725,0 -11.500725,0 0,0 -1.12507,-15.750992 -1.12507,-15.750992 0,0 -0.437528,-0.5625359 -0.437528,-1.5000947 0,-1.5000945 1.250079,-2.7501732 2.750173,-2.8126771 1.437591,0 2.812677,1.1875748 2.812677,2.8126771 -0.0625,1.3750868 -1.12507,2.7501727 -2.937685,2.7501727 z"
     id="path3" />
  <path
     style="fill:none;stroke:#000000;stroke-width:0.0625039px;stroke-linecap:round;stroke-linejoin:round;stroke-miterlimit:4;stroke-dasharray:none;stroke-opacity:1"
     d="m 18.251149,11.250708 c 0,0 0.500032,7.750489 0.500032,7.687985 0,0 8.000504,0 8.000504,0 0,0 0,2.125134 0,2.06263 0,0 -7.812992,0.0625 -7.812992,0.0625 0,0 0.187511,2.625165 0.187511,2.625165 0,0 10.938189,0 10.938189,0 0,0 4.875308,11.125701 4.875308,11.125701 0,0 3.875244,-1.687607 3.875244,-1.687607 0,0 0.875055,1.875119 0.812551,1.937622 0,0 -5.750362,2.437654 -5.750362,2.437654 -0.0625,0.0625 -5.187827,-11.75074 -5.187827,-11.75074 0,0 -11.500725,0 -11.500725,0 0,0 -1.12507,-15.750992 -1.12507,-15.750992 0,0 -0.437528,-0.5625359 -0.437528,-1.5000947 0,-1.5000945 1.250079,-2.7501732 2.750173,-2.8126771 1.437591,0 2.812677,1.1875748 2.812677,2.8126771 -0.0625,1.3750868 -1.12507,2.7501727 -2.937685,2.7501727 0,0 0,0 0,0"
     id="path4" />
  <path
     style="fill:#000000;fill-opacity:1;fill-rule:evenodd;stroke:none"
     d="m 15.313464,21.626362 c -0.625039,0.375024 -4.437779,2.937685 -4.437779,7.938 0,4.875307 3.875244,9.313087 9.313086,9.313087 5.125323,0 8.813056,-4.000252 9.063071,-8.000504 0,-0.0625 1.437591,3.50022 1.437591,3.50022 -1.75011,3.875244 -5.625355,6.750425 -10.500662,6.750425 -6.250393,0 -11.5632278,-5.187826 -11.5632278,-11.563228 0,-6.18789 4.6252908,-9.563102 6.5004088,-10.375654 0,0 0.187512,2.437654 0.187512,2.437654 z"
     id="path5" />
  <path
     style="fill:none;stroke:#000000;stroke-width:0.0625039px;stroke-linecap:round;stroke-linejoin:round;stroke-miterlimit:4;stroke-dasharray:none;stroke-opacity:1"
     d="m 15.313464,21.626362 c -0.625039,0.375024 -4.437779,2.937685 -4.437779,7.938 0,4.875307 3.875244,9.313087 9.313086,9.313087 5.125323,0 8.813056,-4.000252 9.063071,-8.000504 0,-0.0625 1.437591,3.50022 1.437591,3.50022 -1.75011,3.875244 -5.625355,6.750425 -10.500662,6.750425 -6.250393,0 -11.5632278,-5.187826 -11.5632278,-11.563228 0,-6.18789 4.6252908,-9.563102 6.5004088,-10.375654 0,0 0.187512,2.437654 0.187512,2.437654 0,0 0,0 0,0"
     id="path6" />
</svg>
