<?xml version="1.0" encoding="UTF-8" standalone="no"?>
<svg
   version="1.0"
   width="12.254288mm"
   height="12.254288mm"
   id="svg4"
   xmlns="http://www.w3.org/2000/svg"
   xmlns:svg="http://www.w3.org/2000/svg">
  <defs
     id="defs1">
    <pattern
       id="EMFhbasepattern"
       patternUnits="userSpaceOnUse"
       width="6"
       height="6"
       x="0"
       y="0" />
  </defs>
  <path
     style="fill:#ffffff;fill-opacity:1;fill-rule:evenodd;stroke:none"
     d="m 46.065401,23.188961 c 0,12.625795 -10.250645,22.876441 -22.938945,22.876441 -12.625795,0 -22.87644026,-10.250646 -22.87644026,-22.876441 0,-12.688299 10.25064526,-22.93894526 22.87644026,-22.93894526 12.6883,0 22.938945,10.25064626 22.938945,22.93894526 z"
     id="path1" />
  <path
     style="fill:none;stroke:#000000;stroke-width:0.500031px;stroke-linecap:round;stroke-linejoin:round;stroke-miterlimit:4;stroke-dasharray:none;stroke-opacity:1"
     d="m 46.065401,23.188961 c 0,12.625795 -10.250645,22.876441 -22.938945,22.876441 -12.625795,0 -22.87644026,-10.250646 -22.87644026,-22.876441 0,-12.688299 10.25064526,-22.93894526 22.87644026,-22.93894526 12.6883,0 22.938945,10.25064626 22.938945,22.93894526"
     id="path2" />
  <path
     style="fill:#000000;fill-opacity:1;fill-rule:evenodd;stroke:none"
     d="m 36.314787,9.2505828 c 0,0 -7.187953,14.6259212 -7.187953,14.6259212 0,0 4.312772,-0.0625 4.312772,-0.0625 0,0 0,3.437717 0,3.437717 0,0 -6.000378,0 -6.000378,0 0,0 -0.500031,1.000063 -0.500031,1.000063 0,0 0,2.000126 0,2.000126 0,0 6.500409,0 6.500409,0 0,0 0,3.437716 0,3.437716 0,0 -6.500409,0 -6.500409,0 0,0 0,6.000378 0,6.000378 0,0 -7.625481,0 -7.625481,0 0,0 0,-6.000378 0,-6.000378 0,0 -6.437905,0 -6.437905,0 0,0 0,-3.437716 0,-3.437716 0,0 6.437905,0 6.437905,0 0,0 0,-2.000126 0,-2.000126 0,0 -0.500031,-1.000063 -0.500031,-1.000063 0,0 -5.937874,0 -5.937874,0 0,0 0,-3.437717 0,-3.437717 0,0 4.250267,0 4.250267,0 0,0 -7.1879518,-14.5634172 -7.1879518,-14.5634172 0,0 7.8754958,0 7.8754958,0 0,0 5.312834,12.1882682 5.312834,12.1882682 0,0 5.312835,-12.1882682 5.312835,-12.1882682 z"
     id="path3" />
  <path
     style="fill:none;stroke:#000000;stroke-width:0.500031px;stroke-linecap:round;stroke-linejoin:round;stroke-miterlimit:4;stroke-dasharray:none;stroke-opacity:1"
     d="m 36.314787,9.2505828 c 0,0 -7.187953,14.6259212 -7.187953,14.6259212 0,0 4.312772,-0.0625 4.312772,-0.0625 0,0 0,3.437717 0,3.437717 0,0 -6.000378,0 -6.000378,0 0,0 -0.500031,1.000063 -0.500031,1.000063 0,0 0,2.000126 0,2.000126 0,0 6.500409,0 6.500409,0 0,0 0,3.437716 0,3.437716 0,0 -6.500409,0 -6.500409,0 0,0 0,6.000378 0,6.000378 0,0 -7.625481,0 -7.625481,0 0,0 0,-6.000378 0,-6.000378 0,0 -6.437905,0 -6.437905,0 0,0 0,-3.437716 0,-3.437716 0,0 6.437905,0 6.437905,0 0,0 0,-2.000126 0,-2.000126 0,0 -0.500031,-1.000063 -0.500031,-1.000063 0,0 -5.937874,0 -5.937874,0 0,0 0,-3.437717 0,-3.437717 0,0 4.250267,0 4.250267,0 0,0 -7.1879518,-14.5634172 -7.1879518,-14.5634172 0,0 7.8754958,0 7.8754958,0 0,0 5.312834,12.1882682 5.312834,12.1882682 0,0 5.312835,-12.1882682 5.312835,-12.1882682 0,0 7.875496,0 7.875496,0"
     id="path4" />
</svg>
