<?xml version="1.0" encoding="UTF-8" standalone="no"?>
<svg
   version="1.0"
   width="12.254288mm"
   height="12.254288mm"
   id="svg12"
   xmlns="http://www.w3.org/2000/svg"
   xmlns:svg="http://www.w3.org/2000/svg">
  <defs
     id="defs1">
    <pattern
       id="EMFhbasepattern"
       patternUnits="userSpaceOnUse"
       width="6"
       height="6"
       x="0"
       y="0" />
  </defs>
  <path
     style="fill:#ffffff;fill-opacity:1;fill-rule:evenodd;stroke:none"
     d="m 0.25001574,4.0627559 c 0,-2.1251339 1.68760626,-3.81274016 3.75023616,-3.81274016 0,0 38.2524091,0 38.2524091,0 2.125134,0 3.81274,1.68760626 3.81274,3.81274016 0,0 0,38.2524091 0,38.2524091 0,2.06263 -1.687606,3.750236 -3.81274,3.750236 0,0 -38.2524091,0 -38.2524091,0 -2.0626299,0 -3.75023616,-1.687606 -3.75023616,-3.750236 z"
     id="path1" />
  <path
     style="fill:none;stroke:#000000;stroke-width:0.500031px;stroke-linecap:round;stroke-linejoin:round;stroke-miterlimit:4;stroke-dasharray:none;stroke-opacity:1"
     d="m 0.25001574,4.0627559 c 0,-2.1251339 1.68760626,-3.81274016 3.75023616,-3.81274016 0,0 38.2524091,0 38.2524091,0 2.125134,0 3.81274,1.68760626 3.81274,3.81274016 0,0 0,38.2524091 0,38.2524091 0,2.06263 -1.687606,3.750236 -3.81274,3.750236 0,0 -38.2524091,0 -38.2524091,0 -2.0626299,0 -3.75023616,-1.687606 -3.75023616,-3.750236 0,0 0,-38.2524091 0,-38.2524091"
     id="path2" />
  <path
     style="fill:#000000;fill-opacity:1;fill-rule:evenodd;stroke:none"
     d="m 34.189653,19.126205 c 0,0 -1.062567,1.062567 -1.062567,4.187763 0,3.125197 1.062567,4.187764 1.062567,4.187764 0,0 1.750111,0 1.750111,0 0,0 0,-8.375527 0,-8.375527 0,0 -1.750111,0 -1.750111,0 z"
     id="path3" />
  <path
     style="fill:none;stroke:#000000;stroke-width:0.500031px;stroke-linecap:round;stroke-linejoin:round;stroke-miterlimit:4;stroke-dasharray:none;stroke-opacity:1"
     d="m 34.189653,19.126205 c 0,0 -1.062567,1.062567 -1.062567,4.187763 0,3.125197 1.062567,4.187764 1.062567,4.187764 0,0 1.750111,0 1.750111,0 0,0 0,-8.375527 0,-8.375527 0,0 -1.750111,0 -1.750111,0 0,0 0,0 0,0"
     id="path4" />
  <path
     style="fill:#000000;fill-opacity:1;fill-rule:evenodd;stroke:none"
     d="m 12.188267,19.126205 c 0,0 1.000063,1.062567 1.000063,4.187763 0,3.125197 -1.000063,4.187764 -1.000063,4.187764 0,0 -1.75011,0 -1.75011,0 0,0 0,-8.375527 0,-8.375527 0,0 1.75011,0 1.75011,0 z"
     id="path5" />
  <path
     style="fill:none;stroke:#000000;stroke-width:0.500031px;stroke-linecap:round;stroke-linejoin:round;stroke-miterlimit:4;stroke-dasharray:none;stroke-opacity:1"
     d="m 12.188267,19.126205 c 0,0 1.000063,1.062567 1.000063,4.187763 0,3.125197 -1.000063,4.187764 -1.000063,4.187764 0,0 -1.75011,0 -1.75011,0 0,0 0,-8.375527 0,-8.375527 0,0 1.75011,0 1.75011,0 0,0 0,0 0,0"
     id="path6" />
  <path
     style="fill:#000000;fill-opacity:1;fill-rule:evenodd;stroke:none"
     d="m 38.689937,25.25159 c 0,0 1.000063,-0.437527 1.000063,-1.937622 0,-1.43759 -1.000063,-1.937622 -1.000063,-1.937622 0,0 0,-1.312582 0,-1.312582 0,-9.375591 -7.812992,-15.5009766 -15.313465,-15.5009766 -8.000504,0 -15.8134957,6.0628816 -15.8134957,15.5009766 0,0 0,1.312582 0,1.312582 0,0 -1.000063,0.500032 -1.000063,1.937622 0,1.375087 1.000063,1.937622 1.000063,1.937622 0,0 1.7501099,0 1.7501099,0 0,0 0,-2.875181 0,-5.187826 0,-8.000504 6.5004098,-13.8133703 14.0633858,-13.8133703 6.812929,0.062504 13.563355,5.7503623 13.563355,13.8133703 0,0.625039 0,5.25033 0,5.25033 0,0 0.562535,-0.0625 0.562535,-0.0625 z"
     id="path7" />
  <path
     style="fill:none;stroke:#000000;stroke-width:0.500031px;stroke-linecap:round;stroke-linejoin:round;stroke-miterlimit:4;stroke-dasharray:none;stroke-opacity:1"
     d="m 38.689937,25.25159 c 0,0 1.000063,-0.437527 1.000063,-1.937622 0,-1.43759 -1.000063,-1.937622 -1.000063,-1.937622 0,0 0,-1.312582 0,-1.312582 0,-9.375591 -7.812992,-15.5009766 -15.313465,-15.5009766 -8.000504,0 -15.8134957,6.0628816 -15.8134957,15.5009766 0,0 0,1.312582 0,1.312582 0,0 -1.000063,0.500032 -1.000063,1.937622 0,1.375087 1.000063,1.937622 1.000063,1.937622 0,0 1.7501099,0 1.7501099,0 0,0 0,-2.875181 0,-5.187826 0,-8.000504 6.5004098,-13.8133703 14.0633858,-13.8133703 6.812929,0.062504 13.563355,5.7503623 13.563355,13.8133703 0,0.625039 0,5.25033 0,5.25033 0,0 0.562535,-0.0625 0.562535,-0.0625 0,0 1.187575,0 1.187575,0"
     id="path8" />
  <path
     style="fill:#000000;fill-opacity:1;fill-rule:evenodd;stroke:none"
     d="m 16.876063,42.190157 c 0,0 12.375779,0 12.375779,0 0,0 0,-4.625291 0,-4.625291 0,0 1.250079,0 1.250079,0 0,0 0,4.625291 0,4.625291 0,0 3.187701,0 3.187701,0 0,0 0.375023,-4.625291 0.375023,-5.25033 0,-2.125134 -0.375023,-3.187701 -1.43759,-4.43778 -1.75011,-2.125134 -4.43778,-2.937685 -9.68811,-2.937685 -3.625229,0 -7.187953,0.437528 -9.313087,2.937685 -1.000063,1.250079 -1.437591,2.312646 -1.437591,4.43778 0,1.000063 0.437528,5.25033 0.437528,5.25033 0,0 3.125197,0 3.125197,0 0,0 0,-4.625291 0,-4.625291 0,0 1.250079,0 1.250079,0 0,0 0,4.625291 0,4.625291 z"
     id="path9" />
  <path
     style="fill:none;stroke:#000000;stroke-width:0.500031px;stroke-linecap:round;stroke-linejoin:round;stroke-miterlimit:4;stroke-dasharray:none;stroke-opacity:1"
     d="m 16.876063,42.190157 c 0,0 12.375779,0 12.375779,0 0,0 0,-4.625291 0,-4.625291 0,0 1.250079,0 1.250079,0 0,0 0,4.625291 0,4.625291 0,0 3.187701,0 3.187701,0 0,0 0.375023,-4.625291 0.375023,-5.25033 0,-2.125134 -0.375023,-3.187701 -1.43759,-4.43778 -1.75011,-2.125134 -4.43778,-2.937685 -9.68811,-2.937685 -3.625229,0 -7.187953,0.437528 -9.313087,2.937685 -1.000063,1.250079 -1.437591,2.312646 -1.437591,4.43778 0,1.000063 0.437528,5.25033 0.437528,5.25033 0,0 3.125197,0 3.125197,0 0,0 0,-4.625291 0,-4.625291 0,0 1.250079,0 1.250079,0 0,0 0,4.625291 0,4.625291 0,0 -0.125008,0 -0.125008,0"
     id="path10" />
  <path
     style="fill:#000000;fill-opacity:1;fill-rule:evenodd;stroke:none"
     d="m 27.064204,23.939008 c 0,2.187638 -1.75011,4.000252 -3.937748,4.000252 -2.187637,0 -3.937748,-1.812614 -3.937748,-4.000252 0,-2.187638 1.750111,-3.937748 3.937748,-3.937748 2.187638,0 3.937748,1.75011 3.937748,3.937748 z"
     id="path11" />
  <path
     style="fill:none;stroke:#000000;stroke-width:0.500031px;stroke-linecap:round;stroke-linejoin:round;stroke-miterlimit:4;stroke-dasharray:none;stroke-opacity:1"
     d="m 27.064204,23.939008 c 0,2.187638 -1.75011,4.000252 -3.937748,4.000252 -2.187637,0 -3.937748,-1.812614 -3.937748,-4.000252 0,-2.187638 1.750111,-3.937748 3.937748,-3.937748 2.187638,0 3.937748,1.75011 3.937748,3.937748"
     id="path12" />
</svg>
