<?xml version="1.0" encoding="UTF-8" standalone="no"?>
<svg
   version="1.0"
   width="3.1103978mm"
   height="4.763216mm"
   id="svg2"
   xmlns="http://www.w3.org/2000/svg"
   xmlns:svg="http://www.w3.org/2000/svg">
  <defs
     id="defs1">
    <pattern
       id="EMFhbasepattern"
       patternUnits="userSpaceOnUse"
       width="6"
       height="6"
       x="0"
       y="0" />
  </defs>
  <path
     style="fill:#000000;fill-opacity:1;fill-rule:evenodd;stroke:none"
     d="m 8.3181177,3.7518082 c 0,0 1.1250713,-0.3125197 1.1250713,-0.3125197 C 9.005661,1.7516822 7.6305744,-0.06093196 5.0054091,0.00157198 c -3.1251969,0 -4.87530712,2.75017322 -5.000315,6.06288182 -0.12500788,4.1252602 2.0626299,6.8129292 5.2503307,6.7504252 2.1251339,-0.0625 3.6252284,-1.187575 4.3127712,-3.4377161 0,0 -1.1250704,-0.375024 -1.1250704,-0.375024 -0.5000315,2.0626301 -1.7501102,2.8126771 -3.3752126,2.8126771 -2.4376535,0 -3.8127401,-2.3751491 -3.8752441,-5.1253228 -0.062504,-3.8127401 1.6876063,-5.75036218 3.8127402,-5.75036218 2.5626614,0 3.0626929,1.87511808 3.3127086,2.81267718 z"
     id="path1" />
  <path
     style="fill:#000000;fill-opacity:1;fill-rule:evenodd;stroke:none"
     d="m 5.5054406,5.6269263 c 0,0 -1.1250709,0 -1.1250709,0 0,0 0,12.3757797 0,12.3757797 0,0 7.3754643,0 7.3754643,0 0,0 0,-1.000063 0,-1.000063 0,0 -6.3128974,0 -6.3128974,0 0,0 0,-11.3757167 0,-11.3757167 z"
     id="path2" />
</svg>
