<?xml version="1.0" encoding="UTF-8" standalone="no"?>
<svg
   version="1.0"
   width="3.3080423mm"
   height="4.7628002mm"
   id="svg2"
   xmlns="http://www.w3.org/2000/svg"
   xmlns:svg="http://www.w3.org/2000/svg">
  <defs
     id="defs1">
    <pattern
       id="EMFhbasepattern"
       patternUnits="userSpaceOnUse"
       width="6"
       height="6"
       x="0"
       y="0" />
  </defs>
  <path
     style="fill:#000000;fill-opacity:1;fill-rule:evenodd;stroke:none"
     d="m 9.5026479,0.43752752 c -0.562535,0 -0.8750547,0.062504 -1.1875744,0 C 8.0025538,0.37502362 7.1900026,0 5.5023963,0 3.5647743,0.06250394 2.4397034,0.93755902 1.9396719,1.3750866 -0.122958,3.2502047 0.00204988,5.6253543 0.00204988,5.8128661 -0.06045402,8.4380315 1.3146326,10.438158 3.0022389,11.313213 c 1.1250708,0.562535 2.1876378,0.562535 2.6876693,0.562535 1.1875748,0 2.1251338,-0.312519 2.8751811,-0.875055 1.1875746,-0.812551 1.7501107,-2.0001261 1.8126147,-2.125134 0,-0.062504 -0.0625,-0.1875118 -0.187512,-0.3125196 C 9.8776719,8.4380315 9.6901599,8.5005354 9.6901599,8.5005354 8.5650893,10.188142 7.6900341,10.688173 5.9399239,10.688173 3.4397664,10.750677 1.8146641,8.3755275 1.877168,5.8753701 c 0,-1.9376221 0.5000315,-3.062693 0.7500472,-3.4377166 0.9375591,-1.1875748 2.1251339,-1.56259838 3.1251969,-1.62510228 2.6876693,0 3.0626929,2.18763778 3.3752128,2.50015738 0.125008,0.1250079 0.500031,0.1250079 0.625039,0 0.0625,-0.1250078 -0.0625,-0.8125511 -0.125008,-1.3125826 -0.0625,-0.7500473 -0.125008,-1.43759058 -0.125008,-1.56259848 z"
     id="path1" />
  <path
     style="fill:#000000;fill-opacity:1;fill-rule:evenodd;stroke:none"
     d="m 11.627782,18.001134 c 0.250016,-0.500031 0.875055,-2.625165 0.875055,-2.750173 0,-0.31252 -0.500031,-0.437528 -0.562535,-0.31252 -0.31252,0.250016 -0.500032,1.000063 -1.125071,1.562599 -0.375024,0.312519 -1.1875751,0.562535 -2.1251339,0.625039 -0.6875433,0.0625 -1.6876063,0.0625 -2.0001259,-0.187512 -0.1875119,-0.250016 -0.2500158,-0.437527 -0.2500158,-3.062693 0,-2.812677 -0.062504,-5.0628189 0,-5.6253543 C 6.5024593,8.0005039 6.5024593,7.7504882 6.5649633,7.6254803 6.6899712,7.5004724 6.877483,7.4379685 7.0649948,7.4379685 7.5025223,7.3129606 7.7525381,7.3754645 7.815042,7.2504567 c 0.1875118,-0.1250079 0.1250079,-0.5000315 0,-0.6250394 -0.1250079,-0.062504 -0.6250394,0 -1.1250708,0 -1.1875749,0.062504 -1.4375906,0.062504 -2.3751497,0 -0.5625354,0 -0.8750551,-0.062504 -0.937559,0 -0.1250079,0.1250079 -0.1250079,0.2500158 -0.1250079,0.2500158 0,0 0,0.2500157 0.062504,0.3750236 0.1875118,0.1250078 0.3750236,0.062504 0.5625354,0.1250078 0.3125197,0.062504 0.6875433,0.1250079 0.8125512,0.2500158 0.2500157,0.2500157 0.1250078,1.3125827 0.1250078,4.9378117 0,1.812614 0,3.1877 0,3.625228 -0.062504,0.437527 -0.062504,0.750047 -0.1875118,0.875055 -0.1875118,0.187512 -1.0625669,0.187512 -1.1875748,0.250016 -0.1250078,0.187512 -0.1250078,0.312519 -0.1250078,0.375023 0.062504,0.187512 0.062504,0.250016 0.1250078,0.250016 0.1250079,0.0625 0.3750236,0.0625 0.4375276,0.0625 0.1250079,0 0.8125512,-0.0625 1.7501102,-0.0625 3.000189,-0.0625 6.0003778,0.0625 6.0003778,0.0625 z"
     id="path2" />
</svg>
