<?xml version="1.0" encoding="UTF-8" standalone="no"?>
<svg
   version="1.0"
   width="12.254288mm"
   height="12.254288mm"
   id="svg4"
   xmlns="http://www.w3.org/2000/svg"
   xmlns:svg="http://www.w3.org/2000/svg">
  <defs
     id="defs1">
    <pattern
       id="EMFhbasepattern"
       patternUnits="userSpaceOnUse"
       width="6"
       height="6"
       x="0"
       y="0" />
  </defs>
  <path
     style="fill:#03af7a;fill-opacity:1;fill-rule:evenodd;stroke:none"
     d="m 0.25001574,0.25001574 c 0,0 45.81538526,0 45.81538526,0 0,0 0,45.81538526 0,45.81538526 0,0 -45.81538526,0 -45.81538526,0 z"
     id="path1" />
  <path
     style="fill:none;stroke:#03af7a;stroke-width:0.500031px;stroke-linecap:round;stroke-linejoin:round;stroke-miterlimit:4;stroke-dasharray:none;stroke-opacity:1"
     d="m 0.25001574,0.25001574 c 0,0 45.81538526,0 45.81538526,0 0,0 0,45.81538526 0,45.81538526 0,0 -45.81538526,0 -45.81538526,0 0,0 0,-45.81538526 0,-45.81538526"
     id="path2" />
  <path
     style="fill:#ffffff;fill-opacity:1;fill-rule:evenodd;stroke:none"
     d="m 5.6878582,17.62611 c 0,0 11.8757478,0 11.8757478,0 0,0 0.0625,-11.8757479 0.0625,-11.8757479 0,0 11.063197,0 11.063197,0 0,0 0,11.8757479 0,11.8757479 0,0 11.875748,0 11.875748,0 0,0 0,11.063197 0,11.063197 0,0 -11.875748,0 -11.875748,0 0,0 0,11.875748 0,11.875748 0,0 -11.063197,0 -11.063197,0 0,0 0,-11.875748 0,-11.875748 0,0 -11.9382518,0 -11.9382518,0 z"
     id="path3" />
  <path
     style="fill:none;stroke:#ffffff;stroke-width:0.500031px;stroke-linecap:round;stroke-linejoin:round;stroke-miterlimit:4;stroke-dasharray:none;stroke-opacity:1"
     d="m 5.6878582,17.62611 c 0,0 11.8757478,0 11.8757478,0 0,0 0.0625,-11.8757479 0.0625,-11.8757479 0,0 11.063197,0 11.063197,0 0,0 0,11.8757479 0,11.8757479 0,0 11.875748,0 11.875748,0 0,0 0,11.063197 0,11.063197 0,0 -11.875748,0 -11.875748,0 0,0 0,11.875748 0,11.875748 0,0 -11.063197,0 -11.063197,0 0,0 0,-11.875748 0,-11.875748 0,0 -11.9382518,0 -11.9382518,0 0,0 0,-11.063197 0,-11.063197"
     id="path4" />
</svg>
