<?xml version="1.0" encoding="UTF-8" standalone="no"?>
<svg
   version="1.0"
   width="12.254288mm"
   height="12.254288mm"
   id="svg6"
   xmlns="http://www.w3.org/2000/svg"
   xmlns:svg="http://www.w3.org/2000/svg">
  <defs
     id="defs1">
    <pattern
       id="EMFhbasepattern"
       patternUnits="userSpaceOnUse"
       width="6"
       height="6"
       x="0"
       y="0" />
  </defs>
  <path
     style="fill:#ffffff;fill-opacity:1;fill-rule:evenodd;stroke:none"
     d="m 46.065401,23.188961 c 0,12.625795 -10.250645,22.876441 -22.938945,22.876441 -12.625795,0 -22.87644026,-10.250646 -22.87644026,-22.876441 0,-12.6883 10.25064526,-22.93894526 22.87644026,-22.93894526 12.6883,0 22.938945,10.25064526 22.938945,22.93894526 z"
     id="path1" />
  <path
     style="fill:none;stroke:#000000;stroke-width:0.500031px;stroke-linecap:round;stroke-linejoin:round;stroke-miterlimit:4;stroke-dasharray:none;stroke-opacity:1"
     d="m 46.065401,23.188961 c 0,12.625795 -10.250645,22.876441 -22.938945,22.876441 -12.625795,0 -22.87644026,-10.250646 -22.87644026,-22.876441 0,-12.6883 10.25064526,-22.93894526 22.87644026,-22.93894526 12.6883,0 22.938945,10.25064526 22.938945,22.93894526"
     id="path2" />
  <path
     style="fill:#000000;fill-opacity:1;fill-rule:evenodd;stroke:none"
     d="m 27.376724,17.93863 c 0,0 0,20.126268 0,20.126268 0,0 3.062693,0 3.062693,0 0,0 0,2.250141 0,2.250141 0,0 -14.625921,0 -14.625921,0 0,0 0,-2.250141 0,-2.250141 0,0 3.187701,0 3.187701,0 0,0 0,-17.876126 0,-17.876126 0,0 -3.062693,0 -3.062693,0 0,0 0,-2.250142 0,-2.250142 z"
     id="path3" />
  <path
     style="fill:none;stroke:#000000;stroke-width:0.500031px;stroke-linecap:round;stroke-linejoin:round;stroke-miterlimit:4;stroke-dasharray:none;stroke-opacity:1"
     d="m 27.376724,17.93863 c 0,0 0,20.126268 0,20.126268 0,0 3.062693,0 3.062693,0 0,0 0,2.250141 0,2.250141 0,0 -14.625921,0 -14.625921,0 0,0 0,-2.250141 0,-2.250141 0,0 3.187701,0 3.187701,0 0,0 0,-17.876126 0,-17.876126 0,0 -3.062693,0 -3.062693,0 0,0 0,-2.250142 0,-2.250142 0,0 11.43822,0 11.43822,0"
     id="path4" />
  <path
     style="fill:#000000;fill-opacity:1;fill-rule:evenodd;stroke:none"
     d="m 28.189275,11.063197 c 0,2.812677 -2.250141,5.062819 -5.062819,5.062819 -2.750173,0 -5.000315,-2.250142 -5.000315,-5.062819 0,-2.7501734 2.250142,-5.0003151 5.000315,-5.0003151 2.812678,0 5.062819,2.2501417 5.062819,5.0003151 z"
     id="path5" />
  <path
     style="fill:none;stroke:#000000;stroke-width:0.500031px;stroke-linecap:round;stroke-linejoin:round;stroke-miterlimit:4;stroke-dasharray:none;stroke-opacity:1"
     d="m 28.189275,11.063197 c 0,2.812677 -2.250141,5.062819 -5.062819,5.062819 -2.750173,0 -5.000315,-2.250142 -5.000315,-5.062819 0,-2.7501734 2.250142,-5.0003151 5.000315,-5.0003151 2.812678,0 5.062819,2.2501417 5.062819,5.0003151"
     id="path6" />
</svg>
