<?xml version="1.0" encoding="UTF-8" standalone="no"?>
<svg
   version="1.0"
   width="12.254288mm"
   height="12.254288mm"
   id="svg6"
   xmlns="http://www.w3.org/2000/svg"
   xmlns:svg="http://www.w3.org/2000/svg">
  <defs
     id="defs1">
    <pattern
       id="EMFhbasepattern"
       patternUnits="userSpaceOnUse"
       width="6"
       height="6"
       x="0"
       y="0" />
  </defs>
  <path
     style="fill:#ffffff;fill-opacity:1;fill-rule:evenodd;stroke:none"
     d="m 46.065401,23.188961 c 0,12.625795 -10.250645,22.876441 -22.938945,22.876441 -12.625795,0 -22.87644026,-10.250646 -22.87644026,-22.876441 0,-12.6883 10.25064526,-22.93894526 22.87644026,-22.93894526 12.6883,0 22.938945,10.25064526 22.938945,22.93894526 z"
     id="path1" />
  <path
     style="fill:none;stroke:#000000;stroke-width:0.500031px;stroke-linecap:round;stroke-linejoin:round;stroke-miterlimit:4;stroke-dasharray:none;stroke-opacity:1"
     d="m 46.065401,23.188961 c 0,12.625795 -10.250645,22.876441 -22.938945,22.876441 -12.625795,0 -22.87644026,-10.250646 -22.87644026,-22.876441 0,-12.6883 10.25064526,-22.93894526 22.87644026,-22.93894526 12.6883,0 22.938945,10.25064526 22.938945,22.93894526"
     id="path2" />
  <path
     style="fill:#000000;fill-opacity:1;fill-rule:evenodd;stroke:none"
     d="m 28.064267,37.064835 c 0,2.750173 -2.187637,5.000315 -4.937811,5.000315 -2.750173,0 -4.937811,-2.250142 -4.937811,-5.000315 0,-2.750174 2.187638,-4.937811 4.937811,-4.937811 2.750174,0 4.937811,2.187637 4.937811,4.937811 z"
     id="path3" />
  <path
     style="fill:none;stroke:#000000;stroke-width:0.500031px;stroke-linecap:round;stroke-linejoin:round;stroke-miterlimit:4;stroke-dasharray:none;stroke-opacity:1"
     d="m 28.064267,37.064835 c 0,2.750173 -2.187637,5.000315 -4.937811,5.000315 -2.750173,0 -4.937811,-2.250142 -4.937811,-5.000315 0,-2.750174 2.187638,-4.937811 4.937811,-4.937811 2.750174,0 4.937811,2.187637 4.937811,4.937811"
     id="path4" />
  <path
     style="fill:#000000;fill-opacity:1;fill-rule:evenodd;stroke:none"
     d="m 26.251653,30.064394 c 0.125008,-2.937685 -0.562535,-3.312709 3.81274,-6.687922 2.937685,-2.250141 5.562851,-4.375275 5.625355,-8.313023 0.0625,-5.2503311 -6.18789,-8.9380632 -12.125764,-8.7505514 -6.750425,0.1250079 -13.000819,4.5002834 -13.000819,10.6256694 0,0 7.750488,0 7.750488,0 0,-2.562661 2.37515,-4.312772 5.062819,-4.312772 1.937622,0 4.500284,0.250016 4.500284,2.437654 0,3.062693 -1.062567,3.062693 -3.750237,5.187827 -2.500157,2.000126 -4.875307,4.062756 -4.875307,6.312897 0,1.000063 0,1.875118 0,3.500221 z"
     id="path5" />
  <path
     style="fill:none;stroke:#000000;stroke-width:0.500031px;stroke-linecap:round;stroke-linejoin:round;stroke-miterlimit:4;stroke-dasharray:none;stroke-opacity:1"
     d="m 26.251653,30.064394 c 0.125008,-2.937685 -0.562535,-3.312709 3.81274,-6.687922 2.937685,-2.250141 5.562851,-4.375275 5.625355,-8.313023 0.0625,-5.2503311 -6.18789,-8.9380632 -12.125764,-8.7505514 -6.750425,0.1250079 -13.000819,4.5002834 -13.000819,10.6256694 0,0 7.750488,0 7.750488,0 0,-2.562661 2.37515,-4.312772 5.062819,-4.312772 1.937622,0 4.500284,0.250016 4.500284,2.437654 0,3.062693 -1.062567,3.062693 -3.750237,5.187827 -2.500157,2.000126 -4.875307,4.062756 -4.875307,6.312897 0,1.000063 0,1.875118 0,3.500221 0,0 7.000441,0 7.000441,0"
     id="path6" />
</svg>
