<?xml version="1.0" encoding="UTF-8" standalone="no"?>
<svg
   version="1.0"
   width="12.254288mm"
   height="12.254288mm"
   id="svg12"
   xmlns="http://www.w3.org/2000/svg"
   xmlns:svg="http://www.w3.org/2000/svg">
  <defs
     id="defs1">
    <pattern
       id="EMFhbasepattern"
       patternUnits="userSpaceOnUse"
       width="6"
       height="6"
       x="0"
       y="0" />
  </defs>
  <path
     style="fill:#ffffff;fill-opacity:1;fill-rule:evenodd;stroke:none"
     d="m 0.25001574,4.0627558 c 0,-2.1251338 1.68760626,-3.81274006 3.75023616,-3.81274006 0,0 38.2524091,0 38.2524091,0 2.125134,0 3.81274,1.68760626 3.81274,3.81274006 0,0 0,38.2524092 0,38.2524092 0,2.06263 -1.687606,3.750237 -3.81274,3.750237 0,0 -38.2524091,0 -38.2524091,0 -2.0626299,0 -3.75023616,-1.687607 -3.75023616,-3.750237 z"
     id="path1" />
  <path
     style="fill:none;stroke:#000000;stroke-width:0.500031px;stroke-linecap:round;stroke-linejoin:round;stroke-miterlimit:4;stroke-dasharray:none;stroke-opacity:1"
     d="m 0.25001574,4.0627558 c 0,-2.1251338 1.68760626,-3.81274006 3.75023616,-3.81274006 0,0 38.2524091,0 38.2524091,0 2.125134,0 3.81274,1.68760626 3.81274,3.81274006 0,0 0,38.2524092 0,38.2524092 0,2.06263 -1.687606,3.750237 -3.81274,3.750237 0,0 -38.2524091,0 -38.2524091,0 -2.0626299,0 -3.75023616,-1.687607 -3.75023616,-3.750237 0,0 0,-38.2524092 0,-38.2524092"
     id="path2" />
  <path
     style="fill:#000000;fill-opacity:1;fill-rule:evenodd;stroke:none"
     d="m 41.877638,25.56411 c 0,0 -37.5023625,0 -37.5023625,0 0,0 0,-1.687606 0,-1.687606 0,0 37.5023625,0 37.5023625,0 z"
     id="path3" />
  <path
     style="fill:none;stroke:#000000;stroke-width:0.500031px;stroke-linecap:round;stroke-linejoin:round;stroke-miterlimit:4;stroke-dasharray:none;stroke-opacity:1"
     d="m 41.877638,25.56411 c 0,0 -37.5023625,0 -37.5023625,0 0,0 0,-1.687606 0,-1.687606 0,0 37.5023625,0 37.5023625,0 0,0 0,1.687606 0,1.687606"
     id="path4" />
  <path
     style="fill:#000000;fill-opacity:1;fill-rule:evenodd;stroke:none"
     d="m 34.502173,8.5005354 c 0,1.3750866 -1.125071,2.5001576 -2.500158,2.5001576 -1.312582,0 -2.437653,-1.125071 -2.437653,-2.5001576 0,-1.3125827 1.125071,-2.4376536 2.437653,-2.4376536 1.375087,0 2.500158,1.1250709 2.500158,2.4376536 z"
     id="path5" />
  <path
     style="fill:none;stroke:#000000;stroke-width:0.500031px;stroke-linecap:round;stroke-linejoin:round;stroke-miterlimit:4;stroke-dasharray:none;stroke-opacity:1"
     d="m 34.502173,8.5005354 c 0,1.3750866 -1.125071,2.5001576 -2.500158,2.5001576 -1.312582,0 -2.437653,-1.125071 -2.437653,-2.5001576 0,-1.3125827 1.125071,-2.4376536 2.437653,-2.4376536 1.375087,0 2.500158,1.1250709 2.500158,2.4376536"
     id="path6" />
  <path
     style="fill:#000000;fill-opacity:1;fill-rule:evenodd;stroke:none"
     d="m 11.563228,8.5005354 c 0,-1.3125827 1.125071,-2.4376536 2.500158,-2.4376536 1.312582,0 2.437653,1.1250709 2.437653,2.4376536 0,1.3750866 -1.125071,2.5001576 -2.437653,2.5001576 -1.375087,0 -2.500158,-1.125071 -2.500158,-2.5001576 z"
     id="path7" />
  <path
     style="fill:none;stroke:#000000;stroke-width:0.500031px;stroke-linecap:round;stroke-linejoin:round;stroke-miterlimit:4;stroke-dasharray:none;stroke-opacity:1"
     d="m 11.563228,8.5005354 c 0,-1.3125827 1.125071,-2.4376536 2.500158,-2.4376536 1.312582,0 2.437653,1.1250709 2.437653,2.4376536 0,1.3750866 -1.125071,2.5001576 -2.437653,2.5001576 -1.375087,0 -2.500158,-1.125071 -2.500158,-2.5001576"
     id="path8" />
  <path
     style="fill:#000000;fill-opacity:1;fill-rule:evenodd;stroke:none"
     d="m 31.501984,25.751622 c 0,0 0.812551,0 0.812551,0 0,0 0.187512,14.500913 0.187512,14.500913 0,0 2.812677,0 2.812677,0 0,0 1.062567,-16.376031 1.062567,-16.376031 0,0 1.500095,0.0625 1.562599,0.0625 0,0 0.125007,-3.375213 0.250015,-7.062945 0,-1.250079 0.0625,-2.312646 -0.500031,-3.187701 -0.750047,-1.125071 -2.750173,-1.75011 -5.750362,-1.75011 -2.625166,0 -4.875308,-0.187512 -6.18789,2.750173 -0.875055,2.000126 -3.687732,8.125512 -3.687732,8.125512 0,0 2.937685,0 2.937685,0 0,0 2.125133,-4.062756 2.187637,-4.062756 0,0 1.500095,21.501354 1.500095,21.501354 0,0 2.750173,0 2.750173,0 z"
     id="path9" />
  <path
     style="fill:none;stroke:#000000;stroke-width:0.500031px;stroke-linecap:round;stroke-linejoin:round;stroke-miterlimit:4;stroke-dasharray:none;stroke-opacity:1"
     d="m 31.501984,25.751622 c 0,0 0.812551,0 0.812551,0 0,0 0.187512,14.500913 0.187512,14.500913 0,0 2.812677,0 2.812677,0 0,0 1.062567,-16.376031 1.062567,-16.376031 0,0 1.500095,0.0625 1.562599,0.0625 0,0 0.125007,-3.375213 0.250015,-7.062945 0,-1.250079 0.0625,-2.312646 -0.500031,-3.187701 -0.750047,-1.125071 -2.750173,-1.75011 -5.750362,-1.75011 -2.625166,0 -4.875308,-0.187512 -6.18789,2.750173 -0.875055,2.000126 -3.687732,8.125512 -3.687732,8.125512 0,0 2.937685,0 2.937685,0 0,0 2.125133,-4.062756 2.187637,-4.062756 0,0 1.500095,21.501354 1.500095,21.501354 0,0 2.750173,0 2.750173,0 0,0 0.0625,-14.500913 0.0625,-14.500913"
     id="path10" />
  <path
     style="fill:#000000;fill-opacity:1;fill-rule:evenodd;stroke:none"
     d="m 13.50085,11.938252 c 0,0 -3.437716,0.0625 -4.4377788,1.500094 -1.2500791,1.750111 -2.1251343,9.375591 -2.1251343,9.375591 0,0 2.1876383,0 2.1876383,0 0,0 1.3750858,-6.375402 1.3750858,-6.375402 0,0 0.31252,6.375402 0.31252,6.375402 3.437716,0 6.500409,0 6.500409,0 0,0 0.250016,-6.375402 0.250016,-6.375402 0,0 1.375087,2.875181 2.437654,2.875181 1.12507,-0.0625 3.375212,-5.500346 3.375212,-5.500346 0,0 -2.312645,0 -2.250142,0 0,-0.0625 -1.000063,1.75011 -1.062566,1.687606 -1.375087,-2.562661 -1.187575,-3.562724 -6.562914,-3.562724 z"
     id="path11" />
  <path
     style="fill:none;stroke:#000000;stroke-width:0.500031px;stroke-linecap:round;stroke-linejoin:round;stroke-miterlimit:4;stroke-dasharray:none;stroke-opacity:1"
     d="m 13.50085,11.938252 c 0,0 -3.437716,0.0625 -4.4377788,1.500094 -1.2500791,1.750111 -2.1251343,9.375591 -2.1251343,9.375591 0,0 2.1876383,0 2.1876383,0 0,0 1.3750858,-6.375402 1.3750858,-6.375402 0,0 0.31252,6.375402 0.31252,6.375402 3.437716,0 6.500409,0 6.500409,0 0,0 0.250016,-6.375402 0.250016,-6.375402 0,0 1.375087,2.875181 2.437654,2.875181 1.12507,-0.0625 3.375212,-5.500346 3.375212,-5.500346 0,0 -2.312645,0 -2.250142,0 0,-0.0625 -1.000063,1.75011 -1.062566,1.687606 -1.375087,-2.562661 -1.187575,-3.562724 -6.562914,-3.562724"
     id="path12" />
</svg>
