<?xml version="1.0" encoding="UTF-8" standalone="no"?>
<!-- This file was created by the DynamicDraw's "SVG Export" plug-in version 1.1.2.-->

<svg
   xmlns:dc="http://purl.org/dc/elements/1.1/"
   xmlns:cc="http://creativecommons.org/ns#"
   xmlns:rdf="http://www.w3.org/1999/02/22-rdf-syntax-ns#"
   xmlns:svg="http://www.w3.org/2000/svg"
   xmlns="http://www.w3.org/2000/svg"
   xmlns:sodipodi="http://sodipodi.sourceforge.net/DTD/sodipodi-0.dtd"
   xmlns:inkscape="http://www.inkscape.org/namespaces/inkscape"
   width="5.2884998mm"
   height="7.8115578mm"
   viewBox="0 0 5.2885 7.8115581"
   version="1.1"
   id="svg26"
   sodipodi:docname="椅子C横.svg"
   inkscape:version="0.92.4 (5da689c313, 2019-01-14)">
  <metadata
     id="metadata32">
    <rdf:RDF>
      <cc:Work
         rdf:about="">
        <dc:format>image/svg+xml</dc:format>
        <dc:type
           rdf:resource="http://purl.org/dc/dcmitype/StillImage" />
      </cc:Work>
    </rdf:RDF>
  </metadata>
  <defs
     id="defs30" />
  <sodipodi:namedview
     pagecolor="#ffffff"
     bordercolor="#666666"
     borderopacity="1"
     objecttolerance="10"
     gridtolerance="10"
     guidetolerance="10"
     inkscape:pageopacity="0"
     inkscape:pageshadow="2"
     inkscape:window-width="780"
     inkscape:window-height="480"
     id="namedview28"
     showgrid="false"
     inkscape:zoom="7.4690992"
     inkscape:cx="10.041572"
     inkscape:cy="14.761694"
     inkscape:window-x="0"
     inkscape:window-y="0"
     inkscape:window-maximized="0"
     inkscape:current-layer="svg26" />
  <g
     style="stroke-linecap:round;stroke-linejoin:round"
     id="g24"
     transform="translate(-0.24916726,-0.27414031)">
    <!-- start DynamicDraw object [1], type : FDOJ_GROUP -->
    <g
       id="g22">
      <!-- group -->
      <!-- start DynamicDraw object [1], type : FDOJ_POLY -->
      <path
         d="m 4.43581,3.849278 c 0,0 0.088811,0 0.088811,0 0,-0.177621 -0.088811,-0.532862 -0.088811,-0.532862 0,-0.088811 0.266431,-0.088811 0.266431,-0.088811 0,0 0,-0.057411 0,-0.08881 0,0 -0.226713,-0.00938 -0.266431,-0.08881 C 4.347,2.872364 4.347,2.073071 4.347,2.073071 c 0,0 -0.08881,0 -0.08881,0"
         style="fill:#ffffff;stroke:#000000;stroke-width:0.075"
         id="path2"
         inkscape:connector-curvature="0" />
      <!-- end DynamicDraw object [1], type : FDOJ_POLY -->
      <!-- start DynamicDraw object [2], type : FDOJ_WIDE_POLY -->
      <polyline
         points="0.553249,4.061556 0.677946,4.070256 0.416179,7.822251 4.806431,7.822251 4.194950,3.541883 4.318694,3.524205 4.940994,7.947251 0.286667,7.947251 0.553249,4.061556 "
         style="fill:#ffffff;stroke:#000000;stroke-width:0.075"
         id="polyline4" />
      <!-- end DynamicDraw object [2], type : FDOJ_WIDE_POLY -->
      <!-- start DynamicDraw object [3], type : FDOJ_POLY -->
      <path
         d="m 0.437977,3.977095 c 0,0 0.266431,-0.266431 1.065724,-0.266431 0.710483,0 0.664394,0.015299 1.332155,0.088811 1.01875,0.11215 2.042638,0.17762 2.042638,0.17762 0,0 0,0.177621 0,0.177621 -0.804212,0 -2.66431,-0.266431 -3.374793,-0.266431 -0.355241,0 -0.976914,0.266431 -0.976914,0.266431 0,0 -0.08881,-0.177621 -0.08881,-0.177621"
         style="fill:#ffffff;stroke:#000000;stroke-width:0.075"
         id="path6"
         inkscape:connector-curvature="0" />
      <!-- end DynamicDraw object [3], type : FDOJ_POLY -->
      <!-- start DynamicDraw object [4], type : FDOJ_POLY -->
      <polyline
         points="0.437977,3.977095 0.526787,4.154716 0.437977,4.332337 0.349167,4.154716 0.437977,3.977095 "
         style="fill:#ffffff;stroke:#000000;stroke-width:0.075"
         id="polyline8" />
      <!-- end DynamicDraw object [4], type : FDOJ_POLY -->
      <!-- start DynamicDraw object [5], type : FDOJ_POLY -->
      <path
         d="M 4.168011,3.799475 C 4.079201,3.355423 3.931989,2.817727 3.990391,2.46732 4.079201,1.934457 4.523253,0.424682 4.612063,0.335871 c 0.088811,-0.08881 0.888104,0.088811 0.888104,0.177621 0,0.177621 -0.355242,0.08881 -0.355242,0.08881 -0.08881,0 -0.355241,0 -0.355241,0 C 4.700874,0.691113 4.434443,1.490406 4.256822,2.46732 4.20838,2.733751 4.434443,3.799475 4.434443,3.799475 c 0,0 0.08881,0 -0.177621,0"
         style="fill:#ffffff;stroke:#000000;stroke-width:0.075"
         id="path10"
         inkscape:connector-curvature="0" />
      <!-- end DynamicDraw object [5], type : FDOJ_POLY -->
      <!-- start DynamicDraw object [6], type : FDOJ_POLY -->
      <path
         d="m 4.702241,3.138795 c 0,0 -0.062863,-0.036917 -0.08881,-0.08881 -0.08881,-0.177621 -0.0427,-0.626882 0,-0.799293 C 4.683454,1.967958 5.223984,0.610034 5.174194,0.608614 4.952917,0.602302 4.777699,0.617051 4.777699,0.617051 c 0,0 -0.22438,0.509455 -0.341889,1.011968 -0.090911,0.388772 -0.17762,0.710483 -0.17762,0.888104 0,0.311492 0.08881,0.532862 0.17762,0.621672 0.088811,0.08881 0.266431,0 0.266431,0"
         style="fill:#ffffff;stroke:#000000;stroke-width:0.075"
         id="path12"
         inkscape:connector-curvature="0" />
      <!-- end DynamicDraw object [6], type : FDOJ_POLY -->
      <!-- start DynamicDraw object [7], type : FDOJ_RECT -->
      <rect
         x="0.794586"
         y="7.9345541"
         width="0.34856901"
         height="0.113644"
         style="fill:#000000;stroke:#000000;stroke-width:0.075"
         id="rect14" />
      <g
         transform="rotate(-106.93834,0.968871,7.991376)"
         id="g16">
        <!-- rotation -->
      </g>
      <!-- rotation -->
      <!-- end DynamicDraw object [7], type : FDOJ_RECT -->
      <!-- start DynamicDraw object [8], type : FDOJ_RECT -->
      <rect
         x="4.3470001"
         y="7.9345541"
         width="0.34856901"
         height="0.113644"
         style="fill:#000000;stroke:#000000;stroke-width:0.075"
         id="rect18" />
      <g
         transform="rotate(-106.93834,4.521284,7.991376)"
         id="g20">
        <!-- rotation -->
      </g>
      <!-- rotation -->
      <!-- end DynamicDraw object [8], type : FDOJ_RECT -->
    </g>
    <!-- group -->
    <!-- end DynamicDraw object [1], type : FDOJ_GROUP -->
  </g>
  <!-- stroke-linecap, etc -->
</svg>
