<?xml version="1.0" encoding="UTF-8" standalone="no"?>
<svg
   version="1.0"
   width="10.376984mm"
   height="9.0422049mm"
   id="svg4"
   xmlns="http://www.w3.org/2000/svg"
   xmlns:svg="http://www.w3.org/2000/svg">
  <defs
     id="defs1">
    <pattern
       id="EMFhbasepattern"
       patternUnits="userSpaceOnUse"
       width="6"
       height="6"
       x="0"
       y="0" />
  </defs>
  <path
     style="fill:none;fill-opacity:1;fill-rule:evenodd;stroke:#000000;stroke-width:0.472441;stroke-dasharray:none;stroke-opacity:1"
     d="M 5.8077808,0.49329765 C 1.8262204,1.5462723 -0.90493266,7.2718222 0.70743474,13.22771 1.5300711,16.255012 3.6360205,18.821638 6.46589,29.417195 c 0.7239201,2.665343 3.5208831,5.231968 6.844335,4.34352 3.323452,-0.888447 3.455073,-5.659738 2.731154,-8.325081 C 12.323061,11.516626 16.436244,13.984535 14.396105,5.9885093 13.27732,1.6778941 9.7893421,-0.55967695 5.8077808,0.49329765 Z"
     id="path1" />
  <path
     style="fill:none;fill-opacity:1;fill-rule:evenodd;stroke:#000000;stroke-width:0.472441;stroke-dasharray:none;stroke-opacity:1"
     d="m 33.41546,0.49329765 c 3.948655,1.05297465 6.712715,6.77852455 5.100346,12.73441235 -0.822636,3.027302 -2.928585,5.593928 -5.758454,16.189485 -0.723921,2.665343 -3.520885,5.231968 -6.844336,4.34352 C 22.589564,32.872268 22.457943,28.100977 23.181863,25.435634 26.900179,11.516626 22.754092,13.984535 24.827136,5.9885093 25.945921,1.6778941 29.4339,-0.55967695 33.41546,0.49329765 Z"
     id="path3" />
</svg>
