<?xml version="1.0" encoding="UTF-8" standalone="no"?>
<svg
   version="1.0"
   width="9.8660765mm"
   height="8.6554117mm"
   id="svg8"
   xmlns="http://www.w3.org/2000/svg"
   xmlns:svg="http://www.w3.org/2000/svg">
  <defs
     id="defs1">
    <pattern
       id="EMFhbasepattern"
       patternUnits="userSpaceOnUse"
       width="6"
       height="6"
       x="0"
       y="0" />
  </defs>
  <path
     style="fill:none;fill-opacity:1;fill-rule:evenodd;stroke:#000000;stroke-width:0.472441;stroke-dasharray:none;stroke-opacity:1"
     d="m 14.88491,22.744563 c -0.906307,0.250016 -9.5005985,2.750173 -9.5005985,2.750173 0.3437716,1.156323 0.4062755,1.281331 0.7812992,2.718922 0.6875433,2.500157 3.3439604,4.937811 6.5004093,4.094008 3.156449,-0.843804 3.281457,-5.375339 2.593913,-7.906748 -0.281267,-1.000063 -0.187511,-0.812552 -0.375023,-1.656355 z"
     id="path1" />
  <path
     style="fill:none;stroke:#000000;stroke-width:0.472441;stroke-linecap:round;stroke-linejoin:round;stroke-miterlimit:4;stroke-dasharray:none;stroke-opacity:1"
     d="m 14.88491,22.744563 c -0.906307,0.250016 -9.5005985,2.750173 -9.5005985,2.750173 0.3437716,1.156323 0.4062755,1.281331 0.7812992,2.718922 0.6875433,2.500157 3.3439604,4.937811 6.5004093,4.094008 3.156449,-0.843804 3.281457,-5.375339 2.593913,-7.906748 -0.281267,-1.000063 -0.187511,-0.812552 -0.375023,-1.656355"
     id="path2" />
  <path
     style="fill:none;fill-opacity:1;fill-rule:evenodd;stroke:#000000;stroke-width:0.472441;stroke-dasharray:none;stroke-opacity:1"
     d="M 4.3529965,22.244532 C 4.853028,22.119524 14.103611,19.52561 14.103611,19.52561 12.634768,11.556359 15.353689,12.462666 13.666083,5.9622562 13.416067,4.9621932 10.259618,-0.69441315 5.821839,0.36815375 1.2590516,1.4619727 -0.33479882,7.9623821 0.41524846,11.58761 1.0715398,14.994075 2.6966422,17.306721 4.3529965,22.244532 Z"
     id="path3" />
  <path
     style="fill:none;stroke:#000000;stroke-width:0.472441;stroke-linecap:round;stroke-linejoin:round;stroke-miterlimit:4;stroke-dasharray:none;stroke-opacity:1"
     d="M 4.3529965,22.244532 C 4.853028,22.119524 14.103611,19.52561 14.103611,19.52561 12.634768,11.556359 15.353689,12.462666 13.666083,5.9622562 13.416067,4.9621932 10.259618,-0.69441315 5.821839,0.36815375 1.2590516,1.4619727 -0.33479882,7.9623821 0.41524846,11.58761 1.0715398,14.994075 2.6966422,17.306721 4.3529965,22.244532"
     id="path4" />
  <path
     style="fill:none;fill-opacity:1;fill-rule:evenodd;stroke:#000000;stroke-width:0.472441;stroke-dasharray:none;stroke-opacity:1"
     d="m 22.416634,22.744563 c 0.906307,0.250016 9.500599,2.750173 9.500599,2.750173 -0.343772,1.156323 -0.437528,1.281331 -0.812552,2.718922 -0.656291,2.500157 -3.34396,4.937811 -6.500409,4.094008 -3.125197,-0.843804 -3.281457,-5.375339 -2.593913,-7.906748 0.281267,-1.000063 0.187511,-0.812552 0.406275,-1.656355 z"
     id="path5" />
  <path
     style="fill:none;stroke:#000000;stroke-width:0.472441;stroke-linecap:round;stroke-linejoin:round;stroke-miterlimit:4;stroke-dasharray:none;stroke-opacity:1"
     d="m 22.416634,22.744563 c 0.906307,0.250016 9.500599,2.750173 9.500599,2.750173 -0.343772,1.156323 -0.437528,1.281331 -0.812552,2.718922 -0.656291,2.500157 -3.34396,4.937811 -6.500409,4.094008 -3.125197,-0.843804 -3.281457,-5.375339 -2.593913,-7.906748 0.281267,-1.000063 0.187511,-0.812552 0.406275,-1.656355"
     id="path6" />
  <path
     style="fill:none;fill-opacity:1;fill-rule:evenodd;stroke:#000000;stroke-width:0.472441;stroke-dasharray:none;stroke-opacity:1"
     d="M 32.917296,22.244532 C 32.417264,22.119524 23.166681,19.52561 23.166681,19.52561 24.666776,11.556359 21.947855,12.462666 23.604209,5.9622562 23.885477,4.9621932 27.010674,-0.69441315 31.448453,0.36815375 36.01124,1.4619727 37.605091,7.9623821 36.886296,11.58761 c -0.687544,3.406465 -2.312646,5.719111 -3.969,10.656922 z"
     id="path7" />
  <path
     style="fill:none;stroke:#000000;stroke-width:0.472441;stroke-linecap:round;stroke-linejoin:round;stroke-miterlimit:4;stroke-dasharray:none;stroke-opacity:1"
     d="M 32.917296,22.244532 C 32.417264,22.119524 23.166681,19.52561 23.166681,19.52561 24.666776,11.556359 21.947855,12.462666 23.604209,5.9622562 23.885477,4.9621932 27.010674,-0.69441315 31.448453,0.36815375 36.01124,1.4619727 37.605091,7.9623821 36.886296,11.58761 c -0.687544,3.406465 -2.312646,5.719111 -3.969,10.656922"
     id="path8" />
</svg>
