<?xml version="1.0" encoding="UTF-8" standalone="no"?>
<svg
   version="1.0"
   width="8.0031519mm"
   height="8.8657827mm"
   id="svg8"
   xmlns="http://www.w3.org/2000/svg"
   xmlns:svg="http://www.w3.org/2000/svg">
  <defs
     id="defs1">
    <pattern
       id="EMFhbasepattern"
       patternUnits="userSpaceOnUse"
       width="6"
       height="6"
       x="0"
       y="0" />
  </defs>
  <path
     style="fill:none;fill-opacity:1;fill-rule:evenodd;stroke:#000000;stroke-width:0.472441;stroke-dasharray:none;stroke-opacity:1"
     d="m 11.733555,28.566499 c -0.437528,0.125008 -4.5940402,1.343834 -4.5940402,1.343834 0.1562598,0.531284 0.1875118,0.593788 0.3750236,1.281331 0.3125197,1.218827 1.6251021,2.406402 3.1564496,2.000126 1.500094,-0.406276 1.562598,-2.593913 1.250078,-3.81274 -0.125007,-0.500032 -0.09376,-0.406276 -0.187511,-0.812551 z"
     id="path1" />
  <path
     style="fill:none;stroke:#000000;stroke-width:0.472441;stroke-linecap:round;stroke-linejoin:round;stroke-miterlimit:4;stroke-dasharray:none;stroke-opacity:1"
     d="m 11.733555,28.566499 c -0.437528,0.125008 -4.5940402,1.343834 -4.5940402,1.343834 0.1562598,0.531284 0.1875118,0.593788 0.3750236,1.281331 0.3125197,1.218827 1.6251021,2.406402 3.1564496,2.000126 1.500094,-0.406276 1.562598,-2.593913 1.250078,-3.81274 -0.125007,-0.500032 -0.09376,-0.406276 -0.187511,-0.812551"
     id="path2" />
  <path
     style="fill:none;fill-opacity:1;fill-rule:evenodd;stroke:#000000;stroke-width:0.472441;stroke-dasharray:none;stroke-opacity:1"
     d="m 1.4516565,17.815822 c 0,0 10.2193945,-2.718922 10.2193945,-2.718922 0,0 0.15626,-2.343897 -0.812551,-6.0003777 C 10.045948,6.0650816 6.4519715,-0.37282393 3.983066,0.28346747 0.26408171,1.2835305 -0.32970569,11.565428 0.67035731,15.346916 c 0.2500158,0.906307 0.78129919,2.468906 0.78129919,2.468906 z"
     id="path3" />
  <path
     style="fill:none;stroke:#000000;stroke-width:0.472441;stroke-linecap:round;stroke-linejoin:round;stroke-miterlimit:4;stroke-dasharray:none;stroke-opacity:1"
     d="m 1.4516565,17.815822 c 0,0 10.2193945,-2.718922 10.2193945,-2.718922 0,0 0.15626,-2.343897 -0.812551,-6.0003777 C 10.045948,6.0650816 6.4519715,-0.37282393 3.983066,0.28346747 0.26408171,1.2835305 -0.32970569,11.565428 0.67035731,15.346916 c 0.2500158,0.906307 0.78129919,2.468906 0.78129919,2.468906"
     id="path4" />
  <path
     style="fill:none;fill-opacity:1;fill-rule:evenodd;stroke:#000000;stroke-width:0.472441;stroke-dasharray:none;stroke-opacity:1"
     d="m 18.515232,28.566499 c 0.437527,0.125008 4.594039,1.343834 4.594039,1.343834 -0.15626,0.531284 -0.187512,0.593788 -0.375023,1.281331 -0.343772,1.218827 -1.625103,2.406402 -3.156449,2.000126 -1.500095,-0.406276 -1.562599,-2.593913 -1.250079,-3.81274 0.125008,-0.500032 0.09376,-0.406276 0.187512,-0.812551 z"
     id="path5" />
  <path
     style="fill:none;stroke:#000000;stroke-width:0.472441;stroke-linecap:round;stroke-linejoin:round;stroke-miterlimit:4;stroke-dasharray:none;stroke-opacity:1"
     d="m 18.515232,28.566499 c 0.437527,0.125008 4.594039,1.343834 4.594039,1.343834 -0.15626,0.531284 -0.187512,0.593788 -0.375023,1.281331 -0.343772,1.218827 -1.625103,2.406402 -3.156449,2.000126 -1.500095,-0.406276 -1.562599,-2.593913 -1.250079,-3.81274 0.125008,-0.500032 0.09376,-0.406276 0.187512,-0.812551"
     id="path6" />
  <path
     style="fill:none;fill-opacity:1;fill-rule:evenodd;stroke:#000000;stroke-width:0.472441;stroke-dasharray:none;stroke-opacity:1"
     d="m 28.765878,17.815822 c 0,0 -10.188142,-2.718922 -10.188142,-2.718922 0,0 -0.187512,-2.343897 0.812551,-6.0003777 0.812551,-3.0314407 4.406528,-9.46934623 6.844181,-8.81305483 3.750236,1.00006303 4.344024,11.28196053 3.343961,15.06344853 -0.250016,0.906307 -0.812551,2.468906 -0.812551,2.468906 z"
     id="path7" />
  <path
     style="fill:none;stroke:#000000;stroke-width:0.472441;stroke-linecap:round;stroke-linejoin:round;stroke-miterlimit:4;stroke-dasharray:none;stroke-opacity:1"
     d="m 28.765878,17.815822 c 0,0 -10.188142,-2.718922 -10.188142,-2.718922 0,0 -0.187512,-2.343897 0.812551,-6.0003777 0.812551,-3.0314407 4.406528,-9.46934623 6.844181,-8.81305483 3.750236,1.00006303 4.344024,11.28196053 3.343961,15.06344853 -0.250016,0.906307 -0.812551,2.468906 -0.812551,2.468906"
     id="path8" />
</svg>
