<?xml version="1.0" encoding="UTF-8" standalone="no"?>
<!-- This file was created by the DynamicDraw's "SVG Export" plug-in version 1.1.2.-->

<svg
   xmlns:dc="http://purl.org/dc/elements/1.1/"
   xmlns:cc="http://creativecommons.org/ns#"
   xmlns:rdf="http://www.w3.org/1999/02/22-rdf-syntax-ns#"
   xmlns:svg="http://www.w3.org/2000/svg"
   xmlns="http://www.w3.org/2000/svg"
   xmlns:sodipodi="http://sodipodi.sourceforge.net/DTD/sodipodi-0.dtd"
   xmlns:inkscape="http://www.inkscape.org/namespaces/inkscape"
   width="4.3170004mm"
   height="8.5605946mm"
   viewBox="0 0 4.3170006 8.5605944"
   version="1.1"
   id="svg48"
   sodipodi:docname="椅子パイプA前.svg"
   inkscape:version="0.92.4 (5da689c313, 2019-01-14)">
  <metadata
     id="metadata54">
    <rdf:RDF>
      <cc:Work
         rdf:about="">
        <dc:format>image/svg+xml</dc:format>
        <dc:type
           rdf:resource="http://purl.org/dc/dcmitype/StillImage" />
      </cc:Work>
    </rdf:RDF>
  </metadata>
  <defs
     id="defs52" />
  <sodipodi:namedview
     pagecolor="#ffffff"
     bordercolor="#666666"
     borderopacity="1"
     objecttolerance="10"
     gridtolerance="10"
     guidetolerance="10"
     inkscape:pageopacity="0"
     inkscape:pageshadow="2"
     inkscape:window-width="780"
     inkscape:window-height="480"
     id="namedview50"
     showgrid="false"
     inkscape:zoom="6.8549418"
     inkscape:cx="8.1574786"
     inkscape:cy="16.177104"
     inkscape:window-x="0"
     inkscape:window-y="0"
     inkscape:window-maximized="0"
     inkscape:current-layer="svg48" />
  <g
     style="stroke-linecap:round;stroke-linejoin:round"
     id="g46"
     transform="translate(-0.274167,-0.27409753)">
    <!-- start DynamicDraw object [1], type : FDOJ_GROUP -->
    <g
       id="g44">
      <!-- group -->
      <!-- start DynamicDraw object [1], type : FDOJ_POLY -->
      <path
         d="m 2.496939,0.440212 c -0.835545,0 -2.056727,-0.064273 -2.056727,0.514182 0,0.030666 0,0.771273 0,0.771273 C 1.018667,1.661394 1.468576,1.596072 2.51248,1.596072"
         style="fill:#ffffff;stroke:#000000;stroke-width:0.075"
         id="path2"
         inkscape:connector-curvature="0" />
      <!-- end DynamicDraw object [1], type : FDOJ_POLY -->
      <!-- start DynamicDraw object [2], type : FDOJ_GROUP -->
      <g
         id="g8">
        <!-- group -->
        <!-- start DynamicDraw object [2], type : FDOJ_POLY -->
        <path
           d="m 2.432667,0.313188 c -0.707,0 -2.121,-0.064273 -2.121,0.642727 0,1.221182 0,6.010605 0,7.584182 0,0.128545 0.089138,0.257091 0.257091,0.257091 0,0 1.863909,0 1.863909,0"
           style="fill:none;stroke:#000000;stroke-width:0.075"
           id="path4"
           inkscape:connector-curvature="0" />
        <!-- end DynamicDraw object [2], type : FDOJ_POLY -->
        <!-- start DynamicDraw object [3], type : FDOJ_POLY -->
        <path
           d="m 2.432667,0.440212 c -0.771273,0 -1.992455,-0.064273 -1.992455,0.522855 0,1.240483 0,6.105606 0,7.704054 0,0 0,0 0,0 0,0 1.992455,0 1.992455,0"
           style="fill:none;stroke:#000000;stroke-width:0.075"
           id="path6"
           inkscape:connector-curvature="0" />
        <!-- end DynamicDraw object [3], type : FDOJ_POLY -->
      </g>
      <!-- group -->
      <!-- end DynamicDraw object [2], type : FDOJ_GROUP -->
      <!-- start DynamicDraw object [3], type : FDOJ_GROUP -->
      <g
         id="g14">
        <!-- group -->
        <!-- start DynamicDraw object [3], type : FDOJ_POLY -->
        <path
           d="m 0.808995,4.552617 c 0,0 3.247344,0 3.247344,0 0,0 0.055988,0 0.055988,0.128545 0,0.128546 -0.055988,0.128546 -0.055988,0.128546 -0.279944,0 -3.247344,0 -3.247344,0 0,0 -0.055989,0 -0.055989,-0.128546 0,-0.128545 0.055989,-0.128545 0.055989,-0.128545"
           style="fill:#ffffff;stroke:#000000;stroke-width:0.075"
           id="path10"
           inkscape:connector-curvature="0" />
        <!-- end DynamicDraw object [3], type : FDOJ_POLY -->
        <!-- start DynamicDraw object [4], type : FDOJ_POLY -->
        <path
           d="m 0.693018,4.681162 c 0,0 3.479297,0 3.479297,0 0,0 0.059988,0 0.059988,0.064273 0,0.064273 -0.059988,0.064273 -0.059988,0.064273 -0.299939,0 -3.479297,0 -3.479297,0 0,0 -0.059988,0 -0.059988,-0.064273 0,-0.064273 0.059988,-0.064273 0.059988,-0.064273"
           style="fill:#ffffff;stroke:#000000;stroke-width:0.075"
           id="path12"
           inkscape:connector-curvature="0" />
        <!-- end DynamicDraw object [4], type : FDOJ_POLY -->
      </g>
      <!-- group -->
      <!-- end DynamicDraw object [3], type : FDOJ_GROUP -->
      <!-- start DynamicDraw object [4], type : FDOJ_GROUP -->
      <g
         id="g24">
        <!-- group -->
        <!-- start DynamicDraw object [4], type : FDOJ_POLY -->
        <polyline
           points="4.421853,4.681162 4.358670,4.681162 4.358670,4.809708 4.421853,4.809708 "
           style="fill:#ffffff;stroke:#000000;stroke-width:0.075"
           id="polyline16" />
        <!-- end DynamicDraw object [4], type : FDOJ_POLY -->
        <!-- start DynamicDraw object [5], type : FDOJ_RECT -->
        <rect
           x="4.295486"
           y="4.4883442"
           width="0.063183002"
           height="0.51418197"
           style="fill:#ffffff;stroke:#000000;stroke-width:0.075"
           id="rect18" />
        <g
           transform="rotate(0.237739,4.327078,4.745435)"
           id="g20">
          <!-- rotation -->
        </g>
        <!-- rotation -->
        <!-- end DynamicDraw object [5], type : FDOJ_RECT -->
        <!-- start DynamicDraw object [6], type : FDOJ_POLY -->
        <polyline
           points="4.421853,4.616890 4.232303,4.616890 4.232303,4.681162 4.232303,4.681162 4.232303,4.809708 4.232303,4.809708 4.232303,4.873981 4.421853,4.873981 "
           style="fill:none;stroke:#000000;stroke-width:0.075"
           id="polyline22" />
        <!-- end DynamicDraw object [6], type : FDOJ_POLY -->
      </g>
      <!-- group -->
      <!-- end DynamicDraw object [4], type : FDOJ_GROUP -->
      <!-- start DynamicDraw object [5], type : FDOJ_POLY -->
      <path
         d="m 2.319662,0.440212 c 0.835545,0 2.056727,-0.064273 2.056727,0.514182 0,0.030666 0,0.771273 0,0.771273 C 3.797934,1.661394 3.348025,1.596072 2.304121,1.596072"
         style="fill:#ffffff;stroke:#000000;stroke-width:0.075"
         id="path26"
         inkscape:connector-curvature="0" />
      <!-- end DynamicDraw object [5], type : FDOJ_POLY -->
      <!-- start DynamicDraw object [6], type : FDOJ_GROUP -->
      <g
         id="g32">
        <!-- group -->
        <!-- start DynamicDraw object [6], type : FDOJ_POLY -->
        <path
           d="m 2.432667,0.313188 c 0.707,0 2.121,-0.064273 2.121,0.642727 0,1.221182 0,6.010605 0,7.584182 0,0.128545 -0.089139,0.257091 -0.257091,0.257091 0,0 -1.863909,0 -1.863909,0"
           style="fill:none;stroke:#000000;stroke-width:0.075"
           id="path28"
           inkscape:connector-curvature="0" />
        <!-- end DynamicDraw object [6], type : FDOJ_POLY -->
        <!-- start DynamicDraw object [7], type : FDOJ_POLY -->
        <path
           d="m 2.432667,0.440212 c 0.771272,0 1.992454,-0.064273 1.992454,0.522855 0,1.240483 0,6.105606 0,7.704054 0,0 0,0 0,0 0,0 -1.992454,0 -1.992454,0"
           style="fill:none;stroke:#000000;stroke-width:0.075"
           id="path30"
           inkscape:connector-curvature="0" />
        <!-- end DynamicDraw object [7], type : FDOJ_POLY -->
      </g>
      <!-- group -->
      <!-- end DynamicDraw object [6], type : FDOJ_GROUP -->
      <!-- start DynamicDraw object [7], type : FDOJ_GROUP -->
      <g
         id="g42">
        <!-- group -->
        <!-- start DynamicDraw object [7], type : FDOJ_POLY -->
        <polyline
           points="0.440212,4.681162 0.503395,4.681162 0.503395,4.809708 0.440212,4.809708 "
           style="fill:#ffffff;stroke:#000000;stroke-width:0.075"
           id="polyline34" />
        <!-- end DynamicDraw object [7], type : FDOJ_POLY -->
        <!-- start DynamicDraw object [8], type : FDOJ_RECT -->
        <rect
           x="0.50339502"
           y="4.4883442"
           width="0.063183002"
           height="0.51418197"
           style="fill:#ffffff;stroke:#000000;stroke-width:0.075"
           transform="rotate(180,0.534987,4.745435)"
           id="rect36" />
        <g
           transform="rotate(0.237739,0.534987,4.745435)"
           id="g38">
          <!-- rotation -->
        </g>
        <!-- rotation -->
        <!-- end DynamicDraw object [8], type : FDOJ_RECT -->
        <!-- start DynamicDraw object [9], type : FDOJ_POLY -->
        <polyline
           points="0.440212,4.616890 0.629762,4.616890 0.629762,4.681162 0.629762,4.681162 0.629762,4.809708 0.629762,4.809708 0.629762,4.873981 0.440212,4.873981 "
           style="fill:none;stroke:#000000;stroke-width:0.075"
           id="polyline40" />
        <!-- end DynamicDraw object [9], type : FDOJ_POLY -->
      </g>
      <!-- group -->
      <!-- end DynamicDraw object [7], type : FDOJ_GROUP -->
    </g>
    <!-- group -->
    <!-- end DynamicDraw object [1], type : FDOJ_GROUP -->
  </g>
  <!-- stroke-linecap, etc -->
</svg>
