<?xml version="1.0" encoding="UTF-8" standalone="no"?>
<!-- This file was created by the DynamicDraw's "SVG Export" plug-in version 1.1.2.-->

<svg
   xmlns:dc="http://purl.org/dc/elements/1.1/"
   xmlns:cc="http://creativecommons.org/ns#"
   xmlns:rdf="http://www.w3.org/1999/02/22-rdf-syntax-ns#"
   xmlns:svg="http://www.w3.org/2000/svg"
   xmlns="http://www.w3.org/2000/svg"
   xmlns:sodipodi="http://sodipodi.sourceforge.net/DTD/sodipodi-0.dtd"
   xmlns:inkscape="http://www.inkscape.org/namespaces/inkscape"
   width="4.5511889mm"
   height="8.0399923mm"
   viewBox="0 0 4.551189 8.0399926"
   version="1.1"
   id="svg20"
   sodipodi:docname="椅子パイプA横.svg"
   inkscape:version="0.92.4 (5da689c313, 2019-01-14)">
  <metadata
     id="metadata26">
    <rdf:RDF>
      <cc:Work
         rdf:about="">
        <dc:format>image/svg+xml</dc:format>
        <dc:type
           rdf:resource="http://purl.org/dc/dcmitype/StillImage" />
      </cc:Work>
    </rdf:RDF>
  </metadata>
  <defs
     id="defs24" />
  <sodipodi:namedview
     pagecolor="#ffffff"
     bordercolor="#666666"
     borderopacity="1"
     objecttolerance="10"
     gridtolerance="10"
     guidetolerance="10"
     inkscape:pageopacity="0"
     inkscape:pageshadow="2"
     inkscape:window-width="780"
     inkscape:window-height="480"
     id="namedview22"
     showgrid="false"
     inkscape:zoom="7.2699579"
     inkscape:cx="8.6015253"
     inkscape:cy="15.192414"
     inkscape:window-x="0"
     inkscape:window-y="0"
     inkscape:window-maximized="0"
     inkscape:current-layer="svg20" />
  <g
     style="stroke-linecap:round;stroke-linejoin:round"
     id="g18"
     transform="translate(-0.27417973,-0.274167)">
    <!-- start DynamicDraw object [1], type : FDOJ_GROUP -->
    <g
       id="g16">
      <!-- group -->
      <!-- start DynamicDraw object [1], type : FDOJ_POLY -->
      <polyline
         points="1.343974,1.830235 0.925414,1.830235 0.312937,0.424147 0.553934,0.444807 0.688478,0.543751 "
         style="fill:#ffffff;stroke:#000000;stroke-width:0.075"
         id="polyline2" />
      <!-- end DynamicDraw object [1], type : FDOJ_POLY -->
      <!-- start DynamicDraw object [2], type : FDOJ_POLY -->
      <path
         d="m 1.065201,4.225687 c 0,0 3.531316,0 3.531316,0 0,0 0.060885,0 0.060885,0.130468 0,0.130467 -0.060885,0.130467 -0.060885,0.130467 -0.304424,0 -3.531316,0 -3.531316,0 0,0 -0.060885,0 -0.060885,-0.130467 0,-0.130468 0.060885,-0.130468 0.060885,-0.130468"
         style="fill:#ffffff;stroke:#000000;stroke-width:0.075"
         id="path4"
         inkscape:connector-curvature="0" />
      <!-- end DynamicDraw object [2], type : FDOJ_POLY -->
      <!-- start DynamicDraw object [3], type : FDOJ_POLY -->
      <path
         d="m 0.939082,4.356155 c 0,0 3.783553,0 3.783553,0 0,0 0.065234,0 0.065234,0.065233 0,0.065234 -0.065234,0.065234 -0.065234,0.065234 -0.326168,0 -3.783553,0 -3.783553,0 0,0 -0.065234,0 -0.065234,-0.065234 0,-0.065233 0.065234,-0.065233 0.065234,-0.065233"
         style="fill:#ffffff;stroke:#000000;stroke-width:0.075"
         id="path6"
         inkscape:connector-curvature="0" />
      <!-- end DynamicDraw object [3], type : FDOJ_POLY -->
      <!-- start DynamicDraw object [4], type : FDOJ_ARC -->
      <circle
         cx="1.852354"
         cy="4.4213881"
         style="fill:#ffffff;stroke:#000000;stroke-width:0.075"
         transform="rotate(180,1.852354,4.421388)"
         id="ellipse8"
         r="0.195701" />
      <!-- end DynamicDraw object [4], type : FDOJ_ARC -->
      <!-- start DynamicDraw object [5], type : FDOJ_POLY -->
      <path
         d="m 0.42034,8.191133 c 0,0 1.612665,-4.963273 1.612665,-4.963273 0,0 0.020159,-0.062041 0.0822,-0.041883 0.06204,0.020159 0.041882,0.0822 0.041882,0.0822 C 2.056296,3.578381 0.544422,8.23145 0.544422,8.23145 c 0,0 -0.020158,0.06204 -0.082199,0.041882 C 0.400182,8.253174 0.42034,8.191133 0.42034,8.191133"
         style="fill:#ffffff;stroke:#000000;stroke-width:0.075"
         id="path10"
         inkscape:connector-curvature="0" />
      <!-- end DynamicDraw object [5], type : FDOJ_POLY -->
      <!-- start DynamicDraw object [6], type : FDOJ_POLY -->
      <path
         d="m 0.801939,0.479051 c 0,0 3.879626,7.614196 3.879626,7.614196 0,0 0.029616,0.058123 -0.028508,0.087739 C 4.594934,8.210601 4.565318,8.152478 4.565318,8.152478 4.417241,7.86186 0.685692,0.538282 0.685692,0.538282 c 0,0 -0.029616,-0.058123 0.028508,-0.087739 0.058124,-0.029615 0.087739,0.028508 0.087739,0.028508"
         style="fill:#ffffff;stroke:#000000;stroke-width:0.075"
         id="path12"
         inkscape:connector-curvature="0" />
      <!-- end DynamicDraw object [6], type : FDOJ_POLY -->
      <!-- start DynamicDraw object [7], type : FDOJ_POLY -->
      <path
         d="M 0.703917,0.574051 C 0.612914,0.3769 0.311667,0.424333 0.311667,0.424333 c 0,0 0.170779,-0.112666 0.170779,-0.112666 0.130468,0 0.247159,0.049311 0.333084,0.194059"
         style="fill:#ffffff;stroke:#000000;stroke-width:0.075"
         id="path14"
         inkscape:connector-curvature="0" />
      <!-- end DynamicDraw object [7], type : FDOJ_POLY -->
    </g>
    <!-- group -->
    <!-- end DynamicDraw object [1], type : FDOJ_GROUP -->
  </g>
  <!-- stroke-linecap, etc -->
</svg>
