<?xml version="1.0" encoding="UTF-8" standalone="no"?>
<!-- This file was created by the DynamicDraw's "SVG Export" plug-in version 1.1.2.-->

<svg
   xmlns:dc="http://purl.org/dc/elements/1.1/"
   xmlns:cc="http://creativecommons.org/ns#"
   xmlns:rdf="http://www.w3.org/1999/02/22-rdf-syntax-ns#"
   xmlns:svg="http://www.w3.org/2000/svg"
   xmlns="http://www.w3.org/2000/svg"
   xmlns:sodipodi="http://sodipodi.sourceforge.net/DTD/sodipodi-0.dtd"
   xmlns:inkscape="http://www.inkscape.org/namespaces/inkscape"
   width="6.6998382mm"
   height="3.5188665mm"
   viewBox="0 0 6.699838 3.5188666"
   version="1.1"
   id="svg28"
   sodipodi:docname="ラジカセA.svg"
   inkscape:version="0.92.4 (5da689c313, 2019-01-14)">
  <metadata
     id="metadata34">
    <rdf:RDF>
      <cc:Work
         rdf:about="">
        <dc:format>image/svg+xml</dc:format>
        <dc:type
           rdf:resource="http://purl.org/dc/dcmitype/StillImage" />
        <dc:title></dc:title>
      </cc:Work>
    </rdf:RDF>
  </metadata>
  <defs
     id="defs32" />
  <sodipodi:namedview
     pagecolor="#ffffff"
     bordercolor="#666666"
     borderopacity="1"
     objecttolerance="10"
     gridtolerance="10"
     guidetolerance="10"
     inkscape:pageopacity="0"
     inkscape:pageshadow="2"
     inkscape:window-width="1356"
     inkscape:window-height="729"
     id="namedview30"
     showgrid="false"
     fit-margin-top="0"
     fit-margin-left="0"
     fit-margin-right="0"
     fit-margin-bottom="0"
     inkscape:zoom="16.109821"
     inkscape:cx="13.126574"
     inkscape:cy="6.6499702"
     inkscape:window-x="0"
     inkscape:window-y="0"
     inkscape:window-maximized="0"
     inkscape:current-layer="svg28" />
  <g
     style="stroke-linecap:round;stroke-linejoin:round"
     id="g26"
     transform="translate(-0.17860527,-0.17860475)">
    <!-- start DynamicDraw object [1], type : FDOJ_GROUP -->
    <g
       id="g24">
      <!-- group -->
      <!-- start DynamicDraw object [1], type : FDOJ_GROUP -->
      <g
         id="g20">
        <!-- group -->
        <!-- start DynamicDraw object [1], type : FDOJ_POLY -->
        <path
           d="m 3.528142,0.241111 c -1.166638,0 -1.378754,0 -2.651449,0 -0.346428,0 -0.446268,0.194205 -0.53029,0.53029 -0.106057,0.424232 -0.171013,1.779132 0,2.121159 0.106058,0.212115 0.212116,0.424231 0.53029,0.530289 0.362774,0.120925 1.272695,0.212116 2.651449,0.212116"
           style="fill:#ffffff;stroke:#000000;stroke-width:0.125"
           id="path2"
           inkscape:connector-curvature="0" />
        <!-- end DynamicDraw object [1], type : FDOJ_POLY -->
        <!-- start DynamicDraw object [2], type : FDOJ_POLY -->
        <path
           d="m 0.281437,2.657191 c 0.212116,0 0.620729,0.00243 1.097339,0.067587 0.281414,0.038471 0.664029,0.792272 0.590396,0.786844"
           style="fill:#ffffff;stroke:#000000;stroke-width:0.125"
           id="path4"
           inkscape:connector-curvature="0" />
        <!-- end DynamicDraw object [2], type : FDOJ_POLY -->
        <!-- start DynamicDraw object [3], type : FDOJ_POLY -->
        <path
           d="m 3.528907,0.241111 c 1.166638,0 1.378753,0 2.651449,0 0.346428,0 0.446268,0.194205 0.530289,0.53029 0.106058,0.424232 0.171014,1.779132 0,2.121159 C 6.604587,3.104675 6.498529,3.316791 6.180356,3.422849 5.817582,3.543774 4.90766,3.634965 3.528907,3.634965"
           style="fill:#ffffff;stroke:#000000;stroke-width:0.125"
           id="path6"
           inkscape:connector-curvature="0" />
        <!-- end DynamicDraw object [3], type : FDOJ_POLY -->
        <!-- start DynamicDraw object [4], type : FDOJ_POLY -->
        <path
           d="m 3.316791,0.559285 c 0,0 1.378754,0 1.484811,0 0.106058,0 0.106058,0 0.106058,0.106058 0,0.106058 0,1.378753 0,1.378753 0,0 0.318174,0 0.318174,0 0,0 0,-0.848463 0,-1.484811 0,-0.207857 -0.110317,-0.318174 -0.318174,-0.318174 -0.636347,0 -1.166637,0 -1.590869,0"
           style="fill:#ffffff;stroke:#000000;stroke-width:0.125"
           id="path8"
           inkscape:connector-curvature="0" />
        <!-- end DynamicDraw object [4], type : FDOJ_POLY -->
        <!-- start DynamicDraw object [5], type : FDOJ_POLY -->
        <path
           d="m 3.741023,0.559285 c 0,0 -1.378753,0 -1.484811,0 -0.106058,0 -0.106058,0 -0.106058,0.106058 0,0.106058 0,1.378753 0,1.378753 0,0 -0.318174,0 -0.318174,0 0,0 0,-0.848463 0,-1.484811 0,-0.207857 0.110317,-0.318174 0.318174,-0.318174 0.636348,0 1.166637,0 1.590869,0"
           style="fill:#ffffff;stroke:#000000;stroke-width:0.125"
           id="path10"
           inkscape:connector-curvature="0" />
        <!-- end DynamicDraw object [5], type : FDOJ_POLY -->
        <!-- start DynamicDraw object [6], type : FDOJ_RECT -->
        <rect
           x="2.5041521"
           y="2.7865019"
           width="0.63634801"
           height="0.725218"
           style="fill:#ffffff;stroke:#000000;stroke-width:0.125"
           id="rect12" />
        <!-- end DynamicDraw object [6], type : FDOJ_RECT -->
        <!-- start DynamicDraw object [7], type : FDOJ_RECT -->
        <rect
           x="3.1405001"
           y="2.7865019"
           width="0.63634801"
           height="0.725218"
           style="fill:#ffffff;stroke:#000000;stroke-width:0.125"
           id="rect14" />
        <!-- end DynamicDraw object [7], type : FDOJ_RECT -->
        <!-- start DynamicDraw object [8], type : FDOJ_RECT -->
        <rect
           x="3.7768481"
           y="2.7865019"
           width="0.63634801"
           height="0.725218"
           style="fill:#ffffff;stroke:#000000;stroke-width:0.125"
           id="rect16" />
        <!-- end DynamicDraw object [8], type : FDOJ_RECT -->
        <!-- start DynamicDraw object [9], type : FDOJ_POLY -->
        <path
           d="m 6.757134,2.657191 c -0.212115,0 -0.620728,0.00243 -1.097339,0.067587 C 5.378381,2.763249 4.995766,3.51705 5.069399,3.511622"
           style="fill:#ffffff;stroke:#000000;stroke-width:0.125"
           id="path18"
           inkscape:connector-curvature="0" />
        <!-- end DynamicDraw object [9], type : FDOJ_POLY -->
      </g>
      <!-- group -->
      <!-- end DynamicDraw object [1], type : FDOJ_GROUP -->
      <!-- start DynamicDraw object [2], type : FDOJ_POLY -->
      <path
         d="m 3.588624,0.665343 c 0,0 0.300497,0 0.661094,0 0.120199,0 0.180299,0.060099 0.180299,0.180298 0,0.666297 0,1.021692 0,1.442388 0,0.120199 -0.0601,0.180299 -0.180299,0.180299 -0.300497,0 -0.961592,0 -1.442388,0 -0.120199,0 -0.180298,-0.0601 -0.180298,-0.180299 0,-0.540895 0,-1.021691 0,-1.442388 0,-0.120199 0.060099,-0.180298 0.180298,-0.180298 0.360597,0 0.781294,0 0.781294,0"
         style="fill:#ffffff;stroke:#000000;stroke-width:0.125"
         id="path22"
         inkscape:connector-curvature="0" />
      <!-- end DynamicDraw object [2], type : FDOJ_POLY -->
    </g>
    <!-- group -->
    <!-- end DynamicDraw object [1], type : FDOJ_GROUP -->
  </g>
  <!-- stroke-linecap, etc -->
</svg>
