<?xml version="1.0" encoding="UTF-8" standalone="no"?>
<!-- This file was created by the DynamicDraw's "SVG Export" plug-in version 1.1.2.-->

<svg
   xmlns:dc="http://purl.org/dc/elements/1.1/"
   xmlns:cc="http://creativecommons.org/ns#"
   xmlns:rdf="http://www.w3.org/1999/02/22-rdf-syntax-ns#"
   xmlns:svg="http://www.w3.org/2000/svg"
   xmlns="http://www.w3.org/2000/svg"
   xmlns:sodipodi="http://sodipodi.sourceforge.net/DTD/sodipodi-0.dtd"
   xmlns:inkscape="http://www.inkscape.org/namespaces/inkscape"
   width="9.5005226mm"
   height="2.8188784mm"
   viewBox="0 0 9.5005228 2.8188783"
   version="1.1"
   id="svg30"
   sodipodi:docname="ラジカセC.svg"
   inkscape:version="0.92.4 (5da689c313, 2019-01-14)">
  <metadata
     id="metadata36">
    <rdf:RDF>
      <cc:Work
         rdf:about="">
        <dc:format>image/svg+xml</dc:format>
        <dc:type
           rdf:resource="http://purl.org/dc/dcmitype/StillImage" />
        <dc:title></dc:title>
      </cc:Work>
    </rdf:RDF>
  </metadata>
  <defs
     id="defs34" />
  <sodipodi:namedview
     pagecolor="#ffffff"
     bordercolor="#666666"
     borderopacity="1"
     objecttolerance="10"
     gridtolerance="10"
     guidetolerance="10"
     inkscape:pageopacity="0"
     inkscape:pageshadow="2"
     inkscape:window-width="784"
     inkscape:window-height="480"
     id="namedview32"
     showgrid="false"
     fit-margin-top="0"
     fit-margin-left="0"
     fit-margin-right="0"
     fit-margin-bottom="0"
     inkscape:zoom="17.096732"
     inkscape:cx="17.954226"
     inkscape:cy="5.3271801"
     inkscape:window-x="0"
     inkscape:window-y="0"
     inkscape:window-maximized="0"
     inkscape:current-layer="svg30" />
  <g
     style="stroke-linecap:round;stroke-linejoin:round"
     id="g28"
     transform="translate(-0.178611,-0.17860475)">
    <!-- start DynamicDraw object [1], type : FDOJ_GROUP -->
    <g
       id="g26">
      <!-- group -->
      <!-- start DynamicDraw object [1], type : FDOJ_POLY -->
      <path
         d="m 1.598653,0.241111 c 0,0 7.254363,0 7.763441,0 0.169693,0 0.254539,0.064524 0.254539,0.193572 0,0.715347 0,1.855061 0,2.306728 0,0.129048 -0.084846,0.193572 -0.254539,0.193572 -0.424232,0 -8.187673,0 -8.866444,0 -0.169693,0 -0.254539,-0.064524 -0.254539,-0.193572 0,-0.580715 0,-1.855061 0,-2.306728 0,-0.129048 0.084846,-0.193572 0.254539,-0.193572 0.509078,0 1.103003,0 1.103003,0"
         style="fill:#ffffff;stroke:#000000;stroke-width:0.125"
         id="path2"
         inkscape:connector-curvature="0" />
      <!-- end DynamicDraw object [1], type : FDOJ_POLY -->
      <!-- start DynamicDraw object [2], type : FDOJ_RECT -->
      <rect
         x="3.9743509"
         y="1.938038"
         width="0.63634801"
         height="0.84846401"
         style="fill:#ffffff;stroke:#000000;stroke-width:0.125"
         id="rect4" />
      <!-- end DynamicDraw object [2], type : FDOJ_RECT -->
      <!-- start DynamicDraw object [3], type : FDOJ_RECT -->
      <rect
         x="4.6106982"
         y="1.938038"
         width="0.63634801"
         height="0.84846401"
         style="fill:#ffffff;stroke:#000000;stroke-width:0.125"
         id="rect6" />
      <!-- end DynamicDraw object [3], type : FDOJ_RECT -->
      <!-- start DynamicDraw object [4], type : FDOJ_RECT -->
      <rect
         x="5.4591622"
         y="1.938038"
         width="0.63634801"
         height="0.84846401"
         style="fill:#ffffff;stroke:#000000;stroke-width:0.125"
         id="rect8" />
      <!-- end DynamicDraw object [4], type : FDOJ_RECT -->
      <!-- start DynamicDraw object [5], type : FDOJ_POLY -->
      <path
         d="m 4.90766,0.62292 c 0,0 -2.206005,0 -2.333274,0 -0.12727,0 -0.12727,0 -0.12727,0.127269 0,0.12727 0,0.763617 0,0.763617 0,0 -0.381808,0 -0.381808,0 0,0 0,-0.127269 0,-0.890886 0,-0.249429 0.13238,-0.381809 0.381808,-0.381809 0.763617,0 1.951466,0 2.460544,0"
         style="fill:#ffffff;stroke:#000000;stroke-width:0.125"
         id="path10"
         inkscape:connector-curvature="0" />
      <!-- end DynamicDraw object [5], type : FDOJ_POLY -->
      <!-- start DynamicDraw object [6], type : FDOJ_RECT -->
      <rect
         x="2.7016549"
         y="1.938038"
         width="0.63634801"
         height="0.84846401"
         style="fill:#ffffff;stroke:#000000;stroke-width:0.125"
         id="rect12" />
      <!-- end DynamicDraw object [6], type : FDOJ_RECT -->
      <!-- start DynamicDraw object [7], type : FDOJ_RECT -->
      <rect
         x="3.3380029"
         y="1.938038"
         width="0.63634801"
         height="0.84846401"
         style="fill:#ffffff;stroke:#000000;stroke-width:0.125"
         id="rect14" />
      <!-- end DynamicDraw object [7], type : FDOJ_RECT -->
      <!-- start DynamicDraw object [8], type : FDOJ_RECT -->
      <rect
         x="6.0955091"
         y="1.938038"
         width="0.63634801"
         height="0.84846401"
         style="fill:#ffffff;stroke:#000000;stroke-width:0.125"
         id="rect16" />
      <!-- end DynamicDraw object [8], type : FDOJ_RECT -->
      <!-- start DynamicDraw object [9], type : FDOJ_RECT -->
      <rect
         x="6.7318568"
         y="1.938038"
         width="0.63634801"
         height="0.84846401"
         style="fill:#ffffff;stroke:#000000;stroke-width:0.125"
         id="rect18" />
      <!-- end DynamicDraw object [9], type : FDOJ_RECT -->
      <!-- start DynamicDraw object [10], type : FDOJ_POLY -->
      <path
         d="m 1.83198,2.36227 c 0,0 -0.318174,0 0.190904,0 0.169693,0 0.25454,0.134756 0.25454,0.404268 0,0.101067 0,0 0,0.168445 0,0 -1.802985,0 -1.802985,0 0,-0.168445 0,-0.067378 0,-0.168445 0,-0.269512 0.084846,-0.404268 0.254539,-0.404268 0.509078,0 1.103002,0 1.103002,0"
         style="fill:#ffffff;stroke:#000000;stroke-width:0.125"
         id="path20"
         inkscape:connector-curvature="0" />
      <!-- end DynamicDraw object [10], type : FDOJ_POLY -->
      <!-- start DynamicDraw object [11], type : FDOJ_POLY -->
      <path
         d="m 8.937862,2.36227 c 0,0 -0.318174,0 0.190904,0 0.169693,0 0.254539,0.134756 0.254539,0.404268 0,0.101067 0,0 0,0.168445 0,0 -1.802985,0 -1.802985,0 0,-0.168445 0,-0.067378 0,-0.168445 0,-0.269512 0.084847,-0.404268 0.25454,-0.404268 0.509078,0 1.103002,0 1.103002,0"
         style="fill:#ffffff;stroke:#000000;stroke-width:0.125"
         id="path22"
         inkscape:connector-curvature="0" />
      <!-- end DynamicDraw object [11], type : FDOJ_POLY -->
      <!-- start DynamicDraw object [12], type : FDOJ_POLY -->
      <path
         d="m 4.90766,0.62292 c 0,0 2.206006,0 2.333275,0 0.12727,0 0.12727,0 0.12727,0.127269 0,0.12727 0,0.763617 0,0.763617 0,0 0.381808,0 0.381808,0 0,0 0,-0.127269 0,-0.890886 0,-0.249429 -0.13238,-0.381809 -0.381808,-0.381809 -0.763618,0 -1.951466,0 -2.460545,0"
         style="fill:#ffffff;stroke:#000000;stroke-width:0.125"
         id="path24"
         inkscape:connector-curvature="0" />
      <!-- end DynamicDraw object [12], type : FDOJ_POLY -->
    </g>
    <!-- group -->
    <!-- end DynamicDraw object [1], type : FDOJ_GROUP -->
  </g>
  <!-- stroke-linecap, etc -->
</svg>
