<?xml version="1.0" encoding="UTF-8" standalone="no"?>
<!-- This file was created by the DynamicDraw's "SVG Export" plug-in version 1.1.2.-->

<svg
   xmlns:dc="http://purl.org/dc/elements/1.1/"
   xmlns:cc="http://creativecommons.org/ns#"
   xmlns:rdf="http://www.w3.org/1999/02/22-rdf-syntax-ns#"
   xmlns:svg="http://www.w3.org/2000/svg"
   xmlns="http://www.w3.org/2000/svg"
   xmlns:sodipodi="http://sodipodi.sourceforge.net/DTD/sodipodi-0.dtd"
   xmlns:inkscape="http://www.inkscape.org/namespaces/inkscape"
   width="3.9382575mm"
   height="4.54425mm"
   viewBox="0 0 3.9382575 4.5442501"
   version="1.1"
   id="svg40"
   sodipodi:docname="椅子丸A横前.svg"
   inkscape:version="0.92.4 (5da689c313, 2019-01-14)">
  <metadata
     id="metadata46">
    <rdf:RDF>
      <cc:Work
         rdf:about="">
        <dc:format>image/svg+xml</dc:format>
        <dc:type
           rdf:resource="http://purl.org/dc/dcmitype/StillImage" />
      </cc:Work>
    </rdf:RDF>
  </metadata>
  <defs
     id="defs44" />
  <sodipodi:namedview
     pagecolor="#ffffff"
     bordercolor="#666666"
     borderopacity="1"
     objecttolerance="10"
     gridtolerance="10"
     guidetolerance="10"
     inkscape:pageopacity="0"
     inkscape:pageshadow="2"
     inkscape:window-width="780"
     inkscape:window-height="480"
     id="namedview42"
     showgrid="false"
     inkscape:zoom="12.260292"
     inkscape:cx="7.4431625"
     inkscape:cy="8.5867739"
     inkscape:window-x="0"
     inkscape:window-y="0"
     inkscape:window-maximized="0"
     inkscape:current-layer="svg40" />
  <g
     style="stroke-linecap:round;stroke-linejoin:round"
     id="g38"
     transform="translate(-0.27416325,-0.274167)">
    <!-- start DynamicDraw object [1], type : FDOJ_GROUP -->
    <g
       id="g36">
      <!-- group -->
      <!-- start DynamicDraw object [1], type : FDOJ_GROUP -->
      <g
         id="g8">
        <!-- group -->
        <!-- start DynamicDraw object [1], type : FDOJ_RECT -->
        <rect
           x="0.311667"
           y="4.4779172"
           width="0.22724999"
           height="0.303"
           style="fill:#ffffff;stroke:#000000;stroke-width:0.075"
           id="rect2" />
        <g
           transform="rotate(-106.93834,0.425292,4.629417)"
           id="g4">
          <!-- rotation -->
        </g>
        <!-- rotation -->
        <!-- end DynamicDraw object [1], type : FDOJ_RECT -->
        <!-- start DynamicDraw object [2], type : FDOJ_POLY -->
        <path
           d="m 0.311667,4.477917 c 0,-0.98475 0.07575,-3.40875 0.07575,-3.40875 0,-0.368462 0.229109,-0.53025 0.606,-0.53025 0.606,0 1.28775,0 1.28775,0 0,0 0,0.07575 0,0.07575 0,0 -0.07575,0 -0.07575,0 -0.1515,0.07575 -0.07575,0.1515 -0.1515,0.1515 -0.1515,0 -0.37875,0 -0.606,0 -0.07575,0 -0.07575,-0.07575 -0.1515,-0.07575 -0.07575,0 -0.069075,0.07575 -0.1515,0.07575 -0.1515,0 -0.1515,0 -0.303,0 -0.07575,0 -0.22725,0.123343 -0.22725,0.303 0,0 -0.07575,2.49975 -0.07575,3.40875"
           style="fill:#ffffff;stroke:#000000;stroke-width:0.075"
           id="path6"
           inkscape:connector-curvature="0" />
        <!-- end DynamicDraw object [2], type : FDOJ_POLY -->
      </g>
      <!-- group -->
      <!-- end DynamicDraw object [1], type : FDOJ_GROUP -->
      <!-- start DynamicDraw object [2], type : FDOJ_RECT -->
      <rect
         x="2.129667"
         y="4.4779172"
         width="0.22724999"
         height="0.303"
         style="fill:#ffffff;stroke:#000000;stroke-width:0.075"
         id="rect10" />
      <g
         transform="rotate(-106.93834,2.243292,4.629417)"
         id="g12">
        <!-- rotation -->
      </g>
      <!-- rotation -->
      <!-- end DynamicDraw object [2], type : FDOJ_RECT -->
      <!-- start DynamicDraw object [3], type : FDOJ_GROUP -->
      <g
         id="g20">
        <!-- group -->
        <!-- start DynamicDraw object [3], type : FDOJ_RECT -->
        <rect
           x="3.9476669"
           y="4.4779172"
           width="0.22724999"
           height="0.303"
           style="fill:#ffffff;stroke:#000000;stroke-width:0.075"
           transform="rotate(180,4.061292,4.629417)"
           id="rect14" />
        <g
           transform="rotate(-106.93834,4.061292,4.629417)"
           id="g16">
          <!-- rotation -->
        </g>
        <!-- rotation -->
        <!-- end DynamicDraw object [3], type : FDOJ_RECT -->
        <!-- start DynamicDraw object [4], type : FDOJ_POLY -->
        <path
           d="m 4.174917,4.477917 c 0,-0.98475 -0.07575,-3.40875 -0.07575,-3.40875 0,-0.368462 -0.22911,-0.53025 -0.606,-0.53025 -0.606,0 -1.28775,0 -1.28775,0 0,0 0,0.07575 0,0.07575 0,0 0.07575,0 0.07575,0 0.1515,0.07575 0.07575,0.1515 0.1515,0.1515 0.1515,0 0.37875,0 0.606,0 0.07575,0 0.07575,-0.07575 0.1515,-0.07575 0.07575,0 0.069074,0.07575 0.1515,0.07575 0.1515,0 0.1515,0 0.303,0 0.07575,0 0.22725,0.123343 0.22725,0.303 0,0 0.07575,2.49975 0.07575,3.40875"
           style="fill:#ffffff;stroke:#000000;stroke-width:0.075"
           id="path18"
           inkscape:connector-curvature="0" />
        <!-- end DynamicDraw object [4], type : FDOJ_POLY -->
      </g>
      <!-- group -->
      <!-- end DynamicDraw object [3], type : FDOJ_GROUP -->
      <!-- start DynamicDraw object [4], type : FDOJ_POLY -->
      <path
         d="m 2.129667,4.477917 c 0,0 0,-3.86325 0,-3.86325 0,-0.07575 0,-0.07575 0.07575,-0.07575 0.1515,0 0.1515,0 0.1515,0.07575 0,0.1515 0,3.86325 0,3.86325"
         style="fill:#ffffff;stroke:#000000;stroke-width:0.075"
         id="path22"
         inkscape:connector-curvature="0" />
      <!-- end DynamicDraw object [4], type : FDOJ_POLY -->
      <!-- start DynamicDraw object [5], type : FDOJ_GROUP -->
      <g
         id="g32">
        <!-- group -->
        <!-- start DynamicDraw object [5], type : FDOJ_POLY -->
        <path
           d="m 2.356917,0.614667 c 0,0 -1.6665,0 -1.6665,0 0,-0.061494 0.080459,-0.22725 0.22725,-0.22725 0,0 1.43925,0 1.43925,0"
           style="fill:#ffffff;stroke:#000000;stroke-width:0.075"
           id="path24"
           inkscape:connector-curvature="0" />
        <!-- end DynamicDraw object [5], type : FDOJ_POLY -->
        <!-- start DynamicDraw object [6], type : FDOJ_GROUP -->
        <g
           id="g30">
          <!-- group -->
          <!-- start DynamicDraw object [6], type : FDOJ_POLY -->
          <path
             d="m 3.568917,0.387417 c 0,0 -0.026264,-0.07575 -0.07575,-0.07575 0,0 -2.49975,0 -2.49975,0 -0.07575,0 -0.07575,0.07575 -0.07575,0.07575"
             style="fill:#ffffff;stroke:#000000;stroke-width:0.075"
             id="path26"
             inkscape:connector-curvature="0" />
          <!-- end DynamicDraw object [6], type : FDOJ_POLY -->
          <!-- start DynamicDraw object [7], type : FDOJ_POLY -->
          <path
             d="m 2.129667,0.614667 c 0,0 1.6665,0 1.6665,0 0,-0.061494 -0.08046,-0.22725 -0.22725,-0.22725 0,0 -1.43925,0 -1.43925,0"
             style="fill:#ffffff;stroke:#000000;stroke-width:0.075"
             id="path28"
             inkscape:connector-curvature="0" />
          <!-- end DynamicDraw object [7], type : FDOJ_POLY -->
        </g>
        <!-- group -->
        <!-- end DynamicDraw object [6], type : FDOJ_GROUP -->
      </g>
      <!-- group -->
      <!-- end DynamicDraw object [5], type : FDOJ_GROUP -->
      <!-- start DynamicDraw object [6], type : FDOJ_POLY -->
      <line
         x1="0.91766697"
         y1="0.38741699"
         x2="2.3569169"
         y2="0.38741699"
         style="fill:#ffffff;stroke:#000000;stroke-width:0.075"
         id="line34" />
      <!-- end DynamicDraw object [6], type : FDOJ_POLY -->
    </g>
    <!-- group -->
    <!-- end DynamicDraw object [1], type : FDOJ_GROUP -->
  </g>
  <!-- stroke-linecap, etc -->
</svg>
