<?xml version="1.0" encoding="UTF-8" standalone="no"?>
<!-- This file was created by the DynamicDraw's "SVG Export" plug-in version 1.1.2.-->

<svg
   xmlns:dc="http://purl.org/dc/elements/1.1/"
   xmlns:cc="http://creativecommons.org/ns#"
   xmlns:rdf="http://www.w3.org/1999/02/22-rdf-syntax-ns#"
   xmlns:svg="http://www.w3.org/2000/svg"
   xmlns="http://www.w3.org/2000/svg"
   xmlns:sodipodi="http://sodipodi.sourceforge.net/DTD/sodipodi-0.dtd"
   xmlns:inkscape="http://www.inkscape.org/namespaces/inkscape"
   width="3.9382544mm"
   height="3.9382544mm"
   viewBox="0 0 3.9382544 3.9382544"
   version="1.1"
   id="svg16"
   sodipodi:docname="椅子丸A上.svg"
   inkscape:version="0.92.4 (5da689c313, 2019-01-14)">
  <metadata
     id="metadata22">
    <rdf:RDF>
      <cc:Work
         rdf:about="">
        <dc:format>image/svg+xml</dc:format>
        <dc:type
           rdf:resource="http://purl.org/dc/dcmitype/StillImage" />
      </cc:Work>
    </rdf:RDF>
  </metadata>
  <defs
     id="defs20" />
  <sodipodi:namedview
     pagecolor="#ffffff"
     bordercolor="#666666"
     borderopacity="1"
     objecttolerance="10"
     gridtolerance="10"
     guidetolerance="10"
     inkscape:pageopacity="0"
     inkscape:pageshadow="2"
     inkscape:window-width="780"
     inkscape:window-height="480"
     id="namedview18"
     showgrid="false"
     inkscape:zoom="13.916128"
     inkscape:cx="7.4431567"
     inkscape:cy="7.4415845"
     inkscape:window-x="0"
     inkscape:window-y="0"
     inkscape:window-maximized="0"
     inkscape:current-layer="svg16" />
  <g
     style="stroke-linecap:round;stroke-linejoin:round"
     id="g14"
     transform="translate(-0.27416479,-0.27416479)">
    <!-- start DynamicDraw object [1], type : FDOJ_GROUP -->
    <g
       id="g12">
      <!-- group -->
      <!-- start DynamicDraw object [1], type : FDOJ_POLY -->
      <path
         d="m 2.129667,3.796167 c 0,0 0,0.303 0,0.303 0,0.07575 0.113625,0.07575 0.113625,0.07575 0,0 0.113625,0 0.113625,-0.07575 0,0 0,-0.303 0,-0.303"
         style="fill:#ffffff;stroke:#000000;stroke-width:0.075"
         id="path2"
         inkscape:connector-curvature="0" />
      <!-- end DynamicDraw object [1], type : FDOJ_POLY -->
      <!-- start DynamicDraw object [2], type : FDOJ_POLY -->
      <path
         d="m 0.690417,2.129667 c 0,0 -0.303,0 -0.303,0 -0.07575,0 -0.07575,0.113625 -0.07575,0.113625 0,0 0,0.113625 0.07575,0.113625 0,0 0.303,0 0.303,0"
         style="fill:#ffffff;stroke:#000000;stroke-width:0.075"
         id="path4"
         inkscape:connector-curvature="0" />
      <!-- end DynamicDraw object [2], type : FDOJ_POLY -->
      <!-- start DynamicDraw object [3], type : FDOJ_POLY -->
      <path
         d="m 3.796167,2.129667 c 0,0 0.303,0 0.303,0 0.07575,0 0.07575,0.113625 0.07575,0.113625 0,0 0,0.113625 -0.07575,0.113625 0,0 -0.303,0 -0.303,0"
         style="fill:#ffffff;stroke:#000000;stroke-width:0.075"
         id="path6"
         inkscape:connector-curvature="0" />
      <!-- end DynamicDraw object [3], type : FDOJ_POLY -->
      <!-- start DynamicDraw object [4], type : FDOJ_POLY -->
      <path
         d="m 2.129667,0.690417 c 0,0 0,-0.303 0,-0.303 0,-0.07575 0.113625,-0.07575 0.113625,-0.07575 0,0 0.113625,0 0.113625,0.07575 0,0 0,0.303 0,0.303"
         style="fill:#ffffff;stroke:#000000;stroke-width:0.075"
         id="path8"
         inkscape:connector-curvature="0" />
      <!-- end DynamicDraw object [4], type : FDOJ_POLY -->
      <!-- start DynamicDraw object [5], type : FDOJ_ARC -->
      <circle
         cx="2.2432921"
         cy="2.2432921"
         style="fill:#ffffff;stroke:#000000;stroke-width:0.075"
         transform="rotate(90,2.243292,2.243292)"
         id="ellipse10"
         r="1.552875" />
      <!-- end DynamicDraw object [5], type : FDOJ_ARC -->
    </g>
    <!-- group -->
    <!-- end DynamicDraw object [1], type : FDOJ_GROUP -->
  </g>
  <!-- stroke-linecap, etc -->
</svg>
