<?xml version="1.0" encoding="UTF-8" standalone="no"?>
<svg
   version="1.0"
   width="5.5317941mm"
   height="1.7943188mm"
   id="svg20"
   sodipodi:docname="ウィンドチャイムA.svg"
   inkscape:version="1.4 (86a8ad7, 2024-10-11)"
   xmlns:inkscape="http://www.inkscape.org/namespaces/inkscape"
   xmlns:sodipodi="http://sodipodi.sourceforge.net/DTD/sodipodi-0.dtd"
   xmlns="http://www.w3.org/2000/svg"
   xmlns:svg="http://www.w3.org/2000/svg">
  <sodipodi:namedview
     id="namedview20"
     pagecolor="#ffffff"
     bordercolor="#666666"
     borderopacity="1.0"
     inkscape:showpageshadow="2"
     inkscape:pageopacity="0.0"
     inkscape:pagecheckerboard="0"
     inkscape:deskcolor="#d1d1d1"
     inkscape:document-units="mm"
     inkscape:zoom="28.933177"
     inkscape:cx="9.8848461"
     inkscape:cy="1.2442464"
     inkscape:window-width="1368"
     inkscape:window-height="890"
     inkscape:window-x="-6"
     inkscape:window-y="-6"
     inkscape:window-maximized="1"
     inkscape:current-layer="svg20" />
  <defs
     id="defs1">
    <pattern
       id="EMFhbasepattern"
       patternUnits="userSpaceOnUse"
       width="6"
       height="6"
       x="0"
       y="0" />
  </defs>
  <path
     style="fill:none;stroke:#000000;stroke-width:0.46878px;stroke-linecap:round;stroke-linejoin:round;stroke-miterlimit:4;stroke-dasharray:none;stroke-opacity:1"
     d="m 0.70316933,0.82817721 c 0,0 0,5.71911019 0,5.71911019"
     id="path1" />
  <path
     style="fill:none;stroke:#000000;stroke-width:0.46878px;stroke-linecap:round;stroke-linejoin:round;stroke-miterlimit:4;stroke-dasharray:none;stroke-opacity:1"
     d="m 1.8594921,0.82817721 c 0,0 0,5.18782669 0,5.18782669"
     id="path2" />
  <path
     style="fill:none;stroke:#000000;stroke-width:0.46878px;stroke-linecap:round;stroke-linejoin:round;stroke-miterlimit:4;stroke-dasharray:none;stroke-opacity:1"
     d="m 2.984563,0.82817721 c 0,0 0,4.75029919 0,4.75029919"
     id="path3" />
  <path
     style="fill:none;stroke:#000000;stroke-width:0.46878px;stroke-linecap:round;stroke-linejoin:round;stroke-miterlimit:4;stroke-dasharray:none;stroke-opacity:1"
     d="m 4.1408858,0.82817721 c 0,0 0,4.34402359 0,4.34402359"
     id="path4" />
  <path
     style="fill:none;stroke:#000000;stroke-width:0.46878px;stroke-linecap:round;stroke-linejoin:round;stroke-miterlimit:4;stroke-dasharray:none;stroke-opacity:1"
     d="m 5.2972086,0.82817721 c 0,0 0,3.96899999 0,3.96899999"
     id="path5" />
  <path
     style="fill:none;stroke:#000000;stroke-width:0.46878px;stroke-linecap:round;stroke-linejoin:round;stroke-miterlimit:4;stroke-dasharray:none;stroke-opacity:1"
     d="m 6.4222795,0.82817721 c 0,0 0,3.50022039 0,3.50022039"
     id="path6" />
  <path
     style="fill:none;stroke:#000000;stroke-width:0.46878px;stroke-linecap:round;stroke-linejoin:round;stroke-miterlimit:4;stroke-dasharray:none;stroke-opacity:1"
     d="m 7.5786023,0.82817721 c 0,0 0,3.12519679 0,3.12519679"
     id="path7" />
  <path
     style="fill:none;stroke:#000000;stroke-width:0.46878px;stroke-linecap:round;stroke-linejoin:round;stroke-miterlimit:4;stroke-dasharray:none;stroke-opacity:1"
     d="m 8.7349252,0.82817721 c 0,0 0,2.75017319 0,2.75017319"
     id="path8" />
  <path
     style="fill:none;stroke:#000000;stroke-width:0.46878px;stroke-linecap:round;stroke-linejoin:round;stroke-miterlimit:4;stroke-dasharray:none;stroke-opacity:1"
     d="m 9.8599965,0.82817721 c 0,0 0,2.40640149 0,2.40640149"
     id="path9" />
  <path
     style="fill:none;stroke:#000000;stroke-width:0.46878px;stroke-linecap:round;stroke-linejoin:round;stroke-miterlimit:4;stroke-dasharray:none;stroke-opacity:1"
     d="m 11.016319,0.82817721 c 0,0 0,2.15638579 0,2.15638579"
     id="path10" />
  <path
     style="fill:none;stroke:#000000;stroke-width:0.46878px;stroke-linecap:round;stroke-linejoin:round;stroke-miterlimit:4;stroke-dasharray:none;stroke-opacity:1"
     d="m 12.14139,0.82817721 c 0,0 0,1.84386609 0,1.84386609"
     id="path11" />
  <path
     style="fill:none;stroke:#000000;stroke-width:0.46878px;stroke-linecap:round;stroke-linejoin:round;stroke-miterlimit:4;stroke-dasharray:none;stroke-opacity:1"
     d="m 13.297713,0.82817721 c 0,0 0,1.59385039 0,1.59385039"
     id="path12" />
  <path
     style="fill:none;stroke:#000000;stroke-width:0.46878px;stroke-linecap:round;stroke-linejoin:round;stroke-miterlimit:4;stroke-dasharray:none;stroke-opacity:1"
     d="m 14.454036,0.82817721 c 0,0 0,1.37508659 0,1.37508659"
     id="path13" />
  <path
     style="fill:none;stroke:#000000;stroke-width:0.46878px;stroke-linecap:round;stroke-linejoin:round;stroke-miterlimit:4;stroke-dasharray:none;stroke-opacity:1"
     d="m 15.579107,0.82817721 c 0,0 0,1.06256689 0,1.06256689"
     id="path14" />
  <path
     style="fill:none;stroke:#000000;stroke-width:0.46878px;stroke-linecap:round;stroke-linejoin:round;stroke-miterlimit:4;stroke-dasharray:none;stroke-opacity:1"
     d="m 16.73543,0.82817721 c 0,0 0,0.93755899 0,0.93755899"
     id="path15" />
  <path
     style="fill:none;stroke:#000000;stroke-width:0.46878px;stroke-linecap:round;stroke-linejoin:round;stroke-miterlimit:4;stroke-dasharray:none;stroke-opacity:1"
     d="m 17.891752,0.82817721 c 0,0 0,0.78129919 0,0.78129919"
     id="path16" />
  <path
     style="fill:none;stroke:#000000;stroke-width:0.46878px;stroke-linecap:round;stroke-linejoin:round;stroke-miterlimit:4;stroke-dasharray:none;stroke-opacity:1"
     d="m 19.016823,0.82817721 c 0,0 0,0.75004719 0,0.75004719"
     id="path17" />
  <path
     style="fill:none;stroke:#000000;stroke-width:0.46878px;stroke-linecap:round;stroke-linejoin:round;stroke-miterlimit:4;stroke-dasharray:none;stroke-opacity:1"
     d="m 20.173146,0.82817721 c 0,0 0,0.59378739 0,0.59378739"
     id="path18" />
  <path
     style="fill:#ffffff;fill-opacity:1;fill-rule:evenodd;stroke:none"
     d="m 20.673178,0.82817721 c 0,0 -20.43878823,0 -20.43878823,0 0,0 0,-0.59378744 0,-0.59378744 0,0 20.43878823,0 20.43878823,0 z"
     id="path19" />
  <path
     style="fill:none;stroke:#000000;stroke-width:0.46878px;stroke-linecap:round;stroke-linejoin:round;stroke-miterlimit:4;stroke-dasharray:none;stroke-opacity:1"
     d="m 20.673178,0.82817721 c 0,0 -20.43878823,0 -20.43878823,0 0,0 0,-0.59378744 0,-0.59378744 0,0 20.43878823,0 20.43878823,0 0,0 0,0.59378744 0,0.59378744"
     id="path20" />
</svg>
