<?xml version="1.0" encoding="UTF-8" standalone="no"?>
<svg
   version="1.0"
   width="16.945995mm"
   height="4.1821508mm"
   id="svg11"
   xmlns="http://www.w3.org/2000/svg"
   xmlns:svg="http://www.w3.org/2000/svg">
  <defs
     id="defs1">
    <pattern
       id="EMFhbasepattern"
       patternUnits="userSpaceOnUse"
       width="6"
       height="6"
       x="0"
       y="0" />
  </defs>
  <path
     style="fill:#ffffff;fill-opacity:1;fill-rule:evenodd;stroke:none"
     d="M 1.5439279,1.8149973 C 2.1689672,0.06488712 7.1067782,0.18989502 8.794385,0.31490282 c 2.937685,0.2500158 5.750362,1.18757478 11.563228,2.31264568 4.250268,0.8125512 5.625354,0 8.938063,1.000063 2.187638,0.6875433 3.125197,1.5000945 3.250205,3.1251968 0,0 0.750047,0.1875119 0.937559,0.4375276 0.125008,0.1875118 -0.125008,2.3751492 0.562535,3.0626931 0.31252,0.312519 0.500032,0.875055 2.437654,1.125071 1.937622,0.250015 2.500157,0.187511 4.437779,0.312519 2.000126,0.125008 13.500851,0.125008 13.500851,0.125008 0.812551,-0.187512 1.375086,-0.812551 1.375086,-0.812551 0.62504,-0.125008 7.562977,-2.0001259 7.562977,-1.9376219 0,0 0.125007,0.31252 0.250015,0.750047 0.125008,0.3125199 0.0625,0.5000319 0.187512,0.6875429 0,0 -0.31252,0.250016 -0.625039,0.437528 -0.437528,0.31252 -0.500032,0.500032 -0.500032,0.500032 -0.0625,0 -0.125008,0 -1.562598,0.375023 0,0 0.187512,0.375024 0.187512,0.375024 -0.0625,0.0625 -0.375024,0.187512 -0.500032,0.125008 0,0 0,-0.437528 0,-0.437528 -0.562535,0.125008 -1.187575,0.31252 -1.75011,0.437528 0,0 0.187512,0.375023 0.187512,0.375023 -0.0625,0.125008 -0.31252,0.187512 -0.500032,0.187512 0,0 0,-0.500031 0,-0.500031 -0.562535,0.125007 -1.062567,0.312519 -1.625102,0.437527 0,0 0.187512,0.375024 0.187512,0.375024 -0.0625,0.0625 -0.375024,0.187512 -0.500032,0.125008 0,0 0,-0.437528 0,-0.437528 -1.75011,0.437528 -3.187701,0.812551 -3.187701,0.812551 0,0 -21.001322,-0.250015 -21.001322,-0.187512 0.375023,1.312583 -0.687544,1.500095 -2.937685,1.687607 -1.312583,0.0625 -2.37515,-0.31252 -7.000441,-0.31252 -2.500158,-0.0625 -7.062945,1.250079 -13.063323,0.375024 C 7.7318176,14.940824 4.9816444,14.253281 3.6065578,13.190714 1.2939121,11.503107 -0.01867057,10.440541 0.29384913,8.6904301 0.35635303,8.6279261 1.5439279,1.7524934 1.5439279,1.7524934 Z"
     id="path1" />
  <path
     style="fill:none;stroke:#000000;stroke-width:0.500031px;stroke-linecap:round;stroke-linejoin:round;stroke-miterlimit:4;stroke-dasharray:none;stroke-opacity:1"
     d="M 1.5439279,1.8149973 C 2.1689672,0.06488712 7.1067782,0.18989502 8.794385,0.31490282 c 2.937685,0.2500158 5.750362,1.18757478 11.563228,2.31264568 4.250268,0.8125512 5.625354,0 8.938063,1.000063 2.187638,0.6875433 3.125197,1.5000945 3.250205,3.1251968 0,0 0.750047,0.1875119 0.937559,0.4375276 0.125008,0.1875118 -0.125008,2.3751492 0.562535,3.0626931 0.31252,0.312519 0.500032,0.875055 2.437654,1.125071 1.937622,0.250015 2.500157,0.187511 4.437779,0.312519 2.000126,0.125008 13.500851,0.125008 13.500851,0.125008 0.812551,-0.187512 1.375086,-0.812551 1.375086,-0.812551 0.62504,-0.125008 7.562977,-2.0001259 7.562977,-1.9376219 0,0 0.125007,0.31252 0.250015,0.750047 0.125008,0.3125199 0.0625,0.5000319 0.187512,0.6875429 0,0 -0.31252,0.250016 -0.625039,0.437528 -0.437528,0.31252 -0.500032,0.500032 -0.500032,0.500032 -0.0625,0 -0.125008,0 -1.562598,0.375023 0,0 0.187512,0.375024 0.187512,0.375024 -0.0625,0.0625 -0.375024,0.187512 -0.500032,0.125008 0,0 0,-0.437528 0,-0.437528 -0.562535,0.125008 -1.187575,0.31252 -1.75011,0.437528 0,0 0.187512,0.375023 0.187512,0.375023 -0.0625,0.125008 -0.31252,0.187512 -0.500032,0.187512 0,0 0,-0.500031 0,-0.500031 -0.562535,0.125007 -1.062567,0.312519 -1.625102,0.437527 0,0 0.187512,0.375024 0.187512,0.375024 -0.0625,0.0625 -0.375024,0.187512 -0.500032,0.125008 0,0 0,-0.437528 0,-0.437528 -1.75011,0.437528 -3.187701,0.812551 -3.187701,0.812551 0,0 -21.001322,-0.250015 -21.001322,-0.187512 0.375023,1.312583 -0.687544,1.500095 -2.937685,1.687607 -1.312583,0.0625 -2.37515,-0.31252 -7.000441,-0.31252 -2.500158,-0.0625 -7.062945,1.250079 -13.063323,0.375024 C 7.7318176,14.940824 4.9816444,14.253281 3.6065578,13.190714 1.2939121,11.503107 -0.01867057,10.440541 0.29384913,8.6904301 0.35635303,8.6279261 1.5439279,1.7524934 1.5439279,1.7524934"
     id="path2" />
  <path
     style="fill:none;stroke:#000000;stroke-width:0.500031px;stroke-linecap:round;stroke-linejoin:round;stroke-miterlimit:4;stroke-dasharray:none;stroke-opacity:1"
     d="m 32.358369,12.190651 c 7.938,0.187512 20.938819,0.187512 22.001386,0.187512 0.187511,0 0.437527,-0.0625 0.750047,-0.187512 0.500031,-0.187512 0.812551,-0.437528 0.812551,-0.437528 3.125197,-0.687543 4.43778,-1.062567 7.687984,-2.0001259"
     id="path3" />
  <path
     style="fill:none;stroke:#000000;stroke-width:0.500031px;stroke-linecap:round;stroke-linejoin:round;stroke-miterlimit:4;stroke-dasharray:none;stroke-opacity:1"
     d="m 23.420306,11.628115 c 0.750047,0.0625 2.750173,0.187512 3.125197,1.000063 0.125008,0.437528 -1.375087,0.687544 -2.68767,0.687544 -1.687606,0 -3.125196,-0.62504 -3.312708,-1.062567 -0.125008,-0.500032 2.000126,-0.687544 2.875181,-0.62504"
     id="path4" />
  <path
     style="fill:none;stroke:#000000;stroke-width:0.500031px;stroke-linecap:round;stroke-linejoin:round;stroke-miterlimit:4;stroke-dasharray:none;stroke-opacity:1"
     d="M 0.35635303,8.6279261 C 0.91888853,7.8778792 3.4815499,7.4403517 6.7317546,7.6903674 14.607251,8.3779111 16.919896,9.4404781 19.67007,9.6279891 c 4.875307,0.3750239 5.500346,-0.250015 10.063133,0.5000319 2.000126,0.375023 2.437654,0.687543 2.625166,2.06263 0,0 0.187512,-5.4378427 0.187512,-5.4378427 0,0 0,0 0,0"
     id="path5" />
  <path
     style="fill:#ffffff;fill-opacity:1;fill-rule:evenodd;stroke:none"
     d="m 62.235251,9.6279891 c -0.250016,0.250016 -0.500032,0.31252 -0.687544,0.187512 -0.125007,-0.125008 -0.0625,-0.437527 0.125008,-0.625039 0.250016,-0.250016 0.500032,-0.31252 0.687544,-0.187512 0.125007,0.125008 0.0625,0.437528 -0.125008,0.625039 z"
     id="path6" />
  <path
     style="fill:none;stroke:#000000;stroke-width:0.500031px;stroke-linecap:round;stroke-linejoin:round;stroke-miterlimit:4;stroke-dasharray:none;stroke-opacity:1"
     d="m 62.235251,9.6279891 c -0.250016,0.250016 -0.500032,0.31252 -0.687544,0.187512 -0.125007,-0.125008 -0.0625,-0.437527 0.125008,-0.625039 0.250016,-0.250016 0.500032,-0.31252 0.687544,-0.187512 0.125007,0.125008 0.0625,0.437528 -0.125008,0.625039"
     id="path7" />
  <path
     style="fill:#ffffff;fill-opacity:1;fill-rule:evenodd;stroke:none"
     d="m 59.735093,10.315533 c -0.312519,0.187511 -0.562535,0.187511 -0.687543,0 -0.125008,-0.187512 0.0625,-0.4375279 0.31252,-0.5625359 0.250015,-0.187512 0.500031,-0.187512 0.625039,0 0.125008,0.125008 0,0.3750239 -0.250016,0.5625359 z"
     id="path8" />
  <path
     style="fill:none;stroke:#000000;stroke-width:0.500031px;stroke-linecap:round;stroke-linejoin:round;stroke-miterlimit:4;stroke-dasharray:none;stroke-opacity:1"
     d="m 59.735093,10.315533 c -0.312519,0.187511 -0.562535,0.187511 -0.687543,0 -0.125008,-0.187512 0.0625,-0.4375279 0.31252,-0.5625359 0.250015,-0.187512 0.500031,-0.187512 0.625039,0 0.125008,0.125008 0,0.3750239 -0.250016,0.5625359"
     id="path9" />
  <path
     style="fill:#ffffff;fill-opacity:1;fill-rule:evenodd;stroke:none"
     d="m 57.359944,10.503044 c 0.187511,0.187512 0.250015,0.437528 0.125007,0.62504 -0.125007,0.125008 -0.375023,0.0625 -0.625039,-0.125008 -0.250016,-0.250016 -0.31252,-0.500032 -0.187512,-0.625039 0.125008,-0.187512 0.437528,-0.125008 0.687544,0.125007 z"
     id="path10" />
  <path
     style="fill:none;stroke:#000000;stroke-width:0.500031px;stroke-linecap:round;stroke-linejoin:round;stroke-miterlimit:4;stroke-dasharray:none;stroke-opacity:1"
     d="m 57.359944,10.503044 c 0.187511,0.187512 0.250015,0.437528 0.125007,0.62504 -0.125007,0.125008 -0.375023,0.0625 -0.625039,-0.125008 -0.250016,-0.250016 -0.31252,-0.500032 -0.187512,-0.625039 0.125008,-0.187512 0.437528,-0.125008 0.687544,0.125007"
     id="path11" />
</svg>
