<?xml version="1.0" encoding="UTF-8" standalone="no"?>
<svg
   version="1.0"
   width="5.9204345mm"
   height="11.262035mm"
   id="svg28"
   xmlns="http://www.w3.org/2000/svg"
   xmlns:svg="http://www.w3.org/2000/svg">
  <defs
     id="defs1">
    <pattern
       id="EMFhbasepattern"
       patternUnits="userSpaceOnUse"
       width="6"
       height="6"
       x="0"
       y="0" />
  </defs>
  <path
     style="fill:#ffffff;fill-opacity:1;fill-rule:evenodd;stroke:none"
     d="m 11.1257,15.625984 c -2.8751804,0 -2.8751804,2.562662 -2.8751804,2.562662 0,0 0.4375278,0 0.4375278,0 0,0 0,-2.250142 2.4376526,-2.250142 2.437654,0 2.437654,2.312646 2.437654,2.312646 0,0 0.500031,0 0.500031,0 0,0 0,-2.625166 -2.937685,-2.625166 z"
     id="path1" />
  <path
     style="fill:none;stroke:#000000;stroke-width:0.500031px;stroke-linecap:round;stroke-linejoin:round;stroke-miterlimit:4;stroke-dasharray:none;stroke-opacity:1"
     d="m 11.1257,15.625984 c -2.8751804,0 -2.8751804,2.562662 -2.8751804,2.562662 0,0 0.4375278,0 0.4375278,0 0,0 0,-2.250142 2.4376526,-2.250142 2.437654,0 2.437654,2.312646 2.437654,2.312646 0,0 0.500031,0 0.500031,0 0,0 0,-2.625166 -2.937685,-2.625166"
     id="path2" />
  <path
     style="fill:#ffffff;fill-opacity:1;fill-rule:evenodd;stroke:none"
     d="m 15.438472,40.815071 c 0,0 2.37515,1.500095 2.37515,1.500095 0,0 0.312519,-0.562536 0.312519,-0.562536 0,0 -1.812614,-1.187575 -1.812614,-1.187575 z"
     id="path3" />
  <path
     style="fill:none;stroke:#000000;stroke-width:0.500031px;stroke-linecap:round;stroke-linejoin:round;stroke-miterlimit:4;stroke-dasharray:none;stroke-opacity:1"
     d="m 15.438472,40.815071 c 0,0 2.37515,1.500095 2.37515,1.500095 0,0 0.312519,-0.562536 0.312519,-0.562536 0,0 -1.812614,-1.187575 -1.812614,-1.187575"
     id="path4" />
  <path
     style="fill:#ffffff;fill-opacity:1;fill-rule:evenodd;stroke:none"
     d="m 6.6879212,40.815071 c 0,0 -2.3751496,1.500095 -2.3751496,1.500095 0,0 -0.3125197,-0.562536 -0.3125197,-0.562536 0,0 1.7501103,-1.187575 1.7501103,-1.187575 z"
     id="path5" />
  <path
     style="fill:none;stroke:#000000;stroke-width:0.500031px;stroke-linecap:round;stroke-linejoin:round;stroke-miterlimit:4;stroke-dasharray:none;stroke-opacity:1"
     d="m 6.6879212,40.815071 c 0,0 -2.3751496,1.500095 -2.3751496,1.500095 0,0 -0.3125197,-0.562536 -0.3125197,-0.562536 0,0 1.7501103,-1.187575 1.7501103,-1.187575"
     id="path6" />
  <path
     style="fill:#ffffff;fill-opacity:1;fill-rule:evenodd;stroke:none"
     d="m 11.188204,0.25001574 c 0.31252,0 2.500158,0.5625355 2.500158,0.5625355 C 13.563354,1.5625984 13.18833,4.4377795 13.18833,4.8128031 c 0,0.5625355 0.375024,2.7501733 0.375024,2.7501733 0,0 -0.750047,0.1875118 -0.750047,1.6251024 0,0 -0.125008,0 -0.187512,0 0,0 0.187512,10.5631652 0.187512,10.5631652 0,0 3.81274,-0.187512 5.437842,0.562536 0.562536,0.250015 1.125071,1.062567 1.125071,1.812614 0,0 0,2.000126 0,2.000126 0,0.937559 -0.375024,2.937685 -0.375024,3.125197 0,0.500031 2.000126,2.187638 2.750174,4.375275 0.375023,1.125071 0.375023,2.875181 0.375023,4.000252 0,4.937811 -6.250393,5.625355 -10.938189,5.625355 -4.7502985,0 -10.93818826,-0.687544 -10.93818826,-5.625355 0,-1.312582 0.062504,-3.062693 0.3750236,-4.000252 0.68754326,-2.187637 2.68766926,-3.875244 2.68766926,-4.375275 0,-0.187512 -0.3750236,-2.187638 -0.3750236,-3.125197 0,0 0,-2.000126 0,-2.000126 0,-0.750047 0.5625354,-1.562599 1.1250709,-1.812614 1.6251023,-0.750048 5.4378425,-0.562536 5.4378425,-0.562536 0,0 0.187512,-10.5631652 0.187512,-10.5631652 0,0 -0.187512,0 -0.187512,0 0,-1.4375906 -0.687543,-1.6251024 -0.687543,-1.6251024 0,0 0.375023,-2.3751497 0.375023,-2.7501733 0,-0.3750236 -0.375023,-3.2502047 -0.562535,-4.00025186 0,0 2.1876376,-0.5625355 2.5626606,-0.5625355 z"
     id="path7" />
  <path
     style="fill:none;stroke:#000000;stroke-width:0.500031px;stroke-linecap:round;stroke-linejoin:round;stroke-miterlimit:4;stroke-dasharray:none;stroke-opacity:1"
     d="m 11.188204,0.25001574 c 0.31252,0 2.500158,0.5625355 2.500158,0.5625355 C 13.563354,1.5625984 13.18833,4.4377795 13.18833,4.8128031 c 0,0.5625355 0.375024,2.7501733 0.375024,2.7501733 0,0 -0.750047,0.1875118 -0.750047,1.6251024 0,0 -0.125008,0 -0.187512,0 0,0 0.187512,10.5631652 0.187512,10.5631652 0,0 3.81274,-0.187512 5.437842,0.562536 0.562536,0.250015 1.125071,1.062567 1.125071,1.812614 0,0 0,2.000126 0,2.000126 0,0.937559 -0.375024,2.937685 -0.375024,3.125197 0,0.500031 2.000126,2.187638 2.750174,4.375275 0.375023,1.125071 0.375023,2.875181 0.375023,4.000252 0,4.937811 -6.250393,5.625355 -10.938189,5.625355 -4.7502985,0 -10.93818826,-0.687544 -10.93818826,-5.625355 0,-1.312582 0.062504,-3.062693 0.3750236,-4.000252 0.68754326,-2.187637 2.68766926,-3.875244 2.68766926,-4.375275 0,-0.187512 -0.3750236,-2.187638 -0.3750236,-3.125197 0,0 0,-2.000126 0,-2.000126 0,-0.750047 0.5625354,-1.562599 1.1250709,-1.812614 1.6251023,-0.750048 5.4378425,-0.562536 5.4378425,-0.562536 0,0 0.187512,-10.5631652 0.187512,-10.5631652 0,0 -0.187512,0 -0.187512,0 0,-1.4375906 -0.687543,-1.6251024 -0.687543,-1.6251024 0,0 0.375023,-2.3751497 0.375023,-2.7501733 0,-0.3750236 -0.375023,-3.2502047 -0.562535,-4.00025186 0,0 2.1876376,-0.5625355 2.5626606,-0.5625355"
     id="path8" />
  <path
     style="fill:#ffffff;fill-opacity:1;fill-rule:evenodd;stroke:none"
     d="m 12.875811,23.063953 c 0,0 3.1877,-0.187512 4.875307,0.500031 0.562535,0.250016 1.43759,0.937559 1.43759,1.875119 0,1.43759 -0.750047,2.875181 -0.750047,4.187763 0,0.875055 2.06263,2.937685 2.750173,5.062819 0.187512,0.562536 0.562536,1.75011 0.375024,3.187701 z"
     id="path9" />
  <path
     style="fill:none;stroke:#000000;stroke-width:0.500031px;stroke-linecap:round;stroke-linejoin:round;stroke-miterlimit:4;stroke-dasharray:none;stroke-opacity:1"
     d="m 12.875811,23.063953 c 0,0 3.1877,-0.187512 4.875307,0.500031 0.562535,0.250016 1.43759,0.937559 1.43759,1.875119 0,1.43759 -0.750047,2.875181 -0.750047,4.187763 0,0.875055 2.06263,2.937685 2.750173,5.062819 0.187512,0.562536 0.562536,1.75011 0.375024,3.187701"
     id="path10" />
  <path
     style="fill:#ffffff;fill-opacity:1;fill-rule:evenodd;stroke:none"
     d="m 8.5005354,5.3753386 c 0.250016,0 0.500031,0.2500157 0.500031,0.6250393 0,0.3750236 -0.250015,0.6250394 -0.500031,0.6250394 -0.2500158,0 -0.4375276,-0.2500158 -0.4375276,-0.6250394 0,-0.3750236 0.1875118,-0.6250393 0.4375276,-0.6250393 z"
     id="path11" />
  <path
     style="fill:none;stroke:#000000;stroke-width:0.500031px;stroke-linecap:round;stroke-linejoin:round;stroke-miterlimit:4;stroke-dasharray:none;stroke-opacity:1"
     d="m 8.5005354,5.3753386 c 0.250016,0 0.500031,0.2500157 0.500031,0.6250393 0,0.3750236 -0.250015,0.6250394 -0.500031,0.6250394 -0.2500158,0 -0.4375276,-0.2500158 -0.4375276,-0.6250394 0,-0.3750236 0.1875118,-0.6250393 0.4375276,-0.6250393"
     id="path12" />
  <path
     style="fill:#ffffff;fill-opacity:1;fill-rule:evenodd;stroke:none"
     d="m 8.5005354,3.937748 c 0.250016,0 0.500031,0.1250079 0.500031,0.3125197 0,0.2500157 -0.250015,0.3750236 -0.500031,0.3750236 -0.2500158,0 -0.4375276,-0.1250079 -0.4375276,-0.3750236 0,-0.1875118 0.1875118,-0.3125197 0.4375276,-0.3125197 z"
     id="path13" />
  <path
     style="fill:none;stroke:#000000;stroke-width:0.500031px;stroke-linecap:round;stroke-linejoin:round;stroke-miterlimit:4;stroke-dasharray:none;stroke-opacity:1"
     d="m 8.5005354,3.937748 c 0.250016,0 0.500031,0.1250079 0.500031,0.3125197 0,0.2500157 -0.250015,0.3750236 -0.500031,0.3750236 -0.2500158,0 -0.4375276,-0.1250079 -0.4375276,-0.3750236 0,-0.1875118 0.1875118,-0.3125197 0.4375276,-0.3125197"
     id="path14" />
  <path
     style="fill:#ffffff;fill-opacity:1;fill-rule:evenodd;stroke:none"
     d="m 8.3130236,2.000126 c 0.2500158,0 0.5000318,0.1875118 0.5000318,0.3750236 0,0.1875118 -0.250016,0.3750236 -0.5000318,0.3750236 -0.2500158,0 -0.4375276,-0.1875118 -0.4375276,-0.3750236 0,-0.1875118 0.1875118,-0.3750236 0.4375276,-0.3750236 z"
     id="path15" />
  <path
     style="fill:none;stroke:#000000;stroke-width:0.500031px;stroke-linecap:round;stroke-linejoin:round;stroke-miterlimit:4;stroke-dasharray:none;stroke-opacity:1"
     d="m 8.3130236,2.000126 c 0.2500158,0 0.5000318,0.1875118 0.5000318,0.3750236 0,0.1875118 -0.250016,0.3750236 -0.5000318,0.3750236 -0.2500158,0 -0.4375276,-0.1875118 -0.4375276,-0.3750236 0,-0.1875118 0.1875118,-0.3750236 0.4375276,-0.3750236"
     id="path16" />
  <path
     style="fill:#ffffff;fill-opacity:1;fill-rule:evenodd;stroke:none"
     d="m 14.000881,1.7501102 c 0.250016,0 0.437528,0.2500158 0.437528,0.6250394 0,0.3125197 -0.187512,0.6250393 -0.437528,0.6250393 -0.250015,0 -0.437527,-0.3125196 -0.437527,-0.6250393 0,-0.3750236 0.187512,-0.6250394 0.437527,-0.6250394 z"
     id="path17" />
  <path
     style="fill:none;stroke:#000000;stroke-width:0.500031px;stroke-linecap:round;stroke-linejoin:round;stroke-miterlimit:4;stroke-dasharray:none;stroke-opacity:1"
     d="m 14.000881,1.7501102 c 0.250016,0 0.437528,0.2500158 0.437528,0.6250394 0,0.3125197 -0.187512,0.6250393 -0.437528,0.6250393 -0.250015,0 -0.437527,-0.3125196 -0.437527,-0.6250393 0,-0.3750236 0.187512,-0.6250394 0.437527,-0.6250394"
     id="path18" />
  <path
     style="fill:#ffffff;fill-opacity:1;fill-rule:evenodd;stroke:none"
     d="m 13.81337,3.7502362 c 0.250015,0 0.437527,0.2500157 0.437527,0.5000315 0,0.3125197 -0.187512,0.5625354 -0.437527,0.5625354 -0.250016,0 -0.437528,-0.2500157 -0.437528,-0.5625354 0,-0.2500158 0.187512,-0.5000315 0.437528,-0.5000315 z"
     id="path19" />
  <path
     style="fill:none;stroke:#000000;stroke-width:0.500031px;stroke-linecap:round;stroke-linejoin:round;stroke-miterlimit:4;stroke-dasharray:none;stroke-opacity:1"
     d="m 13.81337,3.7502362 c 0.250015,0 0.437527,0.2500157 0.437527,0.5000315 0,0.3125197 -0.187512,0.5625354 -0.437527,0.5625354 -0.250016,0 -0.437528,-0.2500157 -0.437528,-0.5625354 0,-0.2500158 0.187512,-0.5000315 0.437528,-0.5000315"
     id="path20" />
  <path
     style="fill:#ffffff;fill-opacity:1;fill-rule:evenodd;stroke:none"
     d="m 13.81337,5.5628504 c 0.250015,0 0.437527,0.1875118 0.437527,0.4375275 0,0.2500158 -0.187512,0.4375276 -0.437527,0.4375276 -0.250016,0 -0.437528,-0.1875118 -0.437528,-0.4375276 0,-0.2500157 0.187512,-0.4375275 0.437528,-0.4375275 z"
     id="path21" />
  <path
     style="fill:none;stroke:#000000;stroke-width:0.500031px;stroke-linecap:round;stroke-linejoin:round;stroke-miterlimit:4;stroke-dasharray:none;stroke-opacity:1"
     d="m 13.81337,5.5628504 c 0.250015,0 0.437527,0.1875118 0.437527,0.4375275 0,0.2500158 -0.187512,0.4375276 -0.437527,0.4375276 -0.250016,0 -0.437528,-0.1875118 -0.437528,-0.4375276 0,-0.2500157 0.187512,-0.4375275 0.437528,-0.4375275"
     id="path22" />
  <path
     style="fill:#ffffff;fill-opacity:1;fill-rule:evenodd;stroke:none"
     d="m 9.4380944,23.063953 c 0,0 -3.2502047,-0.187512 -4.875307,0.500031 -0.5625355,0.250016 -1.4375906,0.937559 -1.4375906,1.875119 0,1.43759 0.7500472,2.875181 0.7500472,4.187763 0,0.875055 -2.0626299,2.937685 -2.7501732,5.062819 -0.18751176,0.562536 -0.56253536,1.75011 -0.37502356,3.187701 z"
     id="path23" />
  <path
     style="fill:none;stroke:#000000;stroke-width:0.500031px;stroke-linecap:round;stroke-linejoin:round;stroke-miterlimit:4;stroke-dasharray:none;stroke-opacity:1"
     d="m 9.4380944,23.063953 c 0,0 -3.2502047,-0.187512 -4.875307,0.500031 -0.5625355,0.250016 -1.4375906,0.937559 -1.4375906,1.875119 0,1.43759 0.7500472,2.875181 0.7500472,4.187763 0,0.875055 -2.0626299,2.937685 -2.7501732,5.062819 -0.18751176,0.562536 -0.56253536,1.75011 -0.37502356,3.187701"
     id="path24" />
  <path
     style="fill:#ffffff;fill-opacity:1;fill-rule:evenodd;stroke:none"
     d="m 11.063196,26.689181 c 1.562599,0 2.812678,0.812551 2.812678,1.812614 0,1.000063 -1.250079,1.812615 -2.812678,1.812615 -1.5625976,0 -2.8126764,-0.812552 -2.8126764,-1.812615 0,-1.000063 1.2500788,-1.812614 2.8126764,-1.812614 z"
     id="path25" />
  <path
     style="fill:none;stroke:#000000;stroke-width:0.500031px;stroke-linecap:round;stroke-linejoin:round;stroke-miterlimit:4;stroke-dasharray:none;stroke-opacity:1"
     d="m 11.063196,26.689181 c 1.562599,0 2.812678,0.812551 2.812678,1.812614 0,1.000063 -1.250079,1.812615 -2.812678,1.812615 -1.5625976,0 -2.8126764,-0.812552 -2.8126764,-1.812615 0,-1.000063 1.2500788,-1.812614 2.8126764,-1.812614"
     id="path26" />
  <path
     style="fill:#ffffff;fill-opacity:1;fill-rule:evenodd;stroke:none"
     d="m 12.625795,9.1880788 c 0,0 0.31252,17.6886142 0.31252,17.6886142 0,0 -3.5002206,0 -3.5002206,0 0,0 0.250016,-17.6886142 0.250016,-17.6886142 z"
     id="path27" />
  <path
     style="fill:none;stroke:#000000;stroke-width:0.500031px;stroke-linecap:round;stroke-linejoin:round;stroke-miterlimit:4;stroke-dasharray:none;stroke-opacity:1"
     d="m 12.625795,9.1880788 c 0,0 0.31252,17.6886142 0.31252,17.6886142 0,0 -3.5002206,0 -3.5002206,0 0,0 0.250016,-17.6886142 0.250016,-17.6886142 0,0 2.9376846,0 2.9376846,0"
     id="path28" />
</svg>
