<?xml version="1.0" encoding="UTF-8" standalone="no"?>
<svg
   version="1.0"
   width="16.25852mm"
   height="16.852005mm"
   id="svg40"
   xmlns="http://www.w3.org/2000/svg"
   xmlns:svg="http://www.w3.org/2000/svg">
  <defs
     id="defs1">
    <pattern
       id="EMFhbasepattern"
       patternUnits="userSpaceOnUse"
       width="6"
       height="6"
       x="0"
       y="0" />
  </defs>
  <path
     style="fill:#ffffff;fill-opacity:1;fill-rule:evenodd;stroke:none"
     d="M 4.1260735,57.095234 C 3.626042,56.470195 -1.4992808,50.219801 0.87586879,45.156982 4.0635695,38.406557 8.9388766,41.906777 13.126641,37.719013 c 1.312582,-1.375086 2.06263,-4.187763 3.562724,-6.250393 1.75011,-2.437654 5.562851,-4.375276 6.562914,-3.000189 0.875055,1.187575 -3.562725,3.875244 -2.37515,6.562913 0.875055,1.937622 2.562661,-0.812551 3.562724,1.187575 0.937559,1.812614 -2.875181,5.437842 -1.187574,7.187953 2.687669,2.687669 5.56285,-2.250142 5.687858,-0.937559 0.562535,6.562913 -8.25052,8.188015 -9.563102,9.875622 -2.06263,2.687669 -0.31252,9.563102 -6.875434,11.063197 -2.6876694,0.562535 -8.3755275,-6.312898 -8.3755275,-6.312898 z"
     id="path1" />
  <path
     style="fill:none;stroke:#000000;stroke-width:0.500031px;stroke-linecap:round;stroke-linejoin:round;stroke-miterlimit:4;stroke-dasharray:none;stroke-opacity:1"
     d="M 4.1260735,57.095234 C 3.626042,56.470195 -1.4992808,50.219801 0.87586879,45.156982 4.0635695,38.406557 8.9388766,41.906777 13.126641,37.719013 c 1.312582,-1.375086 2.06263,-4.187763 3.562724,-6.250393 1.75011,-2.437654 5.562851,-4.375276 6.562914,-3.000189 0.875055,1.187575 -3.562725,3.875244 -2.37515,6.562913 0.875055,1.937622 2.562661,-0.812551 3.562724,1.187575 0.937559,1.812614 -2.875181,5.437842 -1.187574,7.187953 2.687669,2.687669 5.56285,-2.250142 5.687858,-0.937559 0.562535,6.562913 -8.25052,8.188015 -9.563102,9.875622 -2.06263,2.687669 -0.31252,9.563102 -6.875434,11.063197 -2.6876694,0.562535 -8.3755275,-6.312898 -8.3755275,-6.312898"
     id="path2" />
  <path
     style="fill:#ffffff;fill-opacity:1;fill-rule:evenodd;stroke:none"
     d="m 11.626546,47.532132 c 0,0 -2.3126454,-3.437717 -1.187574,-4.43778 2.375149,-2.125134 4.187763,-2.125134 5.687858,-3.000189 2.500157,-1.500094 2.375149,-3.250205 3.250205,-4.187764 0.375023,-0.375023 0.687543,-0.437527 0.875055,0 0.625039,1.187575 -0.31252,6.375402 2.687669,8.375528 3.625228,2.375149 5.437842,-1.75011 5.375339,-0.875055 -0.187512,3.81274 -4.187764,5.56285 -8.938063,7.938 -2.437654,1.187575 -1.875119,10.063134 -4.7503,9.625606 -2.125134,-0.250016 1.750111,-10.125638 -3.312708,-13.688362 z"
     id="path3" />
  <path
     style="fill:none;stroke:#000000;stroke-width:0.500031px;stroke-linecap:round;stroke-linejoin:round;stroke-miterlimit:4;stroke-dasharray:none;stroke-opacity:1"
     d="m 11.626546,47.532132 c 0,0 -2.3126454,-3.437717 -1.187574,-4.43778 2.375149,-2.125134 4.187763,-2.125134 5.687858,-3.000189 2.500157,-1.500094 2.375149,-3.250205 3.250205,-4.187764 0.375023,-0.375023 0.687543,-0.437527 0.875055,0 0.625039,1.187575 -0.31252,6.375402 2.687669,8.375528 3.625228,2.375149 5.437842,-1.75011 5.375339,-0.875055 -0.187512,3.81274 -4.187764,5.56285 -8.938063,7.938 -2.437654,1.187575 -1.875119,10.063134 -4.7503,9.625606 -2.125134,-0.250016 1.750111,-10.125638 -3.312708,-13.688362"
     id="path4" />
  <path
     style="fill:#ffffff;fill-opacity:1;fill-rule:evenodd;stroke:none"
     d="m 12.439098,44.531943 c 0.312519,-0.31252 1.43759,0.312519 2.562661,1.43759 0,0 0,0 0,0 1.062567,1.125071 1.75011,2.250142 1.43759,2.562662 0,0 0,0 0,0 -0.250015,0.250015 -1.43759,-0.375024 -2.500157,-1.500095 0,0 0,0 0,0 -1.125071,-1.125071 -1.812614,-2.250142 -1.500094,-2.500157 z"
     id="path5" />
  <path
     style="fill:none;stroke:#000000;stroke-width:0.500031px;stroke-linecap:round;stroke-linejoin:round;stroke-miterlimit:4;stroke-dasharray:none;stroke-opacity:1"
     d="m 12.439098,44.531943 c 0.312519,-0.31252 1.43759,0.312519 2.562661,1.43759 0,0 0,0 0,0 1.062567,1.125071 1.75011,2.250142 1.43759,2.562662 0,0 0,0 0,0 -0.250015,0.250015 -1.43759,-0.375024 -2.500157,-1.500095 0,0 0,0 0,0 -1.125071,-1.125071 -1.812614,-2.250142 -1.500094,-2.500157 0,0 0,0 0,0"
     id="path6" />
  <path
     style="fill:#ffffff;fill-opacity:1;fill-rule:evenodd;stroke:none"
     d="m 8.2513336,48.969722 c 0.312519,-0.250016 1.43759,0.375024 2.5626614,1.500095 0,0 0,0 0,0 1.062567,1.12507 1.75011,2.250141 1.437591,2.500157 0,0 0,0 0,0 -0.250016,0.31252 -1.375087,-0.375024 -2.5001584,-1.43759 0,0 0,0 0,0 -1.125071,-1.125071 -1.75011,-2.250142 -1.500094,-2.562662 z"
     id="path7" />
  <path
     style="fill:none;stroke:#000000;stroke-width:0.500031px;stroke-linecap:round;stroke-linejoin:round;stroke-miterlimit:4;stroke-dasharray:none;stroke-opacity:1"
     d="m 8.2513336,48.969722 c 0.312519,-0.250016 1.43759,0.375024 2.5626614,1.500095 0,0 0,0 0,0 1.062567,1.12507 1.75011,2.250141 1.437591,2.500157 0,0 0,0 0,0 -0.250016,0.31252 -1.375087,-0.375024 -2.5001584,-1.43759 0,0 0,0 0,0 -1.125071,-1.125071 -1.75011,-2.250142 -1.500094,-2.562662 0,0 0,0 0,0"
     id="path8" />
  <path
     style="fill:#ffffff;fill-opacity:1;fill-rule:evenodd;stroke:none"
     d="m 15.751806,41.219234 c 0.250016,-0.31252 1.375087,0.375024 2.500158,1.500094 0,0 0,0 0,0 1.125071,1.062567 1.75011,2.250142 1.500094,2.500158 0,0 0,0 0,0 -0.31252,0.31252 -1.43759,-0.375024 -2.562661,-1.437591 0,0 0,0 0,0 -1.062567,-1.125071 -1.750111,-2.250141 -1.437591,-2.562661 z"
     id="path9" />
  <path
     style="fill:none;stroke:#000000;stroke-width:0.500031px;stroke-linecap:round;stroke-linejoin:round;stroke-miterlimit:4;stroke-dasharray:none;stroke-opacity:1"
     d="m 15.751806,41.219234 c 0.250016,-0.31252 1.375087,0.375024 2.500158,1.500094 0,0 0,0 0,0 1.125071,1.062567 1.75011,2.250142 1.500094,2.500158 0,0 0,0 0,0 -0.31252,0.31252 -1.43759,-0.375024 -2.562661,-1.437591 0,0 0,0 0,0 -1.062567,-1.125071 -1.750111,-2.250141 -1.437591,-2.562661 0,0 0,0 0,0"
     id="path10" />
  <path
     style="fill:#ffffff;fill-opacity:1;fill-rule:evenodd;stroke:none"
     d="m 47.191286,11.904887 c 0,0 2.06263,2.06263 2.06263,2.06263 0,0 -28.064267,29.564363 -28.064267,29.564363 0,0 -3.562725,-3.312709 -3.562725,-3.312709 z"
     id="path11" />
  <path
     style="fill:none;stroke:#000000;stroke-width:0.500031px;stroke-linecap:round;stroke-linejoin:round;stroke-miterlimit:4;stroke-dasharray:none;stroke-opacity:1"
     d="m 47.191286,11.904887 c 0,0 2.06263,2.06263 2.06263,2.06263 0,0 -28.064267,29.564363 -28.064267,29.564363 0,0 -3.562725,-3.312709 -3.562725,-3.312709 0,0 29.564362,-28.314284 29.564362,-28.314284"
     id="path12" />
  <path
     style="fill:#ffffff;fill-opacity:1;fill-rule:evenodd;stroke:none"
     d="m 47.191286,11.842384 c 0,0 0.437528,-0.375024 0.562536,-0.875056 0.31252,-0.937559 -0.31252,-1.5000937 0,-1.8126137 0.31252,-0.312519 9.875622,-7.1254486 10.188142,-7.1879525 1.75011,-0.6250394 2.250141,0.1875118 2.687669,0.5625354 1.187575,1.1875748 0.250016,2.6876693 -0.31252,3.000189 -0.250015,0.1250079 -1.812614,-0.8750551 -3.312708,1.8126142 -1.125071,2.0626299 -2.68767,4.4377796 -3.250205,5.0628186 -0.31252,0.31252 -1.187575,-0.812551 -3.312709,0.687543 -0.750047,0.562536 -1.187575,0.875055 -1.187575,0.875055 z"
     id="path13" />
  <path
     style="fill:none;stroke:#000000;stroke-width:0.500031px;stroke-linecap:round;stroke-linejoin:round;stroke-miterlimit:4;stroke-dasharray:none;stroke-opacity:1"
     d="m 47.191286,11.842384 c 0,0 0.437528,-0.375024 0.562536,-0.875056 0.31252,-0.937559 -0.31252,-1.5000937 0,-1.8126137 0.31252,-0.312519 9.875622,-7.1254486 10.188142,-7.1879525 1.75011,-0.6250394 2.250141,0.1875118 2.687669,0.5625354 1.187575,1.1875748 0.250016,2.6876693 -0.31252,3.000189 -0.250015,0.1250079 -1.812614,-0.8750551 -3.312708,1.8126142 -1.125071,2.0626299 -2.68767,4.4377796 -3.250205,5.0628186 -0.31252,0.31252 -1.187575,-0.812551 -3.312709,0.687543 -0.750047,0.562536 -1.187575,0.875055 -1.187575,0.875055"
     id="path14" />
  <path
     style="fill:#ffffff;fill-opacity:1;fill-rule:evenodd;stroke:none"
     d="m 50.066468,9.8422583 c 0.125007,0.2500147 0,0.6250387 -0.250016,0.7500467 -0.31252,0.125008 -0.62504,0 -0.812551,-0.250016 -0.125008,-0.31252 0,-0.6250387 0.250015,-0.7500467 0.31252,-0.187512 0.62504,-0.0625 0.812552,0.250016 z"
     id="path15" />
  <path
     style="fill:none;stroke:#000000;stroke-width:0.500031px;stroke-linecap:round;stroke-linejoin:round;stroke-miterlimit:4;stroke-dasharray:none;stroke-opacity:1"
     d="m 50.066468,9.8422583 c 0.125007,0.2500147 0,0.6250387 -0.250016,0.7500467 -0.31252,0.125008 -0.62504,0 -0.812551,-0.250016 -0.125008,-0.31252 0,-0.6250387 0.250015,-0.7500467 0.31252,-0.187512 0.62504,-0.0625 0.812552,0.250016"
     id="path16" />
  <path
     style="fill:#ffffff;fill-opacity:1;fill-rule:evenodd;stroke:none"
     d="m 53.004153,7.717124 c 0.187511,0.3125197 0.0625,0.6250393 -0.250016,0.7500473 -0.250016,0.187512 -0.625039,0.0625 -0.750047,-0.2500158 -0.125008,-0.2500158 0,-0.6250394 0.250015,-0.7500473 0.31252,-0.1250078 0.62504,0 0.750048,0.2500158 z"
     id="path17" />
  <path
     style="fill:none;stroke:#000000;stroke-width:0.500031px;stroke-linecap:round;stroke-linejoin:round;stroke-miterlimit:4;stroke-dasharray:none;stroke-opacity:1"
     d="m 53.004153,7.717124 c 0.187511,0.3125197 0.0625,0.6250393 -0.250016,0.7500473 -0.250016,0.187512 -0.625039,0.0625 -0.750047,-0.2500158 -0.125008,-0.2500158 0,-0.6250394 0.250015,-0.7500473 0.31252,-0.1250078 0.62504,0 0.750048,0.2500158"
     id="path18" />
  <path
     style="fill:#ffffff;fill-opacity:1;fill-rule:evenodd;stroke:none"
     d="m 55.441806,5.6544941 c 0.125008,0.2500157 0,0.6250393 -0.250016,0.7500472 -0.312519,0.1250079 -0.625039,0 -0.812551,-0.2500157 -0.125008,-0.3125197 0,-0.6250394 0.250016,-0.7500473 0.31252,-0.1875118 0.625039,-0.062504 0.812551,0.2500158 z"
     id="path19" />
  <path
     style="fill:none;stroke:#000000;stroke-width:0.500031px;stroke-linecap:round;stroke-linejoin:round;stroke-miterlimit:4;stroke-dasharray:none;stroke-opacity:1"
     d="m 55.441806,5.6544941 c 0.125008,0.2500157 0,0.6250393 -0.250016,0.7500472 -0.312519,0.1250079 -0.625039,0 -0.812551,-0.2500157 -0.125008,-0.3125197 0,-0.6250394 0.250016,-0.7500473 0.31252,-0.1875118 0.625039,-0.062504 0.812551,0.2500158"
     id="path20" />
  <path
     style="fill:#ffffff;fill-opacity:1;fill-rule:evenodd;stroke:none"
     d="m 58.129475,3.5293602 c 0.187512,0.3125197 0.0625,0.6875433 -0.250015,0.8125512 -0.250016,0.1875118 -0.62504,0.062504 -0.812551,-0.2500158 -0.125008,-0.3125197 0,-0.6250393 0.312519,-0.8125512 0.250016,-0.1250078 0.62504,0 0.750047,0.2500158 z"
     id="path21" />
  <path
     style="fill:none;stroke:#000000;stroke-width:0.500031px;stroke-linecap:round;stroke-linejoin:round;stroke-miterlimit:4;stroke-dasharray:none;stroke-opacity:1"
     d="m 58.129475,3.5293602 c 0.187512,0.3125197 0.0625,0.6875433 -0.250015,0.8125512 -0.250016,0.1875118 -0.62504,0.062504 -0.812551,-0.2500158 -0.125008,-0.3125197 0,-0.6250393 0.312519,-0.8125512 0.250016,-0.1250078 0.62504,0 0.750047,0.2500158"
     id="path22" />
  <path
     style="fill:#ffffff;fill-opacity:1;fill-rule:evenodd;stroke:none"
     d="m 49.503932,6.0295177 c 0.500032,0.2500157 0.500032,0.937559 -0.0625,1.5625984 -0.500031,0.6250394 -1.375086,0.9375592 -1.875118,0.6875433 -0.562535,-0.2500157 -0.500031,-1.000063 0,-1.6251024 0.562536,-0.6250393 1.375087,-0.8750551 1.937622,-0.6250393 z"
     id="path23" />
  <path
     style="fill:none;stroke:#000000;stroke-width:0.500031px;stroke-linecap:round;stroke-linejoin:round;stroke-miterlimit:4;stroke-dasharray:none;stroke-opacity:1"
     d="m 49.503932,6.0295177 c 0.500032,0.2500157 0.500032,0.937559 -0.0625,1.5625984 -0.500031,0.6250394 -1.375086,0.9375592 -1.875118,0.6875433 -0.562535,-0.2500157 -0.500031,-1.000063 0,-1.6251024 0.562536,-0.6250393 1.375087,-0.8750551 1.937622,-0.6250393"
     id="path24" />
  <path
     style="fill:#ffffff;fill-opacity:1;fill-rule:evenodd;stroke:none"
     d="m 52.191601,3.9043838 c 0.500032,0.2500158 0.500032,1.000063 -0.0625,1.6251024 -0.500032,0.6250394 -1.375087,0.937559 -1.875119,0.6875433 -0.562535,-0.2500158 -0.500031,-1.000063 0,-1.6251024 0.562536,-0.6250393 1.375087,-0.937559 1.937622,-0.6875433 z"
     id="path25" />
  <path
     style="fill:none;stroke:#000000;stroke-width:0.500031px;stroke-linecap:round;stroke-linejoin:round;stroke-miterlimit:4;stroke-dasharray:none;stroke-opacity:1"
     d="m 52.191601,3.9043838 c 0.500032,0.2500158 0.500032,1.000063 -0.0625,1.6251024 -0.500032,0.6250394 -1.375087,0.937559 -1.875119,0.6875433 -0.562535,-0.2500158 -0.500031,-1.000063 0,-1.6251024 0.562536,-0.6250393 1.375087,-0.937559 1.937622,-0.6875433"
     id="path26" />
  <path
     style="fill:#ffffff;fill-opacity:1;fill-rule:evenodd;stroke:none"
     d="m 54.879271,2.1542736 c 0.500031,0.2500157 0.500031,0.937559 -0.0625,1.5625984 -0.500032,0.6250394 -1.375087,0.9375591 -1.875118,0.6875433 -0.562536,-0.2500157 -0.500032,-1.000063 0,-1.6251023 0.562535,-0.6250394 1.375086,-0.9375591 1.937622,-0.6250394 z"
     id="path27" />
  <path
     style="fill:none;stroke:#000000;stroke-width:0.500031px;stroke-linecap:round;stroke-linejoin:round;stroke-miterlimit:4;stroke-dasharray:none;stroke-opacity:1"
     d="m 54.879271,2.1542736 c 0.500031,0.2500157 0.500031,0.937559 -0.0625,1.5625984 -0.500032,0.6250394 -1.375087,0.9375591 -1.875118,0.6875433 -0.562536,-0.2500157 -0.500032,-1.000063 0,-1.6251023 0.562535,-0.6250394 1.375086,-0.9375591 1.937622,-0.6250394"
     id="path28" />
  <path
     style="fill:#ffffff;fill-opacity:1;fill-rule:evenodd;stroke:none"
     d="m 57.56694,0.34165938 c 0.500032,0.2500158 0.500032,1.00006302 -0.0625,1.62510242 -0.562535,0.6250393 -1.375087,0.937559 -1.875118,0.6250393 -0.562535,-0.2500157 -0.500032,-0.937559 0,-1.5625984 0.562535,-0.62503942 1.375087,-0.93755902 1.937622,-0.68754332 z"
     id="path29" />
  <path
     style="fill:none;stroke:#000000;stroke-width:0.500031px;stroke-linecap:round;stroke-linejoin:round;stroke-miterlimit:4;stroke-dasharray:none;stroke-opacity:1"
     d="m 57.56694,0.34165938 c 0.500032,0.2500158 0.500032,1.00006302 -0.0625,1.62510242 -0.562535,0.6250393 -1.375087,0.937559 -1.875118,0.6250393 -0.562535,-0.2500157 -0.500032,-0.937559 0,-1.5625984 0.562535,-0.62503942 1.375087,-0.93755902 1.937622,-0.68754332"
     id="path30" />
  <path
     style="fill:#ffffff;fill-opacity:1;fill-rule:evenodd;stroke:none"
     d="m 5.8761837,50.282305 c 0,0 5.0628193,5.062819 5.0628193,5.062819 0,0 -2.8126774,2.750173 -2.8126774,2.750173 0,0 -5.062819,-5.062819 -5.062819,-5.062819 z"
     id="path31" />
  <path
     style="fill:none;stroke:#000000;stroke-width:0.500031px;stroke-linecap:round;stroke-linejoin:round;stroke-miterlimit:4;stroke-dasharray:none;stroke-opacity:1"
     d="m 5.8761837,50.282305 c 0,0 5.0628193,5.062819 5.0628193,5.062819 0,0 -2.8126774,2.750173 -2.8126774,2.750173 0,0 -5.062819,-5.062819 -5.062819,-5.062819 0,0 2.8126771,-2.750173 2.8126771,-2.750173"
     id="path32" />
  <path
     style="fill:#ffffff;fill-opacity:1;fill-rule:evenodd;stroke:none"
     d="m 5.626168,52.157423 c 0,0 43.690252,-41.565118 43.690252,-41.565118 z"
     id="path33" />
  <path
     style="fill:none;stroke:#000000;stroke-width:0.500031px;stroke-linecap:round;stroke-linejoin:round;stroke-miterlimit:4;stroke-dasharray:none;stroke-opacity:1"
     d="m 5.626168,52.157423 c 0,0 43.690252,-41.565118 43.690252,-41.565118"
     id="path34" />
  <path
     style="fill:#ffffff;fill-opacity:1;fill-rule:evenodd;stroke:none"
     d="m 6.8137428,53.407502 c 0,0 45.5653702,-44.8778267 45.5653702,-44.8778267 z"
     id="path35" />
  <path
     style="fill:none;stroke:#000000;stroke-width:0.500031px;stroke-linecap:round;stroke-linejoin:round;stroke-miterlimit:4;stroke-dasharray:none;stroke-opacity:1"
     d="m 6.8137428,53.407502 c 0,0 45.5653702,-44.8778267 45.5653702,-44.8778267"
     id="path36" />
  <path
     style="fill:#ffffff;fill-opacity:1;fill-rule:evenodd;stroke:none"
     d="m 8.0013176,54.595076 c 0,0 47.2529764,-48.2530386 47.2529764,-48.2530386 z"
     id="path37" />
  <path
     style="fill:none;stroke:#000000;stroke-width:0.500031px;stroke-linecap:round;stroke-linejoin:round;stroke-miterlimit:4;stroke-dasharray:none;stroke-opacity:1"
     d="m 8.0013176,54.595076 c 0,0 47.2529764,-48.2530386 47.2529764,-48.2530386"
     id="path38" />
  <path
     style="fill:#ffffff;fill-opacity:1;fill-rule:evenodd;stroke:none"
     d="m 9.1888926,55.782651 c 0,0 48.6280634,-51.4407396 48.6280634,-51.4407396 z"
     id="path39" />
  <path
     style="fill:none;stroke:#000000;stroke-width:0.500031px;stroke-linecap:round;stroke-linejoin:round;stroke-miterlimit:4;stroke-dasharray:none;stroke-opacity:1"
     d="m 9.1888926,55.782651 c 0,0 48.6280634,-51.4407396 48.6280634,-51.4407396"
     id="path40" />
</svg>
