<?xml version="1.0" encoding="UTF-8" standalone="no"?>
<svg
   version="1.0"
   width="5.7715878mm"
   height="5.9700351mm"
   id="svg22"
   xmlns="http://www.w3.org/2000/svg"
   xmlns:svg="http://www.w3.org/2000/svg">
  <defs
     id="defs1">
    <pattern
       id="EMFhbasepattern"
       patternUnits="userSpaceOnUse"
       width="6"
       height="6"
       x="0"
       y="0" />
  </defs>
  <path
     style="fill:#ffffff;fill-opacity:1;fill-rule:evenodd;stroke:none"
     d="m 11.438221,9.0630721 c -2.8751813,0 -2.8751813,2.5626619 -2.8751813,2.5626619 0,0 0.437527,0 0.437527,0 0,0 0,-2.2501419 2.4376543,-2.2501419 2.437653,0 2.437653,2.3126459 2.437653,2.3126459 0,0 0.500032,0 0.500032,0 0,0 0,-2.6251659 -2.937685,-2.6251659 z"
     id="path1" />
  <path
     style="fill:none;stroke:#000000;stroke-width:0.500031px;stroke-linecap:round;stroke-linejoin:round;stroke-miterlimit:4;stroke-dasharray:none;stroke-opacity:1"
     d="m 11.438221,9.0630721 c -2.8751813,0 -2.8751813,2.5626619 -2.8751813,2.5626619 0,0 0.437527,0 0.437527,0 0,0 0,-2.2501419 2.4376543,-2.2501419 2.437653,0 2.437653,2.3126459 2.437653,2.3126459 0,0 0.500032,0 0.500032,0 0,0 0,-2.6251659 -2.937685,-2.6251659"
     id="path2" />
  <path
     style="fill:#ffffff;fill-opacity:1;fill-rule:evenodd;stroke:none"
     d="m 15.563481,20.813812 c 0,0 2.312645,1.500095 2.312645,1.500095 0,0 0.375024,-0.62504 0.375024,-0.62504 0,0 -1.812614,-1.12507 -1.812614,-1.12507 z"
     id="path3" />
  <path
     style="fill:none;stroke:#000000;stroke-width:0.500031px;stroke-linecap:round;stroke-linejoin:round;stroke-miterlimit:4;stroke-dasharray:none;stroke-opacity:1"
     d="m 15.563481,20.813812 c 0,0 2.312645,1.500095 2.312645,1.500095 0,0 0.375024,-0.62504 0.375024,-0.62504 0,0 -1.812614,-1.12507 -1.812614,-1.12507"
     id="path4" />
  <path
     style="fill:#ffffff;fill-opacity:1;fill-rule:evenodd;stroke:none"
     d="m 6.7504252,20.813812 c 0,0 -2.3751496,1.500095 -2.3751496,1.500095 0,0 -0.3125197,-0.62504 -0.3125197,-0.62504 0,0 1.8126142,-1.12507 1.8126142,-1.12507 z"
     id="path5" />
  <path
     style="fill:none;stroke:#000000;stroke-width:0.500031px;stroke-linecap:round;stroke-linejoin:round;stroke-miterlimit:4;stroke-dasharray:none;stroke-opacity:1"
     d="m 6.7504252,20.813812 c 0,0 -2.3751496,1.500095 -2.3751496,1.500095 0,0 -0.3125197,-0.62504 -0.3125197,-0.62504 0,0 1.8126142,-1.12507 1.8126142,-1.12507"
     id="path6" />
  <path
     style="fill:#ffffff;fill-opacity:1;fill-rule:evenodd;stroke:none"
     d="m 9.9381257,7.1254502 c -0.187512,-0.937559 -1.375086,-0.937559 -1.375086,-1.4375905 0,-0.2500158 3.0626933,-4.93781105 3.0626933,-4.93781105 0.250015,-0.2500157 3.062692,-0.5000315 3.062692,-0.5000315 0,0 1.687607,0 1.687607,0.6875434 0,0.25001565 -1.687607,1.18757475 -1.687607,1.68760625 0,1.1875748 0.93756,1.4375905 0.750048,2.6251653 -0.187512,0.6875433 -2.37515,-0.2500157 -2.37515,1.8751181 0,0 0,3.6252278 0,6.0003778 0,0.687543 1.187575,1.187575 1.875118,1.187575 2.625166,0 2.125134,-1.312583 3.062693,-1.312583 0.375024,0 2.37515,0 2.37515,1.062567 0,0 0,0.937559 0,1.687606 0,0.437528 -0.687544,0.375024 -0.687544,0.62504 0,0.500031 1.875119,0.0625 1.875119,1.625102 0,0.31252 0,0.31252 0,1.062567 0,1.875118 -8.438032,1.812614 -10.438158,1.875118 -3.7502364,0 -10.87568526,-0.937559 -10.87568526,-2.375149 0,0 0,-1.750111 0,-1.750111 0,-0.187511 2.87518106,-0.687543 2.87518106,-0.937559 0,-0.250015 -1.1875748,-0.437527 -1.1875748,-2.125134 0,-1.875118 1.3750867,-2.375149 2.8126772,-2.375149 1.4375906,0 0.6875433,1.250079 1.1875748,1.43759 1.1875748,0.500032 3.3127087,0.250016 3.7502367,-0.187511 z"
     id="path7" />
  <path
     style="fill:none;stroke:#000000;stroke-width:0.500031px;stroke-linecap:round;stroke-linejoin:round;stroke-miterlimit:4;stroke-dasharray:none;stroke-opacity:1"
     d="m 9.9381257,7.1254502 c -0.187512,-0.937559 -1.375086,-0.937559 -1.375086,-1.4375905 0,-0.2500158 3.0626933,-4.93781105 3.0626933,-4.93781105 0.250015,-0.2500157 3.062692,-0.5000315 3.062692,-0.5000315 0,0 1.687607,0 1.687607,0.6875434 0,0.25001565 -1.687607,1.18757475 -1.687607,1.68760625 0,1.1875748 0.93756,1.4375905 0.750048,2.6251653 -0.187512,0.6875433 -2.37515,-0.2500157 -2.37515,1.8751181 0,0 0,3.6252278 0,6.0003778 0,0.687543 1.187575,1.187575 1.875118,1.187575 2.625166,0 2.125134,-1.312583 3.062693,-1.312583 0.375024,0 2.37515,0 2.37515,1.062567 0,0 0,0.937559 0,1.687606 0,0.437528 -0.687544,0.375024 -0.687544,0.62504 0,0.500031 1.875119,0.0625 1.875119,1.625102 0,0.31252 0,0.31252 0,1.062567 0,1.875118 -8.438032,1.812614 -10.438158,1.875118 -3.7502364,0 -10.87568526,-0.937559 -10.87568526,-2.375149 0,0 0,-1.750111 0,-1.750111 0,-0.187511 2.87518106,-0.687543 2.87518106,-0.937559 0,-0.250015 -1.1875748,-0.437527 -1.1875748,-2.125134 0,-1.875118 1.3750867,-2.375149 2.8126772,-2.375149 1.4375906,0 0.6875433,1.250079 1.1875748,1.43759 1.1875748,0.500032 3.3127087,0.250016 3.7502367,-0.187511 0,0 0.250015,-5.5003468 0.250015,-5.5003468"
     id="path8" />
  <path
     style="fill:#ffffff;fill-opacity:1;fill-rule:evenodd;stroke:none"
     d="m 10.250646,0.56253685 c 0.625039,0 1.187575,0.1875118 1.187575,0.43752755 0,0.3125197 -0.562536,0.5000315 -1.187575,0.5000315 -0.6875433,0 -1.1875753,-0.1875118 -1.1875753,-0.5000315 0,-0.25001575 0.500032,-0.43752755 1.1875753,-0.43752755 z"
     id="path9" />
  <path
     style="fill:none;stroke:#000000;stroke-width:0.500031px;stroke-linecap:round;stroke-linejoin:round;stroke-miterlimit:4;stroke-dasharray:none;stroke-opacity:1"
     d="m 10.250646,0.56253685 c 0.625039,0 1.187575,0.1875118 1.187575,0.43752755 0,0.3125197 -0.562536,0.5000315 -1.187575,0.5000315 -0.6875433,0 -1.1875753,-0.1875118 -1.1875753,-0.5000315 0,-0.25001575 0.500032,-0.43752755 1.1875753,-0.43752755"
     id="path10" />
  <path
     style="fill:#ffffff;fill-opacity:1;fill-rule:evenodd;stroke:none"
     d="m 9.5005987,1.8751195 c 0.6250393,0 1.1875753,0.1875118 1.1875753,0.3750236 0,0.1875118 -0.562536,0.3125197 -1.1875753,0.3125197 -0.687544,0 -1.187575,-0.1250079 -1.187575,-0.3125197 0,-0.1875118 0.500031,-0.3750236 1.187575,-0.3750236 z"
     id="path11" />
  <path
     style="fill:none;stroke:#000000;stroke-width:0.500031px;stroke-linecap:round;stroke-linejoin:round;stroke-miterlimit:4;stroke-dasharray:none;stroke-opacity:1"
     d="m 9.5005987,1.8751195 c 0.6250393,0 1.1875753,0.1875118 1.1875753,0.3750236 0,0.1875118 -0.562536,0.3125197 -1.1875753,0.3125197 -0.687544,0 -1.187575,-0.1250079 -1.187575,-0.3125197 0,-0.1875118 0.500031,-0.3750236 1.187575,-0.3750236"
     id="path12" />
  <path
     style="fill:#ffffff;fill-opacity:1;fill-rule:evenodd;stroke:none"
     d="m 8.6880477,3.0001904 c 0.687543,0 1.187574,0.1875118 1.187574,0.4375275 0,0.2500158 -0.500031,0.5000315 -1.187574,0.5000315 -0.6250398,0 -1.1875753,-0.2500157 -1.1875753,-0.5000315 0,-0.2500157 0.5625355,-0.4375275 1.1875753,-0.4375275 z"
     id="path13" />
  <path
     style="fill:none;stroke:#000000;stroke-width:0.500031px;stroke-linecap:round;stroke-linejoin:round;stroke-miterlimit:4;stroke-dasharray:none;stroke-opacity:1"
     d="m 8.6880477,3.0001904 c 0.687543,0 1.187574,0.1875118 1.187574,0.4375275 0,0.2500158 -0.500031,0.5000315 -1.187574,0.5000315 -0.6250398,0 -1.1875753,-0.2500157 -1.1875753,-0.5000315 0,-0.2500157 0.5625355,-0.4375275 1.1875753,-0.4375275"
     id="path14" />
  <path
     style="fill:#ffffff;fill-opacity:1;fill-rule:evenodd;stroke:none"
     d="m 7.938,4.1877652 c 0.6875437,0 1.1875747,0.1875118 1.1875747,0.4375275 0,0.3125197 -0.500031,0.5000315 -1.1875747,0.5000315 -0.6250394,0 -1.1875748,-0.1875118 -1.1875748,-0.5000315 0,-0.2500157 0.5625354,-0.4375275 1.1875748,-0.4375275 z"
     id="path15" />
  <path
     style="fill:none;stroke:#000000;stroke-width:0.500031px;stroke-linecap:round;stroke-linejoin:round;stroke-miterlimit:4;stroke-dasharray:none;stroke-opacity:1"
     d="m 7.938,4.1877652 c 0.6875437,0 1.1875747,0.1875118 1.1875747,0.4375275 0,0.3125197 -0.500031,0.5000315 -1.1875747,0.5000315 -0.6250394,0 -1.1875748,-0.1875118 -1.1875748,-0.5000315 0,-0.2500157 0.5625354,-0.4375275 1.1875748,-0.4375275"
     id="path16" />
  <path
     style="fill:#ffffff;fill-opacity:1;fill-rule:evenodd;stroke:none"
     d="m 9.9381257,7.1254502 c 0,0 3.1251973,0 3.1251973,0 0,0 0,9.6881098 0,9.6881098 0,0 -3.5627243,0 -3.5627243,0 z"
     id="path17" />
  <path
     style="fill:none;stroke:#000000;stroke-width:0.500031px;stroke-linecap:round;stroke-linejoin:round;stroke-miterlimit:4;stroke-dasharray:none;stroke-opacity:1"
     d="m 9.9381257,7.1254502 c 0,0 3.1251973,0 3.1251973,0 0,0 0,9.6881098 0,9.6881098 0,0 -3.5627243,0 -3.5627243,0 0,0 0.437527,-9.6881098 0.437527,-9.6881098"
     id="path18" />
  <path
     style="fill:#ffffff;fill-opacity:1;fill-rule:evenodd;stroke:none"
     d="m 0.25001574,18.563671 c 0,-0.437528 1.43759056,-0.62504 1.87511816,-0.687544 C 3.5627244,17.626112 4.5002835,16.81356 2.8126772,15.625986 2.5626614,15.438474 2.3126457,15.188458 2.1876378,14.938442 1.8751181,14.313403 3.2502047,13.31334 4.3127717,13.31334 c 1.6251023,0 0.1875118,1.375086 1.8751181,1.625102 1.3125826,0.187512 3.0626929,0.250016 3.4377169,-0.250016 z"
     id="path19" />
  <path
     style="fill:none;stroke:#000000;stroke-width:0.500031px;stroke-linecap:round;stroke-linejoin:round;stroke-miterlimit:4;stroke-dasharray:none;stroke-opacity:1"
     d="m 0.25001574,18.563671 c 0,-0.437528 1.43759056,-0.62504 1.87511816,-0.687544 C 3.5627244,17.626112 4.5002835,16.81356 2.8126772,15.625986 2.5626614,15.438474 2.3126457,15.188458 2.1876378,14.938442 1.8751181,14.313403 3.2502047,13.31334 4.3127717,13.31334 c 1.6251023,0 0.1875118,1.375086 1.8751181,1.625102 1.3125826,0.187512 3.0626929,0.250016 3.4377169,-0.250016"
     id="path20" />
  <path
     style="fill:#ffffff;fill-opacity:1;fill-rule:evenodd;stroke:none"
     d="m 21.251339,19.626238 c 0.812551,-1.062567 -1.125071,-1.312583 -1.812614,-1.500095 -2.06263,-0.687543 0,-1.312583 0.375023,-1.625102 0.31252,-0.250016 0.562536,-0.437528 0.562536,-0.750048 0,-0.875055 -0.937559,-1.43759 -2.312646,-1.43759 -0.750047,0 -0.500031,1.687606 -3.125197,1.687606 -1.000063,0 -1.875118,-0.500031 -1.875118,-1.000063 z"
     id="path21" />
  <path
     style="fill:none;stroke:#000000;stroke-width:0.500031px;stroke-linecap:round;stroke-linejoin:round;stroke-miterlimit:4;stroke-dasharray:none;stroke-opacity:1"
     d="m 21.251339,19.626238 c 0.812551,-1.062567 -1.125071,-1.312583 -1.812614,-1.500095 -2.06263,-0.687543 0,-1.312583 0.375023,-1.625102 0.31252,-0.250016 0.562536,-0.437528 0.562536,-0.750048 0,-0.875055 -0.937559,-1.43759 -2.312646,-1.43759 -0.750047,0 -0.500031,1.687606 -3.125197,1.687606 -1.000063,0 -1.875118,-0.500031 -1.875118,-1.000063"
     id="path22" />
</svg>
