<?xml version="1.0" encoding="UTF-8" standalone="no"?>
<svg
   version="1.0"
   width="18.448034mm"
   height="2.1475296mm"
   id="svg15"
   xmlns="http://www.w3.org/2000/svg"
   xmlns:svg="http://www.w3.org/2000/svg">
  <defs
     id="defs1">
    <pattern
       id="EMFhbasepattern"
       patternUnits="userSpaceOnUse"
       width="6"
       height="6"
       x="0"
       y="0" />
  </defs>
  <path
     style="fill:#ffffff;fill-opacity:1;fill-rule:evenodd;stroke:none"
     d="m 69.076896,5.7372109 c 0,0 -0.375024,-0.062504 -1.062567,-0.1250078 0,0 -8.688048,-1.000063 -8.688048,-1.000063 -0.437527,0.062504 -1.562598,1.2500787 -1.562598,1.2500787 C 42.575226,5.3621873 24.574092,4.9246597 24.574092,4.7996519 24.636596,4.6121401 29.699415,4.0496046 29.949431,3.8620928 30.011935,3.7370849 30.074439,2.3619983 30.074439,2.3619983 29.574407,1.736959 24.6991,1.7994629 22.448959,2.1744865 c -0.62504,0.062504 -3.562725,0.4375276 -5.125323,0.4375276 -3.875244,0 -4.750299,-1.3750866 -10.625669,-2.25014179 -3.1877008,-0.4375275 -5.1253228,0.4375276 -6.31289761,1.81261419 -0.1875119,0.2500158 -0.1250079,0.8750551 -0.1250079,2.4376536 0,0.8750551 1.68760631,1.8751181 3.06269291,2.3751496 0.9375591,0.3125197 2.3751496,0.937559 5.0628191,0.8750551 1.062567,0 3.2502045,0.062504 5.3128335,-0.5625354 0.437528,-0.1250079 8.750552,0.8750551 9.250583,0.3125196 0,0 0.0625,-0.7500472 0.0625,-0.7500472 0,0 34.939701,0.3750236 34.939701,0.3750236 0,0 0.31252,-0.1250079 0.31252,-0.1250079 1.000063,0.5000315 1.875118,0.3125197 6.500409,0.1250079 0.187512,-0.062504 0.937559,0.3750236 1.125071,0.3750236 0.500031,0.1250079 3.437716,-0.3125196 3.50022,-0.6875433 0.187516,-0.5625354 0.06251,-0.8125511 -0.312515,-1.1875748 z"
     id="path1" />
  <path
     style="fill:none;stroke:#000000;stroke-width:0.500031px;stroke-linecap:round;stroke-linejoin:round;stroke-miterlimit:4;stroke-dasharray:none;stroke-opacity:1"
     d="m 69.076896,5.7372109 c 0,0 -0.375024,-0.062504 -1.062567,-0.1250078 0,0 -8.688048,-1.000063 -8.688048,-1.000063 -0.437527,0.062504 -1.562598,1.2500787 -1.562598,1.2500787 C 42.575226,5.3621873 24.574092,4.9246597 24.574092,4.7996519 24.636596,4.6121401 29.699415,4.0496046 29.949431,3.8620928 30.011935,3.7370849 30.074439,2.3619983 30.074439,2.3619983 29.574407,1.736959 24.6991,1.7994629 22.448959,2.1744865 c -0.62504,0.062504 -3.562725,0.4375276 -5.125323,0.4375276 -3.875244,0 -4.750299,-1.3750866 -10.625669,-2.25014179 -3.1877008,-0.4375275 -5.1253228,0.4375276 -6.31289761,1.81261419 -0.1875119,0.2500158 -0.1250079,0.8750551 -0.1250079,2.4376536 0,0.8750551 1.68760631,1.8751181 3.06269291,2.3751496 0.9375591,0.3125197 2.3751496,0.937559 5.0628191,0.8750551 1.062567,0 3.2502045,0.062504 5.3128335,-0.5625354 0.437528,-0.1250079 8.750552,0.8750551 9.250583,0.3125196 0,0 0.0625,-0.7500472 0.0625,-0.7500472 0,0 34.939701,0.3750236 34.939701,0.3750236 0,0 0.31252,-0.1250079 0.31252,-0.1250079 1.000063,0.5000315 1.875118,0.3125197 6.500409,0.1250079 0.187512,-0.062504 0.937559,0.3750236 1.125071,0.3750236 0.500031,0.1250079 3.437716,-0.3125196 3.50022,-0.6875433 0.187516,-0.5625354 0.06251,-0.8125511 -0.312515,-1.1875748"
     id="path2" />
  <path
     style="fill:#ffffff;fill-opacity:1;fill-rule:evenodd;stroke:none"
     d="m 23.011494,6.8622818 c 0,0 -3.687732,-0.2500158 -3.687732,-0.062504 0.0625,0.2500157 3.625228,0.7500472 3.625228,0.7500472 z"
     id="path3" />
  <path
     style="fill:none;stroke:#000000;stroke-width:0.500031px;stroke-linecap:round;stroke-linejoin:round;stroke-miterlimit:4;stroke-dasharray:none;stroke-opacity:1"
     d="m 23.011494,6.8622818 c 0,0 -3.687732,-0.2500158 -3.687732,-0.062504 0.0625,0.2500157 3.625228,0.7500472 3.625228,0.7500472"
     id="path4" />
  <path
     style="fill:#ffffff;fill-opacity:1;fill-rule:evenodd;stroke:none"
     d="m 0.26006149,4.6121401 c 0,-0.6875433 1.00006301,-1.8126142 2.25014171,-2.4376536 1.7501103,-0.8125512 4.000252,-0.7500472 7.5004718,0.1250079 2.500158,0.6250394 4.562788,1.6876063 8.625543,1.4375905 5.687859,-0.4375275 10.250646,-1.1250708 11.375717,-0.1250078 z"
     id="path5" />
  <path
     style="fill:none;stroke:#000000;stroke-width:0.500031px;stroke-linecap:round;stroke-linejoin:round;stroke-miterlimit:4;stroke-dasharray:none;stroke-opacity:1"
     d="m 0.26006149,4.6121401 c 0,-0.6875433 1.00006301,-1.8126142 2.25014171,-2.4376536 1.7501103,-0.8125512 4.000252,-0.7500472 7.5004718,0.1250079 2.500158,0.6250394 4.562788,1.6876063 8.625543,1.4375905 5.687859,-0.4375275 10.250646,-1.1250708 11.375717,-0.1250078"
     id="path6" />
  <path
     style="fill:#ffffff;fill-opacity:1;fill-rule:evenodd;stroke:none"
     d="M 59.451289,4.7371479 C 59.576297,4.2371164 59.826313,3.674581 60.138833,3.5495731 60.388848,3.4245653 60.57636,3.674581 60.451352,4.1746125 60.388852,4.7371479 60.076329,5.2371794 59.826313,5.4246912 59.576297,5.5496991 59.388785,5.2371794 59.451289,4.7371479 Z"
     id="path7" />
  <path
     style="fill:none;stroke:#000000;stroke-width:0.500031px;stroke-linecap:round;stroke-linejoin:round;stroke-miterlimit:4;stroke-dasharray:none;stroke-opacity:1"
     d="M 59.451289,4.7371479 C 59.576297,4.2371164 59.826313,3.674581 60.138833,3.5495731 60.388848,3.4245653 60.57636,3.674581 60.451352,4.1746125 60.388852,4.7371479 60.076329,5.2371794 59.826313,5.4246912 59.576297,5.5496991 59.388785,5.2371794 59.451289,4.7371479"
     id="path8" />
  <path
     style="fill:#ffffff;fill-opacity:1;fill-rule:evenodd;stroke:none"
     d="m 67.576801,5.4871952 c -0.125008,-0.5000315 0.0625,-1.1250709 0.31252,-1.3125827 0.250016,-0.2500157 0.500031,0 0.625039,0.5625354 0.0625,0.5000315 -0.125008,1.1250709 -0.375023,1.3125827 -0.250016,0.2500158 -0.500032,0 -0.562536,-0.5625354 z"
     id="path9" />
  <path
     style="fill:none;stroke:#000000;stroke-width:0.500031px;stroke-linecap:round;stroke-linejoin:round;stroke-miterlimit:4;stroke-dasharray:none;stroke-opacity:1"
     d="m 67.576801,5.4871952 c -0.125008,-0.5000315 0.0625,-1.1250709 0.31252,-1.3125827 0.250016,-0.2500157 0.500031,0 0.625039,0.5625354 0.0625,0.5000315 -0.125008,1.1250709 -0.375023,1.3125827 -0.250016,0.2500158 -0.500032,0 -0.562536,-0.5625354"
     id="path10" />
  <path
     style="fill:#ffffff;fill-opacity:1;fill-rule:evenodd;stroke:none"
     d="m 65.201652,5.2371794 c -0.31252,-0.3750236 -0.562536,-0.937559 -0.500032,-1.2500787 0.0625,-0.3125197 0.375024,-0.2500158 0.687543,0.1250079 0.375024,0.4375275 0.62504,1.000063 0.562536,1.3125826 -0.0625,0.2500158 -0.375024,0.2500158 -0.750047,-0.1875118 z"
     id="path11" />
  <path
     style="fill:none;stroke:#000000;stroke-width:0.500031px;stroke-linecap:round;stroke-linejoin:round;stroke-miterlimit:4;stroke-dasharray:none;stroke-opacity:1"
     d="m 65.201652,5.2371794 c -0.31252,-0.3750236 -0.562536,-0.937559 -0.500032,-1.2500787 0.0625,-0.3125197 0.375024,-0.2500158 0.687543,0.1250079 0.375024,0.4375275 0.62504,1.000063 0.562536,1.3125826 -0.0625,0.2500158 -0.375024,0.2500158 -0.750047,-0.1875118"
     id="path12" />
  <path
     style="fill:#ffffff;fill-opacity:1;fill-rule:evenodd;stroke:none"
     d="M 62.63899,5.2371794 C 62.201463,4.9871637 61.826439,4.4871322 61.763935,4.1121086 c 0,-0.3125197 0.375024,-0.3750237 0.812551,-0.1250079 0.500032,0.3125197 0.875055,0.8125512 0.875055,1.1250709 0,0.3125196 -0.375023,0.3750236 -0.812551,0.1250078 z"
     id="path13" />
  <path
     style="fill:none;stroke:#000000;stroke-width:0.500031px;stroke-linecap:round;stroke-linejoin:round;stroke-miterlimit:4;stroke-dasharray:none;stroke-opacity:1"
     d="M 62.63899,5.2371794 C 62.201463,4.9871637 61.826439,4.4871322 61.763935,4.1121086 c 0,-0.3125197 0.375024,-0.3750237 0.812551,-0.1250079 0.500032,0.3125197 0.875055,0.8125512 0.875055,1.1250709 0,0.3125196 -0.375023,0.3750236 -0.812551,0.1250078"
     id="path14" />
  <path
     style="fill:none;stroke:#000000;stroke-width:0.500031px;stroke-linecap:round;stroke-linejoin:round;stroke-miterlimit:4;stroke-dasharray:none;stroke-opacity:1"
     d="m 57.763683,5.8622188 c 0,0 -0.187512,0.1875118 -0.500031,0.3750236 0,0 -33.939638,-0.7500472 -33.939638,-0.7500472 0,-0.4375276 1.250078,-0.6875433 1.250078,-0.6875433"
     id="path15" />
</svg>
