<?xml version="1.0" encoding="UTF-8" standalone="no"?>
<svg
   version="1.0"
   width="6.9531002mm"
   height="10.535698mm"
   id="svg16"
   xmlns="http://www.w3.org/2000/svg"
   xmlns:svg="http://www.w3.org/2000/svg">
  <defs
     id="defs1">
    <pattern
       id="EMFhbasepattern"
       patternUnits="userSpaceOnUse"
       width="6"
       height="6"
       x="0"
       y="0" />
  </defs>
  <path
     style="fill:#ffffff;fill-opacity:1;fill-rule:evenodd;stroke:none"
     d="m 12.841087,39.564992 c 0,0 1.937622,0.125008 2.687669,-0.875055 0,0 -0.187512,-1.000063 0.375024,-2.125134 0,0 -0.437528,-1.062566 -0.437528,-1.062566 0.125008,-0.62504 1.062567,-0.500032 1.062567,-0.500032 -0.625039,-0.687543 -0.562535,-1.437591 -0.562535,-1.437591 5.312834,0 6.250393,-0.125007 6.375401,-0.187511 1.187575,-0.125008 3.312709,-0.437528 3.687733,-0.875055 0,0 0,-8.500536 0,-8.500536 -0.31252,-0.875055 -0.875056,-1.000063 -0.875056,-1.375087 0,-0.312519 0,-2.625165 0,-2.625165 -0.437527,-0.937559 -5.56285,-1.812614 -9.563102,-2.187638 -0.125008,0 -0.562535,-8.3755273 -0.562535,-8.3755273 0,0 0.375023,0 0.375023,0 -0.312519,-0.875055 -0.375023,-1.062567 -0.500031,-1.6251026 0,-0.062504 1.187575,0 1.187575,0 -0.125008,-0.1875118 -0.437528,-0.937559 -0.437528,-0.937559 0,0 1.250079,0 1.250079,0 -0.125008,-0.6250394 -0.250016,-0.3125197 -0.250016,-2.5001575 0,0 -1.312583,0 -1.312583,0 0.0625,0.1250079 0,-0.8125512 0,-0.8750551 0,0 -0.937559,0 -0.937559,0 0,-0.6875433 0,-2.0626299 0.125008,-3.25020476 0,0 -1.43759,0.062504 -1.500094,0 z"
     id="path1" />
  <path
     style="fill:none;stroke:#000000;stroke-width:0.500031px;stroke-linecap:round;stroke-linejoin:round;stroke-miterlimit:4;stroke-dasharray:none;stroke-opacity:1"
     d="m 12.841087,39.564992 c 0,0 1.937622,0.125008 2.687669,-0.875055 0,0 -0.187512,-1.000063 0.375024,-2.125134 0,0 -0.437528,-1.062566 -0.437528,-1.062566 0.125008,-0.62504 1.062567,-0.500032 1.062567,-0.500032 -0.625039,-0.687543 -0.562535,-1.437591 -0.562535,-1.437591 5.312834,0 6.250393,-0.125007 6.375401,-0.187511 1.187575,-0.125008 3.312709,-0.437528 3.687733,-0.875055 0,0 0,-8.500536 0,-8.500536 -0.31252,-0.875055 -0.875056,-1.000063 -0.875056,-1.375087 0,-0.312519 0,-2.625165 0,-2.625165 -0.437527,-0.937559 -5.56285,-1.812614 -9.563102,-2.187638 -0.125008,0 -0.562535,-8.3755273 -0.562535,-8.3755273 0,0 0.375023,0 0.375023,0 -0.312519,-0.875055 -0.375023,-1.062567 -0.500031,-1.6251026 0,-0.062504 1.187575,0 1.187575,0 -0.125008,-0.1875118 -0.437528,-0.937559 -0.437528,-0.937559 0,0 1.250079,0 1.250079,0 -0.125008,-0.6250394 -0.250016,-0.3125197 -0.250016,-2.5001575 0,0 -1.312583,0 -1.312583,0 0.0625,0.1250079 0,-0.8125512 0,-0.8750551 0,0 -0.937559,0 -0.937559,0 0,-0.6875433 0,-2.0626299 0.125008,-3.25020476 0,0 -1.43759,0.062504 -1.500094,0"
     id="path2" />
  <path
     style="fill:#ffffff;fill-opacity:1;fill-rule:evenodd;stroke:none"
     d="m 13.403622,39.564992 c 0,0 -1.937622,0.125008 -2.687669,-0.875055 0,0 0.187512,-1.000063 -0.375024,-2.125134 0,0 0.437528,-1.062566 0.437528,-1.062566 -0.0625,-0.62504 -1.0000627,-0.500032 -1.0000627,-0.500032 0.6250387,-0.687543 0.5625347,-1.437591 0.5625347,-1.437591 -5.312834,0 -6.2503931,-0.125007 -6.3754009,-0.187511 -1.1875748,-0.125008 -3.31270869,-0.437528 -3.68773229,-0.875055 -0.062504,0 0,-8.500536 0,-8.500536 0.2500157,-0.875055 0.81255119,-1.000063 0.81255119,-1.375087 0,-0.312519 0,-2.625165 0,-2.625165 0.5000315,-0.937559 5.5628504,-1.812614 9.625606,-2.187638 0.0625,0 0.500031,-8.3755273 0.500031,-8.3755273 0,0 -0.375023,0 -0.375023,0 0.375023,-0.875055 0.375023,-1.062567 0.500031,-1.6251026 0,-0.062504 -1.125071,0 -1.125071,0 0.125008,-0.1875118 0.437528,-0.937559 0.437528,-0.937559 0,0 -1.3125827,0 -1.3125827,0 0.125008,-0.6250394 0.250016,-0.3125197 0.250016,-2.5001575 0,0 1.3750867,0 1.3750867,0 -0.0625,0.1250079 0,-0.8125512 -0.0625,-0.8750551 0,0 0.937559,0 0.937559,0 0.0625,-0.6875433 0,-2.0626299 -0.125008,-3.25020476 0,0 1.500094,0.062504 1.562598,0 z"
     id="path3" />
  <path
     style="fill:none;stroke:#000000;stroke-width:0.500031px;stroke-linecap:round;stroke-linejoin:round;stroke-miterlimit:4;stroke-dasharray:none;stroke-opacity:1"
     d="m 13.403622,39.564992 c 0,0 -1.937622,0.125008 -2.687669,-0.875055 0,0 0.187512,-1.000063 -0.375024,-2.125134 0,0 0.437528,-1.062566 0.437528,-1.062566 -0.0625,-0.62504 -1.0000627,-0.500032 -1.0000627,-0.500032 0.6250387,-0.687543 0.5625347,-1.437591 0.5625347,-1.437591 -5.312834,0 -6.2503931,-0.125007 -6.3754009,-0.187511 -1.1875748,-0.125008 -3.31270869,-0.437528 -3.68773229,-0.875055 -0.062504,0 0,-8.500536 0,-8.500536 0.2500157,-0.875055 0.81255119,-1.000063 0.81255119,-1.375087 0,-0.312519 0,-2.625165 0,-2.625165 0.5000315,-0.937559 5.5628504,-1.812614 9.625606,-2.187638 0.0625,0 0.500031,-8.3755273 0.500031,-8.3755273 0,0 -0.375023,0 -0.375023,0 0.375023,-0.875055 0.375023,-1.062567 0.500031,-1.6251026 0,-0.062504 -1.125071,0 -1.125071,0 0.125008,-0.1875118 0.437528,-0.937559 0.437528,-0.937559 0,0 -1.3125827,0 -1.3125827,0 0.125008,-0.6250394 0.250016,-0.3125197 0.250016,-2.5001575 0,0 1.3750867,0 1.3750867,0 -0.0625,0.1250079 0,-0.8125512 -0.0625,-0.8750551 0,0 0.937559,0 0.937559,0 0.0625,-0.6875433 0,-2.0626299 -0.125008,-3.25020476 0,0 1.500094,0.062504 1.562598,0"
     id="path4" />
  <path
     style="fill:#ffffff;fill-opacity:1;fill-rule:evenodd;stroke:none"
     d="m 11.340992,26.50167 c -0.312519,0.125007 -0.687543,0.312519 -1.062567,0.437527 -2.5001568,0.875055 -8.3130229,0.562536 -9.1255741,2.312646 -0.18751179,0.375023 0.1250079,0.812551 0.5625354,1.187575 0.4375276,0.375023 3.1251969,0.187511 3.1251969,0.750047 -0.062504,0.31252 -3.1251969,0.31252 -3.3752126,0.437527 -0.68754329,0.250016 -1.18757479,0.875056 -1.18757479,0.875056 z"
     id="path5" />
  <path
     style="fill:none;stroke:#000000;stroke-width:0.500031px;stroke-linecap:round;stroke-linejoin:round;stroke-miterlimit:4;stroke-dasharray:none;stroke-opacity:1"
     d="m 11.340992,26.50167 c -0.312519,0.125007 -0.687543,0.312519 -1.062567,0.437527 -2.5001568,0.875055 -8.3130229,0.562536 -9.1255741,2.312646 -0.18751179,0.375023 0.1250079,0.812551 0.5625354,1.187575 0.4375276,0.375023 3.1251969,0.187511 3.1251969,0.750047 -0.062504,0.31252 -3.1251969,0.31252 -3.3752126,0.437527 -0.68754329,0.250016 -1.18757479,0.875056 -1.18757479,0.875056"
     id="path6" />
  <path
     style="fill:#ffffff;fill-opacity:1;fill-rule:evenodd;stroke:none"
     d="m 7.6532604,31.939512 c 0,-0.375024 0,-0.375024 0.1250078,-0.437527 0.1250079,-0.0625 0.3750237,-0.0625 0.6250394,-0.0625 0.2500157,0 0.5625357,0 0.5625357,0 0,0 -0.125008,0.0625 -0.187512,0.0625 -0.1875119,0.0625 0.187512,0.0625 0.437527,0.0625 0.250016,0 0.500032,0 0.437528,-0.0625 -0.125008,-0.0625 -1.0625669,-0.125008 -1.5000944,-0.125008 -1.062567,0.0625 -1.1875749,0.250015 -1.2500788,0.500031 0,0 0,0 0,0 -0.1250079,0 -0.1875118,0 -0.1875118,0 0,0 0.062504,0.0625 0.1875118,0.0625 0,0 0,0 0,0 0,0.187512 0.062504,0.250016 -0.5000315,0.375024 -0.3125197,0.125008 -0.6875433,0.125008 -0.937559,0.125008 -0.1875119,0 -0.6875433,-0.0625 -0.6875433,-0.0625 0,0 0.4375275,-0.0625 0.4375275,-0.0625 0,-0.0625 -0.1875118,-0.0625 -0.4375275,-0.0625 -0.2500158,0 -0.6875434,0 -0.6875434,0.0625 0,0.0625 0.5625355,0.187512 1.4375906,0.187512 0.8750551,0 1.6251024,-0.125008 1.937622,-0.250016 0.062504,0 0.1875119,-0.125008 0.1875119,-0.31252 0,0 0,0 0,0 0.1250078,0.0625 0.1875118,0 0.1875118,0 z"
     id="path7" />
  <path
     style="fill:none;stroke:#000000;stroke-width:0.500031px;stroke-linecap:round;stroke-linejoin:round;stroke-miterlimit:4;stroke-dasharray:none;stroke-opacity:1"
     d="m 7.6532604,31.939512 c 0,-0.375024 0,-0.375024 0.1250078,-0.437527 0.1250079,-0.0625 0.3750237,-0.0625 0.6250394,-0.0625 0.2500157,0 0.5625357,0 0.5625357,0 0,0 -0.125008,0.0625 -0.187512,0.0625 -0.1875119,0.0625 0.187512,0.0625 0.437527,0.0625 0.250016,0 0.500032,0 0.437528,-0.0625 -0.125008,-0.0625 -1.0625669,-0.125008 -1.5000944,-0.125008 -1.062567,0.0625 -1.1875749,0.250015 -1.2500788,0.500031 0,0 0,0 0,0 -0.1250079,0 -0.1875118,0 -0.1875118,0 0,0 0.062504,0.0625 0.1875118,0.0625 0,0 0,0 0,0 0,0.187512 0.062504,0.250016 -0.5000315,0.375024 -0.3125197,0.125008 -0.6875433,0.125008 -0.937559,0.125008 -0.1875119,0 -0.6875433,-0.0625 -0.6875433,-0.0625 0,0 0.4375275,-0.0625 0.4375275,-0.0625 0,-0.0625 -0.1875118,-0.0625 -0.4375275,-0.0625 -0.2500158,0 -0.6875434,0 -0.6875434,0.0625 0,0.0625 0.5625355,0.187512 1.4375906,0.187512 0.8750551,0 1.6251024,-0.125008 1.937622,-0.250016 0.062504,0 0.1875119,-0.125008 0.1875119,-0.31252 0,0 0,0 0,0 0.1250078,0.0625 0.1875118,0 0.1875118,0 0,0 0,0 -0.1875118,0"
     id="path8" />
  <path
     style="fill:none;stroke:#000000;stroke-width:0.500031px;stroke-linecap:round;stroke-linejoin:round;stroke-miterlimit:4;stroke-dasharray:none;stroke-opacity:1"
     d="m 1.090347,29.126835 c 0,0 0,-6.50041 0,-6.50041"
     id="path9" />
  <path
     style="fill:#ffffff;fill-opacity:1;fill-rule:evenodd;stroke:none"
     d="m 14.903717,26.50167 c 0,0 0.187512,0.0625 0.187512,0.0625 0.312519,0.187511 0.750047,0.312519 1.12507,0.437527 2.500158,0.875055 8.125512,0.500032 8.938063,2.250142 0.125008,0.375023 -0.125007,0.812551 -0.625039,1.187575 -0.437528,0.375023 -3.125197,0.187511 -3.062693,0.750047 0,0.31252 3.062693,0.31252 3.375213,0.437527 0.687543,0.250016 1.187575,0.875056 1.187575,0.875056 z"
     id="path10" />
  <path
     style="fill:none;stroke:#000000;stroke-width:0.500031px;stroke-linecap:round;stroke-linejoin:round;stroke-miterlimit:4;stroke-dasharray:none;stroke-opacity:1"
     d="m 14.903717,26.50167 c 0,0 0.187512,0.0625 0.187512,0.0625 0.312519,0.187511 0.750047,0.312519 1.12507,0.437527 2.500158,0.875055 8.125512,0.500032 8.938063,2.250142 0.125008,0.375023 -0.125007,0.812551 -0.625039,1.187575 -0.437528,0.375023 -3.125197,0.187511 -3.062693,0.750047 0,0.31252 3.062693,0.31252 3.375213,0.437527 0.687543,0.250016 1.187575,0.875056 1.187575,0.875056"
     id="path11" />
  <path
     style="fill:#ffffff;fill-opacity:1;fill-rule:evenodd;stroke:none"
     d="m 18.653953,31.939512 c 0,-0.375024 0,-0.375024 -0.125008,-0.437527 -0.125008,-0.0625 -0.375024,-0.0625 -0.625039,-0.0625 -0.250016,0 -0.562536,0 -0.562536,0 0,0 0.0625,0.0625 0.125008,0.0625 0.187512,0.0625 -0.125008,0.0625 -0.375023,0.0625 -0.250016,0 -0.500032,0 -0.437528,-0.0625 0.0625,-0.0625 1.000063,-0.125008 1.500094,-0.125008 1.000063,0.0625 1.187575,0.250015 1.250079,0.500031 0,0 -0.0625,0 0,0 0.125008,0 0.125008,0 0.187512,0 0,0 -0.0625,0.0625 -0.187512,0.0625 0,0 0,0 0,0 0,0.187512 -0.0625,0.250016 0.437528,0.375024 0.312519,0.125008 0.687543,0.125008 0.937559,0.125008 0.187512,0 0.750047,-0.0625 0.750047,-0.0625 0,0 -0.500031,-0.0625 -0.500031,-0.0625 0,-0.0625 0.250015,-0.0625 0.500031,-0.0625 0.250016,0 0.625039,0 0.625039,0.0625 0,0.0625 -0.562535,0.187512 -1.375086,0.187512 -0.937559,0 -1.687606,-0.125008 -1.937622,-0.250016 -0.0625,0 -0.187512,-0.125008 -0.187512,-0.31252 0,0 0,0 0,0 -0.187512,0.0625 -0.187512,0 -0.250016,0 z"
     id="path12" />
  <path
     style="fill:none;stroke:#000000;stroke-width:0.500031px;stroke-linecap:round;stroke-linejoin:round;stroke-miterlimit:4;stroke-dasharray:none;stroke-opacity:1"
     d="m 18.653953,31.939512 c 0,-0.375024 0,-0.375024 -0.125008,-0.437527 -0.125008,-0.0625 -0.375024,-0.0625 -0.625039,-0.0625 -0.250016,0 -0.562536,0 -0.562536,0 0,0 0.0625,0.0625 0.125008,0.0625 0.187512,0.0625 -0.125008,0.0625 -0.375023,0.0625 -0.250016,0 -0.500032,0 -0.437528,-0.0625 0.0625,-0.0625 1.000063,-0.125008 1.500094,-0.125008 1.000063,0.0625 1.187575,0.250015 1.250079,0.500031 0,0 -0.0625,0 0,0 0.125008,0 0.125008,0 0.187512,0 0,0 -0.0625,0.0625 -0.187512,0.0625 0,0 0,0 0,0 0,0.187512 -0.0625,0.250016 0.437528,0.375024 0.312519,0.125008 0.687543,0.125008 0.937559,0.125008 0.187512,0 0.750047,-0.0625 0.750047,-0.0625 0,0 -0.500031,-0.0625 -0.500031,-0.0625 0,-0.0625 0.250015,-0.0625 0.500031,-0.0625 0.250016,0 0.625039,0 0.625039,0.0625 0,0.0625 -0.562535,0.187512 -1.375086,0.187512 -0.937559,0 -1.687606,-0.125008 -1.937622,-0.250016 -0.0625,0 -0.187512,-0.125008 -0.187512,-0.31252 0,0 0,0 0,0 -0.187512,0.0625 -0.187512,0 -0.250016,0 0,0 0,0 0.250016,0"
     id="path13" />
  <path
     style="fill:none;stroke:#000000;stroke-width:0.500031px;stroke-linecap:round;stroke-linejoin:round;stroke-miterlimit:4;stroke-dasharray:none;stroke-opacity:1"
     d="m 25.154362,29.126835 c 0,0 0,-6.50041 0,-6.50041"
     id="path14" />
  <path
     style="fill:#ffffff;fill-opacity:1;fill-rule:evenodd;stroke:none"
     d="m 15.216236,35.127213 c 0,0 -1.187574,0.937559 -2.062629,0.937559 -1.062567,0 -2.06263,-0.937559 -2.06263,-0.937559 0,0 0.812551,-25.6891183 0.812551,-25.6891183 0,0 2.437653,0 2.437653,0 z"
     id="path15" />
  <path
     style="fill:none;stroke:#000000;stroke-width:0.500031px;stroke-linecap:round;stroke-linejoin:round;stroke-miterlimit:4;stroke-dasharray:none;stroke-opacity:1"
     d="m 15.216236,35.127213 c 0,0 -1.187574,0.937559 -2.062629,0.937559 -1.062567,0 -2.06263,-0.937559 -2.06263,-0.937559 0,0 0.812551,-25.6891183 0.812551,-25.6891183 0,0 2.437653,0 2.437653,0 0,0 0.875055,25.6891183 0.875055,25.6891183"
     id="path16" />
</svg>
