<?xml version="1.0" encoding="UTF-8" standalone="no"?>
<svg
   version="1.0"
   width="15.594862mm"
   height="3.886359mm"
   id="svg72"
   xmlns="http://www.w3.org/2000/svg"
   xmlns:svg="http://www.w3.org/2000/svg">
  <defs
     id="defs1">
    <pattern
       id="EMFhbasepattern"
       patternUnits="userSpaceOnUse"
       width="6"
       height="6"
       x="0"
       y="0" />
  </defs>
  <path
     style="fill:#ffffff;fill-opacity:1;fill-rule:evenodd;stroke:none"
     d="m 1.3750865,14.438585 c -0.62503926,0 -1.12507076,-0.500032 -1.12507076,-1.125071 0,0 0,-11.9382519 0,-11.9382519 0,-0.62503937 0.5000315,-1.12507087 1.12507076,-1.12507087 0,0 56.1910395,0 56.1910395,0 0.62504,0 1.125071,0.5000315 1.125071,1.12507087 0,0 0,11.9382519 0,11.9382519 0,0.625039 -0.500031,1.125071 -1.125071,1.125071 z"
     id="path1" />
  <path
     style="fill:none;stroke:#000000;stroke-width:0.500031px;stroke-linecap:round;stroke-linejoin:round;stroke-miterlimit:4;stroke-dasharray:none;stroke-opacity:1"
     d="m 1.3750865,14.438585 c -0.62503926,0 -1.12507076,-0.500032 -1.12507076,-1.125071 0,0 0,-11.9382519 0,-11.9382519 0,-0.62503937 0.5000315,-1.12507087 1.12507076,-1.12507087 0,0 56.1910395,0 56.1910395,0 0.62504,0 1.125071,0.5000315 1.125071,1.12507087 0,0 0,11.9382519 0,11.9382519 0,0.625039 -0.500031,1.125071 -1.125071,1.125071 0,0 -56.1910395,0 -56.1910395,0"
     id="path2" />
  <path
     style="fill:#ffffff;fill-opacity:1;fill-rule:evenodd;stroke:none"
     d="m 57.066095,8.5632152 c 0,0 -55.2534809,0 -55.2534809,0 0,0 0,-2.5001579 0,-2.5001579 0,0 55.2534809,0 55.2534809,0 z"
     id="path3" />
  <path
     style="fill:none;stroke:#000000;stroke-width:0.500031px;stroke-linecap:round;stroke-linejoin:round;stroke-miterlimit:4;stroke-dasharray:none;stroke-opacity:1"
     d="m 57.066095,8.5632152 c 0,0 -55.2534809,0 -55.2534809,0 0,0 0,-2.5001579 0,-2.5001579 0,0 55.2534809,0 55.2534809,0 0,0 0,2.5001579 0,2.5001579"
     id="path4" />
  <path
     style="fill:#ffffff;fill-opacity:1;fill-rule:evenodd;stroke:none"
     d="m 29.439355,8.5632152 c 0,0 -17.563607,0 -17.563607,0 0,0 0.93756,2.4376528 1.937623,2.5001568 3.375212,0.250016 11.938251,0.250016 15.625984,0.250016 z"
     id="path5" />
  <path
     style="fill:none;stroke:#000000;stroke-width:0.500031px;stroke-linecap:round;stroke-linejoin:round;stroke-miterlimit:4;stroke-dasharray:none;stroke-opacity:1"
     d="m 29.439355,8.5632152 c 0,0 -17.563607,0 -17.563607,0 0,0 0.93756,2.4376528 1.937623,2.5001568 3.375212,0.250016 11.938251,0.250016 15.625984,0.250016"
     id="path6" />
  <path
     style="fill:#ffffff;fill-opacity:1;fill-rule:evenodd;stroke:none"
     d="m 29.439355,8.5632152 c 0,0 17.62611,0 17.62611,0 0,0 -0.937559,2.4376528 -1.937622,2.5001568 -3.375213,0.250016 -11.938252,0.250016 -15.688488,0.250016 z"
     id="path7" />
  <path
     style="fill:none;stroke:#000000;stroke-width:0.500031px;stroke-linecap:round;stroke-linejoin:round;stroke-miterlimit:4;stroke-dasharray:none;stroke-opacity:1"
     d="m 29.439355,8.5632152 c 0,0 17.62611,0 17.62611,0 0,0 -0.937559,2.4376528 -1.937622,2.5001568 -3.375213,0.250016 -11.938252,0.250016 -15.688488,0.250016"
     id="path8" />
  <path
     style="fill:#ffffff;fill-opacity:1;fill-rule:evenodd;stroke:none"
     d="m 54.253418,6.6880967 c -0.0625,0 -0.0625,0 -0.0625,-0.062504 0,0 0,-6.31289767 0,-6.31289767 0,-0.062504 0,-0.062504 0.0625,-0.062504 0,0 2.812677,0 2.812677,0 0,0 0,0 0,0.062504 0,0 0,6.31289767 0,6.31289767 0,0.062504 0,0.062504 0,0.062504 z"
     id="path9" />
  <path
     style="fill:none;stroke:#000000;stroke-width:0.500031px;stroke-linecap:round;stroke-linejoin:round;stroke-miterlimit:4;stroke-dasharray:none;stroke-opacity:1"
     d="m 54.253418,6.6880967 c -0.0625,0 -0.0625,0 -0.0625,-0.062504 0,0 0,-6.31289767 0,-6.31289767 0,-0.062504 0,-0.062504 0.0625,-0.062504 0,0 2.812677,0 2.812677,0 0,0 0,0 0,0.062504 0,0 0,6.31289767 0,6.31289767 0,0.062504 0,0.062504 0,0.062504 0,0 -2.812677,0 -2.812677,0"
     id="path10" />
  <path
     style="fill:#ffffff;fill-opacity:1;fill-rule:evenodd;stroke:none"
     d="m 51.315733,6.6880967 c 0,0 -0.0625,0 -0.0625,-0.062504 0,0 0,-6.31289767 0,-6.31289767 0,-0.062504 0.0625,-0.062504 0.0625,-0.062504 0,0 2.812677,0 2.812677,0 0.0625,0 0.0625,0 0.0625,0.062504 0,0 0,6.31289767 0,6.31289767 0,0.062504 0,0.062504 -0.0625,0.062504 z"
     id="path11" />
  <path
     style="fill:none;stroke:#000000;stroke-width:0.500031px;stroke-linecap:round;stroke-linejoin:round;stroke-miterlimit:4;stroke-dasharray:none;stroke-opacity:1"
     d="m 51.315733,6.6880967 c 0,0 -0.0625,0 -0.0625,-0.062504 0,0 0,-6.31289767 0,-6.31289767 0,-0.062504 0.0625,-0.062504 0.0625,-0.062504 0,0 2.812677,0 2.812677,0 0.0625,0 0.0625,0 0.0625,0.062504 0,0 0,6.31289767 0,6.31289767 0,0.062504 0,0.062504 -0.0625,0.062504 0,0 -2.812677,0 -2.812677,0"
     id="path12" />
  <path
     style="fill:#ffffff;fill-opacity:1;fill-rule:evenodd;stroke:none"
     d="m 48.440552,6.6880967 c -0.0625,0 -0.0625,0 -0.0625,-0.062504 0,0 0,-6.31289767 0,-6.31289767 0,-0.062504 0,-0.062504 0.0625,-0.062504 0,0 2.812677,0 2.812677,0 0,0 0,0 0,0.062504 0,0 0,6.31289767 0,6.31289767 0,0.062504 0,0.062504 0,0.062504 z"
     id="path13" />
  <path
     style="fill:none;stroke:#000000;stroke-width:0.500031px;stroke-linecap:round;stroke-linejoin:round;stroke-miterlimit:4;stroke-dasharray:none;stroke-opacity:1"
     d="m 48.440552,6.6880967 c -0.0625,0 -0.0625,0 -0.0625,-0.062504 0,0 0,-6.31289767 0,-6.31289767 0,-0.062504 0,-0.062504 0.0625,-0.062504 0,0 2.812677,0 2.812677,0 0,0 0,0 0,0.062504 0,0 0,6.31289767 0,6.31289767 0,0.062504 0,0.062504 0,0.062504 0,0 -2.812677,0 -2.812677,0"
     id="path14" />
  <path
     style="fill:#ffffff;fill-opacity:1;fill-rule:evenodd;stroke:none"
     d="m 45.502867,6.6880967 c 0,0 -0.0625,0 -0.0625,-0.062504 0,0 0,-6.31289767 0,-6.31289767 0,-0.062504 0.0625,-0.062504 0.0625,-0.062504 0,0 2.812677,0 2.812677,0 0,0 0.0625,0 0.0625,0.062504 0,0 0,6.31289767 0,6.31289767 0,0.062504 -0.0625,0.062504 -0.0625,0.062504 z"
     id="path15" />
  <path
     style="fill:none;stroke:#000000;stroke-width:0.500031px;stroke-linecap:round;stroke-linejoin:round;stroke-miterlimit:4;stroke-dasharray:none;stroke-opacity:1"
     d="m 45.502867,6.6880967 c 0,0 -0.0625,0 -0.0625,-0.062504 0,0 0,-6.31289767 0,-6.31289767 0,-0.062504 0.0625,-0.062504 0.0625,-0.062504 0,0 2.812677,0 2.812677,0 0,0 0.0625,0 0.0625,0.062504 0,0 0,6.31289767 0,6.31289767 0,0.062504 -0.0625,0.062504 -0.0625,0.062504 0,0 -2.812677,0 -2.812677,0"
     id="path16" />
  <path
     style="fill:#ffffff;fill-opacity:1;fill-rule:evenodd;stroke:none"
     d="m 42.627685,6.6880967 c -0.0625,0 -0.0625,0 -0.0625,-0.062504 0,0 0,-6.31289767 0,-6.31289767 0,-0.062504 0,-0.062504 0.0625,-0.062504 0,0 2.812678,0 2.812678,0 0,0 0,0 0,0.062504 0,0 0,6.31289767 0,6.31289767 0,0.062504 0,0.062504 0,0.062504 z"
     id="path17" />
  <path
     style="fill:none;stroke:#000000;stroke-width:0.500031px;stroke-linecap:round;stroke-linejoin:round;stroke-miterlimit:4;stroke-dasharray:none;stroke-opacity:1"
     d="m 42.627685,6.6880967 c -0.0625,0 -0.0625,0 -0.0625,-0.062504 0,0 0,-6.31289767 0,-6.31289767 0,-0.062504 0,-0.062504 0.0625,-0.062504 0,0 2.812678,0 2.812678,0 0,0 0,0 0,0.062504 0,0 0,6.31289767 0,6.31289767 0,0.062504 0,0.062504 0,0.062504 0,0 -2.812678,0 -2.812678,0"
     id="path18" />
  <path
     style="fill:#ffffff;fill-opacity:1;fill-rule:evenodd;stroke:none"
     d="m 39.69,6.6880967 c 0,0 -0.0625,0 -0.0625,-0.062504 0,0 0,-6.31289767 0,-6.31289767 0,-0.062504 0.0625,-0.062504 0.0625,-0.062504 0,0 2.812678,0 2.812678,0 0,0 0.0625,0 0.0625,0.062504 0,0 0,6.31289767 0,6.31289767 0,0.062504 -0.0625,0.062504 -0.0625,0.062504 z"
     id="path19" />
  <path
     style="fill:none;stroke:#000000;stroke-width:0.500031px;stroke-linecap:round;stroke-linejoin:round;stroke-miterlimit:4;stroke-dasharray:none;stroke-opacity:1"
     d="m 39.69,6.6880967 c 0,0 -0.0625,0 -0.0625,-0.062504 0,0 0,-6.31289767 0,-6.31289767 0,-0.062504 0.0625,-0.062504 0.0625,-0.062504 0,0 2.812678,0 2.812678,0 0,0 0.0625,0 0.0625,0.062504 0,0 0,6.31289767 0,6.31289767 0,0.062504 -0.0625,0.062504 -0.0625,0.062504 0,0 -2.812678,0 -2.812678,0"
     id="path20" />
  <path
     style="fill:#ffffff;fill-opacity:1;fill-rule:evenodd;stroke:none"
     d="m 36.814819,6.6880967 c -0.0625,0 -0.0625,0 -0.0625,-0.062504 0,0 0,-6.31289767 0,-6.31289767 0,-0.062504 0,-0.062504 0.0625,-0.062504 0,0 2.750174,0 2.750174,0 0.0625,0 0.0625,0 0.0625,0.062504 0,0 0,6.31289767 0,6.31289767 0,0.062504 0,0.062504 -0.0625,0.062504 z"
     id="path21" />
  <path
     style="fill:none;stroke:#000000;stroke-width:0.500031px;stroke-linecap:round;stroke-linejoin:round;stroke-miterlimit:4;stroke-dasharray:none;stroke-opacity:1"
     d="m 36.814819,6.6880967 c -0.0625,0 -0.0625,0 -0.0625,-0.062504 0,0 0,-6.31289767 0,-6.31289767 0,-0.062504 0,-0.062504 0.0625,-0.062504 0,0 2.750174,0 2.750174,0 0.0625,0 0.0625,0 0.0625,0.062504 0,0 0,6.31289767 0,6.31289767 0,0.062504 0,0.062504 -0.0625,0.062504 0,0 -2.750174,0 -2.750174,0"
     id="path22" />
  <path
     style="fill:#ffffff;fill-opacity:1;fill-rule:evenodd;stroke:none"
     d="m 33.877134,6.6880967 c 0,0 -0.0625,0 -0.0625,-0.062504 0,0 0,-6.31289767 0,-6.31289767 0,-0.062504 0.0625,-0.062504 0.0625,-0.062504 0,0 2.812677,0 2.812677,0 0,0 0.0625,0 0.0625,0.062504 0,0 0,6.31289767 0,6.31289767 0,0.062504 -0.0625,0.062504 -0.0625,0.062504 z"
     id="path23" />
  <path
     style="fill:none;stroke:#000000;stroke-width:0.500031px;stroke-linecap:round;stroke-linejoin:round;stroke-miterlimit:4;stroke-dasharray:none;stroke-opacity:1"
     d="m 33.877134,6.6880967 c 0,0 -0.0625,0 -0.0625,-0.062504 0,0 0,-6.31289767 0,-6.31289767 0,-0.062504 0.0625,-0.062504 0.0625,-0.062504 0,0 2.812677,0 2.812677,0 0,0 0.0625,0 0.0625,0.062504 0,0 0,6.31289767 0,6.31289767 0,0.062504 -0.0625,0.062504 -0.0625,0.062504 0,0 -2.812677,0 -2.812677,0"
     id="path24" />
  <path
     style="fill:#ffffff;fill-opacity:1;fill-rule:evenodd;stroke:none"
     d="m 31.001953,6.6880967 c -0.0625,0 -0.0625,0 -0.0625,-0.062504 0,0 0,-6.31289767 0,-6.31289767 0,-0.062504 0,-0.062504 0.0625,-0.062504 0,0 2.750173,0 2.750173,0 0.0625,0 0.0625,0 0.0625,0.062504 0,0 0,6.31289767 0,6.31289767 0,0.062504 0,0.062504 -0.0625,0.062504 z"
     id="path25" />
  <path
     style="fill:none;stroke:#000000;stroke-width:0.500031px;stroke-linecap:round;stroke-linejoin:round;stroke-miterlimit:4;stroke-dasharray:none;stroke-opacity:1"
     d="m 31.001953,6.6880967 c -0.0625,0 -0.0625,0 -0.0625,-0.062504 0,0 0,-6.31289767 0,-6.31289767 0,-0.062504 0,-0.062504 0.0625,-0.062504 0,0 2.750173,0 2.750173,0 0.0625,0 0.0625,0 0.0625,0.062504 0,0 0,6.31289767 0,6.31289767 0,0.062504 0,0.062504 -0.0625,0.062504 0,0 -2.750173,0 -2.750173,0"
     id="path26" />
  <path
     style="fill:#ffffff;fill-opacity:1;fill-rule:evenodd;stroke:none"
     d="m 28.064268,6.6880967 c 0,0 -0.0625,0 -0.0625,-0.062504 0,0 0,-6.31289767 0,-6.31289767 0,-0.062504 0.0625,-0.062504 0.0625,-0.062504 0,0 2.812677,0 2.812677,0 0,0 0.0625,0 0.0625,0.062504 0,0 0,6.31289767 0,6.31289767 0,0.062504 -0.0625,0.062504 -0.0625,0.062504 z"
     id="path27" />
  <path
     style="fill:none;stroke:#000000;stroke-width:0.500031px;stroke-linecap:round;stroke-linejoin:round;stroke-miterlimit:4;stroke-dasharray:none;stroke-opacity:1"
     d="m 28.064268,6.6880967 c 0,0 -0.0625,0 -0.0625,-0.062504 0,0 0,-6.31289767 0,-6.31289767 0,-0.062504 0.0625,-0.062504 0.0625,-0.062504 0,0 2.812677,0 2.812677,0 0,0 0.0625,0 0.0625,0.062504 0,0 0,6.31289767 0,6.31289767 0,0.062504 -0.0625,0.062504 -0.0625,0.062504 0,0 -2.812677,0 -2.812677,0"
     id="path28" />
  <path
     style="fill:#ffffff;fill-opacity:1;fill-rule:evenodd;stroke:none"
     d="m 25.189087,6.6880967 c -0.0625,0 -0.0625,0 -0.0625,-0.062504 0,0 0,-6.31289767 0,-6.31289767 0,-0.062504 0,-0.062504 0.0625,-0.062504 0,0 2.750173,0 2.750173,0 0.0625,0 0.0625,0 0.0625,0.062504 0,0 0,6.31289767 0,6.31289767 0,0.062504 0,0.062504 -0.0625,0.062504 z"
     id="path29" />
  <path
     style="fill:none;stroke:#000000;stroke-width:0.500031px;stroke-linecap:round;stroke-linejoin:round;stroke-miterlimit:4;stroke-dasharray:none;stroke-opacity:1"
     d="m 25.189087,6.6880967 c -0.0625,0 -0.0625,0 -0.0625,-0.062504 0,0 0,-6.31289767 0,-6.31289767 0,-0.062504 0,-0.062504 0.0625,-0.062504 0,0 2.750173,0 2.750173,0 0.0625,0 0.0625,0 0.0625,0.062504 0,0 0,6.31289767 0,6.31289767 0,0.062504 0,0.062504 -0.0625,0.062504 0,0 -2.750173,0 -2.750173,0"
     id="path30" />
  <path
     style="fill:#ffffff;fill-opacity:1;fill-rule:evenodd;stroke:none"
     d="m 22.251402,6.6880967 c 0,0 -0.0625,0 -0.0625,-0.062504 0,0 0,-6.31289767 0,-6.31289767 0,-0.062504 0.0625,-0.062504 0.0625,-0.062504 0,0 2.812677,0 2.812677,0 0,0 0.0625,0 0.0625,0.062504 0,0 0,6.31289767 0,6.31289767 0,0.062504 -0.0625,0.062504 -0.0625,0.062504 z"
     id="path31" />
  <path
     style="fill:none;stroke:#000000;stroke-width:0.500031px;stroke-linecap:round;stroke-linejoin:round;stroke-miterlimit:4;stroke-dasharray:none;stroke-opacity:1"
     d="m 22.251402,6.6880967 c 0,0 -0.0625,0 -0.0625,-0.062504 0,0 0,-6.31289767 0,-6.31289767 0,-0.062504 0.0625,-0.062504 0.0625,-0.062504 0,0 2.812677,0 2.812677,0 0,0 0.0625,0 0.0625,0.062504 0,0 0,6.31289767 0,6.31289767 0,0.062504 -0.0625,0.062504 -0.0625,0.062504 0,0 -2.812677,0 -2.812677,0"
     id="path32" />
  <path
     style="fill:#ffffff;fill-opacity:1;fill-rule:evenodd;stroke:none"
     d="m 19.313717,6.6880967 c 0,0 0,0 0,-0.062504 0,0 0,-6.31289767 0,-6.31289767 0,-0.062504 0,-0.062504 0,-0.062504 0,0 2.812677,0 2.812677,0 0.0625,0 0.0625,0 0.0625,0.062504 0,0 0,6.31289767 0,6.31289767 0,0.062504 0,0.062504 -0.0625,0.062504 z"
     id="path33" />
  <path
     style="fill:none;stroke:#000000;stroke-width:0.500031px;stroke-linecap:round;stroke-linejoin:round;stroke-miterlimit:4;stroke-dasharray:none;stroke-opacity:1"
     d="m 19.313717,6.6880967 c 0,0 0,0 0,-0.062504 0,0 0,-6.31289767 0,-6.31289767 0,-0.062504 0,-0.062504 0,-0.062504 0,0 2.812677,0 2.812677,0 0.0625,0 0.0625,0 0.0625,0.062504 0,0 0,6.31289767 0,6.31289767 0,0.062504 0,0.062504 -0.0625,0.062504 0,0 -2.812677,0 -2.812677,0"
     id="path34" />
  <path
     style="fill:#ffffff;fill-opacity:1;fill-rule:evenodd;stroke:none"
     d="m 16.438536,6.6880967 c -0.0625,0 -0.0625,0 -0.0625,-0.062504 0,0 0,-6.31289767 0,-6.31289767 0,-0.062504 0,-0.062504 0.0625,-0.062504 0,0 2.812677,0 2.812677,0 0,0 0.0625,0 0.0625,0.062504 0,0 0,6.31289767 0,6.31289767 0,0.062504 -0.0625,0.062504 -0.0625,0.062504 z"
     id="path35" />
  <path
     style="fill:none;stroke:#000000;stroke-width:0.500031px;stroke-linecap:round;stroke-linejoin:round;stroke-miterlimit:4;stroke-dasharray:none;stroke-opacity:1"
     d="m 16.438536,6.6880967 c -0.0625,0 -0.0625,0 -0.0625,-0.062504 0,0 0,-6.31289767 0,-6.31289767 0,-0.062504 0,-0.062504 0.0625,-0.062504 0,0 2.812677,0 2.812677,0 0,0 0.0625,0 0.0625,0.062504 0,0 0,6.31289767 0,6.31289767 0,0.062504 -0.0625,0.062504 -0.0625,0.062504 0,0 -2.812677,0 -2.812677,0"
     id="path36" />
  <path
     style="fill:#ffffff;fill-opacity:1;fill-rule:evenodd;stroke:none"
     d="m 13.500851,6.6880967 c 0,0 0,0 0,-0.062504 0,0 0,-6.31289767 0,-6.31289767 0,-0.062504 0,-0.062504 0,-0.062504 0,0 2.812677,0 2.812677,0 0.0625,0 0.0625,0 0.0625,0.062504 0,0 0,6.31289767 0,6.31289767 0,0.062504 0,0.062504 -0.0625,0.062504 z"
     id="path37" />
  <path
     style="fill:none;stroke:#000000;stroke-width:0.500031px;stroke-linecap:round;stroke-linejoin:round;stroke-miterlimit:4;stroke-dasharray:none;stroke-opacity:1"
     d="m 13.500851,6.6880967 c 0,0 0,0 0,-0.062504 0,0 0,-6.31289767 0,-6.31289767 0,-0.062504 0,-0.062504 0,-0.062504 0,0 2.812677,0 2.812677,0 0.0625,0 0.0625,0 0.0625,0.062504 0,0 0,6.31289767 0,6.31289767 0,0.062504 0,0.062504 -0.0625,0.062504 0,0 -2.812677,0 -2.812677,0"
     id="path38" />
  <path
     style="fill:#ffffff;fill-opacity:1;fill-rule:evenodd;stroke:none"
     d="m 10.62567,6.6880967 c -0.0625,0 -0.0625,0 -0.0625,-0.062504 0,0 0,-6.31289767 0,-6.31289767 0,-0.062504 0,-0.062504 0.0625,-0.062504 0,0 2.812677,0 2.812677,0 0,0 0.0625,0 0.0625,0.062504 0,0 0,6.31289767 0,6.31289767 0,0.062504 -0.0625,0.062504 -0.0625,0.062504 z"
     id="path39" />
  <path
     style="fill:none;stroke:#000000;stroke-width:0.500031px;stroke-linecap:round;stroke-linejoin:round;stroke-miterlimit:4;stroke-dasharray:none;stroke-opacity:1"
     d="m 10.62567,6.6880967 c -0.0625,0 -0.0625,0 -0.0625,-0.062504 0,0 0,-6.31289767 0,-6.31289767 0,-0.062504 0,-0.062504 0.0625,-0.062504 0,0 2.812677,0 2.812677,0 0,0 0.0625,0 0.0625,0.062504 0,0 0,6.31289767 0,6.31289767 0,0.062504 -0.0625,0.062504 -0.0625,0.062504 0,0 -2.812677,0 -2.812677,0"
     id="path40" />
  <path
     style="fill:#ffffff;fill-opacity:1;fill-rule:evenodd;stroke:none"
     d="m 7.6879842,6.6880967 c 0,0 0,0 0,-0.062504 0,0 0,-6.31289767 0,-6.31289767 0,-0.062504 0,-0.062504 0,-0.062504 0,0 2.8126778,0 2.8126778,0 0.0625,0 0.0625,0 0.0625,0.062504 0,0 0,6.31289767 0,6.31289767 0,0.062504 0,0.062504 -0.0625,0.062504 z"
     id="path41" />
  <path
     style="fill:none;stroke:#000000;stroke-width:0.500031px;stroke-linecap:round;stroke-linejoin:round;stroke-miterlimit:4;stroke-dasharray:none;stroke-opacity:1"
     d="m 7.6879842,6.6880967 c 0,0 0,0 0,-0.062504 0,0 0,-6.31289767 0,-6.31289767 0,-0.062504 0,-0.062504 0,-0.062504 0,0 2.8126778,0 2.8126778,0 0.0625,0 0.0625,0 0.0625,0.062504 0,0 0,6.31289767 0,6.31289767 0,0.062504 0,0.062504 -0.0625,0.062504 0,0 -2.8126778,0 -2.8126778,0"
     id="path42" />
  <path
     style="fill:#ffffff;fill-opacity:1;fill-rule:evenodd;stroke:none"
     d="m 4.8128031,6.6880967 c -0.062504,0 -0.062504,0 -0.062504,-0.062504 0,0 0,-6.31289767 0,-6.31289767 0,-0.062504 0,-0.062504 0.062504,-0.062504 0,0 2.8126771,0 2.8126771,0 0,0 0.062504,0 0.062504,0.062504 0,0 0,6.31289767 0,6.31289767 0,0.062504 -0.062504,0.062504 -0.062504,0.062504 z"
     id="path43" />
  <path
     style="fill:none;stroke:#000000;stroke-width:0.500031px;stroke-linecap:round;stroke-linejoin:round;stroke-miterlimit:4;stroke-dasharray:none;stroke-opacity:1"
     d="m 4.8128031,6.6880967 c -0.062504,0 -0.062504,0 -0.062504,-0.062504 0,0 0,-6.31289767 0,-6.31289767 0,-0.062504 0,-0.062504 0.062504,-0.062504 0,0 2.8126771,0 2.8126771,0 0,0 0.062504,0 0.062504,0.062504 0,0 0,6.31289767 0,6.31289767 0,0.062504 -0.062504,0.062504 -0.062504,0.062504 0,0 -2.8126771,0 -2.8126771,0"
     id="path44" />
  <path
     style="fill:#ffffff;fill-opacity:1;fill-rule:evenodd;stroke:none"
     d="m 1.875118,6.6880967 c 0,0 -0.062504,0 -0.062504,-0.062504 0,0 0,-6.31289767 0,-6.31289767 0,-0.062504 0.062504,-0.062504 0.062504,-0.062504 0,0 2.8126772,0 2.8126772,0 0.062504,0 0.062504,0 0.062504,0.062504 0,0 0,6.31289767 0,6.31289767 0,0.062504 0,0.062504 -0.062504,0.062504 z"
     id="path45" />
  <path
     style="fill:none;stroke:#000000;stroke-width:0.500031px;stroke-linecap:round;stroke-linejoin:round;stroke-miterlimit:4;stroke-dasharray:none;stroke-opacity:1"
     d="m 1.875118,6.6880967 c 0,0 -0.062504,0 -0.062504,-0.062504 0,0 0,-6.31289767 0,-6.31289767 0,-0.062504 0.062504,-0.062504 0.062504,-0.062504 0,0 2.8126772,0 2.8126772,0 0.062504,0 0.062504,0 0.062504,0.062504 0,0 0,6.31289767 0,6.31289767 0,0.062504 0,0.062504 -0.062504,0.062504 0,0 -2.8126772,0 -2.8126772,0"
     id="path46" />
  <path
     style="fill:#ffffff;fill-opacity:1;fill-rule:evenodd;stroke:none"
     d="m 47.628,6.1880652 c -0.0625,0 -0.0625,-0.062504 -0.0625,-0.062504 0,0 0,-3.5002205 0,-3.5002205 0,-0.062504 0,-0.1250079 0.0625,-0.1250079 0,0 1.500095,0 1.500095,0 0,0 0.0625,0.062504 0.0625,0.1250079 0,0 0,3.5002205 0,3.5002205 0,0 -0.0625,0.062504 -0.0625,0.062504 z"
     id="path47" />
  <path
     style="fill:none;stroke:#000000;stroke-width:0.500031px;stroke-linecap:round;stroke-linejoin:round;stroke-miterlimit:4;stroke-dasharray:none;stroke-opacity:1"
     d="m 47.628,6.1880652 c -0.0625,0 -0.0625,-0.062504 -0.0625,-0.062504 0,0 0,-3.5002205 0,-3.5002205 0,-0.062504 0,-0.1250079 0.0625,-0.1250079 0,0 1.500095,0 1.500095,0 0,0 0.0625,0.062504 0.0625,0.1250079 0,0 0,3.5002205 0,3.5002205 0,0 -0.0625,0.062504 -0.0625,0.062504 0,0 -1.500095,0 -1.500095,0"
     id="path48" />
  <path
     style="fill:#ffffff;fill-opacity:1;fill-rule:evenodd;stroke:none"
     d="m 41.877638,6.1880652 c -0.0625,0 -0.0625,-0.062504 -0.0625,-0.062504 0,0 0,-3.5002205 0,-3.5002205 0,-0.062504 0,-0.1250079 0.0625,-0.1250079 0,0 1.500095,0 1.500095,0 0,0 0.0625,0.062504 0.0625,0.1250079 0,0 0,3.5002205 0,3.5002205 0,0 -0.0625,0.062504 -0.0625,0.062504 z"
     id="path49" />
  <path
     style="fill:none;stroke:#000000;stroke-width:0.500031px;stroke-linecap:round;stroke-linejoin:round;stroke-miterlimit:4;stroke-dasharray:none;stroke-opacity:1"
     d="m 41.877638,6.1880652 c -0.0625,0 -0.0625,-0.062504 -0.0625,-0.062504 0,0 0,-3.5002205 0,-3.5002205 0,-0.062504 0,-0.1250079 0.0625,-0.1250079 0,0 1.500095,0 1.500095,0 0,0 0.0625,0.062504 0.0625,0.1250079 0,0 0,3.5002205 0,3.5002205 0,0 -0.0625,0.062504 -0.0625,0.062504 0,0 -1.500095,0 -1.500095,0"
     id="path50" />
  <path
     style="fill:#ffffff;fill-opacity:1;fill-rule:evenodd;stroke:none"
     d="m 38.939953,6.1880652 c -0.0625,0 -0.125008,-0.062504 -0.125008,-0.062504 0,0 0,-3.5002205 0,-3.5002205 0,-0.062504 0.0625,-0.1250079 0.125008,-0.1250079 0,0 1.437591,0 1.437591,0 0.0625,0 0.0625,0.062504 0.0625,0.1250079 0,0 0,3.5002205 0,3.5002205 0,0 0,0.062504 -0.0625,0.062504 z"
     id="path51" />
  <path
     style="fill:none;stroke:#000000;stroke-width:0.500031px;stroke-linecap:round;stroke-linejoin:round;stroke-miterlimit:4;stroke-dasharray:none;stroke-opacity:1"
     d="m 38.939953,6.1880652 c -0.0625,0 -0.125008,-0.062504 -0.125008,-0.062504 0,0 0,-3.5002205 0,-3.5002205 0,-0.062504 0.0625,-0.1250079 0.125008,-0.1250079 0,0 1.437591,0 1.437591,0 0.0625,0 0.0625,0.062504 0.0625,0.1250079 0,0 0,3.5002205 0,3.5002205 0,0 0,0.062504 -0.0625,0.062504 0,0 -1.437591,0 -1.437591,0"
     id="path52" />
  <path
     style="fill:#ffffff;fill-opacity:1;fill-rule:evenodd;stroke:none"
     d="m 53.440867,6.1880652 c 0,0 -0.0625,-0.062504 -0.0625,-0.062504 0,0 0,-3.5002205 0,-3.5002205 0,-0.062504 0.0625,-0.1250079 0.0625,-0.1250079 0,0 1.500094,0 1.500094,0 0,0 0.0625,0.062504 0.0625,0.1250079 0,0 0,3.5002205 0,3.5002205 0,0 -0.0625,0.062504 -0.0625,0.062504 z"
     id="path53" />
  <path
     style="fill:none;stroke:#000000;stroke-width:0.500031px;stroke-linecap:round;stroke-linejoin:round;stroke-miterlimit:4;stroke-dasharray:none;stroke-opacity:1"
     d="m 53.440867,6.1880652 c 0,0 -0.0625,-0.062504 -0.0625,-0.062504 0,0 0,-3.5002205 0,-3.5002205 0,-0.062504 0.0625,-0.1250079 0.0625,-0.1250079 0,0 1.500094,0 1.500094,0 0,0 0.0625,0.062504 0.0625,0.1250079 0,0 0,3.5002205 0,3.5002205 0,0 -0.0625,0.062504 -0.0625,0.062504 0,0 -1.500094,0 -1.500094,0"
     id="path54" />
  <path
     style="fill:#ffffff;fill-opacity:1;fill-rule:evenodd;stroke:none"
     d="m 50.565685,6.1880652 c -0.0625,0 -0.125007,-0.062504 -0.125007,-0.062504 0,0 0,-3.5002205 0,-3.5002205 0,-0.062504 0.0625,-0.1250079 0.125007,-0.1250079 0,0 1.437591,0 1.437591,0 0.0625,0 0.0625,0.062504 0.0625,0.1250079 0,0 0,3.5002205 0,3.5002205 0,0 0,0.062504 -0.0625,0.062504 z"
     id="path55" />
  <path
     style="fill:none;stroke:#000000;stroke-width:0.500031px;stroke-linecap:round;stroke-linejoin:round;stroke-miterlimit:4;stroke-dasharray:none;stroke-opacity:1"
     d="m 50.565685,6.1880652 c -0.0625,0 -0.125007,-0.062504 -0.125007,-0.062504 0,0 0,-3.5002205 0,-3.5002205 0,-0.062504 0.0625,-0.1250079 0.125007,-0.1250079 0,0 1.437591,0 1.437591,0 0.0625,0 0.0625,0.062504 0.0625,0.1250079 0,0 0,3.5002205 0,3.5002205 0,0 0,0.062504 -0.0625,0.062504 0,0 -1.437591,0 -1.437591,0"
     id="path56" />
  <path
     style="fill:#ffffff;fill-opacity:1;fill-rule:evenodd;stroke:none"
     d="m 27.251717,6.1880652 c 0,0 -0.0625,-0.062504 -0.0625,-0.062504 0,0 0,-3.5002205 0,-3.5002205 0,-0.062504 0.0625,-0.1250079 0.0625,-0.1250079 0,0 1.500094,0 1.500094,0 0.0625,0 0.0625,0.062504 0.0625,0.1250079 0,0 0,3.5002205 0,3.5002205 0,0 0,0.062504 -0.0625,0.062504 z"
     id="path57" />
  <path
     style="fill:none;stroke:#000000;stroke-width:0.500031px;stroke-linecap:round;stroke-linejoin:round;stroke-miterlimit:4;stroke-dasharray:none;stroke-opacity:1"
     d="m 27.251717,6.1880652 c 0,0 -0.0625,-0.062504 -0.0625,-0.062504 0,0 0,-3.5002205 0,-3.5002205 0,-0.062504 0.0625,-0.1250079 0.0625,-0.1250079 0,0 1.500094,0 1.500094,0 0.0625,0 0.0625,0.062504 0.0625,0.1250079 0,0 0,3.5002205 0,3.5002205 0,0 0,0.062504 -0.0625,0.062504 0,0 -1.500094,0 -1.500094,0"
     id="path58" />
  <path
     style="fill:#ffffff;fill-opacity:1;fill-rule:evenodd;stroke:none"
     d="m 21.438851,6.1880652 c 0,0 -0.0625,-0.062504 -0.0625,-0.062504 0,0 0,-3.5002205 0,-3.5002205 0,-0.062504 0.0625,-0.1250079 0.0625,-0.1250079 0,0 1.500094,0 1.500094,0 0.0625,0 0.0625,0.062504 0.0625,0.1250079 0,0 0,3.5002205 0,3.5002205 0,0 0,0.062504 -0.0625,0.062504 z"
     id="path59" />
  <path
     style="fill:none;stroke:#000000;stroke-width:0.500031px;stroke-linecap:round;stroke-linejoin:round;stroke-miterlimit:4;stroke-dasharray:none;stroke-opacity:1"
     d="m 21.438851,6.1880652 c 0,0 -0.0625,-0.062504 -0.0625,-0.062504 0,0 0,-3.5002205 0,-3.5002205 0,-0.062504 0.0625,-0.1250079 0.0625,-0.1250079 0,0 1.500094,0 1.500094,0 0.0625,0 0.0625,0.062504 0.0625,0.1250079 0,0 0,3.5002205 0,3.5002205 0,0 0,0.062504 -0.0625,0.062504 0,0 -1.500094,0 -1.500094,0"
     id="path60" />
  <path
     style="fill:#ffffff;fill-opacity:1;fill-rule:evenodd;stroke:none"
     d="m 18.56367,6.1880652 c -0.0625,0 -0.0625,-0.062504 -0.0625,-0.062504 0,0 0,-3.5002205 0,-3.5002205 0,-0.062504 0,-0.1250079 0.0625,-0.1250079 0,0 1.43759,0 1.43759,0 0.0625,0 0.125008,0.062504 0.125008,0.1250079 0,0 0,3.5002205 0,3.5002205 0,0 -0.0625,0.062504 -0.125008,0.062504 z"
     id="path61" />
  <path
     style="fill:none;stroke:#000000;stroke-width:0.500031px;stroke-linecap:round;stroke-linejoin:round;stroke-miterlimit:4;stroke-dasharray:none;stroke-opacity:1"
     d="m 18.56367,6.1880652 c -0.0625,0 -0.0625,-0.062504 -0.0625,-0.062504 0,0 0,-3.5002205 0,-3.5002205 0,-0.062504 0,-0.1250079 0.0625,-0.1250079 0,0 1.43759,0 1.43759,0 0.0625,0 0.125008,0.062504 0.125008,0.1250079 0,0 0,3.5002205 0,3.5002205 0,0 -0.0625,0.062504 -0.125008,0.062504 0,0 -1.43759,0 -1.43759,0"
     id="path62" />
  <path
     style="fill:#ffffff;fill-opacity:1;fill-rule:evenodd;stroke:none"
     d="m 33.127087,6.1880652 c -0.0625,0 -0.125008,-0.062504 -0.125008,-0.062504 0,0 0,-3.5002205 0,-3.5002205 0,-0.062504 0.0625,-0.1250079 0.125008,-0.1250079 0,0 1.437591,0 1.437591,0 0.0625,0 0.0625,0.062504 0.0625,0.1250079 0,0 0,3.5002205 0,3.5002205 0,0 0,0.062504 -0.0625,0.062504 z"
     id="path63" />
  <path
     style="fill:none;stroke:#000000;stroke-width:0.500031px;stroke-linecap:round;stroke-linejoin:round;stroke-miterlimit:4;stroke-dasharray:none;stroke-opacity:1"
     d="m 33.127087,6.1880652 c -0.0625,0 -0.125008,-0.062504 -0.125008,-0.062504 0,0 0,-3.5002205 0,-3.5002205 0,-0.062504 0.0625,-0.1250079 0.125008,-0.1250079 0,0 1.437591,0 1.437591,0 0.0625,0 0.0625,0.062504 0.0625,0.1250079 0,0 0,3.5002205 0,3.5002205 0,0 0,0.062504 -0.0625,0.062504 0,0 -1.437591,0 -1.437591,0"
     id="path64" />
  <path
     style="fill:#ffffff;fill-opacity:1;fill-rule:evenodd;stroke:none"
     d="m 30.189402,6.1880652 c -0.0625,0 -0.0625,-0.062504 -0.0625,-0.062504 0,0 0,-3.5002205 0,-3.5002205 0,-0.062504 0,-0.1250079 0.0625,-0.1250079 0,0 1.437591,0 1.437591,0 0.0625,0 0.125007,0.062504 0.125007,0.1250079 0,0 0,3.5002205 0,3.5002205 0,0 -0.0625,0.062504 -0.125007,0.062504 z"
     id="path65" />
  <path
     style="fill:none;stroke:#000000;stroke-width:0.500031px;stroke-linecap:round;stroke-linejoin:round;stroke-miterlimit:4;stroke-dasharray:none;stroke-opacity:1"
     d="m 30.189402,6.1880652 c -0.0625,0 -0.0625,-0.062504 -0.0625,-0.062504 0,0 0,-3.5002205 0,-3.5002205 0,-0.062504 0,-0.1250079 0.0625,-0.1250079 0,0 1.437591,0 1.437591,0 0.0625,0 0.125007,0.062504 0.125007,0.1250079 0,0 0,3.5002205 0,3.5002205 0,0 -0.0625,0.062504 -0.125007,0.062504 0,0 -1.437591,0 -1.437591,0"
     id="path66" />
  <path
     style="fill:#ffffff;fill-opacity:1;fill-rule:evenodd;stroke:none"
     d="m 6.9379369,6.1880652 c -0.062504,0 -0.062504,-0.062504 -0.062504,-0.062504 0,0 0,-3.5002205 0,-3.5002205 0,-0.062504 0,-0.1250079 0.062504,-0.1250079 0,0 1.4375906,0 1.4375906,0 0.062504,0 0.062504,0.062504 0.062504,0.1250079 0,0 0,3.5002205 0,3.5002205 0,0 0,0.062504 -0.062504,0.062504 z"
     id="path67" />
  <path
     style="fill:none;stroke:#000000;stroke-width:0.500031px;stroke-linecap:round;stroke-linejoin:round;stroke-miterlimit:4;stroke-dasharray:none;stroke-opacity:1"
     d="m 6.9379369,6.1880652 c -0.062504,0 -0.062504,-0.062504 -0.062504,-0.062504 0,0 0,-3.5002205 0,-3.5002205 0,-0.062504 0,-0.1250079 0.062504,-0.1250079 0,0 1.4375906,0 1.4375906,0 0.062504,0 0.062504,0.062504 0.062504,0.1250079 0,0 0,3.5002205 0,3.5002205 0,0 0,0.062504 -0.062504,0.062504 0,0 -1.4375906,0 -1.4375906,0"
     id="path68" />
  <path
     style="fill:#ffffff;fill-opacity:1;fill-rule:evenodd;stroke:none"
     d="m 12.750804,6.1880652 c -0.0625,0 -0.0625,-0.062504 -0.0625,-0.062504 0,0 0,-3.5002205 0,-3.5002205 0,-0.062504 0,-0.1250079 0.0625,-0.1250079 0,0 1.43759,0 1.43759,0 0.0625,0 0.125008,0.062504 0.125008,0.1250079 0,0 0,3.5002205 0,3.5002205 0,0 -0.0625,0.062504 -0.125008,0.062504 z"
     id="path69" />
  <path
     style="fill:none;stroke:#000000;stroke-width:0.500031px;stroke-linecap:round;stroke-linejoin:round;stroke-miterlimit:4;stroke-dasharray:none;stroke-opacity:1"
     d="m 12.750804,6.1880652 c -0.0625,0 -0.0625,-0.062504 -0.0625,-0.062504 0,0 0,-3.5002205 0,-3.5002205 0,-0.062504 0,-0.1250079 0.0625,-0.1250079 0,0 1.43759,0 1.43759,0 0.0625,0 0.125008,0.062504 0.125008,0.1250079 0,0 0,3.5002205 0,3.5002205 0,0 -0.0625,0.062504 -0.125008,0.062504 0,0 -1.43759,0 -1.43759,0"
     id="path70" />
  <path
     style="fill:#ffffff;fill-opacity:1;fill-rule:evenodd;stroke:none"
     d="m 9.8131185,6.1880652 c 0,0 -0.0625,-0.062504 -0.0625,-0.062504 0,0 0,-3.5002205 0,-3.5002205 0,-0.062504 0.0625,-0.1250079 0.0625,-0.1250079 0,0 1.5000945,0 1.5000945,0 0,0 0.0625,0.062504 0.0625,0.1250079 0,0 0,3.5002205 0,3.5002205 0,0 -0.0625,0.062504 -0.0625,0.062504 z"
     id="path71" />
  <path
     style="fill:none;stroke:#000000;stroke-width:0.500031px;stroke-linecap:round;stroke-linejoin:round;stroke-miterlimit:4;stroke-dasharray:none;stroke-opacity:1"
     d="m 9.8131185,6.1880652 c 0,0 -0.0625,-0.062504 -0.0625,-0.062504 0,0 0,-3.5002205 0,-3.5002205 0,-0.062504 0.0625,-0.1250079 0.0625,-0.1250079 0,0 1.5000945,0 1.5000945,0 0,0 0.0625,0.062504 0.0625,0.1250079 0,0 0,3.5002205 0,3.5002205 0,0 -0.0625,0.062504 -0.0625,0.062504 0,0 -1.5000945,0 -1.5000945,0"
     id="path72" />
</svg>
