<?xml version="1.0" encoding="UTF-8" standalone="no"?>
<svg
   version="1.0"
   width="16.322512mm"
   height="4.0682249mm"
   id="svg211"
   xmlns="http://www.w3.org/2000/svg"
   xmlns:svg="http://www.w3.org/2000/svg">
  <defs
     id="defs1">
    <pattern
       id="EMFhbasepattern"
       patternUnits="userSpaceOnUse"
       width="6"
       height="6"
       x="0"
       y="0" />
  </defs>
  <path
     style="fill:#ffffff;fill-opacity:1;fill-rule:evenodd;stroke:none"
     d="m 1.0000629,15.125952 c -0.43752756,0 -0.75004716,-0.312519 -0.75004716,-0.750047 0,0 0,-13.375842 0,-13.375842 0,-0.43752756 0.3125196,-0.75004726 0.75004716,-0.75004726 0,0 59.6912601,0 59.6912601,0 0.437527,0 0.750047,0.3125197 0.750047,0.75004726 0,0 0,13.375842 0,13.375842 0,0.437528 -0.31252,0.750047 -0.750047,0.750047 z"
     id="path1" />
  <path
     style="fill:none;stroke:#000000;stroke-width:0.500031px;stroke-linecap:round;stroke-linejoin:round;stroke-miterlimit:4;stroke-dasharray:none;stroke-opacity:1"
     d="m 1.0000629,15.125952 c -0.43752756,0 -0.75004716,-0.312519 -0.75004716,-0.750047 0,0 0,-13.375842 0,-13.375842 0,-0.43752756 0.3125196,-0.75004726 0.75004716,-0.75004726 0,0 59.6912601,0 59.6912601,0 0.437527,0 0.750047,0.3125197 0.750047,0.75004726 0,0 0,13.375842 0,13.375842 0,0.437528 -0.31252,0.750047 -0.750047,0.750047 0,0 -59.6912601,0 -59.6912601,0"
     id="path2" />
  <path
     style="fill:#ffffff;fill-opacity:1;fill-rule:evenodd;stroke:none"
     d="m 58.753701,7.7504882 c -0.0625,0 -0.0625,-0.062504 -0.0625,-0.062504 0,0 0,-6.6879212 0,-6.6879212 0,0 0,-0.062504 0.0625,-0.062504 0,0 1.000063,0 1.000063,0 0,0 0.0625,0.062504 0.0625,0.062504 0,0 0,6.6879212 0,6.6879212 0,0 -0.0625,0.062504 -0.0625,0.062504 z"
     id="path3" />
  <path
     style="fill:none;stroke:#000000;stroke-width:0.500031px;stroke-linecap:round;stroke-linejoin:round;stroke-miterlimit:4;stroke-dasharray:none;stroke-opacity:1"
     d="m 58.753701,7.7504882 c -0.0625,0 -0.0625,-0.062504 -0.0625,-0.062504 0,0 0,-6.6879212 0,-6.6879212 0,0 0,-0.062504 0.0625,-0.062504 0,0 1.000063,0 1.000063,0 0,0 0.0625,0.062504 0.0625,0.062504 0,0 0,6.6879212 0,6.6879212 0,0 -0.0625,0.062504 -0.0625,0.062504 0,0 -1.000063,0 -1.000063,0"
     id="path4" />
  <path
     style="fill:#ffffff;fill-opacity:1;fill-rule:evenodd;stroke:none"
     d="m 57.62863,7.7504882 c -0.0625,0 -0.0625,-0.062504 -0.0625,-0.062504 0,0 0,-6.6879212 0,-6.6879212 0,0 0,-0.062504 0.0625,-0.062504 0,0 1.000063,0 1.000063,0 0,0 0.0625,0.062504 0.0625,0.062504 0,0 0,6.6879212 0,6.6879212 0,0 -0.0625,0.062504 -0.0625,0.062504 z"
     id="path5" />
  <path
     style="fill:none;stroke:#000000;stroke-width:0.500031px;stroke-linecap:round;stroke-linejoin:round;stroke-miterlimit:4;stroke-dasharray:none;stroke-opacity:1"
     d="m 57.62863,7.7504882 c -0.0625,0 -0.0625,-0.062504 -0.0625,-0.062504 0,0 0,-6.6879212 0,-6.6879212 0,0 0,-0.062504 0.0625,-0.062504 0,0 1.000063,0 1.000063,0 0,0 0.0625,0.062504 0.0625,0.062504 0,0 0,6.6879212 0,6.6879212 0,0 -0.0625,0.062504 -0.0625,0.062504 0,0 -1.000063,0 -1.000063,0"
     id="path6" />
  <path
     style="fill:#ffffff;fill-opacity:1;fill-rule:evenodd;stroke:none"
     d="m 56.503559,7.7504882 c 0,0 -0.0625,-0.062504 -0.0625,-0.062504 0,0 0,-6.6879212 0,-6.6879212 0,0 0.0625,-0.062504 0.0625,-0.062504 0,0 1.000063,0 1.000063,0 0.0625,0 0.0625,0.062504 0.0625,0.062504 0,0 0,6.6879212 0,6.6879212 0,0 0,0.062504 -0.0625,0.062504 z"
     id="path7" />
  <path
     style="fill:none;stroke:#000000;stroke-width:0.500031px;stroke-linecap:round;stroke-linejoin:round;stroke-miterlimit:4;stroke-dasharray:none;stroke-opacity:1"
     d="m 56.503559,7.7504882 c 0,0 -0.0625,-0.062504 -0.0625,-0.062504 0,0 0,-6.6879212 0,-6.6879212 0,0 0.0625,-0.062504 0.0625,-0.062504 0,0 1.000063,0 1.000063,0 0.0625,0 0.0625,0.062504 0.0625,0.062504 0,0 0,6.6879212 0,6.6879212 0,0 0,0.062504 -0.0625,0.062504 0,0 -1.000063,0 -1.000063,0"
     id="path8" />
  <path
     style="fill:#ffffff;fill-opacity:1;fill-rule:evenodd;stroke:none"
     d="m 55.378488,7.7504882 c 0,0 -0.0625,-0.062504 -0.0625,-0.062504 0,0 0,-6.6879212 0,-6.6879212 0,0 0.0625,-0.062504 0.0625,-0.062504 0,0 1.000063,0 1.000063,0 0.0625,0 0.0625,0.062504 0.0625,0.062504 0,0 0,6.6879212 0,6.6879212 0,0 0,0.062504 -0.0625,0.062504 z"
     id="path9" />
  <path
     style="fill:none;stroke:#000000;stroke-width:0.500031px;stroke-linecap:round;stroke-linejoin:round;stroke-miterlimit:4;stroke-dasharray:none;stroke-opacity:1"
     d="m 55.378488,7.7504882 c 0,0 -0.0625,-0.062504 -0.0625,-0.062504 0,0 0,-6.6879212 0,-6.6879212 0,0 0.0625,-0.062504 0.0625,-0.062504 0,0 1.000063,0 1.000063,0 0.0625,0 0.0625,0.062504 0.0625,0.062504 0,0 0,6.6879212 0,6.6879212 0,0 0,0.062504 -0.0625,0.062504 0,0 -1.000063,0 -1.000063,0"
     id="path10" />
  <path
     style="fill:#ffffff;fill-opacity:1;fill-rule:evenodd;stroke:none"
     d="m 54.253417,7.7504882 c 0,0 0,-0.062504 0,-0.062504 0,0 0,-6.6879212 0,-6.6879212 0,0 0,-0.062504 0,-0.062504 0,0 1.062567,0 1.062567,0 0,0 0,0.062504 0,0.062504 0,0 0,6.6879212 0,6.6879212 0,0 0,0.062504 0,0.062504 z"
     id="path11" />
  <path
     style="fill:none;stroke:#000000;stroke-width:0.500031px;stroke-linecap:round;stroke-linejoin:round;stroke-miterlimit:4;stroke-dasharray:none;stroke-opacity:1"
     d="m 54.253417,7.7504882 c 0,0 0,-0.062504 0,-0.062504 0,0 0,-6.6879212 0,-6.6879212 0,0 0,-0.062504 0,-0.062504 0,0 1.062567,0 1.062567,0 0,0 0,0.062504 0,0.062504 0,0 0,6.6879212 0,6.6879212 0,0 0,0.062504 0,0.062504 0,0 -1.062567,0 -1.062567,0"
     id="path12" />
  <path
     style="fill:#ffffff;fill-opacity:1;fill-rule:evenodd;stroke:none"
     d="m 53.19085,7.7504882 c -0.0625,0 -0.0625,-0.062504 -0.0625,-0.062504 0,0 0,-6.6879212 0,-6.6879212 0,0 0,-0.062504 0.0625,-0.062504 0,0 1.000063,0 1.000063,0 0,0 0.0625,0.062504 0.0625,0.062504 0,0 0,6.6879212 0,6.6879212 0,0 -0.0625,0.062504 -0.0625,0.062504 z"
     id="path13" />
  <path
     style="fill:none;stroke:#000000;stroke-width:0.500031px;stroke-linecap:round;stroke-linejoin:round;stroke-miterlimit:4;stroke-dasharray:none;stroke-opacity:1"
     d="m 53.19085,7.7504882 c -0.0625,0 -0.0625,-0.062504 -0.0625,-0.062504 0,0 0,-6.6879212 0,-6.6879212 0,0 0,-0.062504 0.0625,-0.062504 0,0 1.000063,0 1.000063,0 0,0 0.0625,0.062504 0.0625,0.062504 0,0 0,6.6879212 0,6.6879212 0,0 -0.0625,0.062504 -0.0625,0.062504 0,0 -1.000063,0 -1.000063,0"
     id="path14" />
  <path
     style="fill:#ffffff;fill-opacity:1;fill-rule:evenodd;stroke:none"
     d="m 52.065779,7.7504882 c -0.0625,0 -0.0625,-0.062504 -0.0625,-0.062504 0,0 0,-6.6879212 0,-6.6879212 0,0 0,-0.062504 0.0625,-0.062504 0,0 1.000063,0 1.000063,0 0,0 0.0625,0.062504 0.0625,0.062504 0,0 0,6.6879212 0,6.6879212 0,0 -0.0625,0.062504 -0.0625,0.062504 z"
     id="path15" />
  <path
     style="fill:none;stroke:#000000;stroke-width:0.500031px;stroke-linecap:round;stroke-linejoin:round;stroke-miterlimit:4;stroke-dasharray:none;stroke-opacity:1"
     d="m 52.065779,7.7504882 c -0.0625,0 -0.0625,-0.062504 -0.0625,-0.062504 0,0 0,-6.6879212 0,-6.6879212 0,0 0,-0.062504 0.0625,-0.062504 0,0 1.000063,0 1.000063,0 0,0 0.0625,0.062504 0.0625,0.062504 0,0 0,6.6879212 0,6.6879212 0,0 -0.0625,0.062504 -0.0625,0.062504 0,0 -1.000063,0 -1.000063,0"
     id="path16" />
  <path
     style="fill:#ffffff;fill-opacity:1;fill-rule:evenodd;stroke:none"
     d="m 50.940708,7.7504882 c 0,0 -0.0625,-0.062504 -0.0625,-0.062504 0,0 0,-6.6879212 0,-6.6879212 0,0 0.0625,-0.062504 0.0625,-0.062504 0,0 1.000063,0 1.000063,0 0.0625,0 0.0625,0.062504 0.0625,0.062504 0,0 0,6.6879212 0,6.6879212 0,0 0,0.062504 -0.0625,0.062504 z"
     id="path17" />
  <path
     style="fill:none;stroke:#000000;stroke-width:0.500031px;stroke-linecap:round;stroke-linejoin:round;stroke-miterlimit:4;stroke-dasharray:none;stroke-opacity:1"
     d="m 50.940708,7.7504882 c 0,0 -0.0625,-0.062504 -0.0625,-0.062504 0,0 0,-6.6879212 0,-6.6879212 0,0 0.0625,-0.062504 0.0625,-0.062504 0,0 1.000063,0 1.000063,0 0.0625,0 0.0625,0.062504 0.0625,0.062504 0,0 0,6.6879212 0,6.6879212 0,0 0,0.062504 -0.0625,0.062504 0,0 -1.000063,0 -1.000063,0"
     id="path18" />
  <path
     style="fill:#ffffff;fill-opacity:1;fill-rule:evenodd;stroke:none"
     d="m 49.815638,7.7504882 c 0,0 -0.0625,-0.062504 -0.0625,-0.062504 0,0 0,-6.6879212 0,-6.6879212 0,0 0.0625,-0.062504 0.0625,-0.062504 0,0 1.000063,0 1.000063,0 0.0625,0 0.0625,0.062504 0.0625,0.062504 0,0 0,6.6879212 0,6.6879212 0,0 0,0.062504 -0.0625,0.062504 z"
     id="path19" />
  <path
     style="fill:none;stroke:#000000;stroke-width:0.500031px;stroke-linecap:round;stroke-linejoin:round;stroke-miterlimit:4;stroke-dasharray:none;stroke-opacity:1"
     d="m 49.815638,7.7504882 c 0,0 -0.0625,-0.062504 -0.0625,-0.062504 0,0 0,-6.6879212 0,-6.6879212 0,0 0.0625,-0.062504 0.0625,-0.062504 0,0 1.000063,0 1.000063,0 0.0625,0 0.0625,0.062504 0.0625,0.062504 0,0 0,6.6879212 0,6.6879212 0,0 0,0.062504 -0.0625,0.062504 0,0 -1.000063,0 -1.000063,0"
     id="path20" />
  <path
     style="fill:#ffffff;fill-opacity:1;fill-rule:evenodd;stroke:none"
     d="m 48.690567,7.7504882 c 0,0 -0.0625,-0.062504 -0.0625,-0.062504 0,0 0,-6.6879212 0,-6.6879212 0,0 0.0625,-0.062504 0.0625,-0.062504 0,0 1.000063,0 1.000063,0 0.0625,0 0.0625,0.062504 0.0625,0.062504 0,0 0,6.6879212 0,6.6879212 0,0 0,0.062504 -0.0625,0.062504 z"
     id="path21" />
  <path
     style="fill:none;stroke:#000000;stroke-width:0.500031px;stroke-linecap:round;stroke-linejoin:round;stroke-miterlimit:4;stroke-dasharray:none;stroke-opacity:1"
     d="m 48.690567,7.7504882 c 0,0 -0.0625,-0.062504 -0.0625,-0.062504 0,0 0,-6.6879212 0,-6.6879212 0,0 0.0625,-0.062504 0.0625,-0.062504 0,0 1.000063,0 1.000063,0 0.0625,0 0.0625,0.062504 0.0625,0.062504 0,0 0,6.6879212 0,6.6879212 0,0 0,0.062504 -0.0625,0.062504 0,0 -1.000063,0 -1.000063,0"
     id="path22" />
  <path
     style="fill:#ffffff;fill-opacity:1;fill-rule:evenodd;stroke:none"
     d="m 47.628,7.7504882 c -0.0625,0 -0.0625,-0.062504 -0.0625,-0.062504 0,0 0,-6.6879212 0,-6.6879212 0,0 0,-0.062504 0.0625,-0.062504 0,0 1.000063,0 1.000063,0 0,0 0,0.062504 0,0.062504 0,0 0,6.6879212 0,6.6879212 0,0 0,0.062504 0,0.062504 z"
     id="path23" />
  <path
     style="fill:none;stroke:#000000;stroke-width:0.500031px;stroke-linecap:round;stroke-linejoin:round;stroke-miterlimit:4;stroke-dasharray:none;stroke-opacity:1"
     d="m 47.628,7.7504882 c -0.0625,0 -0.0625,-0.062504 -0.0625,-0.062504 0,0 0,-6.6879212 0,-6.6879212 0,0 0,-0.062504 0.0625,-0.062504 0,0 1.000063,0 1.000063,0 0,0 0,0.062504 0,0.062504 0,0 0,6.6879212 0,6.6879212 0,0 0,0.062504 0,0.062504 0,0 -1.000063,0 -1.000063,0"
     id="path24" />
  <path
     style="fill:#ffffff;fill-opacity:1;fill-rule:evenodd;stroke:none"
     d="m 46.502929,7.7504882 c -0.0625,0 -0.0625,-0.062504 -0.0625,-0.062504 0,0 0,-6.6879212 0,-6.6879212 0,0 0,-0.062504 0.0625,-0.062504 0,0 1.000063,0 1.000063,0 0,0 0.0625,0.062504 0.0625,0.062504 0,0 0,6.6879212 0,6.6879212 0,0 -0.0625,0.062504 -0.0625,0.062504 z"
     id="path25" />
  <path
     style="fill:none;stroke:#000000;stroke-width:0.500031px;stroke-linecap:round;stroke-linejoin:round;stroke-miterlimit:4;stroke-dasharray:none;stroke-opacity:1"
     d="m 46.502929,7.7504882 c -0.0625,0 -0.0625,-0.062504 -0.0625,-0.062504 0,0 0,-6.6879212 0,-6.6879212 0,0 0,-0.062504 0.0625,-0.062504 0,0 1.000063,0 1.000063,0 0,0 0.0625,0.062504 0.0625,0.062504 0,0 0,6.6879212 0,6.6879212 0,0 -0.0625,0.062504 -0.0625,0.062504 0,0 -1.000063,0 -1.000063,0"
     id="path26" />
  <path
     style="fill:#ffffff;fill-opacity:1;fill-rule:evenodd;stroke:none"
     d="m 45.377858,7.7504882 c -0.0625,0 -0.0625,-0.062504 -0.0625,-0.062504 0,0 0,-6.6879212 0,-6.6879212 0,0 0,-0.062504 0.0625,-0.062504 0,0 1.000063,0 1.000063,0 0,0 0.0625,0.062504 0.0625,0.062504 0,0 0,6.6879212 0,6.6879212 0,0 -0.0625,0.062504 -0.0625,0.062504 z"
     id="path27" />
  <path
     style="fill:none;stroke:#000000;stroke-width:0.500031px;stroke-linecap:round;stroke-linejoin:round;stroke-miterlimit:4;stroke-dasharray:none;stroke-opacity:1"
     d="m 45.377858,7.7504882 c -0.0625,0 -0.0625,-0.062504 -0.0625,-0.062504 0,0 0,-6.6879212 0,-6.6879212 0,0 0,-0.062504 0.0625,-0.062504 0,0 1.000063,0 1.000063,0 0,0 0.0625,0.062504 0.0625,0.062504 0,0 0,6.6879212 0,6.6879212 0,0 -0.0625,0.062504 -0.0625,0.062504 0,0 -1.000063,0 -1.000063,0"
     id="path28" />
  <path
     style="fill:#ffffff;fill-opacity:1;fill-rule:evenodd;stroke:none"
     d="m 44.252787,7.7504882 c 0,0 -0.0625,-0.062504 -0.0625,-0.062504 0,0 0,-6.6879212 0,-6.6879212 0,0 0.0625,-0.062504 0.0625,-0.062504 0,0 1.000063,0 1.000063,0 0.0625,0 0.0625,0.062504 0.0625,0.062504 0,0 0,6.6879212 0,6.6879212 0,0 0,0.062504 -0.0625,0.062504 z"
     id="path29" />
  <path
     style="fill:none;stroke:#000000;stroke-width:0.500031px;stroke-linecap:round;stroke-linejoin:round;stroke-miterlimit:4;stroke-dasharray:none;stroke-opacity:1"
     d="m 44.252787,7.7504882 c 0,0 -0.0625,-0.062504 -0.0625,-0.062504 0,0 0,-6.6879212 0,-6.6879212 0,0 0.0625,-0.062504 0.0625,-0.062504 0,0 1.000063,0 1.000063,0 0.0625,0 0.0625,0.062504 0.0625,0.062504 0,0 0,6.6879212 0,6.6879212 0,0 0,0.062504 -0.0625,0.062504 0,0 -1.000063,0 -1.000063,0"
     id="path30" />
  <path
     style="fill:#ffffff;fill-opacity:1;fill-rule:evenodd;stroke:none"
     d="m 43.127716,7.7504882 c 0,0 -0.0625,-0.062504 -0.0625,-0.062504 0,0 0,-6.6879212 0,-6.6879212 0,0 0.0625,-0.062504 0.0625,-0.062504 0,0 1.000063,0 1.000063,0 0.0625,0 0.0625,0.062504 0.0625,0.062504 0,0 0,6.6879212 0,6.6879212 0,0 0,0.062504 -0.0625,0.062504 z"
     id="path31" />
  <path
     style="fill:none;stroke:#000000;stroke-width:0.500031px;stroke-linecap:round;stroke-linejoin:round;stroke-miterlimit:4;stroke-dasharray:none;stroke-opacity:1"
     d="m 43.127716,7.7504882 c 0,0 -0.0625,-0.062504 -0.0625,-0.062504 0,0 0,-6.6879212 0,-6.6879212 0,0 0.0625,-0.062504 0.0625,-0.062504 0,0 1.000063,0 1.000063,0 0.0625,0 0.0625,0.062504 0.0625,0.062504 0,0 0,6.6879212 0,6.6879212 0,0 0,0.062504 -0.0625,0.062504 0,0 -1.000063,0 -1.000063,0"
     id="path32" />
  <path
     style="fill:#ffffff;fill-opacity:1;fill-rule:evenodd;stroke:none"
     d="m 42.002645,7.7504882 c 0,0 0,-0.062504 0,-0.062504 0,0 0,-6.6879212 0,-6.6879212 0,0 0,-0.062504 0,-0.062504 0,0 1.062567,0 1.062567,0 0,0 0,0.062504 0,0.062504 0,0 0,6.6879212 0,6.6879212 0,0 0,0.062504 0,0.062504 z"
     id="path33" />
  <path
     style="fill:none;stroke:#000000;stroke-width:0.500031px;stroke-linecap:round;stroke-linejoin:round;stroke-miterlimit:4;stroke-dasharray:none;stroke-opacity:1"
     d="m 42.002645,7.7504882 c 0,0 0,-0.062504 0,-0.062504 0,0 0,-6.6879212 0,-6.6879212 0,0 0,-0.062504 0,-0.062504 0,0 1.062567,0 1.062567,0 0,0 0,0.062504 0,0.062504 0,0 0,6.6879212 0,6.6879212 0,0 0,0.062504 0,0.062504 0,0 -1.062567,0 -1.062567,0"
     id="path34" />
  <path
     style="fill:#ffffff;fill-opacity:1;fill-rule:evenodd;stroke:none"
     d="m 40.940079,7.7504882 c -0.0625,0 -0.0625,-0.062504 -0.0625,-0.062504 0,0 0,-6.6879212 0,-6.6879212 0,0 0,-0.062504 0.0625,-0.062504 0,0 1.000063,0 1.000063,0 0,0 0.0625,0.062504 0.0625,0.062504 0,0 0,6.6879212 0,6.6879212 0,0 -0.0625,0.062504 -0.0625,0.062504 z"
     id="path35" />
  <path
     style="fill:none;stroke:#000000;stroke-width:0.500031px;stroke-linecap:round;stroke-linejoin:round;stroke-miterlimit:4;stroke-dasharray:none;stroke-opacity:1"
     d="m 40.940079,7.7504882 c -0.0625,0 -0.0625,-0.062504 -0.0625,-0.062504 0,0 0,-6.6879212 0,-6.6879212 0,0 0,-0.062504 0.0625,-0.062504 0,0 1.000063,0 1.000063,0 0,0 0.0625,0.062504 0.0625,0.062504 0,0 0,6.6879212 0,6.6879212 0,0 -0.0625,0.062504 -0.0625,0.062504 0,0 -1.000063,0 -1.000063,0"
     id="path36" />
  <path
     style="fill:#ffffff;fill-opacity:1;fill-rule:evenodd;stroke:none"
     d="m 39.815008,7.7504882 c -0.0625,0 -0.0625,-0.062504 -0.0625,-0.062504 0,0 0,-6.6879212 0,-6.6879212 0,0 0,-0.062504 0.0625,-0.062504 0,0 1.000063,0 1.000063,0 0,0 0.0625,0.062504 0.0625,0.062504 0,0 0,6.6879212 0,6.6879212 0,0 -0.0625,0.062504 -0.0625,0.062504 z"
     id="path37" />
  <path
     style="fill:none;stroke:#000000;stroke-width:0.500031px;stroke-linecap:round;stroke-linejoin:round;stroke-miterlimit:4;stroke-dasharray:none;stroke-opacity:1"
     d="m 39.815008,7.7504882 c -0.0625,0 -0.0625,-0.062504 -0.0625,-0.062504 0,0 0,-6.6879212 0,-6.6879212 0,0 0,-0.062504 0.0625,-0.062504 0,0 1.000063,0 1.000063,0 0,0 0.0625,0.062504 0.0625,0.062504 0,0 0,6.6879212 0,6.6879212 0,0 -0.0625,0.062504 -0.0625,0.062504 0,0 -1.000063,0 -1.000063,0"
     id="path38" />
  <path
     style="fill:#ffffff;fill-opacity:1;fill-rule:evenodd;stroke:none"
     d="m 38.689937,7.7504882 c 0,0 -0.0625,-0.062504 -0.0625,-0.062504 0,0 0,-6.6879212 0,-6.6879212 0,0 0.0625,-0.062504 0.0625,-0.062504 0,0 1.000063,0 1.000063,0 0.0625,0 0.0625,0.062504 0.0625,0.062504 0,0 0,6.6879212 0,6.6879212 0,0 0,0.062504 -0.0625,0.062504 z"
     id="path39" />
  <path
     style="fill:none;stroke:#000000;stroke-width:0.500031px;stroke-linecap:round;stroke-linejoin:round;stroke-miterlimit:4;stroke-dasharray:none;stroke-opacity:1"
     d="m 38.689937,7.7504882 c 0,0 -0.0625,-0.062504 -0.0625,-0.062504 0,0 0,-6.6879212 0,-6.6879212 0,0 0.0625,-0.062504 0.0625,-0.062504 0,0 1.000063,0 1.000063,0 0.0625,0 0.0625,0.062504 0.0625,0.062504 0,0 0,6.6879212 0,6.6879212 0,0 0,0.062504 -0.0625,0.062504 0,0 -1.000063,0 -1.000063,0"
     id="path40" />
  <path
     style="fill:#ffffff;fill-opacity:1;fill-rule:evenodd;stroke:none"
     d="m 37.564866,7.7504882 c 0,0 -0.0625,-0.062504 -0.0625,-0.062504 0,0 0,-6.6879212 0,-6.6879212 0,0 0.0625,-0.062504 0.0625,-0.062504 0,0 1.000063,0 1.000063,0 0.0625,0 0.0625,0.062504 0.0625,0.062504 0,0 0,6.6879212 0,6.6879212 0,0 0,0.062504 -0.0625,0.062504 z"
     id="path41" />
  <path
     style="fill:none;stroke:#000000;stroke-width:0.500031px;stroke-linecap:round;stroke-linejoin:round;stroke-miterlimit:4;stroke-dasharray:none;stroke-opacity:1"
     d="m 37.564866,7.7504882 c 0,0 -0.0625,-0.062504 -0.0625,-0.062504 0,0 0,-6.6879212 0,-6.6879212 0,0 0.0625,-0.062504 0.0625,-0.062504 0,0 1.000063,0 1.000063,0 0.0625,0 0.0625,0.062504 0.0625,0.062504 0,0 0,6.6879212 0,6.6879212 0,0 0,0.062504 -0.0625,0.062504 0,0 -1.000063,0 -1.000063,0"
     id="path42" />
  <path
     style="fill:#ffffff;fill-opacity:1;fill-rule:evenodd;stroke:none"
     d="m 36.439795,7.7504882 c 0,0 0,-0.062504 0,-0.062504 0,0 0,-6.6879212 0,-6.6879212 0,0 0,-0.062504 0,-0.062504 0,0 1.062567,0 1.062567,0 0,0 0,0.062504 0,0.062504 0,0 0,6.6879212 0,6.6879212 0,0 0,0.062504 0,0.062504 z"
     id="path43" />
  <path
     style="fill:none;stroke:#000000;stroke-width:0.500031px;stroke-linecap:round;stroke-linejoin:round;stroke-miterlimit:4;stroke-dasharray:none;stroke-opacity:1"
     d="m 36.439795,7.7504882 c 0,0 0,-0.062504 0,-0.062504 0,0 0,-6.6879212 0,-6.6879212 0,0 0,-0.062504 0,-0.062504 0,0 1.062567,0 1.062567,0 0,0 0,0.062504 0,0.062504 0,0 0,6.6879212 0,6.6879212 0,0 0,0.062504 0,0.062504 0,0 -1.062567,0 -1.062567,0"
     id="path44" />
  <path
     style="fill:#ffffff;fill-opacity:1;fill-rule:evenodd;stroke:none"
     d="m 35.377228,7.7504882 c -0.0625,0 -0.0625,-0.062504 -0.0625,-0.062504 0,0 0,-6.6879212 0,-6.6879212 0,0 0,-0.062504 0.0625,-0.062504 0,0 1.000063,0 1.000063,0 0,0 0.0625,0.062504 0.0625,0.062504 0,0 0,6.6879212 0,6.6879212 0,0 -0.0625,0.062504 -0.0625,0.062504 z"
     id="path45" />
  <path
     style="fill:none;stroke:#000000;stroke-width:0.500031px;stroke-linecap:round;stroke-linejoin:round;stroke-miterlimit:4;stroke-dasharray:none;stroke-opacity:1"
     d="m 35.377228,7.7504882 c -0.0625,0 -0.0625,-0.062504 -0.0625,-0.062504 0,0 0,-6.6879212 0,-6.6879212 0,0 0,-0.062504 0.0625,-0.062504 0,0 1.000063,0 1.000063,0 0,0 0.0625,0.062504 0.0625,0.062504 0,0 0,6.6879212 0,6.6879212 0,0 -0.0625,0.062504 -0.0625,0.062504 0,0 -1.000063,0 -1.000063,0"
     id="path46" />
  <path
     style="fill:#ffffff;fill-opacity:1;fill-rule:evenodd;stroke:none"
     d="m 34.252157,7.7504882 c -0.0625,0 -0.0625,-0.062504 -0.0625,-0.062504 0,0 0,-6.6879212 0,-6.6879212 0,0 0,-0.062504 0.0625,-0.062504 0,0 1.000063,0 1.000063,0 0,0 0.0625,0.062504 0.0625,0.062504 0,0 0,6.6879212 0,6.6879212 0,0 -0.0625,0.062504 -0.0625,0.062504 z"
     id="path47" />
  <path
     style="fill:none;stroke:#000000;stroke-width:0.500031px;stroke-linecap:round;stroke-linejoin:round;stroke-miterlimit:4;stroke-dasharray:none;stroke-opacity:1"
     d="m 34.252157,7.7504882 c -0.0625,0 -0.0625,-0.062504 -0.0625,-0.062504 0,0 0,-6.6879212 0,-6.6879212 0,0 0,-0.062504 0.0625,-0.062504 0,0 1.000063,0 1.000063,0 0,0 0.0625,0.062504 0.0625,0.062504 0,0 0,6.6879212 0,6.6879212 0,0 -0.0625,0.062504 -0.0625,0.062504 0,0 -1.000063,0 -1.000063,0"
     id="path48" />
  <path
     style="fill:#ffffff;fill-opacity:1;fill-rule:evenodd;stroke:none"
     d="m 33.127086,7.7504882 c -0.0625,0 -0.0625,-0.062504 -0.0625,-0.062504 0,0 0,-6.6879212 0,-6.6879212 0,0 0,-0.062504 0.0625,-0.062504 0,0 1.000063,0 1.000063,0 0.0625,0 0.0625,0.062504 0.0625,0.062504 0,0 0,6.6879212 0,6.6879212 0,0 0,0.062504 -0.0625,0.062504 z"
     id="path49" />
  <path
     style="fill:none;stroke:#000000;stroke-width:0.500031px;stroke-linecap:round;stroke-linejoin:round;stroke-miterlimit:4;stroke-dasharray:none;stroke-opacity:1"
     d="m 33.127086,7.7504882 c -0.0625,0 -0.0625,-0.062504 -0.0625,-0.062504 0,0 0,-6.6879212 0,-6.6879212 0,0 0,-0.062504 0.0625,-0.062504 0,0 1.000063,0 1.000063,0 0.0625,0 0.0625,0.062504 0.0625,0.062504 0,0 0,6.6879212 0,6.6879212 0,0 0,0.062504 -0.0625,0.062504 0,0 -1.000063,0 -1.000063,0"
     id="path50" />
  <path
     style="fill:#ffffff;fill-opacity:1;fill-rule:evenodd;stroke:none"
     d="m 32.002016,7.7504882 c 0,0 -0.0625,-0.062504 -0.0625,-0.062504 0,0 0,-6.6879212 0,-6.6879212 0,0 0.0625,-0.062504 0.0625,-0.062504 0,0 1.000063,0 1.000063,0 0.0625,0 0.0625,0.062504 0.0625,0.062504 0,0 0,6.6879212 0,6.6879212 0,0 0,0.062504 -0.0625,0.062504 z"
     id="path51" />
  <path
     style="fill:none;stroke:#000000;stroke-width:0.500031px;stroke-linecap:round;stroke-linejoin:round;stroke-miterlimit:4;stroke-dasharray:none;stroke-opacity:1"
     d="m 32.002016,7.7504882 c 0,0 -0.0625,-0.062504 -0.0625,-0.062504 0,0 0,-6.6879212 0,-6.6879212 0,0 0.0625,-0.062504 0.0625,-0.062504 0,0 1.000063,0 1.000063,0 0.0625,0 0.0625,0.062504 0.0625,0.062504 0,0 0,6.6879212 0,6.6879212 0,0 0,0.062504 -0.0625,0.062504 0,0 -1.000063,0 -1.000063,0"
     id="path52" />
  <path
     style="fill:#ffffff;fill-opacity:1;fill-rule:evenodd;stroke:none"
     d="m 30.876945,7.7504882 c 0,0 -0.0625,-0.062504 -0.0625,-0.062504 0,0 0,-6.6879212 0,-6.6879212 0,0 0.0625,-0.062504 0.0625,-0.062504 0,0 1.000063,0 1.000063,0 0.0625,0 0.0625,0.062504 0.0625,0.062504 0,0 0,6.6879212 0,6.6879212 0,0 0,0.062504 -0.0625,0.062504 z"
     id="path53" />
  <path
     style="fill:none;stroke:#000000;stroke-width:0.500031px;stroke-linecap:round;stroke-linejoin:round;stroke-miterlimit:4;stroke-dasharray:none;stroke-opacity:1"
     d="m 30.876945,7.7504882 c 0,0 -0.0625,-0.062504 -0.0625,-0.062504 0,0 0,-6.6879212 0,-6.6879212 0,0 0.0625,-0.062504 0.0625,-0.062504 0,0 1.000063,0 1.000063,0 0.0625,0 0.0625,0.062504 0.0625,0.062504 0,0 0,6.6879212 0,6.6879212 0,0 0,0.062504 -0.0625,0.062504 0,0 -1.000063,0 -1.000063,0"
     id="path54" />
  <path
     style="fill:#ffffff;fill-opacity:1;fill-rule:evenodd;stroke:none"
     d="m 29.814378,7.7504882 c -0.0625,0 -0.0625,-0.062504 -0.0625,-0.062504 0,0 0,-6.6879212 0,-6.6879212 0,0 0,-0.062504 0.0625,-0.062504 0,0 1.000063,0 1.000063,0 0,0 0,0.062504 0,0.062504 0,0 0,6.6879212 0,6.6879212 0,0 0,0.062504 0,0.062504 z"
     id="path55" />
  <path
     style="fill:none;stroke:#000000;stroke-width:0.500031px;stroke-linecap:round;stroke-linejoin:round;stroke-miterlimit:4;stroke-dasharray:none;stroke-opacity:1"
     d="m 29.814378,7.7504882 c -0.0625,0 -0.0625,-0.062504 -0.0625,-0.062504 0,0 0,-6.6879212 0,-6.6879212 0,0 0,-0.062504 0.0625,-0.062504 0,0 1.000063,0 1.000063,0 0,0 0,0.062504 0,0.062504 0,0 0,6.6879212 0,6.6879212 0,0 0,0.062504 0,0.062504 0,0 -1.000063,0 -1.000063,0"
     id="path56" />
  <path
     style="fill:#ffffff;fill-opacity:1;fill-rule:evenodd;stroke:none"
     d="m 28.689307,7.7504882 c -0.0625,0 -0.0625,-0.062504 -0.0625,-0.062504 0,0 0,-6.6879212 0,-6.6879212 0,0 0,-0.062504 0.0625,-0.062504 0,0 1.000063,0 1.000063,0 0,0 0.0625,0.062504 0.0625,0.062504 0,0 0,6.6879212 0,6.6879212 0,0 -0.0625,0.062504 -0.0625,0.062504 z"
     id="path57" />
  <path
     style="fill:none;stroke:#000000;stroke-width:0.500031px;stroke-linecap:round;stroke-linejoin:round;stroke-miterlimit:4;stroke-dasharray:none;stroke-opacity:1"
     d="m 28.689307,7.7504882 c -0.0625,0 -0.0625,-0.062504 -0.0625,-0.062504 0,0 0,-6.6879212 0,-6.6879212 0,0 0,-0.062504 0.0625,-0.062504 0,0 1.000063,0 1.000063,0 0,0 0.0625,0.062504 0.0625,0.062504 0,0 0,6.6879212 0,6.6879212 0,0 -0.0625,0.062504 -0.0625,0.062504 0,0 -1.000063,0 -1.000063,0"
     id="path58" />
  <path
     style="fill:#ffffff;fill-opacity:1;fill-rule:evenodd;stroke:none"
     d="m 27.564236,7.7504882 c -0.0625,0 -0.0625,-0.062504 -0.0625,-0.062504 0,0 0,-6.6879212 0,-6.6879212 0,0 0,-0.062504 0.0625,-0.062504 0,0 1.000063,0 1.000063,0 0,0 0.0625,0.062504 0.0625,0.062504 0,0 0,6.6879212 0,6.6879212 0,0 -0.0625,0.062504 -0.0625,0.062504 z"
     id="path59" />
  <path
     style="fill:none;stroke:#000000;stroke-width:0.500031px;stroke-linecap:round;stroke-linejoin:round;stroke-miterlimit:4;stroke-dasharray:none;stroke-opacity:1"
     d="m 27.564236,7.7504882 c -0.0625,0 -0.0625,-0.062504 -0.0625,-0.062504 0,0 0,-6.6879212 0,-6.6879212 0,0 0,-0.062504 0.0625,-0.062504 0,0 1.000063,0 1.000063,0 0,0 0.0625,0.062504 0.0625,0.062504 0,0 0,6.6879212 0,6.6879212 0,0 -0.0625,0.062504 -0.0625,0.062504 0,0 -1.000063,0 -1.000063,0"
     id="path60" />
  <path
     style="fill:#ffffff;fill-opacity:1;fill-rule:evenodd;stroke:none"
     d="m 26.439165,7.7504882 c 0,0 -0.0625,-0.062504 -0.0625,-0.062504 0,0 0,-6.6879212 0,-6.6879212 0,0 0.0625,-0.062504 0.0625,-0.062504 0,0 1.000063,0 1.000063,0 0.0625,0 0.0625,0.062504 0.0625,0.062504 0,0 0,6.6879212 0,6.6879212 0,0 0,0.062504 -0.0625,0.062504 z"
     id="path61" />
  <path
     style="fill:none;stroke:#000000;stroke-width:0.500031px;stroke-linecap:round;stroke-linejoin:round;stroke-miterlimit:4;stroke-dasharray:none;stroke-opacity:1"
     d="m 26.439165,7.7504882 c 0,0 -0.0625,-0.062504 -0.0625,-0.062504 0,0 0,-6.6879212 0,-6.6879212 0,0 0.0625,-0.062504 0.0625,-0.062504 0,0 1.000063,0 1.000063,0 0.0625,0 0.0625,0.062504 0.0625,0.062504 0,0 0,6.6879212 0,6.6879212 0,0 0,0.062504 -0.0625,0.062504 0,0 -1.000063,0 -1.000063,0"
     id="path62" />
  <path
     style="fill:#ffffff;fill-opacity:1;fill-rule:evenodd;stroke:none"
     d="m 25.314094,7.7504882 c 0,0 -0.0625,-0.062504 -0.0625,-0.062504 0,0 0,-6.6879212 0,-6.6879212 0,0 0.0625,-0.062504 0.0625,-0.062504 0,0 1.000063,0 1.000063,0 0.0625,0 0.0625,0.062504 0.0625,0.062504 0,0 0,6.6879212 0,6.6879212 0,0 0,0.062504 -0.0625,0.062504 z"
     id="path63" />
  <path
     style="fill:none;stroke:#000000;stroke-width:0.500031px;stroke-linecap:round;stroke-linejoin:round;stroke-miterlimit:4;stroke-dasharray:none;stroke-opacity:1"
     d="m 25.314094,7.7504882 c 0,0 -0.0625,-0.062504 -0.0625,-0.062504 0,0 0,-6.6879212 0,-6.6879212 0,0 0.0625,-0.062504 0.0625,-0.062504 0,0 1.000063,0 1.000063,0 0.0625,0 0.0625,0.062504 0.0625,0.062504 0,0 0,6.6879212 0,6.6879212 0,0 0,0.062504 -0.0625,0.062504 0,0 -1.000063,0 -1.000063,0"
     id="path64" />
  <path
     style="fill:#ffffff;fill-opacity:1;fill-rule:evenodd;stroke:none"
     d="m 24.189023,7.7504882 c 0,0 0,-0.062504 0,-0.062504 0,0 0,-6.6879212 0,-6.6879212 0,0 0,-0.062504 0,-0.062504 0,0 1.062567,0 1.062567,0 0,0 0,0.062504 0,0.062504 0,0 0,6.6879212 0,6.6879212 0,0 0,0.062504 0,0.062504 z"
     id="path65" />
  <path
     style="fill:none;stroke:#000000;stroke-width:0.500031px;stroke-linecap:round;stroke-linejoin:round;stroke-miterlimit:4;stroke-dasharray:none;stroke-opacity:1"
     d="m 24.189023,7.7504882 c 0,0 0,-0.062504 0,-0.062504 0,0 0,-6.6879212 0,-6.6879212 0,0 0,-0.062504 0,-0.062504 0,0 1.062567,0 1.062567,0 0,0 0,0.062504 0,0.062504 0,0 0,6.6879212 0,6.6879212 0,0 0,0.062504 0,0.062504 0,0 -1.062567,0 -1.062567,0"
     id="path66" />
  <path
     style="fill:#ffffff;fill-opacity:1;fill-rule:evenodd;stroke:none"
     d="m 23.126456,7.7504882 c -0.0625,0 -0.0625,-0.062504 -0.0625,-0.062504 0,0 0,-6.6879212 0,-6.6879212 0,0 0,-0.062504 0.0625,-0.062504 0,0 1.000063,0 1.000063,0 0,0 0.0625,0.062504 0.0625,0.062504 0,0 0,6.6879212 0,6.6879212 0,0 -0.0625,0.062504 -0.0625,0.062504 z"
     id="path67" />
  <path
     style="fill:none;stroke:#000000;stroke-width:0.500031px;stroke-linecap:round;stroke-linejoin:round;stroke-miterlimit:4;stroke-dasharray:none;stroke-opacity:1"
     d="m 23.126456,7.7504882 c -0.0625,0 -0.0625,-0.062504 -0.0625,-0.062504 0,0 0,-6.6879212 0,-6.6879212 0,0 0,-0.062504 0.0625,-0.062504 0,0 1.000063,0 1.000063,0 0,0 0.0625,0.062504 0.0625,0.062504 0,0 0,6.6879212 0,6.6879212 0,0 -0.0625,0.062504 -0.0625,0.062504 0,0 -1.000063,0 -1.000063,0"
     id="path68" />
  <path
     style="fill:#ffffff;fill-opacity:1;fill-rule:evenodd;stroke:none"
     d="m 22.001386,7.7504882 c -0.0625,0 -0.0625,-0.062504 -0.0625,-0.062504 0,0 0,-6.6879212 0,-6.6879212 0,0 0,-0.062504 0.0625,-0.062504 0,0 1.000063,0 1.000063,0 0,0 0.0625,0.062504 0.0625,0.062504 0,0 0,6.6879212 0,6.6879212 0,0 -0.0625,0.062504 -0.0625,0.062504 z"
     id="path69" />
  <path
     style="fill:none;stroke:#000000;stroke-width:0.500031px;stroke-linecap:round;stroke-linejoin:round;stroke-miterlimit:4;stroke-dasharray:none;stroke-opacity:1"
     d="m 22.001386,7.7504882 c -0.0625,0 -0.0625,-0.062504 -0.0625,-0.062504 0,0 0,-6.6879212 0,-6.6879212 0,0 0,-0.062504 0.0625,-0.062504 0,0 1.000063,0 1.000063,0 0,0 0.0625,0.062504 0.0625,0.062504 0,0 0,6.6879212 0,6.6879212 0,0 -0.0625,0.062504 -0.0625,0.062504 0,0 -1.000063,0 -1.000063,0"
     id="path70" />
  <path
     style="fill:#ffffff;fill-opacity:1;fill-rule:evenodd;stroke:none"
     d="m 20.876315,7.7504882 c 0,0 -0.0625,-0.062504 -0.0625,-0.062504 0,0 0,-6.6879212 0,-6.6879212 0,0 0.0625,-0.062504 0.0625,-0.062504 0,0 1.000063,0 1.000063,0 0.0625,0 0.0625,0.062504 0.0625,0.062504 0,0 0,6.6879212 0,6.6879212 0,0 0,0.062504 -0.0625,0.062504 z"
     id="path71" />
  <path
     style="fill:none;stroke:#000000;stroke-width:0.500031px;stroke-linecap:round;stroke-linejoin:round;stroke-miterlimit:4;stroke-dasharray:none;stroke-opacity:1"
     d="m 20.876315,7.7504882 c 0,0 -0.0625,-0.062504 -0.0625,-0.062504 0,0 0,-6.6879212 0,-6.6879212 0,0 0.0625,-0.062504 0.0625,-0.062504 0,0 1.000063,0 1.000063,0 0.0625,0 0.0625,0.062504 0.0625,0.062504 0,0 0,6.6879212 0,6.6879212 0,0 0,0.062504 -0.0625,0.062504 0,0 -1.000063,0 -1.000063,0"
     id="path72" />
  <path
     style="fill:#ffffff;fill-opacity:1;fill-rule:evenodd;stroke:none"
     d="m 19.751244,7.7504882 c 0,0 -0.0625,-0.062504 -0.0625,-0.062504 0,0 0,-6.6879212 0,-6.6879212 0,0 0.0625,-0.062504 0.0625,-0.062504 0,0 1.000063,0 1.000063,0 0.0625,0 0.0625,0.062504 0.0625,0.062504 0,0 0,6.6879212 0,6.6879212 0,0 0,0.062504 -0.0625,0.062504 z"
     id="path73" />
  <path
     style="fill:none;stroke:#000000;stroke-width:0.500031px;stroke-linecap:round;stroke-linejoin:round;stroke-miterlimit:4;stroke-dasharray:none;stroke-opacity:1"
     d="m 19.751244,7.7504882 c 0,0 -0.0625,-0.062504 -0.0625,-0.062504 0,0 0,-6.6879212 0,-6.6879212 0,0 0.0625,-0.062504 0.0625,-0.062504 0,0 1.000063,0 1.000063,0 0.0625,0 0.0625,0.062504 0.0625,0.062504 0,0 0,6.6879212 0,6.6879212 0,0 0,0.062504 -0.0625,0.062504 0,0 -1.000063,0 -1.000063,0"
     id="path74" />
  <path
     style="fill:#ffffff;fill-opacity:1;fill-rule:evenodd;stroke:none"
     d="m 18.626173,7.7504882 c 0,0 0,-0.062504 0,-0.062504 0,0 0,-6.6879212 0,-6.6879212 0,0 0,-0.062504 0,-0.062504 0,0 1.000063,0 1.000063,0 0.0625,0 0.0625,0.062504 0.0625,0.062504 0,0 0,6.6879212 0,6.6879212 0,0 0,0.062504 -0.0625,0.062504 z"
     id="path75" />
  <path
     style="fill:none;stroke:#000000;stroke-width:0.500031px;stroke-linecap:round;stroke-linejoin:round;stroke-miterlimit:4;stroke-dasharray:none;stroke-opacity:1"
     d="m 18.626173,7.7504882 c 0,0 0,-0.062504 0,-0.062504 0,0 0,-6.6879212 0,-6.6879212 0,0 0,-0.062504 0,-0.062504 0,0 1.000063,0 1.000063,0 0.0625,0 0.0625,0.062504 0.0625,0.062504 0,0 0,6.6879212 0,6.6879212 0,0 0,0.062504 -0.0625,0.062504 0,0 -1.000063,0 -1.000063,0"
     id="path76" />
  <path
     style="fill:#ffffff;fill-opacity:1;fill-rule:evenodd;stroke:none"
     d="m 17.563606,7.7504882 c -0.0625,0 -0.0625,-0.062504 -0.0625,-0.062504 0,0 0,-6.6879212 0,-6.6879212 0,0 0,-0.062504 0.0625,-0.062504 0,0 1.000063,0 1.000063,0 0,0 0.0625,0.062504 0.0625,0.062504 0,0 0,6.6879212 0,6.6879212 0,0 -0.0625,0.062504 -0.0625,0.062504 z"
     id="path77" />
  <path
     style="fill:none;stroke:#000000;stroke-width:0.500031px;stroke-linecap:round;stroke-linejoin:round;stroke-miterlimit:4;stroke-dasharray:none;stroke-opacity:1"
     d="m 17.563606,7.7504882 c -0.0625,0 -0.0625,-0.062504 -0.0625,-0.062504 0,0 0,-6.6879212 0,-6.6879212 0,0 0,-0.062504 0.0625,-0.062504 0,0 1.000063,0 1.000063,0 0,0 0.0625,0.062504 0.0625,0.062504 0,0 0,6.6879212 0,6.6879212 0,0 -0.0625,0.062504 -0.0625,0.062504 0,0 -1.000063,0 -1.000063,0"
     id="path78" />
  <path
     style="fill:#ffffff;fill-opacity:1;fill-rule:evenodd;stroke:none"
     d="m 16.438535,7.7504882 c -0.0625,0 -0.0625,-0.062504 -0.0625,-0.062504 0,0 0,-6.6879212 0,-6.6879212 0,0 0,-0.062504 0.0625,-0.062504 0,0 1.000063,0 1.000063,0 0,0 0.0625,0.062504 0.0625,0.062504 0,0 0,6.6879212 0,6.6879212 0,0 -0.0625,0.062504 -0.0625,0.062504 z"
     id="path79" />
  <path
     style="fill:none;stroke:#000000;stroke-width:0.500031px;stroke-linecap:round;stroke-linejoin:round;stroke-miterlimit:4;stroke-dasharray:none;stroke-opacity:1"
     d="m 16.438535,7.7504882 c -0.0625,0 -0.0625,-0.062504 -0.0625,-0.062504 0,0 0,-6.6879212 0,-6.6879212 0,0 0,-0.062504 0.0625,-0.062504 0,0 1.000063,0 1.000063,0 0,0 0.0625,0.062504 0.0625,0.062504 0,0 0,6.6879212 0,6.6879212 0,0 -0.0625,0.062504 -0.0625,0.062504 0,0 -1.000063,0 -1.000063,0"
     id="path80" />
  <path
     style="fill:#ffffff;fill-opacity:1;fill-rule:evenodd;stroke:none"
     d="m 15.313464,7.7504882 c -0.0625,0 -0.0625,-0.062504 -0.0625,-0.062504 0,0 0,-6.6879212 0,-6.6879212 0,0 0,-0.062504 0.0625,-0.062504 0,0 1.000063,0 1.000063,0 0.0625,0 0.0625,0.062504 0.0625,0.062504 0,0 0,6.6879212 0,6.6879212 0,0 0,0.062504 -0.0625,0.062504 z"
     id="path81" />
  <path
     style="fill:none;stroke:#000000;stroke-width:0.500031px;stroke-linecap:round;stroke-linejoin:round;stroke-miterlimit:4;stroke-dasharray:none;stroke-opacity:1"
     d="m 15.313464,7.7504882 c -0.0625,0 -0.0625,-0.062504 -0.0625,-0.062504 0,0 0,-6.6879212 0,-6.6879212 0,0 0,-0.062504 0.0625,-0.062504 0,0 1.000063,0 1.000063,0 0.0625,0 0.0625,0.062504 0.0625,0.062504 0,0 0,6.6879212 0,6.6879212 0,0 0,0.062504 -0.0625,0.062504 0,0 -1.000063,0 -1.000063,0"
     id="path82" />
  <path
     style="fill:#ffffff;fill-opacity:1;fill-rule:evenodd;stroke:none"
     d="m 14.188394,7.7504882 c 0,0 -0.0625,-0.062504 -0.0625,-0.062504 0,0 0,-6.6879212 0,-6.6879212 0,0 0.0625,-0.062504 0.0625,-0.062504 0,0 1.000062,0 1.000062,0 0.0625,0 0.0625,0.062504 0.0625,0.062504 0,0 0,6.6879212 0,6.6879212 0,0 0,0.062504 -0.0625,0.062504 z"
     id="path83" />
  <path
     style="fill:none;stroke:#000000;stroke-width:0.500031px;stroke-linecap:round;stroke-linejoin:round;stroke-miterlimit:4;stroke-dasharray:none;stroke-opacity:1"
     d="m 14.188394,7.7504882 c 0,0 -0.0625,-0.062504 -0.0625,-0.062504 0,0 0,-6.6879212 0,-6.6879212 0,0 0.0625,-0.062504 0.0625,-0.062504 0,0 1.000062,0 1.000062,0 0.0625,0 0.0625,0.062504 0.0625,0.062504 0,0 0,6.6879212 0,6.6879212 0,0 0,0.062504 -0.0625,0.062504 0,0 -1.000062,0 -1.000062,0"
     id="path84" />
  <path
     style="fill:#ffffff;fill-opacity:1;fill-rule:evenodd;stroke:none"
     d="m 13.063323,7.7504882 c 0,0 -0.0625,-0.062504 -0.0625,-0.062504 0,0 0,-6.6879212 0,-6.6879212 0,0 0.0625,-0.062504 0.0625,-0.062504 0,0 1.000063,0 1.000063,0 0.0625,0 0.0625,0.062504 0.0625,0.062504 0,0 0,6.6879212 0,6.6879212 0,0 0,0.062504 -0.0625,0.062504 z"
     id="path85" />
  <path
     style="fill:none;stroke:#000000;stroke-width:0.500031px;stroke-linecap:round;stroke-linejoin:round;stroke-miterlimit:4;stroke-dasharray:none;stroke-opacity:1"
     d="m 13.063323,7.7504882 c 0,0 -0.0625,-0.062504 -0.0625,-0.062504 0,0 0,-6.6879212 0,-6.6879212 0,0 0.0625,-0.062504 0.0625,-0.062504 0,0 1.000063,0 1.000063,0 0.0625,0 0.0625,0.062504 0.0625,0.062504 0,0 0,6.6879212 0,6.6879212 0,0 0,0.062504 -0.0625,0.062504 0,0 -1.000063,0 -1.000063,0"
     id="path86" />
  <path
     style="fill:#ffffff;fill-opacity:1;fill-rule:evenodd;stroke:none"
     d="m 11.938252,7.7504882 c 0,0 0,-0.062504 0,-0.062504 0,0 0,-6.6879212 0,-6.6879212 0,0 0,-0.062504 0,-0.062504 0,0 1.062567,0 1.062567,0 0,0 0,0.062504 0,0.062504 0,0 0,6.6879212 0,6.6879212 0,0 0,0.062504 0,0.062504 z"
     id="path87" />
  <path
     style="fill:none;stroke:#000000;stroke-width:0.500031px;stroke-linecap:round;stroke-linejoin:round;stroke-miterlimit:4;stroke-dasharray:none;stroke-opacity:1"
     d="m 11.938252,7.7504882 c 0,0 0,-0.062504 0,-0.062504 0,0 0,-6.6879212 0,-6.6879212 0,0 0,-0.062504 0,-0.062504 0,0 1.062567,0 1.062567,0 0,0 0,0.062504 0,0.062504 0,0 0,6.6879212 0,6.6879212 0,0 0,0.062504 0,0.062504 0,0 -1.062567,0 -1.062567,0"
     id="path88" />
  <path
     style="fill:#ffffff;fill-opacity:1;fill-rule:evenodd;stroke:none"
     d="m 10.875685,7.7504882 c -0.0625,0 -0.0625,-0.062504 -0.0625,-0.062504 0,0 0,-6.6879212 0,-6.6879212 0,0 0,-0.062504 0.0625,-0.062504 0,0 1.000063,0 1.000063,0 0,0 0.0625,0.062504 0.0625,0.062504 0,0 0,6.6879212 0,6.6879212 0,0 -0.0625,0.062504 -0.0625,0.062504 z"
     id="path89" />
  <path
     style="fill:none;stroke:#000000;stroke-width:0.500031px;stroke-linecap:round;stroke-linejoin:round;stroke-miterlimit:4;stroke-dasharray:none;stroke-opacity:1"
     d="m 10.875685,7.7504882 c -0.0625,0 -0.0625,-0.062504 -0.0625,-0.062504 0,0 0,-6.6879212 0,-6.6879212 0,0 0,-0.062504 0.0625,-0.062504 0,0 1.000063,0 1.000063,0 0,0 0.0625,0.062504 0.0625,0.062504 0,0 0,6.6879212 0,6.6879212 0,0 -0.0625,0.062504 -0.0625,0.062504 0,0 -1.000063,0 -1.000063,0"
     id="path90" />
  <path
     style="fill:#ffffff;fill-opacity:1;fill-rule:evenodd;stroke:none"
     d="m 9.7506141,7.7504882 c -0.0625,0 -0.0625,-0.062504 -0.0625,-0.062504 0,0 0,-6.6879212 0,-6.6879212 0,0 0,-0.062504 0.0625,-0.062504 0,0 1.0000629,0 1.0000629,0 0,0 0.0625,0.062504 0.0625,0.062504 0,0 0,6.6879212 0,6.6879212 0,0 -0.0625,0.062504 -0.0625,0.062504 z"
     id="path91" />
  <path
     style="fill:none;stroke:#000000;stroke-width:0.500031px;stroke-linecap:round;stroke-linejoin:round;stroke-miterlimit:4;stroke-dasharray:none;stroke-opacity:1"
     d="m 9.7506141,7.7504882 c -0.0625,0 -0.0625,-0.062504 -0.0625,-0.062504 0,0 0,-6.6879212 0,-6.6879212 0,0 0,-0.062504 0.0625,-0.062504 0,0 1.0000629,0 1.0000629,0 0,0 0.0625,0.062504 0.0625,0.062504 0,0 0,6.6879212 0,6.6879212 0,0 -0.0625,0.062504 -0.0625,0.062504 0,0 -1.0000629,0 -1.0000629,0"
     id="path92" />
  <path
     style="fill:#ffffff;fill-opacity:1;fill-rule:evenodd;stroke:none"
     d="m 8.6255432,7.7504882 c 0,0 -0.062504,-0.062504 -0.062504,-0.062504 0,0 0,-6.6879212 0,-6.6879212 0,0 0.062504,-0.062504 0.062504,-0.062504 0,0 1.0000629,0 1.0000629,0 0.0625,0 0.0625,0.062504 0.0625,0.062504 0,0 0,6.6879212 0,6.6879212 0,0 0,0.062504 -0.0625,0.062504 z"
     id="path93" />
  <path
     style="fill:none;stroke:#000000;stroke-width:0.500031px;stroke-linecap:round;stroke-linejoin:round;stroke-miterlimit:4;stroke-dasharray:none;stroke-opacity:1"
     d="m 8.6255432,7.7504882 c 0,0 -0.062504,-0.062504 -0.062504,-0.062504 0,0 0,-6.6879212 0,-6.6879212 0,0 0.062504,-0.062504 0.062504,-0.062504 0,0 1.0000629,0 1.0000629,0 0.0625,0 0.0625,0.062504 0.0625,0.062504 0,0 0,6.6879212 0,6.6879212 0,0 0,0.062504 -0.0625,0.062504 0,0 -1.0000629,0 -1.0000629,0"
     id="path94" />
  <path
     style="fill:#ffffff;fill-opacity:1;fill-rule:evenodd;stroke:none"
     d="m 7.5004723,7.7504882 c 0,0 -0.062504,-0.062504 -0.062504,-0.062504 0,0 0,-6.6879212 0,-6.6879212 0,0 0.062504,-0.062504 0.062504,-0.062504 0,0 1.000063,0 1.000063,0 0.062504,0 0.062504,0.062504 0.062504,0.062504 0,0 0,6.6879212 0,6.6879212 0,0 0,0.062504 -0.062504,0.062504 z"
     id="path95" />
  <path
     style="fill:none;stroke:#000000;stroke-width:0.500031px;stroke-linecap:round;stroke-linejoin:round;stroke-miterlimit:4;stroke-dasharray:none;stroke-opacity:1"
     d="m 7.5004723,7.7504882 c 0,0 -0.062504,-0.062504 -0.062504,-0.062504 0,0 0,-6.6879212 0,-6.6879212 0,0 0.062504,-0.062504 0.062504,-0.062504 0,0 1.000063,0 1.000063,0 0.062504,0 0.062504,0.062504 0.062504,0.062504 0,0 0,6.6879212 0,6.6879212 0,0 0,0.062504 -0.062504,0.062504 0,0 -1.000063,0 -1.000063,0"
     id="path96" />
  <path
     style="fill:#ffffff;fill-opacity:1;fill-rule:evenodd;stroke:none"
     d="m 6.3754015,7.7504882 c 0,0 0,-0.062504 0,-0.062504 0,0 0,-6.6879212 0,-6.6879212 0,0 0,-0.062504 0,-0.062504 0,0 1.0625669,0 1.0625669,0 0,0 0,0.062504 0,0.062504 0,0 0,6.6879212 0,6.6879212 0,0 0,0.062504 0,0.062504 z"
     id="path97" />
  <path
     style="fill:none;stroke:#000000;stroke-width:0.500031px;stroke-linecap:round;stroke-linejoin:round;stroke-miterlimit:4;stroke-dasharray:none;stroke-opacity:1"
     d="m 6.3754015,7.7504882 c 0,0 0,-0.062504 0,-0.062504 0,0 0,-6.6879212 0,-6.6879212 0,0 0,-0.062504 0,-0.062504 0,0 1.0625669,0 1.0625669,0 0,0 0,0.062504 0,0.062504 0,0 0,6.6879212 0,6.6879212 0,0 0,0.062504 0,0.062504 0,0 -1.0625669,0 -1.0625669,0"
     id="path98" />
  <path
     style="fill:#ffffff;fill-opacity:1;fill-rule:evenodd;stroke:none"
     d="m 5.3128345,7.7504882 c -0.062504,0 -0.062504,-0.062504 -0.062504,-0.062504 0,0 0,-6.6879212 0,-6.6879212 0,0 0,-0.062504 0.062504,-0.062504 0,0 1.000063,0 1.000063,0 0,0 0.062504,0.062504 0.062504,0.062504 0,0 0,6.6879212 0,6.6879212 0,0 -0.062504,0.062504 -0.062504,0.062504 z"
     id="path99" />
  <path
     style="fill:none;stroke:#000000;stroke-width:0.500031px;stroke-linecap:round;stroke-linejoin:round;stroke-miterlimit:4;stroke-dasharray:none;stroke-opacity:1"
     d="m 5.3128345,7.7504882 c -0.062504,0 -0.062504,-0.062504 -0.062504,-0.062504 0,0 0,-6.6879212 0,-6.6879212 0,0 0,-0.062504 0.062504,-0.062504 0,0 1.000063,0 1.000063,0 0,0 0.062504,0.062504 0.062504,0.062504 0,0 0,6.6879212 0,6.6879212 0,0 -0.062504,0.062504 -0.062504,0.062504 0,0 -1.000063,0 -1.000063,0"
     id="path100" />
  <path
     style="fill:#ffffff;fill-opacity:1;fill-rule:evenodd;stroke:none"
     d="m 4.1877637,7.7504882 c -0.062504,0 -0.062504,-0.062504 -0.062504,-0.062504 0,0 0,-6.6879212 0,-6.6879212 0,0 0,-0.062504 0.062504,-0.062504 0,0 1.000063,0 1.000063,0 0,0 0.062504,0.062504 0.062504,0.062504 0,0 0,6.6879212 0,6.6879212 0,0 -0.062504,0.062504 -0.062504,0.062504 z"
     id="path101" />
  <path
     style="fill:none;stroke:#000000;stroke-width:0.500031px;stroke-linecap:round;stroke-linejoin:round;stroke-miterlimit:4;stroke-dasharray:none;stroke-opacity:1"
     d="m 4.1877637,7.7504882 c -0.062504,0 -0.062504,-0.062504 -0.062504,-0.062504 0,0 0,-6.6879212 0,-6.6879212 0,0 0,-0.062504 0.062504,-0.062504 0,0 1.000063,0 1.000063,0 0,0 0.062504,0.062504 0.062504,0.062504 0,0 0,6.6879212 0,6.6879212 0,0 -0.062504,0.062504 -0.062504,0.062504 0,0 -1.000063,0 -1.000063,0"
     id="path102" />
  <path
     style="fill:#ffffff;fill-opacity:1;fill-rule:evenodd;stroke:none"
     d="m 3.0626928,7.7504882 c -0.062504,0 -0.062504,-0.062504 -0.062504,-0.062504 0,0 0,-6.6879212 0,-6.6879212 0,0 0,-0.062504 0.062504,-0.062504 0,0 1.000063,0 1.000063,0 0.062504,0 0.062504,0.062504 0.062504,0.062504 0,0 0,6.6879212 0,6.6879212 0,0 0,0.062504 -0.062504,0.062504 z"
     id="path103" />
  <path
     style="fill:none;stroke:#000000;stroke-width:0.500031px;stroke-linecap:round;stroke-linejoin:round;stroke-miterlimit:4;stroke-dasharray:none;stroke-opacity:1"
     d="m 3.0626928,7.7504882 c -0.062504,0 -0.062504,-0.062504 -0.062504,-0.062504 0,0 0,-6.6879212 0,-6.6879212 0,0 0,-0.062504 0.062504,-0.062504 0,0 1.000063,0 1.000063,0 0.062504,0 0.062504,0.062504 0.062504,0.062504 0,0 0,6.6879212 0,6.6879212 0,0 0,0.062504 -0.062504,0.062504 0,0 -1.000063,0 -1.000063,0"
     id="path104" />
  <path
     style="fill:#ffffff;fill-opacity:1;fill-rule:evenodd;stroke:none"
     d="m 1.937622,7.7504882 c 0,0 -0.062504,-0.062504 -0.062504,-0.062504 0,0 0,-6.6879212 0,-6.6879212 0,0 0.062504,-0.062504 0.062504,-0.062504 0,0 1.0000629,0 1.0000629,0 0.062504,0 0.062504,0.062504 0.062504,0.062504 0,0 0,6.6879212 0,6.6879212 0,0 0,0.062504 -0.062504,0.062504 z"
     id="path105" />
  <path
     style="fill:none;stroke:#000000;stroke-width:0.500031px;stroke-linecap:round;stroke-linejoin:round;stroke-miterlimit:4;stroke-dasharray:none;stroke-opacity:1"
     d="m 1.937622,7.7504882 c 0,0 -0.062504,-0.062504 -0.062504,-0.062504 0,0 0,-6.6879212 0,-6.6879212 0,0 0.062504,-0.062504 0.062504,-0.062504 0,0 1.0000629,0 1.0000629,0 0.062504,0 0.062504,0.062504 0.062504,0.062504 0,0 0,6.6879212 0,6.6879212 0,0 0,0.062504 -0.062504,0.062504 0,0 -1.0000629,0 -1.0000629,0"
     id="path106" />
  <path
     style="fill:#ffffff;fill-opacity:1;fill-rule:evenodd;stroke:none"
     d="m 58.316173,7.1879527 c -0.0625,0 -0.0625,-0.062504 -0.0625,-0.1250078 0,0 0,-3.6252284 0,-3.6252284 0,-0.062504 0,-0.1250079 0.0625,-0.1250079 0,0 0.500032,0 0.500032,0 0,0 0.0625,0.062504 0.0625,0.1250079 0,0 0,3.6252284 0,3.6252284 0,0.062504 -0.0625,0.1250078 -0.0625,0.1250078 z"
     id="path107" />
  <path
     style="fill:none;stroke:#000000;stroke-width:0.500031px;stroke-linecap:round;stroke-linejoin:round;stroke-miterlimit:4;stroke-dasharray:none;stroke-opacity:1"
     d="m 58.316173,7.1879527 c -0.0625,0 -0.0625,-0.062504 -0.0625,-0.1250078 0,0 0,-3.6252284 0,-3.6252284 0,-0.062504 0,-0.1250079 0.0625,-0.1250079 0,0 0.500032,0 0.500032,0 0,0 0.0625,0.062504 0.0625,0.1250079 0,0 0,3.6252284 0,3.6252284 0,0.062504 -0.0625,0.1250078 -0.0625,0.1250078 0,0 -0.500032,0 -0.500032,0"
     id="path108" />
  <path
     style="fill:#ffffff;fill-opacity:1;fill-rule:evenodd;stroke:none"
     d="m 56.378551,7.1879527 c -0.0625,0 -0.125008,-0.062504 -0.125008,-0.1250078 0,0 0,-3.6252284 0,-3.6252284 0,-0.062504 0.0625,-0.1250079 0.125008,-0.1250079 0,0 0.437528,0 0.437528,0 0.0625,0 0.0625,0.062504 0.0625,0.1250079 0,0 0,3.6252284 0,3.6252284 0,0.062504 0,0.1250078 -0.0625,0.1250078 z"
     id="path109" />
  <path
     style="fill:none;stroke:#000000;stroke-width:0.500031px;stroke-linecap:round;stroke-linejoin:round;stroke-miterlimit:4;stroke-dasharray:none;stroke-opacity:1"
     d="m 56.378551,7.1879527 c -0.0625,0 -0.125008,-0.062504 -0.125008,-0.1250078 0,0 0,-3.6252284 0,-3.6252284 0,-0.062504 0.0625,-0.1250079 0.125008,-0.1250079 0,0 0.437528,0 0.437528,0 0.0625,0 0.0625,0.062504 0.0625,0.1250079 0,0 0,3.6252284 0,3.6252284 0,0.062504 0,0.1250078 -0.0625,0.1250078 0,0 -0.437528,0 -0.437528,0"
     id="path110" />
  <path
     style="fill:#ffffff;fill-opacity:1;fill-rule:evenodd;stroke:none"
     d="m 55.003464,7.1879527 c -0.0625,0 -0.0625,-0.062504 -0.0625,-0.1250078 0,0 0,-3.6252284 0,-3.6252284 0,-0.062504 0,-0.1250079 0.0625,-0.1250079 0,0 0.500032,0 0.500032,0 0,0 0.0625,0.062504 0.0625,0.1250079 0,0 0,3.6252284 0,3.6252284 0,0.062504 -0.0625,0.1250078 -0.0625,0.1250078 z"
     id="path111" />
  <path
     style="fill:none;stroke:#000000;stroke-width:0.500031px;stroke-linecap:round;stroke-linejoin:round;stroke-miterlimit:4;stroke-dasharray:none;stroke-opacity:1"
     d="m 55.003464,7.1879527 c -0.0625,0 -0.0625,-0.062504 -0.0625,-0.1250078 0,0 0,-3.6252284 0,-3.6252284 0,-0.062504 0,-0.1250079 0.0625,-0.1250079 0,0 0.500032,0 0.500032,0 0,0 0.0625,0.062504 0.0625,0.1250079 0,0 0,3.6252284 0,3.6252284 0,0.062504 -0.0625,0.1250078 -0.0625,0.1250078 0,0 -0.500032,0 -0.500032,0"
     id="path112" />
  <path
     style="fill:#ffffff;fill-opacity:1;fill-rule:evenodd;stroke:none"
     d="m 50.565685,7.1879527 c -0.0625,0 -0.0625,-0.062504 -0.0625,-0.1250078 0,0 0,-3.6252284 0,-3.6252284 0,-0.062504 0,-0.1250079 0.0625,-0.1250079 0,0 0.437527,0 0.437527,0 0.0625,0 0.125008,0.062504 0.125008,0.1250079 0,0 0,3.6252284 0,3.6252284 0,0.062504 -0.0625,0.1250078 -0.125008,0.1250078 z"
     id="path113" />
  <path
     style="fill:none;stroke:#000000;stroke-width:0.500031px;stroke-linecap:round;stroke-linejoin:round;stroke-miterlimit:4;stroke-dasharray:none;stroke-opacity:1"
     d="m 50.565685,7.1879527 c -0.0625,0 -0.0625,-0.062504 -0.0625,-0.1250078 0,0 0,-3.6252284 0,-3.6252284 0,-0.062504 0,-0.1250079 0.0625,-0.1250079 0,0 0.437527,0 0.437527,0 0.0625,0 0.125008,0.062504 0.125008,0.1250079 0,0 0,3.6252284 0,3.6252284 0,0.062504 -0.0625,0.1250078 -0.125008,0.1250078 0,0 -0.437527,0 -0.437527,0"
     id="path114" />
  <path
     style="fill:#ffffff;fill-opacity:1;fill-rule:evenodd;stroke:none"
     d="m 48.628063,7.1879527 c -0.0625,0 -0.125008,-0.062504 -0.125008,-0.1250078 0,0 0,-3.6252284 0,-3.6252284 0,-0.062504 0.0625,-0.1250079 0.125008,-0.1250079 0,0 0.437527,0 0.437527,0 0.0625,0 0.0625,0.062504 0.0625,0.1250079 0,0 0,3.6252284 0,3.6252284 0,0.062504 0,0.1250078 -0.0625,0.1250078 z"
     id="path115" />
  <path
     style="fill:none;stroke:#000000;stroke-width:0.500031px;stroke-linecap:round;stroke-linejoin:round;stroke-miterlimit:4;stroke-dasharray:none;stroke-opacity:1"
     d="m 48.628063,7.1879527 c -0.0625,0 -0.125008,-0.062504 -0.125008,-0.1250078 0,0 0,-3.6252284 0,-3.6252284 0,-0.062504 0.0625,-0.1250079 0.125008,-0.1250079 0,0 0.437527,0 0.437527,0 0.0625,0 0.0625,0.062504 0.0625,0.1250079 0,0 0,3.6252284 0,3.6252284 0,0.062504 0,0.1250078 -0.0625,0.1250078 0,0 -0.437527,0 -0.437527,0"
     id="path116" />
  <path
     style="fill:#ffffff;fill-opacity:1;fill-rule:evenodd;stroke:none"
     d="m 47.252976,7.1879527 c -0.0625,0 -0.0625,-0.062504 -0.0625,-0.1250078 0,0 0,-3.6252284 0,-3.6252284 0,-0.062504 0,-0.1250079 0.0625,-0.1250079 0,0 0.500032,0 0.500032,0 0,0 0.0625,0.062504 0.0625,0.1250079 0,0 0,3.6252284 0,3.6252284 0,0.062504 -0.0625,0.1250078 -0.0625,0.1250078 z"
     id="path117" />
  <path
     style="fill:none;stroke:#000000;stroke-width:0.500031px;stroke-linecap:round;stroke-linejoin:round;stroke-miterlimit:4;stroke-dasharray:none;stroke-opacity:1"
     d="m 47.252976,7.1879527 c -0.0625,0 -0.0625,-0.062504 -0.0625,-0.1250078 0,0 0,-3.6252284 0,-3.6252284 0,-0.062504 0,-0.1250079 0.0625,-0.1250079 0,0 0.500032,0 0.500032,0 0,0 0.0625,0.062504 0.0625,0.1250079 0,0 0,3.6252284 0,3.6252284 0,0.062504 -0.0625,0.1250078 -0.0625,0.1250078 0,0 -0.500032,0 -0.500032,0"
     id="path118" />
  <path
     style="fill:#ffffff;fill-opacity:1;fill-rule:evenodd;stroke:none"
     d="m 53.128346,7.1879527 c 0,0 -0.0625,-0.062504 -0.0625,-0.1250078 0,0 0,-3.6252284 0,-3.6252284 0,-0.062504 0.0625,-0.1250079 0.0625,-0.1250079 0,0 0.500032,0 0.500032,0 0,0 0.0625,0.062504 0.0625,0.1250079 0,0 0,3.6252284 0,3.6252284 0,0.062504 -0.0625,0.1250078 -0.0625,0.1250078 z"
     id="path119" />
  <path
     style="fill:none;stroke:#000000;stroke-width:0.500031px;stroke-linecap:round;stroke-linejoin:round;stroke-miterlimit:4;stroke-dasharray:none;stroke-opacity:1"
     d="m 53.128346,7.1879527 c 0,0 -0.0625,-0.062504 -0.0625,-0.1250078 0,0 0,-3.6252284 0,-3.6252284 0,-0.062504 0.0625,-0.1250079 0.0625,-0.1250079 0,0 0.500032,0 0.500032,0 0,0 0.0625,0.062504 0.0625,0.1250079 0,0 0,3.6252284 0,3.6252284 0,0.062504 -0.0625,0.1250078 -0.0625,0.1250078 0,0 -0.500032,0 -0.500032,0"
     id="path120" />
  <path
     style="fill:#ffffff;fill-opacity:1;fill-rule:evenodd;stroke:none"
     d="m 51.815764,7.1879527 c -0.0625,0 -0.0625,-0.062504 -0.0625,-0.1250078 0,0 0,-3.6252284 0,-3.6252284 0,-0.062504 0,-0.1250079 0.0625,-0.1250079 0,0 0.437527,0 0.437527,0 0.0625,0 0.125008,0.062504 0.125008,0.1250079 0,0 0,3.6252284 0,3.6252284 0,0.062504 -0.0625,0.1250078 -0.125008,0.1250078 z"
     id="path121" />
  <path
     style="fill:none;stroke:#000000;stroke-width:0.500031px;stroke-linecap:round;stroke-linejoin:round;stroke-miterlimit:4;stroke-dasharray:none;stroke-opacity:1"
     d="m 51.815764,7.1879527 c -0.0625,0 -0.0625,-0.062504 -0.0625,-0.1250078 0,0 0,-3.6252284 0,-3.6252284 0,-0.062504 0,-0.1250079 0.0625,-0.1250079 0,0 0.437527,0 0.437527,0 0.0625,0 0.125008,0.062504 0.125008,0.1250079 0,0 0,3.6252284 0,3.6252284 0,0.062504 -0.0625,0.1250078 -0.125008,0.1250078 0,0 -0.437527,0 -0.437527,0"
     id="path122" />
  <path
     style="fill:#ffffff;fill-opacity:1;fill-rule:evenodd;stroke:none"
     d="m 42.690189,7.1879527 c 0,0 -0.0625,-0.062504 -0.0625,-0.1250078 0,0 0,-3.6252284 0,-3.6252284 0,-0.062504 0.0625,-0.1250079 0.0625,-0.1250079 0,0 0.500031,0 0.500031,0 0,0 0.0625,0.062504 0.0625,0.1250079 0,0 0,3.6252284 0,3.6252284 0,0.062504 -0.0625,0.1250078 -0.0625,0.1250078 z"
     id="path123" />
  <path
     style="fill:none;stroke:#000000;stroke-width:0.500031px;stroke-linecap:round;stroke-linejoin:round;stroke-miterlimit:4;stroke-dasharray:none;stroke-opacity:1"
     d="m 42.690189,7.1879527 c 0,0 -0.0625,-0.062504 -0.0625,-0.1250078 0,0 0,-3.6252284 0,-3.6252284 0,-0.062504 0.0625,-0.1250079 0.0625,-0.1250079 0,0 0.500031,0 0.500031,0 0,0 0.0625,0.062504 0.0625,0.1250079 0,0 0,3.6252284 0,3.6252284 0,0.062504 -0.0625,0.1250078 -0.0625,0.1250078 0,0 -0.500031,0 -0.500031,0"
     id="path124" />
  <path
     style="fill:#ffffff;fill-opacity:1;fill-rule:evenodd;stroke:none"
     d="m 40.752567,7.1879527 c -0.0625,0 -0.0625,-0.062504 -0.0625,-0.1250078 0,0 0,-3.6252284 0,-3.6252284 0,-0.062504 0,-0.1250079 0.0625,-0.1250079 0,0 0.437527,0 0.437527,0 0.0625,0 0.125008,0.062504 0.125008,0.1250079 0,0 0,3.6252284 0,3.6252284 0,0.062504 -0.0625,0.1250078 -0.125008,0.1250078 z"
     id="path125" />
  <path
     style="fill:none;stroke:#000000;stroke-width:0.500031px;stroke-linecap:round;stroke-linejoin:round;stroke-miterlimit:4;stroke-dasharray:none;stroke-opacity:1"
     d="m 40.752567,7.1879527 c -0.0625,0 -0.0625,-0.062504 -0.0625,-0.1250078 0,0 0,-3.6252284 0,-3.6252284 0,-0.062504 0,-0.1250079 0.0625,-0.1250079 0,0 0.437527,0 0.437527,0 0.0625,0 0.125008,0.062504 0.125008,0.1250079 0,0 0,3.6252284 0,3.6252284 0,0.062504 -0.0625,0.1250078 -0.125008,0.1250078 0,0 -0.437527,0 -0.437527,0"
     id="path126" />
  <path
     style="fill:#ffffff;fill-opacity:1;fill-rule:evenodd;stroke:none"
     d="m 39.37748,7.1879527 c 0,0 -0.0625,-0.062504 -0.0625,-0.1250078 0,0 0,-3.6252284 0,-3.6252284 0,-0.062504 0.0625,-0.1250079 0.0625,-0.1250079 0,0 0.500032,0 0.500032,0 0,0 0.0625,0.062504 0.0625,0.1250079 0,0 0,3.6252284 0,3.6252284 0,0.062504 -0.0625,0.1250078 -0.0625,0.1250078 z"
     id="path127" />
  <path
     style="fill:none;stroke:#000000;stroke-width:0.500031px;stroke-linecap:round;stroke-linejoin:round;stroke-miterlimit:4;stroke-dasharray:none;stroke-opacity:1"
     d="m 39.37748,7.1879527 c 0,0 -0.0625,-0.062504 -0.0625,-0.1250078 0,0 0,-3.6252284 0,-3.6252284 0,-0.062504 0.0625,-0.1250079 0.0625,-0.1250079 0,0 0.500032,0 0.500032,0 0,0 0.0625,0.062504 0.0625,0.1250079 0,0 0,3.6252284 0,3.6252284 0,0.062504 -0.0625,0.1250078 -0.0625,0.1250078 0,0 -0.500032,0 -0.500032,0"
     id="path128" />
  <path
     style="fill:#ffffff;fill-opacity:1;fill-rule:evenodd;stroke:none"
     d="m 45.315354,7.1879527 c -0.0625,0 -0.125008,-0.062504 -0.125008,-0.1250078 0,0 0,-3.6252284 0,-3.6252284 0,-0.062504 0.0625,-0.1250079 0.125008,-0.1250079 0,0 0.437528,0 0.437528,0 0.0625,0 0.0625,0.062504 0.0625,0.1250079 0,0 0,3.6252284 0,3.6252284 0,0.062504 0,0.1250078 -0.0625,0.1250078 z"
     id="path129" />
  <path
     style="fill:none;stroke:#000000;stroke-width:0.500031px;stroke-linecap:round;stroke-linejoin:round;stroke-miterlimit:4;stroke-dasharray:none;stroke-opacity:1"
     d="m 45.315354,7.1879527 c -0.0625,0 -0.125008,-0.062504 -0.125008,-0.1250078 0,0 0,-3.6252284 0,-3.6252284 0,-0.062504 0.0625,-0.1250079 0.125008,-0.1250079 0,0 0.437528,0 0.437528,0 0.0625,0 0.0625,0.062504 0.0625,0.1250079 0,0 0,3.6252284 0,3.6252284 0,0.062504 0,0.1250078 -0.0625,0.1250078 0,0 -0.437528,0 -0.437528,0"
     id="path130" />
  <path
     style="fill:#ffffff;fill-opacity:1;fill-rule:evenodd;stroke:none"
     d="m 43.940268,7.1879527 c -0.0625,0 -0.0625,-0.062504 -0.0625,-0.1250078 0,0 0,-3.6252284 0,-3.6252284 0,-0.062504 0,-0.1250079 0.0625,-0.1250079 0,0 0.500031,0 0.500031,0 0,0 0.0625,0.062504 0.0625,0.1250079 0,0 0,3.6252284 0,3.6252284 0,0.062504 -0.0625,0.1250078 -0.0625,0.1250078 z"
     id="path131" />
  <path
     style="fill:none;stroke:#000000;stroke-width:0.500031px;stroke-linecap:round;stroke-linejoin:round;stroke-miterlimit:4;stroke-dasharray:none;stroke-opacity:1"
     d="m 43.940268,7.1879527 c -0.0625,0 -0.0625,-0.062504 -0.0625,-0.1250078 0,0 0,-3.6252284 0,-3.6252284 0,-0.062504 0,-0.1250079 0.0625,-0.1250079 0,0 0.500031,0 0.500031,0 0,0 0.0625,0.062504 0.0625,0.1250079 0,0 0,3.6252284 0,3.6252284 0,0.062504 -0.0625,0.1250078 -0.0625,0.1250078 0,0 -0.500031,0 -0.500031,0"
     id="path132" />
  <path
     style="fill:#ffffff;fill-opacity:1;fill-rule:evenodd;stroke:none"
     d="m 34.939701,7.1879527 c 0,0 -0.0625,-0.062504 -0.0625,-0.1250078 0,0 0,-3.6252284 0,-3.6252284 0,-0.062504 0.0625,-0.1250079 0.0625,-0.1250079 0,0 0.500031,0 0.500031,0 0,0 0.0625,0.062504 0.0625,0.1250079 0,0 0,3.6252284 0,3.6252284 0,0.062504 -0.0625,0.1250078 -0.0625,0.1250078 z"
     id="path133" />
  <path
     style="fill:none;stroke:#000000;stroke-width:0.500031px;stroke-linecap:round;stroke-linejoin:round;stroke-miterlimit:4;stroke-dasharray:none;stroke-opacity:1"
     d="m 34.939701,7.1879527 c 0,0 -0.0625,-0.062504 -0.0625,-0.1250078 0,0 0,-3.6252284 0,-3.6252284 0,-0.062504 0.0625,-0.1250079 0.0625,-0.1250079 0,0 0.500031,0 0.500031,0 0,0 0.0625,0.062504 0.0625,0.1250079 0,0 0,3.6252284 0,3.6252284 0,0.062504 -0.0625,0.1250078 -0.0625,0.1250078 0,0 -0.500031,0 -0.500031,0"
     id="path134" />
  <path
     style="fill:#ffffff;fill-opacity:1;fill-rule:evenodd;stroke:none"
     d="m 33.002079,7.1879527 c -0.0625,0 -0.0625,-0.062504 -0.0625,-0.1250078 0,0 0,-3.6252284 0,-3.6252284 0,-0.062504 0,-0.1250079 0.0625,-0.1250079 0,0 0.437527,0 0.437527,0 0.0625,0 0.0625,0.062504 0.0625,0.1250079 0,0 0,3.6252284 0,3.6252284 0,0.062504 0,0.1250078 -0.0625,0.1250078 z"
     id="path135" />
  <path
     style="fill:none;stroke:#000000;stroke-width:0.500031px;stroke-linecap:round;stroke-linejoin:round;stroke-miterlimit:4;stroke-dasharray:none;stroke-opacity:1"
     d="m 33.002079,7.1879527 c -0.0625,0 -0.0625,-0.062504 -0.0625,-0.1250078 0,0 0,-3.6252284 0,-3.6252284 0,-0.062504 0,-0.1250079 0.0625,-0.1250079 0,0 0.437527,0 0.437527,0 0.0625,0 0.0625,0.062504 0.0625,0.1250079 0,0 0,3.6252284 0,3.6252284 0,0.062504 0,0.1250078 -0.0625,0.1250078 0,0 -0.437527,0 -0.437527,0"
     id="path136" />
  <path
     style="fill:#ffffff;fill-opacity:1;fill-rule:evenodd;stroke:none"
     d="m 31.626992,7.1879527 c 0,0 -0.0625,-0.062504 -0.0625,-0.1250078 0,0 0,-3.6252284 0,-3.6252284 0,-0.062504 0.0625,-0.1250079 0.0625,-0.1250079 0,0 0.500031,0 0.500031,0 0,0 0.0625,0.062504 0.0625,0.1250079 0,0 0,3.6252284 0,3.6252284 0,0.062504 -0.0625,0.1250078 -0.0625,0.1250078 z"
     id="path137" />
  <path
     style="fill:none;stroke:#000000;stroke-width:0.500031px;stroke-linecap:round;stroke-linejoin:round;stroke-miterlimit:4;stroke-dasharray:none;stroke-opacity:1"
     d="m 31.626992,7.1879527 c 0,0 -0.0625,-0.062504 -0.0625,-0.1250078 0,0 0,-3.6252284 0,-3.6252284 0,-0.062504 0.0625,-0.1250079 0.0625,-0.1250079 0,0 0.500031,0 0.500031,0 0,0 0.0625,0.062504 0.0625,0.1250079 0,0 0,3.6252284 0,3.6252284 0,0.062504 -0.0625,0.1250078 -0.0625,0.1250078 0,0 -0.500031,0 -0.500031,0"
     id="path138" />
  <path
     style="fill:#ffffff;fill-opacity:1;fill-rule:evenodd;stroke:none"
     d="m 37.564866,7.1879527 c -0.0625,0 -0.125008,-0.062504 -0.125008,-0.1250078 0,0 0,-3.6252284 0,-3.6252284 0,-0.062504 0.0625,-0.1250079 0.125008,-0.1250079 0,0 0.437528,0 0.437528,0 0.0625,0 0.0625,0.062504 0.0625,0.1250079 0,0 0,3.6252284 0,3.6252284 0,0.062504 0,0.1250078 -0.0625,0.1250078 z"
     id="path139" />
  <path
     style="fill:none;stroke:#000000;stroke-width:0.500031px;stroke-linecap:round;stroke-linejoin:round;stroke-miterlimit:4;stroke-dasharray:none;stroke-opacity:1"
     d="m 37.564866,7.1879527 c -0.0625,0 -0.125008,-0.062504 -0.125008,-0.1250078 0,0 0,-3.6252284 0,-3.6252284 0,-0.062504 0.0625,-0.1250079 0.125008,-0.1250079 0,0 0.437528,0 0.437528,0 0.0625,0 0.0625,0.062504 0.0625,0.1250079 0,0 0,3.6252284 0,3.6252284 0,0.062504 0,0.1250078 -0.0625,0.1250078 0,0 -0.437528,0 -0.437528,0"
     id="path140" />
  <path
     style="fill:#ffffff;fill-opacity:1;fill-rule:evenodd;stroke:none"
     d="m 36.189779,7.1879527 c -0.0625,0 -0.0625,-0.062504 -0.0625,-0.1250078 0,0 0,-3.6252284 0,-3.6252284 0,-0.062504 0,-0.1250079 0.0625,-0.1250079 0,0 0.500032,0 0.500032,0 0,0 0.0625,0.062504 0.0625,0.1250079 0,0 0,3.6252284 0,3.6252284 0,0.062504 -0.0625,0.1250078 -0.0625,0.1250078 z"
     id="path141" />
  <path
     style="fill:none;stroke:#000000;stroke-width:0.500031px;stroke-linecap:round;stroke-linejoin:round;stroke-miterlimit:4;stroke-dasharray:none;stroke-opacity:1"
     d="m 36.189779,7.1879527 c -0.0625,0 -0.0625,-0.062504 -0.0625,-0.1250078 0,0 0,-3.6252284 0,-3.6252284 0,-0.062504 0,-0.1250079 0.0625,-0.1250079 0,0 0.500032,0 0.500032,0 0,0 0.0625,0.062504 0.0625,0.1250079 0,0 0,3.6252284 0,3.6252284 0,0.062504 -0.0625,0.1250078 -0.0625,0.1250078 0,0 -0.500032,0 -0.500032,0"
     id="path142" />
  <path
     style="fill:#ffffff;fill-opacity:1;fill-rule:evenodd;stroke:none"
     d="m 27.064205,7.1879527 c 0,0 -0.0625,-0.062504 -0.0625,-0.1250078 0,0 0,-3.6252284 0,-3.6252284 0,-0.062504 0.0625,-0.1250079 0.0625,-0.1250079 0,0 0.500031,0 0.500031,0 0.0625,0 0.0625,0.062504 0.0625,0.1250079 0,0 0,3.6252284 0,3.6252284 0,0.062504 0,0.1250078 -0.0625,0.1250078 z"
     id="path143" />
  <path
     style="fill:none;stroke:#000000;stroke-width:0.500031px;stroke-linecap:round;stroke-linejoin:round;stroke-miterlimit:4;stroke-dasharray:none;stroke-opacity:1"
     d="m 27.064205,7.1879527 c 0,0 -0.0625,-0.062504 -0.0625,-0.1250078 0,0 0,-3.6252284 0,-3.6252284 0,-0.062504 0.0625,-0.1250079 0.0625,-0.1250079 0,0 0.500031,0 0.500031,0 0.0625,0 0.0625,0.062504 0.0625,0.1250079 0,0 0,3.6252284 0,3.6252284 0,0.062504 0,0.1250078 -0.0625,0.1250078 0,0 -0.500031,0 -0.500031,0"
     id="path144" />
  <path
     style="fill:#ffffff;fill-opacity:1;fill-rule:evenodd;stroke:none"
     d="m 25.126582,7.1879527 c -0.0625,0 -0.0625,-0.062504 -0.0625,-0.1250078 0,0 0,-3.6252284 0,-3.6252284 0,-0.062504 0,-0.1250079 0.0625,-0.1250079 0,0 0.500032,0 0.500032,0 0,0 0.0625,0.062504 0.0625,0.1250079 0,0 0,3.6252284 0,3.6252284 0,0.062504 -0.0625,0.1250078 -0.0625,0.1250078 z"
     id="path145" />
  <path
     style="fill:none;stroke:#000000;stroke-width:0.500031px;stroke-linecap:round;stroke-linejoin:round;stroke-miterlimit:4;stroke-dasharray:none;stroke-opacity:1"
     d="m 25.126582,7.1879527 c -0.0625,0 -0.0625,-0.062504 -0.0625,-0.1250078 0,0 0,-3.6252284 0,-3.6252284 0,-0.062504 0,-0.1250079 0.0625,-0.1250079 0,0 0.500032,0 0.500032,0 0,0 0.0625,0.062504 0.0625,0.1250079 0,0 0,3.6252284 0,3.6252284 0,0.062504 -0.0625,0.1250078 -0.0625,0.1250078 0,0 -0.500032,0 -0.500032,0"
     id="path146" />
  <path
     style="fill:#ffffff;fill-opacity:1;fill-rule:evenodd;stroke:none"
     d="m 23.814,7.1879527 c -0.0625,0 -0.125008,-0.062504 -0.125008,-0.1250078 0,0 0,-3.6252284 0,-3.6252284 0,-0.062504 0.0625,-0.1250079 0.125008,-0.1250079 0,0 0.437527,0 0.437527,0 0.0625,0 0.0625,0.062504 0.0625,0.1250079 0,0 0,3.6252284 0,3.6252284 0,0.062504 0,0.1250078 -0.0625,0.1250078 z"
     id="path147" />
  <path
     style="fill:none;stroke:#000000;stroke-width:0.500031px;stroke-linecap:round;stroke-linejoin:round;stroke-miterlimit:4;stroke-dasharray:none;stroke-opacity:1"
     d="m 23.814,7.1879527 c -0.0625,0 -0.125008,-0.062504 -0.125008,-0.1250078 0,0 0,-3.6252284 0,-3.6252284 0,-0.062504 0.0625,-0.1250079 0.125008,-0.1250079 0,0 0.437527,0 0.437527,0 0.0625,0 0.0625,0.062504 0.0625,0.1250079 0,0 0,3.6252284 0,3.6252284 0,0.062504 0,0.1250078 -0.0625,0.1250078 0,0 -0.437527,0 -0.437527,0"
     id="path148" />
  <path
     style="fill:#ffffff;fill-opacity:1;fill-rule:evenodd;stroke:none"
     d="m 29.68937,7.1879527 c -0.0625,0 -0.0625,-0.062504 -0.0625,-0.1250078 0,0 0,-3.6252284 0,-3.6252284 0,-0.062504 0,-0.1250079 0.0625,-0.1250079 0,0 0.437527,0 0.437527,0 0.0625,0 0.125008,0.062504 0.125008,0.1250079 0,0 0,3.6252284 0,3.6252284 0,0.062504 -0.0625,0.1250078 -0.125008,0.1250078 z"
     id="path149" />
  <path
     style="fill:none;stroke:#000000;stroke-width:0.500031px;stroke-linecap:round;stroke-linejoin:round;stroke-miterlimit:4;stroke-dasharray:none;stroke-opacity:1"
     d="m 29.68937,7.1879527 c -0.0625,0 -0.0625,-0.062504 -0.0625,-0.1250078 0,0 0,-3.6252284 0,-3.6252284 0,-0.062504 0,-0.1250079 0.0625,-0.1250079 0,0 0.437527,0 0.437527,0 0.0625,0 0.125008,0.062504 0.125008,0.1250079 0,0 0,3.6252284 0,3.6252284 0,0.062504 -0.0625,0.1250078 -0.125008,0.1250078 0,0 -0.437527,0 -0.437527,0"
     id="path150" />
  <path
     style="fill:#ffffff;fill-opacity:1;fill-rule:evenodd;stroke:none"
     d="m 28.314283,7.1879527 c 0,0 -0.0625,-0.062504 -0.0625,-0.1250078 0,0 0,-3.6252284 0,-3.6252284 0,-0.062504 0.0625,-0.1250079 0.0625,-0.1250079 0,0 0.500032,0 0.500032,0 0,0 0.0625,0.062504 0.0625,0.1250079 0,0 0,3.6252284 0,3.6252284 0,0.062504 -0.0625,0.1250078 -0.0625,0.1250078 z"
     id="path151" />
  <path
     style="fill:none;stroke:#000000;stroke-width:0.500031px;stroke-linecap:round;stroke-linejoin:round;stroke-miterlimit:4;stroke-dasharray:none;stroke-opacity:1"
     d="m 28.314283,7.1879527 c 0,0 -0.0625,-0.062504 -0.0625,-0.1250078 0,0 0,-3.6252284 0,-3.6252284 0,-0.062504 0.0625,-0.1250079 0.0625,-0.1250079 0,0 0.500032,0 0.500032,0 0,0 0.0625,0.062504 0.0625,0.1250079 0,0 0,3.6252284 0,3.6252284 0,0.062504 -0.0625,0.1250078 -0.0625,0.1250078 0,0 -0.500032,0 -0.500032,0"
     id="path152" />
  <path
     style="fill:#ffffff;fill-opacity:1;fill-rule:evenodd;stroke:none"
     d="m 19.251212,7.1879527 c -0.0625,0 -0.0625,-0.062504 -0.0625,-0.1250078 0,0 0,-3.6252284 0,-3.6252284 0,-0.062504 0,-0.1250079 0.0625,-0.1250079 0,0 0.437528,0 0.437528,0 0.0625,0 0.0625,0.062504 0.0625,0.1250079 0,0 0,3.6252284 0,3.6252284 0,0.062504 0,0.1250078 -0.0625,0.1250078 z"
     id="path153" />
  <path
     style="fill:none;stroke:#000000;stroke-width:0.500031px;stroke-linecap:round;stroke-linejoin:round;stroke-miterlimit:4;stroke-dasharray:none;stroke-opacity:1"
     d="m 19.251212,7.1879527 c -0.0625,0 -0.0625,-0.062504 -0.0625,-0.1250078 0,0 0,-3.6252284 0,-3.6252284 0,-0.062504 0,-0.1250079 0.0625,-0.1250079 0,0 0.437528,0 0.437528,0 0.0625,0 0.0625,0.062504 0.0625,0.1250079 0,0 0,3.6252284 0,3.6252284 0,0.062504 0,0.1250078 -0.0625,0.1250078 0,0 -0.437528,0 -0.437528,0"
     id="path154" />
  <path
     style="fill:#ffffff;fill-opacity:1;fill-rule:evenodd;stroke:none"
     d="m 17.251086,7.1879527 c 0,0 -0.0625,-0.062504 -0.0625,-0.1250078 0,0 0,-3.6252284 0,-3.6252284 0,-0.062504 0.0625,-0.1250079 0.0625,-0.1250079 0,0 0.500032,0 0.500032,0 0.0625,0 0.0625,0.062504 0.0625,0.1250079 0,0 0,3.6252284 0,3.6252284 0,0.062504 0,0.1250078 -0.0625,0.1250078 z"
     id="path155" />
  <path
     style="fill:none;stroke:#000000;stroke-width:0.500031px;stroke-linecap:round;stroke-linejoin:round;stroke-miterlimit:4;stroke-dasharray:none;stroke-opacity:1"
     d="m 17.251086,7.1879527 c 0,0 -0.0625,-0.062504 -0.0625,-0.1250078 0,0 0,-3.6252284 0,-3.6252284 0,-0.062504 0.0625,-0.1250079 0.0625,-0.1250079 0,0 0.500032,0 0.500032,0 0.0625,0 0.0625,0.062504 0.0625,0.1250079 0,0 0,3.6252284 0,3.6252284 0,0.062504 0,0.1250078 -0.0625,0.1250078 0,0 -0.500032,0 -0.500032,0"
     id="path156" />
  <path
     style="fill:#ffffff;fill-opacity:1;fill-rule:evenodd;stroke:none"
     d="m 15.938504,7.1879527 c -0.0625,0 -0.0625,-0.062504 -0.0625,-0.1250078 0,0 0,-3.6252284 0,-3.6252284 0,-0.062504 0,-0.1250079 0.0625,-0.1250079 0,0 0.437527,0 0.437527,0 0.0625,0 0.125008,0.062504 0.125008,0.1250079 0,0 0,3.6252284 0,3.6252284 0,0.062504 -0.0625,0.1250078 -0.125008,0.1250078 z"
     id="path157" />
  <path
     style="fill:none;stroke:#000000;stroke-width:0.500031px;stroke-linecap:round;stroke-linejoin:round;stroke-miterlimit:4;stroke-dasharray:none;stroke-opacity:1"
     d="m 15.938504,7.1879527 c -0.0625,0 -0.0625,-0.062504 -0.0625,-0.1250078 0,0 0,-3.6252284 0,-3.6252284 0,-0.062504 0,-0.1250079 0.0625,-0.1250079 0,0 0.437527,0 0.437527,0 0.0625,0 0.125008,0.062504 0.125008,0.1250079 0,0 0,3.6252284 0,3.6252284 0,0.062504 -0.0625,0.1250078 -0.125008,0.1250078 0,0 -0.437527,0 -0.437527,0"
     id="path158" />
  <path
     style="fill:#ffffff;fill-opacity:1;fill-rule:evenodd;stroke:none"
     d="m 21.813874,7.1879527 c -0.0625,0 -0.0625,-0.062504 -0.0625,-0.1250078 0,0 0,-3.6252284 0,-3.6252284 0,-0.062504 0,-0.1250079 0.0625,-0.1250079 0,0 0.500031,0 0.500031,0 0,0 0.0625,0.062504 0.0625,0.1250079 0,0 0,3.6252284 0,3.6252284 0,0.062504 -0.0625,0.1250078 -0.0625,0.1250078 z"
     id="path159" />
  <path
     style="fill:none;stroke:#000000;stroke-width:0.500031px;stroke-linecap:round;stroke-linejoin:round;stroke-miterlimit:4;stroke-dasharray:none;stroke-opacity:1"
     d="m 21.813874,7.1879527 c -0.0625,0 -0.0625,-0.062504 -0.0625,-0.1250078 0,0 0,-3.6252284 0,-3.6252284 0,-0.062504 0,-0.1250079 0.0625,-0.1250079 0,0 0.500031,0 0.500031,0 0,0 0.0625,0.062504 0.0625,0.1250079 0,0 0,3.6252284 0,3.6252284 0,0.062504 -0.0625,0.1250078 -0.0625,0.1250078 0,0 -0.500031,0 -0.500031,0"
     id="path160" />
  <path
     style="fill:#ffffff;fill-opacity:1;fill-rule:evenodd;stroke:none"
     d="m 20.501291,7.1879527 c -0.0625,0 -0.125008,-0.062504 -0.125008,-0.1250078 0,0 0,-3.6252284 0,-3.6252284 0,-0.062504 0.0625,-0.1250079 0.125008,-0.1250079 0,0 0.437528,0 0.437528,0 0.0625,0 0.0625,0.062504 0.0625,0.1250079 0,0 0,3.6252284 0,3.6252284 0,0.062504 0,0.1250078 -0.0625,0.1250078 z"
     id="path161" />
  <path
     style="fill:none;stroke:#000000;stroke-width:0.500031px;stroke-linecap:round;stroke-linejoin:round;stroke-miterlimit:4;stroke-dasharray:none;stroke-opacity:1"
     d="m 20.501291,7.1879527 c -0.0625,0 -0.125008,-0.062504 -0.125008,-0.1250078 0,0 0,-3.6252284 0,-3.6252284 0,-0.062504 0.0625,-0.1250079 0.125008,-0.1250079 0,0 0.437528,0 0.437528,0 0.0625,0 0.0625,0.062504 0.0625,0.1250079 0,0 0,3.6252284 0,3.6252284 0,0.062504 0,0.1250078 -0.0625,0.1250078 0,0 -0.437528,0 -0.437528,0"
     id="path162" />
  <path
     style="fill:#ffffff;fill-opacity:1;fill-rule:evenodd;stroke:none"
     d="m 11.375716,7.1879527 c -0.0625,0 -0.0625,-0.062504 -0.0625,-0.1250078 0,0 0,-3.6252284 0,-3.6252284 0,-0.062504 0,-0.1250079 0.0625,-0.1250079 0,0 0.500032,0 0.500032,0 0,0 0.0625,0.062504 0.0625,0.1250079 0,0 0,3.6252284 0,3.6252284 0,0.062504 -0.0625,0.1250078 -0.0625,0.1250078 z"
     id="path163" />
  <path
     style="fill:none;stroke:#000000;stroke-width:0.500031px;stroke-linecap:round;stroke-linejoin:round;stroke-miterlimit:4;stroke-dasharray:none;stroke-opacity:1"
     d="m 11.375716,7.1879527 c -0.0625,0 -0.0625,-0.062504 -0.0625,-0.1250078 0,0 0,-3.6252284 0,-3.6252284 0,-0.062504 0,-0.1250079 0.0625,-0.1250079 0,0 0.500032,0 0.500032,0 0,0 0.0625,0.062504 0.0625,0.1250079 0,0 0,3.6252284 0,3.6252284 0,0.062504 -0.0625,0.1250078 -0.0625,0.1250078 0,0 -0.500032,0 -0.500032,0"
     id="path164" />
  <path
     style="fill:#ffffff;fill-opacity:1;fill-rule:evenodd;stroke:none"
     d="m 9.4380941,7.1879527 c -0.0625,0 -0.125008,-0.062504 -0.125008,-0.1250078 0,0 0,-3.6252284 0,-3.6252284 0,-0.062504 0.0625,-0.1250079 0.125008,-0.1250079 0,0 0.437528,0 0.437528,0 0.0625,0 0.0625,0.062504 0.0625,0.1250079 0,0 0,3.6252284 0,3.6252284 0,0.062504 0,0.1250078 -0.0625,0.1250078 z"
     id="path165" />
  <path
     style="fill:none;stroke:#000000;stroke-width:0.500031px;stroke-linecap:round;stroke-linejoin:round;stroke-miterlimit:4;stroke-dasharray:none;stroke-opacity:1"
     d="m 9.4380941,7.1879527 c -0.0625,0 -0.125008,-0.062504 -0.125008,-0.1250078 0,0 0,-3.6252284 0,-3.6252284 0,-0.062504 0.0625,-0.1250079 0.125008,-0.1250079 0,0 0.437528,0 0.437528,0 0.0625,0 0.0625,0.062504 0.0625,0.1250079 0,0 0,3.6252284 0,3.6252284 0,0.062504 0,0.1250078 -0.0625,0.1250078 0,0 -0.437528,0 -0.437528,0"
     id="path166" />
  <path
     style="fill:#ffffff;fill-opacity:1;fill-rule:evenodd;stroke:none"
     d="m 8.0630078,7.1879527 c -0.062504,0 -0.062504,-0.062504 -0.062504,-0.1250078 0,0 0,-3.6252284 0,-3.6252284 0,-0.062504 0,-0.1250079 0.062504,-0.1250079 0,0 0.5000315,0 0.5000315,0 0,0 0.062504,0.062504 0.062504,0.1250079 0,0 0,3.6252284 0,3.6252284 0,0.062504 -0.062504,0.1250078 -0.062504,0.1250078 z"
     id="path167" />
  <path
     style="fill:none;stroke:#000000;stroke-width:0.500031px;stroke-linecap:round;stroke-linejoin:round;stroke-miterlimit:4;stroke-dasharray:none;stroke-opacity:1"
     d="m 8.0630078,7.1879527 c -0.062504,0 -0.062504,-0.062504 -0.062504,-0.1250078 0,0 0,-3.6252284 0,-3.6252284 0,-0.062504 0,-0.1250079 0.062504,-0.1250079 0,0 0.5000315,0 0.5000315,0 0,0 0.062504,0.062504 0.062504,0.1250079 0,0 0,3.6252284 0,3.6252284 0,0.062504 -0.062504,0.1250078 -0.062504,0.1250078 0,0 -0.5000315,0 -0.5000315,0"
     id="path168" />
  <path
     style="fill:#ffffff;fill-opacity:1;fill-rule:evenodd;stroke:none"
     d="m 13.938378,7.1879527 c 0,0 -0.0625,-0.062504 -0.0625,-0.1250078 0,0 0,-3.6252284 0,-3.6252284 0,-0.062504 0.0625,-0.1250079 0.0625,-0.1250079 0,0 0.500031,0 0.500031,0 0.0625,0 0.0625,0.062504 0.0625,0.1250079 0,0 0,3.6252284 0,3.6252284 0,0.062504 0,0.1250078 -0.0625,0.1250078 z"
     id="path169" />
  <path
     style="fill:none;stroke:#000000;stroke-width:0.500031px;stroke-linecap:round;stroke-linejoin:round;stroke-miterlimit:4;stroke-dasharray:none;stroke-opacity:1"
     d="m 13.938378,7.1879527 c 0,0 -0.0625,-0.062504 -0.0625,-0.1250078 0,0 0,-3.6252284 0,-3.6252284 0,-0.062504 0.0625,-0.1250079 0.0625,-0.1250079 0,0 0.500031,0 0.500031,0 0.0625,0 0.0625,0.062504 0.0625,0.1250079 0,0 0,3.6252284 0,3.6252284 0,0.062504 0,0.1250078 -0.0625,0.1250078 0,0 -0.500031,0 -0.500031,0"
     id="path170" />
  <path
     style="fill:#ffffff;fill-opacity:1;fill-rule:evenodd;stroke:none"
     d="m 12.625795,7.1879527 c -0.0625,0 -0.0625,-0.062504 -0.0625,-0.1250078 0,0 0,-3.6252284 0,-3.6252284 0,-0.062504 0,-0.1250079 0.0625,-0.1250079 0,0 0.437528,0 0.437528,0 0.0625,0 0.125008,0.062504 0.125008,0.1250079 0,0 0,3.6252284 0,3.6252284 0,0.062504 -0.0625,0.1250078 -0.125008,0.1250078 z"
     id="path171" />
  <path
     style="fill:none;stroke:#000000;stroke-width:0.500031px;stroke-linecap:round;stroke-linejoin:round;stroke-miterlimit:4;stroke-dasharray:none;stroke-opacity:1"
     d="m 12.625795,7.1879527 c -0.0625,0 -0.0625,-0.062504 -0.0625,-0.1250078 0,0 0,-3.6252284 0,-3.6252284 0,-0.062504 0,-0.1250079 0.0625,-0.1250079 0,0 0.437528,0 0.437528,0 0.0625,0 0.125008,0.062504 0.125008,0.1250079 0,0 0,3.6252284 0,3.6252284 0,0.062504 -0.0625,0.1250078 -0.125008,0.1250078 0,0 -0.437528,0 -0.437528,0"
     id="path172" />
  <path
     style="fill:#ffffff;fill-opacity:1;fill-rule:evenodd;stroke:none"
     d="m 3.7502361,7.1879527 c -0.062504,0 -0.1250079,-0.062504 -0.1250079,-0.1250078 0,0 0,-3.6252284 0,-3.6252284 0,-0.062504 0.062504,-0.1250079 0.1250079,-0.1250079 0,0 0.4375276,0 0.4375276,0 0.062504,0 0.062504,0.062504 0.062504,0.1250079 0,0 0,3.6252284 0,3.6252284 0,0.062504 0,0.1250078 -0.062504,0.1250078 z"
     id="path173" />
  <path
     style="fill:none;stroke:#000000;stroke-width:0.500031px;stroke-linecap:round;stroke-linejoin:round;stroke-miterlimit:4;stroke-dasharray:none;stroke-opacity:1"
     d="m 3.7502361,7.1879527 c -0.062504,0 -0.1250079,-0.062504 -0.1250079,-0.1250078 0,0 0,-3.6252284 0,-3.6252284 0,-0.062504 0.062504,-0.1250079 0.1250079,-0.1250079 0,0 0.4375276,0 0.4375276,0 0.062504,0 0.062504,0.062504 0.062504,0.1250079 0,0 0,3.6252284 0,3.6252284 0,0.062504 0,0.1250078 -0.062504,0.1250078 0,0 -0.4375276,0 -0.4375276,0"
     id="path174" />
  <path
     style="fill:#ffffff;fill-opacity:1;fill-rule:evenodd;stroke:none"
     d="m 6.3128975,7.1879527 c -0.062504,0 -0.062504,-0.062504 -0.062504,-0.1250078 0,0 0,-3.6252284 0,-3.6252284 0,-0.062504 0,-0.1250079 0.062504,-0.1250079 0,0 0.4375276,0 0.4375276,0 0.062504,0 0.1250079,0.062504 0.1250079,0.1250079 0,0 0,3.6252284 0,3.6252284 0,0.062504 -0.062504,0.1250078 -0.1250079,0.1250078 z"
     id="path175" />
  <path
     style="fill:none;stroke:#000000;stroke-width:0.500031px;stroke-linecap:round;stroke-linejoin:round;stroke-miterlimit:4;stroke-dasharray:none;stroke-opacity:1"
     d="m 6.3128975,7.1879527 c -0.062504,0 -0.062504,-0.062504 -0.062504,-0.1250078 0,0 0,-3.6252284 0,-3.6252284 0,-0.062504 0,-0.1250079 0.062504,-0.1250079 0,0 0.4375276,0 0.4375276,0 0.062504,0 0.1250079,0.062504 0.1250079,0.1250079 0,0 0,3.6252284 0,3.6252284 0,0.062504 -0.062504,0.1250078 -0.1250079,0.1250078 0,0 -0.4375276,0 -0.4375276,0"
     id="path176" />
  <path
     style="fill:#ffffff;fill-opacity:1;fill-rule:evenodd;stroke:none"
     d="m 4.9378109,7.1879527 c 0,0 -0.062504,-0.062504 -0.062504,-0.1250078 0,0 0,-3.6252284 0,-3.6252284 0,-0.062504 0.062504,-0.1250079 0.062504,-0.1250079 0,0 0.5000315,0 0.5000315,0 0.062504,0 0.062504,0.062504 0.062504,0.1250079 0,0 0,3.6252284 0,3.6252284 0,0.062504 0,0.1250078 -0.062504,0.1250078 z"
     id="path177" />
  <path
     style="fill:none;stroke:#000000;stroke-width:0.500031px;stroke-linecap:round;stroke-linejoin:round;stroke-miterlimit:4;stroke-dasharray:none;stroke-opacity:1"
     d="m 4.9378109,7.1879527 c 0,0 -0.062504,-0.062504 -0.062504,-0.1250078 0,0 0,-3.6252284 0,-3.6252284 0,-0.062504 0.062504,-0.1250079 0.062504,-0.1250079 0,0 0.5000315,0 0.5000315,0 0.062504,0 0.062504,0.062504 0.062504,0.1250079 0,0 0,3.6252284 0,3.6252284 0,0.062504 0,0.1250078 -0.062504,0.1250078 0,0 -0.5000315,0 -0.5000315,0"
     id="path178" />
  <path
     style="fill:#ffffff;fill-opacity:1;fill-rule:evenodd;stroke:none"
     d="m 59.816268,8.9380633 c 0,0 -57.94115,0 -57.94115,0 0,0 0,-2.6251657 0,-2.6251657 0,0 57.94115,0 57.94115,0 z"
     id="path179" />
  <path
     style="fill:none;stroke:#000000;stroke-width:0.500031px;stroke-linecap:round;stroke-linejoin:round;stroke-miterlimit:4;stroke-dasharray:none;stroke-opacity:1"
     d="m 59.816268,8.9380633 c 0,0 -57.94115,0 -57.94115,0 0,0 0,-2.6251657 0,-2.6251657 0,0 57.94115,0 57.94115,0 0,0 0,2.6251657 0,2.6251657"
     id="path180" />
  <path
     style="fill:#ffffff;fill-opacity:1;fill-rule:evenodd;stroke:none"
     d="m 59.753764,0.93755904 c 0,0 -57.878646,0 -57.878646,0 0,0 0,-0.6875433 0,-0.6875433 0,0 57.878646,0 57.878646,0 z"
     id="path181" />
  <path
     style="fill:none;stroke:#000000;stroke-width:0.500031px;stroke-linecap:round;stroke-linejoin:round;stroke-miterlimit:4;stroke-dasharray:none;stroke-opacity:1"
     d="m 59.753764,0.93755904 c 0,0 -57.878646,0 -57.878646,0 0,0 0,-0.6875433 0,-0.6875433 0,0 57.878646,0 57.878646,0 0,0 0,0.6875433 0,0.6875433"
     id="path182" />
  <path
     style="fill:#ffffff;fill-opacity:1;fill-rule:evenodd;stroke:none"
     d="m 59.816268,0.25001574 c 0,0.1875118 -0.437528,0.3750236 -1.000063,0.3750236 z"
     id="path183" />
  <path
     style="fill:none;stroke:#000000;stroke-width:0.500031px;stroke-linecap:round;stroke-linejoin:round;stroke-miterlimit:4;stroke-dasharray:none;stroke-opacity:1"
     d="m 59.816268,0.25001574 c 0,0.1875118 -0.437528,0.3750236 -1.000063,0.3750236"
     id="path184" />
  <path
     style="fill:none;stroke:#000000;stroke-width:0.500031px;stroke-linecap:round;stroke-linejoin:round;stroke-miterlimit:4;stroke-dasharray:none;stroke-opacity:1"
     d="m 58.816205,0.62503934 c 0,0 -55.8785201,0 -55.8785201,0"
     id="path185" />
  <path
     style="fill:#ffffff;fill-opacity:1;fill-rule:evenodd;stroke:none"
     d="m 2.9376849,0.62503934 c -0.5625354,0 -1.0625669,-0.1875118 -1.0625669,-0.3750236 z"
     id="path186" />
  <path
     style="fill:none;stroke:#000000;stroke-width:0.500031px;stroke-linecap:round;stroke-linejoin:round;stroke-miterlimit:4;stroke-dasharray:none;stroke-opacity:1"
     d="m 2.9376849,0.62503934 c -0.5625354,0 -1.0625669,-0.1875118 -1.0625669,-0.3750236"
     id="path187" />
  <path
     style="fill:#ffffff;fill-opacity:1;fill-rule:evenodd;stroke:none"
     d="m 53.81589,8.9380633 c 0,0 -48.6280633,0 -48.6280633,0 0,0 0,-1.2500791 0,-1.2500791 0,0 48.6280633,0 48.6280633,0 z"
     id="path188" />
  <path
     style="fill:none;stroke:#000000;stroke-width:0.500031px;stroke-linecap:round;stroke-linejoin:round;stroke-miterlimit:4;stroke-dasharray:none;stroke-opacity:1"
     d="m 53.81589,8.9380633 c 0,0 -48.6280633,0 -48.6280633,0 0,0 0,-1.2500791 0,-1.2500791 0,0 48.6280633,0 48.6280633,0 0,0 0,1.2500791 0,1.2500791"
     id="path189" />
  <path
     style="fill:#ffffff;fill-opacity:1;fill-rule:evenodd;stroke:none"
     d="m 30.251905,8.1255118 c 0,0 -15.938504,0 -15.938504,0 0,0 0.812552,2.5626612 1.750111,2.6251652 3.000189,0.250016 10.750677,0.250016 14.188393,0.250016 z"
     id="path190" />
  <path
     style="fill:none;stroke:#000000;stroke-width:0.500031px;stroke-linecap:round;stroke-linejoin:round;stroke-miterlimit:4;stroke-dasharray:none;stroke-opacity:1"
     d="m 30.251905,8.1255118 c 0,0 -15.938504,0 -15.938504,0 0,0 0.812552,2.5626612 1.750111,2.6251652 3.000189,0.250016 10.750677,0.250016 14.188393,0.250016"
     id="path191" />
  <path
     style="fill:#ffffff;fill-opacity:1;fill-rule:evenodd;stroke:none"
     d="m 30.251905,8.1255118 c 0,0 15.876,0 15.876,0 0,0 -0.812551,2.5626612 -1.75011,2.6251652 -3.000189,0.250016 -10.750677,0.250016 -14.12589,0.250016 z"
     id="path192" />
  <path
     style="fill:none;stroke:#000000;stroke-width:0.500031px;stroke-linecap:round;stroke-linejoin:round;stroke-miterlimit:4;stroke-dasharray:none;stroke-opacity:1"
     d="m 30.251905,8.1255118 c 0,0 15.876,0 15.876,0 0,0 -0.812551,2.5626612 -1.75011,2.6251652 -3.000189,0.250016 -10.750677,0.250016 -14.12589,0.250016"
     id="path193" />
  <path
     style="fill:#ffffff;fill-opacity:1;fill-rule:evenodd;stroke:none"
     d="m 16.813559,7.2504567 c 0,0 -0.437528,0 -0.437528,0 0,0 0,-0.3750237 0,-0.3750237 0,0 0.437528,0 0.437528,0 z"
     id="path194" />
  <path
     style="fill:none;stroke:#000000;stroke-width:0.500031px;stroke-linecap:round;stroke-linejoin:round;stroke-miterlimit:4;stroke-dasharray:none;stroke-opacity:1"
     d="m 16.813559,7.2504567 c 0,0 -0.437528,0 -0.437528,0 0,0 0,-0.3750237 0,-0.3750237 0,0 0.437528,0 0.437528,0 0,0 0,0.3750237 0,0.3750237"
     id="path195" />
  <path
     style="fill:#ffffff;fill-opacity:1;fill-rule:evenodd;stroke:none"
     d="m 17.62611,7.2504567 c 0,0 -0.437528,0 -0.437528,0 0,0 0,-0.3750237 0,-0.3750237 0,0 0.437528,0 0.437528,0 z"
     id="path196" />
  <path
     style="fill:none;stroke:#000000;stroke-width:0.500031px;stroke-linecap:round;stroke-linejoin:round;stroke-miterlimit:4;stroke-dasharray:none;stroke-opacity:1"
     d="m 17.62611,7.2504567 c 0,0 -0.437528,0 -0.437528,0 0,0 0,-0.3750237 0,-0.3750237 0,0 0.437528,0 0.437528,0 0,0 0,0.3750237 0,0.3750237"
     id="path197" />
  <path
     style="fill:#ffffff;fill-opacity:1;fill-rule:evenodd;stroke:none"
     d="m 18.438661,7.2504567 c 0,0 -0.437527,0 -0.437527,0 0,0 0,-0.3750237 0,-0.3750237 0,0 0.437527,0 0.437527,0 z"
     id="path198" />
  <path
     style="fill:none;stroke:#000000;stroke-width:0.500031px;stroke-linecap:round;stroke-linejoin:round;stroke-miterlimit:4;stroke-dasharray:none;stroke-opacity:1"
     d="m 18.438661,7.2504567 c 0,0 -0.437527,0 -0.437527,0 0,0 0,-0.3750237 0,-0.3750237 0,0 0.437527,0 0.437527,0 0,0 0,0.3750237 0,0.3750237"
     id="path199" />
  <path
     style="fill:#ffffff;fill-opacity:1;fill-rule:evenodd;stroke:none"
     d="m 19.251212,7.2504567 c 0,0 -0.375023,0 -0.375023,0 0,0 0,-0.3750237 0,-0.3750237 0,0 0.375023,0 0.375023,0 z"
     id="path200" />
  <path
     style="fill:none;stroke:#000000;stroke-width:0.500031px;stroke-linecap:round;stroke-linejoin:round;stroke-miterlimit:4;stroke-dasharray:none;stroke-opacity:1"
     d="m 19.251212,7.2504567 c 0,0 -0.375023,0 -0.375023,0 0,0 0,-0.3750237 0,-0.3750237 0,0 0.375023,0 0.375023,0 0,0 0,0.3750237 0,0.3750237"
     id="path201" />
  <path
     style="fill:#ffffff;fill-opacity:1;fill-rule:evenodd;stroke:none"
     d="m 20.688803,6.875433 c 0.125008,0 0.250016,0.062504 0.250016,0.1875119 0,0.1250078 -0.125008,0.1875118 -0.250016,0.1875118 -0.0625,0 -0.187512,-0.062504 -0.187512,-0.1875118 0,-0.1250079 0.125008,-0.1875119 0.187512,-0.1875119 z"
     id="path202" />
  <path
     style="fill:none;stroke:#000000;stroke-width:0.500031px;stroke-linecap:round;stroke-linejoin:round;stroke-miterlimit:4;stroke-dasharray:none;stroke-opacity:1"
     d="m 20.688803,6.875433 c 0.125008,0 0.250016,0.062504 0.250016,0.1875119 0,0.1250078 -0.125008,0.1875118 -0.250016,0.1875118 -0.0625,0 -0.187512,-0.062504 -0.187512,-0.1875118 0,-0.1250079 0.125008,-0.1875119 0.187512,-0.1875119"
     id="path203" />
  <path
     style="fill:#ffffff;fill-opacity:1;fill-rule:evenodd;stroke:none"
     d="m 22.376409,6.875433 c 0.125008,0 0.187512,0.062504 0.187512,0.1875119 0,0.1250078 -0.0625,0.1875118 -0.187512,0.1875118 -0.125008,0 -0.187512,-0.062504 -0.187512,-0.1875118 0,-0.1250079 0.0625,-0.1875119 0.187512,-0.1875119 z"
     id="path204" />
  <path
     style="fill:none;stroke:#000000;stroke-width:0.500031px;stroke-linecap:round;stroke-linejoin:round;stroke-miterlimit:4;stroke-dasharray:none;stroke-opacity:1"
     d="m 22.376409,6.875433 c 0.125008,0 0.187512,0.062504 0.187512,0.1875119 0,0.1250078 -0.0625,0.1875118 -0.187512,0.1875118 -0.125008,0 -0.187512,-0.062504 -0.187512,-0.1875118 0,-0.1250079 0.0625,-0.1875119 0.187512,-0.1875119"
     id="path205" />
  <path
     style="fill:#ffffff;fill-opacity:1;fill-rule:evenodd;stroke:none"
     d="m 21.563858,6.875433 c 0.0625,0 0.187512,0.062504 0.187512,0.1875119 0,0.1250078 -0.125008,0.1875118 -0.187512,0.1875118 -0.125008,0 -0.250016,-0.062504 -0.250016,-0.1875118 0,-0.1250079 0.125008,-0.1875119 0.250016,-0.1875119 z"
     id="path206" />
  <path
     style="fill:none;stroke:#000000;stroke-width:0.500031px;stroke-linecap:round;stroke-linejoin:round;stroke-miterlimit:4;stroke-dasharray:none;stroke-opacity:1"
     d="m 21.563858,6.875433 c 0.0625,0 0.187512,0.062504 0.187512,0.1875119 0,0.1250078 -0.125008,0.1875118 -0.187512,0.1875118 -0.125008,0 -0.250016,-0.062504 -0.250016,-0.1875118 0,-0.1250079 0.125008,-0.1875119 0.250016,-0.1875119"
     id="path207" />
  <path
     style="fill:#ffffff;fill-opacity:1;fill-rule:evenodd;stroke:none"
     d="m 50.253165,6.4379055 c 0.250016,0 0.437528,0.1875118 0.437528,0.4375275 0,0.1875119 -0.187512,0.3750237 -0.437528,0.3750237 -0.187512,0 -0.375023,-0.1875118 -0.375023,-0.3750237 0,-0.2500157 0.187511,-0.4375275 0.375023,-0.4375275 z"
     id="path208" />
  <path
     style="fill:none;stroke:#000000;stroke-width:0.500031px;stroke-linecap:round;stroke-linejoin:round;stroke-miterlimit:4;stroke-dasharray:none;stroke-opacity:1"
     d="m 50.253165,6.4379055 c 0.250016,0 0.437528,0.1875118 0.437528,0.4375275 0,0.1875119 -0.187512,0.3750237 -0.437528,0.3750237 -0.187512,0 -0.375023,-0.1875118 -0.375023,-0.3750237 0,-0.2500157 0.187511,-0.4375275 0.375023,-0.4375275"
     id="path209" />
  <path
     style="fill:#ffffff;fill-opacity:1;fill-rule:evenodd;stroke:none"
     d="m 52.753323,7.2504567 c 0,0 -0.375024,0 -0.375024,0 0,0 0,-0.3750237 0,-0.3750237 0,0 0.375024,0 0.375024,0 z"
     id="path210" />
  <path
     style="fill:none;stroke:#000000;stroke-width:0.500031px;stroke-linecap:round;stroke-linejoin:round;stroke-miterlimit:4;stroke-dasharray:none;stroke-opacity:1"
     d="m 52.753323,7.2504567 c 0,0 -0.375024,0 -0.375024,0 0,0 0,-0.3750237 0,-0.3750237 0,0 0.375024,0 0.375024,0 0,0 0,0.3750237 0,0.3750237"
     id="path211" />
</svg>
