<?xml version="1.0" encoding="UTF-8" standalone="no"?>
<svg
   version="1.0"
   width="17.26425mm"
   height="2.2094526mm"
   id="svg21"
   xmlns="http://www.w3.org/2000/svg"
   xmlns:svg="http://www.w3.org/2000/svg">
  <defs
     id="defs1">
    <pattern
       id="EMFhbasepattern"
       patternUnits="userSpaceOnUse"
       width="6"
       height="6"
       x="0"
       y="0" />
  </defs>
  <path
     style="fill:#ffffff;fill-opacity:1;fill-rule:evenodd;stroke:none"
     d="m 54.216105,7.564805 c 0,0 9.750615,-0.4375276 10.62567,-1.6251024 0.250015,-0.2500157 0.187511,-0.6875433 -0.0625,-1.0625669 -0.500032,-0.5000315 -0.937559,-0.5000315 -2.125134,-0.4375276 -0.500032,0 -9.500599,0 -9.625606,0.062504 -1.312583,0.8125512 -0.812552,0.937559 -1.937622,0.937559 -2.875182,0 -22.813937,-0.6250393 -22.813937,-0.6250393 C 27.214405,3.9395766 25.526798,4.1895924 25.526798,4.1270885 25.464294,3.9395766 26.089334,3.8770727 26.214342,3.4395451 26.339349,3.0020176 25.964326,1.1894034 25.839318,1.0643955 24.526735,0.00182857 19.52642,1.2519074 15.963696,1.4394192 10.275838,1.7519388 8.3382162,0.18934037 4.6504835,0.25184437 1.9003103,0.25184437 1.0252552,1.0643955 0.71273546,1.4394192 0.58772756,1.626931 0.15020006,3.1895294 0.27520786,3.627057 1.212767,5.8771987 6.4005938,8.0648365 11.150893,7.8773247 c 2.06263,-0.062504 3.250204,-0.4375276 4.187764,-0.4375276 2.375149,0 3.687732,0.5000315 7.250456,0.6250394 2.750173,0.125008 1.625103,-0.062504 1.000063,-0.8125512 0,0 27.876756,0.2500158 27.876756,0.2500158 1.062567,-0.1250079 2.250142,-0.2500158 2.750173,0.062504 z"
     id="path1" />
  <path
     style="fill:none;stroke:#000000;stroke-width:0.500031px;stroke-linecap:round;stroke-linejoin:round;stroke-miterlimit:4;stroke-dasharray:none;stroke-opacity:1"
     d="m 54.216105,7.564805 c 0,0 9.750615,-0.4375276 10.62567,-1.6251024 0.250015,-0.2500157 0.187511,-0.6875433 -0.0625,-1.0625669 -0.500032,-0.5000315 -0.937559,-0.5000315 -2.125134,-0.4375276 -0.500032,0 -9.500599,0 -9.625606,0.062504 -1.312583,0.8125512 -0.812552,0.937559 -1.937622,0.937559 -2.875182,0 -22.813937,-0.6250393 -22.813937,-0.6250393 C 27.214405,3.9395766 25.526798,4.1895924 25.526798,4.1270885 25.464294,3.9395766 26.089334,3.8770727 26.214342,3.4395451 26.339349,3.0020176 25.964326,1.1894034 25.839318,1.0643955 24.526735,0.00182857 19.52642,1.2519074 15.963696,1.4394192 10.275838,1.7519388 8.3382162,0.18934037 4.6504835,0.25184437 1.9003103,0.25184437 1.0252552,1.0643955 0.71273546,1.4394192 0.58772756,1.626931 0.15020006,3.1895294 0.27520786,3.627057 1.212767,5.8771987 6.4005938,8.0648365 11.150893,7.8773247 c 2.06263,-0.062504 3.250204,-0.4375276 4.187764,-0.4375276 2.375149,0 3.687732,0.5000315 7.250456,0.6250394 2.750173,0.125008 1.625103,-0.062504 1.000063,-0.8125512 0,0 27.876756,0.2500158 27.876756,0.2500158 1.062567,-0.1250079 2.250142,-0.2500158 2.750173,0.062504"
     id="path2" />
  <path
     style="fill:#ffffff;fill-opacity:1;fill-rule:evenodd;stroke:none"
     d="m 26.214342,3.5020491 c 0,0 -0.687544,-0.6250394 -1.375087,-0.8125512 C 22.651617,2.2519703 19.963948,3.1895294 16.401223,3.3770412 7.9631922,3.7520648 8.1507042,2.0644585 4.212956,2.3144743 1.9003103,2.4394822 0.15020006,2.5019861 0.33771186,3.627057 Z"
     id="path3" />
  <path
     style="fill:none;stroke:#000000;stroke-width:0.500031px;stroke-linecap:round;stroke-linejoin:round;stroke-miterlimit:4;stroke-dasharray:none;stroke-opacity:1"
     d="m 26.214342,3.5020491 c 0,0 -0.687544,-0.6250394 -1.375087,-0.8125512 C 22.651617,2.2519703 19.963948,3.1895294 16.401223,3.3770412 7.9631922,3.7520648 8.1507042,2.0644585 4.212956,2.3144743 1.9003103,2.4394822 0.15020006,2.5019861 0.33771186,3.627057"
     id="path4" />
  <path
     style="fill:#ffffff;fill-opacity:1;fill-rule:evenodd;stroke:none"
     d="m 25.526798,4.0645845 c -1.062567,0.3125197 -2.06263,0.8750551 -1.937622,1.0625669 0.0625,0.1250079 0.562536,0.5000315 1.562599,0.3125197 0.125008,0 0.0625,-1.3125826 0.0625,-1.3125826 z"
     id="path5" />
  <path
     style="fill:none;stroke:#000000;stroke-width:0.500031px;stroke-linecap:round;stroke-linejoin:round;stroke-miterlimit:4;stroke-dasharray:none;stroke-opacity:1"
     d="m 25.526798,4.0645845 c -1.062567,0.3125197 -2.06263,0.8750551 -1.937622,1.0625669 0.0625,0.1250079 0.562536,0.5000315 1.562599,0.3125197 0.125008,0 0.0625,-1.3125826 0.0625,-1.3125826"
     id="path6" />
  <path
     style="fill:#ffffff;fill-opacity:1;fill-rule:evenodd;stroke:none"
     d="m 63.02916,4.5021121 c 0.0625,-0.4375276 0.375024,-1.000063 0.62504,-1.1250709 0.250016,-0.1250079 0.437527,0.1250079 0.31252,0.6250394 -0.0625,0.5000315 -0.31252,1.000063 -0.62504,1.1875748 -0.250016,0.1250079 -0.375023,-0.1875118 -0.31252,-0.6875433 z"
     id="path7" />
  <path
     style="fill:none;stroke:#000000;stroke-width:0.500031px;stroke-linecap:round;stroke-linejoin:round;stroke-miterlimit:4;stroke-dasharray:none;stroke-opacity:1"
     d="m 63.02916,4.5021121 c 0.0625,-0.4375276 0.375024,-1.000063 0.62504,-1.1250709 0.250016,-0.1250079 0.437527,0.1250079 0.31252,0.6250394 -0.0625,0.5000315 -0.31252,1.000063 -0.62504,1.1875748 -0.250016,0.1250079 -0.375023,-0.1875118 -0.31252,-0.6875433"
     id="path8" />
  <path
     style="fill:#ffffff;fill-opacity:1;fill-rule:evenodd;stroke:none"
     d="m 61.529066,4.6896239 c -0.0625,-0.5000315 0.0625,-1.0625669 0.31252,-1.3125827 0.250015,-0.1875118 0.500031,0.062504 0.625039,0.5625354 0.0625,0.5000315 -0.125008,1.062567 -0.375024,1.3125827 -0.250015,0.1875118 -0.500031,-0.062504 -0.562535,-0.5625354 z"
     id="path9" />
  <path
     style="fill:none;stroke:#000000;stroke-width:0.500031px;stroke-linecap:round;stroke-linejoin:round;stroke-miterlimit:4;stroke-dasharray:none;stroke-opacity:1"
     d="m 61.529066,4.6896239 c -0.0625,-0.5000315 0.0625,-1.0625669 0.31252,-1.3125827 0.250015,-0.1875118 0.500031,0.062504 0.625039,0.5625354 0.0625,0.5000315 -0.125008,1.062567 -0.375024,1.3125827 -0.250015,0.1875118 -0.500031,-0.062504 -0.562535,-0.5625354"
     id="path10" />
  <path
     style="fill:#ffffff;fill-opacity:1;fill-rule:evenodd;stroke:none"
     d="M 58.841397,4.9396396 C 58.466373,4.564616 58.278861,4.0020806 58.341365,3.7520648 c 0,-0.3125197 0.31252,-0.2500157 0.687544,0.1250079 0.312519,0.3750236 0.562535,0.8750551 0.500031,1.1875748 -0.0625,0.3125197 -0.375024,0.2500158 -0.687543,-0.1250079 z"
     id="path11" />
  <path
     style="fill:none;stroke:#000000;stroke-width:0.500031px;stroke-linecap:round;stroke-linejoin:round;stroke-miterlimit:4;stroke-dasharray:none;stroke-opacity:1"
     d="M 58.841397,4.9396396 C 58.466373,4.564616 58.278861,4.0020806 58.341365,3.7520648 c 0,-0.3125197 0.31252,-0.2500157 0.687544,0.1250079 0.312519,0.3750236 0.562535,0.8750551 0.500031,1.1875748 -0.0625,0.3125197 -0.375024,0.2500158 -0.687543,-0.1250079"
     id="path12" />
  <path
     style="fill:#ffffff;fill-opacity:1;fill-rule:evenodd;stroke:none"
     d="M 60.466499,4.8771357 C 60.028972,4.6271199 59.653948,4.1895924 59.653948,3.8145688 c 0,-0.3125197 0.375024,-0.3750237 0.750047,-0.062504 0.437528,0.2500158 0.812551,0.6875433 0.812551,1.062567 0.0625,0.3125196 -0.312519,0.3750236 -0.750047,0.062504 z"
     id="path13" />
  <path
     style="fill:none;stroke:#000000;stroke-width:0.500031px;stroke-linecap:round;stroke-linejoin:round;stroke-miterlimit:4;stroke-dasharray:none;stroke-opacity:1"
     d="M 60.466499,4.8771357 C 60.028972,4.6271199 59.653948,4.1895924 59.653948,3.8145688 c 0,-0.3125197 0.375024,-0.3750237 0.750047,-0.062504 0.437528,0.2500158 0.812551,0.6875433 0.812551,1.062567 0.0625,0.3125196 -0.312519,0.3750236 -0.750047,0.062504"
     id="path14" />
  <path
     style="fill:#ffffff;fill-opacity:1;fill-rule:evenodd;stroke:none"
     d="m 56.966279,4.8771357 c 0,-0.5000315 0.187511,-1.0625669 0.437527,-1.2500787 0.187512,-0.1875119 0.375024,0.062504 0.437528,0.5625354 0,0.5000315 -0.187512,1.0625669 -0.437528,1.2500787 -0.250016,0.1875118 -0.437527,-0.062504 -0.437527,-0.5625354 z"
     id="path15" />
  <path
     style="fill:none;stroke:#000000;stroke-width:0.500031px;stroke-linecap:round;stroke-linejoin:round;stroke-miterlimit:4;stroke-dasharray:none;stroke-opacity:1"
     d="m 56.966279,4.8771357 c 0,-0.5000315 0.187511,-1.0625669 0.437527,-1.2500787 0.187512,-0.1875119 0.375024,0.062504 0.437528,0.5625354 0,0.5000315 -0.187512,1.0625669 -0.437528,1.2500787 -0.250016,0.1875118 -0.437527,-0.062504 -0.437527,-0.5625354"
     id="path16" />
  <path
     style="fill:#ffffff;fill-opacity:1;fill-rule:evenodd;stroke:none"
     d="m 53.96609,5.0021436 c -0.187512,-0.4375276 -0.125008,-1.062567 0.0625,-1.3125827 0.187511,-0.2500158 0.500031,-0.062504 0.625039,0.3750236 0.187512,0.5000315 0.187512,1.1250709 0,1.3750866 -0.187512,0.2500158 -0.500032,0.062504 -0.687543,-0.4375275 z"
     id="path17" />
  <path
     style="fill:none;stroke:#000000;stroke-width:0.500031px;stroke-linecap:round;stroke-linejoin:round;stroke-miterlimit:4;stroke-dasharray:none;stroke-opacity:1"
     d="m 53.96609,5.0021436 c -0.187512,-0.4375276 -0.125008,-1.062567 0.0625,-1.3125827 0.187511,-0.2500158 0.500031,-0.062504 0.625039,0.3750236 0.187512,0.5000315 0.187512,1.1250709 0,1.3750866 -0.187512,0.2500158 -0.500032,0.062504 -0.687543,-0.4375275"
     id="path18" />
  <path
     style="fill:#ffffff;fill-opacity:1;fill-rule:evenodd;stroke:none"
     d="m 55.528688,5.0021436 c -0.187512,-0.4375276 -0.187512,-1.062567 0,-1.3125827 0.187512,-0.2500158 0.500032,-0.062504 0.687543,0.3750236 0.187512,0.5000315 0.125008,1.1250709 -0.0625,1.3750866 C 55.96622,5.6896869 55.6537,5.5021751 55.528692,5.0021436 Z"
     id="path19" />
  <path
     style="fill:none;stroke:#000000;stroke-width:0.500031px;stroke-linecap:round;stroke-linejoin:round;stroke-miterlimit:4;stroke-dasharray:none;stroke-opacity:1"
     d="m 55.528688,5.0021436 c -0.187512,-0.4375276 -0.187512,-1.062567 0,-1.3125827 0.187512,-0.2500158 0.500032,-0.062504 0.687543,0.3750236 0.187512,0.5000315 0.125008,1.1250709 -0.0625,1.3750866 C 55.96622,5.6896869 55.6537,5.5021751 55.528692,5.0021436"
     id="path20" />
  <path
     style="fill:none;stroke:#000000;stroke-width:0.500031px;stroke-linecap:round;stroke-linejoin:round;stroke-miterlimit:4;stroke-dasharray:none;stroke-opacity:1"
     d="m 51.215916,5.3771672 c 0,0 -26.501669,0.1250079 -26.501669,0.1250079"
     id="path21" />
</svg>
