<?xml version="1.0" encoding="UTF-8" standalone="no"?>
<svg
   version="1.0"
   width="15.975224mm"
   height="2.103092mm"
   id="svg14"
   xmlns="http://www.w3.org/2000/svg"
   xmlns:svg="http://www.w3.org/2000/svg">
  <defs
     id="defs1">
    <pattern
       id="EMFhbasepattern"
       patternUnits="userSpaceOnUse"
       width="6"
       height="6"
       x="0"
       y="0" />
  </defs>
  <path
     style="fill:#ffffff;fill-opacity:1;fill-rule:evenodd;stroke:none"
     d="m 57.941149,3.3006798 c -0.625039,0.4375275 -4.875307,0.937559 -6.750425,1.000063 -0.125008,0 -1.250079,0.6250393 -2.37515,0.6250393 C 46.440425,4.8632782 33.689622,4.5507585 28.251779,4.3632467 27.876755,4.3007428 27.064204,4.113231 26.939196,3.9882231 26.814189,3.8632152 26.814189,3.6131995 26.564173,3.4881916 26.126645,3.3006798 25.314094,3.3631837 25.314094,3.3631837 c 0,0 0,-0.1875118 0,-0.2500157 -0.375024,-1.1250709 -1.562598,-1.4375906 -2.187638,-1.6251024 -3.375212,-1.12507095 -6.500409,0.062504 -7.500472,0 C 13.063322,1.3630577 12.125763,0.73801835 9.6881104,0.48800255 6.1878897,0.17548285 3.8127401,0.11297895 2.0626299,0.67551435 1.3125826,0.92553015 0.81255114,1.3005538 0.75004724,1.5505695 c -0.2500158,1.1250709 -0.3125197,1.2500788 -0.5000315,2.4376536 0,0 0,0.7500472 0.6875433,1.2500787 2.25014166,1.7501103 4.00025196,2.06263 6.56291336,2.3126457 3.0626926,0.3125197 6.8754326,0.062504 8.1880156,-0.1875118 1.312582,-0.1875118 1.312582,-0.3750236 2.562661,-0.4375276 0.875055,0 4.687795,0.8750551 5.87537,0.2500158 0.0625,-0.062504 0.0625,-0.6875433 0.0625,-0.8750551 -0.0625,0 21.188835,0.1250078 24.501543,0.062504 1.062567,-0.062504 2.68767,0 2.68767,0 1.187575,-0.4375276 7.187953,-0.7500472 7.250456,-0.7500472 0.375024,-0.3125197 0.875056,-0.5000315 1.500095,-0.6875434 0,0 -0.0625,-0.3750236 -0.250016,-0.6875433 C 59.566252,3.7382073 58.503685,3.4881916 57.941149,3.3006798 Z"
     id="path1" />
  <path
     style="fill:none;stroke:#000000;stroke-width:0.500031px;stroke-linecap:round;stroke-linejoin:round;stroke-miterlimit:4;stroke-dasharray:none;stroke-opacity:1"
     d="m 57.941149,3.3006798 c -0.625039,0.4375275 -4.875307,0.937559 -6.750425,1.000063 -0.125008,0 -1.250079,0.6250393 -2.37515,0.6250393 C 46.440425,4.8632782 33.689622,4.5507585 28.251779,4.3632467 27.876755,4.3007428 27.064204,4.113231 26.939196,3.9882231 26.814189,3.8632152 26.814189,3.6131995 26.564173,3.4881916 26.126645,3.3006798 25.314094,3.3631837 25.314094,3.3631837 c 0,0 0,-0.1875118 0,-0.2500157 -0.375024,-1.1250709 -1.562598,-1.4375906 -2.187638,-1.6251024 -3.375212,-1.12507095 -6.500409,0.062504 -7.500472,0 C 13.063322,1.3630577 12.125763,0.73801835 9.6881104,0.48800255 6.1878897,0.17548285 3.8127401,0.11297895 2.0626299,0.67551435 1.3125826,0.92553015 0.81255114,1.3005538 0.75004724,1.5505695 c -0.2500158,1.1250709 -0.3125197,1.2500788 -0.5000315,2.4376536 0,0 0,0.7500472 0.6875433,1.2500787 2.25014166,1.7501103 4.00025196,2.06263 6.56291336,2.3126457 3.0626926,0.3125197 6.8754326,0.062504 8.1880156,-0.1875118 1.312582,-0.1875118 1.312582,-0.3750236 2.562661,-0.4375276 0.875055,0 4.687795,0.8750551 5.87537,0.2500158 0.0625,-0.062504 0.0625,-0.6875433 0.0625,-0.8750551 -0.0625,0 21.188835,0.1250078 24.501543,0.062504 1.062567,-0.062504 2.68767,0 2.68767,0 1.187575,-0.4375276 7.187953,-0.7500472 7.250456,-0.7500472 0.375024,-0.3125197 0.875056,-0.5000315 1.500095,-0.6875434 0,0 -0.0625,-0.3750236 -0.250016,-0.6875433 C 59.566252,3.7382073 58.503685,3.4881916 57.941149,3.3006798"
     id="path2" />
  <path
     style="fill:#ffffff;fill-opacity:1;fill-rule:evenodd;stroke:none"
     d="M 24.126519,7.1759239 C 24.064015,6.8634042 21.688866,6.8009003 21.501354,6.3008688 Z"
     id="path3" />
  <path
     style="fill:none;stroke:#000000;stroke-width:0.500031px;stroke-linecap:round;stroke-linejoin:round;stroke-miterlimit:4;stroke-dasharray:none;stroke-opacity:1"
     d="M 24.126519,7.1759239 C 24.064015,6.8634042 21.688866,6.8009003 21.501354,6.3008688"
     id="path4" />
  <path
     style="fill:#ffffff;fill-opacity:1;fill-rule:evenodd;stroke:none"
     d="m 25.314094,3.3631837 c -0.125008,0 -0.187512,0 -0.187512,0 0,0 -0.125008,1.6876063 -0.125008,1.6876063 C 24.251527,4.113231 22.938944,3.5506955 20.938818,3.4256877 18.813685,3.2381758 18.251149,3.4881916 16.563543,3.6757034 14.813433,3.9257192 14.000881,3.6131995 12.063259,3.2381758 11.063196,3.050664 9.3755904,2.7381443 7.8129921,2.6131365 5.87537,2.5506325 4.3752755,2.5506325 2.6251653,2.8006483 1.8751181,2.9256562 0.37502364,3.4256877 0.25001574,4.113231 Z"
     id="path5" />
  <path
     style="fill:none;stroke:#000000;stroke-width:0.500031px;stroke-linecap:round;stroke-linejoin:round;stroke-miterlimit:4;stroke-dasharray:none;stroke-opacity:1"
     d="m 25.314094,3.3631837 c -0.125008,0 -0.187512,0 -0.187512,0 0,0 -0.125008,1.6876063 -0.125008,1.6876063 C 24.251527,4.113231 22.938944,3.5506955 20.938818,3.4256877 18.813685,3.2381758 18.251149,3.4881916 16.563543,3.6757034 14.813433,3.9257192 14.000881,3.6131995 12.063259,3.2381758 11.063196,3.050664 9.3755904,2.7381443 7.8129921,2.6131365 5.87537,2.5506325 4.3752755,2.5506325 2.6251653,2.8006483 1.8751181,2.9256562 0.37502364,3.4256877 0.25001574,4.113231"
     id="path6" />
  <path
     style="fill:#ffffff;fill-opacity:1;fill-rule:evenodd;stroke:none"
     d="m 52.065779,4.4882546 c -0.187512,0.2500157 -0.500031,0.3125197 -0.625039,0.1875118 -0.125008,-0.1250079 -0.0625,-0.4375276 0.125008,-0.6875433 0.187511,-0.1875118 0.500031,-0.2500158 0.625039,-0.1250079 0.187512,0.1250079 0.125008,0.3750236 -0.125008,0.6250394 z"
     id="path7" />
  <path
     style="fill:none;stroke:#000000;stroke-width:0.500031px;stroke-linecap:round;stroke-linejoin:round;stroke-miterlimit:4;stroke-dasharray:none;stroke-opacity:1"
     d="m 52.065779,4.4882546 c -0.187512,0.2500157 -0.500031,0.3125197 -0.625039,0.1875118 -0.125008,-0.1250079 -0.0625,-0.4375276 0.125008,-0.6875433 0.187511,-0.1875118 0.500031,-0.2500158 0.625039,-0.1250079 0.187512,0.1250079 0.125008,0.3750236 -0.125008,0.6250394"
     id="path8" />
  <path
     style="fill:#ffffff;fill-opacity:1;fill-rule:evenodd;stroke:none"
     d="m 57.191102,3.9882231 c -0.250016,0.1250079 -0.562536,0.1250079 -0.687543,0 -0.0625,-0.1875118 0.0625,-0.4375276 0.312519,-0.6250394 0.250016,-0.1250079 0.562536,-0.1250079 0.62504,0 0.125008,0.1875118 0,0.4375276 -0.250016,0.6250394 z"
     id="path9" />
  <path
     style="fill:none;stroke:#000000;stroke-width:0.500031px;stroke-linecap:round;stroke-linejoin:round;stroke-miterlimit:4;stroke-dasharray:none;stroke-opacity:1"
     d="m 57.191102,3.9882231 c -0.250016,0.1250079 -0.562536,0.1250079 -0.687543,0 -0.0625,-0.1875118 0.0625,-0.4375276 0.312519,-0.6250394 0.250016,-0.1250079 0.562536,-0.1250079 0.62504,0 0.125008,0.1875118 0,0.4375276 -0.250016,0.6250394"
     id="path10" />
  <path
     style="fill:#ffffff;fill-opacity:1;fill-rule:evenodd;stroke:none"
     d="m 54.62844,3.6131995 c 0.250016,0.2500157 0.31252,0.5000315 0.187512,0.6250393 -0.125008,0.1875118 -0.437527,0.1250079 -0.625039,-0.062504 -0.250016,-0.2500157 -0.31252,-0.5000315 -0.187512,-0.6875433 0.125008,-0.1250079 0.437528,-0.062504 0.625039,0.1250079 z"
     id="path11" />
  <path
     style="fill:none;stroke:#000000;stroke-width:0.500031px;stroke-linecap:round;stroke-linejoin:round;stroke-miterlimit:4;stroke-dasharray:none;stroke-opacity:1"
     d="m 54.62844,3.6131995 c 0.250016,0.2500157 0.31252,0.5000315 0.187512,0.6250393 -0.125008,0.1875118 -0.437527,0.1250079 -0.625039,-0.062504 -0.250016,-0.2500157 -0.31252,-0.5000315 -0.187512,-0.6875433 0.125008,-0.1250079 0.437528,-0.062504 0.625039,0.1250079"
     id="path12" />
  <path
     style="fill:none;stroke:#000000;stroke-width:0.500031px;stroke-linecap:round;stroke-linejoin:round;stroke-miterlimit:4;stroke-dasharray:none;stroke-opacity:1"
     d="m 48.378047,4.8632782 c 0,0 -23.376473,0.1875118 -23.376473,0.1875118"
     id="path13" />
  <path
     style="fill:none;stroke:#000000;stroke-width:0.500031px;stroke-linecap:round;stroke-linejoin:round;stroke-miterlimit:4;stroke-dasharray:none;stroke-opacity:1"
     d="m 24.314031,6.3008688 c 0,0 -2.812677,0 -2.812677,0"
     id="path14" />
</svg>
