<?xml version="1.0" encoding="UTF-8" standalone="no"?>
<svg
   version="1.0"
   width="15.559993mm"
   height="15.688884mm"
   id="svg66"
   xmlns="http://www.w3.org/2000/svg"
   xmlns:svg="http://www.w3.org/2000/svg">
  <defs
     id="defs1">
    <pattern
       id="EMFhbasepattern"
       patternUnits="userSpaceOnUse"
       width="6"
       height="6"
       x="0"
       y="0" />
  </defs>
  <path
     style="fill:#ffffff;fill-opacity:1;fill-rule:evenodd;stroke:none"
     d="M 4.9310487,54.503413 C 2.0558676,51.378216 -2.6319277,44.627791 2.618403,39.127444 c 5.1878269,-5.437842 9.938126,-2.500157 12.125764,-4.750299 2.937685,-3.062693 1.000063,-3.437717 3.312709,-6.000378 2.625165,-2.937685 7.000441,-0.437528 8.438031,1.125071 1.937622,2.125134 0,6.500409 1.125071,8.500535 1.062567,1.875118 4.000252,0.31252 3.875244,1.187575 -0.375024,3.187701 -4.437779,2.37515 -6.375402,4.750299 -2.000126,2.437654 -0.0625,11.313213 -7.750488,14.375906 -4.812803,1.937622 -8.6255431,-0.187512 -12.4382833,-3.81274 z"
     id="path1" />
  <path
     style="fill:none;stroke:#000000;stroke-width:0.500031px;stroke-linecap:round;stroke-linejoin:round;stroke-miterlimit:4;stroke-dasharray:none;stroke-opacity:1"
     d="M 4.9310487,54.503413 C 2.0558676,51.378216 -2.6319277,44.627791 2.618403,39.127444 c 5.1878269,-5.437842 9.938126,-2.500157 12.125764,-4.750299 2.937685,-3.062693 1.000063,-3.437717 3.312709,-6.000378 2.625165,-2.937685 7.000441,-0.437528 8.438031,1.125071 1.937622,2.125134 0,6.500409 1.125071,8.500535 1.062567,1.875118 4.000252,0.31252 3.875244,1.187575 -0.375024,3.187701 -4.437779,2.37515 -6.375402,4.750299 -2.000126,2.437654 -0.0625,11.313213 -7.750488,14.375906 -4.812803,1.937622 -8.6255431,-0.187512 -12.4382833,-3.81274"
     id="path2" />
  <path
     style="fill:#ffffff;fill-opacity:1;fill-rule:evenodd;stroke:none"
     d="m 9.8063559,44.440279 c 0.3125201,-0.375024 1.2500791,-0.0625 1.9376221,0.687543 0,0 2.000126,2.000126 2.000126,2.000126 0.750047,0.687543 1.062567,1.625102 0.687543,1.937622 0,0 0,0 0,0 -0.312519,0.375024 -1.250079,0.0625 -1.937622,-0.687543 0,0 -2.000126,-2.000126 -2.000126,-2.000126 C 9.7438519,45.690358 9.4313319,44.752799 9.8063559,44.440279 Z"
     id="path3" />
  <path
     style="fill:none;stroke:#000000;stroke-width:0.500031px;stroke-linecap:round;stroke-linejoin:round;stroke-miterlimit:4;stroke-dasharray:none;stroke-opacity:1"
     d="m 9.8063559,44.440279 c 0.3125201,-0.375024 1.2500791,-0.0625 1.9376221,0.687543 0,0 2.000126,2.000126 2.000126,2.000126 0.750047,0.687543 1.062567,1.625102 0.687543,1.937622 0,0 0,0 0,0 -0.312519,0.375024 -1.250079,0.0625 -1.937622,-0.687543 0,0 -2.000126,-2.000126 -2.000126,-2.000126 -0.7500471,-0.687543 -1.0625671,-1.625102 -0.6875431,-1.937622 0,0 0,0 0,0"
     id="path4" />
  <path
     style="fill:#ffffff;fill-opacity:1;fill-rule:evenodd;stroke:none"
     d="m 17.18182,44.565287 c 0.562536,-0.62504 2.312646,-2.312646 3.687733,-3.687733 2.687669,-2.687669 6.125386,-6.437905 6.062882,-6.437905 -0.687544,1.875118 0.125008,2.812677 0.0625,3.81274 -0.0625,0.375024 -4.500284,9.625606 -5.250331,11.000693 -0.562536,1.187575 -2.625165,-2.687669 -4.562788,-4.687795 z"
     id="path5" />
  <path
     style="fill:none;stroke:#000000;stroke-width:0.500031px;stroke-linecap:round;stroke-linejoin:round;stroke-miterlimit:4;stroke-dasharray:none;stroke-opacity:1"
     d="m 17.18182,44.565287 c 0.562536,-0.62504 2.312646,-2.312646 3.687733,-3.687733 2.687669,-2.687669 6.125386,-6.437905 6.062882,-6.437905 -0.687544,1.875118 0.125008,2.812677 0.0625,3.81274 -0.0625,0.375024 -4.500284,9.625606 -5.250331,11.000693 -0.562536,1.187575 -2.625165,-2.687669 -4.562788,-4.687795"
     id="path6" />
  <path
     style="fill:#ffffff;fill-opacity:1;fill-rule:evenodd;stroke:none"
     d="m 20.807049,34.127129 c 0.250016,-0.312519 0.750047,-0.312519 1.062567,0 0,0 2.750173,2.812677 2.750173,2.812677 0.31252,0.250016 0.31252,0.750048 0,1.062567 0,0 -1.375087,1.437591 -1.375087,1.437591 -0.312519,0.250016 -0.812551,0.250016 -1.125071,0 0,0 -2.750173,-2.812677 -2.750173,-2.812677 -0.312519,-0.31252 -0.312519,-0.750048 0,-1.062567 z"
     id="path7" />
  <path
     style="fill:none;stroke:#000000;stroke-width:0.500031px;stroke-linecap:round;stroke-linejoin:round;stroke-miterlimit:4;stroke-dasharray:none;stroke-opacity:1"
     d="m 20.807049,34.127129 c 0.250016,-0.312519 0.750047,-0.312519 1.062567,0 0,0 2.750173,2.812677 2.750173,2.812677 0.31252,0.250016 0.31252,0.750048 0,1.062567 0,0 -1.375087,1.437591 -1.375087,1.437591 -0.312519,0.250016 -0.812551,0.250016 -1.125071,0 0,0 -2.750173,-2.812677 -2.750173,-2.812677 -0.312519,-0.31252 -0.312519,-0.750048 0,-1.062567 0,0 1.437591,-1.437591 1.437591,-1.437591"
     id="path8" />
  <path
     style="fill:#ffffff;fill-opacity:1;fill-rule:evenodd;stroke:none"
     d="m 15.74423,39.06494 c 0.31252,-0.312519 0.812551,-0.312519 1.125071,0 0,0 2.750173,2.812677 2.750173,2.812677 0.31252,0.250016 0.31252,0.750048 0,1.062567 0,0 -1.562598,1.562599 -1.562598,1.562599 -0.31252,0.312519 -0.812552,0.312519 -1.125071,0 0,0 -2.750174,-2.750173 -2.750174,-2.750173 -0.312519,-0.31252 -0.312519,-0.812552 0,-1.062567 z"
     id="path9" />
  <path
     style="fill:none;stroke:#000000;stroke-width:0.500031px;stroke-linecap:round;stroke-linejoin:round;stroke-miterlimit:4;stroke-dasharray:none;stroke-opacity:1"
     d="m 15.74423,39.06494 c 0.31252,-0.312519 0.812551,-0.312519 1.125071,0 0,0 2.750173,2.812677 2.750173,2.812677 0.31252,0.250016 0.31252,0.750048 0,1.062567 0,0 -1.562598,1.562599 -1.562598,1.562599 -0.31252,0.312519 -0.812552,0.312519 -1.125071,0 0,0 -2.750174,-2.750173 -2.750174,-2.750173 -0.312519,-0.31252 -0.312519,-0.812552 0,-1.062567 0,0 1.562599,-1.625103 1.562599,-1.625103"
     id="path10" />
  <path
     style="fill:#ffffff;fill-opacity:1;fill-rule:evenodd;stroke:none"
     d="m 12.181505,42.815176 c 0.250016,-0.187511 1.250079,0.500032 2.312646,1.562599 0,0 0,0 0,0 1.062567,1.062567 1.75011,2.06263 1.562599,2.250142 0,0 0,0 0,0 -0.187512,0.250015 -1.187575,-0.500032 -2.250142,-1.562599 0,0 0,0 0,0 -1.062567,-1.062567 -1.812614,-2.06263 -1.625103,-2.250142 z"
     id="path11" />
  <path
     style="fill:none;stroke:#000000;stroke-width:0.500031px;stroke-linecap:round;stroke-linejoin:round;stroke-miterlimit:4;stroke-dasharray:none;stroke-opacity:1"
     d="m 12.181505,42.815176 c 0.250016,-0.187511 1.250079,0.500032 2.312646,1.562599 0,0 0,0 0,0 1.062567,1.062567 1.75011,2.06263 1.562599,2.250142 0,0 0,0 0,0 -0.187512,0.250015 -1.187575,-0.500032 -2.250142,-1.562599 0,0 0,0 0,0 -1.062567,-1.062567 -1.812614,-2.06263 -1.625103,-2.250142 0,0 0,0 0,0"
     id="path12" />
  <path
     style="fill:#ffffff;fill-opacity:1;fill-rule:evenodd;stroke:none"
     d="m 53.434104,9.4380742 c 0.250016,-0.187512 0.625039,-0.125008 0.937559,0.187512 0.31252,0.31252 0.375024,0.6875428 0.187512,0.9375588 -0.250016,0.187512 -0.62504,0.125008 -0.937559,-0.187512 -0.31252,-0.31252 -0.375024,-0.6875428 -0.187512,-0.9375588 z"
     id="path13" />
  <path
     style="fill:none;stroke:#000000;stroke-width:0.500031px;stroke-linecap:round;stroke-linejoin:round;stroke-miterlimit:4;stroke-dasharray:none;stroke-opacity:1"
     d="m 53.434104,9.4380742 c 0.250016,-0.187512 0.625039,-0.125008 0.937559,0.187512 0.31252,0.31252 0.375024,0.6875428 0.187512,0.9375588 -0.250016,0.187512 -0.62504,0.125008 -0.937559,-0.187512 -0.31252,-0.31252 -0.375024,-0.6875428 -0.187512,-0.9375588"
     id="path14" />
  <path
     style="fill:#ffffff;fill-opacity:1;fill-rule:evenodd;stroke:none"
     d="m 55.12171,7.750468 c 0.250016,-0.1875118 0.62504,-0.1250079 0.937559,0.1875118 0.31252,0.3125197 0.375024,0.6875434 0.187512,0.9375594 -0.250016,0.187511 -0.625039,0.125008 -0.937559,-0.187512 C 54.996702,8.3755074 54.934198,8.0004838 55.12171,7.750468 Z"
     id="path15" />
  <path
     style="fill:none;stroke:#000000;stroke-width:0.500031px;stroke-linecap:round;stroke-linejoin:round;stroke-miterlimit:4;stroke-dasharray:none;stroke-opacity:1"
     d="m 55.12171,7.750468 c 0.250016,-0.1875118 0.62504,-0.1250079 0.937559,0.1875118 0.31252,0.3125197 0.375024,0.6875434 0.187512,0.9375594 -0.250016,0.187511 -0.625039,0.125008 -0.937559,-0.187512 C 54.996702,8.3755074 54.934198,8.0004838 55.12171,7.750468"
     id="path16" />
  <path
     style="fill:#ffffff;fill-opacity:1;fill-rule:evenodd;stroke:none"
     d="m 56.746813,6.1878696 c 0.250015,-0.2500158 0.625039,-0.1875118 0.937559,0.1250079 0.312519,0.3125196 0.375023,0.6875433 0.187511,0.937559 C 57.621868,7.4379483 57.246844,7.3754444 56.934324,7.0629247 56.621805,6.750405 56.559301,6.3753814 56.746813,6.1878696 Z"
     id="path17" />
  <path
     style="fill:none;stroke:#000000;stroke-width:0.500031px;stroke-linecap:round;stroke-linejoin:round;stroke-miterlimit:4;stroke-dasharray:none;stroke-opacity:1"
     d="m 56.746813,6.1878696 c 0.250015,-0.2500158 0.625039,-0.1875118 0.937559,0.1250079 0.312519,0.3125196 0.375023,0.6875433 0.187511,0.937559 C 57.621868,7.4379483 57.246844,7.3754444 56.934324,7.0629247 56.621805,6.750405 56.559301,6.3753814 56.746813,6.1878696"
     id="path18" />
  <path
     style="fill:#ffffff;fill-opacity:1;fill-rule:evenodd;stroke:none"
     d="m 48.558797,10.250625 c 0,0 1.125071,1.125071 1.125071,1.125071 0.0625,-0.0625 0.625039,-0.625039 1.125071,-0.812551 0.812551,-0.250016 1.000063,0.125008 1.312582,-0.187512 3.000189,-3.0001886 4.750299,-4.7502989 5.312835,-5.1878264 0.375024,-0.3125197 1.125071,-0.8750551 1.125071,-0.8750551 0,0 -0.750047,-0.4375276 -1.000063,-0.8750552 -0.500032,-1.0000629 0.125008,-0.8125511 -0.875055,-1.3125826 z"
     id="path19" />
  <path
     style="fill:none;stroke:#000000;stroke-width:0.500031px;stroke-linecap:round;stroke-linejoin:round;stroke-miterlimit:4;stroke-dasharray:none;stroke-opacity:1"
     d="m 48.558797,10.250625 c 0,0 1.125071,1.125071 1.125071,1.125071 0.0625,-0.0625 0.625039,-0.625039 1.125071,-0.812551 0.812551,-0.250016 1.000063,0.125008 1.312582,-0.187512 3.000189,-3.0001886 4.750299,-4.7502989 5.312835,-5.1878264 0.375024,-0.3125197 1.125071,-0.8750551 1.125071,-0.8750551 0,0 -0.750047,-0.4375276 -1.000063,-0.8750552 -0.500032,-1.0000629 0.125008,-0.8125511 -0.875055,-1.3125826"
     id="path20" />
  <path
     style="fill:#ffffff;fill-opacity:1;fill-rule:evenodd;stroke:none"
     d="m 48.558797,10.250625 c 0,0 -1.125071,-1.1250708 -1.125071,-1.1250708 0.0625,-0.0625 0.625039,-0.625039 0.812551,-1.1250704 0.250016,-0.8125512 -0.125008,-1.000063 0.187512,-1.2500788 3.000189,-3.000189 4.750299,-4.8128031 5.187827,-5.3753386 0.312519,-0.3750236 0.875055,-1.1250708 0.875055,-1.1250708 0,0 0.437527,0.7500472 0.875055,1.000063 1.000063,0.5000315 0.812551,-0.1250079 1.312583,0.8750551 z"
     id="path21" />
  <path
     style="fill:none;stroke:#000000;stroke-width:0.500031px;stroke-linecap:round;stroke-linejoin:round;stroke-miterlimit:4;stroke-dasharray:none;stroke-opacity:1"
     d="m 48.558797,10.250625 c 0,0 -1.125071,-1.1250708 -1.125071,-1.1250708 0.0625,-0.0625 0.625039,-0.625039 0.812551,-1.1250704 0.250016,-0.8125512 -0.125008,-1.000063 0.187512,-1.2500788 3.000189,-3.000189 4.750299,-4.8128031 5.187827,-5.3753386 0.312519,-0.3750236 0.875055,-1.1250708 0.875055,-1.1250708 0,0 0.437527,0.7500472 0.875055,1.000063 1.000063,0.5000315 0.812551,-0.1250079 1.312583,0.8750551"
     id="path22" />
  <path
     style="fill:#ffffff;fill-opacity:1;fill-rule:evenodd;stroke:none"
     d="m 53.996639,2.5001373 c 0.125008,0.1250079 0.125008,0.3750236 0,0.5625354 -0.187511,0.1250079 -0.437527,0.1250079 -0.562535,0 -0.187512,-0.1875118 -0.187512,-0.4375275 0,-0.5625354 0.125008,-0.1875118 0.375024,-0.1875118 0.562535,0 z"
     id="path23" />
  <path
     style="fill:none;stroke:#000000;stroke-width:0.500031px;stroke-linecap:round;stroke-linejoin:round;stroke-miterlimit:4;stroke-dasharray:none;stroke-opacity:1"
     d="m 53.996639,2.5001373 c 0.125008,0.1250079 0.125008,0.3750236 0,0.5625354 -0.187511,0.1250079 -0.437527,0.1250079 -0.562535,0 -0.187512,-0.1875118 -0.187512,-0.4375275 0,-0.5625354 0.125008,-0.1875118 0.375024,-0.1875118 0.562535,0"
     id="path24" />
  <path
     style="fill:#ffffff;fill-opacity:1;fill-rule:evenodd;stroke:none"
     d="m 52.371537,4.3127515 c 0.125008,0.1875118 0.125008,0.4375275 0,0.5625354 -0.187512,0.1875118 -0.437528,0.1875118 -0.562535,0 -0.187512,-0.1250079 -0.187512,-0.3750236 0,-0.5625354 0.125007,-0.1250079 0.375023,-0.1250079 0.562535,0 z"
     id="path25" />
  <path
     style="fill:none;stroke:#000000;stroke-width:0.500031px;stroke-linecap:round;stroke-linejoin:round;stroke-miterlimit:4;stroke-dasharray:none;stroke-opacity:1"
     d="m 52.371537,4.3127515 c 0.125008,0.1875118 0.125008,0.4375275 0,0.5625354 -0.187512,0.1875118 -0.437528,0.1875118 -0.562535,0 -0.187512,-0.1250079 -0.187512,-0.3750236 0,-0.5625354 0.125007,-0.1250079 0.375023,-0.1250079 0.562535,0"
     id="path26" />
  <path
     style="fill:#ffffff;fill-opacity:1;fill-rule:evenodd;stroke:none"
     d="m 50.558923,6.1253656 c 0.187512,0.1250079 0.187512,0.3750237 0,0.5625355 -0.125008,0.1250078 -0.375024,0.1250078 -0.562536,0 -0.125007,-0.1875118 -0.125007,-0.4375276 0,-0.5625355 0.187512,-0.1875118 0.437528,-0.1875118 0.562536,0 z"
     id="path27" />
  <path
     style="fill:none;stroke:#000000;stroke-width:0.500031px;stroke-linecap:round;stroke-linejoin:round;stroke-miterlimit:4;stroke-dasharray:none;stroke-opacity:1"
     d="m 50.558923,6.1253656 c 0.187512,0.1250079 0.187512,0.3750237 0,0.5625355 -0.125008,0.1250078 -0.375024,0.1250078 -0.562536,0 -0.125007,-0.1875118 -0.125007,-0.4375276 0,-0.5625355 0.187512,-0.1875118 0.437528,-0.1875118 0.562536,0"
     id="path28" />
  <path
     style="fill:#ffffff;fill-opacity:1;fill-rule:evenodd;stroke:none"
     d="M 48.308781,4.3127515 C 48.496293,4.1252397 48.93382,4.1877436 49.24634,4.5002633 49.55886,4.812783 49.621364,5.1878066 49.371348,5.3753184 49.183836,5.6253341 48.808813,5.5003263 48.496293,5.2503105 48.183773,4.9377908 48.121269,4.5002633 48.308781,4.3127515 Z"
     id="path29" />
  <path
     style="fill:none;stroke:#000000;stroke-width:0.500031px;stroke-linecap:round;stroke-linejoin:round;stroke-miterlimit:4;stroke-dasharray:none;stroke-opacity:1"
     d="M 48.308781,4.3127515 C 48.496293,4.1252397 48.93382,4.1877436 49.24634,4.5002633 49.55886,4.812783 49.621364,5.1878066 49.371348,5.3753184 49.183836,5.6253341 48.808813,5.5003263 48.496293,5.2503105 48.183773,4.9377908 48.121269,4.5002633 48.308781,4.3127515"
     id="path30" />
  <path
     style="fill:#ffffff;fill-opacity:1;fill-rule:evenodd;stroke:none"
     d="m 49.996387,2.6251452 c 0.187512,-0.1875118 0.62504,-0.1250079 0.937559,0.1875118 0.31252,0.2500157 0.375024,0.6875433 0.125008,0.8750551 C 50.871443,3.9377278 50.496419,3.81272 50.183899,3.5627042 49.87138,3.2501845 49.808876,2.812657 49.996387,2.6251452 Z"
     id="path31" />
  <path
     style="fill:none;stroke:#000000;stroke-width:0.500031px;stroke-linecap:round;stroke-linejoin:round;stroke-miterlimit:4;stroke-dasharray:none;stroke-opacity:1"
     d="m 49.996387,2.6251452 c 0.187512,-0.1875118 0.62504,-0.1250079 0.937559,0.1875118 0.31252,0.2500157 0.375024,0.6875433 0.125008,0.8750551 C 50.871443,3.9377278 50.496419,3.81272 50.183899,3.5627042 49.87138,3.2501845 49.808876,2.812657 49.996387,2.6251452"
     id="path32" />
  <path
     style="fill:#ffffff;fill-opacity:1;fill-rule:evenodd;stroke:none"
     d="m 51.62149,1.0000428 c 0.187512,-0.1875118 0.625039,-0.1250079 0.937559,0.1875118 0.250016,0.3125197 0.375023,0.6875433 0.125008,0.8750551 C 52.496545,2.3126255 52.059017,2.2501215 51.809002,1.9376019 51.496482,1.6250822 51.433978,1.2500586 51.62149,1.0000428 Z"
     id="path33" />
  <path
     style="fill:none;stroke:#000000;stroke-width:0.500031px;stroke-linecap:round;stroke-linejoin:round;stroke-miterlimit:4;stroke-dasharray:none;stroke-opacity:1"
     d="m 51.62149,1.0000428 c 0.187512,-0.1875118 0.625039,-0.1250079 0.937559,0.1875118 0.250016,0.3125197 0.375023,0.6875433 0.125008,0.8750551 C 52.496545,2.3126255 52.059017,2.2501215 51.809002,1.9376019 51.496482,1.6250822 51.433978,1.2500586 51.62149,1.0000428"
     id="path34" />
  <path
     style="fill:#ffffff;fill-opacity:1;fill-rule:evenodd;stroke:none"
     d="m 56.246781,4.6877751 c 0.125008,0.1875118 0.125008,0.4375275 0,0.5625354 -0.187512,0.1875118 -0.437527,0.1875118 -0.625039,0 -0.125008,-0.1250079 -0.125008,-0.3750236 0,-0.5625354 0.187512,-0.1250079 0.437527,-0.1250079 0.625039,0 z"
     id="path35" />
  <path
     style="fill:none;stroke:#000000;stroke-width:0.500031px;stroke-linecap:round;stroke-linejoin:round;stroke-miterlimit:4;stroke-dasharray:none;stroke-opacity:1"
     d="m 56.246781,4.6877751 c 0.125008,0.1875118 0.125008,0.4375275 0,0.5625354 -0.187512,0.1875118 -0.437527,0.1875118 -0.625039,0 -0.125008,-0.1250079 -0.125008,-0.3750236 0,-0.5625354 0.187512,-0.1250079 0.437527,-0.1250079 0.625039,0"
     id="path36" />
  <path
     style="fill:#ffffff;fill-opacity:1;fill-rule:evenodd;stroke:none"
     d="m 54.371663,6.3128775 c 0.187512,0.1875118 0.187512,0.4375275 0,0.5625354 -0.125008,0.1875118 -0.375024,0.1875118 -0.562535,0 -0.125008,-0.1250079 -0.125008,-0.3750236 0,-0.5625354 0.187511,-0.1250079 0.437527,-0.1250079 0.562535,0 z"
     id="path37" />
  <path
     style="fill:none;stroke:#000000;stroke-width:0.500031px;stroke-linecap:round;stroke-linejoin:round;stroke-miterlimit:4;stroke-dasharray:none;stroke-opacity:1"
     d="m 54.371663,6.3128775 c 0.187512,0.1875118 0.187512,0.4375275 0,0.5625354 -0.125008,0.1875118 -0.375024,0.1875118 -0.562535,0 -0.125008,-0.1250079 -0.125008,-0.3750236 0,-0.5625354 0.187511,-0.1250079 0.437527,-0.1250079 0.562535,0"
     id="path38" />
  <path
     style="fill:#ffffff;fill-opacity:1;fill-rule:evenodd;stroke:none"
     d="m 52.621553,8.1254916 c 0.125008,0.1875118 0.125008,0.4375276 0,0.5625356 -0.187512,0.187512 -0.437528,0.187512 -0.62504,0 -0.125008,-0.125008 -0.125008,-0.3750238 0,-0.5625356 0.187512,-0.1250078 0.437528,-0.1250078 0.62504,0 z"
     id="path39" />
  <path
     style="fill:none;stroke:#000000;stroke-width:0.500031px;stroke-linecap:round;stroke-linejoin:round;stroke-miterlimit:4;stroke-dasharray:none;stroke-opacity:1"
     d="m 52.621553,8.1254916 c 0.125008,0.1875118 0.125008,0.4375276 0,0.5625356 -0.187512,0.187512 -0.437528,0.187512 -0.62504,0 -0.125008,-0.125008 -0.125008,-0.3750238 0,-0.5625356 0.187512,-0.1250078 0.437528,-0.1250078 0.62504,0"
     id="path40" />
  <path
     style="fill:#ffffff;fill-opacity:1;fill-rule:evenodd;stroke:none"
     d="m 47.121206,9.5005782 c 0,0 2.312646,2.3126458 2.312646,2.3126458 0,0 -25.251591,25.501606 -25.251591,25.501606 0,0 -2.875181,-2.875181 -2.875181,-2.875181 z"
     id="path41" />
  <path
     style="fill:none;stroke:#000000;stroke-width:0.500031px;stroke-linecap:round;stroke-linejoin:round;stroke-miterlimit:4;stroke-dasharray:none;stroke-opacity:1"
     d="m 47.121206,9.5005782 c 0,0 2.312646,2.3126458 2.312646,2.3126458 0,0 -25.251591,25.501606 -25.251591,25.501606 0,0 -2.875181,-2.875181 -2.875181,-2.875181 0,0 25.814126,-24.9390708 25.814126,-24.9390708"
     id="path42" />
  <path
     style="fill:#ffffff;fill-opacity:1;fill-rule:evenodd;stroke:none"
     d="m 47.246214,9.5005782 c 0,0 2.06263,2.0626298 2.06263,2.0626298 z"
     id="path43" />
  <path
     style="fill:none;stroke:#000000;stroke-width:0.500031px;stroke-linecap:round;stroke-linejoin:round;stroke-miterlimit:4;stroke-dasharray:none;stroke-opacity:1"
     d="m 47.246214,9.5005782 c 0,0 2.06263,2.0626298 2.06263,2.0626298"
     id="path44" />
  <path
     style="fill:#ffffff;fill-opacity:1;fill-rule:evenodd;stroke:none"
     d="m 47.996261,10.750657 c 0,0 -36.314787,35.814756 -36.314787,35.814756 z"
     id="path45" />
  <path
     style="fill:none;stroke:#000000;stroke-width:0.500031px;stroke-linecap:round;stroke-linejoin:round;stroke-miterlimit:4;stroke-dasharray:none;stroke-opacity:1"
     d="m 47.996261,10.750657 c 0,0 -36.314787,35.814756 -36.314787,35.814756"
     id="path46" />
  <path
     style="fill:#ffffff;fill-opacity:1;fill-rule:evenodd;stroke:none"
     d="m 47.621238,10.375633 c 0,0 -36.502299,35.56474 -36.502299,35.56474 z"
     id="path47" />
  <path
     style="fill:none;stroke:#000000;stroke-width:0.500031px;stroke-linecap:round;stroke-linejoin:round;stroke-miterlimit:4;stroke-dasharray:none;stroke-opacity:1"
     d="m 47.621238,10.375633 c 0,0 -36.502299,35.56474 -36.502299,35.56474"
     id="path48" />
  <path
     style="fill:#ffffff;fill-opacity:1;fill-rule:evenodd;stroke:none"
     d="m 47.246214,10.00061 c 0,0 -36.627307,35.502236 -36.627307,35.502236 z"
     id="path49" />
  <path
     style="fill:none;stroke:#000000;stroke-width:0.500031px;stroke-linecap:round;stroke-linejoin:round;stroke-miterlimit:4;stroke-dasharray:none;stroke-opacity:1"
     d="m 47.246214,10.00061 c 0,0 -36.627307,35.502236 -36.627307,35.502236"
     id="path50" />
  <path
     style="fill:#ffffff;fill-opacity:1;fill-rule:evenodd;stroke:none"
     d="m 48.308781,11.063176 c 0,0 -35.939764,36.127276 -35.939764,36.127276 z"
     id="path51" />
  <path
     style="fill:none;stroke:#000000;stroke-width:0.500031px;stroke-linecap:round;stroke-linejoin:round;stroke-miterlimit:4;stroke-dasharray:none;stroke-opacity:1"
     d="m 48.308781,11.063176 c 0,0 -35.939764,36.127276 -35.939764,36.127276"
     id="path52" />
  <path
     style="fill:#ffffff;fill-opacity:1;fill-rule:evenodd;stroke:none"
     d="m 48.558797,11.313192 c 0,0 -35.689748,36.439795 -35.689748,36.439795 z"
     id="path53" />
  <path
     style="fill:none;stroke:#000000;stroke-width:0.500031px;stroke-linecap:round;stroke-linejoin:round;stroke-miterlimit:4;stroke-dasharray:none;stroke-opacity:1"
     d="m 48.558797,11.313192 c 0,0 -35.689748,36.439795 -35.689748,36.439795"
     id="path54" />
  <path
     style="fill:#ffffff;fill-opacity:1;fill-rule:evenodd;stroke:none"
     d="m 48.93382,11.688216 c 0,0 -35.56474,36.502299 -35.56474,36.502299 z"
     id="path55" />
  <path
     style="fill:none;stroke:#000000;stroke-width:0.500031px;stroke-linecap:round;stroke-linejoin:round;stroke-miterlimit:4;stroke-dasharray:none;stroke-opacity:1"
     d="m 48.93382,11.688216 c 0,0 -35.56474,36.502299 -35.56474,36.502299"
     id="path56" />
  <path
     style="fill:#ffffff;fill-opacity:1;fill-rule:evenodd;stroke:none"
     d="m 21.6196,30.189381 c 0.31252,0.375024 0.31252,0.875055 0,1.250079 -0.375024,0.31252 -0.937559,0.31252 -1.250079,0 -0.375023,-0.375024 -0.375023,-0.875055 0,-1.250079 0.31252,-0.312519 0.875055,-0.312519 1.250079,0 z"
     id="path57" />
  <path
     style="fill:none;stroke:#000000;stroke-width:0.500031px;stroke-linecap:round;stroke-linejoin:round;stroke-miterlimit:4;stroke-dasharray:none;stroke-opacity:1"
     d="m 21.6196,30.189381 c 0.31252,0.375024 0.31252,0.875055 0,1.250079 -0.375024,0.31252 -0.937559,0.31252 -1.250079,0 -0.375023,-0.375024 -0.375023,-0.875055 0,-1.250079 0.31252,-0.312519 0.875055,-0.312519 1.250079,0"
     id="path58" />
  <path
     style="fill:#ffffff;fill-opacity:1;fill-rule:evenodd;stroke:none"
     d="m 13.119065,53.628358 c 0.250015,0.250015 0.250015,0.625039 0,0.875055 -0.250016,0.250015 -0.62504,0.250015 -0.812552,0 -0.250015,-0.250016 -0.250015,-0.62504 0,-0.875055 0.187512,-0.250016 0.562536,-0.250016 0.812552,0 z"
     id="path59" />
  <path
     style="fill:none;stroke:#000000;stroke-width:0.500031px;stroke-linecap:round;stroke-linejoin:round;stroke-miterlimit:4;stroke-dasharray:none;stroke-opacity:1"
     d="m 13.119065,53.628358 c 0.250015,0.250015 0.250015,0.625039 0,0.875055 -0.250016,0.250015 -0.62504,0.250015 -0.812552,0 -0.250015,-0.250016 -0.250015,-0.62504 0,-0.875055 0.187512,-0.250016 0.562536,-0.250016 0.812552,0"
     id="path60" />
  <path
     style="fill:#ffffff;fill-opacity:1;fill-rule:evenodd;stroke:none"
     d="m 16.119254,50.878184 c 0.187511,0.250016 0.187511,0.62504 0,0.812552 -0.250016,0.250015 -0.62504,0.250015 -0.875056,0 -0.250015,-0.187512 -0.250015,-0.562536 0,-0.812552 0.250016,-0.250015 0.62504,-0.250015 0.875056,0 z"
     id="path61" />
  <path
     style="fill:none;stroke:#000000;stroke-width:0.500031px;stroke-linecap:round;stroke-linejoin:round;stroke-miterlimit:4;stroke-dasharray:none;stroke-opacity:1"
     d="m 16.119254,50.878184 c 0.187511,0.250016 0.187511,0.62504 0,0.812552 -0.250016,0.250015 -0.62504,0.250015 -0.875056,0 -0.250015,-0.187512 -0.250015,-0.562536 0,-0.812552 0.250016,-0.250015 0.62504,-0.250015 0.875056,0"
     id="path62" />
  <path
     style="fill:#ffffff;fill-opacity:1;fill-rule:evenodd;stroke:none"
     d="m 16.869301,55.065948 c 0.250016,0.250016 0.250016,0.625039 0,0.875055 -0.250016,0.250016 -0.62504,0.250016 -0.875055,0 -0.250016,-0.250016 -0.250016,-0.625039 0,-0.875055 0.250015,-0.250016 0.625039,-0.250016 0.875055,0 z"
     id="path63" />
  <path
     style="fill:none;stroke:#000000;stroke-width:0.500031px;stroke-linecap:round;stroke-linejoin:round;stroke-miterlimit:4;stroke-dasharray:none;stroke-opacity:1"
     d="m 16.869301,55.065948 c 0.250016,0.250016 0.250016,0.625039 0,0.875055 -0.250016,0.250016 -0.62504,0.250016 -0.875055,0 -0.250016,-0.250016 -0.250016,-0.625039 0,-0.875055 0.250015,-0.250016 0.625039,-0.250016 0.875055,0"
     id="path64" />
  <path
     style="fill:#ffffff;fill-opacity:1;fill-rule:evenodd;stroke:none"
     d="m 19.806986,52.315775 c 0.250016,0.187512 0.250016,0.625039 0,0.812551 -0.250016,0.250016 -0.62504,0.250016 -0.875055,0 -0.187512,-0.187512 -0.187512,-0.625039 0,-0.812551 0.250015,-0.250016 0.625039,-0.250016 0.875055,0 z"
     id="path65" />
  <path
     style="fill:none;stroke:#000000;stroke-width:0.500031px;stroke-linecap:round;stroke-linejoin:round;stroke-miterlimit:4;stroke-dasharray:none;stroke-opacity:1"
     d="m 19.806986,52.315775 c 0.250016,0.187512 0.250016,0.625039 0,0.812551 -0.250016,0.250016 -0.62504,0.250016 -0.875055,0 -0.187512,-0.187512 -0.187512,-0.625039 0,-0.812551 0.250015,-0.250016 0.625039,-0.250016 0.875055,0"
     id="path66" />
</svg>
