<?xml version="1.0" encoding="UTF-8" standalone="no"?>
<svg
   version="1.0"
   width="5.6429825mm"
   height="9.4098349mm"
   id="svg26"
   xmlns="http://www.w3.org/2000/svg"
   xmlns:svg="http://www.w3.org/2000/svg">
  <defs
     id="defs1">
    <pattern
       id="EMFhbasepattern"
       patternUnits="userSpaceOnUse"
       width="6"
       height="6"
       x="0"
       y="0" />
  </defs>
  <path
     style="fill:#ffffff;fill-opacity:1;fill-rule:evenodd;stroke:none"
     d="m 10.00063,13.938377 c -2.9376852,0 -2.9376852,2.562662 -2.9376852,2.562662 0,0 0.5000315,0 0.5000315,0 0,0 0,-2.250142 2.4376537,-2.250142 2.37515,0 2.37515,2.312646 2.37515,2.312646 0,0 0.500031,0 0.500031,0 0,0 0,-2.625166 -2.875181,-2.625166 z"
     id="path1" />
  <path
     style="fill:none;stroke:#000000;stroke-width:0.500031px;stroke-linecap:round;stroke-linejoin:round;stroke-miterlimit:4;stroke-dasharray:none;stroke-opacity:1"
     d="m 10.00063,13.938377 c -2.9376852,0 -2.9376852,2.562662 -2.9376852,2.562662 0,0 0.5000315,0 0.5000315,0 0,0 0,-2.250142 2.4376537,-2.250142 2.37515,0 2.37515,2.312646 2.37515,2.312646 0,0 0.500031,0 0.500031,0 0,0 0,-2.625166 -2.875181,-2.625166"
     id="path2" />
  <path
     style="fill:#ffffff;fill-opacity:1;fill-rule:evenodd;stroke:none"
     d="m 15.313465,33.814629 c 0,0 2.375149,1.500095 2.375149,1.500095 0,0 0.31252,-0.62504 0.31252,-0.62504 0,0 -1.75011,-1.12507 -1.75011,-1.12507 z"
     id="path3" />
  <path
     style="fill:none;stroke:#000000;stroke-width:0.500031px;stroke-linecap:round;stroke-linejoin:round;stroke-miterlimit:4;stroke-dasharray:none;stroke-opacity:1"
     d="m 15.313465,33.814629 c 0,0 2.375149,1.500095 2.375149,1.500095 0,0 0.31252,-0.62504 0.31252,-0.62504 0,0 -1.75011,-1.12507 -1.75011,-1.12507"
     id="path4" />
  <path
     style="fill:#ffffff;fill-opacity:1;fill-rule:evenodd;stroke:none"
     d="m 6.5629133,33.814629 c 0,0 -2.3751496,1.500095 -2.3751496,1.500095 0,0 -0.3125197,-0.62504 -0.3125197,-0.62504 0,0 1.7501103,-1.12507 1.7501103,-1.12507 z"
     id="path5" />
  <path
     style="fill:none;stroke:#000000;stroke-width:0.500031px;stroke-linecap:round;stroke-linejoin:round;stroke-miterlimit:4;stroke-dasharray:none;stroke-opacity:1"
     d="m 6.5629133,33.814629 c 0,0 -2.3751496,1.500095 -2.3751496,1.500095 0,0 -0.3125197,-0.62504 -0.3125197,-0.62504 0,0 1.7501103,-1.12507 1.7501103,-1.12507"
     id="path6" />
  <path
     style="fill:#ffffff;fill-opacity:1;fill-rule:evenodd;stroke:none"
     d="m 8.2505199,9.6881101 c 0,-0.875055 -1.1875751,-2.312646 -1.1875751,-2.312646 0,0 0.3750237,-1.5000945 0.3125197,-3.2502047 C 7.2504566,2.4376531 6.7504251,0.81255069 6.7504251,0.81255069 c 0,0 2.6876698,-0.5625354 2.6876698,-0.5625354 0,0 3.2502041,0.5625354 3.2502041,0.5625354 0,0 -0.562535,1.81261421 -0.625039,3.56272441 -0.0625,1.5000945 0.31252,3.000189 0.31252,3.000189 0,0 -1.187575,1.187575 -1.187575,2.312646 0,0 0.500031,8.3130229 0.875055,11.0006929 0.125008,0.875055 1.812614,1.187574 2.375149,1.187574 1.437591,0 1.812615,-0.937559 2.937686,-0.937559 0.937559,0 0.750047,2.68767 0.750047,3.250205 0,0.31252 -0.250016,0.875055 -0.250016,0.875055 0.625039,0.250016 2.500158,0.937559 3.062693,2.125134 0.31252,0.562535 0,2.37515 0,3.250205 0,2.625165 -4.687795,3.81274 -9.750614,3.81274 -5.5003468,0 -10.93818926,-1.437591 -10.93818926,-3.500221 0,-1.375086 0,-3.312708 0,-3.312708 0,-1.187575 2.87518106,-2.125134 2.68766926,-2.312646 -0.3125197,-0.31252 -0.8125512,-2.812677 0,-3.875244 1.1250709,-1.687606 5.3128349,-1.500094 5.3128349,-1.500094 z"
     id="path7" />
  <path
     style="fill:none;stroke:#000000;stroke-width:0.500031px;stroke-linecap:round;stroke-linejoin:round;stroke-miterlimit:4;stroke-dasharray:none;stroke-opacity:1"
     d="m 8.2505199,9.6881101 c 0,-0.875055 -1.1875751,-2.312646 -1.1875751,-2.312646 0,0 0.3750237,-1.5000945 0.3125197,-3.2502047 C 7.2504566,2.4376531 6.7504251,0.81255069 6.7504251,0.81255069 c 0,0 2.6876698,-0.5625354 2.6876698,-0.5625354 0,0 3.2502041,0.5625354 3.2502041,0.5625354 0,0 -0.562535,1.81261421 -0.625039,3.56272441 -0.0625,1.5000945 0.31252,3.000189 0.31252,3.000189 0,0 -1.187575,1.187575 -1.187575,2.312646 0,0 0.500031,8.3130229 0.875055,11.0006929 0.125008,0.875055 1.812614,1.187574 2.375149,1.187574 1.437591,0 1.812615,-0.937559 2.937686,-0.937559 0.937559,0 0.750047,2.68767 0.750047,3.250205 0,0.31252 -0.250016,0.875055 -0.250016,0.875055 0.625039,0.250016 2.500158,0.937559 3.062693,2.125134 0.31252,0.562535 0,2.37515 0,3.250205 0,2.625165 -4.687795,3.81274 -9.750614,3.81274 -5.5003468,0 -10.93818926,-1.437591 -10.93818926,-3.500221 0,-1.375086 0,-3.312708 0,-3.312708 0,-1.187575 2.87518106,-2.125134 2.68766926,-2.312646 -0.3125197,-0.31252 -0.8125512,-2.812677 0,-3.875244 1.1250709,-1.687606 5.3128349,-1.500094 5.3128349,-1.500094 0,0 0,-10.0631339 0,-10.0631339"
     id="path8" />
  <path
     style="fill:#ffffff;fill-opacity:1;fill-rule:evenodd;stroke:none"
     d="m 0.25001574,29.814377 c 0,-1.187574 4.62529126,-3.000189 4.43777946,-3.250204 C 4.3752755,26.314157 2.0001259,24.814062 2.937685,23.626488 4.1252598,22.001385 8.4380319,22.126393 8.4380319,22.126393 Z"
     id="path9" />
  <path
     style="fill:none;stroke:#000000;stroke-width:0.500031px;stroke-linecap:round;stroke-linejoin:round;stroke-miterlimit:4;stroke-dasharray:none;stroke-opacity:1"
     d="m 0.25001574,29.814377 c 0,-1.187574 4.62529126,-3.000189 4.43777946,-3.250204 C 4.3752755,26.314157 2.0001259,24.814062 2.937685,23.626488 4.1252598,22.001385 8.4380319,22.126393 8.4380319,22.126393"
     id="path10" />
  <path
     style="fill:#ffffff;fill-opacity:1;fill-rule:evenodd;stroke:none"
     d="m 20.938819,30.126897 c 0,-1.187575 -4.687795,-3.312709 -4.500284,-3.562724 0.31252,-0.250016 2.437654,-2.937685 0.93756,-2.937685 -0.31252,0 -1.125071,0.562535 -2.625166,0.562535 -1.500094,0 -2.250142,-0.250016 -2.812677,-0.937559 z"
     id="path11" />
  <path
     style="fill:none;stroke:#000000;stroke-width:0.500031px;stroke-linecap:round;stroke-linejoin:round;stroke-miterlimit:4;stroke-dasharray:none;stroke-opacity:1"
     d="m 20.938819,30.126897 c 0,-1.187575 -4.687795,-3.312709 -4.500284,-3.562724 0.31252,-0.250016 2.437654,-2.937685 0.93756,-2.937685 -0.31252,0 -1.125071,0.562535 -2.625166,0.562535 -1.500094,0 -2.250142,-0.250016 -2.812677,-0.937559"
     id="path12" />
  <path
     style="fill:#ffffff;fill-opacity:1;fill-rule:evenodd;stroke:none"
     d="m 6.6254173,4.6877948 c 0.3750236,0 0.7500472,0.1875118 0.7500472,0.4375276 0,0.2500157 -0.3750236,0.4375275 -0.7500472,0.4375275 -0.4375276,0 -0.7500473,-0.1875118 -0.7500473,-0.4375275 0,-0.2500158 0.3125197,-0.4375276 0.7500473,-0.4375276 z"
     id="path13" />
  <path
     style="fill:none;stroke:#000000;stroke-width:0.500031px;stroke-linecap:round;stroke-linejoin:round;stroke-miterlimit:4;stroke-dasharray:none;stroke-opacity:1"
     d="m 6.6254173,4.6877948 c 0.3750236,0 0.7500472,0.1875118 0.7500472,0.4375276 0,0.2500157 -0.3750236,0.4375275 -0.7500472,0.4375275 -0.4375276,0 -0.7500473,-0.1875118 -0.7500473,-0.4375275 0,-0.2500158 0.3125197,-0.4375276 0.7500473,-0.4375276"
     id="path14" />
  <path
     style="fill:#ffffff;fill-opacity:1;fill-rule:evenodd;stroke:none"
     d="m 6.6254173,2.9376846 c 0.3750236,0 0.7500472,0.2500157 0.7500472,0.5625354 0,0.3125197 -0.3750236,0.6250394 -0.7500472,0.6250394 -0.4375276,0 -0.7500473,-0.3125197 -0.7500473,-0.6250394 0,-0.3125197 0.3125197,-0.5625354 0.7500473,-0.5625354 z"
     id="path15" />
  <path
     style="fill:none;stroke:#000000;stroke-width:0.500031px;stroke-linecap:round;stroke-linejoin:round;stroke-miterlimit:4;stroke-dasharray:none;stroke-opacity:1"
     d="m 6.6254173,2.9376846 c 0.3750236,0 0.7500472,0.2500157 0.7500472,0.5625354 0,0.3125197 -0.3750236,0.6250394 -0.7500472,0.6250394 -0.4375276,0 -0.7500473,-0.3125197 -0.7500473,-0.6250394 0,-0.3125197 0.3125197,-0.5625354 0.7500473,-0.5625354"
     id="path16" />
  <path
     style="fill:#ffffff;fill-opacity:1;fill-rule:evenodd;stroke:none"
     d="m 6.3128976,1.1250704 c 0.3750236,0 0.7500472,0.2500157 0.7500472,0.6250394 0,0.3125196 -0.3750236,0.5625354 -0.7500472,0.5625354 -0.4375276,0 -0.7500473,-0.2500158 -0.7500473,-0.5625354 0,-0.3750237 0.3125197,-0.6250394 0.7500473,-0.6250394 z"
     id="path17" />
  <path
     style="fill:none;stroke:#000000;stroke-width:0.500031px;stroke-linecap:round;stroke-linejoin:round;stroke-miterlimit:4;stroke-dasharray:none;stroke-opacity:1"
     d="m 6.3128976,1.1250704 c 0.3750236,0 0.7500472,0.2500157 0.7500472,0.6250394 0,0.3125196 -0.3750236,0.5625354 -0.7500472,0.5625354 -0.4375276,0 -0.7500473,-0.2500158 -0.7500473,-0.5625354 0,-0.3750237 0.3125197,-0.6250394 0.7500473,-0.6250394"
     id="path18" />
  <path
     style="fill:#ffffff;fill-opacity:1;fill-rule:evenodd;stroke:none"
     d="m 13.125827,1.4375901 c 0.375023,0 0.750047,0.1875118 0.750047,0.4375275 0,0.2500158 -0.375024,0.4375276 -0.750047,0.4375276 -0.437528,0 -0.750047,-0.1875118 -0.750047,-0.4375276 0,-0.2500157 0.312519,-0.4375275 0.750047,-0.4375275 z"
     id="path19" />
  <path
     style="fill:none;stroke:#000000;stroke-width:0.500031px;stroke-linecap:round;stroke-linejoin:round;stroke-miterlimit:4;stroke-dasharray:none;stroke-opacity:1"
     d="m 13.125827,1.4375901 c 0.375023,0 0.750047,0.1875118 0.750047,0.4375275 0,0.2500158 -0.375024,0.4375276 -0.750047,0.4375276 -0.437528,0 -0.750047,-0.1875118 -0.750047,-0.4375276 0,-0.2500157 0.312519,-0.4375275 0.750047,-0.4375275"
     id="path20" />
  <path
     style="fill:#ffffff;fill-opacity:1;fill-rule:evenodd;stroke:none"
     d="m 12.813307,2.9376846 c 0.437528,0 0.750047,0.2500157 0.750047,0.5625354 0,0.3125197 -0.312519,0.6250394 -0.750047,0.6250394 -0.375023,0 -0.750047,-0.3125197 -0.750047,-0.6250394 0,-0.3125197 0.375024,-0.5625354 0.750047,-0.5625354 z"
     id="path21" />
  <path
     style="fill:none;stroke:#000000;stroke-width:0.500031px;stroke-linecap:round;stroke-linejoin:round;stroke-miterlimit:4;stroke-dasharray:none;stroke-opacity:1"
     d="m 12.813307,2.9376846 c 0.437528,0 0.750047,0.2500157 0.750047,0.5625354 0,0.3125197 -0.312519,0.6250394 -0.750047,0.6250394 -0.375023,0 -0.750047,-0.3125197 -0.750047,-0.6250394 0,-0.3125197 0.375024,-0.5625354 0.750047,-0.5625354"
     id="path22" />
  <path
     style="fill:#ffffff;fill-opacity:1;fill-rule:evenodd;stroke:none"
     d="m 12.813307,4.6877948 c 0.437528,0 0.750047,0.2500157 0.750047,0.5625354 0,0.3750237 -0.312519,0.6250394 -0.750047,0.6250394 -0.375023,0 -0.750047,-0.2500157 -0.750047,-0.6250394 0,-0.3125197 0.375024,-0.5625354 0.750047,-0.5625354 z"
     id="path23" />
  <path
     style="fill:none;stroke:#000000;stroke-width:0.500031px;stroke-linecap:round;stroke-linejoin:round;stroke-miterlimit:4;stroke-dasharray:none;stroke-opacity:1"
     d="m 12.813307,4.6877948 c 0.437528,0 0.750047,0.2500157 0.750047,0.5625354 0,0.3750237 -0.312519,0.6250394 -0.750047,0.6250394 -0.375023,0 -0.750047,-0.2500157 -0.750047,-0.6250394 0,-0.3125197 0.375024,-0.5625354 0.750047,-0.5625354"
     id="path24" />
  <path
     style="fill:#ffffff;fill-opacity:1;fill-rule:evenodd;stroke:none"
     d="m 8.2505199,9.6881101 c 0,0 2.9376851,0 2.9376851,0 0,0 0.875055,15.6884879 0.875055,15.6884879 0,0 -3.5627251,0 -3.5627251,0 z"
     id="path25" />
  <path
     style="fill:none;stroke:#000000;stroke-width:0.500031px;stroke-linecap:round;stroke-linejoin:round;stroke-miterlimit:4;stroke-dasharray:none;stroke-opacity:1"
     d="m 8.2505199,9.6881101 c 0,0 2.9376851,0 2.9376851,0 0,0 0.875055,15.6884879 0.875055,15.6884879 0,0 -3.5627251,0 -3.5627251,0 0,0 -0.250015,-15.6884879 -0.250015,-15.6884879"
     id="path26" />
</svg>
