<?xml version="1.0" encoding="UTF-8" standalone="no"?>
<svg
   version="1.0"
   width="16.052691mm"
   height="15.290399mm"
   id="svg54"
   xmlns="http://www.w3.org/2000/svg"
   xmlns:svg="http://www.w3.org/2000/svg">
  <defs
     id="defs1">
    <pattern
       id="EMFhbasepattern"
       patternUnits="userSpaceOnUse"
       width="6"
       height="6"
       x="0"
       y="0" />
  </defs>
  <path
     style="fill:#ffffff;fill-opacity:1;fill-rule:evenodd;stroke:none"
     d="m 5.730627,52.554342 c 0,0 -7.1254488,-6.250394 -5.12532284,-12.000756 1.81261424,-5.125323 9.43809484,-5.750362 12.06325984,-7.437969 3.187701,-2.187637 2.812677,-7.750488 7.687984,-10.938188 1.937622,-1.250079 5.187827,-0.562536 4.000252,0.625039 -0.687543,0.687543 -2.250142,3.687732 -2.250142,4.875307 0,1.937622 3.812741,0.125008 4.875308,2.000126 1.375086,2.437653 -2.312646,4.875307 -1.187575,6.875433 1.062567,1.812614 6.937937,-0.687543 7.187952,0.562535 0.875056,4.875308 -6.562913,6.000378 -8.000503,7.437969 -1.500095,1.437591 -1.750111,10.00063 -8.063008,12.625795 -4.7503,1.937622 -11.188205,-4.625291 -11.188205,-4.625291 z"
     id="path1" />
  <path
     style="fill:none;stroke:#000000;stroke-width:0.500031px;stroke-linecap:round;stroke-linejoin:round;stroke-miterlimit:4;stroke-dasharray:none;stroke-opacity:1"
     d="m 5.730627,52.554342 c 0,0 -7.1254488,-6.250394 -5.12532284,-12.000756 1.81261424,-5.125323 9.43809484,-5.750362 12.06325984,-7.437969 3.187701,-2.187637 2.812677,-7.750488 7.687984,-10.938188 1.937622,-1.250079 5.187827,-0.562536 4.000252,0.625039 -0.687543,0.687543 -2.250142,3.687732 -2.250142,4.875307 0,1.937622 3.812741,0.125008 4.875308,2.000126 1.375086,2.437653 -2.312646,4.875307 -1.187575,6.875433 1.062567,1.812614 6.937937,-0.687543 7.187952,0.562535 0.875056,4.875308 -6.562913,6.000378 -8.000503,7.437969 -1.500095,1.437591 -1.750111,10.00063 -8.063008,12.625795 -4.7503,1.937622 -11.188205,-4.625291 -11.188205,-4.625291"
     id="path2" />
  <path
     style="fill:#ffffff;fill-opacity:1;fill-rule:evenodd;stroke:none"
     d="m 12.543556,43.491271 c 0,0 -3.4377159,-2.562661 -2.312646,-4.312772 2.06263,-3.062693 6.000378,-3.687732 7.187953,-4.562787 2.187638,-1.687606 1.375087,-3.437717 3.687732,-4.562787 0.437528,-0.250016 0.750048,-0.31252 1.125071,0 2.875181,1.937622 0.31252,5.750362 3.187701,7.687984 2.06263,1.43759 5.56285,-0.875055 6.000378,0 1.125071,2.312645 -4.312772,3.750236 -6.875433,5.437842 -2.06263,1.375087 -4.250268,13.875874 -6.250394,10.188142 -0.687543,-1.312583 1.125071,-4.437779 -6.062882,-10.188142 z"
     id="path3" />
  <path
     style="fill:none;stroke:#000000;stroke-width:0.500031px;stroke-linecap:round;stroke-linejoin:round;stroke-miterlimit:4;stroke-dasharray:none;stroke-opacity:1"
     d="m 12.543556,43.491271 c 0,0 -3.4377159,-2.562661 -2.312646,-4.312772 2.06263,-3.062693 6.000378,-3.687732 7.187953,-4.562787 2.187638,-1.687606 1.375087,-3.437717 3.687732,-4.562787 0.437528,-0.250016 0.750048,-0.31252 1.125071,0 2.875181,1.937622 0.31252,5.750362 3.187701,7.687984 2.06263,1.43759 5.56285,-0.875055 6.000378,0 1.125071,2.312645 -4.312772,3.750236 -6.875433,5.437842 -2.06263,1.375087 -4.250268,13.875874 -6.250394,10.188142 -0.687543,-1.312583 1.125071,-4.437779 -6.062882,-10.188142"
     id="path4" />
  <path
     style="fill:#ffffff;fill-opacity:1;fill-rule:evenodd;stroke:none"
     d="m 19.669005,34.053177 c 0.250016,-0.250016 1.375086,0.375023 2.437653,1.43759 0,0 0,0 0,0 1.062567,1.062567 1.687607,2.125134 1.437591,2.437654 0,0 0,0 0,0 -0.31252,0.250015 -1.375087,-0.375024 -2.437654,-1.437591 0,0 0,0 0,0 -1.062566,-1.062567 -1.75011,-2.125134 -1.43759,-2.437653 z"
     id="path5" />
  <path
     style="fill:none;stroke:#000000;stroke-width:0.500031px;stroke-linecap:round;stroke-linejoin:round;stroke-miterlimit:4;stroke-dasharray:none;stroke-opacity:1"
     d="m 19.669005,34.053177 c 0.250016,-0.250016 1.375086,0.375023 2.437653,1.43759 0,0 0,0 0,0 1.062567,1.062567 1.687607,2.125134 1.437591,2.437654 0,0 0,0 0,0 -0.31252,0.250015 -1.375087,-0.375024 -2.437654,-1.437591 0,0 0,0 0,0 -1.062566,-1.062567 -1.75011,-2.125134 -1.43759,-2.437653 0,0 0,0 0,0"
     id="path6" />
  <path
     style="fill:#ffffff;fill-opacity:1;fill-rule:evenodd;stroke:none"
     d="m 16.231288,37.240877 c 0.250016,-0.312519 1.375087,0.31252 2.437654,1.375087 0,0 0,0 0,0 1.062567,1.062567 1.687606,2.187638 1.43759,2.437653 0,0 0,0 0,0 -0.312519,0.31252 -1.375086,-0.312519 -2.437653,-1.375086 0,0 0,0 0,0 -1.062567,-1.062567 -1.75011,-2.187638 -1.437591,-2.437654 z"
     id="path7" />
  <path
     style="fill:none;stroke:#000000;stroke-width:0.500031px;stroke-linecap:round;stroke-linejoin:round;stroke-miterlimit:4;stroke-dasharray:none;stroke-opacity:1"
     d="m 16.231288,37.240877 c 0.250016,-0.312519 1.375087,0.31252 2.437654,1.375087 0,0 0,0 0,0 1.062567,1.062567 1.687606,2.187638 1.43759,2.437653 0,0 0,0 0,0 -0.312519,0.31252 -1.375086,-0.312519 -2.437653,-1.375086 0,0 0,0 0,0 -1.062567,-1.062567 -1.75011,-2.187638 -1.437591,-2.437654 0,0 0,0 0,0"
     id="path8" />
  <path
     style="fill:#ffffff;fill-opacity:1;fill-rule:evenodd;stroke:none"
     d="m 12.60606,40.866106 c 0.31252,-0.250016 1.250079,0.562535 2.125134,1.75011 0,0 0,0 0,0 0.937559,1.250079 1.375086,2.437653 1.062567,2.625165 0,0 0,0 0,0 -0.31252,0.250016 -1.312583,-0.562535 -2.187638,-1.75011 0,0 0,0 0,0 -0.875055,-1.250079 -1.375087,-2.37515 -1.000063,-2.625165 z"
     id="path9" />
  <path
     style="fill:none;stroke:#000000;stroke-width:0.500031px;stroke-linecap:round;stroke-linejoin:round;stroke-miterlimit:4;stroke-dasharray:none;stroke-opacity:1"
     d="m 12.60606,40.866106 c 0.31252,-0.250016 1.250079,0.562535 2.125134,1.75011 0,0 0,0 0,0 0.937559,1.250079 1.375086,2.437653 1.062567,2.625165 0,0 0,0 0,0 -0.31252,0.250016 -1.312583,-0.562535 -2.187638,-1.75011 0,0 0,0 0,0 -0.875055,-1.250079 -1.375087,-2.37515 -1.000063,-2.625165 0,0 0,0 0,0"
     id="path10" />
  <path
     style="fill:#ffffff;fill-opacity:1;fill-rule:evenodd;stroke:none"
     d="m 46.983225,8.6140737 c 0,0 2.250142,2.3126463 2.250142,2.3126463 0,0 -25.189087,25.501606 -25.189087,25.501606 0,0 -2.875181,-2.875181 -2.875181,-2.875181 z"
     id="path11" />
  <path
     style="fill:none;stroke:#000000;stroke-width:0.500031px;stroke-linecap:round;stroke-linejoin:round;stroke-miterlimit:4;stroke-dasharray:none;stroke-opacity:1"
     d="m 46.983225,8.6140737 c 0,0 2.250142,2.3126463 2.250142,2.3126463 0,0 -25.189087,25.501606 -25.189087,25.501606 0,0 -2.875181,-2.875181 -2.875181,-2.875181 0,0 25.814126,-24.9390713 25.814126,-24.9390713"
     id="path12" />
  <path
     style="fill:#ffffff;fill-opacity:1;fill-rule:evenodd;stroke:none"
     d="m 46.983225,8.6140737 c 0,0 0.375024,-0.3750236 0.562536,-0.8125512 0.250016,-0.8750551 -0.31252,-1.4375906 0,-1.7501102 0.250016,-0.2500158 10.563165,-5.37533859 10.875685,-5.43784259 1.43759,-0.3125196 2.000126,1.12507089 2.000126,1.75011029 0,1.1250708 -0.875055,2.3751496 -2.000126,2.000126 -0.875055,-0.3125197 -0.562536,-0.8750552 -1.75011,0.2500157 -1.437591,1.5000945 -2.812678,4.3127718 -3.437717,4.8753068 -0.250016,0.31252 -0.812551,-0.562535 -2.562661,0.31252 -0.812552,0.3750245 -1.437591,1.1250715 -1.437591,1.1250715 z"
     id="path13" />
  <path
     style="fill:none;stroke:#000000;stroke-width:0.500031px;stroke-linecap:round;stroke-linejoin:round;stroke-miterlimit:4;stroke-dasharray:none;stroke-opacity:1"
     d="m 46.983225,8.6140737 c 0,0 0.375024,-0.3750236 0.562536,-0.8125512 0.250016,-0.8750551 -0.31252,-1.4375906 0,-1.7501102 0.250016,-0.2500158 10.563165,-5.37533859 10.875685,-5.43784259 1.43759,-0.3125196 2.000126,1.12507089 2.000126,1.75011029 0,1.1250708 -0.875055,2.3751496 -2.000126,2.000126 -0.875055,-0.3125197 -0.562536,-0.8750552 -1.75011,0.2500157 -1.437591,1.5000945 -2.812678,4.3127718 -3.437717,4.8753068 -0.250016,0.31252 -0.812551,-0.562535 -2.562661,0.31252 -0.812552,0.3750245 -1.437591,1.1250715 -1.437591,1.1250715"
     id="path14" />
  <path
     style="fill:#ffffff;fill-opacity:1;fill-rule:evenodd;stroke:none"
     d="m 49.108359,6.5514438 c 0.125008,0.1875118 0.0625,0.4375275 -0.187512,0.5625354 -0.187511,0.1250079 -0.437527,0 -0.562535,-0.1875118 -0.125008,-0.1875118 0,-0.5000315 0.187512,-0.5625355 0.187512,-0.1250078 0.437527,-0.062504 0.562535,0.1875119 z"
     id="path15" />
  <path
     style="fill:none;stroke:#000000;stroke-width:0.500031px;stroke-linecap:round;stroke-linejoin:round;stroke-miterlimit:4;stroke-dasharray:none;stroke-opacity:1"
     d="m 49.108359,6.5514438 c 0.125008,0.1875118 0.0625,0.4375275 -0.187512,0.5625354 -0.187511,0.1250079 -0.437527,0 -0.562535,-0.1875118 -0.125008,-0.1875118 0,-0.5000315 0.187512,-0.5625355 0.187512,-0.1250078 0.437527,-0.062504 0.562535,0.1875119"
     id="path16" />
  <path
     style="fill:#ffffff;fill-opacity:1;fill-rule:evenodd;stroke:none"
     d="m 50.795966,5.6763886 c 0.125007,0.1875118 0,0.4375276 -0.187512,0.5625355 -0.187512,0.1250078 -0.437528,0.062504 -0.562536,-0.1875118 -0.125008,-0.1875119 -0.0625,-0.4375276 0.187512,-0.5625355 0.187512,-0.1250079 0.437528,0 0.562536,0.1875118 z"
     id="path17" />
  <path
     style="fill:none;stroke:#000000;stroke-width:0.500031px;stroke-linecap:round;stroke-linejoin:round;stroke-miterlimit:4;stroke-dasharray:none;stroke-opacity:1"
     d="m 50.795966,5.6763886 c 0.125007,0.1875118 0,0.4375276 -0.187512,0.5625355 -0.187512,0.1250078 -0.437528,0.062504 -0.562536,-0.1875118 -0.125008,-0.1875119 -0.0625,-0.4375276 0.187512,-0.5625355 0.187512,-0.1250079 0.437528,0 0.562536,0.1875118"
     id="path18" />
  <path
     style="fill:#ffffff;fill-opacity:1;fill-rule:evenodd;stroke:none"
     d="m 52.483572,4.8013335 c 0.125008,0.2500158 0,0.5000315 -0.187512,0.5625354 -0.187512,0.1250079 -0.437528,0.062504 -0.562535,-0.1875118 -0.125008,-0.1875118 -0.0625,-0.4375275 0.187511,-0.5625354 0.187512,-0.062504 0.437528,0 0.562536,0.1875118 z"
     id="path19" />
  <path
     style="fill:none;stroke:#000000;stroke-width:0.500031px;stroke-linecap:round;stroke-linejoin:round;stroke-miterlimit:4;stroke-dasharray:none;stroke-opacity:1"
     d="m 52.483572,4.8013335 c 0.125008,0.2500158 0,0.5000315 -0.187512,0.5625354 -0.187512,0.1250079 -0.437528,0.062504 -0.562535,-0.1875118 -0.125008,-0.1875118 -0.0625,-0.4375275 0.187511,-0.5625354 0.187512,-0.062504 0.437528,0 0.562536,0.1875118"
     id="path20" />
  <path
     style="fill:#ffffff;fill-opacity:1;fill-rule:evenodd;stroke:none"
     d="m 54.171178,3.9887823 c 0.125008,0.1875118 0,0.4375276 -0.187512,0.5625355 -0.187512,0.062504 -0.500031,0 -0.562535,-0.1875118 -0.125008,-0.2500158 -0.0625,-0.5000315 0.187512,-0.6250394 0.187511,-0.062504 0.437527,0 0.562535,0.2500157 z"
     id="path21" />
  <path
     style="fill:none;stroke:#000000;stroke-width:0.500031px;stroke-linecap:round;stroke-linejoin:round;stroke-miterlimit:4;stroke-dasharray:none;stroke-opacity:1"
     d="m 54.171178,3.9887823 c 0.125008,0.1875118 0,0.4375276 -0.187512,0.5625355 -0.187512,0.062504 -0.500031,0 -0.562535,-0.1875118 -0.125008,-0.2500158 -0.0625,-0.5000315 0.187512,-0.6250394 0.187511,-0.062504 0.437527,0 0.562535,0.2500157"
     id="path22" />
  <path
     style="fill:#ffffff;fill-opacity:1;fill-rule:evenodd;stroke:none"
     d="m 55.858784,3.1137272 c 0.125008,0.1875118 0,0.4375276 -0.187511,0.5625354 -0.187512,0.1250079 -0.500032,0 -0.562536,-0.1875118 -0.125008,-0.1875118 -0.0625,-0.5000315 0.187512,-0.5625354 0.187512,-0.1250079 0.437528,-0.062504 0.562535,0.1875118 z"
     id="path23" />
  <path
     style="fill:none;stroke:#000000;stroke-width:0.500031px;stroke-linecap:round;stroke-linejoin:round;stroke-miterlimit:4;stroke-dasharray:none;stroke-opacity:1"
     d="m 55.858784,3.1137272 c 0.125008,0.1875118 0,0.4375276 -0.187511,0.5625354 -0.187512,0.1250079 -0.500032,0 -0.562536,-0.1875118 -0.125008,-0.1875118 -0.0625,-0.5000315 0.187512,-0.5625354 0.187512,-0.1250079 0.437528,-0.062504 0.562535,0.1875118"
     id="path24" />
  <path
     style="fill:#ffffff;fill-opacity:1;fill-rule:evenodd;stroke:none"
     d="m 57.546391,2.2386721 c 0.125008,0.1875118 0,0.5000315 -0.187512,0.5625354 -0.187512,0.1250079 -0.500032,0.062504 -0.562536,-0.1875118 -0.125007,-0.1875118 -0.0625,-0.4375275 0.187512,-0.5625354 0.187512,-0.1250079 0.437528,0 0.562536,0.1875118 z"
     id="path25" />
  <path
     style="fill:none;stroke:#000000;stroke-width:0.500031px;stroke-linecap:round;stroke-linejoin:round;stroke-miterlimit:4;stroke-dasharray:none;stroke-opacity:1"
     d="m 57.546391,2.2386721 c 0.125008,0.1875118 0,0.5000315 -0.187512,0.5625354 -0.187512,0.1250079 -0.500032,0.062504 -0.562536,-0.1875118 -0.125007,-0.1875118 -0.0625,-0.4375275 0.187512,-0.5625354 0.187512,-0.1250079 0.437528,0 0.562536,0.1875118"
     id="path26" />
  <path
     style="fill:#ffffff;fill-opacity:1;fill-rule:evenodd;stroke:none"
     d="m 48.983351,4.6138217 c 0.250016,0.062504 0.250016,0.3750236 0,0.6250394 -0.250015,0.2500157 -0.687543,0.3750236 -0.937559,0.2500157 -0.250015,-0.062504 -0.250015,-0.3750236 0,-0.6250393 0.31252,-0.2500158 0.687544,-0.3750237 0.937559,-0.2500158 z"
     id="path27" />
  <path
     style="fill:none;stroke:#000000;stroke-width:0.500031px;stroke-linecap:round;stroke-linejoin:round;stroke-miterlimit:4;stroke-dasharray:none;stroke-opacity:1"
     d="m 48.983351,4.6138217 c 0.250016,0.062504 0.250016,0.3750236 0,0.6250394 -0.250015,0.2500157 -0.687543,0.3750236 -0.937559,0.2500157 -0.250015,-0.062504 -0.250015,-0.3750236 0,-0.6250393 0.31252,-0.2500158 0.687544,-0.3750237 0.937559,-0.2500158"
     id="path28" />
  <path
     style="fill:#ffffff;fill-opacity:1;fill-rule:evenodd;stroke:none"
     d="m 50.670958,3.7387666 c 0.250015,0.1250079 0.250015,0.3750236 0,0.6250394 -0.250016,0.2500157 -0.687544,0.3750236 -0.937559,0.3125196 -0.250016,-0.1250078 -0.250016,-0.4375275 0,-0.6875433 0.312519,-0.2500157 0.687543,-0.3750236 0.937559,-0.2500157 z"
     id="path29" />
  <path
     style="fill:none;stroke:#000000;stroke-width:0.500031px;stroke-linecap:round;stroke-linejoin:round;stroke-miterlimit:4;stroke-dasharray:none;stroke-opacity:1"
     d="m 50.670958,3.7387666 c 0.250015,0.1250079 0.250015,0.3750236 0,0.6250394 -0.250016,0.2500157 -0.687544,0.3750236 -0.937559,0.3125196 -0.250016,-0.1250078 -0.250016,-0.4375275 0,-0.6875433 0.312519,-0.2500157 0.687543,-0.3750236 0.937559,-0.2500157"
     id="path30" />
  <path
     style="fill:#ffffff;fill-opacity:1;fill-rule:evenodd;stroke:none"
     d="m 52.358564,2.8637115 c 0.250016,0.1250078 0.250016,0.4375275 0,0.6875433 -0.250016,0.2500157 -0.687543,0.3750236 -0.937559,0.2500157 -0.250016,-0.1250079 -0.250016,-0.3750236 0,-0.6250393 0.250016,-0.3125197 0.687543,-0.3750237 0.937559,-0.3125197 z"
     id="path31" />
  <path
     style="fill:none;stroke:#000000;stroke-width:0.500031px;stroke-linecap:round;stroke-linejoin:round;stroke-miterlimit:4;stroke-dasharray:none;stroke-opacity:1"
     d="m 52.358564,2.8637115 c 0.250016,0.1250078 0.250016,0.4375275 0,0.6875433 -0.250016,0.2500157 -0.687543,0.3750236 -0.937559,0.2500157 -0.250016,-0.1250079 -0.250016,-0.3750236 0,-0.6250393 0.250016,-0.3125197 0.687543,-0.3750237 0.937559,-0.3125197"
     id="path32" />
  <path
     style="fill:#ffffff;fill-opacity:1;fill-rule:evenodd;stroke:none"
     d="m 54.04617,1.9886564 c 0.250016,0.1250078 0.250016,0.4375275 0,0.6875433 -0.250016,0.2500157 -0.687543,0.3750236 -0.937559,0.2500157 -0.250016,-0.062504 -0.250016,-0.3750236 0,-0.6250394 0.250016,-0.2500157 0.687543,-0.3750236 0.937559,-0.3125196 z"
     id="path33" />
  <path
     style="fill:none;stroke:#000000;stroke-width:0.500031px;stroke-linecap:round;stroke-linejoin:round;stroke-miterlimit:4;stroke-dasharray:none;stroke-opacity:1"
     d="m 54.04617,1.9886564 c 0.250016,0.1250078 0.250016,0.4375275 0,0.6875433 -0.250016,0.2500157 -0.687543,0.3750236 -0.937559,0.2500157 -0.250016,-0.062504 -0.250016,-0.3750236 0,-0.6250394 0.250016,-0.2500157 0.687543,-0.3750236 0.937559,-0.3125196"
     id="path34" />
  <path
     style="fill:#ffffff;fill-opacity:1;fill-rule:evenodd;stroke:none"
     d="m 55.733777,1.1761052 c 0.250015,0.062504 0.250015,0.3750236 0,0.6250393 -0.250016,0.2500158 -0.687544,0.3750237 -0.93756,0.3125197 -0.250015,-0.1250078 -0.250015,-0.4375275 0,-0.6875433 0.250016,-0.2500157 0.687544,-0.3750236 0.93756,-0.2500157 z"
     id="path35" />
  <path
     style="fill:none;stroke:#000000;stroke-width:0.500031px;stroke-linecap:round;stroke-linejoin:round;stroke-miterlimit:4;stroke-dasharray:none;stroke-opacity:1"
     d="m 55.733777,1.1761052 c 0.250015,0.062504 0.250015,0.3750236 0,0.6250393 -0.250016,0.2500158 -0.687544,0.3750237 -0.93756,0.3125197 -0.250015,-0.1250078 -0.250015,-0.4375275 0,-0.6875433 0.250016,-0.2500157 0.687544,-0.3750236 0.93756,-0.2500157"
     id="path36" />
  <path
     style="fill:#ffffff;fill-opacity:1;fill-rule:evenodd;stroke:none"
     d="m 57.421383,0.30105011 c 0.250016,0.1250078 0.250016,0.3750236 0,0.6250393 C 57.171367,1.2386091 56.73384,1.301113 56.483824,1.2386091 c -0.250016,-0.1250079 -0.250016,-0.43752759 0,-0.68754329 0.250016,-0.2500157 0.687543,-0.3750236 0.937559,-0.2500157 z"
     id="path37" />
  <path
     style="fill:none;stroke:#000000;stroke-width:0.500031px;stroke-linecap:round;stroke-linejoin:round;stroke-miterlimit:4;stroke-dasharray:none;stroke-opacity:1"
     d="m 57.421383,0.30105011 c 0.250016,0.1250078 0.250016,0.3750236 0,0.6250393 C 57.171367,1.2386091 56.73384,1.301113 56.483824,1.2386091 c -0.250016,-0.1250079 -0.250016,-0.43752759 0,-0.68754329 0.250016,-0.2500157 0.687543,-0.3750236 0.937559,-0.2500157"
     id="path38" />
  <path
     style="fill:#ffffff;fill-opacity:1;fill-rule:evenodd;stroke:none"
     d="m 15.418737,51.929303 c 0.562536,1.375086 0.562536,3.250204 0.0625,4.062755 -0.500031,0.875056 -1.375087,0.375024 -1.875118,-1.000063 -0.562535,-1.43759 -0.625039,-3.250204 -0.125008,-4.125259 0.500032,-0.812552 1.375087,-0.375024 1.937622,1.062567 z"
     id="path39" />
  <path
     style="fill:none;stroke:#000000;stroke-width:0.500031px;stroke-linecap:round;stroke-linejoin:round;stroke-miterlimit:4;stroke-dasharray:none;stroke-opacity:1"
     d="m 15.418737,51.929303 c 0.562536,1.375086 0.562536,3.250204 0.0625,4.062755 -0.500031,0.875056 -1.375087,0.375024 -1.875118,-1.000063 -0.562535,-1.43759 -0.625039,-3.250204 -0.125008,-4.125259 0.500032,-0.812552 1.375087,-0.375024 1.937622,1.062567"
     id="path40" />
  <path
     style="fill:#ffffff;fill-opacity:1;fill-rule:evenodd;stroke:none"
     d="m 9.7933831,43.303759 c 0,0 4.0627559,4.062756 4.0627559,4.062756 0,0 -1.812614,1.812614 -1.812614,1.812614 0,0 -4.0627559,-4.062756 -4.0627559,-4.062756 z"
     id="path41" />
  <path
     style="fill:none;stroke:#000000;stroke-width:0.500031px;stroke-linecap:round;stroke-linejoin:round;stroke-miterlimit:4;stroke-dasharray:none;stroke-opacity:1"
     d="m 9.7933831,43.303759 c 0,0 4.0627559,4.062756 4.0627559,4.062756 0,0 -1.812614,1.812614 -1.812614,1.812614 0,0 -4.0627559,-4.062756 -4.0627559,-4.062756 0,0 1.812614,-1.812614 1.812614,-1.812614"
     id="path42" />
  <path
     style="fill:#ffffff;fill-opacity:1;fill-rule:evenodd;stroke:none"
     d="m 9.7308791,44.178814 c 0,0 39.2524719,-37.0023309 39.2524719,-37.0023309 z"
     id="path43" />
  <path
     style="fill:none;stroke:#000000;stroke-width:0.500031px;stroke-linecap:round;stroke-linejoin:round;stroke-miterlimit:4;stroke-dasharray:none;stroke-opacity:1"
     d="m 9.7308791,44.178814 c 0,0 39.2524719,-37.0023309 39.2524719,-37.0023309"
     id="path44" />
  <path
     style="fill:#ffffff;fill-opacity:1;fill-rule:evenodd;stroke:none"
     d="m 10.355918,44.803854 c 0,0 40.31504,-38.5649299 40.31504,-38.5649299 z"
     id="path45" />
  <path
     style="fill:none;stroke:#000000;stroke-width:0.500031px;stroke-linecap:round;stroke-linejoin:round;stroke-miterlimit:4;stroke-dasharray:none;stroke-opacity:1"
     d="m 10.355918,44.803854 c 0,0 40.31504,-38.5649299 40.31504,-38.5649299"
     id="path46" />
  <path
     style="fill:#ffffff;fill-opacity:1;fill-rule:evenodd;stroke:none"
     d="m 10.918454,45.366389 c 0,0 41.502614,-40.065024 41.502614,-40.065024 z"
     id="path47" />
  <path
     style="fill:none;stroke:#000000;stroke-width:0.500031px;stroke-linecap:round;stroke-linejoin:round;stroke-miterlimit:4;stroke-dasharray:none;stroke-opacity:1"
     d="m 10.918454,45.366389 c 0,0 41.502614,-40.065024 41.502614,-40.065024"
     id="path48" />
  <path
     style="fill:#ffffff;fill-opacity:1;fill-rule:evenodd;stroke:none"
     d="m 11.543493,45.991429 c 0,0 42.315165,-41.4401112 42.315165,-41.4401112 z"
     id="path49" />
  <path
     style="fill:none;stroke:#000000;stroke-width:0.500031px;stroke-linecap:round;stroke-linejoin:round;stroke-miterlimit:4;stroke-dasharray:none;stroke-opacity:1"
     d="m 11.543493,45.991429 c 0,0 42.315165,-41.4401112 42.315165,-41.4401112"
     id="path50" />
  <path
     style="fill:#ffffff;fill-opacity:1;fill-rule:evenodd;stroke:none"
     d="m 12.168532,46.616468 c 0,0 43.377733,-42.8777014 43.377733,-42.8777014 z"
     id="path51" />
  <path
     style="fill:none;stroke:#000000;stroke-width:0.500031px;stroke-linecap:round;stroke-linejoin:round;stroke-miterlimit:4;stroke-dasharray:none;stroke-opacity:1"
     d="m 12.168532,46.616468 c 0,0 43.377733,-42.8777014 43.377733,-42.8777014"
     id="path52" />
  <path
     style="fill:#ffffff;fill-opacity:1;fill-rule:evenodd;stroke:none"
     d="m 12.793572,47.179003 c 0,0 44.502803,-44.3152915 44.502803,-44.3152915 z"
     id="path53" />
  <path
     style="fill:none;stroke:#000000;stroke-width:0.500031px;stroke-linecap:round;stroke-linejoin:round;stroke-miterlimit:4;stroke-dasharray:none;stroke-opacity:1"
     d="m 12.793572,47.179003 c 0,0 44.502803,-44.3152915 44.502803,-44.3152915"
     id="path54" />
</svg>
