<?xml version="1.0" encoding="UTF-8" standalone="no"?>
<svg
   version="1.0"
   width="6.2016377mm"
   height="7.8222346mm"
   id="svg26"
   xmlns="http://www.w3.org/2000/svg"
   xmlns:svg="http://www.w3.org/2000/svg">
  <defs
     id="defs1">
    <pattern
       id="EMFhbasepattern"
       patternUnits="userSpaceOnUse"
       width="6"
       height="6"
       x="0"
       y="0" />
  </defs>
  <path
     style="fill:#ffffff;fill-opacity:1;fill-rule:evenodd;stroke:none"
     d="m 11.188489,10.875685 c -2.8751812,0 -2.8751812,2.562662 -2.8751812,2.562662 0,0 0.437527,0 0.437527,0 0,0 0,-2.250142 2.4376542,-2.250142 2.437653,0 2.437653,2.312645 2.437653,2.312645 0,0 0.500032,0 0.500032,0 0,0 0,-2.625165 -2.937685,-2.625165 z"
     id="path1" />
  <path
     style="fill:none;stroke:#000000;stroke-width:0.500031px;stroke-linecap:round;stroke-linejoin:round;stroke-miterlimit:4;stroke-dasharray:none;stroke-opacity:1"
     d="m 11.188489,10.875685 c -2.8751812,0 -2.8751812,2.562662 -2.8751812,2.562662 0,0 0.437527,0 0.437527,0 0,0 0,-2.250142 2.4376542,-2.250142 2.437653,0 2.437653,2.312645 2.437653,2.312645 0,0 0.500032,0 0.500032,0 0,0 0,-2.625165 -2.937685,-2.625165"
     id="path2" />
  <path
     style="fill:#ffffff;fill-opacity:1;fill-rule:evenodd;stroke:none"
     d="m 16.001292,27.751748 c 0,0 2.37515,1.562599 2.37515,1.562599 0,0 0.312519,-0.62504 0.312519,-0.62504 0,0 -1.75011,-1.187575 -1.75011,-1.187575 z"
     id="path3" />
  <path
     style="fill:none;stroke:#000000;stroke-width:0.500031px;stroke-linecap:round;stroke-linejoin:round;stroke-miterlimit:4;stroke-dasharray:none;stroke-opacity:1"
     d="m 16.001292,27.751748 c 0,0 2.37515,1.562599 2.37515,1.562599 0,0 0.312519,-0.62504 0.312519,-0.62504 0,0 -1.75011,-1.187575 -1.75011,-1.187575"
     id="path4" />
  <path
     style="fill:#ffffff;fill-opacity:1;fill-rule:evenodd;stroke:none"
     d="m 7.2507406,27.751748 c 0,0 -2.3751496,1.562599 -2.3751496,1.562599 0,0 -0.3125197,-0.62504 -0.3125197,-0.62504 0,0 1.8126142,-1.187575 1.8126142,-1.187575 z"
     id="path5" />
  <path
     style="fill:none;stroke:#000000;stroke-width:0.500031px;stroke-linecap:round;stroke-linejoin:round;stroke-miterlimit:4;stroke-dasharray:none;stroke-opacity:1"
     d="m 7.2507406,27.751748 c 0,0 -2.3751496,1.562599 -2.3751496,1.562599 0,0 -0.3125197,-0.62504 -0.3125197,-0.62504 0,0 1.8126142,-1.187575 1.8126142,-1.187575"
     id="path6" />
  <path
     style="fill:#ffffff;fill-opacity:1;fill-rule:evenodd;stroke:none"
     d="m 9.3133708,7.3754646 c 0,-0.3750236 -1.9376223,-0.6875433 -1.9376223,-1.000063 0,-0.3125197 4.1877635,-5.8128661 4.1877635,-5.8128661 0.31252,-0.3125197 1.312583,-0.3125197 1.312583,-0.3125197 0,0 3.187701,0.3125197 3.187701,1.3125827 0,1.2500787 -2.250142,1.2500787 -2.250142,1.5625984 0,0.6875433 0.687543,1.937622 0.687543,2.6251654 0,0.3125196 -1.937622,0.3125196 -1.937622,1.6251023 0,0 0.500032,6.4379054 0.93756,9.3130864 0.125007,0.937559 1.937622,1.000063 2.562661,1.000063 2.250142,0 2.937685,-1.625102 4.187764,-1.625102 1.000063,0 1.625102,1.937622 1.625102,2.875181 0,0.687543 -1.250079,1.312583 -1.250079,1.625102 0,0.750048 1.625103,0.62504 2.250142,1.937622 0.187512,0.375024 0.31252,0.62504 0.31252,1.625103 0,2.875181 -5.187827,3.875244 -10.62567,3.875244 -6.0003777,0 -12.31327526,-1.312583 -12.31327526,-3.562725 0,-1.43759 0,-1.625102 0,-1.625102 0,-1.312583 2.93768496,-1.625102 2.93768496,-1.937622 0,-0.31252 -2.93768496,-1.812614 -2.93768496,-3.875244 0,-0.437528 0,-5.125323 5.18782666,-0.937559 1.6251024,1.312583 3.8752444,0 3.8752444,0 z"
     id="path7" />
  <path
     style="fill:none;stroke:#000000;stroke-width:0.500031px;stroke-linecap:round;stroke-linejoin:round;stroke-miterlimit:4;stroke-dasharray:none;stroke-opacity:1"
     d="m 9.3133708,7.3754646 c 0,-0.3750236 -1.9376223,-0.6875433 -1.9376223,-1.000063 0,-0.3125197 4.1877635,-5.8128661 4.1877635,-5.8128661 0.31252,-0.3125197 1.312583,-0.3125197 1.312583,-0.3125197 0,0 3.187701,0.3125197 3.187701,1.3125827 0,1.2500787 -2.250142,1.2500787 -2.250142,1.5625984 0,0.6875433 0.687543,1.937622 0.687543,2.6251654 0,0.3125196 -1.937622,0.3125196 -1.937622,1.6251023 0,0 0.500032,6.4379054 0.93756,9.3130864 0.125007,0.937559 1.937622,1.000063 2.562661,1.000063 2.250142,0 2.937685,-1.625102 4.187764,-1.625102 1.000063,0 1.625102,1.937622 1.625102,2.875181 0,0.687543 -1.250079,1.312583 -1.250079,1.625102 0,0.750048 1.625103,0.62504 2.250142,1.937622 0.187512,0.375024 0.31252,0.62504 0.31252,1.625103 0,2.875181 -5.187827,3.875244 -10.62567,3.875244 -6.0003777,0 -12.31327526,-1.312583 -12.31327526,-3.562725 0,-1.43759 0,-1.625102 0,-1.625102 0,-1.312583 2.93768496,-1.625102 2.93768496,-1.937622 0,-0.31252 -2.93768496,-1.812614 -2.93768496,-3.875244 0,-0.437528 0,-5.125323 5.18782666,-0.937559 1.6251024,1.312583 3.8752444,0 3.8752444,0 0,0 0,-8.6880474 0,-8.6880474"
     id="path8" />
  <path
     style="fill:#ffffff;fill-opacity:1;fill-rule:evenodd;stroke:none"
     d="m 8.3133078,3.6252284 c 0.437527,0 0.750047,0.1250079 0.750047,0.2500157 0,0.1250079 -0.31252,0.2500158 -0.750047,0.2500158 -0.5000318,0 -0.8125514,-0.1250079 -0.8125514,-0.2500158 0,-0.1250078 0.3125196,-0.2500157 0.8125514,-0.2500157 z"
     id="path9" />
  <path
     style="fill:none;stroke:#000000;stroke-width:0.500031px;stroke-linecap:round;stroke-linejoin:round;stroke-miterlimit:4;stroke-dasharray:none;stroke-opacity:1"
     d="m 8.3133078,3.6252284 c 0.437527,0 0.750047,0.1250079 0.750047,0.2500157 0,0.1250079 -0.31252,0.2500158 -0.750047,0.2500158 -0.5000318,0 -0.8125514,-0.1250079 -0.8125514,-0.2500158 0,-0.1250078 0.3125196,-0.2500157 0.8125514,-0.2500157"
     id="path10" />
  <path
     style="fill:#ffffff;fill-opacity:1;fill-rule:evenodd;stroke:none"
     d="m 9.5633858,1.8751182 c 0.4375282,0 0.7500482,0.1250078 0.7500482,0.3125196 0,0.1875119 -0.31252,0.3125197 -0.7500482,0.3125197 -0.500031,0 -0.812551,-0.1250078 -0.812551,-0.3125197 0,-0.1875118 0.31252,-0.3125196 0.812551,-0.3125196 z"
     id="path11" />
  <path
     style="fill:none;stroke:#000000;stroke-width:0.500031px;stroke-linecap:round;stroke-linejoin:round;stroke-miterlimit:4;stroke-dasharray:none;stroke-opacity:1"
     d="m 9.5633858,1.8751182 c 0.4375282,0 0.7500482,0.1250078 0.7500482,0.3125196 0,0.1875119 -0.31252,0.3125197 -0.7500482,0.3125197 -0.500031,0 -0.812551,-0.1250078 -0.812551,-0.3125197 0,-0.1875118 0.31252,-0.3125196 0.812551,-0.3125196"
     id="path12" />
  <path
     style="fill:#ffffff;fill-opacity:1;fill-rule:evenodd;stroke:none"
     d="m 10.750961,0.2500158 c 0.437528,0 0.812551,0.1250079 0.812551,0.3125197 0,0.1875118 -0.375023,0.3125197 -0.812551,0.3125197 -0.437527,0 -0.8125512,-0.1250079 -0.8125512,-0.3125197 0,-0.1875118 0.3750242,-0.3125197 0.8125512,-0.3125197 z"
     id="path13" />
  <path
     style="fill:none;stroke:#000000;stroke-width:0.500031px;stroke-linecap:round;stroke-linejoin:round;stroke-miterlimit:4;stroke-dasharray:none;stroke-opacity:1"
     d="m 10.750961,0.2500158 c 0.437528,0 0.812551,0.1250079 0.812551,0.3125197 0,0.1875118 -0.375023,0.3125197 -0.812551,0.3125197 -0.437527,0 -0.8125512,-0.1250079 -0.8125512,-0.3125197 0,-0.1875118 0.3750242,-0.3125197 0.8125512,-0.3125197"
     id="path14" />
  <path
     style="fill:#ffffff;fill-opacity:1;fill-rule:evenodd;stroke:none"
     d="m 10.188426,1.062567 c 0.437527,0 0.812551,0.1250079 0.812551,0.2500157 0,0.1250079 -0.375024,0.2500158 -0.812551,0.2500158 -0.4375282,0 -0.8125512,-0.1250079 -0.8125512,-0.2500158 0,-0.1250078 0.375023,-0.2500157 0.8125512,-0.2500157 z"
     id="path15" />
  <path
     style="fill:none;stroke:#000000;stroke-width:0.500031px;stroke-linecap:round;stroke-linejoin:round;stroke-miterlimit:4;stroke-dasharray:none;stroke-opacity:1"
     d="m 10.188426,1.062567 c 0.437527,0 0.812551,0.1250079 0.812551,0.2500157 0,0.1250079 -0.375024,0.2500158 -0.812551,0.2500158 -0.4375282,0 -0.8125512,-0.1250079 -0.8125512,-0.2500158 0,-0.1250078 0.375023,-0.2500157 0.8125512,-0.2500157"
     id="path16" />
  <path
     style="fill:#ffffff;fill-opacity:1;fill-rule:evenodd;stroke:none"
     d="m 8.8133388,2.8126772 c 0.437528,0 0.812551,0.1875118 0.812551,0.3125197 0,0.1875118 -0.375023,0.3750236 -0.812551,0.3750236 -0.437527,0 -0.812551,-0.1875118 -0.812551,-0.3750236 0,-0.1250079 0.375024,-0.3125197 0.812551,-0.3125197 z"
     id="path17" />
  <path
     style="fill:none;stroke:#000000;stroke-width:0.500031px;stroke-linecap:round;stroke-linejoin:round;stroke-miterlimit:4;stroke-dasharray:none;stroke-opacity:1"
     d="m 8.8133388,2.8126772 c 0.437528,0 0.812551,0.1875118 0.812551,0.3125197 0,0.1875118 -0.375023,0.3750236 -0.812551,0.3750236 -0.437527,0 -0.812551,-0.1875118 -0.812551,-0.3750236 0,-0.1250079 0.375024,-0.3125197 0.812551,-0.3125197"
     id="path18" />
  <path
     style="fill:#ffffff;fill-opacity:1;fill-rule:evenodd;stroke:none"
     d="m 7.6257642,4.4377796 c 0.4375276,0 0.8125516,0.1250078 0.8125516,0.3125197 0,0.1875118 -0.375024,0.3125196 -0.8125516,0.3125196 -0.4375275,0 -0.8125512,-0.1250078 -0.8125512,-0.3125196 0,-0.1875119 0.3750237,-0.3125197 0.8125512,-0.3125197 z"
     id="path19" />
  <path
     style="fill:none;stroke:#000000;stroke-width:0.500031px;stroke-linecap:round;stroke-linejoin:round;stroke-miterlimit:4;stroke-dasharray:none;stroke-opacity:1"
     d="m 7.6257642,4.4377796 c 0.4375276,0 0.8125516,0.1250078 0.8125516,0.3125197 0,0.1875118 -0.375024,0.3125196 -0.8125516,0.3125196 -0.4375275,0 -0.8125512,-0.1250078 -0.8125512,-0.3125196 0,-0.1875119 0.3750237,-0.3125197 0.8125512,-0.3125197"
     id="path20" />
  <path
     style="fill:#ffffff;fill-opacity:1;fill-rule:evenodd;stroke:none"
     d="m 9.3133708,7.3754646 c 0,0 3.2502042,0 3.2502042,0 0,0 0.93756,12.8758114 0.93756,12.8758114 0,0 -3.8752452,0 -3.8752452,0 z"
     id="path21" />
  <path
     style="fill:none;stroke:#000000;stroke-width:0.500031px;stroke-linecap:round;stroke-linejoin:round;stroke-miterlimit:4;stroke-dasharray:none;stroke-opacity:1"
     d="m 9.3133708,7.3754646 c 0,0 3.2502042,0 3.2502042,0 0,0 0.93756,12.8758114 0.93756,12.8758114 0,0 -3.8752452,0 -3.8752452,0 0,0 -0.312519,-12.8758114 -0.312519,-12.8758114"
     id="path22" />
  <path
     style="fill:#ffffff;fill-opacity:1;fill-rule:evenodd;stroke:none"
     d="M 0.50031544,25.126583 C 0.18779574,24.501543 0.62532334,23.814 1.2503627,23.50148 2.8129611,22.688929 5.1256067,22.313906 2.7504571,20.438787 1.5003784,19.438724 0.25029974,18.438661 0.25029974,17.001071 c 0,-0.437528 0.3750236,-2.562662 5.18782666,1.312583 1.6251024,1.312582 3.8752444,0 3.8752444,0 z"
     id="path23" />
  <path
     style="fill:none;stroke:#000000;stroke-width:0.500031px;stroke-linecap:round;stroke-linejoin:round;stroke-miterlimit:4;stroke-dasharray:none;stroke-opacity:1"
     d="M 0.50031544,25.126583 C 0.18779574,24.501543 0.62532334,23.814 1.2503627,23.50148 2.8129611,22.688929 5.1256067,22.313906 2.7504571,20.438787 1.5003784,19.438724 0.25029974,18.438661 0.25029974,17.001071 c 0,-0.437528 0.3750236,-2.562662 5.18782666,1.312583 1.6251024,1.312582 3.8752444,0 3.8752444,0"
     id="path24" />
  <path
     style="fill:#ffffff;fill-opacity:1;fill-rule:evenodd;stroke:none"
     d="m 22.939229,25.126583 c 0.31252,-0.62504 -0.125008,-1.312583 -0.750047,-1.625103 -1.562599,-0.812551 -3.312709,-1.687606 -1.500095,-3.125196 1.250079,-1.000063 1.187575,-1.312583 1.187575,-1.375087 0,-0.375024 -1.187575,-1.937622 -3.81274,0.187512 -1.187575,0.937559 -4.625291,0.437527 -4.625291,-0.250016 z"
     id="path25" />
  <path
     style="fill:none;stroke:#000000;stroke-width:0.500031px;stroke-linecap:round;stroke-linejoin:round;stroke-miterlimit:4;stroke-dasharray:none;stroke-opacity:1"
     d="m 22.939229,25.126583 c 0.31252,-0.62504 -0.125008,-1.312583 -0.750047,-1.625103 -1.562599,-0.812551 -3.312709,-1.687606 -1.500095,-3.125196 1.250079,-1.000063 1.187575,-1.312583 1.187575,-1.375087 0,-0.375024 -1.187575,-1.937622 -3.81274,0.187512 -1.187575,0.937559 -4.625291,0.437527 -4.625291,-0.250016"
     id="path26" />
</svg>
