<?xml version="1.0" encoding="UTF-8" standalone="no"?>
<svg
   version="1.0"
   width="4.6147919mm"
   height="2.6956124mm"
   id="svg36"
   xmlns="http://www.w3.org/2000/svg"
   xmlns:svg="http://www.w3.org/2000/svg">
  <defs
     id="defs1">
    <pattern
       id="EMFhbasepattern"
       patternUnits="userSpaceOnUse"
       width="6"
       height="6"
       x="0"
       y="0" />
  </defs>
  <path
     style="fill:#ffffff;fill-opacity:1;fill-rule:evenodd;stroke:none"
     d="m 1.3456012,0.59378735 c 0,0 14.7509298,0 14.7509298,0 0,0 0,2.00012595 0,2.00012595 0,0 -14.7509298,0 -14.7509298,0 z"
     id="path1" />
  <path
     style="fill:none;stroke:#000000;stroke-width:0.31252px;stroke-linecap:round;stroke-linejoin:round;stroke-miterlimit:4;stroke-dasharray:none;stroke-opacity:1"
     d="m 1.3456012,0.59378735 c 0,0 14.7509298,0 14.7509298,0 0,0 0,2.00012595 0,2.00012595 0,0 -14.7509298,0 -14.7509298,0 0,0 0,-2.00012595 0,-2.00012595"
     id="path2" />
  <path
     style="fill:#ffffff;fill-opacity:1;fill-rule:evenodd;stroke:none"
     d="m 3.3457272,8.7192991 c 0,0 10.1881418,0 13.6883628,0 0.250016,0 0.250016,0 0.250016,-0.2500157 0,-0.1875118 0,-7.75048815 0,-8.06300785 0,-0.1875118 0,-0.2500157 -0.250016,-0.2500157 -0.500032,0 -0.187512,0 -0.687543,0 -0.250016,0 -0.250016,0.062504 -0.250016,0.2500157 0,0.4375276 0,1.50009445 0,1.93762205 0,0.2500157 -0.0625,0.2500157 -0.250016,0.2500157 -0.687543,0 -13.6258587,0 -14.250898,0 -0.1875118,0 -0.2500158,0 -0.2500158,-0.2500157 0,-0.5000315 0,-1.43759055 0,-1.93762205 0,-0.1875118 -0.062504,-0.2500157 -0.2500157,-0.2500157 -0.37502357,0 -0.37502357,0 -0.75004727,0 -0.1875118,0 -0.1875118,0.062504 -0.1875118,0.2500157 0,0.75004725 0,7.31296055 0,8.06300785 0,0.2500157 0,0.2500157 0.1875118,0.2500157 1.56259847,0 3.37521257,0 3.37521257,0 z"
     id="path3" />
  <path
     style="fill:none;stroke:#000000;stroke-width:0.31252px;stroke-linecap:round;stroke-linejoin:round;stroke-miterlimit:4;stroke-dasharray:none;stroke-opacity:1"
     d="m 3.3457272,8.7192991 c 0,0 10.1881418,0 13.6883628,0 0.250016,0 0.250016,0 0.250016,-0.2500157 0,-0.1875118 0,-7.75048815 0,-8.06300785 0,-0.1875118 0,-0.2500157 -0.250016,-0.2500157 -0.500032,0 -0.187512,0 -0.687543,0 -0.250016,0 -0.250016,0.062504 -0.250016,0.2500157 0,0.4375276 0,1.50009445 0,1.93762205 0,0.2500157 -0.0625,0.2500157 -0.250016,0.2500157 -0.687543,0 -13.6258587,0 -14.250898,0 -0.1875118,0 -0.2500158,0 -0.2500158,-0.2500157 0,-0.5000315 0,-1.43759055 0,-1.93762205 0,-0.1875118 -0.062504,-0.2500157 -0.2500157,-0.2500157 -0.37502357,0 -0.37502357,0 -0.75004727,0 -0.1875118,0 -0.1875118,0.062504 -0.1875118,0.2500157 0,0.75004725 0,7.31296055 0,8.06300785 0,0.2500157 0,0.2500157 0.1875118,0.2500157 1.56259847,0 3.37521257,0 3.37521257,0"
     id="path4" />
  <path
     style="fill:#ffffff;fill-opacity:1;fill-rule:evenodd;stroke:none"
     d="m 4.533302,5.2815826 c -0.062504,0 -0.1250079,0 -0.1250079,0.1250079 0,0.1875118 0,0.7500472 0,0.8750551 0,0.062504 0.062504,0.1250079 0.1250079,0.1250079 0.2500158,0 1.0625669,0 1.3125827,0 0.062504,0 0.1250079,-0.062504 0.1250079,-0.1250079 0,-0.1250079 0,-0.7500473 0,-0.8750551 0,-0.1250079 -0.062504,-0.1250079 -0.1250079,-0.1250079 -0.1250079,0 -1.1250709,0 -1.3125827,0 z"
     id="path5" />
  <path
     style="fill:none;stroke:#000000;stroke-width:0.31252px;stroke-linecap:round;stroke-linejoin:round;stroke-miterlimit:4;stroke-dasharray:none;stroke-opacity:1"
     d="m 4.533302,5.2815826 c -0.062504,0 -0.1250079,0 -0.1250079,0.1250079 0,0.1875118 0,0.7500472 0,0.8750551 0,0.062504 0.062504,0.1250079 0.1250079,0.1250079 0.2500158,0 1.0625669,0 1.3125827,0 0.062504,0 0.1250079,-0.062504 0.1250079,-0.1250079 0,-0.1250079 0,-0.7500473 0,-0.8750551 0,-0.1250079 -0.062504,-0.1250079 -0.1250079,-0.1250079 -0.1250079,0 -1.1250709,0 -1.3125827,0"
     id="path6" />
  <path
     style="fill:#ffffff;fill-opacity:1;fill-rule:evenodd;stroke:none"
     d="m 11.596247,5.2815826 c -0.0625,0 -0.125007,0 -0.125007,0.1250079 0,0.1875118 0,0.7500472 0,0.8750551 0,0.062504 0.0625,0.1250079 0.125007,0.1250079 0.250016,0 1.062567,0 1.312583,0 0.125008,0 0.125008,-0.062504 0.125008,-0.1250079 0,-0.1250079 0,-0.7500473 0,-0.8750551 0,-0.1250079 0,-0.1250079 -0.125008,-0.1250079 -0.125008,0 -1.062567,0 -1.312583,0 z"
     id="path7" />
  <path
     style="fill:none;stroke:#000000;stroke-width:0.31252px;stroke-linecap:round;stroke-linejoin:round;stroke-miterlimit:4;stroke-dasharray:none;stroke-opacity:1"
     d="m 11.596247,5.2815826 c -0.0625,0 -0.125007,0 -0.125007,0.1250079 0,0.1875118 0,0.7500472 0,0.8750551 0,0.062504 0.0625,0.1250079 0.125007,0.1250079 0.250016,0 1.062567,0 1.312583,0 0.125008,0 0.125008,-0.062504 0.125008,-0.1250079 0,-0.1250079 0,-0.7500473 0,-0.8750551 0,-0.1250079 0,-0.1250079 -0.125008,-0.1250079 -0.125008,0 -1.062567,0 -1.312583,0"
     id="path8" />
  <path
     style="fill:#ffffff;fill-opacity:1;fill-rule:evenodd;stroke:none"
     d="m 5.9708926,5.4065905 c 0,0 5.5003474,0 5.5003474,0 0,0 0,0.8750551 0,0.8750551 0,0 -5.5003474,0 -5.5003474,0 z"
     id="path9" />
  <path
     style="fill:none;stroke:#000000;stroke-width:0.31252px;stroke-linecap:round;stroke-linejoin:round;stroke-miterlimit:4;stroke-dasharray:none;stroke-opacity:1"
     d="m 5.9708926,5.4065905 c 0,0 5.5003474,0 5.5003474,0 0,0 0,0.8750551 0,0.8750551 0,0 -5.5003474,0 -5.5003474,0 0,0 0,-0.8750551 0,-0.8750551"
     id="path10" />
  <path
     style="fill:#ffffff;fill-opacity:1;fill-rule:evenodd;stroke:none"
     d="M 3.0957115,2.1563858 C 2.7831918,1.9688739 2.6581839,1.5938503 2.8456957,1.2813306 3.0332075,0.96881095 3.4082311,0.84380315 3.7207508,0.96881095 4.0332705,1.1563228 4.1582784,1.5313464 4.0332705,1.90637 3.8457587,2.2188897 3.4707351,2.3438976 3.0957115,2.1563858 Z"
     id="path11" />
  <path
     style="fill:none;stroke:#000000;stroke-width:0.31252px;stroke-linecap:round;stroke-linejoin:round;stroke-miterlimit:4;stroke-dasharray:none;stroke-opacity:1"
     d="M 3.0957115,2.1563858 C 2.7831918,1.9688739 2.6581839,1.5938503 2.8456957,1.2813306 3.0332075,0.96881095 3.4082311,0.84380315 3.7207508,0.96881095 4.0332705,1.1563228 4.1582784,1.5313464 4.0332705,1.90637 3.8457587,2.2188897 3.4707351,2.3438976 3.0957115,2.1563858"
     id="path12" />
  <path
     style="fill:#ffffff;fill-opacity:1;fill-rule:evenodd;stroke:none"
     d="m 3.4707351,1.5313464 c 0,0 0.3125197,-0.62503935 0.3125197,-0.62503935 z"
     id="path13" />
  <path
     style="fill:none;stroke:#000000;stroke-width:0.31252px;stroke-linecap:round;stroke-linejoin:round;stroke-miterlimit:4;stroke-dasharray:none;stroke-opacity:1"
     d="m 3.4707351,1.5313464 c 0,0 0.3125197,-0.62503935 0.3125197,-0.62503935"
     id="path14" />
  <path
     style="fill:#ffffff;fill-opacity:1;fill-rule:evenodd;stroke:none"
     d="M 7.4084831,2.1563858 C 7.0959634,2.3438976 6.6584359,2.2188897 6.533428,1.90637 6.3459162,1.5313464 6.4709241,1.1563228 6.7834437,0.96881095 c 0.3125197,-0.1250078 0.7500473,0 0.8750552,0.31251965 0.1875118,0.3125197 0.062504,0.6875433 -0.2500158,0.8750552 z"
     id="path15" />
  <path
     style="fill:none;stroke:#000000;stroke-width:0.31252px;stroke-linecap:round;stroke-linejoin:round;stroke-miterlimit:4;stroke-dasharray:none;stroke-opacity:1"
     d="M 7.4084831,2.1563858 C 7.0959634,2.3438976 6.6584359,2.2188897 6.533428,1.90637 6.3459162,1.5313464 6.4709241,1.1563228 6.7834437,0.96881095 c 0.3125197,-0.1250078 0.7500473,0 0.8750552,0.31251965 0.1875118,0.3125197 0.062504,0.6875433 -0.2500158,0.8750552"
     id="path16" />
  <path
     style="fill:#ffffff;fill-opacity:1;fill-rule:evenodd;stroke:none"
     d="m 7.0334595,1.5313464 c 0,0 -0.2500158,-0.62503935 -0.2500158,-0.62503935 z"
     id="path17" />
  <path
     style="fill:none;stroke:#000000;stroke-width:0.31252px;stroke-linecap:round;stroke-linejoin:round;stroke-miterlimit:4;stroke-dasharray:none;stroke-opacity:1"
     d="m 7.0334595,1.5313464 c 0,0 -0.2500158,-0.62503935 -0.2500158,-0.62503935"
     id="path18" />
  <path
     style="fill:#ffffff;fill-opacity:1;fill-rule:evenodd;stroke:none"
     d="M 8.5335535,2.2188897 C 8.1585305,2.1563858 7.9085146,1.8438661 7.9710185,1.4688424 c 0.062504,-0.3125196 0.375024,-0.56253535 0.750047,-0.50003145 0.375024,0 0.62504,0.37502365 0.562536,0.68754335 -0.0625,0.3750236 -0.375024,0.6250393 -0.750048,0.5625354 z"
     id="path19" />
  <path
     style="fill:none;stroke:#000000;stroke-width:0.31252px;stroke-linecap:round;stroke-linejoin:round;stroke-miterlimit:4;stroke-dasharray:none;stroke-opacity:1"
     d="M 8.5335535,2.2188897 C 8.1585305,2.1563858 7.9085146,1.8438661 7.9710185,1.4688424 c 0.062504,-0.3125196 0.375024,-0.56253535 0.750047,-0.50003145 0.375024,0 0.62504,0.37502365 0.562536,0.68754335 -0.0625,0.3750236 -0.375024,0.6250393 -0.750048,0.5625354"
     id="path20" />
  <path
     style="fill:#ffffff;fill-opacity:1;fill-rule:evenodd;stroke:none"
     d="m 8.6585615,1.5313464 c 0,0 0.0625,-0.68754325 0.0625,-0.68754325 z"
     id="path21" />
  <path
     style="fill:none;stroke:#000000;stroke-width:0.31252px;stroke-linecap:round;stroke-linejoin:round;stroke-miterlimit:4;stroke-dasharray:none;stroke-opacity:1"
     d="m 8.6585615,1.5313464 c 0,0 0.0625,-0.68754325 0.0625,-0.68754325"
     id="path22" />
  <path
     style="fill:#ffffff;fill-opacity:1;fill-rule:evenodd;stroke:none"
     d="M 9.8461365,2.1563858 C 9.5336165,1.9688739 9.4086095,1.5938503 9.5961205,1.2813306 9.7211285,0.96881095 10.158657,0.84380315 10.471177,0.96881095 10.783696,1.1563228 10.908704,1.5313464 10.783696,1.90637 10.596184,2.2188897 10.221161,2.3438976 9.8461365,2.1563858 Z"
     id="path23" />
  <path
     style="fill:none;stroke:#000000;stroke-width:0.31252px;stroke-linecap:round;stroke-linejoin:round;stroke-miterlimit:4;stroke-dasharray:none;stroke-opacity:1"
     d="M 9.8461365,2.1563858 C 9.5336165,1.9688739 9.4086095,1.5938503 9.5961205,1.2813306 9.7211285,0.96881095 10.158657,0.84380315 10.471177,0.96881095 10.783696,1.1563228 10.908704,1.5313464 10.783696,1.90637 10.596184,2.2188897 10.221161,2.3438976 9.8461365,2.1563858"
     id="path24" />
  <path
     style="fill:#ffffff;fill-opacity:1;fill-rule:evenodd;stroke:none"
     d="m 10.221161,1.5313464 c 0,0 0.312519,-0.62503935 0.312519,-0.62503935 z"
     id="path25" />
  <path
     style="fill:none;stroke:#000000;stroke-width:0.31252px;stroke-linecap:round;stroke-linejoin:round;stroke-miterlimit:4;stroke-dasharray:none;stroke-opacity:1"
     d="m 10.221161,1.5313464 c 0,0 0.312519,-0.62503935 0.312519,-0.62503935"
     id="path26" />
  <path
     style="fill:#ffffff;fill-opacity:1;fill-rule:evenodd;stroke:none"
     d="M 12.721318,2.1563858 C 12.408799,1.9688739 12.283791,1.5938503 12.471303,1.2813306 12.59631,0.96881095 13.033838,0.84380315 13.346358,0.96881095 13.658877,1.1563228 13.783885,1.5313464 13.596373,1.90637 13.471366,2.2188897 13.033838,2.3438976 12.721318,2.1563858 Z"
     id="path27" />
  <path
     style="fill:none;stroke:#000000;stroke-width:0.31252px;stroke-linecap:round;stroke-linejoin:round;stroke-miterlimit:4;stroke-dasharray:none;stroke-opacity:1"
     d="M 12.721318,2.1563858 C 12.408799,1.9688739 12.283791,1.5938503 12.471303,1.2813306 12.59631,0.96881095 13.033838,0.84380315 13.346358,0.96881095 13.658877,1.1563228 13.783885,1.5313464 13.596373,1.90637 13.471366,2.2188897 13.033838,2.3438976 12.721318,2.1563858"
     id="path28" />
  <path
     style="fill:#ffffff;fill-opacity:1;fill-rule:evenodd;stroke:none"
     d="m 13.096342,1.5313464 c 0,0 0.250016,-0.62503935 0.250016,-0.62503935 z"
     id="path29" />
  <path
     style="fill:none;stroke:#000000;stroke-width:0.31252px;stroke-linecap:round;stroke-linejoin:round;stroke-miterlimit:4;stroke-dasharray:none;stroke-opacity:1"
     d="m 13.096342,1.5313464 c 0,0 0.250016,-0.62503935 0.250016,-0.62503935"
     id="path30" />
  <path
     style="fill:#ffffff;fill-opacity:1;fill-rule:evenodd;stroke:none"
     d="m 15.28398,1.6563543 c -0.0625,0.3750236 -0.375024,0.6250393 -0.750048,0.5625354 -0.375023,-0.062504 -0.562535,-0.4375276 -0.562535,-0.7500473 0.0625,-0.3750236 0.437528,-0.62503925 0.750047,-0.56253535 0.375024,0.062504 0.62504,0.37502355 0.562536,0.75004725 z"
     id="path31" />
  <path
     style="fill:none;stroke:#000000;stroke-width:0.31252px;stroke-linecap:round;stroke-linejoin:round;stroke-miterlimit:4;stroke-dasharray:none;stroke-opacity:1"
     d="m 15.28398,1.6563543 c -0.0625,0.3750236 -0.375024,0.6250393 -0.750048,0.5625354 -0.375023,-0.062504 -0.562535,-0.4375276 -0.562535,-0.7500473 0.0625,-0.3750236 0.437528,-0.62503925 0.750047,-0.56253535 0.375024,0.062504 0.62504,0.37502355 0.562536,0.75004725"
     id="path32" />
  <path
     style="fill:#ffffff;fill-opacity:1;fill-rule:evenodd;stroke:none"
     d="m 14.596436,1.5313464 c 0,0 -0.687543,-0.1250079 -0.687543,-0.1250079 z"
     id="path33" />
  <path
     style="fill:none;stroke:#000000;stroke-width:0.31252px;stroke-linecap:round;stroke-linejoin:round;stroke-miterlimit:4;stroke-dasharray:none;stroke-opacity:1"
     d="m 14.596436,1.5313464 c 0,0 -0.687543,-0.1250079 -0.687543,-0.1250079"
     id="path34" />
  <path
     style="fill:none;stroke:#000000;stroke-width:0.31252px;stroke-linecap:round;stroke-linejoin:round;stroke-miterlimit:4;stroke-dasharray:none;stroke-opacity:1"
     d="m 0.34553823,8.7192991 c 0,0 2.18763777,1.3125829 2.18763777,1.3125829 0,0 12.37578,0 12.37578,0 0,0 2.187638,-1.3125829 2.187638,-1.3125829"
     id="path35" />
  <path
     style="fill:none;stroke:#000000;stroke-width:0.31252px;stroke-linecap:round;stroke-linejoin:round;stroke-miterlimit:4;stroke-dasharray:none;stroke-opacity:1"
     d="m 2.0331445,9.0318189 c 0,0 1.7501103,1.0000631 1.7501103,1.0000631 0,0 9.8756222,0 9.8756222,0 0,0 1.750111,-1.0000631 1.750111,-1.0000631"
     id="path36" />
</svg>
