<?xml version="1.0" encoding="UTF-8" standalone="no"?>
<svg
   version="1.0"
   width="7.3591876mm"
   height="3.4732368mm"
   id="svg46"
   xmlns="http://www.w3.org/2000/svg"
   xmlns:svg="http://www.w3.org/2000/svg">
  <defs
     id="defs1">
    <pattern
       id="EMFhbasepattern"
       patternUnits="userSpaceOnUse"
       width="6"
       height="6"
       x="0"
       y="0" />
  </defs>
  <path
     style="fill:#ffffff;fill-opacity:1;fill-rule:evenodd;stroke:none"
     d="m 0.21876375,8.7831711 c 0,0 0.2500158,1.3750859 0.2500158,1.3750859 0,0 4.68779525,2.812677 4.68779525,2.812677 0,0 17.5011022,0 17.5011022,0 0,0 4.625292,-2.812677 4.625292,-2.812677 0,0 0.250016,-1.3750859 0.250016,-1.3750859 z"
     id="path1" />
  <path
     style="fill:none;stroke:#000000;stroke-width:0.31252px;stroke-linecap:round;stroke-linejoin:round;stroke-miterlimit:4;stroke-dasharray:none;stroke-opacity:1"
     d="m 0.21876375,8.7831711 c 0,0 0.2500158,1.3750859 0.2500158,1.3750859 0,0 4.68779525,2.812677 4.68779525,2.812677 0,0 17.5011022,0 17.5011022,0 0,0 4.625292,-2.812677 4.625292,-2.812677 0,0 0.250016,-1.3750859 0.250016,-1.3750859 0,0 -27.31422125,0 -27.31422125,0"
     id="path2" />
  <path
     style="fill:#ffffff;fill-opacity:1;fill-rule:evenodd;stroke:none"
     d="m 0.46877955,8.7831711 c 0,0 0.2500157,1.3125819 0.2500157,1.3125819 0,0 26.31415775,0 26.31415775,0 0,0 0.250016,-1.3125819 0.250016,-1.3125819 z"
     id="path3" />
  <path
     style="fill:none;stroke:#000000;stroke-width:0.31252px;stroke-linecap:round;stroke-linejoin:round;stroke-miterlimit:4;stroke-dasharray:none;stroke-opacity:1"
     d="m 0.46877955,8.7831711 c 0,0 0.2500157,1.3125819 0.2500157,1.3125819 0,0 26.31415775,0 26.31415775,0 0,0 0.250016,-1.3125819 0.250016,-1.3125819 0,0 -26.81418945,0 -26.81418945,0"
     id="path4" />
  <path
     style="fill:#ffffff;fill-opacity:1;fill-rule:evenodd;stroke:none"
     d="m 4.1565118,9.7207301 c -0.2500158,0.0625 -0.5000315,0 -0.6250394,-0.187512 -0.1250079,-0.187512 -0.062504,-0.375024 0.1875118,-0.500032 0.2500158,-0.0625 0.5625355,0 0.6875433,0.187512 0.062504,0.187512 0,0.375024 -0.2500157,0.500032 z"
     id="path5" />
  <path
     style="fill:none;stroke:#000000;stroke-width:0.31252px;stroke-linecap:round;stroke-linejoin:round;stroke-miterlimit:4;stroke-dasharray:none;stroke-opacity:1"
     d="m 4.1565118,9.7207301 c -0.2500158,0.0625 -0.5000315,0 -0.6250394,-0.187512 -0.1250079,-0.187512 -0.062504,-0.375024 0.1875118,-0.500032 0.2500158,-0.0625 0.5625355,0 0.6875433,0.187512 0.062504,0.187512 0,0.375024 -0.2500157,0.500032"
     id="path6" />
  <path
     style="fill:#ffffff;fill-opacity:1;fill-rule:evenodd;stroke:none"
     d="m 3.906496,9.3457061 c 0,0 -0.1875118,-0.375024 -0.1875118,-0.375024 z"
     id="path7" />
  <path
     style="fill:none;stroke:#000000;stroke-width:0.31252px;stroke-linecap:round;stroke-linejoin:round;stroke-miterlimit:4;stroke-dasharray:none;stroke-opacity:1"
     d="m 3.906496,9.3457061 c 0,0 -0.1875118,-0.375024 -0.1875118,-0.375024"
     id="path8" />
  <path
     style="fill:#ffffff;fill-opacity:1;fill-rule:evenodd;stroke:none"
     d="m 24.657803,9.7207301 c -0.187511,-0.125008 -0.312519,-0.31252 -0.187511,-0.500032 0.125007,-0.187512 0.437527,-0.250016 0.625039,-0.187512 0.250016,0.125008 0.375024,0.31252 0.250016,0.500032 -0.125008,0.187512 -0.437528,0.250016 -0.687544,0.187512 z"
     id="path9" />
  <path
     style="fill:none;stroke:#000000;stroke-width:0.31252px;stroke-linecap:round;stroke-linejoin:round;stroke-miterlimit:4;stroke-dasharray:none;stroke-opacity:1"
     d="m 24.657803,9.7207301 c -0.187511,-0.125008 -0.312519,-0.31252 -0.187511,-0.500032 0.125007,-0.187512 0.437527,-0.250016 0.625039,-0.187512 0.250016,0.125008 0.375024,0.31252 0.250016,0.500032 -0.125008,0.187512 -0.437528,0.250016 -0.687544,0.187512"
     id="path10" />
  <path
     style="fill:#ffffff;fill-opacity:1;fill-rule:evenodd;stroke:none"
     d="m 24.907819,9.3457061 c 0,0 0.250016,-0.31252 0.250016,-0.31252 z"
     id="path11" />
  <path
     style="fill:none;stroke:#000000;stroke-width:0.31252px;stroke-linecap:round;stroke-linejoin:round;stroke-miterlimit:4;stroke-dasharray:none;stroke-opacity:1"
     d="m 24.907819,9.3457061 c 0,0 0.250016,-0.31252 0.250016,-0.31252"
     id="path12" />
  <path
     style="fill:#ffffff;fill-opacity:1;fill-rule:evenodd;stroke:none"
     d="m 23.470229,9.7832341 c -0.250016,-0.0625 -0.437528,-0.250016 -0.437528,-0.437528 0.0625,-0.187512 0.31252,-0.31252 0.562535,-0.31252 0.250016,0.0625 0.437528,0.250016 0.437528,0.437528 -0.0625,0.187512 -0.31252,0.31252 -0.562535,0.31252 z"
     id="path13" />
  <path
     style="fill:none;stroke:#000000;stroke-width:0.31252px;stroke-linecap:round;stroke-linejoin:round;stroke-miterlimit:4;stroke-dasharray:none;stroke-opacity:1"
     d="m 23.470229,9.7832341 c -0.250016,-0.0625 -0.437528,-0.250016 -0.437528,-0.437528 0.0625,-0.187512 0.31252,-0.31252 0.562535,-0.31252 0.250016,0.0625 0.437528,0.250016 0.437528,0.437528 -0.0625,0.187512 -0.31252,0.31252 -0.562535,0.31252"
     id="path14" />
  <path
     style="fill:#ffffff;fill-opacity:1;fill-rule:evenodd;stroke:none"
     d="m 23.532733,9.3457061 c 0,0 0.0625,-0.375024 0.0625,-0.375024 z"
     id="path15" />
  <path
     style="fill:none;stroke:#000000;stroke-width:0.31252px;stroke-linecap:round;stroke-linejoin:round;stroke-miterlimit:4;stroke-dasharray:none;stroke-opacity:1"
     d="m 23.532733,9.3457061 c 0,0 0.0625,-0.375024 0.0625,-0.375024"
     id="path16" />
  <path
     style="fill:#ffffff;fill-opacity:1;fill-rule:evenodd;stroke:none"
     d="m 21.970134,9.7207301 c -0.250016,-0.0625 -0.375023,-0.31252 -0.250016,-0.500032 0.125008,-0.187512 0.437528,-0.250016 0.687544,-0.125008 0.250015,0.0625 0.312519,0.31252 0.187511,0.437528 -0.125007,0.187512 -0.437527,0.250016 -0.625039,0.187512 z"
     id="path17" />
  <path
     style="fill:none;stroke:#000000;stroke-width:0.31252px;stroke-linecap:round;stroke-linejoin:round;stroke-miterlimit:4;stroke-dasharray:none;stroke-opacity:1"
     d="m 21.970134,9.7207301 c -0.250016,-0.0625 -0.375023,-0.31252 -0.250016,-0.500032 0.125008,-0.187512 0.437528,-0.250016 0.687544,-0.125008 0.250015,0.0625 0.312519,0.31252 0.187511,0.437528 -0.125007,0.187512 -0.437527,0.250016 -0.625039,0.187512"
     id="path18" />
  <path
     style="fill:#ffffff;fill-opacity:1;fill-rule:evenodd;stroke:none"
     d="m 22.22015,9.3457061 c 0,0 0.187512,-0.31252 0.187512,-0.31252 z"
     id="path19" />
  <path
     style="fill:none;stroke:#000000;stroke-width:0.31252px;stroke-linecap:round;stroke-linejoin:round;stroke-miterlimit:4;stroke-dasharray:none;stroke-opacity:1"
     d="m 22.22015,9.3457061 c 0,0 0.187512,-0.31252 0.187512,-0.31252"
     id="path20" />
  <path
     style="fill:#ffffff;fill-opacity:1;fill-rule:evenodd;stroke:none"
     d="m 4.8440551,9.7207301 c -0.2500158,-0.125008 -0.3125197,-0.31252 -0.1875118,-0.500032 0.1250078,-0.187512 0.3750236,-0.250016 0.6250393,-0.187512 0.2500158,0.125008 0.3750237,0.31252 0.2500158,0.500032 -0.1250079,0.187512 -0.4375276,0.250016 -0.6875433,0.187512 z"
     id="path21" />
  <path
     style="fill:none;stroke:#000000;stroke-width:0.31252px;stroke-linecap:round;stroke-linejoin:round;stroke-miterlimit:4;stroke-dasharray:none;stroke-opacity:1"
     d="m 4.8440551,9.7207301 c -0.2500158,-0.125008 -0.3125197,-0.31252 -0.1875118,-0.500032 0.1250078,-0.187512 0.3750236,-0.250016 0.6250393,-0.187512 0.2500158,0.125008 0.3750237,0.31252 0.2500158,0.500032 -0.1250079,0.187512 -0.4375276,0.250016 -0.6875433,0.187512"
     id="path22" />
  <path
     style="fill:#ffffff;fill-opacity:1;fill-rule:evenodd;stroke:none"
     d="m 5.0940708,9.3457061 c 0,0 0.2500158,-0.31252 0.2500158,-0.31252 z"
     id="path23" />
  <path
     style="fill:none;stroke:#000000;stroke-width:0.31252px;stroke-linecap:round;stroke-linejoin:round;stroke-miterlimit:4;stroke-dasharray:none;stroke-opacity:1"
     d="m 5.0940708,9.3457061 c 0,0 0.2500158,-0.31252 0.2500158,-0.31252"
     id="path24" />
  <path
     style="fill:#ffffff;fill-opacity:1;fill-rule:evenodd;stroke:none"
     d="M 1.1563228,9.7207301 C 0.90630715,9.5957221 0.84380315,9.4082101 0.96881105,9.2206981 1.0938189,9.0331861 1.3438346,8.9706821 1.5938504,9.0331861 c 0.2500157,0.125008 0.3750236,0.31252 0.2500157,0.500032 -0.1250079,0.187512 -0.4375275,0.250016 -0.6875433,0.187512 z"
     id="path25" />
  <path
     style="fill:none;stroke:#000000;stroke-width:0.31252px;stroke-linecap:round;stroke-linejoin:round;stroke-miterlimit:4;stroke-dasharray:none;stroke-opacity:1"
     d="M 1.1563228,9.7207301 C 0.90630715,9.5957221 0.84380315,9.4082101 0.96881105,9.2206981 1.0938189,9.0331861 1.3438346,8.9706821 1.5938504,9.0331861 c 0.2500157,0.125008 0.3750236,0.31252 0.2500157,0.500032 -0.1250079,0.187512 -0.4375275,0.250016 -0.6875433,0.187512"
     id="path26" />
  <path
     style="fill:#ffffff;fill-opacity:1;fill-rule:evenodd;stroke:none"
     d="M 1.1563228,9.7207301 C 0.90630715,9.5957221 0.84380315,9.4082101 0.96881105,9.2206981 1.0938189,9.0331861 1.3438346,8.9706821 1.5938504,9.0331861 c 0.2500157,0.125008 0.3750236,0.31252 0.2500157,0.500032 -0.1250079,0.187512 -0.4375275,0.250016 -0.6875433,0.187512 z"
     id="path27" />
  <path
     style="fill:none;stroke:#000000;stroke-width:0.31252px;stroke-linecap:round;stroke-linejoin:round;stroke-miterlimit:4;stroke-dasharray:none;stroke-opacity:1"
     d="M 1.1563228,9.7207301 C 0.90630715,9.5957221 0.84380315,9.4082101 0.96881105,9.2206981 1.0938189,9.0331861 1.3438346,8.9706821 1.5938504,9.0331861 c 0.2500157,0.125008 0.3750236,0.31252 0.2500157,0.500032 -0.1250079,0.187512 -0.4375275,0.250016 -0.6875433,0.187512"
     id="path28" />
  <path
     style="fill:#ffffff;fill-opacity:1;fill-rule:evenodd;stroke:none"
     d="m 1.2188267,9.5957221 c -0.1250078,-0.0625 -0.1875118,-0.187512 -0.1250078,-0.31252 0.062504,-0.125008 0.2500157,-0.187512 0.4375275,-0.125008 0.1875118,0.0625 0.2500158,0.187512 0.1250079,0.31252 -0.062504,0.125008 -0.2500157,0.187512 -0.4375276,0.125008 z"
     id="path29" />
  <path
     style="fill:none;stroke:#000000;stroke-width:0.31252px;stroke-linecap:round;stroke-linejoin:round;stroke-miterlimit:4;stroke-dasharray:none;stroke-opacity:1"
     d="m 1.2188267,9.5957221 c -0.1250078,-0.0625 -0.1875118,-0.187512 -0.1250078,-0.31252 0.062504,-0.125008 0.2500157,-0.187512 0.4375275,-0.125008 0.1875118,0.0625 0.2500158,0.187512 0.1250079,0.31252 -0.062504,0.125008 -0.2500157,0.187512 -0.4375276,0.125008"
     id="path30" />
  <path
     style="fill:#ffffff;fill-opacity:1;fill-rule:evenodd;stroke:none"
     d="m 26.157898,9.7207301 c -0.187512,-0.125008 -0.31252,-0.31252 -0.187512,-0.500032 0.125008,-0.187512 0.437528,-0.250016 0.625039,-0.187512 0.250016,0.125008 0.375024,0.31252 0.250016,0.500032 -0.125008,0.187512 -0.437527,0.250016 -0.687543,0.187512 z"
     id="path31" />
  <path
     style="fill:none;stroke:#000000;stroke-width:0.31252px;stroke-linecap:round;stroke-linejoin:round;stroke-miterlimit:4;stroke-dasharray:none;stroke-opacity:1"
     d="m 26.157898,9.7207301 c -0.187512,-0.125008 -0.31252,-0.31252 -0.187512,-0.500032 0.125008,-0.187512 0.437528,-0.250016 0.625039,-0.187512 0.250016,0.125008 0.375024,0.31252 0.250016,0.500032 -0.125008,0.187512 -0.437527,0.250016 -0.687543,0.187512"
     id="path32" />
  <path
     style="fill:#ffffff;fill-opacity:1;fill-rule:evenodd;stroke:none"
     d="m 26.157898,9.7207301 c -0.187512,-0.125008 -0.31252,-0.31252 -0.187512,-0.500032 0.125008,-0.187512 0.437528,-0.250016 0.625039,-0.187512 0.250016,0.125008 0.375024,0.31252 0.250016,0.500032 -0.125008,0.187512 -0.437527,0.250016 -0.687543,0.187512 z"
     id="path33" />
  <path
     style="fill:none;stroke:#000000;stroke-width:0.31252px;stroke-linecap:round;stroke-linejoin:round;stroke-miterlimit:4;stroke-dasharray:none;stroke-opacity:1"
     d="m 26.157898,9.7207301 c -0.187512,-0.125008 -0.31252,-0.31252 -0.187512,-0.500032 0.125008,-0.187512 0.437528,-0.250016 0.625039,-0.187512 0.250016,0.125008 0.375024,0.31252 0.250016,0.500032 -0.125008,0.187512 -0.437527,0.250016 -0.687543,0.187512"
     id="path34" />
  <path
     style="fill:#ffffff;fill-opacity:1;fill-rule:evenodd;stroke:none"
     d="m 26.282906,9.5957221 c -0.187512,-0.0625 -0.250016,-0.187512 -0.187512,-0.31252 0.125008,-0.125008 0.31252,-0.187512 0.437528,-0.125008 0.187511,0.0625 0.250015,0.187512 0.187511,0.31252 -0.125008,0.125008 -0.312519,0.187512 -0.437527,0.125008 z"
     id="path35" />
  <path
     style="fill:none;stroke:#000000;stroke-width:0.31252px;stroke-linecap:round;stroke-linejoin:round;stroke-miterlimit:4;stroke-dasharray:none;stroke-opacity:1"
     d="m 26.282906,9.5957221 c -0.187512,-0.0625 -0.250016,-0.187512 -0.187512,-0.31252 0.125008,-0.125008 0.31252,-0.187512 0.437528,-0.125008 0.187511,0.0625 0.250015,0.187512 0.187511,0.31252 -0.125008,0.125008 -0.312519,0.187512 -0.437527,0.125008"
     id="path36" />
  <path
     style="fill:#ffffff;fill-opacity:1;fill-rule:evenodd;stroke:none"
     d="m 3.4689685,8.7831711 c 0,0 20.2512755,0 23.9390085,0 0.187511,0 0.250015,-0.0625 0.250015,-0.250016 0,-0.2500158 0,-7.81299219 0,-8.12551189 0,-0.2500157 -0.0625,-0.2500157 -0.250015,-0.2500157 -0.562536,0 -26.68918175,0 -27.00170135,0 -0.1875119,0 -0.2500158,0 -0.2500158,0.2500157 0,0.75004729 0,7.31296059 0,8.12551189 0,0.187512 0.062504,0.250016 0.2500158,0.250016 1.56259835,0 3.43771645,0 3.43771645,0 z"
     id="path37" />
  <path
     style="fill:none;stroke:#000000;stroke-width:0.31252px;stroke-linecap:round;stroke-linejoin:round;stroke-miterlimit:4;stroke-dasharray:none;stroke-opacity:1"
     d="m 3.4689685,8.7831711 c 0,0 20.2512755,0 23.9390085,0 0.187511,0 0.250015,-0.0625 0.250015,-0.250016 0,-0.2500158 0,-7.81299219 0,-8.12551189 0,-0.2500157 -0.0625,-0.2500157 -0.250015,-0.2500157 -0.562536,0 -26.68918175,0 -27.00170135,0 -0.1875119,0 -0.2500158,0 -0.2500158,0.2500157 0,0.75004729 0,7.31296059 0,8.12551189 0,0.187512 0.062504,0.250016 0.2500158,0.250016 1.56259835,0 3.43771645,0 3.43771645,0"
     id="path38" />
  <path
     style="fill:#ffffff;fill-opacity:1;fill-rule:evenodd;stroke:none"
     d="M 2.2188897,9.7207301 C 1.968874,9.5957221 1.90637,9.4082101 2.0313779,9.2206981 c 0.1250079,-0.187512 0.3750236,-0.250016 0.6250394,-0.187512 0.2500157,0.125008 0.3750236,0.31252 0.2500157,0.500032 -0.1250078,0.187512 -0.4375275,0.250016 -0.6875433,0.187512 z"
     id="path39" />
  <path
     style="fill:none;stroke:#000000;stroke-width:0.31252px;stroke-linecap:round;stroke-linejoin:round;stroke-miterlimit:4;stroke-dasharray:none;stroke-opacity:1"
     d="M 2.2188897,9.7207301 C 1.968874,9.5957221 1.90637,9.4082101 2.0313779,9.2206981 c 0.1250079,-0.187512 0.3750236,-0.250016 0.6250394,-0.187512 0.2500157,0.125008 0.3750236,0.31252 0.2500157,0.500032 -0.1250078,0.187512 -0.4375275,0.250016 -0.6875433,0.187512"
     id="path40" />
  <path
     style="fill:#ffffff;fill-opacity:1;fill-rule:evenodd;stroke:none"
     d="M 2.2188897,9.7207301 C 1.968874,9.5957221 1.90637,9.4082101 2.0313779,9.2206981 c 0.1250079,-0.187512 0.3750236,-0.250016 0.6250394,-0.187512 0.2500157,0.125008 0.3750236,0.31252 0.2500157,0.500032 -0.1250078,0.187512 -0.4375275,0.250016 -0.6875433,0.187512 z"
     id="path41" />
  <path
     style="fill:none;stroke:#000000;stroke-width:0.31252px;stroke-linecap:round;stroke-linejoin:round;stroke-miterlimit:4;stroke-dasharray:none;stroke-opacity:1"
     d="M 2.2188897,9.7207301 C 1.968874,9.5957221 1.90637,9.4082101 2.0313779,9.2206981 c 0.1250079,-0.187512 0.3750236,-0.250016 0.6250394,-0.187512 0.2500157,0.125008 0.3750236,0.31252 0.2500157,0.500032 -0.1250078,0.187512 -0.4375275,0.250016 -0.6875433,0.187512"
     id="path42" />
  <path
     style="fill:#ffffff;fill-opacity:1;fill-rule:evenodd;stroke:none"
     d="m 2.2813937,9.5957221 c -0.1250079,-0.0625 -0.1875118,-0.187512 -0.1250079,-0.31252 0.062504,-0.125008 0.3125197,-0.187512 0.4375276,-0.125008 0.1875118,0.0625 0.2500157,0.187512 0.1250078,0.31252 -0.062504,0.125008 -0.2500157,0.187512 -0.4375275,0.125008 z"
     id="path43" />
  <path
     style="fill:none;stroke:#000000;stroke-width:0.31252px;stroke-linecap:round;stroke-linejoin:round;stroke-miterlimit:4;stroke-dasharray:none;stroke-opacity:1"
     d="m 2.2813937,9.5957221 c -0.1250079,-0.0625 -0.1875118,-0.187512 -0.1250079,-0.31252 0.062504,-0.125008 0.3125197,-0.187512 0.4375276,-0.125008 0.1875118,0.0625 0.2500157,0.187512 0.1250078,0.31252 -0.062504,0.125008 -0.2500157,0.187512 -0.4375275,0.125008"
     id="path44" />
  <path
     style="fill:#ffffff;fill-opacity:1;fill-rule:evenodd;stroke:none"
     d="m 2.0938819,10.095753 c 0,0 4.0627559,2.437654 4.0627559,2.437654 0,0 15.4384732,0 15.4384732,0 0,0 4.125259,-2.437654 4.125259,-2.437654 z"
     id="path45" />
  <path
     style="fill:none;stroke:#000000;stroke-width:0.31252px;stroke-linecap:round;stroke-linejoin:round;stroke-miterlimit:4;stroke-dasharray:none;stroke-opacity:1"
     d="m 2.0938819,10.095753 c 0,0 4.0627559,2.437654 4.0627559,2.437654 0,0 15.4384732,0 15.4384732,0 0,0 4.125259,-2.437654 4.125259,-2.437654 0,0 -23.6264881,0 -23.6264881,0"
     id="path46" />
</svg>
