<?xml version="1.0" encoding="UTF-8" standalone="no"?>
<svg
   version="1.0"
   width="7.9548993mm"
   height="4.2008867mm"
   id="svg44"
   xmlns="http://www.w3.org/2000/svg"
   xmlns:svg="http://www.w3.org/2000/svg">
  <defs
     id="defs1">
    <pattern
       id="EMFhbasepattern"
       patternUnits="userSpaceOnUse"
       width="6"
       height="6"
       x="0"
       y="0" />
  </defs>
  <path
     style="fill:#ffffff;fill-opacity:1;fill-rule:evenodd;stroke:none"
     d="m 2.0952496,9.8457373 c 0,0 1.8751181,2.5001577 1.8751181,2.5001577 0,0 5.5628506,3.375212 5.5628506,3.375212 0,0 11.1882047,0 11.1882047,0 0,0 5.56285,-3.375212 5.56285,-3.375212 0,0 1.75011,-2.5001577 1.75011,-2.5001577 z"
     id="path1" />
  <path
     style="fill:none;stroke:#000000;stroke-width:0.31252px;stroke-linecap:round;stroke-linejoin:round;stroke-miterlimit:4;stroke-dasharray:none;stroke-opacity:1"
     d="m 2.0952496,9.8457373 c 0,0 1.8751181,2.5001577 1.8751181,2.5001577 0,0 5.5628506,3.375212 5.5628506,3.375212 0,0 11.1882047,0 11.1882047,0 0,0 5.56285,-3.375212 5.56285,-3.375212 0,0 1.75011,-2.5001577 1.75011,-2.5001577 0,0 -25.9391334,0 -25.9391334,0"
     id="path2" />
  <path
     style="fill:#ffffff;fill-opacity:1;fill-rule:evenodd;stroke:none"
     d="m 5.2829504,9.8457373 c 0,0 18.9386926,0 22.6264246,0 0.187512,0 0.250016,-0.0625 0.250016,-0.250015 0,-0.187512 0,-7.8754964 0,-8.1880161 0,-0.2500157 -0.0625,-0.2500157 -0.250016,-0.2500157 -0.562535,0 -25.3765979,0 -25.7516215,0 -0.1875118,0 -0.2500157,0 -0.2500157,0.2500157 0,0.6875433 0,7.3754641 0,8.1880161 0,0.187511 0.062504,0.250015 0.2500157,0.250015 1.5625984,0 3.5002205,0 3.5002205,0 z"
     id="path3" />
  <path
     style="fill:none;stroke:#000000;stroke-width:0.31252px;stroke-linecap:round;stroke-linejoin:round;stroke-miterlimit:4;stroke-dasharray:none;stroke-opacity:1"
     d="m 5.2829504,9.8457373 c 0,0 18.9386926,0 22.6264246,0 0.187512,0 0.250016,-0.0625 0.250016,-0.250015 0,-0.187512 0,-7.8754964 0,-8.1880161 0,-0.2500157 -0.0625,-0.2500157 -0.250016,-0.2500157 -0.562535,0 -25.3765979,0 -25.7516215,0 -0.1875118,0 -0.2500157,0 -0.2500157,0.2500157 0,0.6875433 0,7.3754641 0,8.1880161 0,0.187511 0.062504,0.250015 0.2500157,0.250015 1.5625984,0 3.5002205,0 3.5002205,0"
     id="path4" />
  <path
     style="fill:#ffffff;fill-opacity:1;fill-rule:evenodd;stroke:none"
     d="m 0.28263539,8.8456743 c 0,0 1.50009451,0.937559 1.50009451,0.937559 0,0 26.5016691,0 26.5016691,0 0,0 1.43759,-0.937559 1.43759,-0.937559 z"
     id="path5" />
  <path
     style="fill:none;stroke:#000000;stroke-width:0.31252px;stroke-linecap:round;stroke-linejoin:round;stroke-miterlimit:4;stroke-dasharray:none;stroke-opacity:1"
     d="m 0.28263539,8.8456743 c 0,0 1.50009451,0.937559 1.50009451,0.937559 0,0 26.5016691,0 26.5016691,0 0,0 1.43759,-0.937559 1.43759,-0.937559"
     id="path6" />
  <path
     style="fill:#ffffff;fill-opacity:1;fill-rule:evenodd;stroke:none"
     d="m 1.2826984,9.1581943 c 0,0 0.6875433,0.437528 0.6875433,0.437528 0,0 26.1266453,0 26.1266453,0 0,0 0.687543,-0.437528 0.687543,-0.437528 z"
     id="path7" />
  <path
     style="fill:none;stroke:#000000;stroke-width:0.31252px;stroke-linecap:round;stroke-linejoin:round;stroke-miterlimit:4;stroke-dasharray:none;stroke-opacity:1"
     d="m 1.2826984,9.1581943 c 0,0 0.6875433,0.437528 0.6875433,0.437528 0,0 26.1266453,0 26.1266453,0 0,0 0.687543,-0.437528 0.687543,-0.437528 0,0 -27.5017316,0 -27.5017316,0"
     id="path8" />
  <path
     style="fill:#ffffff;fill-opacity:1;fill-rule:evenodd;stroke:none"
     d="m 9.5957223,9.5332183 c -0.375024,0 -0.750048,0 -0.937559,-0.0625 -0.125008,-0.0625 0,-0.187512 0.312519,-0.187512 0.31252,-0.0625 0.750048,0 0.875055,0.0625 0.1875117,0.0625 0.0625,0.125008 -0.250015,0.187512 z"
     id="path9" />
  <path
     style="fill:none;stroke:#000000;stroke-width:0.31252px;stroke-linecap:round;stroke-linejoin:round;stroke-miterlimit:4;stroke-dasharray:none;stroke-opacity:1"
     d="m 9.5957223,9.5332183 c -0.375024,0 -0.750048,0 -0.937559,-0.0625 -0.125008,-0.0625 0,-0.187512 0.312519,-0.187512 0.31252,-0.0625 0.750048,0 0.875055,0.0625 0.1875117,0.0625 0.0625,0.125008 -0.250015,0.187512"
     id="path10" />
  <path
     style="fill:#ffffff;fill-opacity:1;fill-rule:evenodd;stroke:none"
     d="m 9.2206983,9.4082103 c 0,0 -0.31252,-0.125008 -0.31252,-0.125008 z"
     id="path11" />
  <path
     style="fill:none;stroke:#000000;stroke-width:0.31252px;stroke-linecap:round;stroke-linejoin:round;stroke-miterlimit:4;stroke-dasharray:none;stroke-opacity:1"
     d="m 9.2206983,9.4082103 c 0,0 -0.31252,-0.125008 -0.31252,-0.125008"
     id="path12" />
  <path
     style="fill:#ffffff;fill-opacity:1;fill-rule:evenodd;stroke:none"
     d="m 21.721486,9.5332183 c -0.31252,-0.0625 -0.437528,-0.125008 -0.250016,-0.187512 0.125008,-0.0625 0.562535,-0.125008 0.875055,-0.0625 0.31252,0 0.437527,0.125008 0.31252,0.187512 -0.187512,0.0625 -0.62504,0.0625 -0.937559,0.0625 z"
     id="path13" />
  <path
     style="fill:none;stroke:#000000;stroke-width:0.31252px;stroke-linecap:round;stroke-linejoin:round;stroke-miterlimit:4;stroke-dasharray:none;stroke-opacity:1"
     d="m 21.721486,9.5332183 c -0.31252,-0.0625 -0.437528,-0.125008 -0.250016,-0.187512 0.125008,-0.0625 0.562535,-0.125008 0.875055,-0.0625 0.31252,0 0.437527,0.125008 0.31252,0.187512 -0.187512,0.0625 -0.62504,0.0625 -0.937559,0.0625"
     id="path14" />
  <path
     style="fill:#ffffff;fill-opacity:1;fill-rule:evenodd;stroke:none"
     d="m 22.096509,9.3457063 c 0,0 0.250016,-0.0625 0.250016,-0.0625 z"
     id="path15" />
  <path
     style="fill:none;stroke:#000000;stroke-width:0.31252px;stroke-linecap:round;stroke-linejoin:round;stroke-miterlimit:4;stroke-dasharray:none;stroke-opacity:1"
     d="m 22.096509,9.3457063 c 0,0 0.250016,-0.0625 0.250016,-0.0625"
     id="path16" />
  <path
     style="fill:#ffffff;fill-opacity:1;fill-rule:evenodd;stroke:none"
     d="m 20.096383,9.5332183 c -0.375023,0 -0.625039,-0.0625 -0.562535,-0.187512 0.0625,-0.0625 0.375023,-0.0625 0.750047,-0.0625 0.375024,0 0.625039,0.0625 0.562535,0.125008 -0.0625,0.0625 -0.437527,0.125008 -0.750047,0.125008 z"
     id="path17" />
  <path
     style="fill:none;stroke:#000000;stroke-width:0.31252px;stroke-linecap:round;stroke-linejoin:round;stroke-miterlimit:4;stroke-dasharray:none;stroke-opacity:1"
     d="m 20.096383,9.5332183 c -0.375023,0 -0.625039,-0.0625 -0.562535,-0.187512 0.0625,-0.0625 0.375023,-0.0625 0.750047,-0.0625 0.375024,0 0.625039,0.0625 0.562535,0.125008 -0.0625,0.0625 -0.437527,0.125008 -0.750047,0.125008"
     id="path18" />
  <path
     style="fill:#ffffff;fill-opacity:1;fill-rule:evenodd;stroke:none"
     d="m 20.158887,9.4082103 c 0,0 0.125008,-0.187512 0.125008,-0.187512 z"
     id="path19" />
  <path
     style="fill:none;stroke:#000000;stroke-width:0.31252px;stroke-linecap:round;stroke-linejoin:round;stroke-miterlimit:4;stroke-dasharray:none;stroke-opacity:1"
     d="m 20.158887,9.4082103 c 0,0 0.125008,-0.187512 0.125008,-0.187512"
     id="path20" />
  <path
     style="fill:#ffffff;fill-opacity:1;fill-rule:evenodd;stroke:none"
     d="m 18.033753,9.5332183 c -0.375023,-0.0625 -0.500031,-0.125008 -0.312519,-0.187512 0.187511,-0.0625 0.562535,-0.125008 0.875055,-0.0625 0.312519,0 0.437527,0.125008 0.312519,0.187512 -0.187511,0.0625 -0.562535,0.0625 -0.875055,0.0625 z"
     id="path21" />
  <path
     style="fill:none;stroke:#000000;stroke-width:0.31252px;stroke-linecap:round;stroke-linejoin:round;stroke-miterlimit:4;stroke-dasharray:none;stroke-opacity:1"
     d="m 18.033753,9.5332183 c -0.375023,-0.0625 -0.500031,-0.125008 -0.312519,-0.187512 0.187511,-0.0625 0.562535,-0.125008 0.875055,-0.0625 0.312519,0 0.437527,0.125008 0.312519,0.187512 -0.187511,0.0625 -0.562535,0.0625 -0.875055,0.0625"
     id="path22" />
  <path
     style="fill:#ffffff;fill-opacity:1;fill-rule:evenodd;stroke:none"
     d="m 18.346273,9.4082103 c 0,0 0.31252,-0.125008 0.31252,-0.125008 z"
     id="path23" />
  <path
     style="fill:none;stroke:#000000;stroke-width:0.31252px;stroke-linecap:round;stroke-linejoin:round;stroke-miterlimit:4;stroke-dasharray:none;stroke-opacity:1"
     d="m 18.346273,9.4082103 c 0,0 0.31252,-0.125008 0.31252,-0.125008"
     id="path24" />
  <path
     style="fill:#ffffff;fill-opacity:1;fill-rule:evenodd;stroke:none"
     d="m 7.2205724,9.5332183 c -0.3125197,-0.0625 -0.4375275,-0.125008 -0.3125197,-0.187512 0.1875118,-0.0625 0.5625355,-0.125008 0.9375591,-0.0625 0.3125197,0 0.4375275,0.125008 0.2500157,0.187512 -0.1250078,0.0625 -0.5625354,0.0625 -0.8750551,0.0625 z"
     id="path25" />
  <path
     style="fill:none;stroke:#000000;stroke-width:0.31252px;stroke-linecap:round;stroke-linejoin:round;stroke-miterlimit:4;stroke-dasharray:none;stroke-opacity:1"
     d="m 7.2205724,9.5332183 c -0.3125197,-0.0625 -0.4375275,-0.125008 -0.3125197,-0.187512 0.1875118,-0.0625 0.5625355,-0.125008 0.9375591,-0.0625 0.3125197,0 0.4375275,0.125008 0.2500157,0.187512 -0.1250078,0.0625 -0.5625354,0.0625 -0.8750551,0.0625"
     id="path26" />
  <path
     style="fill:#ffffff;fill-opacity:1;fill-rule:evenodd;stroke:none"
     d="m 7.5330921,9.4082103 c 0,0 0.3125197,-0.125008 0.3125197,-0.125008 z"
     id="path27" />
  <path
     style="fill:none;stroke:#000000;stroke-width:0.31252px;stroke-linecap:round;stroke-linejoin:round;stroke-miterlimit:4;stroke-dasharray:none;stroke-opacity:1"
     d="m 7.5330921,9.4082103 c 0,0 0.3125197,-0.125008 0.3125197,-0.125008"
     id="path28" />
  <path
     style="fill:#ffffff;fill-opacity:1;fill-rule:evenodd;stroke:none"
     d="m 24.721674,9.5332183 c -0.312519,0 -0.687543,0 -0.875055,-0.0625 -0.187511,-0.0625 0,-0.187512 0.31252,-0.187512 0.31252,-0.0625 0.687543,0 0.875055,0.0625 0.187512,0.0625 0.0625,0.125008 -0.31252,0.187512 z"
     id="path29" />
  <path
     style="fill:none;stroke:#000000;stroke-width:0.31252px;stroke-linecap:round;stroke-linejoin:round;stroke-miterlimit:4;stroke-dasharray:none;stroke-opacity:1"
     d="m 24.721674,9.5332183 c -0.312519,0 -0.687543,0 -0.875055,-0.0625 -0.187511,-0.0625 0,-0.187512 0.31252,-0.187512 0.31252,-0.0625 0.687543,0 0.875055,0.0625 0.187512,0.0625 0.0625,0.125008 -0.31252,0.187512"
     id="path30" />
  <path
     style="fill:#ffffff;fill-opacity:1;fill-rule:evenodd;stroke:none"
     d="m 24.409155,9.4082103 c 0,0 -0.31252,-0.125008 -0.31252,-0.125008 z"
     id="path31" />
  <path
     style="fill:none;stroke:#000000;stroke-width:0.31252px;stroke-linecap:round;stroke-linejoin:round;stroke-miterlimit:4;stroke-dasharray:none;stroke-opacity:1"
     d="m 24.409155,9.4082103 c 0,0 -0.31252,-0.125008 -0.31252,-0.125008"
     id="path32" />
  <path
     style="fill:#ffffff;fill-opacity:1;fill-rule:evenodd;stroke:none"
     d="m 26.659297,9.4082103 c -0.0625,0.0625 -0.375024,0.125008 -0.750048,0.125008 -0.375023,0 -0.625039,-0.0625 -0.562535,-0.187512 0.0625,-0.0625 0.375023,-0.125008 0.750047,-0.0625 0.375024,0 0.625039,0.0625 0.562536,0.125008 z"
     id="path33" />
  <path
     style="fill:none;stroke:#000000;stroke-width:0.31252px;stroke-linecap:round;stroke-linejoin:round;stroke-miterlimit:4;stroke-dasharray:none;stroke-opacity:1"
     d="m 26.659297,9.4082103 c -0.0625,0.0625 -0.375024,0.125008 -0.750048,0.125008 -0.375023,0 -0.625039,-0.0625 -0.562535,-0.187512 0.0625,-0.0625 0.375023,-0.125008 0.750047,-0.0625 0.375024,0 0.625039,0.0625 0.562536,0.125008"
     id="path34" />
  <path
     style="fill:#ffffff;fill-opacity:1;fill-rule:evenodd;stroke:none"
     d="m 25.909249,9.4082103 c 0,0 -0.625039,-0.0625 -0.625039,-0.0625 z"
     id="path35" />
  <path
     style="fill:none;stroke:#000000;stroke-width:0.31252px;stroke-linecap:round;stroke-linejoin:round;stroke-miterlimit:4;stroke-dasharray:none;stroke-opacity:1"
     d="m 25.909249,9.4082103 c 0,0 -0.625039,-0.0625 -0.625039,-0.0625"
     id="path36" />
  <path
     style="fill:#ffffff;fill-opacity:1;fill-rule:evenodd;stroke:none"
     d="m 2.7827929,9.3457063 c 0,0 0.1875118,0.187512 0.1875118,0.187512 0,0 0.5000315,0 0.5000315,0 0,0 -0.1250079,-0.187512 -0.1250079,-0.187512 z"
     id="path37" />
  <path
     style="fill:none;stroke:#000000;stroke-width:0.31252px;stroke-linecap:round;stroke-linejoin:round;stroke-miterlimit:4;stroke-dasharray:none;stroke-opacity:1"
     d="m 2.7827929,9.3457063 c 0,0 0.1875118,0.187512 0.1875118,0.187512 0,0 0.5000315,0 0.5000315,0 0,0 -0.1250079,-0.187512 -0.1250079,-0.187512 0,0 -0.5625354,0 -0.5625354,0"
     id="path38" />
  <path
     style="fill:#ffffff;fill-opacity:1;fill-rule:evenodd;stroke:none"
     d="m 3.7203519,9.3457063 c 0,0 0.1250079,0.187512 0.1250079,0.187512 0,0 0.5000315,0 0.5000315,0 0,0 -0.062504,-0.187512 -0.062504,-0.187512 z"
     id="path39" />
  <path
     style="fill:none;stroke:#000000;stroke-width:0.31252px;stroke-linecap:round;stroke-linejoin:round;stroke-miterlimit:4;stroke-dasharray:none;stroke-opacity:1"
     d="m 3.7203519,9.3457063 c 0,0 0.1250079,0.187512 0.1250079,0.187512 0,0 0.5000315,0 0.5000315,0 0,0 -0.062504,-0.187512 -0.062504,-0.187512 0,0 -0.5625355,0 -0.5625355,0"
     id="path40" />
  <path
     style="fill:#ffffff;fill-opacity:1;fill-rule:evenodd;stroke:none"
     d="m 3.4078323,8.8456743 c 0,0 22.6264247,0 26.2516537,0 0.187511,0 0.250015,-0.0625 0.250015,-0.250015 0,-0.187512 0,-7.87549641 0,-8.18801611 0,-0.2500157 -0.0625,-0.2500157 -0.250015,-0.2500157 -0.500032,0 -28.93932301,0 -29.25184271,0 -0.2500158,0 -0.2500158,0 -0.2500158,0.2500157 0,0.75004731 0,7.37546461 0,8.18801611 0,0.187511 0,0.250015 0.2500158,0.250015 1.50009451,0 3.37521261,0 3.37521261,0 z"
     id="path41" />
  <path
     style="fill:none;stroke:#000000;stroke-width:0.31252px;stroke-linecap:round;stroke-linejoin:round;stroke-miterlimit:4;stroke-dasharray:none;stroke-opacity:1"
     d="m 3.4078323,8.8456743 c 0,0 22.6264247,0 26.2516537,0 0.187511,0 0.250015,-0.0625 0.250015,-0.250015 0,-0.187512 0,-7.87549641 0,-8.18801611 0,-0.2500157 -0.0625,-0.2500157 -0.250015,-0.2500157 -0.500032,0 -28.93932301,0 -29.25184271,0 -0.2500158,0 -0.2500158,0 -0.2500158,0.2500157 0,0.75004731 0,7.37546461 0,8.18801611 0,0.187511 0,0.250015 0.2500158,0.250015 1.50009451,0 3.37521261,0 3.37521261,0"
     id="path42" />
  <path
     style="fill:#ffffff;fill-opacity:1;fill-rule:evenodd;stroke:none"
     d="m 3.657848,10.283265 c 0,0 1.6251024,2.250142 1.6251024,2.250142 0,0 4.8753066,2.937685 4.8753066,2.937685 0,0 9.875622,0 9.875622,0 0,0 4.875307,-2.937685 4.875307,-2.937685 0,0 1.625103,-2.250142 1.625103,-2.250142 z"
     id="path43" />
  <path
     style="fill:none;stroke:#000000;stroke-width:0.31252px;stroke-linecap:round;stroke-linejoin:round;stroke-miterlimit:4;stroke-dasharray:none;stroke-opacity:1"
     d="m 3.657848,10.283265 c 0,0 1.6251024,2.250142 1.6251024,2.250142 0,0 4.8753066,2.937685 4.8753066,2.937685 0,0 9.875622,0 9.875622,0 0,0 4.875307,-2.937685 4.875307,-2.937685 0,0 1.625103,-2.250142 1.625103,-2.250142 0,0 -22.876441,0 -22.876441,0"
     id="path44" />
</svg>
