<?xml version="1.0" encoding="UTF-8" standalone="no"?>
<!-- This file was created by the DynamicDraw's "SVG Export" plug-in version 1.1.2.-->

<svg
   xmlns:dc="http://purl.org/dc/elements/1.1/"
   xmlns:cc="http://creativecommons.org/ns#"
   xmlns:rdf="http://www.w3.org/1999/02/22-rdf-syntax-ns#"
   xmlns:svg="http://www.w3.org/2000/svg"
   xmlns="http://www.w3.org/2000/svg"
   xmlns:sodipodi="http://sodipodi.sourceforge.net/DTD/sodipodi-0.dtd"
   xmlns:inkscape="http://www.inkscape.org/namespaces/inkscape"
   width="3.6260059mm"
   height="3.7988889mm"
   viewBox="0 0 3.6260059 3.7988891"
   version="1.1"
   id="svg148"
   sodipodi:docname="締太鼓B.svg"
   inkscape:version="0.92.4 (5da689c313, 2019-01-14)">
  <metadata
     id="metadata154">
    <rdf:RDF>
      <cc:Work
         rdf:about="">
        <dc:format>image/svg+xml</dc:format>
        <dc:type
           rdf:resource="http://purl.org/dc/dcmitype/StillImage" />
      </cc:Work>
    </rdf:RDF>
  </metadata>
  <defs
     id="defs152" />
  <sodipodi:namedview
     pagecolor="#ffffff"
     bordercolor="#666666"
     borderopacity="1"
     objecttolerance="10"
     gridtolerance="10"
     guidetolerance="10"
     inkscape:pageopacity="0"
     inkscape:pageshadow="2"
     inkscape:window-width="786"
     inkscape:window-height="480"
     id="namedview150"
     showgrid="false"
     inkscape:zoom="14.288711"
     inkscape:cx="20.499065"
     inkscape:cy="7.1791483"
     inkscape:window-x="0"
     inkscape:window-y="0"
     inkscape:window-maximized="0"
     inkscape:current-layer="svg148" />
  <g
     style="stroke-linecap:round;stroke-linejoin:round"
     id="g146"
     transform="translate(-0.28559406,-0.285594)">
    <!-- start DynamicDraw object [1], type : FDOJ_GROUP -->
    <g
       id="g144">
      <!-- group -->
      <!-- start DynamicDraw object [1], type : FDOJ_RECT -->
      <rect
         x="0.75350398"
         y="0.594881"
         width="0.20434099"
         height="0.33869401"
         style="fill:#ffffff;stroke:#000000;stroke-width:0.1"
         id="rect2" />
      <!-- end DynamicDraw object [1], type : FDOJ_RECT -->
      <!-- start DynamicDraw object [2], type : FDOJ_RECT -->
      <rect
         x="3.2076919"
         y="0.594881"
         width="0.20434099"
         height="0.33869401"
         style="fill:#ffffff;stroke:#000000;stroke-width:0.1"
         id="rect4" />
      <!-- end DynamicDraw object [2], type : FDOJ_RECT -->
      <!-- start DynamicDraw object [3], type : FDOJ_RECT -->
      <rect
         x="0.75350398"
         y="0.93357497"
         width="0.20434099"
         height="2.3250501"
         style="fill:#ffffff;stroke:#000000;stroke-width:0.1"
         id="rect6" />
      <!-- end DynamicDraw object [3], type : FDOJ_RECT -->
      <!-- start DynamicDraw object [4], type : FDOJ_RECT -->
      <rect
         x="3.2076919"
         y="0.93357497"
         width="0.20434099"
         height="2.3250501"
         style="fill:#ffffff;stroke:#000000;stroke-width:0.1"
         id="rect8" />
      <!-- end DynamicDraw object [4], type : FDOJ_RECT -->
      <!-- start DynamicDraw object [5], type : FDOJ_RECT -->
      <rect
         x="0.54916298"
         y="1.2710561"
         width="0.20434099"
         height="2.3175299"
         style="fill:#ffffff;stroke:#000000;stroke-width:0.1"
         id="rect10" />
      <!-- end DynamicDraw object [5], type : FDOJ_RECT -->
      <!-- start DynamicDraw object [6], type : FDOJ_RECT -->
      <rect
         x="3.4120331"
         y="1.2710561"
         width="0.20434099"
         height="2.3175299"
         style="fill:#ffffff;stroke:#000000;stroke-width:0.1"
         id="rect12" />
      <!-- end DynamicDraw object [6], type : FDOJ_RECT -->
      <!-- start DynamicDraw object [7], type : FDOJ_RECT -->
      <rect
         x="0.75350398"
         y="3.6559441"
         width="2.658529"
         height="0.31118199"
         style="fill:#ffffff;stroke:#000000;stroke-width:0.1"
         id="rect14" />
      <!-- end DynamicDraw object [7], type : FDOJ_RECT -->
      <!-- start DynamicDraw object [8], type : FDOJ_GROUP -->
      <g
         id="g138">
        <!-- group -->
        <!-- start DynamicDraw object [8], type : FDOJ_GROUP -->
        <g
           id="g50">
          <!-- group -->
          <!-- start DynamicDraw object [8], type : FDOJ_GROUP -->
          <g
             id="g20">
            <!-- group -->
            <!-- start DynamicDraw object [8], type : FDOJ_ARC -->
            <ellipse
               cx="1.615896"
               cy="1.015919"
               rx="0.053684998"
               ry="0.051550999"
               style="fill:#ffffff;stroke:#000000;stroke-width:0.1"
               transform="matrix(0.95537577,-0.29539319,0.32326914,0.94675679,-0.25630715,0.53141546)"
               id="ellipse16" />
            <!-- end DynamicDraw object [8], type : FDOJ_ARC -->
            <!-- start DynamicDraw object [9], type : FDOJ_ARC -->
            <ellipse
               cx="2.6154959"
               cy="3.9434421"
               rx="0.053684998"
               ry="0.051550999"
               style="fill:#ffffff;stroke:#000000;stroke-width:0.1"
               transform="matrix(0.95537577,-0.29539319,0.32326914,0.94675679,-1.1580786,0.98256121)"
               id="ellipse18" />
            <!-- end DynamicDraw object [9], type : FDOJ_ARC -->
          </g>
          <!-- group -->
          <!-- end DynamicDraw object [8], type : FDOJ_GROUP -->
          <!-- start DynamicDraw object [9], type : FDOJ_GROUP -->
          <g
             id="g26">
            <!-- group -->
            <!-- start DynamicDraw object [9], type : FDOJ_ARC -->
            <ellipse
               cx="3.42419"
               cy="3.384335"
               rx="0.052235"
               ry="0.052981999"
               style="fill:#ffffff;stroke:#000000;stroke-width:0.1"
               transform="matrix(-0.60684671,0.79481889,-0.82346873,-0.56932251,8.2890425,2.5895022)"
               id="ellipse22" />
            <!-- end DynamicDraw object [9], type : FDOJ_ARC -->
            <!-- start DynamicDraw object [10], type : FDOJ_ARC -->
            <ellipse
               cx="0.80720299"
               cy="1.575026"
               rx="0.052235"
               ry="0.052981999"
               style="fill:#ffffff;stroke:#000000;stroke-width:0.1"
               transform="matrix(-0.60684671,0.79481889,-0.82346873,-0.56932251,2.5940361,1.8301436)"
               id="ellipse24" />
            <!-- end DynamicDraw object [10], type : FDOJ_ARC -->
          </g>
          <!-- group -->
          <!-- end DynamicDraw object [9], type : FDOJ_GROUP -->
          <!-- start DynamicDraw object [10], type : FDOJ_GROUP -->
          <g
             id="g32">
            <!-- group -->
            <!-- start DynamicDraw object [10], type : FDOJ_ARC -->
            <ellipse
               cx="2.6154959"
               cy="1.015919"
               rx="0.053684998"
               ry="0.051550999"
               style="fill:#ffffff;stroke:#000000;stroke-width:0.1"
               transform="matrix(0.95537577,0.29539319,-0.32326914,0.94675679,0.44512975,-0.71850891)"
               id="ellipse28" />
            <!-- end DynamicDraw object [10], type : FDOJ_ARC -->
            <!-- start DynamicDraw object [11], type : FDOJ_ARC -->
            <ellipse
               cx="1.615896"
               cy="3.9434421"
               rx="0.053684998"
               ry="0.051550999"
               style="fill:#ffffff;stroke:#000000;stroke-width:0.1"
               transform="matrix(0.95537577,0.29539319,-0.32326914,0.94675679,1.3469012,-0.26736316)"
               id="ellipse30" />
            <!-- end DynamicDraw object [11], type : FDOJ_ARC -->
          </g>
          <!-- group -->
          <!-- end DynamicDraw object [10], type : FDOJ_GROUP -->
          <!-- start DynamicDraw object [11], type : FDOJ_GROUP -->
          <g
             id="g38">
            <!-- group -->
            <!-- start DynamicDraw object [11], type : FDOJ_ARC -->
            <ellipse
               cx="3.42419"
               cy="1.575026"
               rx="0.052235"
               ry="0.052981999"
               style="fill:#ffffff;stroke:#000000;stroke-width:0.1"
               transform="matrix(0.60684671,0.79481889,-0.82346873,0.56932251,2.6432162,-2.0432827)"
               id="ellipse34" />
            <!-- end DynamicDraw object [11], type : FDOJ_ARC -->
            <!-- start DynamicDraw object [12], type : FDOJ_ARC -->
            <ellipse
               cx="0.80720299"
               cy="3.384335"
               rx="0.052235"
               ry="0.052981999"
               style="fill:#ffffff;stroke:#000000;stroke-width:0.1"
               transform="matrix(0.60684671,0.79481889,-0.82346873,0.56932251,3.1042486,0.8159767)"
               id="ellipse36" />
            <!-- end DynamicDraw object [12], type : FDOJ_ARC -->
          </g>
          <!-- group -->
          <!-- end DynamicDraw object [11], type : FDOJ_GROUP -->
          <!-- start DynamicDraw object [12], type : FDOJ_GROUP -->
          <g
             id="g44">
            <!-- group -->
            <!-- start DynamicDraw object [12], type : FDOJ_ARC -->
            <ellipse
               cx="3.733083"
               cy="2.479681"
               rx="0.051318001"
               ry="0.053929001"
               style="fill:#ffffff;stroke:#000000;stroke-width:0.1"
               transform="rotate(90,3.733083,2.479681)"
               id="ellipse40" />
            <!-- end DynamicDraw object [12], type : FDOJ_ARC -->
            <!-- start DynamicDraw object [13], type : FDOJ_ARC -->
            <ellipse
               cx="0.49831"
               cy="2.479681"
               rx="0.051318001"
               ry="0.053929001"
               style="fill:#ffffff;stroke:#000000;stroke-width:0.1"
               transform="rotate(90,0.49831,2.479681)"
               id="ellipse42" />
            <!-- end DynamicDraw object [13], type : FDOJ_ARC -->
          </g>
          <!-- group -->
          <!-- end DynamicDraw object [12], type : FDOJ_GROUP -->
          <!-- start DynamicDraw object [13], type : FDOJ_ARC -->
          <ellipse
             cx="2.1158421"
             cy="2.4801071"
             rx="1.610543"
             ry="1.54653"
             style="fill:#ffffff;stroke:#000000;stroke-width:0.1"
             transform="matrix(0.95537577,-0.29539319,0.32326914,0.94675679,-0.70732424,0.75705417)"
             id="ellipse46" />
          <!-- end DynamicDraw object [13], type : FDOJ_ARC -->
          <!-- start DynamicDraw object [14], type : FDOJ_ARC -->
          <ellipse
             cx="2.115696"
             cy="2.479681"
             rx="1.340045"
             ry="1.286783"
             style="fill:#ffffff;stroke:#000000;stroke-width:0.1"
             transform="matrix(0.95537577,-0.29539319,0.32326914,0.94675679,-0.70719304,0.75698836)"
             id="ellipse48" />
          <!-- end DynamicDraw object [14], type : FDOJ_ARC -->
        </g>
        <!-- group -->
        <!-- end DynamicDraw object [8], type : FDOJ_GROUP -->
        <!-- start DynamicDraw object [9], type : FDOJ_POLY -->
        <path
           d="m 1.69454,3.394424 c 0,0 -0.0051,0.46736 -0.0051,0.46736 6.84e-4,0.02806 -0.024148,0.049924 -0.047747,0.049544 -0.023599,-3.8e-4 -0.04714,-0.019623 -0.046649,-0.051064 0.00115,-0.073505 0.0051,-0.46736 0.0051,-0.46736 0,0 -0.00346,-0.011318 0.0437,-0.010643 0.053218,7.61e-4 0.050696,0.012163 0.050696,0.012163"
           style="fill:#ffffff;stroke:#333333;stroke-width:0.1"
           id="path52"
           inkscape:connector-curvature="0" />
        <!-- end DynamicDraw object [9], type : FDOJ_POLY -->
        <!-- start DynamicDraw object [10], type : FDOJ_POLY -->
        <path
           d="m 2.546655,3.398203 c 0,0 0.0051,0.467359 0.0051,0.467359 -6.84e-4,0.028061 0.024147,0.049925 0.047746,0.049545 0.0236,-3.8e-4 0.047141,-0.019623 0.04665,-0.051064 -0.00115,-0.073505 -0.0051,-0.46736 -0.0051,-0.46736 0,0 0.00346,-0.011318 -0.0437,-0.010643 -0.053218,7.61e-4 -0.050696,0.012163 -0.050696,0.012163"
           style="fill:#ffffff;stroke:#333333;stroke-width:0.1"
           id="path54"
           inkscape:connector-curvature="0" />
        <!-- end DynamicDraw object [10], type : FDOJ_POLY -->
        <!-- start DynamicDraw object [11], type : FDOJ_POLY -->
        <path
           d="m 3.41984,2.765072 c 0,0 -0.0096,0.554172 -0.0096,0.554172 C 3.410658,3.347312 3.385618,3.368821 3.362024,3.368106 3.33843,3.36739 3.315076,3.347814 3.315869,3.316382 c 0.00185,-0.073483 0.0096,-0.554172 0.0096,-0.554172 0,0 -0.00335,-0.011366 0.043799,-0.010021 0.053207,0.00152 0.050576,0.012883 0.050576,0.012883"
           style="fill:#ffffff;stroke:#333333;stroke-width:0.1"
           id="path56"
           inkscape:connector-curvature="0" />
        <!-- end DynamicDraw object [11], type : FDOJ_POLY -->
        <!-- start DynamicDraw object [12], type : FDOJ_POLY -->
        <path
           d="m 0.793832,2.820658 c 0,0 0.009595,0.508824 0.009595,0.508824 C 0.803014,3.35755 0.828054,3.379059 0.851648,3.378344 0.875241,3.377628 0.898596,3.358052 0.897803,3.32662 0.895948,3.253137 0.888207,2.817796 0.888207,2.817796 c 0,0 0.00335,-0.011367 -0.0438,-0.010021 C 0.7912,2.809293 0.793832,2.820658 0.793832,2.820658"
           style="fill:#ffffff;stroke:#333333;stroke-width:0.1"
           id="path58"
           inkscape:connector-curvature="0" />
        <!-- end DynamicDraw object [12], type : FDOJ_POLY -->
        <!-- start DynamicDraw object [13], type : FDOJ_GROUP -->
        <g
           id="g64">
          <!-- group -->
          <!-- start DynamicDraw object [13], type : FDOJ_ARC -->
          <ellipse
             cx="2.0914919"
             cy="2.3725209"
             rx="1.5928971"
             ry="1.5157861"
             style="fill:#ffffff;stroke:#000000;stroke-width:0.1"
             id="ellipse60" />
          <!-- end DynamicDraw object [13], type : FDOJ_ARC -->
          <!-- start DynamicDraw object [14], type : FDOJ_ARC -->
          <ellipse
             cx="2.0914919"
             cy="2.3725209"
             rx="1.481723"
             ry="1.4099931"
             style="fill:#ffffff;stroke:#000000;stroke-width:0.1"
             id="ellipse62" />
          <!-- end DynamicDraw object [14], type : FDOJ_ARC -->
        </g>
        <!-- group -->
        <!-- end DynamicDraw object [13], type : FDOJ_GROUP -->
        <!-- start DynamicDraw object [14], type : FDOJ_POLY -->
        <path
           d="m 1.149061,3.366271 c 0,0 0.00801,0.145878 0.00801,0.145878 C 1.158524,3.52167 1.135864,3.529591 1.113717,3.529929 1.09157,3.530268 1.068933,3.524196 1.068484,3.513503 1.067436,3.488506 1.060473,3.367625 1.060473,3.367625 c 0,0 -0.00357,-0.00378 0.040683,-0.00448 0.04994,-7.96e-4 0.047905,0.00313 0.047905,0.00313"
           style="fill:#ffffff;stroke:#333333;stroke-width:0.1"
           id="path66"
           inkscape:connector-curvature="0" />
        <!-- end DynamicDraw object [14], type : FDOJ_POLY -->
        <!-- start DynamicDraw object [15], type : FDOJ_POLY -->
        <path
           d="m 3.134029,3.359751 c 0,0 -0.00507,0.147312 -0.00507,0.147312 C 3.129561,3.516593 3.10622,3.52393 3.084068,3.523719 3.061915,3.523507 3.039845,3.516891 3.04035,3.506217 3.04153,3.481263 3.04542,3.358905 3.04542,3.358905 c 0,0 -0.00323,-0.00386 0.041038,-0.00346 0.049955,4.45e-4 0.047572,0.00431 0.047572,0.00431"
           style="fill:#ffffff;stroke:#333333;stroke-width:0.1"
           id="path68"
           inkscape:connector-curvature="0" />
        <!-- end DynamicDraw object [15], type : FDOJ_POLY -->
        <!-- start DynamicDraw object [16], type : FDOJ_GROUP -->
        <g
           id="g104">
          <!-- group -->
          <!-- start DynamicDraw object [16], type : FDOJ_GROUP -->
          <g
             id="g74">
            <!-- group -->
            <!-- start DynamicDraw object [16], type : FDOJ_ARC -->
            <ellipse
               cx="2.098597"
               cy="0.391516"
               rx="0.058766998"
               ry="0.055922002"
               style="fill:#ffffff;stroke:#000000;stroke-width:0.1"
               id="ellipse70" />
            <!-- end DynamicDraw object [16], type : FDOJ_ARC -->
            <!-- start DynamicDraw object [17], type : FDOJ_ARC -->
            <ellipse
               cx="2.098597"
               cy="3.7458551"
               rx="0.058766998"
               ry="0.055922002"
               style="fill:#ffffff;stroke:#000000;stroke-width:0.1"
               id="ellipse72" />
            <!-- end DynamicDraw object [17], type : FDOJ_ARC -->
          </g>
          <!-- group -->
          <!-- end DynamicDraw object [16], type : FDOJ_GROUP -->
          <!-- start DynamicDraw object [17], type : FDOJ_GROUP -->
          <g
             id="g80">
            <!-- group -->
            <!-- start DynamicDraw object [17], type : FDOJ_ARC -->
            <ellipse
               cx="3.134563"
               cy="3.425544"
               rx="0.057799999"
               ry="0.056857999"
               style="fill:#ffffff;stroke:#000000;stroke-width:0.1"
               transform="matrix(-0.82255255,0.56868911,-0.60752264,-0.79570417,7.7940013,4.3686718)"
               id="ellipse76" />
            <!-- end DynamicDraw object [17], type : FDOJ_ARC -->
            <!-- start DynamicDraw object [18], type : FDOJ_ARC -->
            <ellipse
               cx="1.062632"
               cy="0.71182698"
               rx="0.057799999"
               ry="0.056857999"
               style="fill:#ffffff;stroke:#000000;stroke-width:0.1"
               transform="matrix(-0.82255255,0.56868911,-0.60752264,-0.79570417,2.3691537,0.67392346)"
               id="ellipse78" />
            <!-- end DynamicDraw object [18], type : FDOJ_ARC -->
          </g>
          <!-- group -->
          <!-- end DynamicDraw object [17], type : FDOJ_GROUP -->
          <!-- start DynamicDraw object [18], type : FDOJ_GROUP -->
          <g
             id="g86">
            <!-- group -->
            <!-- start DynamicDraw object [18], type : FDOJ_ARC -->
            <ellipse
               cx="3.134563"
               cy="0.71182698"
               rx="0.057799999"
               ry="0.056857999"
               style="fill:#ffffff;stroke:#000000;stroke-width:0.1"
               transform="matrix(0.82255255,0.56868911,-0.60752264,0.79570417,0.98867123,-1.6371686)"
               id="ellipse82" />
            <!-- end DynamicDraw object [18], type : FDOJ_ARC -->
            <!-- start DynamicDraw object [19], type : FDOJ_ARC -->
            <ellipse
               cx="1.062632"
               cy="3.425544"
               rx="0.057799999"
               ry="0.056857999"
               style="fill:#ffffff;stroke:#000000;stroke-width:0.1"
               transform="matrix(0.82255255,0.56868911,-0.60752264,0.79570417,2.2696569,0.09551712)"
               id="ellipse84" />
            <!-- end DynamicDraw object [19], type : FDOJ_ARC -->
          </g>
          <!-- group -->
          <!-- end DynamicDraw object [18], type : FDOJ_GROUP -->
          <!-- start DynamicDraw object [19], type : FDOJ_GROUP -->
          <g
             id="g92">
            <!-- group -->
            <!-- start DynamicDraw object [19], type : FDOJ_ARC -->
            <ellipse
               cx="3.7748251"
               cy="1.5504121"
               rx="0.056200001"
               ry="0.058476001"
               style="fill:#ffffff;stroke:#000000;stroke-width:0.1"
               transform="matrix(0.32313162,0.94635403,-0.95578237,0.2955189,4.0369161,-2.4800849)"
               id="ellipse88" />
            <!-- end DynamicDraw object [19], type : FDOJ_ARC -->
            <!-- start DynamicDraw object [20], type : FDOJ_ARC -->
            <ellipse
               cx="0.42236999"
               cy="2.5869601"
               rx="0.056200001"
               ry="0.058476001"
               style="fill:#ffffff;stroke:#000000;stroke-width:0.1"
               transform="matrix(0.32313162,0.94635403,-0.95578237,0.2955189,2.7584597,1.4227529)"
               id="ellipse90" />
            <!-- end DynamicDraw object [20], type : FDOJ_ARC -->
          </g>
          <!-- group -->
          <!-- end DynamicDraw object [19], type : FDOJ_GROUP -->
          <!-- start DynamicDraw object [20], type : FDOJ_GROUP -->
          <g
             id="g98">
            <!-- group -->
            <!-- start DynamicDraw object [20], type : FDOJ_ARC -->
            <ellipse
               cx="3.7748251"
               cy="2.5869601"
               rx="0.056200001"
               ry="0.058476001"
               style="fill:#ffffff;stroke:#000000;stroke-width:0.1"
               transform="matrix(-0.32313162,0.94635403,-0.95578237,-0.2955189,7.4671611,-0.22086529)"
               id="ellipse94" />
            <!-- end DynamicDraw object [20], type : FDOJ_ARC -->
            <!-- start DynamicDraw object [21], type : FDOJ_ARC -->
            <ellipse
               cx="0.42236999"
               cy="1.5504121"
               rx="0.056200001"
               ry="0.058476001"
               style="fill:#ffffff;stroke:#000000;stroke-width:0.1"
               transform="matrix(-0.32313162,0.94635403,-0.95578237,-0.2955189,2.0407076,1.6088765)"
               id="ellipse96" />
            <!-- end DynamicDraw object [21], type : FDOJ_ARC -->
          </g>
          <!-- group -->
          <!-- end DynamicDraw object [20], type : FDOJ_GROUP -->
          <!-- start DynamicDraw object [21], type : FDOJ_ARC -->
          <ellipse
             cx="2.098597"
             cy="2.0691741"
             rx="1.763003"
             ry="1.677658"
             style="fill:#ffffff;stroke:#000000;stroke-width:0.1"
             id="ellipse100" />
          <!-- end DynamicDraw object [21], type : FDOJ_ARC -->
          <!-- start DynamicDraw object [22], type : FDOJ_ARC -->
          <ellipse
             cx="2.098597"
             cy="2.068686"
             rx="1.466899"
             ry="1.395887"
             style="fill:#ffffff;stroke:#000000;stroke-width:0.1"
             id="ellipse102" />
          <!-- end DynamicDraw object [22], type : FDOJ_ARC -->
        </g>
        <!-- group -->
        <!-- end DynamicDraw object [16], type : FDOJ_GROUP -->
        <!-- start DynamicDraw object [17], type : FDOJ_POLY -->
        <path
           d="m 2.146591,3.673884 c 0,0 0,0.177268 0,0.177268 9.89e-4,0.011633 -0.023602,0.020867 -0.047203,0.020867 -0.023601,0 -0.04735,-0.00782 -0.047202,-0.020867 3.45e-4,-0.030494 0,-0.177268 0,-0.177268 0,0 -0.00358,-0.00467 0.04358,-0.00471 0.053222,-3.9e-5 0.050825,0.00471 0.050825,0.00471"
           style="fill:#ffffff;stroke:#333333;stroke-width:0.1"
           id="path106"
           inkscape:connector-curvature="0" />
        <!-- end DynamicDraw object [17], type : FDOJ_POLY -->
        <!-- start DynamicDraw object [18], type : FDOJ_GROUP -->
        <g
           id="g112">
          <!-- group -->
          <!-- start DynamicDraw object [18], type : FDOJ_POLY -->
          <path
             d="m 2.038992,3.791151 c 0,0 0,-0.129679 0,-0.129679 -0.00124,-0.024736 0.029692,-0.04437 0.059383,-0.04437 0.029691,0 0.059568,0.016635 0.059382,0.04437 -4.34e-4,0.064838 0,0.129679 0,0.129679 0,0 0.00451,0.00993 -0.054826,0.010006 C 2.035977,3.801241 2.038992,3.791151 2.038992,3.791151"
             style="fill:#ffffff;stroke:#333333;stroke-width:0.1"
             id="path108"
             inkscape:connector-curvature="0" />
          <!-- end DynamicDraw object [18], type : FDOJ_POLY -->
          <!-- start DynamicDraw object [19], type : FDOJ_POLY -->
          <path
             d="m 2.038992,0.345601 c 0,0 0,0.129679 0,0.129679 -0.00124,0.024736 0.029692,0.04437 0.059383,0.04437 0.029691,0 0.059568,-0.016636 0.059382,-0.04437 -4.34e-4,-0.064838 0,-0.129679 0,-0.129679 0,0 0.00451,-0.009932 -0.054826,-0.010006 -0.066954,-8.4e-5 -0.063939,0.010006 -0.063939,0.010006"
             style="fill:#ffffff;stroke:#333333;stroke-width:0.1"
             id="path110"
             inkscape:connector-curvature="0" />
          <!-- end DynamicDraw object [19], type : FDOJ_POLY -->
        </g>
        <!-- group -->
        <!-- end DynamicDraw object [18], type : FDOJ_GROUP -->
        <!-- start DynamicDraw object [19], type : FDOJ_GROUP -->
        <g
           id="g118">
          <!-- group -->
          <!-- start DynamicDraw object [19], type : FDOJ_POLY -->
          <path
             d="m 0.362931,2.546779 c 0,0 0.129256,-0.040073 0.129256,-0.040073 0.024271,-0.00877 0.0534,0.013233 0.062575,0.040177 C 0.563938,2.573827 0.556589,2.60608 0.528887,2.614482 0.464126,2.634124 0.399631,2.654554 0.399631,2.654554 c 0,0 -0.008507,0.00716 -0.026916,-0.04666 C 0.351941,2.547161 0.362931,2.546779 0.362931,2.546779"
             style="fill:#ffffff;stroke:#333333;stroke-width:0.1"
             id="path114"
             inkscape:connector-curvature="0" />
          <!-- end DynamicDraw object [19], type : FDOJ_POLY -->
          <!-- start DynamicDraw object [20], type : FDOJ_POLY -->
          <path
             d="m 3.797254,1.482046 c 0,0 -0.129256,0.040073 -0.129256,0.040073 -0.02504,0.00651 -0.03505,0.040655 -0.025875,0.067599 0.00917,0.026943 0.034988,0.048915 0.062575,0.040176 0.064493,-0.02043 0.129256,-0.040073 0.129256,-0.040073 0,0 0.011293,0.00102 -0.00697,-0.052845 C 3.80638,1.476191 3.797254,1.482046 3.797254,1.482046"
             style="fill:#ffffff;stroke:#333333;stroke-width:0.1"
             id="path116"
             inkscape:connector-curvature="0" />
          <!-- end DynamicDraw object [20], type : FDOJ_POLY -->
        </g>
        <!-- group -->
        <!-- end DynamicDraw object [19], type : FDOJ_GROUP -->
        <!-- start DynamicDraw object [20], type : FDOJ_GROUP -->
        <g
           id="g124">
          <!-- group -->
          <!-- start DynamicDraw object [20], type : FDOJ_POLY -->
          <path
             d="m 0.989073,3.428909 c 0,0 0.079885,-0.104913 0.079885,-0.104913 0.014231,-0.02071 0.051354,-0.019243 0.075374,-0.00259 0.024021,0.016652 0.037944,0.046867 0.020709,0.0692 -0.040293,0.052212 -0.079885,0.104912 -0.079885,0.104912 0,0 -0.00247,0.010563 -0.050519,-0.022653 C 0.980418,3.435381 0.989073,3.428909 0.989073,3.428909"
             style="fill:#ffffff;stroke:#333333;stroke-width:0.1"
             id="path120"
             inkscape:connector-curvature="0" />
          <!-- end DynamicDraw object [20], type : FDOJ_POLY -->
          <!-- start DynamicDraw object [21], type : FDOJ_POLY -->
          <path
             d="m 3.111602,0.641401 c 0,0 -0.079885,0.104912 -0.079885,0.104912 -0.016245,0.019314 -0.00331,0.052548 0.020709,0.0692 C 3.076447,0.832165 3.110865,0.835463 3.1278,0.812921 3.16739,0.760223 3.207685,0.708009 3.207685,0.708009 c 0,0 0.00976,-0.005507 -0.038191,-0.038844 C 3.115378,0.631546 3.111602,0.641401 3.111602,0.641401"
             style="fill:#ffffff;stroke:#333333;stroke-width:0.1"
             id="path122"
             inkscape:connector-curvature="0" />
          <!-- end DynamicDraw object [21], type : FDOJ_POLY -->
        </g>
        <!-- group -->
        <!-- end DynamicDraw object [20], type : FDOJ_GROUP -->
        <!-- start DynamicDraw object [21], type : FDOJ_GROUP -->
        <g
           id="g130">
          <!-- group -->
          <!-- start DynamicDraw object [21], type : FDOJ_POLY -->
          <path
             d="m 1.085435,0.641459 c 0,0 0.079885,0.104912 0.079885,0.104912 C 1.181565,0.765685 1.168632,0.79892 1.144611,0.815572 1.120591,0.832224 1.086172,0.835522 1.069237,0.81298 1.029647,0.760282 0.989353,0.708068 0.989353,0.708068 c 0,0 -0.009765,-0.005508 0.03819,-0.038844 C 1.081659,0.631605 1.085435,0.641459 1.085435,0.641459"
             style="fill:#ffffff;stroke:#333333;stroke-width:0.1"
             id="path126"
             inkscape:connector-curvature="0" />
          <!-- end DynamicDraw object [21], type : FDOJ_POLY -->
          <!-- start DynamicDraw object [22], type : FDOJ_POLY -->
          <path
             d="m 3.207964,3.428967 c 0,0 -0.079885,-0.104912 -0.079885,-0.104912 C 3.113848,3.303345 3.076726,3.304811 3.052705,3.321463 3.028684,3.338116 3.014761,3.36833 3.031996,3.390664 c 0.040293,0.052211 0.079885,0.104912 0.079885,0.104912 0,0 0.00247,0.010563 0.050519,-0.022653 C 3.216619,3.435439 3.207964,3.428967 3.207964,3.428967"
             style="fill:#ffffff;stroke:#333333;stroke-width:0.1"
             id="path128"
             inkscape:connector-curvature="0" />
          <!-- end DynamicDraw object [22], type : FDOJ_POLY -->
        </g>
        <!-- group -->
        <!-- end DynamicDraw object [21], type : FDOJ_GROUP -->
        <!-- start DynamicDraw object [22], type : FDOJ_GROUP -->
        <g
           id="g136">
          <!-- group -->
          <!-- start DynamicDraw object [22], type : FDOJ_POLY -->
          <path
             d="m 0.399777,1.482024 c 0,0 0.129256,0.040073 0.129256,0.040073 0.025041,0.00651 0.03505,0.040654 0.025875,0.067598 C 0.545733,1.616639 0.51992,1.638611 0.492333,1.629872 0.42784,1.609442 0.363077,1.589799 0.363077,1.589799 c 0,0 -0.011293,0.00102 0.006968,-0.052845 0.020606,-0.060785 0.029732,-0.05493 0.029732,-0.05493"
             style="fill:#ffffff;stroke:#333333;stroke-width:0.1"
             id="path132"
             inkscape:connector-curvature="0" />
          <!-- end DynamicDraw object [22], type : FDOJ_POLY -->
          <!-- start DynamicDraw object [23], type : FDOJ_POLY -->
          <path
             d="m 3.8341,2.546757 c 0,0 -0.129256,-0.040073 -0.129256,-0.040073 C 3.680573,2.497911 3.651444,2.519917 3.642269,2.546861 3.633093,2.573805 3.640442,2.606057 3.668144,2.614459 3.732905,2.634101 3.7974,2.654532 3.7974,2.654532 c 0,0 0.00851,0.00716 0.026916,-0.04666 C 3.84509,2.547139 3.8341,2.546757 3.8341,2.546757"
             style="fill:#ffffff;stroke:#333333;stroke-width:0.1"
             id="path134"
             inkscape:connector-curvature="0" />
          <!-- end DynamicDraw object [23], type : FDOJ_POLY -->
        </g>
        <!-- group -->
        <!-- end DynamicDraw object [22], type : FDOJ_GROUP -->
      </g>
      <!-- group -->
      <!-- end DynamicDraw object [8], type : FDOJ_GROUP -->
      <!-- start DynamicDraw object [9], type : FDOJ_RECT -->
      <rect
         x="0.54916298"
         y="3.5885861"
         width="0.20434099"
         height="0.44589701"
         style="fill:#ffffff;stroke:#000000;stroke-width:0.1"
         id="rect140" />
      <!-- end DynamicDraw object [9], type : FDOJ_RECT -->
      <!-- start DynamicDraw object [10], type : FDOJ_RECT -->
      <rect
         x="3.4120331"
         y="3.5885861"
         width="0.20434099"
         height="0.44589701"
         style="fill:#ffffff;stroke:#000000;stroke-width:0.1"
         id="rect142" />
      <!-- end DynamicDraw object [10], type : FDOJ_RECT -->
    </g>
    <!-- group -->
    <!-- end DynamicDraw object [1], type : FDOJ_GROUP -->
  </g>
  <!-- stroke-linecap, etc -->
</svg>
