<?xml version="1.0" encoding="UTF-8" standalone="no"?>
<svg
   version="1.0"
   width="15.0822mm"
   height="3.77055mm"
   id="svg116"
   xmlns="http://www.w3.org/2000/svg"
   xmlns:svg="http://www.w3.org/2000/svg">
  <defs
     id="defs1">
    <pattern
       id="EMFhbasepattern"
       patternUnits="userSpaceOnUse"
       width="6"
       height="6"
       x="0"
       y="0" />
  </defs>
  <path
     style="fill:#ffffff;fill-opacity:1;fill-rule:evenodd;stroke:none"
     d="m 0.68754334,14.000882 c -0.2500158,0 -0.4375276,-0.125007 -0.4375276,-0.375023 0,0 0,-12.93831566 0,-12.93831566 0,-0.2500158 0.1875118,-0.4375276 0.4375276,-0.4375276 0,0 55.69100866,0 55.69100866,0 0.250015,0 0.375023,0.1875118 0.375023,0.4375276 0,0 0,12.93831566 0,12.93831566 0,0.250016 -0.125008,0.375023 -0.375023,0.375023 z"
     id="path1" />
  <path
     style="fill:none;stroke:#000000;stroke-width:0.500031px;stroke-linecap:round;stroke-linejoin:round;stroke-miterlimit:4;stroke-dasharray:none;stroke-opacity:1"
     d="m 0.68754334,14.000882 c -0.2500158,0 -0.4375276,-0.125007 -0.4375276,-0.375023 0,0 0,-12.93831566 0,-12.93831566 0,-0.2500158 0.1875118,-0.4375276 0.4375276,-0.4375276 0,0 55.69100866,0 55.69100866,0 0.250015,0 0.375023,0.1875118 0.375023,0.4375276 0,0 0,12.93831566 0,12.93831566 0,0.250016 -0.125008,0.375023 -0.375023,0.375023 0,0 -55.69100866,0 -55.69100866,0"
     id="path2" />
  <path
     style="fill:#ffffff;fill-opacity:1;fill-rule:evenodd;stroke:none"
     d="m 33.189591,12.625796 c 0,0 -9.250583,0 -9.250583,0 0,0 0,-3.8127405 0,-3.8127405 0,0 9.250583,0 9.250583,0 z"
     id="path3" />
  <path
     style="fill:none;stroke:#000000;stroke-width:0.500031px;stroke-linecap:round;stroke-linejoin:round;stroke-miterlimit:4;stroke-dasharray:none;stroke-opacity:1"
     d="m 33.189591,12.625796 c 0,0 -9.250583,0 -9.250583,0 0,0 0,-3.8127405 0,-3.8127405 0,0 9.250583,0 9.250583,0 0,0 0,3.8127405 0,3.8127405"
     id="path4" />
  <path
     style="fill:#ffffff;fill-opacity:1;fill-rule:evenodd;stroke:none"
     d="m 53.315859,6.7504252 c -0.0625,0 -0.0625,-0.062504 -0.0625,-0.062504 0,0 0,-6.31289756 0,-6.31289756 0,-0.062504 0,-0.062504 0.0625,-0.062504 0,0 2.812677,0 2.812677,0 0,0 0,0 0,0.062504 0,0 0,6.31289756 0,6.31289756 0,0 0,0.062504 0,0.062504 z"
     id="path5" />
  <path
     style="fill:none;stroke:#000000;stroke-width:0.500031px;stroke-linecap:round;stroke-linejoin:round;stroke-miterlimit:4;stroke-dasharray:none;stroke-opacity:1"
     d="m 53.315859,6.7504252 c -0.0625,0 -0.0625,-0.062504 -0.0625,-0.062504 0,0 0,-6.31289756 0,-6.31289756 0,-0.062504 0,-0.062504 0.0625,-0.062504 0,0 2.812677,0 2.812677,0 0,0 0,0 0,0.062504 0,0 0,6.31289756 0,6.31289756 0,0 0,0.062504 0,0.062504 0,0 -2.812677,0 -2.812677,0"
     id="path6" />
  <path
     style="fill:#ffffff;fill-opacity:1;fill-rule:evenodd;stroke:none"
     d="m 50.378174,6.7504252 c 0,0 -0.0625,-0.062504 -0.0625,-0.062504 0,0 0,-6.31289756 0,-6.31289756 0,-0.062504 0.0625,-0.062504 0.0625,-0.062504 0,0 2.812677,0 2.812677,0 0.0625,0 0.0625,0 0.0625,0.062504 0,0 0,6.31289756 0,6.31289756 0,0 0,0.062504 -0.0625,0.062504 z"
     id="path7" />
  <path
     style="fill:none;stroke:#000000;stroke-width:0.500031px;stroke-linecap:round;stroke-linejoin:round;stroke-miterlimit:4;stroke-dasharray:none;stroke-opacity:1"
     d="m 50.378174,6.7504252 c 0,0 -0.0625,-0.062504 -0.0625,-0.062504 0,0 0,-6.31289756 0,-6.31289756 0,-0.062504 0.0625,-0.062504 0.0625,-0.062504 0,0 2.812677,0 2.812677,0 0.0625,0 0.0625,0 0.0625,0.062504 0,0 0,6.31289756 0,6.31289756 0,0 0,0.062504 -0.0625,0.062504 0,0 -2.812677,0 -2.812677,0"
     id="path8" />
  <path
     style="fill:#ffffff;fill-opacity:1;fill-rule:evenodd;stroke:none"
     d="m 47.502993,6.7504252 c -0.0625,0 -0.0625,-0.062504 -0.0625,-0.062504 0,0 0,-6.31289756 0,-6.31289756 0,-0.062504 0,-0.062504 0.0625,-0.062504 0,0 2.812677,0 2.812677,0 0,0 0,0 0,0.062504 0,0 0,6.31289756 0,6.31289756 0,0 0,0.062504 0,0.062504 z"
     id="path9" />
  <path
     style="fill:none;stroke:#000000;stroke-width:0.500031px;stroke-linecap:round;stroke-linejoin:round;stroke-miterlimit:4;stroke-dasharray:none;stroke-opacity:1"
     d="m 47.502993,6.7504252 c -0.0625,0 -0.0625,-0.062504 -0.0625,-0.062504 0,0 0,-6.31289756 0,-6.31289756 0,-0.062504 0,-0.062504 0.0625,-0.062504 0,0 2.812677,0 2.812677,0 0,0 0,0 0,0.062504 0,0 0,6.31289756 0,6.31289756 0,0 0,0.062504 0,0.062504 0,0 -2.812677,0 -2.812677,0"
     id="path10" />
  <path
     style="fill:#ffffff;fill-opacity:1;fill-rule:evenodd;stroke:none"
     d="m 44.565308,6.7504252 c 0,0 -0.0625,-0.062504 -0.0625,-0.062504 0,0 0,-6.31289756 0,-6.31289756 0,-0.062504 0.0625,-0.062504 0.0625,-0.062504 0,0 2.812677,0 2.812677,0 0,0 0.0625,0 0.0625,0.062504 0,0 0,6.31289756 0,6.31289756 0,0 -0.0625,0.062504 -0.0625,0.062504 z"
     id="path11" />
  <path
     style="fill:none;stroke:#000000;stroke-width:0.500031px;stroke-linecap:round;stroke-linejoin:round;stroke-miterlimit:4;stroke-dasharray:none;stroke-opacity:1"
     d="m 44.565308,6.7504252 c 0,0 -0.0625,-0.062504 -0.0625,-0.062504 0,0 0,-6.31289756 0,-6.31289756 0,-0.062504 0.0625,-0.062504 0.0625,-0.062504 0,0 2.812677,0 2.812677,0 0,0 0.0625,0 0.0625,0.062504 0,0 0,6.31289756 0,6.31289756 0,0 -0.0625,0.062504 -0.0625,0.062504 0,0 -2.812677,0 -2.812677,0"
     id="path12" />
  <path
     style="fill:#ffffff;fill-opacity:1;fill-rule:evenodd;stroke:none"
     d="m 41.690126,6.7504252 c -0.0625,0 -0.0625,-0.062504 -0.0625,-0.062504 0,0 0,-6.31289756 0,-6.31289756 0,-0.062504 0,-0.062504 0.0625,-0.062504 0,0 2.812678,0 2.812678,0 0,0 0,0 0,0.062504 0,0 0,6.31289756 0,6.31289756 0,0 0,0.062504 0,0.062504 z"
     id="path13" />
  <path
     style="fill:none;stroke:#000000;stroke-width:0.500031px;stroke-linecap:round;stroke-linejoin:round;stroke-miterlimit:4;stroke-dasharray:none;stroke-opacity:1"
     d="m 41.690126,6.7504252 c -0.0625,0 -0.0625,-0.062504 -0.0625,-0.062504 0,0 0,-6.31289756 0,-6.31289756 0,-0.062504 0,-0.062504 0.0625,-0.062504 0,0 2.812678,0 2.812678,0 0,0 0,0 0,0.062504 0,0 0,6.31289756 0,6.31289756 0,0 0,0.062504 0,0.062504 0,0 -2.812678,0 -2.812678,0"
     id="path14" />
  <path
     style="fill:#ffffff;fill-opacity:1;fill-rule:evenodd;stroke:none"
     d="m 38.752441,6.7504252 c 0,0 -0.0625,-0.062504 -0.0625,-0.062504 0,0 0,-6.31289756 0,-6.31289756 0,-0.062504 0.0625,-0.062504 0.0625,-0.062504 0,0 2.812678,0 2.812678,0 0,0 0.0625,0 0.0625,0.062504 0,0 0,6.31289756 0,6.31289756 0,0 -0.0625,0.062504 -0.0625,0.062504 z"
     id="path15" />
  <path
     style="fill:none;stroke:#000000;stroke-width:0.500031px;stroke-linecap:round;stroke-linejoin:round;stroke-miterlimit:4;stroke-dasharray:none;stroke-opacity:1"
     d="m 38.752441,6.7504252 c 0,0 -0.0625,-0.062504 -0.0625,-0.062504 0,0 0,-6.31289756 0,-6.31289756 0,-0.062504 0.0625,-0.062504 0.0625,-0.062504 0,0 2.812678,0 2.812678,0 0,0 0.0625,0 0.0625,0.062504 0,0 0,6.31289756 0,6.31289756 0,0 -0.0625,0.062504 -0.0625,0.062504 0,0 -2.812678,0 -2.812678,0"
     id="path16" />
  <path
     style="fill:#ffffff;fill-opacity:1;fill-rule:evenodd;stroke:none"
     d="m 35.87726,6.7504252 c -0.0625,0 -0.0625,-0.062504 -0.0625,-0.062504 0,0 0,-6.31289756 0,-6.31289756 0,-0.062504 0,-0.062504 0.0625,-0.062504 0,0 2.750174,0 2.750174,0 0.0625,0 0.0625,0 0.0625,0.062504 0,0 0,6.31289756 0,6.31289756 0,0 0,0.062504 -0.0625,0.062504 z"
     id="path17" />
  <path
     style="fill:none;stroke:#000000;stroke-width:0.500031px;stroke-linecap:round;stroke-linejoin:round;stroke-miterlimit:4;stroke-dasharray:none;stroke-opacity:1"
     d="m 35.87726,6.7504252 c -0.0625,0 -0.0625,-0.062504 -0.0625,-0.062504 0,0 0,-6.31289756 0,-6.31289756 0,-0.062504 0,-0.062504 0.0625,-0.062504 0,0 2.750174,0 2.750174,0 0.0625,0 0.0625,0 0.0625,0.062504 0,0 0,6.31289756 0,6.31289756 0,0 0,0.062504 -0.0625,0.062504 0,0 -2.750174,0 -2.750174,0"
     id="path18" />
  <path
     style="fill:#ffffff;fill-opacity:1;fill-rule:evenodd;stroke:none"
     d="m 32.939575,6.7504252 c 0,0 -0.0625,-0.062504 -0.0625,-0.062504 0,0 0,-6.31289756 0,-6.31289756 0,-0.062504 0.0625,-0.062504 0.0625,-0.062504 0,0 2.812677,0 2.812677,0 0,0 0.0625,0 0.0625,0.062504 0,0 0,6.31289756 0,6.31289756 0,0 -0.0625,0.062504 -0.0625,0.062504 z"
     id="path19" />
  <path
     style="fill:none;stroke:#000000;stroke-width:0.500031px;stroke-linecap:round;stroke-linejoin:round;stroke-miterlimit:4;stroke-dasharray:none;stroke-opacity:1"
     d="m 32.939575,6.7504252 c 0,0 -0.0625,-0.062504 -0.0625,-0.062504 0,0 0,-6.31289756 0,-6.31289756 0,-0.062504 0.0625,-0.062504 0.0625,-0.062504 0,0 2.812677,0 2.812677,0 0,0 0.0625,0 0.0625,0.062504 0,0 0,6.31289756 0,6.31289756 0,0 -0.0625,0.062504 -0.0625,0.062504 0,0 -2.812677,0 -2.812677,0"
     id="path20" />
  <path
     style="fill:#ffffff;fill-opacity:1;fill-rule:evenodd;stroke:none"
     d="m 30.064394,6.7504252 c -0.0625,0 -0.0625,-0.062504 -0.0625,-0.062504 0,0 0,-6.31289756 0,-6.31289756 0,-0.062504 0,-0.062504 0.0625,-0.062504 0,0 2.750173,0 2.750173,0 0.0625,0 0.0625,0 0.0625,0.062504 0,0 0,6.31289756 0,6.31289756 0,0 0,0.062504 -0.0625,0.062504 z"
     id="path21" />
  <path
     style="fill:none;stroke:#000000;stroke-width:0.500031px;stroke-linecap:round;stroke-linejoin:round;stroke-miterlimit:4;stroke-dasharray:none;stroke-opacity:1"
     d="m 30.064394,6.7504252 c -0.0625,0 -0.0625,-0.062504 -0.0625,-0.062504 0,0 0,-6.31289756 0,-6.31289756 0,-0.062504 0,-0.062504 0.0625,-0.062504 0,0 2.750173,0 2.750173,0 0.0625,0 0.0625,0 0.0625,0.062504 0,0 0,6.31289756 0,6.31289756 0,0 0,0.062504 -0.0625,0.062504 0,0 -2.750173,0 -2.750173,0"
     id="path22" />
  <path
     style="fill:#ffffff;fill-opacity:1;fill-rule:evenodd;stroke:none"
     d="m 27.126709,6.7504252 c 0,0 -0.0625,-0.062504 -0.0625,-0.062504 0,0 0,-6.31289756 0,-6.31289756 0,-0.062504 0.0625,-0.062504 0.0625,-0.062504 0,0 2.812677,0 2.812677,0 0,0 0.0625,0 0.0625,0.062504 0,0 0,6.31289756 0,6.31289756 0,0 -0.0625,0.062504 -0.0625,0.062504 z"
     id="path23" />
  <path
     style="fill:none;stroke:#000000;stroke-width:0.500031px;stroke-linecap:round;stroke-linejoin:round;stroke-miterlimit:4;stroke-dasharray:none;stroke-opacity:1"
     d="m 27.126709,6.7504252 c 0,0 -0.0625,-0.062504 -0.0625,-0.062504 0,0 0,-6.31289756 0,-6.31289756 0,-0.062504 0.0625,-0.062504 0.0625,-0.062504 0,0 2.812677,0 2.812677,0 0,0 0.0625,0 0.0625,0.062504 0,0 0,6.31289756 0,6.31289756 0,0 -0.0625,0.062504 -0.0625,0.062504 0,0 -2.812677,0 -2.812677,0"
     id="path24" />
  <path
     style="fill:#ffffff;fill-opacity:1;fill-rule:evenodd;stroke:none"
     d="m 24.251528,6.7504252 c -0.0625,0 -0.0625,-0.062504 -0.0625,-0.062504 0,0 0,-6.31289756 0,-6.31289756 0,-0.062504 0,-0.062504 0.0625,-0.062504 0,0 2.750173,0 2.750173,0 0.0625,0 0.0625,0 0.0625,0.062504 0,0 0,6.31289756 0,6.31289756 0,0 0,0.062504 -0.0625,0.062504 z"
     id="path25" />
  <path
     style="fill:none;stroke:#000000;stroke-width:0.500031px;stroke-linecap:round;stroke-linejoin:round;stroke-miterlimit:4;stroke-dasharray:none;stroke-opacity:1"
     d="m 24.251528,6.7504252 c -0.0625,0 -0.0625,-0.062504 -0.0625,-0.062504 0,0 0,-6.31289756 0,-6.31289756 0,-0.062504 0,-0.062504 0.0625,-0.062504 0,0 2.750173,0 2.750173,0 0.0625,0 0.0625,0 0.0625,0.062504 0,0 0,6.31289756 0,6.31289756 0,0 0,0.062504 -0.0625,0.062504 0,0 -2.750173,0 -2.750173,0"
     id="path26" />
  <path
     style="fill:#ffffff;fill-opacity:1;fill-rule:evenodd;stroke:none"
     d="m 21.313843,6.7504252 c 0,0 -0.0625,-0.062504 -0.0625,-0.062504 0,0 0,-6.31289756 0,-6.31289756 0,-0.062504 0.0625,-0.062504 0.0625,-0.062504 0,0 2.812677,0 2.812677,0 0,0 0.0625,0 0.0625,0.062504 0,0 0,6.31289756 0,6.31289756 0,0 -0.0625,0.062504 -0.0625,0.062504 z"
     id="path27" />
  <path
     style="fill:none;stroke:#000000;stroke-width:0.500031px;stroke-linecap:round;stroke-linejoin:round;stroke-miterlimit:4;stroke-dasharray:none;stroke-opacity:1"
     d="m 21.313843,6.7504252 c 0,0 -0.0625,-0.062504 -0.0625,-0.062504 0,0 0,-6.31289756 0,-6.31289756 0,-0.062504 0.0625,-0.062504 0.0625,-0.062504 0,0 2.812677,0 2.812677,0 0,0 0.0625,0 0.0625,0.062504 0,0 0,6.31289756 0,6.31289756 0,0 -0.0625,0.062504 -0.0625,0.062504 0,0 -2.812677,0 -2.812677,0"
     id="path28" />
  <path
     style="fill:#ffffff;fill-opacity:1;fill-rule:evenodd;stroke:none"
     d="m 18.376158,6.7504252 c 0,0 0,-0.062504 0,-0.062504 0,0 0,-6.31289756 0,-6.31289756 0,-0.062504 0,-0.062504 0,-0.062504 0,0 2.812677,0 2.812677,0 0.0625,0 0.0625,0 0.0625,0.062504 0,0 0,6.31289756 0,6.31289756 0,0 0,0.062504 -0.0625,0.062504 z"
     id="path29" />
  <path
     style="fill:none;stroke:#000000;stroke-width:0.500031px;stroke-linecap:round;stroke-linejoin:round;stroke-miterlimit:4;stroke-dasharray:none;stroke-opacity:1"
     d="m 18.376158,6.7504252 c 0,0 0,-0.062504 0,-0.062504 0,0 0,-6.31289756 0,-6.31289756 0,-0.062504 0,-0.062504 0,-0.062504 0,0 2.812677,0 2.812677,0 0.0625,0 0.0625,0 0.0625,0.062504 0,0 0,6.31289756 0,6.31289756 0,0 0,0.062504 -0.0625,0.062504 0,0 -2.812677,0 -2.812677,0"
     id="path30" />
  <path
     style="fill:#ffffff;fill-opacity:1;fill-rule:evenodd;stroke:none"
     d="m 15.500977,6.7504252 c -0.0625,0 -0.0625,-0.062504 -0.0625,-0.062504 0,0 0,-6.31289756 0,-6.31289756 0,-0.062504 0,-0.062504 0.0625,-0.062504 0,0 2.812677,0 2.812677,0 0,0 0.0625,0 0.0625,0.062504 0,0 0,6.31289756 0,6.31289756 0,0 -0.0625,0.062504 -0.0625,0.062504 z"
     id="path31" />
  <path
     style="fill:none;stroke:#000000;stroke-width:0.500031px;stroke-linecap:round;stroke-linejoin:round;stroke-miterlimit:4;stroke-dasharray:none;stroke-opacity:1"
     d="m 15.500977,6.7504252 c -0.0625,0 -0.0625,-0.062504 -0.0625,-0.062504 0,0 0,-6.31289756 0,-6.31289756 0,-0.062504 0,-0.062504 0.0625,-0.062504 0,0 2.812677,0 2.812677,0 0,0 0.0625,0 0.0625,0.062504 0,0 0,6.31289756 0,6.31289756 0,0 -0.0625,0.062504 -0.0625,0.062504 0,0 -2.812677,0 -2.812677,0"
     id="path32" />
  <path
     style="fill:#ffffff;fill-opacity:1;fill-rule:evenodd;stroke:none"
     d="m 12.563292,6.7504252 c 0,0 0,-0.062504 0,-0.062504 0,0 0,-6.31289756 0,-6.31289756 0,-0.062504 0,-0.062504 0,-0.062504 0,0 2.812677,0 2.812677,0 0.0625,0 0.0625,0 0.0625,0.062504 0,0 0,6.31289756 0,6.31289756 0,0 0,0.062504 -0.0625,0.062504 z"
     id="path33" />
  <path
     style="fill:none;stroke:#000000;stroke-width:0.500031px;stroke-linecap:round;stroke-linejoin:round;stroke-miterlimit:4;stroke-dasharray:none;stroke-opacity:1"
     d="m 12.563292,6.7504252 c 0,0 0,-0.062504 0,-0.062504 0,0 0,-6.31289756 0,-6.31289756 0,-0.062504 0,-0.062504 0,-0.062504 0,0 2.812677,0 2.812677,0 0.0625,0 0.0625,0 0.0625,0.062504 0,0 0,6.31289756 0,6.31289756 0,0 0,0.062504 -0.0625,0.062504 0,0 -2.812677,0 -2.812677,0"
     id="path34" />
  <path
     style="fill:#ffffff;fill-opacity:1;fill-rule:evenodd;stroke:none"
     d="m 9.6881105,6.7504252 c -0.0625,0 -0.0625,-0.062504 -0.0625,-0.062504 0,0 0,-6.31289756 0,-6.31289756 0,-0.062504 0,-0.062504 0.0625,-0.062504 0,0 2.8126775,0 2.8126775,0 0,0 0.0625,0 0.0625,0.062504 0,0 0,6.31289756 0,6.31289756 0,0 -0.0625,0.062504 -0.0625,0.062504 z"
     id="path35" />
  <path
     style="fill:none;stroke:#000000;stroke-width:0.500031px;stroke-linecap:round;stroke-linejoin:round;stroke-miterlimit:4;stroke-dasharray:none;stroke-opacity:1"
     d="m 9.6881105,6.7504252 c -0.0625,0 -0.0625,-0.062504 -0.0625,-0.062504 0,0 0,-6.31289756 0,-6.31289756 0,-0.062504 0,-0.062504 0.0625,-0.062504 0,0 2.8126775,0 2.8126775,0 0,0 0.0625,0 0.0625,0.062504 0,0 0,6.31289756 0,6.31289756 0,0 -0.0625,0.062504 -0.0625,0.062504 0,0 -2.8126775,0 -2.8126775,0"
     id="path36" />
  <path
     style="fill:#ffffff;fill-opacity:1;fill-rule:evenodd;stroke:none"
     d="m 6.7504252,6.7504252 c 0,0 0,-0.062504 0,-0.062504 0,0 0,-6.31289756 0,-6.31289756 0,-0.062504 0,-0.062504 0,-0.062504 0,0 2.8126773,0 2.8126773,0 0.0625,0 0.0625,0 0.0625,0.062504 0,0 0,6.31289756 0,6.31289756 0,0 0,0.062504 -0.0625,0.062504 z"
     id="path37" />
  <path
     style="fill:none;stroke:#000000;stroke-width:0.500031px;stroke-linecap:round;stroke-linejoin:round;stroke-miterlimit:4;stroke-dasharray:none;stroke-opacity:1"
     d="m 6.7504252,6.7504252 c 0,0 0,-0.062504 0,-0.062504 0,0 0,-6.31289756 0,-6.31289756 0,-0.062504 0,-0.062504 0,-0.062504 0,0 2.8126773,0 2.8126773,0 0.0625,0 0.0625,0 0.0625,0.062504 0,0 0,6.31289756 0,6.31289756 0,0 0,0.062504 -0.0625,0.062504 0,0 -2.8126773,0 -2.8126773,0"
     id="path38" />
  <path
     style="fill:#ffffff;fill-opacity:1;fill-rule:evenodd;stroke:none"
     d="m 3.8752441,6.7504252 c -0.062504,0 -0.062504,-0.062504 -0.062504,-0.062504 0,0 0,-6.31289756 0,-6.31289756 0,-0.062504 0,-0.062504 0.062504,-0.062504 0,0 2.8126771,0 2.8126771,0 0,0 0.062504,0 0.062504,0.062504 0,0 0,6.31289756 0,6.31289756 0,0 -0.062504,0.062504 -0.062504,0.062504 z"
     id="path39" />
  <path
     style="fill:none;stroke:#000000;stroke-width:0.500031px;stroke-linecap:round;stroke-linejoin:round;stroke-miterlimit:4;stroke-dasharray:none;stroke-opacity:1"
     d="m 3.8752441,6.7504252 c -0.062504,0 -0.062504,-0.062504 -0.062504,-0.062504 0,0 0,-6.31289756 0,-6.31289756 0,-0.062504 0,-0.062504 0.062504,-0.062504 0,0 2.8126771,0 2.8126771,0 0,0 0.062504,0 0.062504,0.062504 0,0 0,6.31289756 0,6.31289756 0,0 -0.062504,0.062504 -0.062504,0.062504 0,0 -2.8126771,0 -2.8126771,0"
     id="path40" />
  <path
     style="fill:#ffffff;fill-opacity:1;fill-rule:evenodd;stroke:none"
     d="m 0.93755904,6.7504252 c 0,0 -0.062504,-0.062504 -0.062504,-0.062504 0,0 0,-6.31289756 0,-6.31289756 0,-0.062504 0.062504,-0.062504 0.062504,-0.062504 0,0 2.81267716,0 2.81267716,0 0.062504,0 0.062504,0 0.062504,0.062504 0,0 0,6.31289756 0,6.31289756 0,0 0,0.062504 -0.062504,0.062504 z"
     id="path41" />
  <path
     style="fill:none;stroke:#000000;stroke-width:0.500031px;stroke-linecap:round;stroke-linejoin:round;stroke-miterlimit:4;stroke-dasharray:none;stroke-opacity:1"
     d="m 0.93755904,6.7504252 c 0,0 -0.062504,-0.062504 -0.062504,-0.062504 0,0 0,-6.31289756 0,-6.31289756 0,-0.062504 0.062504,-0.062504 0.062504,-0.062504 0,0 2.81267716,0 2.81267716,0 0.062504,0 0.062504,0 0.062504,0.062504 0,0 0,6.31289756 0,6.31289756 0,0 0,0.062504 -0.062504,0.062504 0,0 -2.81267716,0 -2.81267716,0"
     id="path42" />
  <path
     style="fill:#ffffff;fill-opacity:1;fill-rule:evenodd;stroke:none"
     d="m 46.690441,6.1878898 c -0.0625,0 -0.0625,0 -0.0625,-0.062504 0,0 0,-3.5002205 0,-3.5002205 0,0 0,-0.062504 0.0625,-0.062504 0,0 1.500095,0 1.500095,0 0,0 0.0625,0.062504 0.0625,0.062504 0,0 0,3.5002205 0,3.5002205 0,0.062504 -0.0625,0.062504 -0.0625,0.062504 z"
     id="path43" />
  <path
     style="fill:none;stroke:#000000;stroke-width:0.500031px;stroke-linecap:round;stroke-linejoin:round;stroke-miterlimit:4;stroke-dasharray:none;stroke-opacity:1"
     d="m 46.690441,6.1878898 c -0.0625,0 -0.0625,0 -0.0625,-0.062504 0,0 0,-3.5002205 0,-3.5002205 0,0 0,-0.062504 0.0625,-0.062504 0,0 1.500095,0 1.500095,0 0,0 0.0625,0.062504 0.0625,0.062504 0,0 0,3.5002205 0,3.5002205 0,0.062504 -0.0625,0.062504 -0.0625,0.062504 0,0 -1.500095,0 -1.500095,0"
     id="path44" />
  <path
     style="fill:#ffffff;fill-opacity:1;fill-rule:evenodd;stroke:none"
     d="m 40.940079,6.1878898 c -0.0625,0 -0.0625,0 -0.0625,-0.062504 0,0 0,-3.5002205 0,-3.5002205 0,0 0,-0.062504 0.0625,-0.062504 0,0 1.500095,0 1.500095,0 0,0 0.0625,0.062504 0.0625,0.062504 0,0 0,3.5002205 0,3.5002205 0,0.062504 -0.0625,0.062504 -0.0625,0.062504 z"
     id="path45" />
  <path
     style="fill:none;stroke:#000000;stroke-width:0.500031px;stroke-linecap:round;stroke-linejoin:round;stroke-miterlimit:4;stroke-dasharray:none;stroke-opacity:1"
     d="m 40.940079,6.1878898 c -0.0625,0 -0.0625,0 -0.0625,-0.062504 0,0 0,-3.5002205 0,-3.5002205 0,0 0,-0.062504 0.0625,-0.062504 0,0 1.500095,0 1.500095,0 0,0 0.0625,0.062504 0.0625,0.062504 0,0 0,3.5002205 0,3.5002205 0,0.062504 -0.0625,0.062504 -0.0625,0.062504 0,0 -1.500095,0 -1.500095,0"
     id="path46" />
  <path
     style="fill:#ffffff;fill-opacity:1;fill-rule:evenodd;stroke:none"
     d="m 38.002394,6.1878898 c -0.0625,0 -0.125008,0 -0.125008,-0.062504 0,0 0,-3.5002205 0,-3.5002205 0,0 0.0625,-0.062504 0.125008,-0.062504 0,0 1.437591,0 1.437591,0 0.0625,0 0.0625,0.062504 0.0625,0.062504 0,0 0,3.5002205 0,3.5002205 0,0.062504 0,0.062504 -0.0625,0.062504 z"
     id="path47" />
  <path
     style="fill:none;stroke:#000000;stroke-width:0.500031px;stroke-linecap:round;stroke-linejoin:round;stroke-miterlimit:4;stroke-dasharray:none;stroke-opacity:1"
     d="m 38.002394,6.1878898 c -0.0625,0 -0.125008,0 -0.125008,-0.062504 0,0 0,-3.5002205 0,-3.5002205 0,0 0.0625,-0.062504 0.125008,-0.062504 0,0 1.437591,0 1.437591,0 0.0625,0 0.0625,0.062504 0.0625,0.062504 0,0 0,3.5002205 0,3.5002205 0,0.062504 0,0.062504 -0.0625,0.062504 0,0 -1.437591,0 -1.437591,0"
     id="path48" />
  <path
     style="fill:#ffffff;fill-opacity:1;fill-rule:evenodd;stroke:none"
     d="m 52.503308,6.1878898 c 0,0 -0.0625,0 -0.0625,-0.062504 0,0 0,-3.5002205 0,-3.5002205 0,0 0.0625,-0.062504 0.0625,-0.062504 0,0 1.500094,0 1.500094,0 0,0 0.0625,0.062504 0.0625,0.062504 0,0 0,3.5002205 0,3.5002205 0,0.062504 -0.0625,0.062504 -0.0625,0.062504 z"
     id="path49" />
  <path
     style="fill:none;stroke:#000000;stroke-width:0.500031px;stroke-linecap:round;stroke-linejoin:round;stroke-miterlimit:4;stroke-dasharray:none;stroke-opacity:1"
     d="m 52.503308,6.1878898 c 0,0 -0.0625,0 -0.0625,-0.062504 0,0 0,-3.5002205 0,-3.5002205 0,0 0.0625,-0.062504 0.0625,-0.062504 0,0 1.500094,0 1.500094,0 0,0 0.0625,0.062504 0.0625,0.062504 0,0 0,3.5002205 0,3.5002205 0,0.062504 -0.0625,0.062504 -0.0625,0.062504 0,0 -1.500094,0 -1.500094,0"
     id="path50" />
  <path
     style="fill:#ffffff;fill-opacity:1;fill-rule:evenodd;stroke:none"
     d="m 49.628126,6.1878898 c -0.0625,0 -0.125007,0 -0.125007,-0.062504 0,0 0,-3.5002205 0,-3.5002205 0,0 0.0625,-0.062504 0.125007,-0.062504 0,0 1.437591,0 1.437591,0 0.0625,0 0.0625,0.062504 0.0625,0.062504 0,0 0,3.5002205 0,3.5002205 0,0.062504 0,0.062504 -0.0625,0.062504 z"
     id="path51" />
  <path
     style="fill:none;stroke:#000000;stroke-width:0.500031px;stroke-linecap:round;stroke-linejoin:round;stroke-miterlimit:4;stroke-dasharray:none;stroke-opacity:1"
     d="m 49.628126,6.1878898 c -0.0625,0 -0.125007,0 -0.125007,-0.062504 0,0 0,-3.5002205 0,-3.5002205 0,0 0.0625,-0.062504 0.125007,-0.062504 0,0 1.437591,0 1.437591,0 0.0625,0 0.0625,0.062504 0.0625,0.062504 0,0 0,3.5002205 0,3.5002205 0,0.062504 0,0.062504 -0.0625,0.062504 0,0 -1.437591,0 -1.437591,0"
     id="path52" />
  <path
     style="fill:#ffffff;fill-opacity:1;fill-rule:evenodd;stroke:none"
     d="m 26.314158,6.1878898 c 0,0 -0.0625,0 -0.0625,-0.062504 0,0 0,-3.5002205 0,-3.5002205 0,0 0.0625,-0.062504 0.0625,-0.062504 0,0 1.500094,0 1.500094,0 0.0625,0 0.0625,0.062504 0.0625,0.062504 0,0 0,3.5002205 0,3.5002205 0,0.062504 0,0.062504 -0.0625,0.062504 z"
     id="path53" />
  <path
     style="fill:none;stroke:#000000;stroke-width:0.500031px;stroke-linecap:round;stroke-linejoin:round;stroke-miterlimit:4;stroke-dasharray:none;stroke-opacity:1"
     d="m 26.314158,6.1878898 c 0,0 -0.0625,0 -0.0625,-0.062504 0,0 0,-3.5002205 0,-3.5002205 0,0 0.0625,-0.062504 0.0625,-0.062504 0,0 1.500094,0 1.500094,0 0.0625,0 0.0625,0.062504 0.0625,0.062504 0,0 0,3.5002205 0,3.5002205 0,0.062504 0,0.062504 -0.0625,0.062504 0,0 -1.500094,0 -1.500094,0"
     id="path54" />
  <path
     style="fill:#ffffff;fill-opacity:1;fill-rule:evenodd;stroke:none"
     d="m 20.501292,6.1878898 c 0,0 -0.0625,0 -0.0625,-0.062504 0,0 0,-3.5002205 0,-3.5002205 0,0 0.0625,-0.062504 0.0625,-0.062504 0,0 1.500094,0 1.500094,0 0.0625,0 0.0625,0.062504 0.0625,0.062504 0,0 0,3.5002205 0,3.5002205 0,0.062504 0,0.062504 -0.0625,0.062504 z"
     id="path55" />
  <path
     style="fill:none;stroke:#000000;stroke-width:0.500031px;stroke-linecap:round;stroke-linejoin:round;stroke-miterlimit:4;stroke-dasharray:none;stroke-opacity:1"
     d="m 20.501292,6.1878898 c 0,0 -0.0625,0 -0.0625,-0.062504 0,0 0,-3.5002205 0,-3.5002205 0,0 0.0625,-0.062504 0.0625,-0.062504 0,0 1.500094,0 1.500094,0 0.0625,0 0.0625,0.062504 0.0625,0.062504 0,0 0,3.5002205 0,3.5002205 0,0.062504 0,0.062504 -0.0625,0.062504 0,0 -1.500094,0 -1.500094,0"
     id="path56" />
  <path
     style="fill:#ffffff;fill-opacity:1;fill-rule:evenodd;stroke:none"
     d="m 17.626111,6.1878898 c -0.0625,0 -0.0625,0 -0.0625,-0.062504 0,0 0,-3.5002205 0,-3.5002205 0,0 0,-0.062504 0.0625,-0.062504 0,0 1.43759,0 1.43759,0 0.0625,0 0.125008,0.062504 0.125008,0.062504 0,0 0,3.5002205 0,3.5002205 0,0.062504 -0.0625,0.062504 -0.125008,0.062504 z"
     id="path57" />
  <path
     style="fill:none;stroke:#000000;stroke-width:0.500031px;stroke-linecap:round;stroke-linejoin:round;stroke-miterlimit:4;stroke-dasharray:none;stroke-opacity:1"
     d="m 17.626111,6.1878898 c -0.0625,0 -0.0625,0 -0.0625,-0.062504 0,0 0,-3.5002205 0,-3.5002205 0,0 0,-0.062504 0.0625,-0.062504 0,0 1.43759,0 1.43759,0 0.0625,0 0.125008,0.062504 0.125008,0.062504 0,0 0,3.5002205 0,3.5002205 0,0.062504 -0.0625,0.062504 -0.125008,0.062504 0,0 -1.43759,0 -1.43759,0"
     id="path58" />
  <path
     style="fill:#ffffff;fill-opacity:1;fill-rule:evenodd;stroke:none"
     d="m 32.189528,6.1878898 c -0.0625,0 -0.125008,0 -0.125008,-0.062504 0,0 0,-3.5002205 0,-3.5002205 0,0 0.0625,-0.062504 0.125008,-0.062504 0,0 1.437591,0 1.437591,0 0.0625,0 0.0625,0.062504 0.0625,0.062504 0,0 0,3.5002205 0,3.5002205 0,0.062504 0,0.062504 -0.0625,0.062504 z"
     id="path59" />
  <path
     style="fill:none;stroke:#000000;stroke-width:0.500031px;stroke-linecap:round;stroke-linejoin:round;stroke-miterlimit:4;stroke-dasharray:none;stroke-opacity:1"
     d="m 32.189528,6.1878898 c -0.0625,0 -0.125008,0 -0.125008,-0.062504 0,0 0,-3.5002205 0,-3.5002205 0,0 0.0625,-0.062504 0.125008,-0.062504 0,0 1.437591,0 1.437591,0 0.0625,0 0.0625,0.062504 0.0625,0.062504 0,0 0,3.5002205 0,3.5002205 0,0.062504 0,0.062504 -0.0625,0.062504 0,0 -1.437591,0 -1.437591,0"
     id="path60" />
  <path
     style="fill:#ffffff;fill-opacity:1;fill-rule:evenodd;stroke:none"
     d="m 29.251843,6.1878898 c -0.0625,0 -0.0625,0 -0.0625,-0.062504 0,0 0,-3.5002205 0,-3.5002205 0,0 0,-0.062504 0.0625,-0.062504 0,0 1.437591,0 1.437591,0 0.0625,0 0.125007,0.062504 0.125007,0.062504 0,0 0,3.5002205 0,3.5002205 0,0.062504 -0.0625,0.062504 -0.125007,0.062504 z"
     id="path61" />
  <path
     style="fill:none;stroke:#000000;stroke-width:0.500031px;stroke-linecap:round;stroke-linejoin:round;stroke-miterlimit:4;stroke-dasharray:none;stroke-opacity:1"
     d="m 29.251843,6.1878898 c -0.0625,0 -0.0625,0 -0.0625,-0.062504 0,0 0,-3.5002205 0,-3.5002205 0,0 0,-0.062504 0.0625,-0.062504 0,0 1.437591,0 1.437591,0 0.0625,0 0.125007,0.062504 0.125007,0.062504 0,0 0,3.5002205 0,3.5002205 0,0.062504 -0.0625,0.062504 -0.125007,0.062504 0,0 -1.437591,0 -1.437591,0"
     id="path62" />
  <path
     style="fill:#ffffff;fill-opacity:1;fill-rule:evenodd;stroke:none"
     d="m 6.0003779,6.1878898 c -0.062504,0 -0.062504,0 -0.062504,-0.062504 0,0 0,-3.5002205 0,-3.5002205 0,0 0,-0.062504 0.062504,-0.062504 0,0 1.4375906,0 1.4375906,0 0.062504,0 0.062504,0.062504 0.062504,0.062504 0,0 0,3.5002205 0,3.5002205 0,0.062504 0,0.062504 -0.062504,0.062504 z"
     id="path63" />
  <path
     style="fill:none;stroke:#000000;stroke-width:0.500031px;stroke-linecap:round;stroke-linejoin:round;stroke-miterlimit:4;stroke-dasharray:none;stroke-opacity:1"
     d="m 6.0003779,6.1878898 c -0.062504,0 -0.062504,0 -0.062504,-0.062504 0,0 0,-3.5002205 0,-3.5002205 0,0 0,-0.062504 0.062504,-0.062504 0,0 1.4375906,0 1.4375906,0 0.062504,0 0.062504,0.062504 0.062504,0.062504 0,0 0,3.5002205 0,3.5002205 0,0.062504 0,0.062504 -0.062504,0.062504 0,0 -1.4375906,0 -1.4375906,0"
     id="path64" />
  <path
     style="fill:#ffffff;fill-opacity:1;fill-rule:evenodd;stroke:none"
     d="m 11.813245,6.1878898 c -0.0625,0 -0.0625,0 -0.0625,-0.062504 0,0 0,-3.5002205 0,-3.5002205 0,0 0,-0.062504 0.0625,-0.062504 0,0 1.43759,0 1.43759,0 0.0625,0 0.125008,0.062504 0.125008,0.062504 0,0 0,3.5002205 0,3.5002205 0,0.062504 -0.0625,0.062504 -0.125008,0.062504 z"
     id="path65" />
  <path
     style="fill:none;stroke:#000000;stroke-width:0.500031px;stroke-linecap:round;stroke-linejoin:round;stroke-miterlimit:4;stroke-dasharray:none;stroke-opacity:1"
     d="m 11.813245,6.1878898 c -0.0625,0 -0.0625,0 -0.0625,-0.062504 0,0 0,-3.5002205 0,-3.5002205 0,0 0,-0.062504 0.0625,-0.062504 0,0 1.43759,0 1.43759,0 0.0625,0 0.125008,0.062504 0.125008,0.062504 0,0 0,3.5002205 0,3.5002205 0,0.062504 -0.0625,0.062504 -0.125008,0.062504 0,0 -1.43759,0 -1.43759,0"
     id="path66" />
  <path
     style="fill:#ffffff;fill-opacity:1;fill-rule:evenodd;stroke:none"
     d="m 8.8755595,6.1878898 c 0,0 -0.0625,0 -0.0625,-0.062504 0,0 0,-3.5002205 0,-3.5002205 0,0 0.0625,-0.062504 0.0625,-0.062504 0,0 1.5000945,0 1.5000945,0 0,0 0.0625,0.062504 0.0625,0.062504 0,0 0,3.5002205 0,3.5002205 0,0.062504 -0.0625,0.062504 -0.0625,0.062504 z"
     id="path67" />
  <path
     style="fill:none;stroke:#000000;stroke-width:0.500031px;stroke-linecap:round;stroke-linejoin:round;stroke-miterlimit:4;stroke-dasharray:none;stroke-opacity:1"
     d="m 8.8755595,6.1878898 c 0,0 -0.0625,0 -0.0625,-0.062504 0,0 0,-3.5002205 0,-3.5002205 0,0 0.0625,-0.062504 0.0625,-0.062504 0,0 1.5000945,0 1.5000945,0 0,0 0.0625,0.062504 0.0625,0.062504 0,0 0,3.5002205 0,3.5002205 0,0.062504 -0.0625,0.062504 -0.0625,0.062504 0,0 -1.5000945,0 -1.5000945,0"
     id="path68" />
  <path
     style="fill:#ffffff;fill-opacity:1;fill-rule:evenodd;stroke:none"
     d="m 10.00063,11.875749 c 0.437528,0 0.750048,0.375023 0.750048,0.812551 0,0.375023 -0.31252,0.750047 -0.750048,0.750047 -0.4375275,0 -0.7500475,-0.375024 -0.7500475,-0.750047 0,-0.437528 0.31252,-0.812551 0.7500475,-0.812551 z"
     id="path69" />
  <path
     style="fill:none;stroke:#000000;stroke-width:0.500031px;stroke-linecap:round;stroke-linejoin:round;stroke-miterlimit:4;stroke-dasharray:none;stroke-opacity:1"
     d="m 10.00063,11.875749 c 0.437528,0 0.750048,0.375023 0.750048,0.812551 0,0.375023 -0.31252,0.750047 -0.750048,0.750047 -0.4375275,0 -0.7500475,-0.375024 -0.7500475,-0.750047 0,-0.437528 0.31252,-0.812551 0.7500475,-0.812551"
     id="path70" />
  <path
     style="fill:#ffffff;fill-opacity:1;fill-rule:evenodd;stroke:none"
     d="m 13.313339,11.875749 c 0.375024,0 0.750047,0.375023 0.750047,0.812551 0,0.375023 -0.375023,0.750047 -0.750047,0.750047 -0.437527,0 -0.750047,-0.375024 -0.750047,-0.750047 0,-0.437528 0.31252,-0.812551 0.750047,-0.812551 z"
     id="path71" />
  <path
     style="fill:none;stroke:#000000;stroke-width:0.500031px;stroke-linecap:round;stroke-linejoin:round;stroke-miterlimit:4;stroke-dasharray:none;stroke-opacity:1"
     d="m 13.313339,11.875749 c 0.375024,0 0.750047,0.375023 0.750047,0.812551 0,0.375023 -0.375023,0.750047 -0.750047,0.750047 -0.437527,0 -0.750047,-0.375024 -0.750047,-0.750047 0,-0.437528 0.31252,-0.812551 0.750047,-0.812551"
     id="path72" />
  <path
     style="fill:#ffffff;fill-opacity:1;fill-rule:evenodd;stroke:none"
     d="m 16.563544,11.875749 c 0.437527,0 0.750047,0.375023 0.750047,0.812551 0,0.375023 -0.31252,0.750047 -0.750047,0.750047 -0.437528,0 -0.750047,-0.375024 -0.750047,-0.750047 0,-0.437528 0.312519,-0.812551 0.750047,-0.812551 z"
     id="path73" />
  <path
     style="fill:none;stroke:#000000;stroke-width:0.500031px;stroke-linecap:round;stroke-linejoin:round;stroke-miterlimit:4;stroke-dasharray:none;stroke-opacity:1"
     d="m 16.563544,11.875749 c 0.437527,0 0.750047,0.375023 0.750047,0.812551 0,0.375023 -0.31252,0.750047 -0.750047,0.750047 -0.437528,0 -0.750047,-0.375024 -0.750047,-0.750047 0,-0.437528 0.312519,-0.812551 0.750047,-0.812551"
     id="path74" />
  <path
     style="fill:#ffffff;fill-opacity:1;fill-rule:evenodd;stroke:none"
     d="m 19.876252,11.875749 c 0.375024,0 0.750048,0.375023 0.750048,0.812551 0,0.375023 -0.375024,0.750047 -0.750048,0.750047 -0.437527,0 -0.750047,-0.375024 -0.750047,-0.750047 0,-0.437528 0.31252,-0.812551 0.750047,-0.812551 z"
     id="path75" />
  <path
     style="fill:none;stroke:#000000;stroke-width:0.500031px;stroke-linecap:round;stroke-linejoin:round;stroke-miterlimit:4;stroke-dasharray:none;stroke-opacity:1"
     d="m 19.876252,11.875749 c 0.375024,0 0.750048,0.375023 0.750048,0.812551 0,0.375023 -0.375024,0.750047 -0.750048,0.750047 -0.437527,0 -0.750047,-0.375024 -0.750047,-0.750047 0,-0.437528 0.31252,-0.812551 0.750047,-0.812551"
     id="path76" />
  <path
     style="fill:#ffffff;fill-opacity:1;fill-rule:evenodd;stroke:none"
     d="m 10.00063,9.6881105 c 0.437528,0 0.750048,0.3125195 0.750048,0.7500475 0,0.437528 -0.31252,0.750047 -0.750048,0.750047 -0.4375275,0 -0.7500475,-0.312519 -0.7500475,-0.750047 0,-0.437528 0.31252,-0.7500475 0.7500475,-0.7500475 z"
     id="path77" />
  <path
     style="fill:none;stroke:#000000;stroke-width:0.500031px;stroke-linecap:round;stroke-linejoin:round;stroke-miterlimit:4;stroke-dasharray:none;stroke-opacity:1"
     d="m 10.00063,9.6881105 c 0.437528,0 0.750048,0.3125195 0.750048,0.7500475 0,0.437528 -0.31252,0.750047 -0.750048,0.750047 -0.4375275,0 -0.7500475,-0.312519 -0.7500475,-0.750047 0,-0.437528 0.31252,-0.7500475 0.7500475,-0.7500475"
     id="path78" />
  <path
     style="fill:#ffffff;fill-opacity:1;fill-rule:evenodd;stroke:none"
     d="m 13.313339,9.6881105 c 0.375024,0 0.750047,0.3125195 0.750047,0.7500475 0,0.437528 -0.375023,0.750047 -0.750047,0.750047 -0.437527,0 -0.750047,-0.312519 -0.750047,-0.750047 0,-0.437528 0.31252,-0.7500475 0.750047,-0.7500475 z"
     id="path79" />
  <path
     style="fill:none;stroke:#000000;stroke-width:0.500031px;stroke-linecap:round;stroke-linejoin:round;stroke-miterlimit:4;stroke-dasharray:none;stroke-opacity:1"
     d="m 13.313339,9.6881105 c 0.375024,0 0.750047,0.3125195 0.750047,0.7500475 0,0.437528 -0.375023,0.750047 -0.750047,0.750047 -0.437527,0 -0.750047,-0.312519 -0.750047,-0.750047 0,-0.437528 0.31252,-0.7500475 0.750047,-0.7500475"
     id="path80" />
  <path
     style="fill:#ffffff;fill-opacity:1;fill-rule:evenodd;stroke:none"
     d="m 16.563544,9.6881105 c 0.437527,0 0.750047,0.3125195 0.750047,0.7500475 0,0.437528 -0.31252,0.750047 -0.750047,0.750047 -0.437528,0 -0.750047,-0.312519 -0.750047,-0.750047 0,-0.437528 0.312519,-0.7500475 0.750047,-0.7500475 z"
     id="path81" />
  <path
     style="fill:none;stroke:#000000;stroke-width:0.500031px;stroke-linecap:round;stroke-linejoin:round;stroke-miterlimit:4;stroke-dasharray:none;stroke-opacity:1"
     d="m 16.563544,9.6881105 c 0.437527,0 0.750047,0.3125195 0.750047,0.7500475 0,0.437528 -0.31252,0.750047 -0.750047,0.750047 -0.437528,0 -0.750047,-0.312519 -0.750047,-0.750047 0,-0.437528 0.312519,-0.7500475 0.750047,-0.7500475"
     id="path82" />
  <path
     style="fill:#ffffff;fill-opacity:1;fill-rule:evenodd;stroke:none"
     d="m 19.876252,9.6881105 c 0.375024,0 0.750048,0.3125195 0.750048,0.7500475 0,0.437528 -0.375024,0.750047 -0.750048,0.750047 -0.437527,0 -0.750047,-0.312519 -0.750047,-0.750047 0,-0.437528 0.31252,-0.7500475 0.750047,-0.7500475 z"
     id="path83" />
  <path
     style="fill:none;stroke:#000000;stroke-width:0.500031px;stroke-linecap:round;stroke-linejoin:round;stroke-miterlimit:4;stroke-dasharray:none;stroke-opacity:1"
     d="m 19.876252,9.6881105 c 0.375024,0 0.750048,0.3125195 0.750048,0.7500475 0,0.437528 -0.375024,0.750047 -0.750048,0.750047 -0.437527,0 -0.750047,-0.312519 -0.750047,-0.750047 0,-0.437528 0.31252,-0.7500475 0.750047,-0.7500475"
     id="path84" />
  <path
     style="fill:#ffffff;fill-opacity:1;fill-rule:evenodd;stroke:none"
     d="m 10.00063,7.4379685 c 0.437528,0 0.750048,0.3125197 0.750048,0.7500472 0,0.4375278 -0.31252,0.7500468 -0.750048,0.7500468 -0.4375275,0 -0.7500475,-0.312519 -0.7500475,-0.7500468 0,-0.4375275 0.31252,-0.7500472 0.7500475,-0.7500472 z"
     id="path85" />
  <path
     style="fill:none;stroke:#000000;stroke-width:0.500031px;stroke-linecap:round;stroke-linejoin:round;stroke-miterlimit:4;stroke-dasharray:none;stroke-opacity:1"
     d="m 10.00063,7.4379685 c 0.437528,0 0.750048,0.3125197 0.750048,0.7500472 0,0.4375278 -0.31252,0.7500468 -0.750048,0.7500468 -0.4375275,0 -0.7500475,-0.312519 -0.7500475,-0.7500468 0,-0.4375275 0.31252,-0.7500472 0.7500475,-0.7500472"
     id="path86" />
  <path
     style="fill:#ffffff;fill-opacity:1;fill-rule:evenodd;stroke:none"
     d="m 13.313339,7.4379685 c 0.375024,0 0.750047,0.3125197 0.750047,0.7500472 0,0.4375278 -0.375023,0.7500468 -0.750047,0.7500468 -0.437527,0 -0.750047,-0.312519 -0.750047,-0.7500468 0,-0.4375275 0.31252,-0.7500472 0.750047,-0.7500472 z"
     id="path87" />
  <path
     style="fill:none;stroke:#000000;stroke-width:0.500031px;stroke-linecap:round;stroke-linejoin:round;stroke-miterlimit:4;stroke-dasharray:none;stroke-opacity:1"
     d="m 13.313339,7.4379685 c 0.375024,0 0.750047,0.3125197 0.750047,0.7500472 0,0.4375278 -0.375023,0.7500468 -0.750047,0.7500468 -0.437527,0 -0.750047,-0.312519 -0.750047,-0.7500468 0,-0.4375275 0.31252,-0.7500472 0.750047,-0.7500472"
     id="path88" />
  <path
     style="fill:#ffffff;fill-opacity:1;fill-rule:evenodd;stroke:none"
     d="m 16.563544,7.4379685 c 0.437527,0 0.750047,0.3125197 0.750047,0.7500472 0,0.4375278 -0.31252,0.7500468 -0.750047,0.7500468 -0.437528,0 -0.750047,-0.312519 -0.750047,-0.7500468 0,-0.4375275 0.312519,-0.7500472 0.750047,-0.7500472 z"
     id="path89" />
  <path
     style="fill:none;stroke:#000000;stroke-width:0.500031px;stroke-linecap:round;stroke-linejoin:round;stroke-miterlimit:4;stroke-dasharray:none;stroke-opacity:1"
     d="m 16.563544,7.4379685 c 0.437527,0 0.750047,0.3125197 0.750047,0.7500472 0,0.4375278 -0.31252,0.7500468 -0.750047,0.7500468 -0.437528,0 -0.750047,-0.312519 -0.750047,-0.7500468 0,-0.4375275 0.312519,-0.7500472 0.750047,-0.7500472"
     id="path90" />
  <path
     style="fill:#ffffff;fill-opacity:1;fill-rule:evenodd;stroke:none"
     d="m 19.876252,7.4379685 c 0.375024,0 0.750048,0.3125197 0.750048,0.7500472 0,0.4375278 -0.375024,0.7500468 -0.750048,0.7500468 -0.437527,0 -0.750047,-0.312519 -0.750047,-0.7500468 0,-0.4375275 0.31252,-0.7500472 0.750047,-0.7500472 z"
     id="path91" />
  <path
     style="fill:none;stroke:#000000;stroke-width:0.500031px;stroke-linecap:round;stroke-linejoin:round;stroke-miterlimit:4;stroke-dasharray:none;stroke-opacity:1"
     d="m 19.876252,7.4379685 c 0.375024,0 0.750048,0.3125197 0.750048,0.7500472 0,0.4375278 -0.375024,0.7500468 -0.750048,0.7500468 -0.437527,0 -0.750047,-0.312519 -0.750047,-0.7500468 0,-0.4375275 0.31252,-0.7500472 0.750047,-0.7500472"
     id="path92" />
  <path
     style="fill:#ffffff;fill-opacity:1;fill-rule:evenodd;stroke:none"
     d="m 41.252599,8.6255435 c 0,0 -1.187575,0 -1.187575,0 0,0 0,-0.7500474 0,-0.7500474 0,0 1.187575,0 1.187575,0 z"
     id="path93" />
  <path
     style="fill:none;stroke:#000000;stroke-width:0.500031px;stroke-linecap:round;stroke-linejoin:round;stroke-miterlimit:4;stroke-dasharray:none;stroke-opacity:1"
     d="m 41.252599,8.6255435 c 0,0 -1.187575,0 -1.187575,0 0,0 0,-0.7500474 0,-0.7500474 0,0 1.187575,0 1.187575,0 0,0 0,0.7500474 0,0.7500474"
     id="path94" />
  <path
     style="fill:#ffffff;fill-opacity:1;fill-rule:evenodd;stroke:none"
     d="m 38.439922,8.6255435 c 0,0 -1.125071,0 -1.125071,0 0,0 0,-0.7500474 0,-0.7500474 0,0 1.125071,0 1.125071,0 z"
     id="path95" />
  <path
     style="fill:none;stroke:#000000;stroke-width:0.500031px;stroke-linecap:round;stroke-linejoin:round;stroke-miterlimit:4;stroke-dasharray:none;stroke-opacity:1"
     d="m 38.439922,8.6255435 c 0,0 -1.125071,0 -1.125071,0 0,0 0,-0.7500474 0,-0.7500474 0,0 1.125071,0 1.125071,0 0,0 0,0.7500474 0,0.7500474"
     id="path96" />
  <path
     style="fill:#ffffff;fill-opacity:1;fill-rule:evenodd;stroke:none"
     d="m 46.752945,8.6255435 c 0,0 -1.12507,0 -1.12507,0 0,0 0,-0.7500474 0,-0.7500474 0,0 1.12507,0 1.12507,0 z"
     id="path97" />
  <path
     style="fill:none;stroke:#000000;stroke-width:0.500031px;stroke-linecap:round;stroke-linejoin:round;stroke-miterlimit:4;stroke-dasharray:none;stroke-opacity:1"
     d="m 46.752945,8.6255435 c 0,0 -1.12507,0 -1.12507,0 0,0 0,-0.7500474 0,-0.7500474 0,0 1.12507,0 1.12507,0 0,0 0,0.7500474 0,0.7500474"
     id="path98" />
  <path
     style="fill:#ffffff;fill-opacity:1;fill-rule:evenodd;stroke:none"
     d="m 44.002772,8.6255435 c 0,0 -1.125071,0 -1.125071,0 0,0 0,-0.7500474 0,-0.7500474 0,0 1.125071,0 1.125071,0 z"
     id="path99" />
  <path
     style="fill:none;stroke:#000000;stroke-width:0.500031px;stroke-linecap:round;stroke-linejoin:round;stroke-miterlimit:4;stroke-dasharray:none;stroke-opacity:1"
     d="m 44.002772,8.6255435 c 0,0 -1.125071,0 -1.125071,0 0,0 0,-0.7500474 0,-0.7500474 0,0 1.125071,0 1.125071,0 0,0 0,0.7500474 0,0.7500474"
     id="path100" />
  <path
     style="fill:#ffffff;fill-opacity:1;fill-rule:evenodd;stroke:none"
     d="m 41.252599,12.563292 c 0,0 -1.187575,0 -1.187575,0 0,0 0,-0.812551 0,-0.812551 0,0 1.187575,0 1.187575,0 z"
     id="path101" />
  <path
     style="fill:none;stroke:#000000;stroke-width:0.500031px;stroke-linecap:round;stroke-linejoin:round;stroke-miterlimit:4;stroke-dasharray:none;stroke-opacity:1"
     d="m 41.252599,12.563292 c 0,0 -1.187575,0 -1.187575,0 0,0 0,-0.812551 0,-0.812551 0,0 1.187575,0 1.187575,0 0,0 0,0.812551 0,0.812551"
     id="path102" />
  <path
     style="fill:#ffffff;fill-opacity:1;fill-rule:evenodd;stroke:none"
     d="m 38.439922,12.563292 c 0,0 -1.125071,0 -1.125071,0 0,0 0,-0.812551 0,-0.812551 0,0 1.125071,0 1.125071,0 z"
     id="path103" />
  <path
     style="fill:none;stroke:#000000;stroke-width:0.500031px;stroke-linecap:round;stroke-linejoin:round;stroke-miterlimit:4;stroke-dasharray:none;stroke-opacity:1"
     d="m 38.439922,12.563292 c 0,0 -1.125071,0 -1.125071,0 0,0 0,-0.812551 0,-0.812551 0,0 1.125071,0 1.125071,0 0,0 0,0.812551 0,0.812551"
     id="path104" />
  <path
     style="fill:#ffffff;fill-opacity:1;fill-rule:evenodd;stroke:none"
     d="m 46.752945,12.563292 c 0,0 -1.12507,0 -1.12507,0 0,0 0,-0.812551 0,-0.812551 0,0 1.12507,0 1.12507,0 z"
     id="path105" />
  <path
     style="fill:none;stroke:#000000;stroke-width:0.500031px;stroke-linecap:round;stroke-linejoin:round;stroke-miterlimit:4;stroke-dasharray:none;stroke-opacity:1"
     d="m 46.752945,12.563292 c 0,0 -1.12507,0 -1.12507,0 0,0 0,-0.812551 0,-0.812551 0,0 1.12507,0 1.12507,0 0,0 0,0.812551 0,0.812551"
     id="path106" />
  <path
     style="fill:#ffffff;fill-opacity:1;fill-rule:evenodd;stroke:none"
     d="m 44.002772,12.563292 c 0,0 -1.125071,0 -1.125071,0 0,0 0,-0.812551 0,-0.812551 0,0 1.125071,0 1.125071,0 z"
     id="path107" />
  <path
     style="fill:none;stroke:#000000;stroke-width:0.500031px;stroke-linecap:round;stroke-linejoin:round;stroke-miterlimit:4;stroke-dasharray:none;stroke-opacity:1"
     d="m 44.002772,12.563292 c 0,0 -1.125071,0 -1.125071,0 0,0 0,-0.812551 0,-0.812551 0,0 1.125071,0 1.125071,0 0,0 0,0.812551 0,0.812551"
     id="path108" />
  <path
     style="fill:#ffffff;fill-opacity:1;fill-rule:evenodd;stroke:none"
     d="m 41.252599,10.563166 c 0,0 -1.187575,0 -1.187575,0 0,0 0,-0.7500475 0,-0.7500475 0,0 1.187575,0 1.187575,0 z"
     id="path109" />
  <path
     style="fill:none;stroke:#000000;stroke-width:0.500031px;stroke-linecap:round;stroke-linejoin:round;stroke-miterlimit:4;stroke-dasharray:none;stroke-opacity:1"
     d="m 41.252599,10.563166 c 0,0 -1.187575,0 -1.187575,0 0,0 0,-0.7500475 0,-0.7500475 0,0 1.187575,0 1.187575,0 0,0 0,0.7500475 0,0.7500475"
     id="path110" />
  <path
     style="fill:#ffffff;fill-opacity:1;fill-rule:evenodd;stroke:none"
     d="m 38.439922,10.563166 c 0,0 -1.125071,0 -1.125071,0 0,0 0,-0.7500475 0,-0.7500475 0,0 1.125071,0 1.125071,0 z"
     id="path111" />
  <path
     style="fill:none;stroke:#000000;stroke-width:0.500031px;stroke-linecap:round;stroke-linejoin:round;stroke-miterlimit:4;stroke-dasharray:none;stroke-opacity:1"
     d="m 38.439922,10.563166 c 0,0 -1.125071,0 -1.125071,0 0,0 0,-0.7500475 0,-0.7500475 0,0 1.125071,0 1.125071,0 0,0 0,0.7500475 0,0.7500475"
     id="path112" />
  <path
     style="fill:#ffffff;fill-opacity:1;fill-rule:evenodd;stroke:none"
     d="m 46.752945,10.563166 c 0,0 -1.12507,0 -1.12507,0 0,0 0,-0.7500475 0,-0.7500475 0,0 1.12507,0 1.12507,0 z"
     id="path113" />
  <path
     style="fill:none;stroke:#000000;stroke-width:0.500031px;stroke-linecap:round;stroke-linejoin:round;stroke-miterlimit:4;stroke-dasharray:none;stroke-opacity:1"
     d="m 46.752945,10.563166 c 0,0 -1.12507,0 -1.12507,0 0,0 0,-0.7500475 0,-0.7500475 0,0 1.12507,0 1.12507,0 0,0 0,0.7500475 0,0.7500475"
     id="path114" />
  <path
     style="fill:#ffffff;fill-opacity:1;fill-rule:evenodd;stroke:none"
     d="m 44.002772,10.563166 c 0,0 -1.125071,0 -1.125071,0 0,0 0,-0.7500475 0,-0.7500475 0,0 1.125071,0 1.125071,0 z"
     id="path115" />
  <path
     style="fill:none;stroke:#000000;stroke-width:0.500031px;stroke-linecap:round;stroke-linejoin:round;stroke-miterlimit:4;stroke-dasharray:none;stroke-opacity:1"
     d="m 44.002772,10.563166 c 0,0 -1.125071,0 -1.125071,0 0,0 0,-0.7500475 0,-0.7500475 0,0 1.125071,0 1.125071,0 0,0 0,0.7500475 0,0.7500475"
     id="path116" />
</svg>
