<?xml version="1.0" encoding="UTF-8" standalone="no"?>
<svg
   version="1.0"
   width="15.297188mm"
   height="4.6801591mm"
   id="svg52"
   xmlns="http://www.w3.org/2000/svg"
   xmlns:svg="http://www.w3.org/2000/svg">
  <defs
     id="defs1">
    <pattern
       id="EMFhbasepattern"
       patternUnits="userSpaceOnUse"
       width="6"
       height="6"
       x="0"
       y="0" />
  </defs>
  <path
     style="fill:#ffffff;fill-opacity:1;fill-rule:evenodd;stroke:none"
     d="m 0.62503934,17.438774 c -0.1875118,0 -0.3750236,-0.187512 -0.3750236,-0.375024 0,0 0,-16.43853517 0,-16.43853517 0,-0.2500158 0.1875118,-0.3750236 0.3750236,-0.3750236 0,0 56.56606266,0 56.56606266,0 0.187512,0 0.375024,0.1250078 0.375024,0.3750236 0,0 0,16.43853517 0,16.43853517 0,0.187512 -0.187512,0.375024 -0.375024,0.375024 z"
     id="path1" />
  <path
     style="fill:none;stroke:#000000;stroke-width:0.500031px;stroke-linecap:round;stroke-linejoin:round;stroke-miterlimit:4;stroke-dasharray:none;stroke-opacity:1"
     d="m 0.62503934,17.438774 c -0.1875118,0 -0.3750236,-0.187512 -0.3750236,-0.375024 0,0 0,-16.43853517 0,-16.43853517 0,-0.2500158 0.1875118,-0.3750236 0.3750236,-0.3750236 0,0 56.56606266,0 56.56606266,0 0.187512,0 0.375024,0.1250078 0.375024,0.3750236 0,0 0,16.43853517 0,16.43853517 0,0.187512 -0.187512,0.375024 -0.375024,0.375024 0,0 -56.56606266,0 -56.56606266,0"
     id="path2" />
  <path
     style="fill:#ffffff;fill-opacity:1;fill-rule:evenodd;stroke:none"
     d="m 51.12822,9.0632463 c -0.0625,0 -0.0625,-0.0625 -0.0625,-0.0625 0,0 0,-8.68804717 0,-8.68804717 0,-0.062504 0,-0.062504 0.0625,-0.062504 0,0 3.250205,0 3.250205,0 0.0625,0 0.0625,0 0.0625,0.062504 0,0 0,8.68804717 0,8.68804717 0,0 0,0.0625 -0.0625,0.0625 z"
     id="path3" />
  <path
     style="fill:none;stroke:#000000;stroke-width:0.500031px;stroke-linecap:round;stroke-linejoin:round;stroke-miterlimit:4;stroke-dasharray:none;stroke-opacity:1"
     d="m 51.12822,9.0632463 c -0.0625,0 -0.0625,-0.0625 -0.0625,-0.0625 0,0 0,-8.68804717 0,-8.68804717 0,-0.062504 0,-0.062504 0.0625,-0.062504 0,0 3.250205,0 3.250205,0 0.0625,0 0.0625,0 0.0625,0.062504 0,0 0,8.68804717 0,8.68804717 0,0 0,0.0625 -0.0625,0.0625 0,0 -3.250205,0 -3.250205,0"
     id="path4" />
  <path
     style="fill:#ffffff;fill-opacity:1;fill-rule:evenodd;stroke:none"
     d="m 47.690504,9.0632463 c 0,0 -0.0625,-0.0625 -0.0625,-0.0625 0,0 0,-8.68804717 0,-8.68804717 0,-0.062504 0.0625,-0.062504 0.0625,-0.062504 0,0 3.312708,0 3.312708,0 0,0 0.0625,0 0.0625,0.062504 0,0 0,8.68804717 0,8.68804717 0,0 -0.0625,0.0625 -0.0625,0.0625 z"
     id="path5" />
  <path
     style="fill:none;stroke:#000000;stroke-width:0.500031px;stroke-linecap:round;stroke-linejoin:round;stroke-miterlimit:4;stroke-dasharray:none;stroke-opacity:1"
     d="m 47.690504,9.0632463 c 0,0 -0.0625,-0.0625 -0.0625,-0.0625 0,0 0,-8.68804717 0,-8.68804717 0,-0.062504 0.0625,-0.062504 0.0625,-0.062504 0,0 3.312708,0 3.312708,0 0,0 0.0625,0 0.0625,0.062504 0,0 0,8.68804717 0,8.68804717 0,0 -0.0625,0.0625 -0.0625,0.0625 0,0 -3.312708,0 -3.312708,0"
     id="path6" />
  <path
     style="fill:#ffffff;fill-opacity:1;fill-rule:evenodd;stroke:none"
     d="m 44.315291,9.0632463 c -0.0625,0 -0.0625,-0.0625 -0.0625,-0.0625 0,0 0,-8.68804717 0,-8.68804717 0,-0.062504 0,-0.062504 0.0625,-0.062504 0,0 3.250205,0 3.250205,0 0.0625,0 0.0625,0 0.0625,0.062504 0,0 0,8.68804717 0,8.68804717 0,0 0,0.0625 -0.0625,0.0625 z"
     id="path7" />
  <path
     style="fill:none;stroke:#000000;stroke-width:0.500031px;stroke-linecap:round;stroke-linejoin:round;stroke-miterlimit:4;stroke-dasharray:none;stroke-opacity:1"
     d="m 44.315291,9.0632463 c -0.0625,0 -0.0625,-0.0625 -0.0625,-0.0625 0,0 0,-8.68804717 0,-8.68804717 0,-0.062504 0,-0.062504 0.0625,-0.062504 0,0 3.250205,0 3.250205,0 0.0625,0 0.0625,0 0.0625,0.062504 0,0 0,8.68804717 0,8.68804717 0,0 0,0.0625 -0.0625,0.0625 0,0 -3.250205,0 -3.250205,0"
     id="path8" />
  <path
     style="fill:#ffffff;fill-opacity:1;fill-rule:evenodd;stroke:none"
     d="m 40.877575,9.0632463 c 0,0 -0.0625,-0.0625 -0.0625,-0.0625 0,0 0,-8.68804717 0,-8.68804717 0,-0.062504 0.0625,-0.062504 0.0625,-0.062504 0,0 3.312708,0 3.312708,0 0,0 0.0625,0 0.0625,0.062504 0,0 0,8.68804717 0,8.68804717 0,0 -0.0625,0.0625 -0.0625,0.0625 z"
     id="path9" />
  <path
     style="fill:none;stroke:#000000;stroke-width:0.500031px;stroke-linecap:round;stroke-linejoin:round;stroke-miterlimit:4;stroke-dasharray:none;stroke-opacity:1"
     d="m 40.877575,9.0632463 c 0,0 -0.0625,-0.0625 -0.0625,-0.0625 0,0 0,-8.68804717 0,-8.68804717 0,-0.062504 0.0625,-0.062504 0.0625,-0.062504 0,0 3.312708,0 3.312708,0 0,0 0.0625,0 0.0625,0.062504 0,0 0,8.68804717 0,8.68804717 0,0 -0.0625,0.0625 -0.0625,0.0625 0,0 -3.312708,0 -3.312708,0"
     id="path10" />
  <path
     style="fill:#ffffff;fill-opacity:1;fill-rule:evenodd;stroke:none"
     d="m 37.502362,9.0632463 c -0.0625,0 -0.0625,-0.0625 -0.0625,-0.0625 0,0 0,-8.68804717 0,-8.68804717 0,-0.062504 0,-0.062504 0.0625,-0.062504 0,0 3.250205,0 3.250205,0 0.0625,0 0.0625,0 0.0625,0.062504 0,0 0,8.68804717 0,8.68804717 0,0 0,0.0625 -0.0625,0.0625 z"
     id="path11" />
  <path
     style="fill:none;stroke:#000000;stroke-width:0.500031px;stroke-linecap:round;stroke-linejoin:round;stroke-miterlimit:4;stroke-dasharray:none;stroke-opacity:1"
     d="m 37.502362,9.0632463 c -0.0625,0 -0.0625,-0.0625 -0.0625,-0.0625 0,0 0,-8.68804717 0,-8.68804717 0,-0.062504 0,-0.062504 0.0625,-0.062504 0,0 3.250205,0 3.250205,0 0.0625,0 0.0625,0 0.0625,0.062504 0,0 0,8.68804717 0,8.68804717 0,0 0,0.0625 -0.0625,0.0625 0,0 -3.250205,0 -3.250205,0"
     id="path12" />
  <path
     style="fill:#ffffff;fill-opacity:1;fill-rule:evenodd;stroke:none"
     d="m 34.064646,9.0632463 c 0,0 -0.0625,-0.0625 -0.0625,-0.0625 0,0 0,-8.68804717 0,-8.68804717 0,-0.062504 0.0625,-0.062504 0.0625,-0.062504 0,0 3.312708,0 3.312708,0 0,0 0.0625,0 0.0625,0.062504 0,0 0,8.68804717 0,8.68804717 0,0 -0.0625,0.0625 -0.0625,0.0625 z"
     id="path13" />
  <path
     style="fill:none;stroke:#000000;stroke-width:0.500031px;stroke-linecap:round;stroke-linejoin:round;stroke-miterlimit:4;stroke-dasharray:none;stroke-opacity:1"
     d="m 34.064646,9.0632463 c 0,0 -0.0625,-0.0625 -0.0625,-0.0625 0,0 0,-8.68804717 0,-8.68804717 0,-0.062504 0.0625,-0.062504 0.0625,-0.062504 0,0 3.312708,0 3.312708,0 0,0 0.0625,0 0.0625,0.062504 0,0 0,8.68804717 0,8.68804717 0,0 -0.0625,0.0625 -0.0625,0.0625 0,0 -3.312708,0 -3.312708,0"
     id="path14" />
  <path
     style="fill:#ffffff;fill-opacity:1;fill-rule:evenodd;stroke:none"
     d="m 30.689433,9.0632463 c -0.0625,0 -0.0625,-0.0625 -0.0625,-0.0625 0,0 0,-8.68804717 0,-8.68804717 0,-0.062504 0,-0.062504 0.0625,-0.062504 0,0 3.250205,0 3.250205,0 0.0625,0 0.0625,0 0.0625,0.062504 0,0 0,8.68804717 0,8.68804717 0,0 0,0.0625 -0.0625,0.0625 z"
     id="path15" />
  <path
     style="fill:none;stroke:#000000;stroke-width:0.500031px;stroke-linecap:round;stroke-linejoin:round;stroke-miterlimit:4;stroke-dasharray:none;stroke-opacity:1"
     d="m 30.689433,9.0632463 c -0.0625,0 -0.0625,-0.0625 -0.0625,-0.0625 0,0 0,-8.68804717 0,-8.68804717 0,-0.062504 0,-0.062504 0.0625,-0.062504 0,0 3.250205,0 3.250205,0 0.0625,0 0.0625,0 0.0625,0.062504 0,0 0,8.68804717 0,8.68804717 0,0 0,0.0625 -0.0625,0.0625 0,0 -3.250205,0 -3.250205,0"
     id="path16" />
  <path
     style="fill:#ffffff;fill-opacity:1;fill-rule:evenodd;stroke:none"
     d="m 27.251716,9.0632463 c 0,0 -0.0625,-0.0625 -0.0625,-0.0625 0,0 0,-8.68804717 0,-8.68804717 0,-0.062504 0.0625,-0.062504 0.0625,-0.062504 0,0 3.312709,0 3.312709,0 0,0 0.0625,0 0.0625,0.062504 0,0 0,8.68804717 0,8.68804717 0,0 -0.0625,0.0625 -0.0625,0.0625 z"
     id="path17" />
  <path
     style="fill:none;stroke:#000000;stroke-width:0.500031px;stroke-linecap:round;stroke-linejoin:round;stroke-miterlimit:4;stroke-dasharray:none;stroke-opacity:1"
     d="m 27.251716,9.0632463 c 0,0 -0.0625,-0.0625 -0.0625,-0.0625 0,0 0,-8.68804717 0,-8.68804717 0,-0.062504 0.0625,-0.062504 0.0625,-0.062504 0,0 3.312709,0 3.312709,0 0,0 0.0625,0 0.0625,0.062504 0,0 0,8.68804717 0,8.68804717 0,0 -0.0625,0.0625 -0.0625,0.0625 0,0 -3.312709,0 -3.312709,0"
     id="path18" />
  <path
     style="fill:#ffffff;fill-opacity:1;fill-rule:evenodd;stroke:none"
     d="m 23.876504,9.0632463 c -0.0625,0 -0.0625,-0.0625 -0.0625,-0.0625 0,0 0,-8.68804717 0,-8.68804717 0,-0.062504 0,-0.062504 0.0625,-0.062504 0,0 3.250205,0 3.250205,0 0.0625,0 0.0625,0 0.0625,0.062504 0,0 0,8.68804717 0,8.68804717 0,0 0,0.0625 -0.0625,0.0625 z"
     id="path19" />
  <path
     style="fill:none;stroke:#000000;stroke-width:0.500031px;stroke-linecap:round;stroke-linejoin:round;stroke-miterlimit:4;stroke-dasharray:none;stroke-opacity:1"
     d="m 23.876504,9.0632463 c -0.0625,0 -0.0625,-0.0625 -0.0625,-0.0625 0,0 0,-8.68804717 0,-8.68804717 0,-0.062504 0,-0.062504 0.0625,-0.062504 0,0 3.250205,0 3.250205,0 0.0625,0 0.0625,0 0.0625,0.062504 0,0 0,8.68804717 0,8.68804717 0,0 0,0.0625 -0.0625,0.0625 0,0 -3.250205,0 -3.250205,0"
     id="path20" />
  <path
     style="fill:#ffffff;fill-opacity:1;fill-rule:evenodd;stroke:none"
     d="m 20.438787,9.0632463 c 0,0 -0.0625,-0.0625 -0.0625,-0.0625 0,0 0,-8.68804717 0,-8.68804717 0,-0.062504 0.0625,-0.062504 0.0625,-0.062504 0,0 3.312709,0 3.312709,0 0,0 0.0625,0 0.0625,0.062504 0,0 0,8.68804717 0,8.68804717 0,0 -0.0625,0.0625 -0.0625,0.0625 z"
     id="path21" />
  <path
     style="fill:none;stroke:#000000;stroke-width:0.500031px;stroke-linecap:round;stroke-linejoin:round;stroke-miterlimit:4;stroke-dasharray:none;stroke-opacity:1"
     d="m 20.438787,9.0632463 c 0,0 -0.0625,-0.0625 -0.0625,-0.0625 0,0 0,-8.68804717 0,-8.68804717 0,-0.062504 0.0625,-0.062504 0.0625,-0.062504 0,0 3.312709,0 3.312709,0 0,0 0.0625,0 0.0625,0.062504 0,0 0,8.68804717 0,8.68804717 0,0 -0.0625,0.0625 -0.0625,0.0625 0,0 -3.312709,0 -3.312709,0"
     id="path22" />
  <path
     style="fill:#ffffff;fill-opacity:1;fill-rule:evenodd;stroke:none"
     d="m 17.188583,9.0632463 c -0.0625,0 -0.0625,-0.0625 -0.0625,-0.0625 0,0 0,-8.68804717 0,-8.68804717 0,-0.062504 0,-0.062504 0.0625,-0.062504 0,0 3.250204,0 3.250204,0 0.0625,0 0.0625,0 0.0625,0.062504 0,0 0,8.68804717 0,8.68804717 0,0 0,0.0625 -0.0625,0.0625 z"
     id="path23" />
  <path
     style="fill:none;stroke:#000000;stroke-width:0.500031px;stroke-linecap:round;stroke-linejoin:round;stroke-miterlimit:4;stroke-dasharray:none;stroke-opacity:1"
     d="m 17.188583,9.0632463 c -0.0625,0 -0.0625,-0.0625 -0.0625,-0.0625 0,0 0,-8.68804717 0,-8.68804717 0,-0.062504 0,-0.062504 0.0625,-0.062504 0,0 3.250204,0 3.250204,0 0.0625,0 0.0625,0 0.0625,0.062504 0,0 0,8.68804717 0,8.68804717 0,0 0,0.0625 -0.0625,0.0625 0,0 -3.250204,0 -3.250204,0"
     id="path24" />
  <path
     style="fill:#ffffff;fill-opacity:1;fill-rule:evenodd;stroke:none"
     d="m 13.625858,9.0632463 c 0,0 -0.0625,-0.0625 -0.0625,-0.0625 0,0 0,-8.68804717 0,-8.68804717 0,-0.062504 0.0625,-0.062504 0.0625,-0.062504 0,0 3.312709,0 3.312709,0 0,0 0.0625,0 0.0625,0.062504 0,0 0,8.68804717 0,8.68804717 0,0 -0.0625,0.0625 -0.0625,0.0625 z"
     id="path25" />
  <path
     style="fill:none;stroke:#000000;stroke-width:0.500031px;stroke-linecap:round;stroke-linejoin:round;stroke-miterlimit:4;stroke-dasharray:none;stroke-opacity:1"
     d="m 13.625858,9.0632463 c 0,0 -0.0625,-0.0625 -0.0625,-0.0625 0,0 0,-8.68804717 0,-8.68804717 0,-0.062504 0.0625,-0.062504 0.0625,-0.062504 0,0 3.312709,0 3.312709,0 0,0 0.0625,0 0.0625,0.062504 0,0 0,8.68804717 0,8.68804717 0,0 -0.0625,0.0625 -0.0625,0.0625 0,0 -3.312709,0 -3.312709,0"
     id="path26" />
  <path
     style="fill:#ffffff;fill-opacity:1;fill-rule:evenodd;stroke:none"
     d="m 10.250646,9.0632463 c -0.0625,0 -0.0625,-0.0625 -0.0625,-0.0625 0,0 0,-8.68804717 0,-8.68804717 0,-0.062504 0,-0.062504 0.0625,-0.062504 0,0 3.250204,0 3.250204,0 0.0625,0 0.0625,0 0.0625,0.062504 0,0 0,8.68804717 0,8.68804717 0,0 0,0.0625 -0.0625,0.0625 z"
     id="path27" />
  <path
     style="fill:none;stroke:#000000;stroke-width:0.500031px;stroke-linecap:round;stroke-linejoin:round;stroke-miterlimit:4;stroke-dasharray:none;stroke-opacity:1"
     d="m 10.250646,9.0632463 c -0.0625,0 -0.0625,-0.0625 -0.0625,-0.0625 0,0 0,-8.68804717 0,-8.68804717 0,-0.062504 0,-0.062504 0.0625,-0.062504 0,0 3.250204,0 3.250204,0 0.0625,0 0.0625,0 0.0625,0.062504 0,0 0,8.68804717 0,8.68804717 0,0 0,0.0625 -0.0625,0.0625 0,0 -3.250204,0 -3.250204,0"
     id="path28" />
  <path
     style="fill:#ffffff;fill-opacity:1;fill-rule:evenodd;stroke:none"
     d="m 6.8129291,9.0632463 c 0,0 -0.062504,-0.0625 -0.062504,-0.0625 0,0 0,-8.68804717 0,-8.68804717 0,-0.062504 0.062504,-0.062504 0.062504,-0.062504 0,0 3.3127089,0 3.3127089,0 0,0 0.0625,0 0.0625,0.062504 0,0 0,8.68804717 0,8.68804717 0,0 -0.0625,0.0625 -0.0625,0.0625 z"
     id="path29" />
  <path
     style="fill:none;stroke:#000000;stroke-width:0.500031px;stroke-linecap:round;stroke-linejoin:round;stroke-miterlimit:4;stroke-dasharray:none;stroke-opacity:1"
     d="m 6.8129291,9.0632463 c 0,0 -0.062504,-0.0625 -0.062504,-0.0625 0,0 0,-8.68804717 0,-8.68804717 0,-0.062504 0.062504,-0.062504 0.062504,-0.062504 0,0 3.3127089,0 3.3127089,0 0,0 0.0625,0 0.0625,0.062504 0,0 0,8.68804717 0,8.68804717 0,0 -0.0625,0.0625 -0.0625,0.0625 0,0 -3.3127089,0 -3.3127089,0"
     id="path30" />
  <path
     style="fill:#ffffff;fill-opacity:1;fill-rule:evenodd;stroke:none"
     d="m 3.4377165,9.0632463 c -0.062504,0 -0.062504,-0.0625 -0.062504,-0.0625 0,0 0,-8.68804717 0,-8.68804717 0,-0.062504 0,-0.062504 0.062504,-0.062504 0,0 3.2502047,0 3.2502047,0 0.062504,0 0.062504,0 0.062504,0.062504 0,0 0,8.68804717 0,8.68804717 0,0 0,0.0625 -0.062504,0.0625 z"
     id="path31" />
  <path
     style="fill:none;stroke:#000000;stroke-width:0.500031px;stroke-linecap:round;stroke-linejoin:round;stroke-miterlimit:4;stroke-dasharray:none;stroke-opacity:1"
     d="m 3.4377165,9.0632463 c -0.062504,0 -0.062504,-0.0625 -0.062504,-0.0625 0,0 0,-8.68804717 0,-8.68804717 0,-0.062504 0,-0.062504 0.062504,-0.062504 0,0 3.2502047,0 3.2502047,0 0.062504,0 0.062504,0 0.062504,0.062504 0,0 0,8.68804717 0,8.68804717 0,0 0,0.0625 -0.062504,0.0625 0,0 -3.2502047,0 -3.2502047,0"
     id="path32" />
  <path
     style="fill:#ffffff;fill-opacity:1;fill-rule:evenodd;stroke:none"
     d="m 50.190661,9.0632463 c -0.0625,0 -0.0625,-0.0625 -0.0625,-0.125008 0,0 0,-4.812803 0,-4.812803 0,0 0,-0.062504 0.0625,-0.062504 0,0 1.750111,0 1.750111,0 0,0 0.0625,0.062504 0.0625,0.062504 0,0 0,4.812803 0,4.812803 0,0.0625 -0.0625,0.125008 -0.0625,0.125008 z"
     id="path33" />
  <path
     style="fill:none;stroke:#000000;stroke-width:0.500031px;stroke-linecap:round;stroke-linejoin:round;stroke-miterlimit:4;stroke-dasharray:none;stroke-opacity:1"
     d="m 50.190661,9.0632463 c -0.0625,0 -0.0625,-0.0625 -0.0625,-0.125008 0,0 0,-4.812803 0,-4.812803 0,0 0,-0.062504 0.0625,-0.062504 0,0 1.750111,0 1.750111,0 0,0 0.0625,0.062504 0.0625,0.062504 0,0 0,4.812803 0,4.812803 0,0.0625 -0.0625,0.125008 -0.0625,0.125008 0,0 -1.750111,0 -1.750111,0"
     id="path34" />
  <path
     style="fill:#ffffff;fill-opacity:1;fill-rule:evenodd;stroke:none"
     d="m 43.440236,9.0632463 c -0.0625,0 -0.0625,-0.0625 -0.0625,-0.125008 0,0 0,-4.812803 0,-4.812803 0,0 0,-0.062504 0.0625,-0.062504 0,0 1.75011,0 1.75011,0 0.0625,0 0.0625,0.062504 0.0625,0.062504 0,0 0,4.812803 0,4.812803 0,0.0625 0,0.125008 -0.0625,0.125008 z"
     id="path35" />
  <path
     style="fill:none;stroke:#000000;stroke-width:0.500031px;stroke-linecap:round;stroke-linejoin:round;stroke-miterlimit:4;stroke-dasharray:none;stroke-opacity:1"
     d="m 43.440236,9.0632463 c -0.0625,0 -0.0625,-0.0625 -0.0625,-0.125008 0,0 0,-4.812803 0,-4.812803 0,0 0,-0.062504 0.0625,-0.062504 0,0 1.75011,0 1.75011,0 0.0625,0 0.0625,0.062504 0.0625,0.062504 0,0 0,4.812803 0,4.812803 0,0.0625 0,0.125008 -0.0625,0.125008 0,0 -1.75011,0 -1.75011,0"
     id="path36" />
  <path
     style="fill:#ffffff;fill-opacity:1;fill-rule:evenodd;stroke:none"
     d="m 39.940016,9.0632463 c 0,0 -0.0625,-0.0625 -0.0625,-0.125008 0,0 0,-4.812803 0,-4.812803 0,0 0.0625,-0.062504 0.0625,-0.062504 0,0 1.75011,0 1.75011,0 0.0625,0 0.0625,0.062504 0.0625,0.062504 0,0 0,4.812803 0,4.812803 0,0.0625 0,0.125008 -0.0625,0.125008 z"
     id="path37" />
  <path
     style="fill:none;stroke:#000000;stroke-width:0.500031px;stroke-linecap:round;stroke-linejoin:round;stroke-miterlimit:4;stroke-dasharray:none;stroke-opacity:1"
     d="m 39.940016,9.0632463 c 0,0 -0.0625,-0.0625 -0.0625,-0.125008 0,0 0,-4.812803 0,-4.812803 0,0 0.0625,-0.062504 0.0625,-0.062504 0,0 1.75011,0 1.75011,0 0.0625,0 0.0625,0.062504 0.0625,0.062504 0,0 0,4.812803 0,4.812803 0,0.0625 0,0.125008 -0.0625,0.125008 0,0 -1.75011,0 -1.75011,0"
     id="path38" />
  <path
     style="fill:#ffffff;fill-opacity:1;fill-rule:evenodd;stroke:none"
     d="m 26.314157,9.0632463 c 0,0 -0.0625,-0.0625 -0.0625,-0.125008 0,0 0,-4.812803 0,-4.812803 0,0 0.0625,-0.062504 0.0625,-0.062504 0,0 1.750111,0 1.750111,0 0.0625,0 0.0625,0.062504 0.0625,0.062504 0,0 0,4.812803 0,4.812803 0,0.0625 0,0.125008 -0.0625,0.125008 z"
     id="path39" />
  <path
     style="fill:none;stroke:#000000;stroke-width:0.500031px;stroke-linecap:round;stroke-linejoin:round;stroke-miterlimit:4;stroke-dasharray:none;stroke-opacity:1"
     d="m 26.314157,9.0632463 c 0,0 -0.0625,-0.0625 -0.0625,-0.125008 0,0 0,-4.812803 0,-4.812803 0,0 0.0625,-0.062504 0.0625,-0.062504 0,0 1.750111,0 1.750111,0 0.0625,0 0.0625,0.062504 0.0625,0.062504 0,0 0,4.812803 0,4.812803 0,0.0625 0,0.125008 -0.0625,0.125008 0,0 -1.750111,0 -1.750111,0"
     id="path40" />
  <path
     style="fill:#ffffff;fill-opacity:1;fill-rule:evenodd;stroke:none"
     d="m 19.501228,9.0632463 c 0,0 -0.0625,-0.0625 -0.0625,-0.125008 0,0 0,-4.812803 0,-4.812803 0,0 0.0625,-0.062504 0.0625,-0.062504 0,0 1.75011,0 1.75011,0 0.0625,0 0.0625,0.062504 0.0625,0.062504 0,0 0,4.812803 0,4.812803 0,0.0625 0,0.125008 -0.0625,0.125008 z"
     id="path41" />
  <path
     style="fill:none;stroke:#000000;stroke-width:0.500031px;stroke-linecap:round;stroke-linejoin:round;stroke-miterlimit:4;stroke-dasharray:none;stroke-opacity:1"
     d="m 19.501228,9.0632463 c 0,0 -0.0625,-0.0625 -0.0625,-0.125008 0,0 0,-4.812803 0,-4.812803 0,0 0.0625,-0.062504 0.0625,-0.062504 0,0 1.75011,0 1.75011,0 0.0625,0 0.0625,0.062504 0.0625,0.062504 0,0 0,4.812803 0,4.812803 0,0.0625 0,0.125008 -0.0625,0.125008 0,0 -1.75011,0 -1.75011,0"
     id="path42" />
  <path
     style="fill:#ffffff;fill-opacity:1;fill-rule:evenodd;stroke:none"
     d="m 16.126016,9.0632463 c -0.0625,0 -0.0625,-0.0625 -0.0625,-0.125008 0,0 0,-4.812803 0,-4.812803 0,0 0,-0.062504 0.0625,-0.062504 0,0 1.75011,0 1.75011,0 0,0 0.0625,0.062504 0.0625,0.062504 0,0 0,4.812803 0,4.812803 0,0.0625 -0.0625,0.125008 -0.0625,0.125008 z"
     id="path43" />
  <path
     style="fill:none;stroke:#000000;stroke-width:0.500031px;stroke-linecap:round;stroke-linejoin:round;stroke-miterlimit:4;stroke-dasharray:none;stroke-opacity:1"
     d="m 16.126016,9.0632463 c -0.0625,0 -0.0625,-0.0625 -0.0625,-0.125008 0,0 0,-4.812803 0,-4.812803 0,0 0,-0.062504 0.0625,-0.062504 0,0 1.75011,0 1.75011,0 0,0 0.0625,0.062504 0.0625,0.062504 0,0 0,4.812803 0,4.812803 0,0.0625 -0.0625,0.125008 -0.0625,0.125008 0,0 -1.75011,0 -1.75011,0"
     id="path44" />
  <path
     style="fill:#ffffff;fill-opacity:1;fill-rule:evenodd;stroke:none"
     d="m 33.127086,9.0632463 c 0,0 -0.0625,-0.0625 -0.0625,-0.125008 0,0 0,-4.812803 0,-4.812803 0,0 0.0625,-0.062504 0.0625,-0.062504 0,0 1.750111,0 1.750111,0 0.0625,0 0.0625,0.062504 0.0625,0.062504 0,0 0,4.812803 0,4.812803 0,0.0625 0,0.125008 -0.0625,0.125008 z"
     id="path45" />
  <path
     style="fill:none;stroke:#000000;stroke-width:0.500031px;stroke-linecap:round;stroke-linejoin:round;stroke-miterlimit:4;stroke-dasharray:none;stroke-opacity:1"
     d="m 33.127086,9.0632463 c 0,0 -0.0625,-0.0625 -0.0625,-0.125008 0,0 0,-4.812803 0,-4.812803 0,0 0.0625,-0.062504 0.0625,-0.062504 0,0 1.750111,0 1.750111,0 0.0625,0 0.0625,0.062504 0.0625,0.062504 0,0 0,4.812803 0,4.812803 0,0.0625 0,0.125008 -0.0625,0.125008 0,0 -1.750111,0 -1.750111,0"
     id="path46" />
  <path
     style="fill:#ffffff;fill-opacity:1;fill-rule:evenodd;stroke:none"
     d="m 29.751874,9.0632463 c -0.0625,0 -0.0625,-0.0625 -0.0625,-0.125008 0,0 0,-4.812803 0,-4.812803 0,0 0,-0.062504 0.0625,-0.062504 0,0 1.75011,0 1.75011,0 0,0 0.0625,0.062504 0.0625,0.062504 0,0 0,4.812803 0,4.812803 0,0.0625 -0.0625,0.125008 -0.0625,0.125008 z"
     id="path47" />
  <path
     style="fill:none;stroke:#000000;stroke-width:0.500031px;stroke-linecap:round;stroke-linejoin:round;stroke-miterlimit:4;stroke-dasharray:none;stroke-opacity:1"
     d="m 29.751874,9.0632463 c -0.0625,0 -0.0625,-0.0625 -0.0625,-0.125008 0,0 0,-4.812803 0,-4.812803 0,0 0,-0.062504 0.0625,-0.062504 0,0 1.75011,0 1.75011,0 0,0 0.0625,0.062504 0.0625,0.062504 0,0 0,4.812803 0,4.812803 0,0.0625 -0.0625,0.125008 -0.0625,0.125008 0,0 -1.75011,0 -1.75011,0"
     id="path48" />
  <path
     style="fill:#ffffff;fill-opacity:1;fill-rule:evenodd;stroke:none"
     d="m 9.3130861,9.0632463 c -0.0625,0 -0.125007,-0.0625 -0.125007,-0.125008 0,0 0,-4.812803 0,-4.812803 0,0 0.0625,-0.062504 0.125007,-0.062504 0,0 1.7501109,0 1.7501109,0 0,0 0.0625,0.062504 0.0625,0.062504 0,0 0,4.812803 0,4.812803 0,0.0625 -0.0625,0.125008 -0.0625,0.125008 z"
     id="path49" />
  <path
     style="fill:none;stroke:#000000;stroke-width:0.500031px;stroke-linecap:round;stroke-linejoin:round;stroke-miterlimit:4;stroke-dasharray:none;stroke-opacity:1"
     d="m 9.3130861,9.0632463 c -0.0625,0 -0.125007,-0.0625 -0.125007,-0.125008 0,0 0,-4.812803 0,-4.812803 0,0 0.0625,-0.062504 0.125007,-0.062504 0,0 1.7501109,0 1.7501109,0 0,0 0.0625,0.062504 0.0625,0.062504 0,0 0,4.812803 0,4.812803 0,0.0625 -0.0625,0.125008 -0.0625,0.125008 0,0 -1.7501109,0 -1.7501109,0"
     id="path50" />
  <path
     style="fill:#ffffff;fill-opacity:1;fill-rule:evenodd;stroke:none"
     d="m 5.87537,9.0632463 c 0,0 -0.062504,-0.0625 -0.062504,-0.125008 0,0 0,-4.812803 0,-4.812803 0,0 0.062504,-0.062504 0.062504,-0.062504 0,0 1.7501103,0 1.7501103,0 0.062504,0 0.062504,0.062504 0.062504,0.062504 0,0 0,4.812803 0,4.812803 0,0.0625 0,0.125008 -0.062504,0.125008 z"
     id="path51" />
  <path
     style="fill:none;stroke:#000000;stroke-width:0.500031px;stroke-linecap:round;stroke-linejoin:round;stroke-miterlimit:4;stroke-dasharray:none;stroke-opacity:1"
     d="m 5.87537,9.0632463 c 0,0 -0.062504,-0.0625 -0.062504,-0.125008 0,0 0,-4.812803 0,-4.812803 0,0 0.062504,-0.062504 0.062504,-0.062504 0,0 1.7501103,0 1.7501103,0 0.062504,0 0.062504,0.062504 0.062504,0.062504 0,0 0,4.812803 0,4.812803 0,0.0625 0,0.125008 -0.062504,0.125008 0,0 -1.7501103,0 -1.7501103,0"
     id="path52" />
</svg>
